<?xml version="1.0" encoding="utf-8" standalone="no"?>
<!DOCTYPE svg PUBLIC "-//W3C//DTD SVG 1.1//EN"
  "http://www.w3.org/Graphics/SVG/1.1/DTD/svg11.dtd">
<svg xmlns:xlink="http://www.w3.org/1999/xlink" width="72pt" height="72pt" viewBox="0 0 72 72" xmlns="http://www.w3.org/2000/svg" version="1.1">
 <metadata>
  <rdf:RDF xmlns:dc="http://purl.org/dc/elements/1.1/" xmlns:cc="http://creativecommons.org/ns#" xmlns:rdf="http://www.w3.org/1999/02/22-rdf-syntax-ns#">
   <cc:Work>
    <dc:type rdf:resource="http://purl.org/dc/dcmitype/StillImage"/>
    <dc:date>2023-10-05T22:32:30.499206</dc:date>
    <dc:format>image/svg+xml</dc:format>
    <dc:creator>
     <cc:Agent>
      <dc:title>Matplotlib v3.8.0, https://matplotlib.org/</dc:title>
     </cc:Agent>
    </dc:creator>
   </cc:Work>
  </rdf:RDF>
 </metadata>
 <defs>
  <style type="text/css">*{stroke-linejoin: round; stroke-linecap: butt}</style>
 </defs>
 <g id="figure_1">
  <g id="patch_1">
   <path d="M 0 72 
L 72 72 
L 72 0 
L 0 0 
z
" style="fill: #ffffff"/>
  </g>
  <g id="axes_1">
   <g id="patch_2">
    <path d="M 0 72 
L 72 72 
L 72 0 
L 0 0 
z
" style="fill: #ffffff"/>
   </g>
   <g id="matplotlib.axis_1">
    <g id="xtick_1"/>
    <g id="xtick_2"/>
   </g>
   <g id="matplotlib.axis_2">
    <g id="ytick_1"/>
    <g id="ytick_2"/>
    <g id="ytick_3"/>
   </g>
   <g id="line2d_1">
    <path d="M -1 31.454414 
L 1.136842 30.855871 
L 4.168421 29.693096 
L 6.821053 28.757954 
L 8.336842 28.57668 
L 9.473684 28.761292 
L 10.231579 29.059014 
L 10.989474 29.553881 
L 12.126316 30.638456 
L 13.263158 32.193716 
L 14.4 34.135697 
L 16.294737 38.005673 
L 17.810526 41.072615 
L 18.947368 43.108584 
L 19.705263 43.967086 
L 20.463158 44.483786 
L 21.221053 44.78388 
L 21.6 44.756762 
L 21.978947 44.497406 
L 22.736842 43.477693 
L 23.494737 42.0659 
L 24.252632 39.986942 
L 25.389474 36.011523 
L 26.905263 29.269144 
L 30.315789 13.107071 
L 31.452632 9.340366 
L 32.210526 7.368892 
L 32.589474 6.80294 
L 32.968421 6.504391 
L 33.347368 6.362899 
L 34.105263 6.447885 
L 34.484211 6.618249 
L 34.863158 7.071013 
L 35.242105 7.922783 
L 36 10.407616 
L 36.757895 13.399412 
L 37.894737 19.476896 
L 39.031579 26.62646 
L 43.2 54.837859 
L 43.957895 58.701574 
L 45.094737 63.4642 
L 45.473684 64.644282 
L 46.231579 66.014885 
L 46.989474 66.940651 
L 47.368421 67.212663 
L 47.747368 67.304348 
L 48.126316 67.128501 
L 48.505263 66.690425 
L 49.263158 65.348131 
L 50.021053 63.719296 
L 50.778947 61.362268 
L 53.052632 53.1058 
L 54.947368 46.615846 
L 56.084211 43.646228 
L 56.842105 42.074192 
L 57.6 41.087175 
L 58.357895 40.326657 
L 58.736842 40.09394 
L 59.494737 40.03685 
L 60.631579 40.280556 
L 61.389474 40.555063 
L 62.905263 41.442083 
L 64.421053 41.820095 
L 65.178947 41.766806 
L 65.936842 41.313342 
L 67.073684 40.24922 
L 67.831579 39.086301 
L 69.347368 36.157628 
L 73 27.764995 
L 73 27.764995 
" clip-path="url(#pdaea230a59)" style="fill: none; stroke: #e8983b; stroke-width: 4; stroke-linecap: round"/>
   </g>
   <g id="line2d_2">
    <path d="M -1 31.999426 
L 1.515789 31.704092 
L 3.789474 31.202524 
L 6.063158 30.451549 
L 10.989474 28.684422 
L 12.126316 28.57668 
L 13.263158 28.761292 
L 14.021053 29.059014 
L 14.778947 29.553881 
L 15.915789 30.638456 
L 17.052632 32.193716 
L 18.189474 34.135697 
L 20.084211 38.005673 
L 21.6 41.072615 
L 22.736842 43.108584 
L 23.494737 43.967086 
L 24.252632 44.483786 
L 25.010526 44.78388 
L 25.389474 44.756762 
L 25.768421 44.497406 
L 26.526316 43.477693 
L 27.284211 42.0659 
L 28.042105 39.986942 
L 29.178947 36.011523 
L 30.694737 29.269144 
L 34.105263 13.107071 
L 35.242105 9.340366 
L 36 7.368892 
L 36.378947 6.80294 
L 36.757895 6.504391 
L 37.136842 6.362899 
L 37.894737 6.447885 
L 38.273684 6.618249 
L 38.652632 7.071013 
L 39.031579 7.922783 
L 39.789474 10.407616 
L 40.547368 13.399412 
L 41.684211 19.476896 
L 42.821053 26.62646 
L 46.989474 54.837859 
L 47.747368 58.701574 
L 48.884211 63.4642 
L 49.263158 64.644282 
L 50.021053 66.014885 
L 50.778947 66.940651 
L 51.157895 67.212663 
L 51.536842 67.304348 
L 51.915789 67.128501 
L 52.294737 66.690425 
L 53.052632 65.348131 
L 53.810526 63.719296 
L 54.568421 61.362268 
L 56.842105 53.1058 
L 58.736842 46.615846 
L 59.873684 43.646228 
L 60.631579 42.074192 
L 61.389474 41.087175 
L 62.147368 40.326657 
L 62.526316 40.09394 
L 63.284211 40.03685 
L 64.421053 40.280556 
L 65.178947 40.555063 
L 66.694737 41.442083 
L 68.210526 41.820095 
L 68.968421 41.766806 
L 69.726316 41.313342 
L 70.863158 40.24922 
L 71.621053 39.086301 
L 73 36.453176 
L 73 36.453176 
" clip-path="url(#pdaea230a59)" style="fill: none; stroke: #418cd8; stroke-width: 4; stroke-linecap: round"/>
   </g>
  </g>
 </g>
 <defs>
  <clipPath id="pdaea230a59">
   <rect x="0" y="0" width="72" height="72"/>
  </clipPath>
 </defs>
</svg>
