<?xml version="1.0" encoding="utf-8" standalone="no"?>
<!DOCTYPE svg PUBLIC "-//W3C//DTD SVG 1.1//EN"
  "http://www.w3.org/Graphics/SVG/1.1/DTD/svg11.dtd">
<svg xmlns:xlink="http://www.w3.org/1999/xlink" width="576pt" height="360pt" viewBox="0 0 576 360" xmlns="http://www.w3.org/2000/svg" version="1.1">
 <metadata>
  <rdf:RDF xmlns:dc="http://purl.org/dc/elements/1.1/" xmlns:cc="http://creativecommons.org/ns#" xmlns:rdf="http://www.w3.org/1999/02/22-rdf-syntax-ns#">
   <cc:Work>
    <dc:type rdf:resource="http://purl.org/dc/dcmitype/StillImage"/>
    <dc:date>2023-12-02T22:20:59.967381</dc:date>
    <dc:format>image/svg+xml</dc:format>
    <dc:creator>
     <cc:Agent>
      <dc:title>Matplotlib v3.8.2, https://matplotlib.org/</dc:title>
     </cc:Agent>
    </dc:creator>
   </cc:Work>
  </rdf:RDF>
 </metadata>
 <defs>
  <style type="text/css">*{stroke-linejoin: round; stroke-linecap: butt}</style>
 </defs>
 <g id="figure_1">
  <g id="patch_1">
   <path d="M 0 360 
L 576 360 
L 576 0 
L 0 0 
z
" style="fill: #ffffff"/>
  </g>
  <g id="axes_1">
   <g id="patch_2">
    <path d="M 43.2 306 
L 532.8 306 
L 532.8 81 
L 43.2 81 
z
" style="fill: #ffffff"/>
   </g>
   <g id="patch_3">
    <path d="M 142.722327 340.23913 
L 222.838691 340.23913 
L 222.838691 46.76087 
L 142.722327 46.76087 
z
" clip-path="url(#p8a4c29c58e)" style="fill: #e6e6e6"/>
   </g>
   <g id="matplotlib.axis_1">
    <g id="xtick_1">
     <g id="line2d_1">
      <defs>
       <path id="m19391aa719" d="M 0 0 
L 0 3.5 
" style="stroke: #000000; stroke-width: 0.8"/>
      </defs>
      <g>
       <use xlink:href="#m19391aa719" x="61.003636" y="306" style="stroke: #000000; stroke-width: 0.8"/>
      </g>
     </g>
     <g id="text_1">
      <!-- 10 -->
      <g transform="translate(54.983324 320.651563) scale(0.1 -0.1)">
       <defs>
        <path id="DejaVuSansMono-31" d="M 844 531 
L 1825 531 
L 1825 4097 
L 769 3859 
L 769 4434 
L 1819 4666 
L 2450 4666 
L 2450 531 
L 3419 531 
L 3419 0 
L 844 0 
L 844 531 
z
" transform="scale(0.015625)"/>
        <path id="DejaVuSansMono-30" d="M 1509 2344 
Q 1509 2516 1629 2641 
Q 1750 2766 1919 2766 
Q 2094 2766 2219 2641 
Q 2344 2516 2344 2344 
Q 2344 2169 2220 2047 
Q 2097 1925 1919 1925 
Q 1744 1925 1626 2044 
Q 1509 2163 1509 2344 
z
M 1925 4250 
Q 1484 4250 1267 3775 
Q 1050 3300 1050 2328 
Q 1050 1359 1267 884 
Q 1484 409 1925 409 
Q 2369 409 2586 884 
Q 2803 1359 2803 2328 
Q 2803 3300 2586 3775 
Q 2369 4250 1925 4250 
z
M 1925 4750 
Q 2672 4750 3055 4137 
Q 3438 3525 3438 2328 
Q 3438 1134 3055 521 
Q 2672 -91 1925 -91 
Q 1178 -91 797 521 
Q 416 1134 416 2328 
Q 416 3525 797 4137 
Q 1178 4750 1925 4750 
z
" transform="scale(0.015625)"/>
       </defs>
       <use xlink:href="#DejaVuSansMono-31"/>
       <use xlink:href="#DejaVuSansMono-30" x="60.205078"/>
      </g>
     </g>
    </g>
    <g id="xtick_2">
     <g id="line2d_2">
      <g>
       <use xlink:href="#m19391aa719" x="167.825455" y="306" style="stroke: #000000; stroke-width: 0.8"/>
      </g>
     </g>
     <g id="text_2">
      <!-- 20 -->
      <g transform="translate(161.805142 320.651563) scale(0.1 -0.1)">
       <defs>
        <path id="DejaVuSansMono-32" d="M 1166 531 
L 3309 531 
L 3309 0 
L 475 0 
L 475 531 
Q 1059 1147 1496 1619 
Q 1934 2091 2100 2284 
Q 2413 2666 2522 2902 
Q 2631 3138 2631 3384 
Q 2631 3775 2401 3997 
Q 2172 4219 1772 4219 
Q 1488 4219 1175 4116 
Q 863 4013 513 3803 
L 513 4441 
Q 834 4594 1145 4672 
Q 1456 4750 1759 4750 
Q 2444 4750 2861 4386 
Q 3278 4022 3278 3431 
Q 3278 3131 3139 2831 
Q 3000 2531 2688 2169 
Q 2513 1966 2180 1606 
Q 1847 1247 1166 531 
z
" transform="scale(0.015625)"/>
       </defs>
       <use xlink:href="#DejaVuSansMono-32"/>
       <use xlink:href="#DejaVuSansMono-30" x="60.205078"/>
      </g>
     </g>
    </g>
    <g id="xtick_3">
     <g id="line2d_3">
      <g>
       <use xlink:href="#m19391aa719" x="274.647273" y="306" style="stroke: #000000; stroke-width: 0.8"/>
      </g>
     </g>
     <g id="text_3">
      <!-- 30 -->
      <g transform="translate(268.62696 320.651563) scale(0.1 -0.1)">
       <defs>
        <path id="DejaVuSansMono-33" d="M 2425 2497 
Q 2884 2375 3128 2064 
Q 3372 1753 3372 1288 
Q 3372 644 2939 276 
Q 2506 -91 1741 -91 
Q 1419 -91 1084 -31 
Q 750 28 428 141 
L 428 769 
Q 747 603 1056 522 
Q 1366 441 1672 441 
Q 2191 441 2469 675 
Q 2747 909 2747 1350 
Q 2747 1756 2469 1995 
Q 2191 2234 1716 2234 
L 1234 2234 
L 1234 2753 
L 1716 2753 
Q 2150 2753 2394 2943 
Q 2638 3134 2638 3475 
Q 2638 3834 2411 4026 
Q 2184 4219 1766 4219 
Q 1488 4219 1191 4156 
Q 894 4094 569 3969 
L 569 4550 
Q 947 4650 1242 4700 
Q 1538 4750 1766 4750 
Q 2447 4750 2855 4408 
Q 3263 4066 3263 3500 
Q 3263 3116 3048 2859 
Q 2834 2603 2425 2497 
z
" transform="scale(0.015625)"/>
       </defs>
       <use xlink:href="#DejaVuSansMono-33"/>
       <use xlink:href="#DejaVuSansMono-30" x="60.205078"/>
      </g>
     </g>
    </g>
    <g id="xtick_4">
     <g id="line2d_4">
      <g>
       <use xlink:href="#m19391aa719" x="381.469091" y="306" style="stroke: #000000; stroke-width: 0.8"/>
      </g>
     </g>
     <g id="text_4">
      <!-- 40 -->
      <g transform="translate(375.448778 320.651563) scale(0.1 -0.1)">
       <defs>
        <path id="DejaVuSansMono-34" d="M 2297 4091 
L 825 1625 
L 2297 1625 
L 2297 4091 
z
M 2194 4666 
L 2925 4666 
L 2925 1625 
L 3547 1625 
L 3547 1113 
L 2925 1113 
L 2925 0 
L 2297 0 
L 2297 1113 
L 319 1113 
L 319 1709 
L 2194 4666 
z
" transform="scale(0.015625)"/>
       </defs>
       <use xlink:href="#DejaVuSansMono-34"/>
       <use xlink:href="#DejaVuSansMono-30" x="60.205078"/>
      </g>
     </g>
    </g>
    <g id="xtick_5">
     <g id="line2d_5">
      <g>
       <use xlink:href="#m19391aa719" x="488.290909" y="306" style="stroke: #000000; stroke-width: 0.8"/>
      </g>
     </g>
     <g id="text_5">
      <!-- 50 -->
      <g transform="translate(482.270597 320.651563) scale(0.1 -0.1)">
       <defs>
        <path id="DejaVuSansMono-35" d="M 647 4666 
L 3009 4666 
L 3009 4134 
L 1222 4134 
L 1222 2988 
Q 1356 3038 1492 3061 
Q 1628 3084 1766 3084 
Q 2491 3084 2916 2656 
Q 3341 2228 3341 1497 
Q 3341 759 2895 334 
Q 2450 -91 1678 -91 
Q 1306 -91 998 -41 
Q 691 9 447 109 
L 447 750 
Q 734 594 1025 517 
Q 1316 441 1619 441 
Q 2141 441 2423 716 
Q 2706 991 2706 1497 
Q 2706 1997 2414 2275 
Q 2122 2553 1600 2553 
Q 1347 2553 1106 2495 
Q 866 2438 647 2322 
L 647 4666 
z
" transform="scale(0.015625)"/>
       </defs>
       <use xlink:href="#DejaVuSansMono-35"/>
       <use xlink:href="#DejaVuSansMono-30" x="60.205078"/>
      </g>
     </g>
    </g>
    <g id="text_6">
     <!-- Time since origin [min] -->
     <g transform="translate(218.766406 334.329687) scale(0.1 -0.1)">
      <defs>
       <path id="DejaVuSansMono-54" d="M 147 4666 
L 3706 4666 
L 3706 4134 
L 2247 4134 
L 2247 0 
L 1613 0 
L 1613 4134 
L 147 4134 
L 147 4666 
z
" transform="scale(0.015625)"/>
       <path id="DejaVuSansMono-69" d="M 800 3500 
L 2272 3500 
L 2272 447 
L 3413 447 
L 3413 0 
L 556 0 
L 556 447 
L 1697 447 
L 1697 3053 
L 800 3053 
L 800 3500 
z
M 1697 4863 
L 2272 4863 
L 2272 4134 
L 1697 4134 
L 1697 4863 
z
" transform="scale(0.015625)"/>
       <path id="DejaVuSansMono-6d" d="M 2113 3144 
Q 2219 3369 2383 3476 
Q 2547 3584 2778 3584 
Q 3200 3584 3373 3257 
Q 3547 2931 3547 2028 
L 3547 0 
L 3022 0 
L 3022 2003 
Q 3022 2744 2939 2923 
Q 2856 3103 2638 3103 
Q 2388 3103 2295 2911 
Q 2203 2719 2203 2003 
L 2203 0 
L 1678 0 
L 1678 2003 
Q 1678 2753 1589 2928 
Q 1500 3103 1269 3103 
Q 1041 3103 952 2911 
Q 863 2719 863 2003 
L 863 0 
L 341 0 
L 341 3500 
L 863 3500 
L 863 3200 
Q 966 3388 1120 3486 
Q 1275 3584 1472 3584 
Q 1709 3584 1867 3475 
Q 2025 3366 2113 3144 
z
" transform="scale(0.015625)"/>
       <path id="DejaVuSansMono-65" d="M 3475 1894 
L 3475 1613 
L 984 1613 
L 984 1594 
Q 984 1022 1282 709 
Q 1581 397 2125 397 
Q 2400 397 2700 484 
Q 3000 572 3341 750 
L 3341 178 
Q 3013 44 2708 -23 
Q 2403 -91 2119 -91 
Q 1303 -91 843 398 
Q 384 888 384 1747 
Q 384 2584 834 3084 
Q 1284 3584 2034 3584 
Q 2703 3584 3089 3131 
Q 3475 2678 3475 1894 
z
M 2900 2063 
Q 2888 2569 2661 2833 
Q 2434 3097 2009 3097 
Q 1594 3097 1325 2822 
Q 1056 2547 1006 2059 
L 2900 2063 
z
" transform="scale(0.015625)"/>
       <path id="DejaVuSansMono-20" transform="scale(0.015625)"/>
       <path id="DejaVuSansMono-73" d="M 3041 3378 
L 3041 2816 
Q 2794 2959 2544 3031 
Q 2294 3103 2034 3103 
Q 1644 3103 1451 2976 
Q 1259 2850 1259 2591 
Q 1259 2356 1403 2240 
Q 1547 2125 2119 2016 
L 2350 1972 
Q 2778 1891 2998 1647 
Q 3219 1403 3219 1013 
Q 3219 494 2850 201 
Q 2481 -91 1825 -91 
Q 1566 -91 1281 -36 
Q 997 19 666 128 
L 666 722 
Q 988 556 1281 473 
Q 1575 391 1838 391 
Q 2219 391 2428 545 
Q 2638 700 2638 978 
Q 2638 1378 1872 1531 
L 1847 1538 
L 1631 1581 
Q 1134 1678 906 1908 
Q 678 2138 678 2534 
Q 678 3038 1018 3311 
Q 1359 3584 1991 3584 
Q 2272 3584 2531 3532 
Q 2791 3481 3041 3378 
z
" transform="scale(0.015625)"/>
       <path id="DejaVuSansMono-6e" d="M 3284 2169 
L 3284 0 
L 2706 0 
L 2706 2169 
Q 2706 2641 2540 2862 
Q 2375 3084 2022 3084 
Q 1619 3084 1401 2798 
Q 1184 2513 1184 1978 
L 1184 0 
L 609 0 
L 609 3500 
L 1184 3500 
L 1184 2975 
Q 1338 3275 1600 3429 
Q 1863 3584 2222 3584 
Q 2756 3584 3020 3232 
Q 3284 2881 3284 2169 
z
" transform="scale(0.015625)"/>
       <path id="DejaVuSansMono-63" d="M 3316 178 
Q 3084 44 2839 -23 
Q 2594 -91 2338 -91 
Q 1525 -91 1067 396 
Q 609 884 609 1747 
Q 609 2609 1067 3096 
Q 1525 3584 2338 3584 
Q 2591 3584 2831 3518 
Q 3072 3453 3316 3316 
L 3316 2713 
Q 3088 2916 2858 3006 
Q 2628 3097 2338 3097 
Q 1797 3097 1506 2747 
Q 1216 2397 1216 1747 
Q 1216 1100 1508 748 
Q 1800 397 2338 397 
Q 2638 397 2875 489 
Q 3113 581 3316 775 
L 3316 178 
z
" transform="scale(0.015625)"/>
       <path id="DejaVuSansMono-6f" d="M 1925 3097 
Q 1488 3097 1263 2756 
Q 1038 2416 1038 1747 
Q 1038 1081 1263 739 
Q 1488 397 1925 397 
Q 2366 397 2591 739 
Q 2816 1081 2816 1747 
Q 2816 2416 2591 2756 
Q 2366 3097 1925 3097 
z
M 1925 3584 
Q 2653 3584 3039 3112 
Q 3425 2641 3425 1747 
Q 3425 850 3040 379 
Q 2656 -91 1925 -91 
Q 1197 -91 812 379 
Q 428 850 428 1747 
Q 428 2641 812 3112 
Q 1197 3584 1925 3584 
z
" transform="scale(0.015625)"/>
       <path id="DejaVuSansMono-72" d="M 3609 2778 
Q 3425 2922 3234 2987 
Q 3044 3053 2816 3053 
Q 2278 3053 1993 2715 
Q 1709 2378 1709 1741 
L 1709 0 
L 1131 0 
L 1131 3500 
L 1709 3500 
L 1709 2816 
Q 1853 3188 2151 3386 
Q 2450 3584 2859 3584 
Q 3072 3584 3256 3531 
Q 3441 3478 3609 3366 
L 3609 2778 
z
" transform="scale(0.015625)"/>
       <path id="DejaVuSansMono-67" d="M 2681 1778 
Q 2681 2425 2470 2761 
Q 2259 3097 1856 3097 
Q 1434 3097 1212 2761 
Q 991 2425 991 1778 
Q 991 1131 1214 792 
Q 1438 453 1863 453 
Q 2259 453 2470 793 
Q 2681 1134 2681 1778 
z
M 3256 225 
Q 3256 -563 2884 -969 
Q 2513 -1375 1791 -1375 
Q 1553 -1375 1293 -1331 
Q 1034 -1288 775 -1203 
L 775 -634 
Q 1081 -778 1331 -847 
Q 1581 -916 1791 -916 
Q 2256 -916 2468 -662 
Q 2681 -409 2681 141 
L 2681 166 
L 2681 556 
Q 2544 263 2306 119 
Q 2069 -25 1728 -25 
Q 1116 -25 750 465 
Q 384 956 384 1778 
Q 384 2603 750 3093 
Q 1116 3584 1728 3584 
Q 2066 3584 2300 3450 
Q 2534 3316 2681 3034 
L 2681 3488 
L 3256 3488 
L 3256 225 
z
" transform="scale(0.015625)"/>
       <path id="DejaVuSansMono-5b" d="M 1447 4863 
L 2772 4863 
L 2772 4416 
L 2022 4416 
L 2022 -397 
L 2772 -397 
L 2772 -844 
L 1447 -844 
L 1447 4863 
z
" transform="scale(0.015625)"/>
       <path id="DejaVuSansMono-5d" d="M 2406 4863 
L 2406 -844 
L 1081 -844 
L 1081 -397 
L 1831 -397 
L 1831 4416 
L 1081 4416 
L 1081 4863 
L 2406 4863 
z
" transform="scale(0.015625)"/>
      </defs>
      <use xlink:href="#DejaVuSansMono-54"/>
      <use xlink:href="#DejaVuSansMono-69" x="60.205078"/>
      <use xlink:href="#DejaVuSansMono-6d" x="120.410156"/>
      <use xlink:href="#DejaVuSansMono-65" x="180.615234"/>
      <use xlink:href="#DejaVuSansMono-20" x="240.820312"/>
      <use xlink:href="#DejaVuSansMono-73" x="301.025391"/>
      <use xlink:href="#DejaVuSansMono-69" x="361.230469"/>
      <use xlink:href="#DejaVuSansMono-6e" x="421.435547"/>
      <use xlink:href="#DejaVuSansMono-63" x="481.640625"/>
      <use xlink:href="#DejaVuSansMono-65" x="541.845703"/>
      <use xlink:href="#DejaVuSansMono-20" x="602.050781"/>
      <use xlink:href="#DejaVuSansMono-6f" x="662.255859"/>
      <use xlink:href="#DejaVuSansMono-72" x="722.460938"/>
      <use xlink:href="#DejaVuSansMono-69" x="782.666016"/>
      <use xlink:href="#DejaVuSansMono-67" x="842.871094"/>
      <use xlink:href="#DejaVuSansMono-69" x="903.076172"/>
      <use xlink:href="#DejaVuSansMono-6e" x="963.28125"/>
      <use xlink:href="#DejaVuSansMono-20" x="1023.486328"/>
      <use xlink:href="#DejaVuSansMono-5b" x="1083.691406"/>
      <use xlink:href="#DejaVuSansMono-6d" x="1143.896484"/>
      <use xlink:href="#DejaVuSansMono-69" x="1204.101562"/>
      <use xlink:href="#DejaVuSansMono-6e" x="1264.306641"/>
      <use xlink:href="#DejaVuSansMono-5d" x="1324.511719"/>
     </g>
    </g>
   </g>
   <g id="matplotlib.axis_2">
    <g id="ytick_1"/>
    <g id="ytick_2"/>
    <g id="ytick_3"/>
    <g id="ytick_4"/>
    <g id="ytick_5"/>
    <g id="ytick_6"/>
    <g id="ytick_7"/>
   </g>
   <g id="line2d_6">
    <path d="M 43.021964 193.567583 
L 67.412945 193.577556 
L 68.303127 193.265915 
L 69.193309 192.709269 
L 70.439564 191.607594 
L 72.219927 189.983912 
L 72.932073 189.633736 
L 73.288145 189.648546 
L 73.644218 189.855301 
L 74.000291 190.299084 
L 74.5344 191.426603 
L 75.424582 194.108213 
L 76.314764 196.631238 
L 77.026909 198.093616 
L 77.739055 199.07924 
L 78.095127 199.33304 
L 78.4512 199.371923 
L 78.807273 199.190256 
L 79.341382 198.548743 
L 80.231564 196.923169 
L 81.833891 193.836303 
L 82.546036 192.831189 
L 83.080145 192.371535 
L 83.614255 192.220566 
L 84.3264 192.356708 
L 87.887127 193.414784 
L 90.557673 193.187747 
L 94.1184 192.21694 
L 95.008582 192.325427 
L 96.254836 192.751391 
L 97.679127 193.233268 
L 98.747345 193.365845 
L 99.459491 193.252826 
L 100.171636 192.909063 
L 101.239855 192.077316 
L 103.020218 190.633395 
L 103.732364 190.343707 
L 104.266473 190.367778 
L 104.800582 190.588495 
L 105.512727 191.151611 
L 106.402909 192.23426 
L 108.361309 194.779837 
L 109.251491 195.474296 
L 109.963636 195.739276 
L 110.675782 195.746726 
L 111.744 195.491504 
L 112.990255 195.18464 
L 113.880436 195.205447 
L 117.797236 195.600934 
L 119.221527 195.100835 
L 120.111709 194.642734 
L 121.001891 193.900762 
L 122.426182 192.624896 
L 122.960291 192.434424 
L 123.672436 192.485418 
L 125.274764 192.992676 
L 127.945309 194.02467 
L 129.013527 193.990053 
L 130.081745 193.669478 
L 130.971927 193.48839 
L 132.574255 193.343086 
L 133.998545 193.036291 
L 136.134982 193.008105 
L 138.449455 193.183748 
L 139.695709 192.925401 
L 140.763927 192.491977 
L 141.832145 192.051571 
L 142.544291 191.960406 
L 143.256436 192.059591 
L 146.283055 192.809932 
L 148.063418 192.947626 
L 149.487709 193.056407 
L 153.938618 193.930087 
L 155.540945 194.416852 
L 157.677382 194.729928 
L 161.950255 195.172388 
L 162.840436 194.948554 
L 164.264727 194.281494 
L 166.757236 192.941532 
L 167.825455 192.011608 
L 171.030109 188.815429 
L 171.920291 188.349839 
L 172.632436 188.212441 
L 173.522618 188.277627 
L 174.946909 188.466046 
L 176.3712 188.482807 
L 176.727273 188.665969 
L 177.083345 189.02954 
L 177.617455 190.009241 
L 178.151564 191.52165 
L 178.863709 194.196909 
L 180.109964 199.987026 
L 181.178182 204.672612 
L 181.712291 206.267512 
L 182.2464 207.186331 
L 182.602473 207.459112 
L 183.136582 207.518625 
L 184.560873 207.155842 
L 185.273018 206.847659 
L 185.807127 206.281907 
L 186.341236 205.234732 
L 186.875345 203.61532 
L 187.587491 200.669102 
L 189.901964 190.308947 
L 190.436073 188.828018 
L 190.970182 187.949016 
L 191.326255 187.698706 
L 191.682327 187.690089 
L 192.0384 187.870368 
L 192.750545 188.578786 
L 193.462691 189.272749 
L 193.818764 189.44247 
L 194.174836 189.424188 
L 194.530909 189.199539 
L 195.065018 188.456034 
L 195.777164 186.863722 
L 197.023418 183.966669 
L 197.557527 183.156506 
L 198.091636 182.710708 
L 198.447709 182.633807 
L 198.803782 182.724327 
L 199.337891 183.146529 
L 200.050036 184.123834 
L 200.940218 185.795837 
L 202.186473 188.636361 
L 203.966836 192.801204 
L 204.857018 194.38136 
L 205.569164 195.237346 
L 206.103273 195.594782 
L 206.637382 195.67407 
L 207.171491 195.455236 
L 207.7056 194.949382 
L 209.485964 192.914423 
L 210.198109 192.60867 
L 211.088291 192.532545 
L 211.978473 192.710286 
L 214.114909 193.450499 
L 215.361164 193.292444 
L 217.4976 193.021092 
L 218.031709 193.219507 
L 218.743855 193.727422 
L 219.812073 194.771455 
L 220.702255 195.956009 
L 221.770473 197.864781 
L 223.728873 201.776583 
L 224.619055 203.542715 
L 225.153164 204.137128 
L 225.509236 204.23222 
L 225.865309 204.09333 
L 226.221382 203.731919 
L 226.755491 202.834596 
L 227.467636 201.05432 
L 228.357818 198.062505 
L 229.782109 193.133804 
L 230.316218 191.884171 
L 230.850327 191.102536 
L 231.384436 190.719505 
L 232.096582 190.585078 
L 233.520873 190.458106 
L 234.233018 190.113643 
L 234.767127 189.584431 
L 235.301236 188.743067 
L 236.013382 187.173642 
L 237.0816 184.755922 
L 237.615709 184.125287 
L 237.971782 184.082669 
L 238.327855 184.351089 
L 238.683927 184.912562 
L 239.218036 186.168186 
L 241.710545 192.869355 
L 242.778764 194.714733 
L 244.381091 196.997599 
L 245.805382 198.676408 
L 249.366109 201.90324 
L 250.078255 202.236349 
L 250.612364 202.226369 
L 251.146473 201.96678 
L 251.680582 201.462831 
L 252.392727 200.452926 
L 253.460945 198.399931 
L 255.241309 194.431614 
L 257.199709 189.450135 
L 259.514182 183.278254 
L 260.048291 182.439286 
L 260.404364 182.156056 
L 260.760436 182.113457 
L 261.116509 182.285857 
L 261.650618 182.887884 
L 262.362764 184.137805 
L 263.252945 186.247607 
L 264.143127 189.0045 
L 266.813673 198.144496 
L 267.347782 199.11375 
L 267.881891 199.711261 
L 268.594036 200.18103 
L 269.484218 200.507255 
L 270.018327 200.473595 
L 270.552436 200.184508 
L 271.086545 199.617823 
L 271.798691 198.422038 
L 272.688873 196.311236 
L 274.2912 191.691571 
L 275.893527 187.212417 
L 276.605673 185.908226 
L 277.139782 185.356673 
L 277.673891 185.106459 
L 278.208 185.107704 
L 278.742109 185.414428 
L 279.276218 186.12216 
L 279.810327 187.238758 
L 281.056582 190.657883 
L 281.946764 192.74816 
L 282.480873 193.480385 
L 282.836945 193.656648 
L 283.193018 193.53673 
L 283.549091 193.090476 
L 284.0832 191.798918 
L 284.795345 189.14589 
L 286.219636 183.35309 
L 286.753745 181.879807 
L 287.287855 181.01571 
L 287.643927 180.774855 
L 288 180.778865 
L 288.356073 180.986675 
L 288.890182 181.633429 
L 289.424291 182.660447 
L 289.9584 184.113697 
L 290.670545 186.87586 
L 291.382691 190.722457 
L 292.272873 196.87214 
L 294.053236 209.58426 
L 294.587345 211.810256 
L 294.943418 212.597349 
L 295.299491 212.863197 
L 295.655564 212.712637 
L 296.011636 212.256113 
L 296.545745 211.182297 
L 297.257891 209.185597 
L 298.148073 205.875357 
L 299.394327 201.268206 
L 300.106473 199.464008 
L 302.242909 194.887068 
L 302.777018 192.821109 
L 303.489164 189.093675 
L 305.269527 178.735145 
L 305.803636 177.131621 
L 306.159709 176.715115 
L 306.337745 176.723061 
L 306.515782 176.84602 
L 306.871855 177.511287 
L 307.227927 178.726767 
L 307.762036 181.603362 
L 308.474182 187.334077 
L 309.364364 196.847009 
L 311.322764 218.962358 
L 312.034909 224.158028 
L 312.569018 226.223438 
L 312.925091 226.717507 
L 313.103127 226.703367 
L 313.281164 226.557456 
L 313.637236 225.828651 
L 313.993309 224.575636 
L 314.527418 221.738286 
L 315.061527 217.694302 
L 315.773673 210.345096 
L 316.663855 198.255756 
L 318.088145 174.564851 
L 319.156364 158.520786 
L 319.690473 153.170098 
L 320.046545 151.024331 
L 320.402618 150.168849 
L 320.580655 150.258909 
L 320.758691 150.667089 
L 321.114764 152.518167 
L 321.470836 155.666759 
L 322.004945 162.520349 
L 322.895127 177.857765 
L 324.853527 213.072869 
L 325.565673 222.002329 
L 326.277818 227.91697 
L 326.811927 230.719423 
L 327.880145 234.633959 
L 328.592291 237.82968 
L 330.372655 247.028681 
L 330.550691 247.308386 
L 330.728727 247.282592 
L 330.906764 246.981574 
L 331.262836 245.249047 
L 331.618909 241.822823 
L 332.153018 233.119406 
L 332.687127 220.012943 
L 333.399273 196.44603 
L 335.891782 105.919498 
L 336.425891 97.513115 
L 336.781964 95.673913 
L 336.96 95.881492 
L 337.138036 96.741576 
L 337.494109 100.36989 
L 338.028218 109.401752 
L 339.630545 140.175378 
L 339.986618 143.814634 
L 340.342691 145.554908 
L 340.520727 145.651321 
L 340.698764 145.367059 
L 341.054836 143.570258 
L 341.588945 138.848015 
L 342.301091 132.301264 
L 342.657164 130.564989 
L 342.8352 130.438211 
L 343.013236 130.779803 
L 343.191273 131.727879 
L 343.547345 135.508667 
L 343.903418 141.816853 
L 344.437527 155.463584 
L 346.752 222.766087 
L 347.286109 229.757765 
L 347.642182 232.10283 
L 347.998255 232.919213 
L 348.176291 232.872008 
L 348.532364 232.241124 
L 349.244509 230.626032 
L 349.422545 230.576163 
L 349.600582 230.739503 
L 349.778618 231.200386 
L 350.134691 233.098375 
L 350.490764 236.337107 
L 351.024873 243.316882 
L 352.271127 261.119326 
L 352.6272 264.002748 
L 352.983273 265.08305 
L 353.161309 264.899106 
L 353.339345 264.247159 
L 353.695418 261.546866 
L 354.229527 254.655636 
L 355.653818 232.869894 
L 356.009891 229.853304 
L 356.365964 228.517187 
L 356.544 228.52604 
L 356.722036 228.853751 
L 357.078109 230.505373 
L 358.324364 238.566606 
L 358.5024 238.985449 
L 358.680436 238.980505 
L 358.858473 238.640457 
L 359.214545 236.658836 
L 359.570618 233.053341 
L 360.104727 225.175663 
L 361.885091 195.680237 
L 362.4192 190.473807 
L 362.953309 187.397412 
L 363.487418 185.798183 
L 364.733673 183.257874 
L 365.267782 181.325992 
L 365.979927 177.552862 
L 368.116364 164.573511 
L 368.472436 163.778898 
L 368.650473 163.657532 
L 368.828509 163.712488 
L 369.184582 164.292272 
L 369.718691 166.024827 
L 370.430836 168.512242 
L 370.786909 169.211704 
L 370.964945 169.336912 
L 371.142982 169.299474 
L 371.499055 168.798006 
L 372.033164 167.256375 
L 372.745309 165.18669 
L 373.101382 164.740001 
L 373.279418 164.752154 
L 373.457455 164.896821 
L 373.813527 165.633859 
L 374.347636 167.53222 
L 375.237818 170.839696 
L 375.593891 171.615031 
L 375.949964 171.988902 
L 376.484073 172.074617 
L 376.840145 172.140701 
L 377.196218 172.496908 
L 377.552291 173.330552 
L 377.908364 174.723085 
L 378.442473 177.730848 
L 379.688727 185.393077 
L 380.222836 187.234859 
L 380.578909 187.805162 
L 380.934982 187.985283 
L 381.647127 188.051146 
L 382.0032 188.416739 
L 382.359273 189.238823 
L 382.893382 191.37294 
L 384.139636 197.393351 
L 384.495709 198.266432 
L 384.673745 198.465702 
L 384.851782 198.476983 
L 385.029818 198.36786 
L 385.385891 197.750506 
L 386.454109 195.132637 
L 386.632145 194.947701 
L 386.810182 194.942416 
L 386.988218 195.074816 
L 387.344291 195.89334 
L 387.8784 198.306452 
L 389.124655 204.910709 
L 389.480727 205.596481 
L 389.658764 205.579667 
L 389.8368 205.37076 
L 390.192873 204.338865 
L 391.439127 199.374431 
L 391.617164 199.242034 
L 391.7952 199.358173 
L 391.973236 199.739646 
L 392.329309 201.267621 
L 393.041455 206.135291 
L 393.575564 209.377643 
L 393.931636 210.491541 
L 394.109673 210.627888 
L 394.287709 210.512144 
L 394.643782 209.575496 
L 395.355927 206.166089 
L 395.890036 203.97785 
L 396.246109 203.259895 
L 396.424145 203.151808 
L 396.780218 203.329022 
L 397.6704 204.368486 
L 397.848436 204.357337 
L 398.026473 204.233862 
L 398.382545 203.583483 
L 399.094691 201.316478 
L 399.6288 199.93048 
L 399.984873 199.614143 
L 400.340945 199.796306 
L 401.053091 200.676312 
L 401.231127 200.714515 
L 401.409164 200.612977 
L 401.765236 199.808715 
L 402.121309 198.162942 
L 402.833455 193.209976 
L 403.367564 189.775711 
L 403.723636 188.457543 
L 403.901673 188.188773 
L 404.079709 188.213745 
L 404.257745 188.458786 
L 404.613818 189.601045 
L 405.682036 194.16596 
L 406.038109 194.707838 
L 406.216145 194.66732 
L 406.394182 194.45345 
L 406.750255 193.541488 
L 407.818473 190.010268 
L 408.174545 189.613964 
L 408.352582 189.654783 
L 408.708655 190.139067 
L 409.4208 192.017259 
L 409.954909 193.156496 
L 410.310982 193.40408 
L 410.667055 193.19117 
L 411.023127 192.58524 
L 412.625455 189.191617 
L 412.981527 188.929229 
L 413.3376 188.876832 
L 413.871709 189.058305 
L 415.830109 190.089199 
L 417.2544 190.17441 
L 417.610473 190.523021 
L 417.966545 191.161326 
L 418.500655 192.641928 
L 419.390836 195.331817 
L 419.746909 195.836442 
L 419.924945 195.840663 
L 420.102982 195.71089 
L 420.459055 194.94871 
L 420.993164 192.904561 
L 421.705309 190.028327 
L 422.061382 189.187673 
L 422.417455 188.946093 
L 422.773527 189.209282 
L 424.019782 190.987857 
L 424.375855 190.988943 
L 424.909964 190.616224 
L 425.444073 190.270797 
L 425.800145 190.304425 
L 426.156218 190.603674 
L 426.690327 191.438066 
L 427.580509 192.903504 
L 428.292655 193.599681 
L 429.0048 194.27909 
L 429.716945 195.344455 
L 430.429091 196.376357 
L 430.785164 196.602175 
L 431.141236 196.523278 
L 431.497309 196.149542 
L 432.209455 194.859285 
L 432.743564 193.976183 
L 433.099636 193.660081 
L 433.455709 193.617884 
L 433.811782 193.798535 
L 434.88 194.655561 
L 435.236073 194.672589 
L 435.592145 194.472494 
L 436.126255 193.839297 
L 437.372509 192.185095 
L 438.7968 190.939786 
L 439.152873 190.756599 
L 439.508945 190.80875 
L 439.865018 191.188972 
L 440.221091 191.926411 
L 441.467345 195.002589 
L 441.645382 195.104724 
L 441.823418 195.065418 
L 442.179491 194.615975 
L 443.425745 192.206473 
L 443.781818 192.323009 
L 444.137891 192.891075 
L 445.206109 195.103744 
L 445.562182 195.289192 
L 445.918255 195.13114 
L 446.986473 194.197091 
L 447.342545 194.210582 
L 448.410764 194.599168 
L 448.766836 194.393935 
L 449.300945 193.649456 
L 450.013091 192.583803 
L 450.369164 192.399781 
L 450.725236 192.547626 
L 451.259345 193.247566 
L 451.971491 194.231835 
L 452.327564 194.426886 
L 452.683636 194.370437 
L 453.395782 193.847206 
L 454.107927 193.423248 
L 454.820073 193.294157 
L 455.710255 193.294404 
L 456.244364 193.486643 
L 456.956509 194.084897 
L 457.846691 194.860236 
L 459.449018 195.81052 
L 460.3392 196.641403 
L 460.695273 196.649687 
L 461.051345 196.359318 
L 462.2976 194.606195 
L 462.653673 194.659314 
L 463.009745 195.062266 
L 463.899927 196.297304 
L 464.256 196.224059 
L 464.612073 195.674851 
L 466.036364 192.505371 
L 466.392436 192.544907 
L 466.748509 192.92153 
L 467.460655 193.747268 
L 467.816727 193.758896 
L 468.1728 193.440752 
L 469.062982 192.266268 
L 469.419055 192.170645 
L 469.775127 192.368618 
L 470.843345 193.371294 
L 471.199418 193.380375 
L 472.445673 193.067179 
L 473.513891 193.401473 
L 473.869964 193.13811 
L 474.404073 192.251037 
L 475.116218 191.068508 
L 475.472291 190.957423 
L 475.828364 191.250624 
L 477.074618 193.065416 
L 477.430691 192.924775 
L 477.786764 192.416526 
L 478.676945 190.935356 
L 479.033018 190.863637 
L 479.389091 191.201556 
L 480.635345 193.112497 
L 480.991418 192.989489 
L 481.347491 192.501539 
L 482.059636 191.301766 
L 482.415709 191.121834 
L 482.593745 191.197497 
L 482.949818 191.691898 
L 484.018036 193.808773 
L 484.374109 193.914202 
L 484.730182 193.649688 
L 485.620364 192.687929 
L 485.976436 192.679581 
L 487.044655 193.044527 
L 487.400727 192.703721 
L 488.646982 190.80947 
L 489.003055 190.948969 
L 489.359127 191.507912 
L 490.605382 194.065874 
L 491.139491 194.446336 
L 492.029673 194.845483 
L 493.275927 195.720771 
L 493.632 195.607816 
L 494.166109 195.052536 
L 494.878255 194.265282 
L 495.234327 194.17335 
L 495.5904 194.335261 
L 496.836655 195.358074 
L 497.192727 195.207751 
L 497.726836 194.564869 
L 498.260945 193.895848 
L 498.617018 193.703348 
L 498.973091 193.789072 
L 499.5072 194.277996 
L 500.041309 194.770765 
L 500.397382 194.901342 
L 500.931491 194.78232 
L 501.643636 194.585642 
L 501.999709 194.697848 
L 503.424 195.578111 
L 503.780073 195.412157 
L 504.848291 194.690894 
L 505.204364 194.789772 
L 506.272582 195.541453 
L 506.628655 195.427394 
L 506.984727 195.012872 
L 508.409018 192.813678 
L 508.765091 192.775979 
L 509.2992 193.096924 
L 510.011345 193.622553 
L 510.367418 193.702578 
L 510.723491 193.618798 
L 511.2576 193.219727 
L 513.037964 191.491294 
L 513.394036 191.567909 
L 513.928145 192.027465 
L 514.640291 192.624914 
L 514.996364 192.612191 
L 515.352436 192.361908 
L 516.242618 191.487974 
L 516.598691 191.39568 
L 517.1328 191.572244 
L 517.844945 191.853113 
L 519.269236 191.985297 
L 519.981382 192.647476 
L 520.515491 193.061 
L 520.871564 193.140526 
L 522.295855 193.060991 
L 523.542109 193.623895 
L 524.076218 193.480509 
L 524.9664 193.149802 
L 525.500509 193.2815 
L 526.390691 193.695258 
L 526.9248 193.642457 
L 527.993018 193.319291 
L 528.349091 193.475518 
L 528.8832 194.003761 
L 529.595345 194.713455 
L 529.951418 194.842963 
L 530.485527 194.720858 
L 531.197673 194.442175 
L 531.553745 194.486148 
L 532.087855 194.865926 
L 532.978036 195.738286 
L 532.978036 195.738286 
" clip-path="url(#p8a4c29c58e)" style="fill: none; stroke: #000000; stroke-width: 0.5; stroke-linecap: square"/>
   </g>
   <g id="line2d_7">
    <path d="M 43.021964 193.549194 
L 68.6592 193.466297 
L 69.371345 193.114404 
L 70.083491 192.50577 
L 70.795636 191.613174 
L 71.863855 189.857699 
L 72.932073 188.099412 
L 73.644218 187.37515 
L 74.356364 187.399531 
L 74.5344 187.475479 
L 74.890473 187.971652 
L 75.424582 189.075128 
L 76.136727 191.284485 
L 78.4512 199.503573 
L 78.985309 200.483664 
L 79.341382 200.700392 
L 80.053527 200.600971 
L 80.4096 200.14405 
L 81.121745 198.770415 
L 83.258182 194.103083 
L 83.970327 193.182499 
L 84.682473 192.674935 
L 85.394618 192.5022 
L 86.2848 192.557726 
L 90.2016 193.125722 
L 91.625891 193.018284 
L 94.830545 192.670258 
L 96.254836 192.837005 
L 99.637527 193.49848 
L 100.527709 193.323016 
L 101.417891 192.842852 
L 102.308073 192.081542 
L 104.444509 190.077195 
L 104.978618 189.854438 
L 105.512727 189.903397 
L 106.046836 190.131527 
L 106.758982 190.874981 
L 107.649164 192.257755 
L 109.607564 195.47904 
L 110.319709 196.247827 
L 111.031855 196.711146 
L 111.744 196.90202 
L 112.634182 196.895955 
L 116.016873 196.688909 
L 118.509382 196.91442 
L 119.399564 196.73002 
L 120.289745 196.29176 
L 121.357964 195.472491 
L 123.316364 193.835128 
L 124.028509 193.484085 
L 124.740655 193.354924 
L 125.630836 193.470904 
L 127.233164 194.151423 
L 128.479418 194.56524 
L 129.3696 194.641057 
L 130.259782 194.566711 
L 131.862109 194.196815 
L 135.2448 193.367775 
L 137.381236 193.115434 
L 139.339636 192.837988 
L 140.763927 192.398839 
L 144.680727 190.996321 
L 146.105018 190.816998 
L 147.885382 190.868377 
L 149.309673 191.139195 
L 150.912 191.697223 
L 155.006836 193.316213 
L 160.704 194.756255 
L 162.128291 194.905092 
L 163.908655 194.841003 
L 165.867055 194.56951 
L 166.935273 194.197789 
L 167.825455 193.628589 
L 168.5376 192.945167 
L 169.427782 191.779819 
L 170.496 189.962204 
L 173.522618 184.499455 
L 174.056727 183.938838 
L 174.768873 183.654798 
L 175.124945 183.701812 
L 175.659055 184.039077 
L 176.193164 184.742417 
L 176.727273 185.746089 
L 177.439418 187.527438 
L 178.507636 190.897031 
L 180.109964 196.840654 
L 181.890327 204.266848 
L 183.492655 210.899079 
L 184.2048 212.97947 
L 184.560873 213.626462 
L 185.094982 213.6421 
L 185.451055 213.54809 
L 185.807127 212.738804 
L 186.341236 210.861739 
L 187.053382 207.158263 
L 189.189818 194.477844 
L 189.723927 192.531745 
L 190.258036 191.344651 
L 190.792145 190.861506 
L 191.148218 190.863546 
L 191.860364 191.178876 
L 192.216436 191.386304 
L 192.928582 191.35661 
L 193.284655 191.163355 
L 193.818764 190.368188 
L 194.530909 188.665425 
L 196.845382 182.267282 
L 197.379491 181.522434 
L 197.735564 181.206053 
L 198.269673 181.169199 
L 198.803782 181.275461 
L 199.515927 181.882299 
L 200.940218 183.565361 
L 202.898618 185.857464 
L 204.322909 187.216686 
L 205.7472 188.261786 
L 207.349527 189.138593 
L 209.485964 190.031915 
L 212.512582 191.255431 
L 213.758836 192.002372 
L 215.005091 192.993531 
L 218.743855 196.243381 
L 219.812073 196.707266 
L 221.236364 197.243737 
L 221.948509 197.757814 
L 222.660655 198.63265 
L 223.3728 199.96754 
L 224.262982 202.298208 
L 225.509236 206.349945 
L 226.755491 210.167518 
L 227.467636 211.699308 
L 227.823709 212.215438 
L 228.357818 212.520135 
L 228.713891 212.552966 
L 229.069964 212.296539 
L 229.604073 211.59245 
L 230.316218 209.922514 
L 231.028364 207.574612 
L 232.096582 203.059507 
L 235.1232 189.279719 
L 235.835345 187.293797 
L 236.369455 186.40948 
L 236.903564 186.015777 
L 237.259636 186.075252 
L 237.793745 186.470242 
L 238.327855 187.327862 
L 239.04 188.869836 
L 241.710545 195.002048 
L 242.422691 195.976894 
L 243.134836 196.604425 
L 243.846982 196.954064 
L 244.9152 197.156297 
L 248.119855 197.30596 
L 249.366109 197.193208 
L 250.256291 196.89636 
L 251.146473 196.36374 
L 252.214691 195.437407 
L 255.241309 192.615654 
L 256.6656 191.799826 
L 257.911855 191.022328 
L 258.802036 190.14948 
L 259.692218 188.900019 
L 260.760436 186.968065 
L 263.252945 182.240914 
L 263.965091 181.337666 
L 264.677236 180.802943 
L 265.211345 180.750511 
L 265.745455 180.813317 
L 266.279564 181.183038 
L 266.991709 181.931991 
L 268.059927 183.439222 
L 270.018327 186.258087 
L 270.908509 187.201857 
L 271.620655 187.703476 
L 272.154764 187.875601 
L 272.866909 187.890134 
L 273.579055 187.618255 
L 274.647273 186.829432 
L 275.893527 185.922962 
L 276.605673 185.729802 
L 277.139782 185.785589 
L 277.851927 186.132964 
L 278.920145 187.08049 
L 280.344436 188.356743 
L 281.234618 188.818081 
L 282.1248 188.992473 
L 284.261236 189.240858 
L 284.973382 189.615458 
L 285.685527 190.23626 
L 286.575709 191.338524 
L 288 193.555986 
L 289.602327 195.941668 
L 291.026618 197.640946 
L 292.806982 199.741032 
L 294.231273 201.809151 
L 296.545745 205.213318 
L 297.435927 206.14678 
L 298.326109 206.775634 
L 299.216291 207.14223 
L 300.284509 207.355067 
L 301.530764 207.381124 
L 302.598982 207.175969 
L 303.489164 206.764994 
L 304.557382 205.97807 
L 306.337745 204.602561 
L 306.871855 204.427684 
L 307.762036 204.489514 
L 308.474182 205.006187 
L 309.186327 205.872936 
L 310.432582 207.91178 
L 311.5008 209.561122 
L 312.212945 210.152707 
L 312.569018 210.15464 
L 313.103127 209.867299 
L 313.4592 209.320642 
L 313.993309 207.973403 
L 314.527418 205.896194 
L 315.239564 201.952216 
L 315.951709 196.688922 
L 317.019927 186.799714 
L 318.800291 169.69686 
L 319.3344 165.985252 
L 319.868509 163.57809 
L 320.046545 163.332315 
L 320.402618 163.521824 
L 320.758691 164.000243 
L 320.936727 164.652037 
L 321.470836 168.662061 
L 322.004945 174.881362 
L 322.717091 186.290743 
L 323.785309 207.913582 
L 325.031564 232.80314 
L 325.565673 240.845614 
L 326.099782 246.270086 
L 326.277818 247.083184 
L 326.633891 247.070522 
L 326.989964 246.886787 
L 327.168 246.373501 
L 327.524073 242.968384 
L 328.058182 235.734659 
L 328.948364 218.178744 
L 331.262836 168.277419 
L 331.974982 157.73753 
L 332.687127 149.915064 
L 333.755345 141.073873 
L 335.0016 130.577706 
L 337.138036 111.018959 
L 337.494109 109.220671 
L 338.028218 108.099142 
L 338.206255 108.01588 
L 338.384291 108.292983 
L 338.740364 109.768153 
L 339.096436 111.895833 
L 339.630545 117.054642 
L 340.342691 126.181125 
L 342.123055 153.331497 
L 345.861818 211.812555 
L 347.108073 230.40218 
L 347.998255 240.317313 
L 348.7104 245.957818 
L 349.422545 249.952343 
L 350.312727 253.503997 
L 351.202909 256.123175 
L 351.915055 257.534252 
L 352.093091 257.695491 
L 352.805236 257.675432 
L 352.983273 257.580944 
L 353.339345 256.855534 
L 353.873455 255.232933 
L 354.5856 251.998383 
L 355.831855 244.636261 
L 358.858473 224.787946 
L 364.021527 189.581478 
L 365.445818 181.436815 
L 366.692073 175.585521 
L 367.938327 170.88789 
L 368.828509 168.324965 
L 369.540655 166.883813 
L 370.2528 166.047975 
L 370.964945 165.783591 
L 371.499055 165.884629 
L 372.033164 166.123803 
L 373.279418 167.073916 
L 374.347636 168.139136 
L 375.237818 169.318166 
L 376.128 170.871404 
L 377.196218 173.242568 
L 378.620509 177.010399 
L 380.756945 182.606752 
L 382.181236 185.571829 
L 384.139636 189.518346 
L 385.741964 193.400035 
L 387.522327 197.629497 
L 388.768582 200.035333 
L 389.8368 201.657613 
L 390.905018 202.863847 
L 391.7952 203.563405 
L 392.863418 204.092923 
L 393.931636 204.376187 
L 395.177891 204.457519 
L 396.246109 204.33813 
L 397.314327 203.985295 
L 398.382545 203.395541 
L 399.6288 202.430807 
L 401.231127 200.871835 
L 402.655418 199.180087 
L 403.901673 197.355242 
L 406.928291 192.634664 
L 407.640436 191.995432 
L 408.174545 191.75628 
L 408.708655 191.673787 
L 409.4208 191.835082 
L 410.310982 192.296829 
L 411.3792 192.83126 
L 412.269382 192.893497 
L 412.803491 192.674503 
L 413.3376 192.289127 
L 414.227782 191.338647 
L 416.008145 189.347342 
L 416.720291 188.885297 
L 417.2544 188.754035 
L 417.966545 188.752458 
L 418.856727 189.080097 
L 423.307636 191.275262 
L 426.690327 192.225556 
L 431.853382 193.503433 
L 432.9216 193.515783 
L 433.989818 193.317261 
L 437.372509 192.341417 
L 438.440727 192.493314 
L 439.508945 192.967455 
L 442.179491 194.40863 
L 443.069673 194.586277 
L 444.137891 194.575283 
L 449.122909 194.219397 
L 451.615418 194.278505 
L 453.395782 194.596807 
L 455.888291 195.067708 
L 457.490618 195.086639 
L 460.873309 194.865772 
L 461.941527 194.601033 
L 463.009745 194.097359 
L 466.392436 192.215145 
L 467.282618 192.111302 
L 468.350836 192.219185 
L 472.801745 193.2506 
L 474.938182 193.635823 
L 476.362473 193.55528 
L 477.608727 193.224734 
L 480.101236 192.524237 
L 481.525527 192.400012 
L 483.84 192.44685 
L 486.154473 192.669031 
L 488.290909 193.095459 
L 490.071273 193.678263 
L 493.632 195.040839 
L 494.700218 195.03152 
L 495.946473 194.695711 
L 498.082909 194.065251 
L 499.151127 194.02163 
L 502.889891 194.098987 
L 505.204364 193.845308 
L 506.628655 194.007637 
L 508.943127 194.383915 
L 510.011345 194.307418 
L 511.079564 193.992266 
L 512.859927 193.171793 
L 514.284218 192.595505 
L 515.352436 192.369098 
L 516.776727 192.356684 
L 522.117818 192.604579 
L 524.254255 192.608996 
L 526.034618 192.852624 
L 529.773382 193.490278 
L 531.019636 193.411881 
L 532.443927 193.056266 
L 532.978036 192.889953 
L 532.978036 192.889953 
" clip-path="url(#p8a4c29c58e)" style="fill: none; stroke: #ff0000; stroke-width: 0.5; stroke-linecap: square"/>
   </g>
   <g id="patch_4">
    <path d="M 43.2 306 
L 532.8 306 
" style="fill: none; stroke: #000000; stroke-width: 0.8; stroke-linejoin: miter; stroke-linecap: square"/>
   </g>
   <g id="text_7">
    <g id="patch_5">
     <path d="M 51.4416 300.939958 
L 99.557762 300.939958 
L 99.557762 284.837027 
L 51.4416 284.837027 
L 51.4416 300.939958 
z
" style="fill: none"/>
    </g>
    <!-- IU.HRV.Z -->
    <g transform="translate(55.44 295.209179) scale(0.0833 -0.0833)">
     <defs>
      <path id="DejaVuSansMono-49" d="M 628 4666 
L 3219 4666 
L 3219 4134 
L 2241 4134 
L 2241 531 
L 3219 531 
L 3219 0 
L 628 0 
L 628 531 
L 1606 531 
L 1606 4134 
L 628 4134 
L 628 4666 
z
" transform="scale(0.015625)"/>
      <path id="DejaVuSansMono-55" d="M 459 1791 
L 459 4666 
L 1094 4666 
L 1094 1503 
Q 1094 1163 1112 1017 
Q 1131 872 1178 794 
Q 1278 609 1467 515 
Q 1656 422 1925 422 
Q 2197 422 2384 515 
Q 2572 609 2675 794 
Q 2722 872 2740 1015 
Q 2759 1159 2759 1497 
L 2759 4666 
L 3391 4666 
L 3391 1791 
Q 3391 1075 3302 773 
Q 3213 472 2994 275 
Q 2788 91 2522 0 
Q 2256 -91 1925 -91 
Q 1597 -91 1331 0 
Q 1066 91 856 275 
Q 641 469 550 776 
Q 459 1084 459 1791 
z
" transform="scale(0.015625)"/>
      <path id="DejaVuSansMono-2e" d="M 1528 953 
L 2316 953 
L 2316 0 
L 1528 0 
L 1528 953 
z
" transform="scale(0.015625)"/>
      <path id="DejaVuSansMono-48" d="M 428 4666 
L 1063 4666 
L 1063 2753 
L 2791 2753 
L 2791 4666 
L 3425 4666 
L 3425 0 
L 2791 0 
L 2791 2222 
L 1063 2222 
L 1063 0 
L 428 0 
L 428 4666 
z
" transform="scale(0.015625)"/>
      <path id="DejaVuSansMono-52" d="M 2375 2203 
Q 2619 2141 2791 1967 
Q 2963 1794 3219 1275 
L 3853 0 
L 3175 0 
L 2619 1178 
Q 2378 1681 2186 1826 
Q 1994 1972 1684 1972 
L 1081 1972 
L 1081 0 
L 447 0 
L 447 4666 
L 1747 4666 
Q 2516 4666 2925 4319 
Q 3334 3972 3334 3316 
Q 3334 2853 3082 2561 
Q 2831 2269 2375 2203 
z
M 1081 4147 
L 1081 2491 
L 1772 2491 
Q 2225 2491 2447 2694 
Q 2669 2897 2669 3316 
Q 2669 3719 2433 3933 
Q 2197 4147 1747 4147 
L 1081 4147 
z
" transform="scale(0.015625)"/>
      <path id="DejaVuSansMono-56" d="M 1925 531 
L 3022 4666 
L 3675 4666 
L 2309 0 
L 1544 0 
L 178 4666 
L 831 4666 
L 1925 531 
z
" transform="scale(0.015625)"/>
      <path id="DejaVuSansMono-5a" d="M 556 4666 
L 3584 4666 
L 3584 4184 
L 1147 531 
L 3653 531 
L 3653 0 
L 488 0 
L 488 481 
L 2859 4134 
L 556 4134 
L 556 4666 
z
" transform="scale(0.015625)"/>
     </defs>
     <use xlink:href="#DejaVuSansMono-49"/>
     <use xlink:href="#DejaVuSansMono-55" x="60.205078"/>
     <use xlink:href="#DejaVuSansMono-2e" x="120.410156"/>
     <use xlink:href="#DejaVuSansMono-48" x="180.615234"/>
     <use xlink:href="#DejaVuSansMono-52" x="240.820312"/>
     <use xlink:href="#DejaVuSansMono-56" x="301.025391"/>
     <use xlink:href="#DejaVuSansMono-2e" x="361.230469"/>
     <use xlink:href="#DejaVuSansMono-5a" x="421.435547"/>
    </g>
   </g>
   <g id="text_8">
    <g id="patch_6">
     <path d="M 51.4416 102.386842 
L 154.721886 102.386842 
L 154.721886 86.060042 
L 51.4416 86.060042 
L 51.4416 102.386842 
z
" style="fill: none"/>
    </g>
    <!-- |A|max: 0.0014257 m -->
    <g transform="translate(55.44 96.424384) scale(0.0833 -0.0833)">
     <defs>
      <path id="DejaVuSansMono-7c" d="M 2194 4891 
L 2194 -1509 
L 1656 -1509 
L 1656 4891 
L 2194 4891 
z
" transform="scale(0.015625)"/>
      <path id="DejaVuSansMono-41" d="M 1925 4109 
L 1259 1722 
L 2591 1722 
L 1925 4109 
z
M 1544 4666 
L 2309 4666 
L 3738 0 
L 3084 0 
L 2741 1216 
L 1106 1216 
L 769 0 
L 116 0 
L 1544 4666 
z
" transform="scale(0.015625)"/>
      <path id="DejaVuSansMono-61" d="M 2194 1759 
L 2003 1759 
Q 1500 1759 1245 1582 
Q 991 1406 991 1056 
Q 991 741 1181 566 
Q 1372 391 1709 391 
Q 2184 391 2456 720 
Q 2728 1050 2731 1631 
L 2731 1759 
L 2194 1759 
z
M 3309 1997 
L 3309 0 
L 2731 0 
L 2731 519 
Q 2547 206 2267 57 
Q 1988 -91 1588 -91 
Q 1053 -91 734 211 
Q 416 513 416 1019 
Q 416 1603 808 1906 
Q 1200 2209 1959 2209 
L 2731 2209 
L 2731 2300 
Q 2728 2719 2518 2908 
Q 2309 3097 1850 3097 
Q 1556 3097 1256 3012 
Q 956 2928 672 2766 
L 672 3341 
Q 991 3463 1283 3523 
Q 1575 3584 1850 3584 
Q 2284 3584 2592 3456 
Q 2900 3328 3091 3072 
Q 3209 2916 3259 2686 
Q 3309 2456 3309 1997 
z
" transform="scale(0.015625)"/>
      <path id="DejaVuSansMono-78" d="M 3494 3500 
L 2241 1825 
L 3616 0 
L 2950 0 
L 1925 1403 
L 903 0 
L 238 0 
L 1613 1825 
L 359 3500 
L 997 3500 
L 1925 2234 
L 2847 3500 
L 3494 3500 
z
" transform="scale(0.015625)"/>
      <path id="DejaVuSansMono-3a" d="M 1528 3322 
L 2316 3322 
L 2316 2375 
L 1528 2375 
L 1528 3322 
z
M 1528 953 
L 2316 953 
L 2316 0 
L 1528 0 
L 1528 953 
z
" transform="scale(0.015625)"/>
      <path id="DejaVuSansMono-37" d="M 434 4666 
L 3372 4666 
L 3372 4397 
L 1703 0 
L 1044 0 
L 2669 4134 
L 434 4134 
L 434 4666 
z
" transform="scale(0.015625)"/>
     </defs>
     <use xlink:href="#DejaVuSansMono-7c"/>
     <use xlink:href="#DejaVuSansMono-41" x="60.205078"/>
     <use xlink:href="#DejaVuSansMono-7c" x="120.410156"/>
     <use xlink:href="#DejaVuSansMono-6d" x="180.615234"/>
     <use xlink:href="#DejaVuSansMono-61" x="240.820312"/>
     <use xlink:href="#DejaVuSansMono-78" x="301.025391"/>
     <use xlink:href="#DejaVuSansMono-3a" x="361.230469"/>
     <use xlink:href="#DejaVuSansMono-20" x="421.435547"/>
     <use xlink:href="#DejaVuSansMono-30" x="481.640625"/>
     <use xlink:href="#DejaVuSansMono-2e" x="541.845703"/>
     <use xlink:href="#DejaVuSansMono-30" x="602.050781"/>
     <use xlink:href="#DejaVuSansMono-30" x="662.255859"/>
     <use xlink:href="#DejaVuSansMono-31" x="722.460938"/>
     <use xlink:href="#DejaVuSansMono-34" x="782.666016"/>
     <use xlink:href="#DejaVuSansMono-32" x="842.871094"/>
     <use xlink:href="#DejaVuSansMono-35" x="903.076172"/>
     <use xlink:href="#DejaVuSansMono-37" x="963.28125"/>
     <use xlink:href="#DejaVuSansMono-20" x="1023.486328"/>
     <use xlink:href="#DejaVuSansMono-6d" x="1083.691406"/>
    </g>
   </g>
   <g id="text_9">
    <g id="patch_7">
     <path d="M 39.2 75.941558 
L 510.764063 75.941558 
L 510.764063 46.948746 
L 39.2 46.948746 
L 39.2 75.941558 
z
" style="fill: none"/>
    </g>
    <!-- C201509162254A: La -31.130 Lo -72.090 Dp 17.350km -->
    <g transform="translate(43.2 58.531558) scale(0.1 -0.1)">
     <defs>
      <path id="DejaVuSansMono-43" d="M 3353 166 
Q 3113 38 2859 -26 
Q 2606 -91 2322 -91 
Q 1425 -91 929 543 
Q 434 1178 434 2328 
Q 434 3472 932 4111 
Q 1431 4750 2322 4750 
Q 2606 4750 2859 4686 
Q 3113 4622 3353 4494 
L 3353 3847 
Q 3122 4038 2856 4138 
Q 2591 4238 2322 4238 
Q 1706 4238 1400 3763 
Q 1094 3288 1094 2328 
Q 1094 1372 1400 897 
Q 1706 422 2322 422 
Q 2597 422 2861 522 
Q 3125 622 3353 813 
L 3353 166 
z
" transform="scale(0.015625)"/>
      <path id="DejaVuSansMono-39" d="M 1863 2069 
Q 2266 2069 2495 2359 
Q 2725 2650 2725 3163 
Q 2725 3675 2495 3965 
Q 2266 4256 1863 4256 
Q 1444 4256 1231 3979 
Q 1019 3703 1019 3163 
Q 1019 2619 1230 2344 
Q 1441 2069 1863 2069 
z
M 738 97 
L 738 678 
Q 934 563 1156 502 
Q 1378 441 1619 441 
Q 2219 441 2526 892 
Q 2834 1344 2834 2222 
Q 2688 1909 2422 1742 
Q 2156 1575 1813 1575 
Q 1138 1575 767 1990 
Q 397 2406 397 3169 
Q 397 3922 776 4336 
Q 1156 4750 1850 4750 
Q 2663 4750 3041 4165 
Q 3419 3581 3419 2328 
Q 3419 1150 2964 529 
Q 2509 -91 1644 -91 
Q 1416 -91 1184 -42 
Q 953 6 738 97 
z
" transform="scale(0.015625)"/>
      <path id="DejaVuSansMono-36" d="M 3097 4563 
L 3097 3981 
Q 2900 4097 2678 4158 
Q 2456 4219 2216 4219 
Q 1616 4219 1306 3767 
Q 997 3316 997 2438 
Q 1147 2750 1412 2917 
Q 1678 3084 2022 3084 
Q 2697 3084 3067 2670 
Q 3438 2256 3438 1497 
Q 3438 741 3056 325 
Q 2675 -91 1984 -91 
Q 1172 -91 794 492 
Q 416 1075 416 2328 
Q 416 3509 870 4129 
Q 1325 4750 2188 4750 
Q 2419 4750 2650 4701 
Q 2881 4653 3097 4563 
z
M 1972 2591 
Q 1569 2591 1337 2300 
Q 1106 2009 1106 1497 
Q 1106 984 1337 693 
Q 1569 403 1972 403 
Q 2391 403 2603 679 
Q 2816 956 2816 1497 
Q 2816 2041 2603 2316 
Q 2391 2591 1972 2591 
z
" transform="scale(0.015625)"/>
      <path id="DejaVuSansMono-4c" d="M 672 4666 
L 1306 4666 
L 1306 531 
L 3559 531 
L 3559 0 
L 672 0 
L 672 4666 
z
" transform="scale(0.015625)"/>
      <path id="DejaVuSansMono-2d" d="M 1113 2009 
L 2741 2009 
L 2741 1497 
L 1113 1497 
L 1113 2009 
z
" transform="scale(0.015625)"/>
      <path id="DejaVuSansMono-44" d="M 1363 519 
Q 2159 519 2475 911 
Q 2791 1303 2791 2328 
Q 2791 3363 2477 3755 
Q 2163 4147 1363 4147 
L 1063 4147 
L 1063 519 
L 1363 519 
z
M 1375 4666 
Q 2444 4666 2950 4097 
Q 3456 3528 3456 2328 
Q 3456 1134 2950 567 
Q 2444 0 1375 0 
L 428 0 
L 428 4666 
L 1375 4666 
z
" transform="scale(0.015625)"/>
      <path id="DejaVuSansMono-70" d="M 1172 441 
L 1172 -1331 
L 594 -1331 
L 594 3500 
L 1172 3500 
L 1172 3053 
Q 1316 3313 1555 3448 
Q 1794 3584 2106 3584 
Q 2741 3584 3102 3093 
Q 3463 2603 3463 1734 
Q 3463 881 3100 395 
Q 2738 -91 2106 -91 
Q 1788 -91 1548 45 
Q 1309 181 1172 441 
z
M 2859 1747 
Q 2859 2416 2648 2756 
Q 2438 3097 2022 3097 
Q 1603 3097 1387 2755 
Q 1172 2413 1172 1747 
Q 1172 1084 1387 740 
Q 1603 397 2022 397 
Q 2438 397 2648 737 
Q 2859 1078 2859 1747 
z
" transform="scale(0.015625)"/>
      <path id="DejaVuSansMono-6b" d="M 738 4863 
L 1331 4863 
L 1331 2047 
L 2841 3500 
L 3541 3500 
L 2163 2181 
L 3756 0 
L 3053 0 
L 1759 1806 
L 1331 1403 
L 1331 0 
L 738 0 
L 738 4863 
z
" transform="scale(0.015625)"/>
     </defs>
     <use xlink:href="#DejaVuSansMono-43"/>
     <use xlink:href="#DejaVuSansMono-32" x="60.205078"/>
     <use xlink:href="#DejaVuSansMono-30" x="120.410156"/>
     <use xlink:href="#DejaVuSansMono-31" x="180.615234"/>
     <use xlink:href="#DejaVuSansMono-35" x="240.820312"/>
     <use xlink:href="#DejaVuSansMono-30" x="301.025391"/>
     <use xlink:href="#DejaVuSansMono-39" x="361.230469"/>
     <use xlink:href="#DejaVuSansMono-31" x="421.435547"/>
     <use xlink:href="#DejaVuSansMono-36" x="481.640625"/>
     <use xlink:href="#DejaVuSansMono-32" x="541.845703"/>
     <use xlink:href="#DejaVuSansMono-32" x="602.050781"/>
     <use xlink:href="#DejaVuSansMono-35" x="662.255859"/>
     <use xlink:href="#DejaVuSansMono-34" x="722.460938"/>
     <use xlink:href="#DejaVuSansMono-41" x="782.666016"/>
     <use xlink:href="#DejaVuSansMono-3a" x="842.871094"/>
     <use xlink:href="#DejaVuSansMono-20" x="903.076172"/>
     <use xlink:href="#DejaVuSansMono-4c" x="963.28125"/>
     <use xlink:href="#DejaVuSansMono-61" x="1023.486328"/>
     <use xlink:href="#DejaVuSansMono-20" x="1083.691406"/>
     <use xlink:href="#DejaVuSansMono-2d" x="1143.896484"/>
     <use xlink:href="#DejaVuSansMono-33" x="1204.101562"/>
     <use xlink:href="#DejaVuSansMono-31" x="1264.306641"/>
     <use xlink:href="#DejaVuSansMono-2e" x="1324.511719"/>
     <use xlink:href="#DejaVuSansMono-31" x="1384.716797"/>
     <use xlink:href="#DejaVuSansMono-33" x="1444.921875"/>
     <use xlink:href="#DejaVuSansMono-30" x="1505.126953"/>
     <use xlink:href="#DejaVuSansMono-20" x="1565.332031"/>
     <use xlink:href="#DejaVuSansMono-4c" x="1625.537109"/>
     <use xlink:href="#DejaVuSansMono-6f" x="1685.742188"/>
     <use xlink:href="#DejaVuSansMono-20" x="1745.947266"/>
     <use xlink:href="#DejaVuSansMono-2d" x="1806.152344"/>
     <use xlink:href="#DejaVuSansMono-37" x="1866.357422"/>
     <use xlink:href="#DejaVuSansMono-32" x="1926.5625"/>
     <use xlink:href="#DejaVuSansMono-2e" x="1986.767578"/>
     <use xlink:href="#DejaVuSansMono-30" x="2046.972656"/>
     <use xlink:href="#DejaVuSansMono-39" x="2107.177734"/>
     <use xlink:href="#DejaVuSansMono-30" x="2167.382812"/>
     <use xlink:href="#DejaVuSansMono-20" x="2227.587891"/>
     <use xlink:href="#DejaVuSansMono-44" x="2287.792969"/>
     <use xlink:href="#DejaVuSansMono-70" x="2347.998047"/>
     <use xlink:href="#DejaVuSansMono-20" x="2408.203125"/>
     <use xlink:href="#DejaVuSansMono-31" x="2468.408203"/>
     <use xlink:href="#DejaVuSansMono-37" x="2528.613281"/>
     <use xlink:href="#DejaVuSansMono-2e" x="2588.818359"/>
     <use xlink:href="#DejaVuSansMono-33" x="2649.023438"/>
     <use xlink:href="#DejaVuSansMono-35" x="2709.228516"/>
     <use xlink:href="#DejaVuSansMono-30" x="2769.433594"/>
     <use xlink:href="#DejaVuSansMono-6b" x="2829.638672"/>
     <use xlink:href="#DejaVuSansMono-6d" x="2889.84375"/>
    </g>
    <!-- IU.HRV: La 42.506 Lo: -71.558 Az: 0.4 Baz: 180.5 Dist: 73.381dg - Bp: 40-500s -->
    <g transform="translate(43.2 69.793121) scale(0.1 -0.1)">
     <defs>
      <path id="DejaVuSansMono-38" d="M 1925 2216 
Q 1503 2216 1273 1980 
Q 1044 1744 1044 1313 
Q 1044 881 1276 642 
Q 1509 403 1925 403 
Q 2350 403 2579 639 
Q 2809 875 2809 1313 
Q 2809 1741 2576 1978 
Q 2344 2216 1925 2216 
z
M 1375 2478 
Q 972 2581 745 2862 
Q 519 3144 519 3541 
Q 519 4097 897 4423 
Q 1275 4750 1925 4750 
Q 2578 4750 2956 4423 
Q 3334 4097 3334 3541 
Q 3334 3144 3107 2862 
Q 2881 2581 2478 2478 
Q 2947 2375 3195 2062 
Q 3444 1750 3444 1253 
Q 3444 622 3041 265 
Q 2638 -91 1925 -91 
Q 1213 -91 811 264 
Q 409 619 409 1247 
Q 409 1747 657 2061 
Q 906 2375 1375 2478 
z
M 1147 3481 
Q 1147 3106 1347 2909 
Q 1547 2713 1925 2713 
Q 2306 2713 2506 2909 
Q 2706 3106 2706 3481 
Q 2706 3863 2507 4063 
Q 2309 4263 1925 4263 
Q 1547 4263 1347 4061 
Q 1147 3859 1147 3481 
z
" transform="scale(0.015625)"/>
      <path id="DejaVuSansMono-7a" d="M 709 3506 
L 3250 3506 
L 3250 2981 
L 1241 469 
L 3250 469 
L 3250 0 
L 634 0 
L 634 531 
L 2644 3047 
L 709 3047 
L 709 3506 
z
" transform="scale(0.015625)"/>
      <path id="DejaVuSansMono-42" d="M 1153 2228 
L 1153 519 
L 1900 519 
Q 2450 519 2684 711 
Q 2919 903 2919 1344 
Q 2919 1800 2672 2014 
Q 2425 2228 1900 2228 
L 1153 2228 
z
M 1153 4147 
L 1153 2741 
L 1888 2741 
Q 2344 2741 2548 2916 
Q 2753 3091 2753 3481 
Q 2753 3834 2551 3990 
Q 2350 4147 1888 4147 
L 1153 4147 
z
M 519 4666 
L 1900 4666 
Q 2616 4666 3003 4356 
Q 3391 4047 3391 3481 
Q 3391 3053 3186 2806 
Q 2981 2559 2572 2497 
Q 3031 2428 3292 2104 
Q 3553 1781 3553 1281 
Q 3553 647 3137 323 
Q 2722 0 1900 0 
L 519 0 
L 519 4666 
z
" transform="scale(0.015625)"/>
      <path id="DejaVuSansMono-74" d="M 1919 4494 
L 1919 3500 
L 3225 3500 
L 3225 3053 
L 1919 3053 
L 1919 1153 
Q 1919 766 2066 612 
Q 2213 459 2578 459 
L 3225 459 
L 3225 0 
L 2522 0 
Q 1875 0 1609 259 
Q 1344 519 1344 1153 
L 1344 3053 
L 409 3053 
L 409 3500 
L 1344 3500 
L 1344 4494 
L 1919 4494 
z
" transform="scale(0.015625)"/>
      <path id="DejaVuSansMono-64" d="M 2681 3053 
L 2681 4863 
L 3256 4863 
L 3256 0 
L 2681 0 
L 2681 441 
Q 2538 181 2298 45 
Q 2059 -91 1747 -91 
Q 1113 -91 748 401 
Q 384 894 384 1759 
Q 384 2613 750 3098 
Q 1116 3584 1747 3584 
Q 2063 3584 2303 3448 
Q 2544 3313 2681 3053 
z
M 991 1747 
Q 991 1078 1203 737 
Q 1416 397 1831 397 
Q 2247 397 2464 740 
Q 2681 1084 2681 1747 
Q 2681 2413 2464 2755 
Q 2247 3097 1831 3097 
Q 1416 3097 1203 2756 
Q 991 2416 991 1747 
z
" transform="scale(0.015625)"/>
     </defs>
     <use xlink:href="#DejaVuSansMono-49"/>
     <use xlink:href="#DejaVuSansMono-55" x="60.205078"/>
     <use xlink:href="#DejaVuSansMono-2e" x="120.410156"/>
     <use xlink:href="#DejaVuSansMono-48" x="180.615234"/>
     <use xlink:href="#DejaVuSansMono-52" x="240.820312"/>
     <use xlink:href="#DejaVuSansMono-56" x="301.025391"/>
     <use xlink:href="#DejaVuSansMono-3a" x="361.230469"/>
     <use xlink:href="#DejaVuSansMono-20" x="421.435547"/>
     <use xlink:href="#DejaVuSansMono-4c" x="481.640625"/>
     <use xlink:href="#DejaVuSansMono-61" x="541.845703"/>
     <use xlink:href="#DejaVuSansMono-20" x="602.050781"/>
     <use xlink:href="#DejaVuSansMono-34" x="662.255859"/>
     <use xlink:href="#DejaVuSansMono-32" x="722.460938"/>
     <use xlink:href="#DejaVuSansMono-2e" x="782.666016"/>
     <use xlink:href="#DejaVuSansMono-35" x="842.871094"/>
     <use xlink:href="#DejaVuSansMono-30" x="903.076172"/>
     <use xlink:href="#DejaVuSansMono-36" x="963.28125"/>
     <use xlink:href="#DejaVuSansMono-20" x="1023.486328"/>
     <use xlink:href="#DejaVuSansMono-4c" x="1083.691406"/>
     <use xlink:href="#DejaVuSansMono-6f" x="1143.896484"/>
     <use xlink:href="#DejaVuSansMono-3a" x="1204.101562"/>
     <use xlink:href="#DejaVuSansMono-20" x="1264.306641"/>
     <use xlink:href="#DejaVuSansMono-2d" x="1324.511719"/>
     <use xlink:href="#DejaVuSansMono-37" x="1384.716797"/>
     <use xlink:href="#DejaVuSansMono-31" x="1444.921875"/>
     <use xlink:href="#DejaVuSansMono-2e" x="1505.126953"/>
     <use xlink:href="#DejaVuSansMono-35" x="1565.332031"/>
     <use xlink:href="#DejaVuSansMono-35" x="1625.537109"/>
     <use xlink:href="#DejaVuSansMono-38" x="1685.742188"/>
     <use xlink:href="#DejaVuSansMono-20" x="1745.947266"/>
     <use xlink:href="#DejaVuSansMono-41" x="1806.152344"/>
     <use xlink:href="#DejaVuSansMono-7a" x="1866.357422"/>
     <use xlink:href="#DejaVuSansMono-3a" x="1926.5625"/>
     <use xlink:href="#DejaVuSansMono-20" x="1986.767578"/>
     <use xlink:href="#DejaVuSansMono-30" x="2046.972656"/>
     <use xlink:href="#DejaVuSansMono-2e" x="2107.177734"/>
     <use xlink:href="#DejaVuSansMono-34" x="2167.382812"/>
     <use xlink:href="#DejaVuSansMono-20" x="2227.587891"/>
     <use xlink:href="#DejaVuSansMono-42" x="2287.792969"/>
     <use xlink:href="#DejaVuSansMono-61" x="2347.998047"/>
     <use xlink:href="#DejaVuSansMono-7a" x="2408.203125"/>
     <use xlink:href="#DejaVuSansMono-3a" x="2468.408203"/>
     <use xlink:href="#DejaVuSansMono-20" x="2528.613281"/>
     <use xlink:href="#DejaVuSansMono-31" x="2588.818359"/>
     <use xlink:href="#DejaVuSansMono-38" x="2649.023438"/>
     <use xlink:href="#DejaVuSansMono-30" x="2709.228516"/>
     <use xlink:href="#DejaVuSansMono-2e" x="2769.433594"/>
     <use xlink:href="#DejaVuSansMono-35" x="2829.638672"/>
     <use xlink:href="#DejaVuSansMono-20" x="2889.84375"/>
     <use xlink:href="#DejaVuSansMono-44" x="2950.048828"/>
     <use xlink:href="#DejaVuSansMono-69" x="3010.253906"/>
     <use xlink:href="#DejaVuSansMono-73" x="3070.458984"/>
     <use xlink:href="#DejaVuSansMono-74" x="3130.664062"/>
     <use xlink:href="#DejaVuSansMono-3a" x="3190.869141"/>
     <use xlink:href="#DejaVuSansMono-20" x="3251.074219"/>
     <use xlink:href="#DejaVuSansMono-37" x="3311.279297"/>
     <use xlink:href="#DejaVuSansMono-33" x="3371.484375"/>
     <use xlink:href="#DejaVuSansMono-2e" x="3431.689453"/>
     <use xlink:href="#DejaVuSansMono-33" x="3491.894531"/>
     <use xlink:href="#DejaVuSansMono-38" x="3552.099609"/>
     <use xlink:href="#DejaVuSansMono-31" x="3612.304688"/>
     <use xlink:href="#DejaVuSansMono-64" x="3672.509766"/>
     <use xlink:href="#DejaVuSansMono-67" x="3732.714844"/>
     <use xlink:href="#DejaVuSansMono-20" x="3792.919922"/>
     <use xlink:href="#DejaVuSansMono-2d" x="3853.125"/>
     <use xlink:href="#DejaVuSansMono-20" x="3913.330078"/>
     <use xlink:href="#DejaVuSansMono-42" x="3973.535156"/>
     <use xlink:href="#DejaVuSansMono-70" x="4033.740234"/>
     <use xlink:href="#DejaVuSansMono-3a" x="4093.945312"/>
     <use xlink:href="#DejaVuSansMono-20" x="4154.150391"/>
     <use xlink:href="#DejaVuSansMono-34" x="4214.355469"/>
     <use xlink:href="#DejaVuSansMono-30" x="4274.560547"/>
     <use xlink:href="#DejaVuSansMono-2d" x="4334.765625"/>
     <use xlink:href="#DejaVuSansMono-35" x="4394.970703"/>
     <use xlink:href="#DejaVuSansMono-30" x="4455.175781"/>
     <use xlink:href="#DejaVuSansMono-30" x="4515.380859"/>
     <use xlink:href="#DejaVuSansMono-73" x="4575.585938"/>
    </g>
   </g>
   <g id="legend_1">
    <g id="line2d_8">
     <path d="M 351.475 94.151563 
L 361.475 94.151563 
L 371.475 94.151563 
" style="fill: none; stroke: #000000; stroke-width: 0.5; stroke-linecap: square"/>
    </g>
    <g id="text_10">
     <!-- Observed -->
     <g transform="translate(379.475 97.651563) scale(0.1 -0.1)">
      <defs>
       <path id="DejaVuSansMono-4f" d="M 2828 2328 
Q 2828 3356 2617 3797 
Q 2406 4238 1925 4238 
Q 1447 4238 1236 3797 
Q 1025 3356 1025 2328 
Q 1025 1303 1236 862 
Q 1447 422 1925 422 
Q 2406 422 2617 861 
Q 2828 1300 2828 2328 
z
M 3488 2328 
Q 3488 1109 3102 509 
Q 2716 -91 1925 -91 
Q 1134 -91 750 506 
Q 366 1103 366 2328 
Q 366 3550 752 4150 
Q 1138 4750 1925 4750 
Q 2716 4750 3102 4150 
Q 3488 3550 3488 2328 
z
" transform="scale(0.015625)"/>
       <path id="DejaVuSansMono-62" d="M 2869 1747 
Q 2869 2416 2656 2756 
Q 2444 3097 2028 3097 
Q 1609 3097 1393 2755 
Q 1178 2413 1178 1747 
Q 1178 1084 1393 740 
Q 1609 397 2028 397 
Q 2444 397 2656 737 
Q 2869 1078 2869 1747 
z
M 1178 3053 
Q 1316 3309 1558 3446 
Q 1800 3584 2119 3584 
Q 2750 3584 3112 3098 
Q 3475 2613 3475 1759 
Q 3475 894 3111 401 
Q 2747 -91 2113 -91 
Q 1800 -91 1561 45 
Q 1322 181 1178 441 
L 1178 0 
L 603 0 
L 603 4863 
L 1178 4863 
L 1178 3053 
z
" transform="scale(0.015625)"/>
       <path id="DejaVuSansMono-76" d="M 313 3500 
L 909 3500 
L 1925 563 
L 2944 3500 
L 3541 3500 
L 2297 0 
L 1556 0 
L 313 3500 
z
" transform="scale(0.015625)"/>
      </defs>
      <use xlink:href="#DejaVuSansMono-4f"/>
      <use xlink:href="#DejaVuSansMono-62" x="60.205078"/>
      <use xlink:href="#DejaVuSansMono-73" x="120.410156"/>
      <use xlink:href="#DejaVuSansMono-65" x="180.615234"/>
      <use xlink:href="#DejaVuSansMono-72" x="240.820312"/>
      <use xlink:href="#DejaVuSansMono-76" x="301.025391"/>
      <use xlink:href="#DejaVuSansMono-65" x="361.230469"/>
      <use xlink:href="#DejaVuSansMono-64" x="421.435547"/>
     </g>
    </g>
    <g id="line2d_9">
     <path d="M 447.6375 94.151563 
L 457.6375 94.151563 
L 467.6375 94.151563 
" style="fill: none; stroke: #ff0000; stroke-width: 0.5; stroke-linecap: square"/>
    </g>
    <g id="text_11">
     <!-- GLAD-M25 -->
     <g transform="translate(475.6375 97.651563) scale(0.1 -0.1)">
      <defs>
       <path id="DejaVuSansMono-47" d="M 3450 384 
Q 3197 150 2880 29 
Q 2563 -91 2194 -91 
Q 1306 -91 812 545 
Q 319 1181 319 2328 
Q 319 3472 819 4111 
Q 1319 4750 2209 4750 
Q 2503 4750 2772 4667 
Q 3041 4584 3291 4416 
L 3291 3769 
Q 3038 4009 2772 4123 
Q 2506 4238 2209 4238 
Q 1594 4238 1286 3761 
Q 978 3284 978 2328 
Q 978 1356 1276 889 
Q 1575 422 2194 422 
Q 2403 422 2561 470 
Q 2719 519 2847 622 
L 2847 1875 
L 2169 1875 
L 2169 2394 
L 3450 2394 
L 3450 384 
z
" transform="scale(0.015625)"/>
       <path id="DejaVuSansMono-4d" d="M 269 4666 
L 1113 4666 
L 1919 2291 
L 2731 4666 
L 3578 4666 
L 3578 0 
L 2994 0 
L 2994 4122 
L 2163 1663 
L 1684 1663 
L 850 4122 
L 850 0 
L 269 0 
L 269 4666 
z
" transform="scale(0.015625)"/>
      </defs>
      <use xlink:href="#DejaVuSansMono-47"/>
      <use xlink:href="#DejaVuSansMono-4c" x="60.205078"/>
      <use xlink:href="#DejaVuSansMono-41" x="120.410156"/>
      <use xlink:href="#DejaVuSansMono-44" x="180.615234"/>
      <use xlink:href="#DejaVuSansMono-2d" x="240.820312"/>
      <use xlink:href="#DejaVuSansMono-4d" x="301.025391"/>
      <use xlink:href="#DejaVuSansMono-32" x="361.230469"/>
      <use xlink:href="#DejaVuSansMono-35" x="421.435547"/>
     </g>
    </g>
   </g>
  </g>
 </g>
 <defs>
  <clipPath id="p8a4c29c58e">
   <rect x="43.2" y="81" width="489.6" height="225"/>
  </clipPath>
 </defs>
</svg>
