<?xml version="1.0" encoding="utf-8" standalone="no"?>
<!DOCTYPE svg PUBLIC "-//W3C//DTD SVG 1.1//EN"
  "http://www.w3.org/Graphics/SVG/1.1/DTD/svg11.dtd">
<svg xmlns:xlink="http://www.w3.org/1999/xlink" width="144pt" height="36pt" viewBox="0 0 144 36" xmlns="http://www.w3.org/2000/svg" version="1.1">
 <metadata>
  <rdf:RDF xmlns:dc="http://purl.org/dc/elements/1.1/" xmlns:cc="http://creativecommons.org/ns#" xmlns:rdf="http://www.w3.org/1999/02/22-rdf-syntax-ns#">
   <cc:Work>
    <dc:type rdf:resource="http://purl.org/dc/dcmitype/StillImage"/>
    <dc:date>2023-09-01T15:54:32.630062</dc:date>
    <dc:format>image/svg+xml</dc:format>
    <dc:creator>
     <cc:Agent>
      <dc:title>Matplotlib v3.7.2, https://matplotlib.org/</dc:title>
     </cc:Agent>
    </dc:creator>
   </cc:Work>
  </rdf:RDF>
 </metadata>
 <defs>
  <style type="text/css">*{stroke-linejoin: round; stroke-linecap: butt}</style>
 </defs>
 <g id="figure_1">
  <g id="patch_1">
   <path d="M 0 36 
L 144 36 
L 144 0 
L 0 0 
z
" style="fill: #ffffff"/>
  </g>
  <g id="axes_1">
   <g id="patch_2">
    <path d="M 50.4 34.2 
L 144 34.2 
L 144 1.8 
L 50.4 1.8 
z
" style="fill: #ffffff"/>
   </g>
   <g id="matplotlib.axis_1">
    <g id="xtick_1"/>
    <g id="xtick_2"/>
   </g>
   <g id="matplotlib.axis_2">
    <g id="ytick_1"/>
    <g id="ytick_2"/>
    <g id="ytick_3"/>
   </g>
   <g id="text_1">
    <g id="patch_3">
     <path d="M 12.024 30.497625 
L 92.808 30.497625 
L 92.808 8.497125 
L 12.024 8.497125 
L 12.024 30.497625 
z
" style="fill: none"/>
    </g>
    <!-- Obsplotlib -->
    <g style="fill: #418cd8" transform="translate(16.056 23.470875) scale(0.144 -0.144)">
     <defs>
      <path id="DejaVuSans-4f" d="M 2522 4238 
Q 1834 4238 1429 3725 
Q 1025 3213 1025 2328 
Q 1025 1447 1429 934 
Q 1834 422 2522 422 
Q 3209 422 3611 934 
Q 4013 1447 4013 2328 
Q 4013 3213 3611 3725 
Q 3209 4238 2522 4238 
z
M 2522 4750 
Q 3503 4750 4090 4092 
Q 4678 3434 4678 2328 
Q 4678 1225 4090 567 
Q 3503 -91 2522 -91 
Q 1538 -91 948 565 
Q 359 1222 359 2328 
Q 359 3434 948 4092 
Q 1538 4750 2522 4750 
z
" transform="scale(0.015625)"/>
      <path id="DejaVuSans-62" d="M 3116 1747 
Q 3116 2381 2855 2742 
Q 2594 3103 2138 3103 
Q 1681 3103 1420 2742 
Q 1159 2381 1159 1747 
Q 1159 1113 1420 752 
Q 1681 391 2138 391 
Q 2594 391 2855 752 
Q 3116 1113 3116 1747 
z
M 1159 2969 
Q 1341 3281 1617 3432 
Q 1894 3584 2278 3584 
Q 2916 3584 3314 3078 
Q 3713 2572 3713 1747 
Q 3713 922 3314 415 
Q 2916 -91 2278 -91 
Q 1894 -91 1617 61 
Q 1341 213 1159 525 
L 1159 0 
L 581 0 
L 581 4863 
L 1159 4863 
L 1159 2969 
z
" transform="scale(0.015625)"/>
      <path id="DejaVuSans-73" d="M 2834 3397 
L 2834 2853 
Q 2591 2978 2328 3040 
Q 2066 3103 1784 3103 
Q 1356 3103 1142 2972 
Q 928 2841 928 2578 
Q 928 2378 1081 2264 
Q 1234 2150 1697 2047 
L 1894 2003 
Q 2506 1872 2764 1633 
Q 3022 1394 3022 966 
Q 3022 478 2636 193 
Q 2250 -91 1575 -91 
Q 1294 -91 989 -36 
Q 684 19 347 128 
L 347 722 
Q 666 556 975 473 
Q 1284 391 1588 391 
Q 1994 391 2212 530 
Q 2431 669 2431 922 
Q 2431 1156 2273 1281 
Q 2116 1406 1581 1522 
L 1381 1569 
Q 847 1681 609 1914 
Q 372 2147 372 2553 
Q 372 3047 722 3315 
Q 1072 3584 1716 3584 
Q 2034 3584 2315 3537 
Q 2597 3491 2834 3397 
z
" transform="scale(0.015625)"/>
      <path id="DejaVuSans-70" d="M 1159 525 
L 1159 -1331 
L 581 -1331 
L 581 3500 
L 1159 3500 
L 1159 2969 
Q 1341 3281 1617 3432 
Q 1894 3584 2278 3584 
Q 2916 3584 3314 3078 
Q 3713 2572 3713 1747 
Q 3713 922 3314 415 
Q 2916 -91 2278 -91 
Q 1894 -91 1617 61 
Q 1341 213 1159 525 
z
M 3116 1747 
Q 3116 2381 2855 2742 
Q 2594 3103 2138 3103 
Q 1681 3103 1420 2742 
Q 1159 2381 1159 1747 
Q 1159 1113 1420 752 
Q 1681 391 2138 391 
Q 2594 391 2855 752 
Q 3116 1113 3116 1747 
z
" transform="scale(0.015625)"/>
      <path id="DejaVuSans-6c" d="M 603 4863 
L 1178 4863 
L 1178 0 
L 603 0 
L 603 4863 
z
" transform="scale(0.015625)"/>
      <path id="DejaVuSans-6f" d="M 1959 3097 
Q 1497 3097 1228 2736 
Q 959 2375 959 1747 
Q 959 1119 1226 758 
Q 1494 397 1959 397 
Q 2419 397 2687 759 
Q 2956 1122 2956 1747 
Q 2956 2369 2687 2733 
Q 2419 3097 1959 3097 
z
M 1959 3584 
Q 2709 3584 3137 3096 
Q 3566 2609 3566 1747 
Q 3566 888 3137 398 
Q 2709 -91 1959 -91 
Q 1206 -91 779 398 
Q 353 888 353 1747 
Q 353 2609 779 3096 
Q 1206 3584 1959 3584 
z
" transform="scale(0.015625)"/>
      <path id="DejaVuSans-74" d="M 1172 4494 
L 1172 3500 
L 2356 3500 
L 2356 3053 
L 1172 3053 
L 1172 1153 
Q 1172 725 1289 603 
Q 1406 481 1766 481 
L 2356 481 
L 2356 0 
L 1766 0 
Q 1100 0 847 248 
Q 594 497 594 1153 
L 594 3053 
L 172 3053 
L 172 3500 
L 594 3500 
L 594 4494 
L 1172 4494 
z
" transform="scale(0.015625)"/>
      <path id="DejaVuSans-69" d="M 603 3500 
L 1178 3500 
L 1178 0 
L 603 0 
L 603 3500 
z
M 603 4863 
L 1178 4863 
L 1178 4134 
L 603 4134 
L 603 4863 
z
" transform="scale(0.015625)"/>
     </defs>
     <use xlink:href="#DejaVuSans-4f"/>
     <use xlink:href="#DejaVuSans-62" x="78.710938"/>
     <use xlink:href="#DejaVuSans-73" x="142.1875"/>
     <use xlink:href="#DejaVuSans-70" x="194.287109"/>
     <use xlink:href="#DejaVuSans-6c" x="257.763672"/>
     <use xlink:href="#DejaVuSans-6f" x="285.546875"/>
     <use xlink:href="#DejaVuSans-74" x="346.728516"/>
     <use xlink:href="#DejaVuSans-6c" x="385.9375"/>
     <use xlink:href="#DejaVuSans-69" x="413.720703"/>
     <use xlink:href="#DejaVuSans-62" x="441.503906"/>
    </g>
   </g>
   <g id="line2d_1">
    <path d="M 54.654545 16.250004 
L 88.319153 16.139949 
L 89.248544 15.841136 
L 90.177935 15.302302 
L 91.210591 14.70799 
L 91.72692 14.698868 
L 92.139982 14.97669 
L 92.553045 15.587305 
L 93.069373 16.846473 
L 94.721624 21.716503 
L 95.031421 21.952746 
L 95.237952 21.823833 
L 95.547749 21.07591 
L 95.857546 19.794124 
L 96.373875 16.544662 
L 97.92286 5.512109 
L 98.232657 4.726976 
L 98.439188 4.658934 
L 98.645719 4.778212 
L 98.852251 5.365253 
L 99.265313 7.829735 
L 99.781642 12.643694 
L 101.433892 29.703633 
L 101.743689 31.248221 
L 102.156752 32.045698 
L 102.260018 32.086957 
L 102.466549 31.810691 
L 102.879612 30.473683 
L 103.499206 26.994964 
L 104.325331 22.302733 
L 104.841659 20.490001 
L 105.254722 19.842273 
L 105.564519 19.842813 
L 105.977582 20.049778 
L 106.597176 20.550699 
L 107.010238 20.595063 
L 107.320035 20.248785 
L 107.629832 19.670146 
L 108.249426 17.681214 
L 109.488614 13.249831 
L 109.901677 12.396657 
L 110.211474 12.320763 
L 110.624537 12.370306 
L 110.934334 12.946069 
L 111.347396 14.03919 
L 112.380053 17.818832 
L 112.999647 19.728102 
L 113.41271 20.278322 
L 113.619241 20.371981 
L 113.825772 20.213062 
L 114.238835 19.384177 
L 114.651898 17.738992 
L 115.271492 14.390144 
L 116.200883 9.459739 
L 116.613945 8.123571 
L 116.820477 8.051063 
L 117.233539 8.131439 
L 117.440071 8.533852 
L 117.956399 10.636794 
L 119.298853 17.119401 
L 119.711915 18.183098 
L 120.021712 18.402879 
L 120.331509 18.402099 
L 120.641306 18.030023 
L 121.2609 16.777621 
L 122.190291 14.883158 
L 122.70662 14.317776 
L 123.119682 14.175285 
L 123.532745 14.274495 
L 124.152339 14.678932 
L 125.907855 16.081251 
L 126.733981 16.389836 
L 127.560106 16.463398 
L 129.418888 16.310946 
L 131.690733 16.245659 
L 139.745455 16.250004 
L 139.745455 16.250004 
" clip-path="url(#pdc13083c78)" style="fill: none; stroke: #e8983b; stroke-width: 1.4; stroke-linecap: round"/>
   </g>
  </g>
 </g>
 <defs>
  <clipPath id="pdc13083c78">
   <rect x="50.4" y="1.8" width="93.6" height="32.4"/>
  </clipPath>
 </defs>
</svg>
