<?xml version="1.0" encoding="utf-8" standalone="no"?>
<!DOCTYPE svg PUBLIC "-//W3C//DTD SVG 1.1//EN"
  "http://www.w3.org/Graphics/SVG/1.1/DTD/svg11.dtd">
<svg xmlns:xlink="http://www.w3.org/1999/xlink" width="576pt" height="216pt" viewBox="0 0 576 216" xmlns="http://www.w3.org/2000/svg" version="1.1">
 <metadata>
  <rdf:RDF xmlns:dc="http://purl.org/dc/elements/1.1/" xmlns:cc="http://creativecommons.org/ns#" xmlns:rdf="http://www.w3.org/1999/02/22-rdf-syntax-ns#">
   <cc:Work>
    <dc:type rdf:resource="http://purl.org/dc/dcmitype/StillImage"/>
    <dc:date>2023-08-30T19:11:37.824803</dc:date>
    <dc:format>image/svg+xml</dc:format>
    <dc:creator>
     <cc:Agent>
      <dc:title>Matplotlib v3.7.2, https://matplotlib.org/</dc:title>
     </cc:Agent>
    </dc:creator>
   </cc:Work>
  </rdf:RDF>
 </metadata>
 <defs>
  <style type="text/css">*{stroke-linejoin: round; stroke-linecap: butt}</style>
 </defs>
 <g id="figure_1">
  <g id="patch_1">
   <path d="M 0 216 
L 576 216 
L 576 0 
L 0 0 
z
" style="fill: #ffffff"/>
  </g>
  <g id="axes_1">
   <g id="patch_2">
    <path d="M 28.8 183.6 
L 547.2 183.6 
L 547.2 59.4 
L 28.8 59.4 
z
" style="fill: #ffffff"/>
   </g>
   <g id="matplotlib.axis_1">
    <g id="xtick_1">
     <g id="line2d_1">
      <defs>
       <path id="m5a1629a622" d="M 0 0 
L 0 3.5 
" style="stroke: #000000; stroke-width: 0.8"/>
      </defs>
      <g>
       <use xlink:href="#m5a1629a622" x="63.354778" y="183.6" style="stroke: #000000; stroke-width: 0.8"/>
      </g>
     </g>
     <g id="text_1">
      <!-- 0 -->
      <g transform="translate(60.344622 198.251563) scale(0.1 -0.1)">
       <defs>
        <path id="DejaVuSansMono-30" d="M 1509 2344 
Q 1509 2516 1629 2641 
Q 1750 2766 1919 2766 
Q 2094 2766 2219 2641 
Q 2344 2516 2344 2344 
Q 2344 2169 2220 2047 
Q 2097 1925 1919 1925 
Q 1744 1925 1626 2044 
Q 1509 2163 1509 2344 
z
M 1925 4250 
Q 1484 4250 1267 3775 
Q 1050 3300 1050 2328 
Q 1050 1359 1267 884 
Q 1484 409 1925 409 
Q 2369 409 2586 884 
Q 2803 1359 2803 2328 
Q 2803 3300 2586 3775 
Q 2369 4250 1925 4250 
z
M 1925 4750 
Q 2672 4750 3055 4137 
Q 3438 3525 3438 2328 
Q 3438 1134 3055 521 
Q 2672 -91 1925 -91 
Q 1178 -91 797 521 
Q 416 1134 416 2328 
Q 416 3525 797 4137 
Q 1178 4750 1925 4750 
z
" transform="scale(0.015625)"/>
       </defs>
       <use xlink:href="#DejaVuSansMono-30"/>
      </g>
     </g>
    </g>
    <g id="xtick_2">
     <g id="line2d_2">
      <g>
       <use xlink:href="#m5a1629a622" x="157.615607" y="183.6" style="stroke: #000000; stroke-width: 0.8"/>
      </g>
     </g>
     <g id="text_2">
      <!-- 50 -->
      <g transform="translate(151.595295 198.251563) scale(0.1 -0.1)">
       <defs>
        <path id="DejaVuSansMono-35" d="M 647 4666 
L 3009 4666 
L 3009 4134 
L 1222 4134 
L 1222 2988 
Q 1356 3038 1492 3061 
Q 1628 3084 1766 3084 
Q 2491 3084 2916 2656 
Q 3341 2228 3341 1497 
Q 3341 759 2895 334 
Q 2450 -91 1678 -91 
Q 1306 -91 998 -41 
Q 691 9 447 109 
L 447 750 
Q 734 594 1025 517 
Q 1316 441 1619 441 
Q 2141 441 2423 716 
Q 2706 991 2706 1497 
Q 2706 1997 2414 2275 
Q 2122 2553 1600 2553 
Q 1347 2553 1106 2495 
Q 866 2438 647 2322 
L 647 4666 
z
" transform="scale(0.015625)"/>
       </defs>
       <use xlink:href="#DejaVuSansMono-35"/>
       <use xlink:href="#DejaVuSansMono-30" x="60.205078"/>
      </g>
     </g>
    </g>
    <g id="xtick_3">
     <g id="line2d_3">
      <g>
       <use xlink:href="#m5a1629a622" x="251.876437" y="183.6" style="stroke: #000000; stroke-width: 0.8"/>
      </g>
     </g>
     <g id="text_3">
      <!-- 100 -->
      <g transform="translate(242.845968 198.251563) scale(0.1 -0.1)">
       <defs>
        <path id="DejaVuSansMono-31" d="M 844 531 
L 1825 531 
L 1825 4097 
L 769 3859 
L 769 4434 
L 1819 4666 
L 2450 4666 
L 2450 531 
L 3419 531 
L 3419 0 
L 844 0 
L 844 531 
z
" transform="scale(0.015625)"/>
       </defs>
       <use xlink:href="#DejaVuSansMono-31"/>
       <use xlink:href="#DejaVuSansMono-30" x="60.205078"/>
       <use xlink:href="#DejaVuSansMono-30" x="120.410156"/>
      </g>
     </g>
    </g>
    <g id="xtick_4">
     <g id="line2d_4">
      <g>
       <use xlink:href="#m5a1629a622" x="346.137266" y="183.6" style="stroke: #000000; stroke-width: 0.8"/>
      </g>
     </g>
     <g id="text_4">
      <!-- 150 -->
      <g transform="translate(337.106798 198.251563) scale(0.1 -0.1)">
       <use xlink:href="#DejaVuSansMono-31"/>
       <use xlink:href="#DejaVuSansMono-35" x="60.205078"/>
       <use xlink:href="#DejaVuSansMono-30" x="120.410156"/>
      </g>
     </g>
    </g>
    <g id="xtick_5">
     <g id="line2d_5">
      <g>
       <use xlink:href="#m5a1629a622" x="440.398096" y="183.6" style="stroke: #000000; stroke-width: 0.8"/>
      </g>
     </g>
     <g id="text_5">
      <!-- 200 -->
      <g transform="translate(431.367627 198.251563) scale(0.1 -0.1)">
       <defs>
        <path id="DejaVuSansMono-32" d="M 1166 531 
L 3309 531 
L 3309 0 
L 475 0 
L 475 531 
Q 1059 1147 1496 1619 
Q 1934 2091 2100 2284 
Q 2413 2666 2522 2902 
Q 2631 3138 2631 3384 
Q 2631 3775 2401 3997 
Q 2172 4219 1772 4219 
Q 1488 4219 1175 4116 
Q 863 4013 513 3803 
L 513 4441 
Q 834 4594 1145 4672 
Q 1456 4750 1759 4750 
Q 2444 4750 2861 4386 
Q 3278 4022 3278 3431 
Q 3278 3131 3139 2831 
Q 3000 2531 2688 2169 
Q 2513 1966 2180 1606 
Q 1847 1247 1166 531 
z
" transform="scale(0.015625)"/>
       </defs>
       <use xlink:href="#DejaVuSansMono-32"/>
       <use xlink:href="#DejaVuSansMono-30" x="60.205078"/>
       <use xlink:href="#DejaVuSansMono-30" x="120.410156"/>
      </g>
     </g>
    </g>
    <g id="xtick_6">
     <g id="line2d_6">
      <g>
       <use xlink:href="#m5a1629a622" x="534.658925" y="183.6" style="stroke: #000000; stroke-width: 0.8"/>
      </g>
     </g>
     <g id="text_6">
      <!-- 250 -->
      <g transform="translate(525.628457 198.251563) scale(0.1 -0.1)">
       <use xlink:href="#DejaVuSansMono-32"/>
       <use xlink:href="#DejaVuSansMono-35" x="60.205078"/>
       <use xlink:href="#DejaVuSansMono-30" x="120.410156"/>
      </g>
     </g>
    </g>
    <g id="text_7">
     <!-- Time since origin [min] -->
     <g transform="translate(218.766406 211.929688) scale(0.1 -0.1)">
      <defs>
       <path id="DejaVuSansMono-54" d="M 147 4666 
L 3706 4666 
L 3706 4134 
L 2247 4134 
L 2247 0 
L 1613 0 
L 1613 4134 
L 147 4134 
L 147 4666 
z
" transform="scale(0.015625)"/>
       <path id="DejaVuSansMono-69" d="M 800 3500 
L 2272 3500 
L 2272 447 
L 3413 447 
L 3413 0 
L 556 0 
L 556 447 
L 1697 447 
L 1697 3053 
L 800 3053 
L 800 3500 
z
M 1697 4863 
L 2272 4863 
L 2272 4134 
L 1697 4134 
L 1697 4863 
z
" transform="scale(0.015625)"/>
       <path id="DejaVuSansMono-6d" d="M 2113 3144 
Q 2219 3369 2383 3476 
Q 2547 3584 2778 3584 
Q 3200 3584 3373 3257 
Q 3547 2931 3547 2028 
L 3547 0 
L 3022 0 
L 3022 2003 
Q 3022 2744 2939 2923 
Q 2856 3103 2638 3103 
Q 2388 3103 2295 2911 
Q 2203 2719 2203 2003 
L 2203 0 
L 1678 0 
L 1678 2003 
Q 1678 2753 1589 2928 
Q 1500 3103 1269 3103 
Q 1041 3103 952 2911 
Q 863 2719 863 2003 
L 863 0 
L 341 0 
L 341 3500 
L 863 3500 
L 863 3200 
Q 966 3388 1120 3486 
Q 1275 3584 1472 3584 
Q 1709 3584 1867 3475 
Q 2025 3366 2113 3144 
z
" transform="scale(0.015625)"/>
       <path id="DejaVuSansMono-65" d="M 3475 1894 
L 3475 1613 
L 984 1613 
L 984 1594 
Q 984 1022 1282 709 
Q 1581 397 2125 397 
Q 2400 397 2700 484 
Q 3000 572 3341 750 
L 3341 178 
Q 3013 44 2708 -23 
Q 2403 -91 2119 -91 
Q 1303 -91 843 398 
Q 384 888 384 1747 
Q 384 2584 834 3084 
Q 1284 3584 2034 3584 
Q 2703 3584 3089 3131 
Q 3475 2678 3475 1894 
z
M 2900 2063 
Q 2888 2569 2661 2833 
Q 2434 3097 2009 3097 
Q 1594 3097 1325 2822 
Q 1056 2547 1006 2059 
L 2900 2063 
z
" transform="scale(0.015625)"/>
       <path id="DejaVuSansMono-20" transform="scale(0.015625)"/>
       <path id="DejaVuSansMono-73" d="M 3041 3378 
L 3041 2816 
Q 2794 2959 2544 3031 
Q 2294 3103 2034 3103 
Q 1644 3103 1451 2976 
Q 1259 2850 1259 2591 
Q 1259 2356 1403 2240 
Q 1547 2125 2119 2016 
L 2350 1972 
Q 2778 1891 2998 1647 
Q 3219 1403 3219 1013 
Q 3219 494 2850 201 
Q 2481 -91 1825 -91 
Q 1566 -91 1281 -36 
Q 997 19 666 128 
L 666 722 
Q 988 556 1281 473 
Q 1575 391 1838 391 
Q 2219 391 2428 545 
Q 2638 700 2638 978 
Q 2638 1378 1872 1531 
L 1847 1538 
L 1631 1581 
Q 1134 1678 906 1908 
Q 678 2138 678 2534 
Q 678 3038 1018 3311 
Q 1359 3584 1991 3584 
Q 2272 3584 2531 3532 
Q 2791 3481 3041 3378 
z
" transform="scale(0.015625)"/>
       <path id="DejaVuSansMono-6e" d="M 3284 2169 
L 3284 0 
L 2706 0 
L 2706 2169 
Q 2706 2641 2540 2862 
Q 2375 3084 2022 3084 
Q 1619 3084 1401 2798 
Q 1184 2513 1184 1978 
L 1184 0 
L 609 0 
L 609 3500 
L 1184 3500 
L 1184 2975 
Q 1338 3275 1600 3429 
Q 1863 3584 2222 3584 
Q 2756 3584 3020 3232 
Q 3284 2881 3284 2169 
z
" transform="scale(0.015625)"/>
       <path id="DejaVuSansMono-63" d="M 3316 178 
Q 3084 44 2839 -23 
Q 2594 -91 2338 -91 
Q 1525 -91 1067 396 
Q 609 884 609 1747 
Q 609 2609 1067 3096 
Q 1525 3584 2338 3584 
Q 2591 3584 2831 3518 
Q 3072 3453 3316 3316 
L 3316 2713 
Q 3088 2916 2858 3006 
Q 2628 3097 2338 3097 
Q 1797 3097 1506 2747 
Q 1216 2397 1216 1747 
Q 1216 1100 1508 748 
Q 1800 397 2338 397 
Q 2638 397 2875 489 
Q 3113 581 3316 775 
L 3316 178 
z
" transform="scale(0.015625)"/>
       <path id="DejaVuSansMono-6f" d="M 1925 3097 
Q 1488 3097 1263 2756 
Q 1038 2416 1038 1747 
Q 1038 1081 1263 739 
Q 1488 397 1925 397 
Q 2366 397 2591 739 
Q 2816 1081 2816 1747 
Q 2816 2416 2591 2756 
Q 2366 3097 1925 3097 
z
M 1925 3584 
Q 2653 3584 3039 3112 
Q 3425 2641 3425 1747 
Q 3425 850 3040 379 
Q 2656 -91 1925 -91 
Q 1197 -91 812 379 
Q 428 850 428 1747 
Q 428 2641 812 3112 
Q 1197 3584 1925 3584 
z
" transform="scale(0.015625)"/>
       <path id="DejaVuSansMono-72" d="M 3609 2778 
Q 3425 2922 3234 2987 
Q 3044 3053 2816 3053 
Q 2278 3053 1993 2715 
Q 1709 2378 1709 1741 
L 1709 0 
L 1131 0 
L 1131 3500 
L 1709 3500 
L 1709 2816 
Q 1853 3188 2151 3386 
Q 2450 3584 2859 3584 
Q 3072 3584 3256 3531 
Q 3441 3478 3609 3366 
L 3609 2778 
z
" transform="scale(0.015625)"/>
       <path id="DejaVuSansMono-67" d="M 2681 1778 
Q 2681 2425 2470 2761 
Q 2259 3097 1856 3097 
Q 1434 3097 1212 2761 
Q 991 2425 991 1778 
Q 991 1131 1214 792 
Q 1438 453 1863 453 
Q 2259 453 2470 793 
Q 2681 1134 2681 1778 
z
M 3256 225 
Q 3256 -563 2884 -969 
Q 2513 -1375 1791 -1375 
Q 1553 -1375 1293 -1331 
Q 1034 -1288 775 -1203 
L 775 -634 
Q 1081 -778 1331 -847 
Q 1581 -916 1791 -916 
Q 2256 -916 2468 -662 
Q 2681 -409 2681 141 
L 2681 166 
L 2681 556 
Q 2544 263 2306 119 
Q 2069 -25 1728 -25 
Q 1116 -25 750 465 
Q 384 956 384 1778 
Q 384 2603 750 3093 
Q 1116 3584 1728 3584 
Q 2066 3584 2300 3450 
Q 2534 3316 2681 3034 
L 2681 3488 
L 3256 3488 
L 3256 225 
z
" transform="scale(0.015625)"/>
       <path id="DejaVuSansMono-5b" d="M 1447 4863 
L 2772 4863 
L 2772 4416 
L 2022 4416 
L 2022 -397 
L 2772 -397 
L 2772 -844 
L 1447 -844 
L 1447 4863 
z
" transform="scale(0.015625)"/>
       <path id="DejaVuSansMono-5d" d="M 2406 4863 
L 2406 -844 
L 1081 -844 
L 1081 -397 
L 1831 -397 
L 1831 4416 
L 1081 4416 
L 1081 4863 
L 2406 4863 
z
" transform="scale(0.015625)"/>
      </defs>
      <use xlink:href="#DejaVuSansMono-54"/>
      <use xlink:href="#DejaVuSansMono-69" x="60.205078"/>
      <use xlink:href="#DejaVuSansMono-6d" x="120.410156"/>
      <use xlink:href="#DejaVuSansMono-65" x="180.615234"/>
      <use xlink:href="#DejaVuSansMono-20" x="240.820312"/>
      <use xlink:href="#DejaVuSansMono-73" x="301.025391"/>
      <use xlink:href="#DejaVuSansMono-69" x="361.230469"/>
      <use xlink:href="#DejaVuSansMono-6e" x="421.435547"/>
      <use xlink:href="#DejaVuSansMono-63" x="481.640625"/>
      <use xlink:href="#DejaVuSansMono-65" x="541.845703"/>
      <use xlink:href="#DejaVuSansMono-20" x="602.050781"/>
      <use xlink:href="#DejaVuSansMono-6f" x="662.255859"/>
      <use xlink:href="#DejaVuSansMono-72" x="722.460938"/>
      <use xlink:href="#DejaVuSansMono-69" x="782.666016"/>
      <use xlink:href="#DejaVuSansMono-67" x="842.871094"/>
      <use xlink:href="#DejaVuSansMono-69" x="903.076172"/>
      <use xlink:href="#DejaVuSansMono-6e" x="963.28125"/>
      <use xlink:href="#DejaVuSansMono-20" x="1023.486328"/>
      <use xlink:href="#DejaVuSansMono-5b" x="1083.691406"/>
      <use xlink:href="#DejaVuSansMono-6d" x="1143.896484"/>
      <use xlink:href="#DejaVuSansMono-69" x="1204.101562"/>
      <use xlink:href="#DejaVuSansMono-6e" x="1264.306641"/>
      <use xlink:href="#DejaVuSansMono-5d" x="1324.511719"/>
     </g>
    </g>
   </g>
   <g id="matplotlib.axis_2">
    <g id="ytick_1"/>
    <g id="ytick_2"/>
    <g id="ytick_3"/>
   </g>
   <g id="line2d_7">
    <path d="M 52.363636 121.5 
L 86.89452 121.608497 
L 88.434114 121.647803 
L 88.748317 121.479785 
L 89.15678 120.954075 
L 89.690925 120.290113 
L 89.848026 120.540445 
L 90.696374 122.525608 
L 90.916316 122.368019 
L 91.827504 121.466783 
L 92.58159 121.524808 
L 93.524199 121.304216 
L 94.152604 121.325034 
L 94.561068 121.262063 
L 95.000952 121.433933 
L 96.100661 121.81733 
L 96.509125 121.807327 
L 97.263211 122.085463 
L 97.514574 121.652024 
L 97.797356 120.746087 
L 98.23724 118.986547 
L 98.362921 119.158297 
L 98.614283 120.038846 
L 99.305529 122.907317 
L 99.462631 122.949447 
L 99.713993 122.47342 
L 99.996776 122.172751 
L 100.216717 122.2358 
L 100.562341 122.375672 
L 100.970804 122.005626 
L 101.442108 121.660506 
L 102.133354 121.781967 
L 102.321876 121.209746 
L 102.918861 119.021583 
L 103.044542 118.968253 
L 103.075963 118.99923 
L 103.264484 119.482357 
L 104.207093 122.376265 
L 105.08686 122.706406 
L 105.558164 122.437754 
L 106.563613 121.031047 
L 107.34912 121.028179 
L 107.757584 120.838615 
L 108.134627 121.216033 
L 108.857294 122.018041 
L 109.202917 122.089364 
L 109.517119 121.938594 
L 109.737061 121.900338 
L 109.957003 121.874914 
L 110.145525 121.468188 
L 110.836771 119.622282 
L 110.962452 119.684326 
L 111.150974 120.167583 
L 111.84222 122.341648 
L 112.093582 122.491867 
L 112.407785 122.347846 
L 112.659147 122.338219 
L 112.879089 122.648094 
L 113.287553 123.287484 
L 113.507494 123.21395 
L 113.821697 122.784735 
L 114.261581 121.976538 
L 114.638624 119.779333 
L 114.984247 118.340493 
L 115.078508 118.405595 
L 115.26703 119.168978 
L 115.738334 121.020089 
L 115.864015 121.206091 
L 115.895435 121.176782 
L 116.021117 120.711947 
L 116.523841 117.923012 
L 116.555261 117.930676 
L 116.680942 118.270523 
L 117.089406 120.614007 
L 117.372188 123.042052 
L 117.812072 127.401277 
L 117.874913 127.354485 
L 118.032014 126.660595 
L 119.006043 121.420475 
L 119.445927 120.671991 
L 119.728709 119.824064 
L 119.85439 120.084355 
L 120.388535 122.175352 
L 120.482796 122.087042 
L 120.734158 121.796869 
L 120.98552 121.847662 
L 121.142622 121.424079 
L 122.08523 118.128976 
L 122.305172 117.837233 
L 122.430853 117.9544 
L 122.619375 118.64364 
L 123.2792 122.678643 
L 123.844765 125.920063 
L 124.096128 126.259191 
L 124.31607 126.245883 
L 124.504591 125.929672 
L 124.755953 124.96733 
L 125.007316 122.970829 
L 126.169866 111.250775 
L 126.201286 111.272386 
L 126.326967 111.68969 
L 126.515489 113.526008 
L 126.798271 119.295704 
L 127.489517 134.512416 
L 127.678039 135.222806 
L 127.7723 134.943594 
L 127.929401 133.27076 
L 128.212184 126.690372 
L 128.620647 118.456703 
L 128.96627 115.641415 
L 129.217633 114.725204 
L 129.311894 114.952431 
L 129.500415 116.397915 
L 130.03456 120.926866 
L 130.128821 121.012177 
L 130.160241 120.994368 
L 130.443023 120.538341 
L 130.788647 119.996327 
L 130.820067 120.028098 
L 130.977168 120.505474 
L 131.542733 122.778079 
L 131.574153 122.770788 
L 131.699835 122.490535 
L 132.29682 120.517104 
L 132.893805 119.232343 
L 132.988066 119.380341 
L 133.145167 120.242124 
L 133.45937 123.518445 
L 133.962094 128.44498 
L 134.056355 128.605766 
L 134.087776 128.57642 
L 134.213457 128.030015 
L 134.496239 125.14642 
L 135.250326 118.110282 
L 135.533108 116.89326 
L 135.627369 116.864835 
L 135.658789 116.90191 
L 135.815891 117.36874 
L 136.538557 120.712501 
L 136.789919 121.609876 
L 136.947021 121.594309 
L 137.104122 121.616257 
L 137.292644 121.936611 
L 137.512586 122.20695 
L 137.638267 121.966756 
L 137.95247 121.346189 
L 138.078151 121.524055 
L 138.895078 123.708913 
L 139.11502 124.308652 
L 139.209281 124.142258 
L 139.429223 122.985027 
L 140.24615 117.478825 
L 140.30899 117.577646 
L 140.466092 118.46509 
L 140.780294 122.07156 
L 141.125917 125.268785 
L 141.37728 125.974012 
L 141.471541 125.887698 
L 141.628642 125.056459 
L 142.759772 115.433891 
L 142.854033 115.831582 
L 143.073975 118.615289 
L 143.419598 122.060505 
L 143.67096 122.637434 
L 143.953742 123.238006 
L 144.110844 123.406866 
L 144.205105 123.205128 
L 144.425047 121.91181 
L 144.80209 119.909981 
L 144.896351 119.829765 
L 144.927771 119.853589 
L 145.053452 120.194652 
L 145.241974 121.511076 
L 145.713278 125.584735 
L 145.744698 125.558111 
L 145.838959 125.113776 
L 146.058901 122.330677 
L 146.498785 116.678722 
L 146.561625 116.804229 
L 146.718727 118.267089 
L 147.221451 123.603498 
L 147.378553 124.016359 
L 147.409973 123.994189 
L 147.535654 123.581675 
L 147.849857 122.19315 
L 147.881277 122.217294 
L 148.006958 122.774042 
L 148.478262 126.382563 
L 148.541103 126.246405 
L 148.666784 125.122923 
L 149.263769 117.947338 
L 149.452291 117.82981 
L 149.577972 118.040642 
L 149.766494 118.974489 
L 150.206377 121.216724 
L 150.363479 121.281168 
L 150.646261 121.087119 
L 150.677682 121.133871 
L 150.866203 121.753642 
L 151.054725 122.193313 
L 151.086145 122.178273 
L 151.243247 121.805035 
L 151.463188 121.43675 
L 151.58887 121.715241 
L 151.840232 122.41601 
L 151.871652 122.375774 
L 151.997333 121.805103 
L 152.280116 120.504436 
L 152.405797 120.883514 
L 152.625739 121.563547 
L 152.657159 121.538191 
L 152.81426 121.027461 
L 152.971362 120.670678 
L 153.002782 120.691129 
L 153.128463 121.053538 
L 153.411246 121.856826 
L 153.505506 121.661935 
L 154.039651 119.772984 
L 154.071071 119.784558 
L 154.196753 119.950866 
L 154.353854 120.600704 
L 154.636636 121.864554 
L 154.668057 121.834406 
L 154.793738 121.267118 
L 155.170781 119.01196 
L 155.202201 119.020368 
L 155.296462 119.294232 
L 155.484984 120.77561 
L 156.23907 127.573927 
L 156.301911 127.500957 
L 156.427592 126.823623 
L 156.647534 124.097312 
L 157.055998 118.92582 
L 157.150259 118.757941 
L 157.181679 118.810859 
L 157.30736 119.545565 
L 157.621563 123.598344 
L 157.998606 127.15015 
L 158.030026 127.180507 
L 158.061447 127.135433 
L 158.155707 126.49259 
L 158.375649 122.511646 
L 158.689852 118.157685 
L 158.721272 118.123509 
L 158.752693 118.162461 
L 158.878374 118.905994 
L 159.098316 120.352418 
L 159.129736 120.25492 
L 159.223997 119.049041 
L 159.381098 113.4153 
L 159.915243 84.239393 
L 160.009504 85.669249 
L 160.166605 96.277054 
L 160.512228 143.03729 
L 160.826431 174.152623 
L 160.889271 175.5 
L 160.952112 174.991176 
L 161.077793 169.154019 
L 161.643358 134.980341 
L 161.737619 134.637401 
L 161.769039 134.697484 
L 161.89472 134.947021 
L 161.926141 134.866147 
L 162.020401 133.907588 
L 162.177503 129.076951 
L 162.428865 112.374958 
L 162.900169 82.102608 
L 163.088691 79.909792 
L 163.151531 79.943037 
L 163.308633 80.614495 
L 163.497154 82.369022 
L 163.685676 86.656728 
L 163.968459 99.805211 
L 164.471183 122.507131 
L 165.193849 143.884514 
L 165.539472 154.584127 
L 165.727994 155.418784 
L 165.947936 155.642955 
L 165.979356 155.575871 
L 166.073617 154.856475 
L 166.230718 151.146848 
L 166.764863 134.97753 
L 166.953385 135.569264 
L 166.984805 135.433629 
L 167.079066 133.926764 
L 167.267588 125.058587 
L 167.676051 105.244384 
L 167.707471 105.196494 
L 167.738892 105.34194 
L 167.958834 107.537076 
L 168.021674 107.01787 
L 168.178776 101.770374 
L 168.461558 91.701772 
L 168.492978 91.78848 
L 168.587239 93.799266 
L 168.964282 104.753021 
L 168.995703 104.586231 
L 169.184224 102.624406 
L 169.247065 102.924583 
L 169.372746 106.497703 
L 169.686949 118.145049 
L 169.718369 118.027439 
L 169.84405 115.394156 
L 170.001152 112.946483 
L 170.032572 113.262692 
L 170.158253 117.67356 
L 170.503876 130.840869 
L 170.598137 129.692633 
L 170.786659 127.139669 
L 170.818079 127.335578 
L 170.94376 130.398693 
L 171.195122 136.96429 
L 171.226542 136.741608 
L 171.352223 133.209783 
L 171.635006 125.411313 
L 171.729267 126.812702 
L 171.980629 132.257973 
L 172.04347 132.036326 
L 172.200571 128.812184 
L 172.357672 126.508754 
L 172.389093 126.605959 
L 172.514774 128.757329 
L 172.703295 132.135826 
L 172.734716 132.083687 
L 172.828976 130.499286 
L 173.20602 120.606771 
L 173.23744 120.721485 
L 173.457382 122.553699 
L 173.520223 122.290295 
L 173.708744 119.195465 
L 173.834425 117.864817 
L 173.865846 117.872815 
L 173.960106 118.65445 
L 174.180048 120.839733 
L 174.211469 120.748163 
L 174.33715 119.267818 
L 174.619932 116.343764 
L 174.839874 116.279482 
L 174.996976 115.988349 
L 175.028396 116.059466 
L 175.154077 116.998346 
L 175.342599 118.365881 
L 175.374019 118.321146 
L 175.593961 117.166698 
L 175.656801 117.497894 
L 175.971004 121.937119 
L 176.033845 121.366901 
L 176.285207 117.174188 
L 176.348047 117.795321 
L 176.63083 124.817868 
L 176.69367 124.223315 
L 176.976453 116.818464 
L 177.039294 117.627565 
L 177.322076 125.71601 
L 177.384917 124.91821 
L 177.636279 118.152842 
L 177.699119 118.646512 
L 177.950482 124.404819 
L 178.013322 123.841197 
L 178.264684 118.261024 
L 178.327525 118.887659 
L 178.578887 124.65868 
L 178.641728 124.208746 
L 178.86167 120.529727 
L 178.89309 120.753293 
L 179.050191 125.117467 
L 179.175872 127.55951 
L 179.207293 127.407953 
L 179.332974 124.06906 
L 179.490075 120.065266 
L 179.521495 120.067766 
L 179.615756 121.774262 
L 179.804278 126.072297 
L 179.835698 126.063662 
L 179.929959 124.67151 
L 180.118481 121.868398 
L 180.149901 122.041601 
L 180.369843 124.622738 
L 180.432683 124.070598 
L 180.652625 120.463634 
L 180.715466 120.927948 
L 180.935408 124.404048 
L 180.966828 124.152583 
L 181.123929 119.498233 
L 181.249611 116.606409 
L 181.281031 116.615357 
L 181.375292 118.281926 
L 181.532393 121.352869 
L 181.563813 121.242632 
L 181.689494 118.272329 
L 181.815176 115.509416 
L 181.878016 115.866903 
L 182.129378 122.123327 
L 182.223639 120.941762 
L 182.412161 117.191814 
L 182.443581 117.417994 
L 182.600682 122.03938 
L 182.726364 124.510961 
L 182.757784 124.399581 
L 182.977726 120.621581 
L 183.071987 121.452446 
L 183.291929 125.86026 
L 183.354769 125.636684 
L 183.543291 123.896834 
L 183.574711 124.070063 
L 183.794653 126.998274 
L 183.857494 126.515672 
L 184.140276 120.653908 
L 184.203117 121.113983 
L 184.360218 123.059767 
L 184.423059 122.78022 
L 184.737261 117.294733 
L 184.831522 118.025532 
L 184.957203 118.918535 
L 184.988623 118.876539 
L 185.208565 117.599978 
L 185.271406 117.999927 
L 185.522768 120.613555 
L 185.554188 120.493235 
L 185.74271 118.965298 
L 185.805551 119.132422 
L 185.994072 121.930865 
L 186.151174 123.028886 
L 186.182594 122.980747 
L 186.339695 122.672562 
L 186.371116 122.715823 
L 186.528217 122.994949 
L 186.559637 122.90894 
L 186.685318 121.80941 
L 186.87384 120.151812 
L 186.90526 120.154476 
L 187.030941 120.836692 
L 187.188043 121.508111 
L 187.219463 121.485484 
L 187.407985 121.183236 
L 187.439405 121.245279 
L 187.97355 123.27192 
L 188.224912 125.393311 
L 188.256332 125.305535 
L 188.413434 123.67062 
L 188.601955 122.273581 
L 188.633376 122.307145 
L 188.790477 122.760272 
L 188.853317 122.642114 
L 189.010419 121.213839 
L 189.198941 120.030619 
L 189.293201 120.423584 
L 189.481723 121.28336 
L 189.513143 121.252236 
L 189.795926 120.427371 
L 189.890187 120.523478 
L 189.984447 120.509399 
L 190.172969 120.186131 
L 190.204389 120.248512 
L 190.33007 121.131549 
L 190.581433 122.87183 
L 190.675694 122.704754 
L 191.021317 121.546937 
L 191.36694 119.13318 
L 191.555461 119.282724 
L 191.586882 119.23998 
L 191.869664 118.682955 
L 191.932505 118.738851 
L 192.058186 119.169744 
L 192.246707 120.867396 
L 192.435229 122.244008 
L 192.466649 122.205659 
L 192.686591 120.993344 
L 192.749432 121.223817 
L 193.063635 124.888981 
L 193.157895 124.426284 
L 193.314997 123.697871 
L 193.346417 123.778282 
L 193.534939 124.625157 
L 193.566359 124.554259 
L 193.72346 123.167377 
L 193.849141 122.541047 
L 193.880562 122.603885 
L 194.069083 123.375693 
L 194.131924 123.21775 
L 194.414706 121.658742 
L 194.477547 121.760212 
L 194.79175 122.646702 
L 194.82317 122.627475 
L 194.917431 122.32043 
L 195.105953 120.550934 
L 195.325894 119.123355 
L 195.420155 119.259179 
L 195.545836 119.405602 
L 195.577257 119.376871 
L 195.734358 119.185979 
L 195.765778 119.22815 
L 195.891459 119.833735 
L 196.237082 121.581815 
L 196.425604 121.726114 
L 196.551285 121.419082 
L 196.771227 120.594994 
L 196.834068 120.669119 
L 197.08543 121.622233 
L 197.14827 121.451597 
L 197.462473 119.6217 
L 197.525314 119.715731 
L 197.650995 119.92009 
L 197.682415 119.895299 
L 197.839517 119.57937 
L 197.870937 119.619252 
L 197.965198 120.226296 
L 198.18514 122.332275 
L 198.24798 122.149161 
L 198.467922 120.238081 
L 198.530763 120.428999 
L 198.719284 123.103117 
L 198.876386 124.32709 
L 198.907806 124.281803 
L 199.096328 123.126079 
L 199.222009 122.769073 
L 199.253429 122.801107 
L 199.41053 123.406974 
L 199.630472 123.975262 
L 199.724733 123.78494 
L 199.913255 122.60601 
L 200.101776 121.523179 
L 200.133197 121.529477 
L 200.227458 121.905846 
L 200.384559 122.617148 
L 200.415979 122.57552 
L 200.54166 121.635797 
L 200.698762 120.456691 
L 200.730182 120.468462 
L 200.855863 121.271782 
L 200.981544 121.962068 
L 201.012965 121.948553 
L 201.232906 121.153283 
L 201.295747 121.430613 
L 201.547109 123.356988 
L 201.60995 123.265789 
L 201.735631 122.912696 
L 201.767051 122.933276 
L 201.892732 123.611588 
L 202.018413 124.20523 
L 202.049834 124.15037 
L 202.175515 122.990003 
L 202.521138 119.684332 
L 202.7725 118.440251 
L 203.149543 116.070021 
L 203.180964 116.089329 
L 203.400906 116.526132 
L 203.463746 116.453857 
L 203.589427 116.281651 
L 203.620847 116.32316 
L 203.715108 116.815669 
L 204.532035 123.322439 
L 204.814818 124.152727 
L 204.940499 124.055049 
L 205.06618 124.013814 
L 205.191861 124.488778 
L 205.726006 127.307538 
L 205.820267 127.10951 
L 206.103049 125.270695 
L 206.919976 120.402763 
L 207.391281 115.58112 
L 207.642643 114.855141 
L 207.768324 114.816696 
L 207.799744 114.853137 
L 207.925425 115.326854 
L 208.176788 117.824516 
L 209.056555 126.648966 
L 209.465019 127.329802 
L 209.527859 127.2101 
L 209.684961 125.815324 
L 209.936323 124.166265 
L 210.093424 124.030889 
L 210.219106 123.219664 
L 210.564729 120.469459 
L 210.596149 120.490047 
L 210.78467 120.831149 
L 210.816091 120.762838 
L 210.941772 119.818466 
L 211.161714 118.053901 
L 211.193134 118.119962 
L 211.444496 119.727226 
L 211.507337 119.459125 
L 211.790119 117.169823 
L 211.82154 117.258586 
L 212.041482 118.253867 
L 212.104322 118.172429 
L 212.230003 117.92024 
L 212.261423 117.944811 
L 212.387105 118.513853 
L 212.638467 119.420405 
L 212.764148 119.536433 
L 212.921249 120.37236 
L 213.298293 122.584581 
L 213.392553 122.571896 
L 213.549655 122.340754 
L 213.581075 122.362341 
L 213.675336 122.722186 
L 214.0838 124.908846 
L 214.209481 125.047927 
L 214.460843 125.665842 
L 214.492263 125.617332 
L 214.775046 124.8786 
L 214.837886 124.958978 
L 214.932147 125.069857 
L 214.963567 125.049849 
L 215.057828 124.691961 
L 215.874755 118.825364 
L 215.937596 118.94401 
L 216.220378 120.896814 
L 216.314639 120.7155 
L 216.471741 120.291682 
L 216.503161 120.34214 
L 216.660262 121.236172 
L 216.817364 121.874941 
L 216.848784 121.858657 
L 216.974465 121.432332 
L 217.194407 120.896829 
L 217.414349 121.048558 
L 217.445769 121.004521 
L 217.728552 120.479061 
L 217.791392 120.540992 
L 218.011334 120.735888 
L 218.199856 120.366535 
L 218.388377 120.186737 
L 218.545479 120.180651 
L 218.67116 119.821645 
L 218.953942 118.889785 
L 219.205305 119.256647 
L 219.299565 119.128998 
L 219.393826 119.085088 
L 219.488087 119.456482 
L 220.336435 125.922363 
L 220.399275 125.771511 
L 221.310463 121.02417 
L 221.404724 121.082381 
L 221.561825 121.070281 
L 222.09597 120.273929 
L 222.12739 120.302249 
L 222.284492 120.706288 
L 222.755796 122.771015 
L 223.007158 124.058008 
L 223.101419 123.892242 
L 223.635564 122.01512 
L 223.918346 120.69483 
L 224.044027 120.795579 
L 224.138288 120.854891 
L 224.169708 120.826047 
L 224.32681 120.338394 
L 224.483911 120.060191 
L 224.735273 120.46873 
L 224.798114 120.340585 
L 225.5522 117.64822 
L 225.615041 117.735286 
L 225.740722 118.495092 
L 226.557649 125.342512 
L 226.68333 125.351262 
L 226.840432 125.114779 
L 226.997533 124.409972 
L 227.343156 122.748341 
L 227.500258 122.566631 
L 227.877301 121.233026 
L 227.971562 121.336927 
L 228.065823 121.334134 
L 228.191504 120.932553 
L 228.442866 120.128368 
L 228.537127 120.355343 
L 228.819909 121.327208 
L 228.851329 121.281444 
L 229.039851 120.462198 
L 229.322634 119.601093 
L 229.448315 119.656337 
L 229.919619 120.426146 
L 230.01388 120.665128 
L 230.422343 122.591969 
L 230.485184 122.559972 
L 230.736546 122.509256 
L 230.893647 122.402866 
L 231.741995 121.123229 
L 231.804835 121.242009 
L 232.087618 121.869409 
L 232.119038 121.855931 
L 232.464661 121.527505 
L 232.496082 121.582093 
L 232.716023 122.403736 
L 232.873125 122.72461 
L 232.904545 122.714991 
L 233.093067 122.635214 
L 233.218748 122.994512 
L 233.43869 123.662425 
L 233.47011 123.632108 
L 233.595791 123.088329 
L 234.444139 117.769408 
L 234.506979 117.751084 
L 234.5384 117.790497 
L 234.821182 118.589612 
L 235.072544 119.697965 
L 235.920892 124.251056 
L 236.077993 124.325695 
L 236.486457 123.770095 
L 236.643558 123.334608 
L 237.146282 121.269943 
L 237.177703 121.285893 
L 237.334804 121.251144 
L 237.523326 120.599279 
L 237.711847 120.257487 
L 237.931789 120.224095 
L 238.245992 119.759346 
L 238.277412 119.790655 
L 239.000079 121.05404 
L 239.282861 121.694733 
L 239.597064 121.696822 
L 239.817006 122.534038 
L 240.036948 123.005104 
L 240.194049 122.72612 
L 240.822455 121.409782 
L 240.853875 121.438358 
L 241.073817 121.596118 
L 241.293759 121.397094 
L 241.325179 121.431682 
L 241.513701 121.988356 
L 241.859324 122.883979 
L 241.985005 122.842445 
L 242.142106 122.362616 
L 242.613411 120.75216 
L 242.990454 120.446894 
L 243.021874 120.500322 
L 243.461758 121.281614 
L 243.618859 121.074712 
L 244.027323 120.407733 
L 244.184424 120.522881 
L 244.530047 121.066046 
L 244.592888 121.016915 
L 244.749989 120.964435 
L 244.907091 121.345102 
L 245.252714 122.069246 
L 245.504076 122.393206 
L 245.786859 122.349984 
L 245.94396 122.434721 
L 245.97538 122.401296 
L 246.132482 121.921874 
L 246.540945 120.678371 
L 246.729467 120.588044 
L 246.886568 120.90857 
L 247.514974 122.72716 
L 247.546394 122.716823 
L 247.986278 122.515723 
L 248.143379 122.508183 
L 248.331901 122.104919 
L 248.740365 120.937324 
L 248.771785 120.953492 
L 248.991727 121.192839 
L 249.023147 121.155238 
L 249.180248 120.608434 
L 249.36877 120.192084 
L 249.525871 120.533383 
L 249.651553 120.693998 
L 249.682973 120.66697 
L 249.965755 120.068665 
L 250.028596 120.180226 
L 250.782682 122.3117 
L 250.908364 122.241843 
L 251.034045 122.203194 
L 251.285407 122.559134 
L 251.316827 122.510619 
L 251.882392 120.767368 
L 252.196595 119.720126 
L 252.322276 119.842569 
L 252.542218 120.384035 
L 252.76216 121.812999 
L 253.107783 123.828434 
L 253.390565 124.13739 
L 253.516247 124.059996 
L 253.673348 123.44407 
L 254.364594 119.875345 
L 254.458855 119.902457 
L 254.647376 120.441599 
L 254.898739 120.945664 
L 255.495724 121.174962 
L 255.935608 121.182302 
L 256.312651 121.382497 
L 256.532593 121.341869 
L 256.752535 121.807844 
L 257.003897 122.120023 
L 257.223839 122.408935 
L 257.538042 122.797492 
L 257.695143 122.571417 
L 258.700592 120.473385 
L 258.920534 120.624684 
L 259.140476 120.664875 
L 259.454679 120.648251 
L 259.768882 121.058141 
L 260.460128 122.098914 
L 260.522968 122.033899 
L 260.77433 121.845358 
L 260.931432 121.78165 
L 261.119953 121.224106 
L 261.308475 120.822971 
L 261.339895 120.845023 
L 261.465576 121.185435 
L 261.936881 122.673471 
L 262.093982 122.695947 
L 262.345344 122.608188 
L 262.816648 122.990675 
L 263.099431 122.674106 
L 263.350793 121.956581 
L 263.633576 120.365392 
L 263.916358 119.114615 
L 264.293401 118.331352 
L 264.450503 118.118913 
L 264.481923 118.149116 
L 264.639024 118.645762 
L 265.26743 120.988089 
L 265.927256 123.350709 
L 266.492821 124.510889 
L 266.555661 124.452697 
L 266.869864 123.749815 
L 267.341168 122.075652 
L 267.655371 121.033423 
L 267.686791 121.06231 
L 267.938153 121.519806 
L 268.000994 121.45351 
L 268.817921 119.632048 
L 269.163544 118.811806 
L 269.289225 118.965791 
L 269.697689 120.310184 
L 270.577457 123.278562 
L 270.703138 123.252521 
L 271.174442 122.731048 
L 271.582906 122.860102 
L 271.959949 122.545499 
L 272.305572 121.399775 
L 272.745456 120.527708 
L 273.091079 120.123563 
L 273.21676 120.187819 
L 273.405282 120.652617 
L 273.625223 121.004763 
L 273.782325 120.738081 
L 274.002267 120.463078 
L 274.285049 120.565322 
L 274.504991 120.845649 
L 275.290498 122.274566 
L 275.321918 122.257498 
L 275.51044 121.947381 
L 276.390208 120.215693 
L 276.61015 120.134804 
L 276.735831 120.372873 
L 277.615599 122.825795 
L 278.055482 123.123965 
L 278.432526 123.28244 
L 278.621047 123.062904 
L 279.312294 121.721712 
L 280.00354 119.67418 
L 280.223482 119.504383 
L 280.349163 119.801365 
L 280.694786 120.7022 
L 280.883307 121.038628 
L 282.108698 124.509081 
L 282.29722 124.592828 
L 282.485741 124.273071 
L 282.768524 123.309564 
L 283.019886 121.553143 
L 283.679712 116.449199 
L 283.836813 116.335879 
L 284.088176 116.539888 
L 284.339538 117.011316 
L 284.62232 118.110362 
L 285.030784 120.858024 
L 285.564929 124.197192 
L 285.847711 124.987658 
L 286.193334 125.305252 
L 286.319015 125.149795 
L 286.507537 124.350038 
L 286.88458 122.692561 
L 287.387305 121.891846 
L 287.98429 122.269903 
L 288.329913 122.343883 
L 288.518435 121.922223 
L 288.989739 120.166129 
L 289.366782 118.796067 
L 289.523883 118.789062 
L 289.743825 119.040471 
L 289.995188 119.690844 
L 291.157738 123.483134 
L 291.37768 123.588274 
L 291.660462 123.46861 
L 291.817564 123.036976 
L 292.100346 121.450257 
L 292.414549 119.933906 
L 292.54023 119.999148 
L 292.823012 120.610265 
L 293.200056 121.492766 
L 293.577099 121.449539 
L 294.016983 121.483517 
L 294.268345 121.574545 
L 294.456867 122.151829 
L 294.77107 122.974439 
L 295.022432 123.094804 
L 295.148113 122.773949 
L 295.430895 120.923172 
L 295.93362 118.003083 
L 296.279243 117.231747 
L 296.436344 117.198895 
L 296.562025 117.414798 
L 296.750547 118.33882 
L 297.284692 122.590247 
L 297.850257 127.755054 
L 298.101619 128.50634 
L 298.19588 128.383372 
L 298.352981 127.628947 
L 299.35843 119.979317 
L 299.986835 112.35566 
L 300.206777 111.553437 
L 300.301038 111.611804 
L 300.426719 112.044095 
L 300.615241 113.727448 
L 302.154835 132.225987 
L 302.500458 134.64908 
L 302.594718 134.733787 
L 302.626139 134.683398 
L 302.75182 134.077219 
L 303.003182 131.235059 
L 304.825558 106.763472 
L 305.07692 105.776799 
L 305.171181 105.839925 
L 305.328282 106.418611 
L 305.579645 108.506593 
L 305.988108 114.281672 
L 306.647934 126.732189 
L 307.087818 132.946637 
L 307.559122 136.74717 
L 307.621963 136.84708 
L 307.653383 136.825693 
L 307.779064 136.335221 
L 308.47031 131.587202 
L 308.910194 125.317669 
L 309.318658 120.845766 
L 310.167005 112.972543 
L 310.481208 112.564976 
L 310.70115 112.286998 
L 310.858251 112.515994 
L 311.518077 114.113998 
L 311.769439 115.70447 
L 312.96341 124.978991 
L 313.277612 126.185128 
L 313.906018 127.464773 
L 313.968859 127.385183 
L 314.1888 126.698934 
L 314.503003 125.96658 
L 314.785786 125.337184 
L 315.162829 124.652856 
L 315.477032 124.217237 
L 315.822655 123.147427 
L 316.45106 120.74895 
L 316.796683 118.961994 
L 317.55077 116.82446 
L 317.645031 116.917849 
L 317.990654 117.523187 
L 318.022074 117.506441 
L 318.210596 117.463985 
L 318.336277 117.774375 
L 318.870422 119.554473 
L 319.090364 120.129539 
L 319.373146 120.711422 
L 319.561668 121.094871 
L 320.755638 125.71965 
L 320.94416 126.164203 
L 320.97558 126.143534 
L 321.101261 125.786525 
L 321.384044 125.035908 
L 321.541145 124.96166 
L 321.666826 124.493387 
L 322.200971 121.774744 
L 322.326652 121.588217 
L 322.515174 120.68736 
L 322.892217 119.082471 
L 323.426362 118.122121 
L 323.552043 118.19584 
L 323.771985 118.895634 
L 324.33755 121.180053 
L 324.620332 122.279023 
L 324.840274 122.738888 
L 325.185897 123.858767 
L 325.217318 123.834231 
L 325.374419 123.358238 
L 325.688622 122.515377 
L 325.877143 122.282156 
L 326.379868 121.248563 
L 326.59981 121.246558 
L 326.788331 120.91797 
L 327.102534 120.427808 
L 327.479577 120.49395 
L 327.73094 120.290497 
L 327.888041 120.613585 
L 328.516447 122.277403 
L 328.767809 122.638208 
L 328.95633 122.508469 
L 329.301953 122.341051 
L 329.584736 122.157249 
L 329.930359 121.929889 
L 330.244562 122.066008 
L 330.433083 122.030844 
L 331.030069 121.53081 
L 331.250011 121.344128 
L 331.595634 121.146846 
L 331.846996 121.125765 
L 332.098358 121.254887 
L 332.255459 120.811078 
L 332.601082 119.878898 
L 332.946706 119.286496 
L 333.135227 119.156002 
L 333.260908 119.357503 
L 333.606531 120.652317 
L 334.517719 123.831027 
L 334.6434 123.90854 
L 335.114705 123.524307 
L 335.240386 123.424465 
L 335.523168 122.634148 
L 336.371516 120.522426 
L 336.654298 120.374642 
L 336.84282 120.5345 
L 337.062762 121.01275 
L 337.439805 121.884054 
L 337.754008 122.195114 
L 337.97395 122.333301 
L 338.162471 122.032176 
L 339.199341 120.28361 
L 339.513543 120.060203 
L 339.733485 120.2793 
L 340.393311 121.337498 
L 340.738934 121.880468 
L 341.838644 121.9731 
L 342.090006 121.727744 
L 342.56131 121.91712 
L 343.221136 121.260196 
L 343.566759 120.810239 
L 343.755281 120.92742 
L 344.006643 121.375215 
L 344.603628 122.716924 
L 344.980671 123.178155 
L 345.137773 123.049316 
L 345.451976 122.367652 
L 346.111801 120.856264 
L 346.677366 119.922029 
L 346.960149 119.610038 
L 347.368612 119.557842 
L 347.588554 120.111622 
L 348.059859 121.115986 
L 348.688264 122.152931 
L 349.065307 122.945368 
L 349.285249 123.136103 
L 349.505191 123.204915 
L 349.850814 123.455927 
L 350.070756 123.22531 
L 350.384959 122.507909 
L 351.264727 120.42998 
L 351.453248 120.30453 
L 351.767451 119.996798 
L 351.955973 120.168591 
L 352.333016 120.585975 
L 352.552958 120.717908 
L 353.338465 121.587078 
L 353.621247 121.848669 
L 353.87261 122.047592 
L 354.815218 121.866911 
L 355.317942 122.50084 
L 355.632145 122.787116 
L 355.820667 122.6454 
L 356.103449 122.115037 
L 356.794695 120.594197 
L 357.29742 120.110069 
L 358.051506 120.433301 
L 358.679912 121.760868 
L 358.994115 122.624314 
L 359.433999 123.203175 
L 359.465419 123.182549 
L 359.653941 122.834343 
L 360.596549 120.885596 
L 360.816491 120.761052 
L 361.319215 120.912164 
L 361.790519 121.438367 
L 361.947621 121.50592 
L 362.450345 122.011417 
L 363.707156 121.393289 
L 364.0842 121.213496 
L 364.744025 120.836271 
L 365.058228 120.850926 
L 365.435271 121.181814 
L 365.843735 121.080411 
L 366.252199 121.187478 
L 367.414749 123.220043 
L 367.603271 123.25058 
L 367.823212 122.912873 
L 368.200256 121.979483 
L 368.608719 120.910027 
L 369.048603 120.694301 
L 369.519907 120.7067 
L 370.022632 120.375888 
L 370.305414 120.388501 
L 370.493936 120.583955 
L 370.745298 121.288998 
L 371.090921 122.050497 
L 371.436544 122.271419 
L 371.625066 122.047083 
L 372.316312 121.077575 
L 372.630515 121.2137 
L 372.850457 121.666253 
L 373.19608 122.291023 
L 373.416022 122.282761 
L 373.635964 122.028841 
L 374.39005 120.727226 
L 374.578572 120.963242 
L 375.395499 122.250751 
L 375.772542 122.399348 
L 375.929644 122.36368 
L 378.097643 120.232104 
L 378.317585 120.447495 
L 378.694628 121.263445 
L 379.228773 122.175667 
L 379.480135 122.285221 
L 379.700077 122.093635 
L 380.548424 121.073239 
L 380.705526 121.185811 
L 381.14541 121.994439 
L 381.585294 122.669988 
L 381.899496 122.775151 
L 382.27654 122.57469 
L 382.527902 122.16947 
L 382.999206 120.856619 
L 383.564771 119.418442 
L 383.753293 119.421586 
L 384.256017 120.00267 
L 384.664481 120.927737 
L 385.70135 122.885096 
L 386.141234 123.296182 
L 386.329755 123.281306 
L 386.581118 122.962858 
L 387.240943 121.564084 
L 387.775088 120.573141 
L 387.99503 120.41107 
L 388.403494 120.568077 
L 389.314682 121.035247 
L 389.628884 121.237108 
L 390.445812 121.694032 
L 391.042797 121.77433 
L 391.325579 121.618047 
L 391.576941 121.578474 
L 391.922565 121.533795 
L 392.111086 121.580037 
L 392.425289 122.052422 
L 393.210796 123.05197 
L 393.462158 122.726504 
L 393.744941 121.982266 
L 394.81323 118.8572 
L 395.001752 118.74389 
L 395.158853 118.913235 
L 395.473056 119.716418 
L 396.918388 123.88236 
L 397.232591 124.179988 
L 397.421113 124.096597 
L 397.641055 123.664317 
L 398.960706 120.397949 
L 399.36917 120.18028 
L 399.683373 119.881195 
L 400.060416 119.671246 
L 400.311778 119.683592 
L 400.53172 120.053058 
L 400.908764 121.143824 
L 401.537169 123.184497 
L 401.851372 123.725667 
L 402.071314 123.756106 
L 402.259836 123.509201 
L 402.605459 122.50697 
L 403.422386 120.092328 
L 403.736588 119.799137 
L 403.92511 119.855086 
L 404.207893 120.285996 
L 405.276182 122.212965 
L 405.558965 122.281385 
L 406.815776 121.903466 
L 407.098558 121.932186 
L 407.538442 121.721122 
L 408.009746 121.251131 
L 408.355369 121.108736 
L 409.235137 121.171764 
L 409.58076 120.982145 
L 410.523368 119.971456 
L 410.74331 120.306642 
L 410.994672 121.21488 
L 411.623078 123.626123 
L 411.84302 123.907212 
L 412.000121 123.85118 
L 412.188643 123.505655 
L 413.319773 120.785849 
L 413.571135 120.793652 
L 414.042439 121.028655 
L 414.356642 121.167901 
L 414.608004 121.013783 
L 415.173569 120.673524 
L 415.393511 120.725858 
L 415.676294 121.125934 
L 416.587482 122.599105 
L 416.838844 122.561445 
L 417.090206 122.193656 
L 417.781452 121.112953 
L 418.189916 120.922737 
L 418.72406 120.901564 
L 419.132524 121.057809 
L 420.200813 122.103128 
L 420.672118 121.824013 
L 421.928929 120.963596 
L 422.588754 120.405013 
L 422.777276 120.516044 
L 423.060059 121.092935 
L 423.908406 122.879062 
L 424.128348 122.892881 
L 424.41113 122.620472 
L 425.416579 121.365166 
L 426.013565 121.30583 
L 427.584578 121.202482 
L 427.867361 120.839787 
L 428.338665 120.216394 
L 428.590027 120.182008 
L 428.778549 120.427542 
L 429.187012 121.502374 
L 429.658317 122.51183 
L 429.909679 122.649256 
L 430.946548 122.319022 
L 431.512113 122.182859 
L 432.2662 122.001205 
L 432.548982 121.710134 
L 433.617271 120.209318 
L 434.151416 119.884496 
L 434.497039 119.905565 
L 434.874083 120.173889 
L 435.188285 120.673452 
L 436.319415 122.660165 
L 436.790719 123.06933 
L 436.979241 123.021615 
L 437.356284 122.507829 
L 437.890429 121.922936 
L 438.581675 121.464695 
L 439.210081 120.848384 
L 439.430023 120.934476 
L 439.744225 121.382894 
L 440.404051 122.303664 
L 440.623993 122.255155 
L 441.032457 121.785396 
L 441.880804 120.696754 
L 442.195007 120.567936 
L 442.57205 120.691231 
L 444.017383 121.640759 
L 444.488687 122.053709 
L 444.740049 121.920443 
L 445.651237 121.239421 
L 447.06515 122.043416 
L 448.070599 121.846145 
L 448.541903 121.465991 
L 449.107468 120.83236 
L 449.39025 120.761488 
L 449.704453 121.01813 
L 450.709902 121.940225 
L 450.992684 121.877687 
L 453.066423 120.571054 
L 453.317785 120.870875 
L 453.757669 121.892079 
L 454.260393 122.794575 
L 454.480335 122.853017 
L 454.731697 122.655757 
L 455.171581 121.906558 
L 455.737146 121.120011 
L 455.988508 121.090929 
L 457.402421 121.613571 
L 457.873725 121.915726 
L 458.062247 121.796673 
L 458.40787 121.20614 
L 459.067695 120.004988 
L 459.287637 119.981402 
L 459.507579 120.2298 
L 459.853202 121.015037 
L 460.544448 122.617156 
L 460.921492 122.92375 
L 461.204274 122.916121 
L 461.455636 122.651406 
L 461.801259 121.84746 
L 462.303984 120.82583 
L 462.649607 120.62422 
L 462.900969 120.686805 
L 463.278012 121.097314 
L 464.409142 122.481389 
L 464.723345 122.555662 
L 465.100389 122.462116 
L 465.414591 122.050437 
L 466.765663 119.903169 
L 467.017025 119.936444 
L 467.394069 120.302345 
L 467.833953 121.192749 
L 468.65088 122.508112 
L 468.933662 122.568936 
L 469.373546 122.416974 
L 470.410415 121.635221 
L 470.91314 121.269258 
L 471.698647 121.011661 
L 472.13853 121.154117 
L 472.515574 121.228426 
L 472.986878 121.005439 
L 473.301081 120.936957 
L 473.866646 121.030673 
L 474.33795 120.959502 
L 474.589312 121.297563 
L 475.846123 123.407919 
L 476.003224 123.376918 
L 476.223166 123.035267 
L 477.165775 121.282634 
L 477.699919 120.575113 
L 478.391165 120.135487 
L 478.611107 120.286269 
L 479.459455 121.44864 
L 479.867918 121.947206 
L 480.433483 122.115811 
L 480.716266 121.991109 
L 481.061889 121.493299 
L 481.784555 120.462353 
L 482.004497 120.454113 
L 482.727164 120.946803 
L 483.983975 122.566036 
L 484.706641 122.965557 
L 485.303626 122.73515 
L 485.554989 122.293836 
L 486.591858 120.164351 
L 486.780379 120.285738 
L 487.157423 120.854909 
L 487.880089 122.043911 
L 488.257132 122.172503 
L 488.477074 122.030693 
L 488.885538 121.356066 
L 489.545364 120.401095 
L 489.796726 120.364034 
L 490.079508 120.600306 
L 490.519392 121.263867 
L 490.833595 121.589583 
L 491.084957 121.557362 
L 491.304899 121.235543 
L 491.964725 120.014738 
L 492.184667 119.972013 
L 492.373189 120.263818 
L 492.781652 121.479572 
L 493.69284 124.349324 
L 493.881362 124.39279 
L 494.101304 124.195743 
L 494.352666 123.615629 
L 495.389535 120.657084 
L 495.672318 120.495337 
L 495.892259 120.607119 
L 496.834868 121.345536 
L 497.903157 121.330621 
L 498.500142 121.452694 
L 498.908606 121.158892 
L 499.819794 120.180318 
L 500.291098 120.148696 
L 500.856663 120.291594 
L 501.170866 120.65655 
L 501.61075 121.651693 
L 502.082054 123.153312 
L 502.647619 124.827511 
L 502.898981 125.036426 
L 503.056083 124.930971 
L 503.307445 124.406225 
L 503.810169 122.6975 
L 505.03556 118.210318 
L 505.318342 117.940762 
L 505.475444 118.02362 
L 505.695386 118.454178 
L 506.072429 119.773445 
L 507.046458 123.543623 
L 507.454921 124.234142 
L 507.737704 124.308547 
L 507.957646 124.141324 
L 508.240428 123.61594 
L 508.711732 122.147204 
L 509.56008 119.613243 
L 509.905703 119.157343 
L 510.157065 119.123862 
L 510.439848 119.336475 
L 510.785471 119.934787 
L 512.199383 122.791949 
L 512.576426 122.97454 
L 512.922049 122.867478 
L 513.361933 122.471151 
L 514.744425 121.019647 
L 515.21573 120.917802 
L 515.812715 121.054612 
L 517.50941 121.600287 
L 518.609119 121.576071 
L 521.185582 121.493969 
L 523.636364 121.5 
L 523.636364 121.5 
" clip-path="url(#pa651f1b462)" style="fill: none; stroke: #000000; stroke-width: 0.5; stroke-linecap: square"/>
   </g>
   <g id="patch_3">
    <path d="M 28.8 183.6 
L 547.2 183.6 
" style="fill: none; stroke: #000000; stroke-width: 0.8; stroke-linejoin: miter; stroke-linecap: square"/>
   </g>
   <g id="text_8">
    <g id="patch_4">
     <path d="M 24.8 55.066234 
L 460.242188 55.066234 
L 460.242188 3.550296 
L 24.8 3.550296 
L 24.8 55.066234 
z
" style="fill: none"/>
    </g>
    <!-- C201509162254A:  -->
    <g transform="translate(28.8 15.133109) scale(0.1 -0.1)">
     <defs>
      <path id="DejaVuSansMono-43" d="M 3353 166 
Q 3113 38 2859 -26 
Q 2606 -91 2322 -91 
Q 1425 -91 929 543 
Q 434 1178 434 2328 
Q 434 3472 932 4111 
Q 1431 4750 2322 4750 
Q 2606 4750 2859 4686 
Q 3113 4622 3353 4494 
L 3353 3847 
Q 3122 4038 2856 4138 
Q 2591 4238 2322 4238 
Q 1706 4238 1400 3763 
Q 1094 3288 1094 2328 
Q 1094 1372 1400 897 
Q 1706 422 2322 422 
Q 2597 422 2861 522 
Q 3125 622 3353 813 
L 3353 166 
z
" transform="scale(0.015625)"/>
      <path id="DejaVuSansMono-39" d="M 1863 2069 
Q 2266 2069 2495 2359 
Q 2725 2650 2725 3163 
Q 2725 3675 2495 3965 
Q 2266 4256 1863 4256 
Q 1444 4256 1231 3979 
Q 1019 3703 1019 3163 
Q 1019 2619 1230 2344 
Q 1441 2069 1863 2069 
z
M 738 97 
L 738 678 
Q 934 563 1156 502 
Q 1378 441 1619 441 
Q 2219 441 2526 892 
Q 2834 1344 2834 2222 
Q 2688 1909 2422 1742 
Q 2156 1575 1813 1575 
Q 1138 1575 767 1990 
Q 397 2406 397 3169 
Q 397 3922 776 4336 
Q 1156 4750 1850 4750 
Q 2663 4750 3041 4165 
Q 3419 3581 3419 2328 
Q 3419 1150 2964 529 
Q 2509 -91 1644 -91 
Q 1416 -91 1184 -42 
Q 953 6 738 97 
z
" transform="scale(0.015625)"/>
      <path id="DejaVuSansMono-36" d="M 3097 4563 
L 3097 3981 
Q 2900 4097 2678 4158 
Q 2456 4219 2216 4219 
Q 1616 4219 1306 3767 
Q 997 3316 997 2438 
Q 1147 2750 1412 2917 
Q 1678 3084 2022 3084 
Q 2697 3084 3067 2670 
Q 3438 2256 3438 1497 
Q 3438 741 3056 325 
Q 2675 -91 1984 -91 
Q 1172 -91 794 492 
Q 416 1075 416 2328 
Q 416 3509 870 4129 
Q 1325 4750 2188 4750 
Q 2419 4750 2650 4701 
Q 2881 4653 3097 4563 
z
M 1972 2591 
Q 1569 2591 1337 2300 
Q 1106 2009 1106 1497 
Q 1106 984 1337 693 
Q 1569 403 1972 403 
Q 2391 403 2603 679 
Q 2816 956 2816 1497 
Q 2816 2041 2603 2316 
Q 2391 2591 1972 2591 
z
" transform="scale(0.015625)"/>
      <path id="DejaVuSansMono-34" d="M 2297 4091 
L 825 1625 
L 2297 1625 
L 2297 4091 
z
M 2194 4666 
L 2925 4666 
L 2925 1625 
L 3547 1625 
L 3547 1113 
L 2925 1113 
L 2925 0 
L 2297 0 
L 2297 1113 
L 319 1113 
L 319 1709 
L 2194 4666 
z
" transform="scale(0.015625)"/>
      <path id="DejaVuSansMono-41" d="M 1925 4109 
L 1259 1722 
L 2591 1722 
L 1925 4109 
z
M 1544 4666 
L 2309 4666 
L 3738 0 
L 3084 0 
L 2741 1216 
L 1106 1216 
L 769 0 
L 116 0 
L 1544 4666 
z
" transform="scale(0.015625)"/>
      <path id="DejaVuSansMono-3a" d="M 1528 3322 
L 2316 3322 
L 2316 2375 
L 1528 2375 
L 1528 3322 
z
M 1528 953 
L 2316 953 
L 2316 0 
L 1528 0 
L 1528 953 
z
" transform="scale(0.015625)"/>
     </defs>
     <use xlink:href="#DejaVuSansMono-43"/>
     <use xlink:href="#DejaVuSansMono-32" x="60.205078"/>
     <use xlink:href="#DejaVuSansMono-30" x="120.410156"/>
     <use xlink:href="#DejaVuSansMono-31" x="180.615234"/>
     <use xlink:href="#DejaVuSansMono-35" x="240.820312"/>
     <use xlink:href="#DejaVuSansMono-30" x="301.025391"/>
     <use xlink:href="#DejaVuSansMono-39" x="361.230469"/>
     <use xlink:href="#DejaVuSansMono-31" x="421.435547"/>
     <use xlink:href="#DejaVuSansMono-36" x="481.640625"/>
     <use xlink:href="#DejaVuSansMono-32" x="541.845703"/>
     <use xlink:href="#DejaVuSansMono-32" x="602.050781"/>
     <use xlink:href="#DejaVuSansMono-35" x="662.255859"/>
     <use xlink:href="#DejaVuSansMono-34" x="722.460938"/>
     <use xlink:href="#DejaVuSansMono-41" x="782.666016"/>
     <use xlink:href="#DejaVuSansMono-3a" x="842.871094"/>
     <use xlink:href="#DejaVuSansMono-20" x="903.076172"/>
    </g>
    <!--   2015-09-16 22:55:22  La -31.130 Lo -72.090 Dp 17.350km -->
    <g transform="translate(28.8 26.394671) scale(0.1 -0.1)">
     <defs>
      <path id="DejaVuSansMono-2d" d="M 1113 2009 
L 2741 2009 
L 2741 1497 
L 1113 1497 
L 1113 2009 
z
" transform="scale(0.015625)"/>
      <path id="DejaVuSansMono-4c" d="M 672 4666 
L 1306 4666 
L 1306 531 
L 3559 531 
L 3559 0 
L 672 0 
L 672 4666 
z
" transform="scale(0.015625)"/>
      <path id="DejaVuSansMono-61" d="M 2194 1759 
L 2003 1759 
Q 1500 1759 1245 1582 
Q 991 1406 991 1056 
Q 991 741 1181 566 
Q 1372 391 1709 391 
Q 2184 391 2456 720 
Q 2728 1050 2731 1631 
L 2731 1759 
L 2194 1759 
z
M 3309 1997 
L 3309 0 
L 2731 0 
L 2731 519 
Q 2547 206 2267 57 
Q 1988 -91 1588 -91 
Q 1053 -91 734 211 
Q 416 513 416 1019 
Q 416 1603 808 1906 
Q 1200 2209 1959 2209 
L 2731 2209 
L 2731 2300 
Q 2728 2719 2518 2908 
Q 2309 3097 1850 3097 
Q 1556 3097 1256 3012 
Q 956 2928 672 2766 
L 672 3341 
Q 991 3463 1283 3523 
Q 1575 3584 1850 3584 
Q 2284 3584 2592 3456 
Q 2900 3328 3091 3072 
Q 3209 2916 3259 2686 
Q 3309 2456 3309 1997 
z
" transform="scale(0.015625)"/>
      <path id="DejaVuSansMono-33" d="M 2425 2497 
Q 2884 2375 3128 2064 
Q 3372 1753 3372 1288 
Q 3372 644 2939 276 
Q 2506 -91 1741 -91 
Q 1419 -91 1084 -31 
Q 750 28 428 141 
L 428 769 
Q 747 603 1056 522 
Q 1366 441 1672 441 
Q 2191 441 2469 675 
Q 2747 909 2747 1350 
Q 2747 1756 2469 1995 
Q 2191 2234 1716 2234 
L 1234 2234 
L 1234 2753 
L 1716 2753 
Q 2150 2753 2394 2943 
Q 2638 3134 2638 3475 
Q 2638 3834 2411 4026 
Q 2184 4219 1766 4219 
Q 1488 4219 1191 4156 
Q 894 4094 569 3969 
L 569 4550 
Q 947 4650 1242 4700 
Q 1538 4750 1766 4750 
Q 2447 4750 2855 4408 
Q 3263 4066 3263 3500 
Q 3263 3116 3048 2859 
Q 2834 2603 2425 2497 
z
" transform="scale(0.015625)"/>
      <path id="DejaVuSansMono-2e" d="M 1528 953 
L 2316 953 
L 2316 0 
L 1528 0 
L 1528 953 
z
" transform="scale(0.015625)"/>
      <path id="DejaVuSansMono-37" d="M 434 4666 
L 3372 4666 
L 3372 4397 
L 1703 0 
L 1044 0 
L 2669 4134 
L 434 4134 
L 434 4666 
z
" transform="scale(0.015625)"/>
      <path id="DejaVuSansMono-44" d="M 1363 519 
Q 2159 519 2475 911 
Q 2791 1303 2791 2328 
Q 2791 3363 2477 3755 
Q 2163 4147 1363 4147 
L 1063 4147 
L 1063 519 
L 1363 519 
z
M 1375 4666 
Q 2444 4666 2950 4097 
Q 3456 3528 3456 2328 
Q 3456 1134 2950 567 
Q 2444 0 1375 0 
L 428 0 
L 428 4666 
L 1375 4666 
z
" transform="scale(0.015625)"/>
      <path id="DejaVuSansMono-70" d="M 1172 441 
L 1172 -1331 
L 594 -1331 
L 594 3500 
L 1172 3500 
L 1172 3053 
Q 1316 3313 1555 3448 
Q 1794 3584 2106 3584 
Q 2741 3584 3102 3093 
Q 3463 2603 3463 1734 
Q 3463 881 3100 395 
Q 2738 -91 2106 -91 
Q 1788 -91 1548 45 
Q 1309 181 1172 441 
z
M 2859 1747 
Q 2859 2416 2648 2756 
Q 2438 3097 2022 3097 
Q 1603 3097 1387 2755 
Q 1172 2413 1172 1747 
Q 1172 1084 1387 740 
Q 1603 397 2022 397 
Q 2438 397 2648 737 
Q 2859 1078 2859 1747 
z
" transform="scale(0.015625)"/>
      <path id="DejaVuSansMono-6b" d="M 738 4863 
L 1331 4863 
L 1331 2047 
L 2841 3500 
L 3541 3500 
L 2163 2181 
L 3756 0 
L 3053 0 
L 1759 1806 
L 1331 1403 
L 1331 0 
L 738 0 
L 738 4863 
z
" transform="scale(0.015625)"/>
     </defs>
     <use xlink:href="#DejaVuSansMono-20"/>
     <use xlink:href="#DejaVuSansMono-20" x="60.205078"/>
     <use xlink:href="#DejaVuSansMono-32" x="120.410156"/>
     <use xlink:href="#DejaVuSansMono-30" x="180.615234"/>
     <use xlink:href="#DejaVuSansMono-31" x="240.820312"/>
     <use xlink:href="#DejaVuSansMono-35" x="301.025391"/>
     <use xlink:href="#DejaVuSansMono-2d" x="361.230469"/>
     <use xlink:href="#DejaVuSansMono-30" x="421.435547"/>
     <use xlink:href="#DejaVuSansMono-39" x="481.640625"/>
     <use xlink:href="#DejaVuSansMono-2d" x="541.845703"/>
     <use xlink:href="#DejaVuSansMono-31" x="602.050781"/>
     <use xlink:href="#DejaVuSansMono-36" x="662.255859"/>
     <use xlink:href="#DejaVuSansMono-20" x="722.460938"/>
     <use xlink:href="#DejaVuSansMono-32" x="782.666016"/>
     <use xlink:href="#DejaVuSansMono-32" x="842.871094"/>
     <use xlink:href="#DejaVuSansMono-3a" x="903.076172"/>
     <use xlink:href="#DejaVuSansMono-35" x="963.28125"/>
     <use xlink:href="#DejaVuSansMono-35" x="1023.486328"/>
     <use xlink:href="#DejaVuSansMono-3a" x="1083.691406"/>
     <use xlink:href="#DejaVuSansMono-32" x="1143.896484"/>
     <use xlink:href="#DejaVuSansMono-32" x="1204.101562"/>
     <use xlink:href="#DejaVuSansMono-20" x="1264.306641"/>
     <use xlink:href="#DejaVuSansMono-20" x="1324.511719"/>
     <use xlink:href="#DejaVuSansMono-4c" x="1384.716797"/>
     <use xlink:href="#DejaVuSansMono-61" x="1444.921875"/>
     <use xlink:href="#DejaVuSansMono-20" x="1505.126953"/>
     <use xlink:href="#DejaVuSansMono-2d" x="1565.332031"/>
     <use xlink:href="#DejaVuSansMono-33" x="1625.537109"/>
     <use xlink:href="#DejaVuSansMono-31" x="1685.742188"/>
     <use xlink:href="#DejaVuSansMono-2e" x="1745.947266"/>
     <use xlink:href="#DejaVuSansMono-31" x="1806.152344"/>
     <use xlink:href="#DejaVuSansMono-33" x="1866.357422"/>
     <use xlink:href="#DejaVuSansMono-30" x="1926.5625"/>
     <use xlink:href="#DejaVuSansMono-20" x="1986.767578"/>
     <use xlink:href="#DejaVuSansMono-4c" x="2046.972656"/>
     <use xlink:href="#DejaVuSansMono-6f" x="2107.177734"/>
     <use xlink:href="#DejaVuSansMono-20" x="2167.382812"/>
     <use xlink:href="#DejaVuSansMono-2d" x="2227.587891"/>
     <use xlink:href="#DejaVuSansMono-37" x="2287.792969"/>
     <use xlink:href="#DejaVuSansMono-32" x="2347.998047"/>
     <use xlink:href="#DejaVuSansMono-2e" x="2408.203125"/>
     <use xlink:href="#DejaVuSansMono-30" x="2468.408203"/>
     <use xlink:href="#DejaVuSansMono-39" x="2528.613281"/>
     <use xlink:href="#DejaVuSansMono-30" x="2588.818359"/>
     <use xlink:href="#DejaVuSansMono-20" x="2649.023438"/>
     <use xlink:href="#DejaVuSansMono-44" x="2709.228516"/>
     <use xlink:href="#DejaVuSansMono-70" x="2769.433594"/>
     <use xlink:href="#DejaVuSansMono-20" x="2829.638672"/>
     <use xlink:href="#DejaVuSansMono-31" x="2889.84375"/>
     <use xlink:href="#DejaVuSansMono-37" x="2950.048828"/>
     <use xlink:href="#DejaVuSansMono-2e" x="3010.253906"/>
     <use xlink:href="#DejaVuSansMono-33" x="3070.458984"/>
     <use xlink:href="#DejaVuSansMono-35" x="3130.664062"/>
     <use xlink:href="#DejaVuSansMono-30" x="3190.869141"/>
     <use xlink:href="#DejaVuSansMono-6b" x="3251.074219"/>
     <use xlink:href="#DejaVuSansMono-6d" x="3311.279297"/>
    </g>
    <!-- II.BFO.00.LHZ:  -->
    <g transform="translate(28.8 37.656234) scale(0.1 -0.1)">
     <defs>
      <path id="DejaVuSansMono-49" d="M 628 4666 
L 3219 4666 
L 3219 4134 
L 2241 4134 
L 2241 531 
L 3219 531 
L 3219 0 
L 628 0 
L 628 531 
L 1606 531 
L 1606 4134 
L 628 4134 
L 628 4666 
z
" transform="scale(0.015625)"/>
      <path id="DejaVuSansMono-42" d="M 1153 2228 
L 1153 519 
L 1900 519 
Q 2450 519 2684 711 
Q 2919 903 2919 1344 
Q 2919 1800 2672 2014 
Q 2425 2228 1900 2228 
L 1153 2228 
z
M 1153 4147 
L 1153 2741 
L 1888 2741 
Q 2344 2741 2548 2916 
Q 2753 3091 2753 3481 
Q 2753 3834 2551 3990 
Q 2350 4147 1888 4147 
L 1153 4147 
z
M 519 4666 
L 1900 4666 
Q 2616 4666 3003 4356 
Q 3391 4047 3391 3481 
Q 3391 3053 3186 2806 
Q 2981 2559 2572 2497 
Q 3031 2428 3292 2104 
Q 3553 1781 3553 1281 
Q 3553 647 3137 323 
Q 2722 0 1900 0 
L 519 0 
L 519 4666 
z
" transform="scale(0.015625)"/>
      <path id="DejaVuSansMono-46" d="M 728 4666 
L 3475 4666 
L 3475 4134 
L 1363 4134 
L 1363 2759 
L 3278 2759 
L 3278 2228 
L 1363 2228 
L 1363 0 
L 728 0 
L 728 4666 
z
" transform="scale(0.015625)"/>
      <path id="DejaVuSansMono-4f" d="M 2828 2328 
Q 2828 3356 2617 3797 
Q 2406 4238 1925 4238 
Q 1447 4238 1236 3797 
Q 1025 3356 1025 2328 
Q 1025 1303 1236 862 
Q 1447 422 1925 422 
Q 2406 422 2617 861 
Q 2828 1300 2828 2328 
z
M 3488 2328 
Q 3488 1109 3102 509 
Q 2716 -91 1925 -91 
Q 1134 -91 750 506 
Q 366 1103 366 2328 
Q 366 3550 752 4150 
Q 1138 4750 1925 4750 
Q 2716 4750 3102 4150 
Q 3488 3550 3488 2328 
z
" transform="scale(0.015625)"/>
      <path id="DejaVuSansMono-48" d="M 428 4666 
L 1063 4666 
L 1063 2753 
L 2791 2753 
L 2791 4666 
L 3425 4666 
L 3425 0 
L 2791 0 
L 2791 2222 
L 1063 2222 
L 1063 0 
L 428 0 
L 428 4666 
z
" transform="scale(0.015625)"/>
      <path id="DejaVuSansMono-5a" d="M 556 4666 
L 3584 4666 
L 3584 4184 
L 1147 531 
L 3653 531 
L 3653 0 
L 488 0 
L 488 481 
L 2859 4134 
L 556 4134 
L 556 4666 
z
" transform="scale(0.015625)"/>
     </defs>
     <use xlink:href="#DejaVuSansMono-49"/>
     <use xlink:href="#DejaVuSansMono-49" x="60.205078"/>
     <use xlink:href="#DejaVuSansMono-2e" x="120.410156"/>
     <use xlink:href="#DejaVuSansMono-42" x="180.615234"/>
     <use xlink:href="#DejaVuSansMono-46" x="240.820312"/>
     <use xlink:href="#DejaVuSansMono-4f" x="301.025391"/>
     <use xlink:href="#DejaVuSansMono-2e" x="361.230469"/>
     <use xlink:href="#DejaVuSansMono-30" x="421.435547"/>
     <use xlink:href="#DejaVuSansMono-30" x="481.640625"/>
     <use xlink:href="#DejaVuSansMono-2e" x="541.845703"/>
     <use xlink:href="#DejaVuSansMono-4c" x="602.050781"/>
     <use xlink:href="#DejaVuSansMono-48" x="662.255859"/>
     <use xlink:href="#DejaVuSansMono-5a" x="722.460938"/>
     <use xlink:href="#DejaVuSansMono-3a" x="782.666016"/>
     <use xlink:href="#DejaVuSansMono-20" x="842.871094"/>
    </g>
    <!--   La 48.330 Lo: 8.330 Az: 43.4 Baz: 242.1 Dist: 106.868dg - Bp: 30-200s -->
    <g transform="translate(28.8 48.917796) scale(0.1 -0.1)">
     <defs>
      <path id="DejaVuSansMono-38" d="M 1925 2216 
Q 1503 2216 1273 1980 
Q 1044 1744 1044 1313 
Q 1044 881 1276 642 
Q 1509 403 1925 403 
Q 2350 403 2579 639 
Q 2809 875 2809 1313 
Q 2809 1741 2576 1978 
Q 2344 2216 1925 2216 
z
M 1375 2478 
Q 972 2581 745 2862 
Q 519 3144 519 3541 
Q 519 4097 897 4423 
Q 1275 4750 1925 4750 
Q 2578 4750 2956 4423 
Q 3334 4097 3334 3541 
Q 3334 3144 3107 2862 
Q 2881 2581 2478 2478 
Q 2947 2375 3195 2062 
Q 3444 1750 3444 1253 
Q 3444 622 3041 265 
Q 2638 -91 1925 -91 
Q 1213 -91 811 264 
Q 409 619 409 1247 
Q 409 1747 657 2061 
Q 906 2375 1375 2478 
z
M 1147 3481 
Q 1147 3106 1347 2909 
Q 1547 2713 1925 2713 
Q 2306 2713 2506 2909 
Q 2706 3106 2706 3481 
Q 2706 3863 2507 4063 
Q 2309 4263 1925 4263 
Q 1547 4263 1347 4061 
Q 1147 3859 1147 3481 
z
" transform="scale(0.015625)"/>
      <path id="DejaVuSansMono-7a" d="M 709 3506 
L 3250 3506 
L 3250 2981 
L 1241 469 
L 3250 469 
L 3250 0 
L 634 0 
L 634 531 
L 2644 3047 
L 709 3047 
L 709 3506 
z
" transform="scale(0.015625)"/>
      <path id="DejaVuSansMono-74" d="M 1919 4494 
L 1919 3500 
L 3225 3500 
L 3225 3053 
L 1919 3053 
L 1919 1153 
Q 1919 766 2066 612 
Q 2213 459 2578 459 
L 3225 459 
L 3225 0 
L 2522 0 
Q 1875 0 1609 259 
Q 1344 519 1344 1153 
L 1344 3053 
L 409 3053 
L 409 3500 
L 1344 3500 
L 1344 4494 
L 1919 4494 
z
" transform="scale(0.015625)"/>
      <path id="DejaVuSansMono-64" d="M 2681 3053 
L 2681 4863 
L 3256 4863 
L 3256 0 
L 2681 0 
L 2681 441 
Q 2538 181 2298 45 
Q 2059 -91 1747 -91 
Q 1113 -91 748 401 
Q 384 894 384 1759 
Q 384 2613 750 3098 
Q 1116 3584 1747 3584 
Q 2063 3584 2303 3448 
Q 2544 3313 2681 3053 
z
M 991 1747 
Q 991 1078 1203 737 
Q 1416 397 1831 397 
Q 2247 397 2464 740 
Q 2681 1084 2681 1747 
Q 2681 2413 2464 2755 
Q 2247 3097 1831 3097 
Q 1416 3097 1203 2756 
Q 991 2416 991 1747 
z
" transform="scale(0.015625)"/>
     </defs>
     <use xlink:href="#DejaVuSansMono-20"/>
     <use xlink:href="#DejaVuSansMono-20" x="60.205078"/>
     <use xlink:href="#DejaVuSansMono-4c" x="120.410156"/>
     <use xlink:href="#DejaVuSansMono-61" x="180.615234"/>
     <use xlink:href="#DejaVuSansMono-20" x="240.820312"/>
     <use xlink:href="#DejaVuSansMono-34" x="301.025391"/>
     <use xlink:href="#DejaVuSansMono-38" x="361.230469"/>
     <use xlink:href="#DejaVuSansMono-2e" x="421.435547"/>
     <use xlink:href="#DejaVuSansMono-33" x="481.640625"/>
     <use xlink:href="#DejaVuSansMono-33" x="541.845703"/>
     <use xlink:href="#DejaVuSansMono-30" x="602.050781"/>
     <use xlink:href="#DejaVuSansMono-20" x="662.255859"/>
     <use xlink:href="#DejaVuSansMono-4c" x="722.460938"/>
     <use xlink:href="#DejaVuSansMono-6f" x="782.666016"/>
     <use xlink:href="#DejaVuSansMono-3a" x="842.871094"/>
     <use xlink:href="#DejaVuSansMono-20" x="903.076172"/>
     <use xlink:href="#DejaVuSansMono-38" x="963.28125"/>
     <use xlink:href="#DejaVuSansMono-2e" x="1023.486328"/>
     <use xlink:href="#DejaVuSansMono-33" x="1083.691406"/>
     <use xlink:href="#DejaVuSansMono-33" x="1143.896484"/>
     <use xlink:href="#DejaVuSansMono-30" x="1204.101562"/>
     <use xlink:href="#DejaVuSansMono-20" x="1264.306641"/>
     <use xlink:href="#DejaVuSansMono-41" x="1324.511719"/>
     <use xlink:href="#DejaVuSansMono-7a" x="1384.716797"/>
     <use xlink:href="#DejaVuSansMono-3a" x="1444.921875"/>
     <use xlink:href="#DejaVuSansMono-20" x="1505.126953"/>
     <use xlink:href="#DejaVuSansMono-34" x="1565.332031"/>
     <use xlink:href="#DejaVuSansMono-33" x="1625.537109"/>
     <use xlink:href="#DejaVuSansMono-2e" x="1685.742188"/>
     <use xlink:href="#DejaVuSansMono-34" x="1745.947266"/>
     <use xlink:href="#DejaVuSansMono-20" x="1806.152344"/>
     <use xlink:href="#DejaVuSansMono-42" x="1866.357422"/>
     <use xlink:href="#DejaVuSansMono-61" x="1926.5625"/>
     <use xlink:href="#DejaVuSansMono-7a" x="1986.767578"/>
     <use xlink:href="#DejaVuSansMono-3a" x="2046.972656"/>
     <use xlink:href="#DejaVuSansMono-20" x="2107.177734"/>
     <use xlink:href="#DejaVuSansMono-32" x="2167.382812"/>
     <use xlink:href="#DejaVuSansMono-34" x="2227.587891"/>
     <use xlink:href="#DejaVuSansMono-32" x="2287.792969"/>
     <use xlink:href="#DejaVuSansMono-2e" x="2347.998047"/>
     <use xlink:href="#DejaVuSansMono-31" x="2408.203125"/>
     <use xlink:href="#DejaVuSansMono-20" x="2468.408203"/>
     <use xlink:href="#DejaVuSansMono-44" x="2528.613281"/>
     <use xlink:href="#DejaVuSansMono-69" x="2588.818359"/>
     <use xlink:href="#DejaVuSansMono-73" x="2649.023438"/>
     <use xlink:href="#DejaVuSansMono-74" x="2709.228516"/>
     <use xlink:href="#DejaVuSansMono-3a" x="2769.433594"/>
     <use xlink:href="#DejaVuSansMono-20" x="2829.638672"/>
     <use xlink:href="#DejaVuSansMono-31" x="2889.84375"/>
     <use xlink:href="#DejaVuSansMono-30" x="2950.048828"/>
     <use xlink:href="#DejaVuSansMono-36" x="3010.253906"/>
     <use xlink:href="#DejaVuSansMono-2e" x="3070.458984"/>
     <use xlink:href="#DejaVuSansMono-38" x="3130.664062"/>
     <use xlink:href="#DejaVuSansMono-36" x="3190.869141"/>
     <use xlink:href="#DejaVuSansMono-38" x="3251.074219"/>
     <use xlink:href="#DejaVuSansMono-64" x="3311.279297"/>
     <use xlink:href="#DejaVuSansMono-67" x="3371.484375"/>
     <use xlink:href="#DejaVuSansMono-20" x="3431.689453"/>
     <use xlink:href="#DejaVuSansMono-2d" x="3491.894531"/>
     <use xlink:href="#DejaVuSansMono-20" x="3552.099609"/>
     <use xlink:href="#DejaVuSansMono-42" x="3612.304688"/>
     <use xlink:href="#DejaVuSansMono-70" x="3672.509766"/>
     <use xlink:href="#DejaVuSansMono-3a" x="3732.714844"/>
     <use xlink:href="#DejaVuSansMono-20" x="3792.919922"/>
     <use xlink:href="#DejaVuSansMono-33" x="3853.125"/>
     <use xlink:href="#DejaVuSansMono-30" x="3913.330078"/>
     <use xlink:href="#DejaVuSansMono-2d" x="3973.535156"/>
     <use xlink:href="#DejaVuSansMono-32" x="4033.740234"/>
     <use xlink:href="#DejaVuSansMono-30" x="4093.945312"/>
     <use xlink:href="#DejaVuSansMono-30" x="4154.150391"/>
     <use xlink:href="#DejaVuSansMono-73" x="4214.355469"/>
    </g>
   </g>
   <g id="legend_1">
    <g id="line2d_8">
     <path d="M 462.0375 72.551563 
L 472.0375 72.551563 
L 482.0375 72.551563 
" style="fill: none; stroke: #000000; stroke-width: 0.5; stroke-linecap: square"/>
    </g>
    <g id="text_9">
     <!-- Observed -->
     <g transform="translate(490.0375 76.051563) scale(0.1 -0.1)">
      <defs>
       <path id="DejaVuSansMono-62" d="M 2869 1747 
Q 2869 2416 2656 2756 
Q 2444 3097 2028 3097 
Q 1609 3097 1393 2755 
Q 1178 2413 1178 1747 
Q 1178 1084 1393 740 
Q 1609 397 2028 397 
Q 2444 397 2656 737 
Q 2869 1078 2869 1747 
z
M 1178 3053 
Q 1316 3309 1558 3446 
Q 1800 3584 2119 3584 
Q 2750 3584 3112 3098 
Q 3475 2613 3475 1759 
Q 3475 894 3111 401 
Q 2747 -91 2113 -91 
Q 1800 -91 1561 45 
Q 1322 181 1178 441 
L 1178 0 
L 603 0 
L 603 4863 
L 1178 4863 
L 1178 3053 
z
" transform="scale(0.015625)"/>
       <path id="DejaVuSansMono-76" d="M 313 3500 
L 909 3500 
L 1925 563 
L 2944 3500 
L 3541 3500 
L 2297 0 
L 1556 0 
L 313 3500 
z
" transform="scale(0.015625)"/>
      </defs>
      <use xlink:href="#DejaVuSansMono-4f"/>
      <use xlink:href="#DejaVuSansMono-62" x="60.205078"/>
      <use xlink:href="#DejaVuSansMono-73" x="120.410156"/>
      <use xlink:href="#DejaVuSansMono-65" x="180.615234"/>
      <use xlink:href="#DejaVuSansMono-72" x="240.820312"/>
      <use xlink:href="#DejaVuSansMono-76" x="301.025391"/>
      <use xlink:href="#DejaVuSansMono-65" x="361.230469"/>
      <use xlink:href="#DejaVuSansMono-64" x="421.435547"/>
     </g>
    </g>
   </g>
  </g>
 </g>
 <defs>
  <clipPath id="pa651f1b462">
   <rect x="28.8" y="59.4" width="518.4" height="124.2"/>
  </clipPath>
 </defs>
</svg>
