<?xml version="1.0" encoding="utf-8" standalone="no"?>
<!DOCTYPE svg PUBLIC "-//W3C//DTD SVG 1.1//EN"
  "http://www.w3.org/Graphics/SVG/1.1/DTD/svg11.dtd">
<svg xmlns:xlink="http://www.w3.org/1999/xlink" width="576pt" height="216pt" viewBox="0 0 576 216" xmlns="http://www.w3.org/2000/svg" version="1.1">
 <metadata>
  <rdf:RDF xmlns:dc="http://purl.org/dc/elements/1.1/" xmlns:cc="http://creativecommons.org/ns#" xmlns:rdf="http://www.w3.org/1999/02/22-rdf-syntax-ns#">
   <cc:Work>
    <dc:type rdf:resource="http://purl.org/dc/dcmitype/StillImage"/>
    <dc:date>2023-08-31T20:52:41.817173</dc:date>
    <dc:format>image/svg+xml</dc:format>
    <dc:creator>
     <cc:Agent>
      <dc:title>Matplotlib v3.7.2, https://matplotlib.org/</dc:title>
     </cc:Agent>
    </dc:creator>
   </cc:Work>
  </rdf:RDF>
 </metadata>
 <defs>
  <style type="text/css">*{stroke-linejoin: round; stroke-linecap: butt}</style>
 </defs>
 <g id="figure_1">
  <g id="patch_1">
   <path d="M 0 216 
L 576 216 
L 576 0 
L 0 0 
z
" style="fill: #ffffff"/>
  </g>
  <g id="axes_1">
   <g id="patch_2">
    <path d="M 28.8 183.6 
L 547.2 183.6 
L 547.2 59.4 
L 28.8 59.4 
z
" style="fill: #ffffff"/>
   </g>
   <g id="matplotlib.axis_1">
    <g id="xtick_1">
     <g id="line2d_1">
      <defs>
       <path id="m0617641372" d="M 0 0 
L 0 3.5 
" style="stroke: #000000; stroke-width: 0.8"/>
      </defs>
      <g>
       <use xlink:href="#m0617641372" x="63.354778" y="183.6" style="stroke: #000000; stroke-width: 0.8"/>
      </g>
     </g>
     <g id="text_1">
      <!-- 0 -->
      <g transform="translate(60.173528 198.198438) scale(0.1 -0.1)">
       <defs>
        <path id="DejaVuSans-30" d="M 2034 4250 
Q 1547 4250 1301 3770 
Q 1056 3291 1056 2328 
Q 1056 1369 1301 889 
Q 1547 409 2034 409 
Q 2525 409 2770 889 
Q 3016 1369 3016 2328 
Q 3016 3291 2770 3770 
Q 2525 4250 2034 4250 
z
M 2034 4750 
Q 2819 4750 3233 4129 
Q 3647 3509 3647 2328 
Q 3647 1150 3233 529 
Q 2819 -91 2034 -91 
Q 1250 -91 836 529 
Q 422 1150 422 2328 
Q 422 3509 836 4129 
Q 1250 4750 2034 4750 
z
" transform="scale(0.015625)"/>
       </defs>
       <use xlink:href="#DejaVuSans-30"/>
      </g>
     </g>
    </g>
    <g id="xtick_2">
     <g id="line2d_2">
      <g>
       <use xlink:href="#m0617641372" x="157.615607" y="183.6" style="stroke: #000000; stroke-width: 0.8"/>
      </g>
     </g>
     <g id="text_2">
      <!-- 50 -->
      <g transform="translate(151.253107 198.198438) scale(0.1 -0.1)">
       <defs>
        <path id="DejaVuSans-35" d="M 691 4666 
L 3169 4666 
L 3169 4134 
L 1269 4134 
L 1269 2991 
Q 1406 3038 1543 3061 
Q 1681 3084 1819 3084 
Q 2600 3084 3056 2656 
Q 3513 2228 3513 1497 
Q 3513 744 3044 326 
Q 2575 -91 1722 -91 
Q 1428 -91 1123 -41 
Q 819 9 494 109 
L 494 744 
Q 775 591 1075 516 
Q 1375 441 1709 441 
Q 2250 441 2565 725 
Q 2881 1009 2881 1497 
Q 2881 1984 2565 2268 
Q 2250 2553 1709 2553 
Q 1456 2553 1204 2497 
Q 953 2441 691 2322 
L 691 4666 
z
" transform="scale(0.015625)"/>
       </defs>
       <use xlink:href="#DejaVuSans-35"/>
       <use xlink:href="#DejaVuSans-30" x="63.623047"/>
      </g>
     </g>
    </g>
    <g id="xtick_3">
     <g id="line2d_3">
      <g>
       <use xlink:href="#m0617641372" x="251.876437" y="183.6" style="stroke: #000000; stroke-width: 0.8"/>
      </g>
     </g>
     <g id="text_3">
      <!-- 100 -->
      <g transform="translate(242.332687 198.198438) scale(0.1 -0.1)">
       <defs>
        <path id="DejaVuSans-31" d="M 794 531 
L 1825 531 
L 1825 4091 
L 703 3866 
L 703 4441 
L 1819 4666 
L 2450 4666 
L 2450 531 
L 3481 531 
L 3481 0 
L 794 0 
L 794 531 
z
" transform="scale(0.015625)"/>
       </defs>
       <use xlink:href="#DejaVuSans-31"/>
       <use xlink:href="#DejaVuSans-30" x="63.623047"/>
       <use xlink:href="#DejaVuSans-30" x="127.246094"/>
      </g>
     </g>
    </g>
    <g id="xtick_4">
     <g id="line2d_4">
      <g>
       <use xlink:href="#m0617641372" x="346.137266" y="183.6" style="stroke: #000000; stroke-width: 0.8"/>
      </g>
     </g>
     <g id="text_4">
      <!-- 150 -->
      <g transform="translate(336.593516 198.198438) scale(0.1 -0.1)">
       <use xlink:href="#DejaVuSans-31"/>
       <use xlink:href="#DejaVuSans-35" x="63.623047"/>
       <use xlink:href="#DejaVuSans-30" x="127.246094"/>
      </g>
     </g>
    </g>
    <g id="xtick_5">
     <g id="line2d_5">
      <g>
       <use xlink:href="#m0617641372" x="440.398096" y="183.6" style="stroke: #000000; stroke-width: 0.8"/>
      </g>
     </g>
     <g id="text_5">
      <!-- 200 -->
      <g transform="translate(430.854346 198.198438) scale(0.1 -0.1)">
       <defs>
        <path id="DejaVuSans-32" d="M 1228 531 
L 3431 531 
L 3431 0 
L 469 0 
L 469 531 
Q 828 903 1448 1529 
Q 2069 2156 2228 2338 
Q 2531 2678 2651 2914 
Q 2772 3150 2772 3378 
Q 2772 3750 2511 3984 
Q 2250 4219 1831 4219 
Q 1534 4219 1204 4116 
Q 875 4013 500 3803 
L 500 4441 
Q 881 4594 1212 4672 
Q 1544 4750 1819 4750 
Q 2544 4750 2975 4387 
Q 3406 4025 3406 3419 
Q 3406 3131 3298 2873 
Q 3191 2616 2906 2266 
Q 2828 2175 2409 1742 
Q 1991 1309 1228 531 
z
" transform="scale(0.015625)"/>
       </defs>
       <use xlink:href="#DejaVuSans-32"/>
       <use xlink:href="#DejaVuSans-30" x="63.623047"/>
       <use xlink:href="#DejaVuSans-30" x="127.246094"/>
      </g>
     </g>
    </g>
    <g id="xtick_6">
     <g id="line2d_6">
      <g>
       <use xlink:href="#m0617641372" x="534.658925" y="183.6" style="stroke: #000000; stroke-width: 0.8"/>
      </g>
     </g>
     <g id="text_6">
      <!-- 250 -->
      <g transform="translate(525.115175 198.198438) scale(0.1 -0.1)">
       <use xlink:href="#DejaVuSans-32"/>
       <use xlink:href="#DejaVuSans-35" x="63.623047"/>
       <use xlink:href="#DejaVuSans-30" x="127.246094"/>
      </g>
     </g>
    </g>
    <g id="text_7">
     <!-- Time since origin [min] -->
     <g transform="translate(230.445312 211.876563) scale(0.1 -0.1)">
      <defs>
       <path id="DejaVuSans-54" d="M -19 4666 
L 3928 4666 
L 3928 4134 
L 2272 4134 
L 2272 0 
L 1638 0 
L 1638 4134 
L -19 4134 
L -19 4666 
z
" transform="scale(0.015625)"/>
       <path id="DejaVuSans-69" d="M 603 3500 
L 1178 3500 
L 1178 0 
L 603 0 
L 603 3500 
z
M 603 4863 
L 1178 4863 
L 1178 4134 
L 603 4134 
L 603 4863 
z
" transform="scale(0.015625)"/>
       <path id="DejaVuSans-6d" d="M 3328 2828 
Q 3544 3216 3844 3400 
Q 4144 3584 4550 3584 
Q 5097 3584 5394 3201 
Q 5691 2819 5691 2113 
L 5691 0 
L 5113 0 
L 5113 2094 
Q 5113 2597 4934 2840 
Q 4756 3084 4391 3084 
Q 3944 3084 3684 2787 
Q 3425 2491 3425 1978 
L 3425 0 
L 2847 0 
L 2847 2094 
Q 2847 2600 2669 2842 
Q 2491 3084 2119 3084 
Q 1678 3084 1418 2786 
Q 1159 2488 1159 1978 
L 1159 0 
L 581 0 
L 581 3500 
L 1159 3500 
L 1159 2956 
Q 1356 3278 1631 3431 
Q 1906 3584 2284 3584 
Q 2666 3584 2933 3390 
Q 3200 3197 3328 2828 
z
" transform="scale(0.015625)"/>
       <path id="DejaVuSans-65" d="M 3597 1894 
L 3597 1613 
L 953 1613 
Q 991 1019 1311 708 
Q 1631 397 2203 397 
Q 2534 397 2845 478 
Q 3156 559 3463 722 
L 3463 178 
Q 3153 47 2828 -22 
Q 2503 -91 2169 -91 
Q 1331 -91 842 396 
Q 353 884 353 1716 
Q 353 2575 817 3079 
Q 1281 3584 2069 3584 
Q 2775 3584 3186 3129 
Q 3597 2675 3597 1894 
z
M 3022 2063 
Q 3016 2534 2758 2815 
Q 2500 3097 2075 3097 
Q 1594 3097 1305 2825 
Q 1016 2553 972 2059 
L 3022 2063 
z
" transform="scale(0.015625)"/>
       <path id="DejaVuSans-20" transform="scale(0.015625)"/>
       <path id="DejaVuSans-73" d="M 2834 3397 
L 2834 2853 
Q 2591 2978 2328 3040 
Q 2066 3103 1784 3103 
Q 1356 3103 1142 2972 
Q 928 2841 928 2578 
Q 928 2378 1081 2264 
Q 1234 2150 1697 2047 
L 1894 2003 
Q 2506 1872 2764 1633 
Q 3022 1394 3022 966 
Q 3022 478 2636 193 
Q 2250 -91 1575 -91 
Q 1294 -91 989 -36 
Q 684 19 347 128 
L 347 722 
Q 666 556 975 473 
Q 1284 391 1588 391 
Q 1994 391 2212 530 
Q 2431 669 2431 922 
Q 2431 1156 2273 1281 
Q 2116 1406 1581 1522 
L 1381 1569 
Q 847 1681 609 1914 
Q 372 2147 372 2553 
Q 372 3047 722 3315 
Q 1072 3584 1716 3584 
Q 2034 3584 2315 3537 
Q 2597 3491 2834 3397 
z
" transform="scale(0.015625)"/>
       <path id="DejaVuSans-6e" d="M 3513 2113 
L 3513 0 
L 2938 0 
L 2938 2094 
Q 2938 2591 2744 2837 
Q 2550 3084 2163 3084 
Q 1697 3084 1428 2787 
Q 1159 2491 1159 1978 
L 1159 0 
L 581 0 
L 581 3500 
L 1159 3500 
L 1159 2956 
Q 1366 3272 1645 3428 
Q 1925 3584 2291 3584 
Q 2894 3584 3203 3211 
Q 3513 2838 3513 2113 
z
" transform="scale(0.015625)"/>
       <path id="DejaVuSans-63" d="M 3122 3366 
L 3122 2828 
Q 2878 2963 2633 3030 
Q 2388 3097 2138 3097 
Q 1578 3097 1268 2742 
Q 959 2388 959 1747 
Q 959 1106 1268 751 
Q 1578 397 2138 397 
Q 2388 397 2633 464 
Q 2878 531 3122 666 
L 3122 134 
Q 2881 22 2623 -34 
Q 2366 -91 2075 -91 
Q 1284 -91 818 406 
Q 353 903 353 1747 
Q 353 2603 823 3093 
Q 1294 3584 2113 3584 
Q 2378 3584 2631 3529 
Q 2884 3475 3122 3366 
z
" transform="scale(0.015625)"/>
       <path id="DejaVuSans-6f" d="M 1959 3097 
Q 1497 3097 1228 2736 
Q 959 2375 959 1747 
Q 959 1119 1226 758 
Q 1494 397 1959 397 
Q 2419 397 2687 759 
Q 2956 1122 2956 1747 
Q 2956 2369 2687 2733 
Q 2419 3097 1959 3097 
z
M 1959 3584 
Q 2709 3584 3137 3096 
Q 3566 2609 3566 1747 
Q 3566 888 3137 398 
Q 2709 -91 1959 -91 
Q 1206 -91 779 398 
Q 353 888 353 1747 
Q 353 2609 779 3096 
Q 1206 3584 1959 3584 
z
" transform="scale(0.015625)"/>
       <path id="DejaVuSans-72" d="M 2631 2963 
Q 2534 3019 2420 3045 
Q 2306 3072 2169 3072 
Q 1681 3072 1420 2755 
Q 1159 2438 1159 1844 
L 1159 0 
L 581 0 
L 581 3500 
L 1159 3500 
L 1159 2956 
Q 1341 3275 1631 3429 
Q 1922 3584 2338 3584 
Q 2397 3584 2469 3576 
Q 2541 3569 2628 3553 
L 2631 2963 
z
" transform="scale(0.015625)"/>
       <path id="DejaVuSans-67" d="M 2906 1791 
Q 2906 2416 2648 2759 
Q 2391 3103 1925 3103 
Q 1463 3103 1205 2759 
Q 947 2416 947 1791 
Q 947 1169 1205 825 
Q 1463 481 1925 481 
Q 2391 481 2648 825 
Q 2906 1169 2906 1791 
z
M 3481 434 
Q 3481 -459 3084 -895 
Q 2688 -1331 1869 -1331 
Q 1566 -1331 1297 -1286 
Q 1028 -1241 775 -1147 
L 775 -588 
Q 1028 -725 1275 -790 
Q 1522 -856 1778 -856 
Q 2344 -856 2625 -561 
Q 2906 -266 2906 331 
L 2906 616 
Q 2728 306 2450 153 
Q 2172 0 1784 0 
Q 1141 0 747 490 
Q 353 981 353 1791 
Q 353 2603 747 3093 
Q 1141 3584 1784 3584 
Q 2172 3584 2450 3431 
Q 2728 3278 2906 2969 
L 2906 3500 
L 3481 3500 
L 3481 434 
z
" transform="scale(0.015625)"/>
       <path id="DejaVuSans-5b" d="M 550 4863 
L 1875 4863 
L 1875 4416 
L 1125 4416 
L 1125 -397 
L 1875 -397 
L 1875 -844 
L 550 -844 
L 550 4863 
z
" transform="scale(0.015625)"/>
       <path id="DejaVuSans-5d" d="M 1947 4863 
L 1947 -844 
L 622 -844 
L 622 -397 
L 1369 -397 
L 1369 4416 
L 622 4416 
L 622 4863 
L 1947 4863 
z
" transform="scale(0.015625)"/>
      </defs>
      <use xlink:href="#DejaVuSans-54"/>
      <use xlink:href="#DejaVuSans-69" x="57.958984"/>
      <use xlink:href="#DejaVuSans-6d" x="85.742188"/>
      <use xlink:href="#DejaVuSans-65" x="183.154297"/>
      <use xlink:href="#DejaVuSans-20" x="244.677734"/>
      <use xlink:href="#DejaVuSans-73" x="276.464844"/>
      <use xlink:href="#DejaVuSans-69" x="328.564453"/>
      <use xlink:href="#DejaVuSans-6e" x="356.347656"/>
      <use xlink:href="#DejaVuSans-63" x="419.726562"/>
      <use xlink:href="#DejaVuSans-65" x="474.707031"/>
      <use xlink:href="#DejaVuSans-20" x="536.230469"/>
      <use xlink:href="#DejaVuSans-6f" x="568.017578"/>
      <use xlink:href="#DejaVuSans-72" x="629.199219"/>
      <use xlink:href="#DejaVuSans-69" x="670.3125"/>
      <use xlink:href="#DejaVuSans-67" x="698.095703"/>
      <use xlink:href="#DejaVuSans-69" x="761.572266"/>
      <use xlink:href="#DejaVuSans-6e" x="789.355469"/>
      <use xlink:href="#DejaVuSans-20" x="852.734375"/>
      <use xlink:href="#DejaVuSans-5b" x="884.521484"/>
      <use xlink:href="#DejaVuSans-6d" x="923.535156"/>
      <use xlink:href="#DejaVuSans-69" x="1020.947266"/>
      <use xlink:href="#DejaVuSans-6e" x="1048.730469"/>
      <use xlink:href="#DejaVuSans-5d" x="1112.109375"/>
     </g>
    </g>
   </g>
   <g id="matplotlib.axis_2">
    <g id="ytick_1"/>
    <g id="ytick_2"/>
    <g id="ytick_3"/>
   </g>
   <g id="line2d_7">
    <path d="M 52.363636 121.5 
L 86.89452 121.608497 
L 88.434114 121.647803 
L 88.748317 121.479785 
L 89.15678 120.954075 
L 89.690925 120.290113 
L 89.848026 120.540445 
L 90.696374 122.525608 
L 90.916316 122.368019 
L 91.827504 121.466783 
L 92.58159 121.524808 
L 93.524199 121.304216 
L 94.152604 121.325034 
L 94.561068 121.262063 
L 95.000952 121.433933 
L 96.100661 121.81733 
L 96.509125 121.807327 
L 97.263211 122.085463 
L 97.514574 121.652024 
L 97.797356 120.746087 
L 98.23724 118.986547 
L 98.362921 119.158297 
L 98.614283 120.038846 
L 99.305529 122.907317 
L 99.462631 122.949447 
L 99.713993 122.47342 
L 99.996776 122.172751 
L 100.216717 122.2358 
L 100.562341 122.375672 
L 100.970804 122.005626 
L 101.442108 121.660506 
L 102.133354 121.781967 
L 102.321876 121.209746 
L 102.918861 119.021583 
L 103.044542 118.968253 
L 103.075963 118.99923 
L 103.264484 119.482357 
L 104.207093 122.376265 
L 105.08686 122.706406 
L 105.558164 122.437754 
L 106.563613 121.031047 
L 107.34912 121.028179 
L 107.757584 120.838615 
L 108.134627 121.216033 
L 108.857294 122.018041 
L 109.202917 122.089364 
L 109.517119 121.938594 
L 109.737061 121.900338 
L 109.957003 121.874914 
L 110.145525 121.468188 
L 110.836771 119.622282 
L 110.962452 119.684326 
L 111.150974 120.167583 
L 111.84222 122.341648 
L 112.093582 122.491867 
L 112.407785 122.347846 
L 112.659147 122.338219 
L 112.879089 122.648094 
L 113.287553 123.287484 
L 113.507494 123.21395 
L 113.821697 122.784735 
L 114.261581 121.976538 
L 114.638624 119.779333 
L 114.984247 118.340493 
L 115.078508 118.405595 
L 115.26703 119.168978 
L 115.738334 121.020089 
L 115.864015 121.206091 
L 115.895435 121.176782 
L 116.021117 120.711947 
L 116.523841 117.923012 
L 116.555261 117.930676 
L 116.680942 118.270523 
L 117.089406 120.614007 
L 117.372188 123.042052 
L 117.812072 127.401277 
L 117.874913 127.354485 
L 118.032014 126.660595 
L 119.006043 121.420475 
L 119.445927 120.671991 
L 119.728709 119.824064 
L 119.85439 120.084355 
L 120.388535 122.175352 
L 120.482796 122.087042 
L 120.734158 121.796869 
L 120.98552 121.847662 
L 121.142622 121.424079 
L 122.08523 118.128976 
L 122.305172 117.837233 
L 122.430853 117.9544 
L 122.619375 118.64364 
L 123.2792 122.678643 
L 123.844765 125.920063 
L 124.096128 126.259191 
L 124.31607 126.245883 
L 124.504591 125.929672 
L 124.755953 124.96733 
L 125.007316 122.970829 
L 126.169866 111.250775 
L 126.201286 111.272386 
L 126.326967 111.68969 
L 126.515489 113.526008 
L 126.798271 119.295704 
L 127.489517 134.512416 
L 127.678039 135.222806 
L 127.7723 134.943594 
L 127.929401 133.27076 
L 128.212184 126.690372 
L 128.620647 118.456703 
L 128.96627 115.641415 
L 129.217633 114.725204 
L 129.311894 114.952431 
L 129.500415 116.397915 
L 130.03456 120.926866 
L 130.128821 121.012177 
L 130.160241 120.994368 
L 130.443023 120.538341 
L 130.788647 119.996327 
L 130.820067 120.028098 
L 130.977168 120.505474 
L 131.542733 122.778079 
L 131.574153 122.770788 
L 131.699835 122.490535 
L 132.29682 120.517104 
L 132.893805 119.232343 
L 132.988066 119.380341 
L 133.145167 120.242124 
L 133.45937 123.518445 
L 133.962094 128.44498 
L 134.056355 128.605766 
L 134.087776 128.57642 
L 134.213457 128.030015 
L 134.496239 125.14642 
L 135.250326 118.110282 
L 135.533108 116.89326 
L 135.627369 116.864835 
L 135.658789 116.90191 
L 135.815891 117.36874 
L 136.538557 120.712501 
L 136.789919 121.609876 
L 136.947021 121.594309 
L 137.104122 121.616257 
L 137.292644 121.936611 
L 137.512586 122.20695 
L 137.638267 121.966756 
L 137.95247 121.346189 
L 138.078151 121.524055 
L 138.895078 123.708913 
L 139.11502 124.308652 
L 139.209281 124.142258 
L 139.429223 122.985027 
L 140.24615 117.478825 
L 140.30899 117.577646 
L 140.466092 118.46509 
L 140.780294 122.07156 
L 141.125917 125.268785 
L 141.37728 125.974012 
L 141.471541 125.887698 
L 141.628642 125.056459 
L 142.759772 115.433891 
L 142.854033 115.831582 
L 143.073975 118.615289 
L 143.419598 122.060505 
L 143.67096 122.637434 
L 143.953742 123.238006 
L 144.110844 123.406866 
L 144.205105 123.205128 
L 144.425047 121.91181 
L 144.80209 119.909981 
L 144.896351 119.829765 
L 144.927771 119.853589 
L 145.053452 120.194652 
L 145.241974 121.511076 
L 145.713278 125.584735 
L 145.744698 125.558111 
L 145.838959 125.113776 
L 146.058901 122.330677 
L 146.498785 116.678722 
L 146.561625 116.804229 
L 146.718727 118.267089 
L 147.221451 123.603498 
L 147.378553 124.016359 
L 147.409973 123.994189 
L 147.535654 123.581675 
L 147.849857 122.19315 
L 147.881277 122.217294 
L 148.006958 122.774042 
L 148.478262 126.382563 
L 148.541103 126.246405 
L 148.666784 125.122923 
L 149.263769 117.947338 
L 149.452291 117.82981 
L 149.577972 118.040642 
L 149.766494 118.974489 
L 150.206377 121.216724 
L 150.363479 121.281168 
L 150.646261 121.087119 
L 150.677682 121.133871 
L 150.866203 121.753642 
L 151.054725 122.193313 
L 151.086145 122.178273 
L 151.243247 121.805035 
L 151.463188 121.43675 
L 151.58887 121.715241 
L 151.840232 122.41601 
L 151.871652 122.375774 
L 151.997333 121.805103 
L 152.280116 120.504436 
L 152.405797 120.883514 
L 152.625739 121.563547 
L 152.657159 121.538191 
L 152.81426 121.027461 
L 152.971362 120.670678 
L 153.002782 120.691129 
L 153.128463 121.053538 
L 153.411246 121.856826 
L 153.505506 121.661935 
L 154.039651 119.772984 
L 154.071071 119.784558 
L 154.196753 119.950866 
L 154.353854 120.600704 
L 154.636636 121.864554 
L 154.668057 121.834406 
L 154.793738 121.267118 
L 155.170781 119.01196 
L 155.202201 119.020368 
L 155.296462 119.294232 
L 155.484984 120.77561 
L 156.23907 127.573927 
L 156.301911 127.500957 
L 156.427592 126.823623 
L 156.647534 124.097312 
L 157.055998 118.92582 
L 157.150259 118.757941 
L 157.181679 118.810859 
L 157.30736 119.545565 
L 157.621563 123.598344 
L 157.998606 127.15015 
L 158.030026 127.180507 
L 158.061447 127.135433 
L 158.155707 126.49259 
L 158.375649 122.511646 
L 158.689852 118.157685 
L 158.721272 118.123509 
L 158.752693 118.162461 
L 158.878374 118.905994 
L 159.098316 120.352418 
L 159.129736 120.25492 
L 159.223997 119.049041 
L 159.381098 113.4153 
L 159.915243 84.239393 
L 160.009504 85.669249 
L 160.166605 96.277054 
L 160.512228 143.03729 
L 160.826431 174.152623 
L 160.889271 175.5 
L 160.952112 174.991176 
L 161.077793 169.154019 
L 161.643358 134.980341 
L 161.737619 134.637401 
L 161.769039 134.697484 
L 161.89472 134.947021 
L 161.926141 134.866147 
L 162.020401 133.907588 
L 162.177503 129.076951 
L 162.428865 112.374958 
L 162.900169 82.102608 
L 163.088691 79.909792 
L 163.151531 79.943037 
L 163.308633 80.614495 
L 163.497154 82.369022 
L 163.685676 86.656728 
L 163.968459 99.805211 
L 164.471183 122.507131 
L 165.193849 143.884514 
L 165.539472 154.584127 
L 165.727994 155.418784 
L 165.947936 155.642955 
L 165.979356 155.575871 
L 166.073617 154.856475 
L 166.230718 151.146848 
L 166.764863 134.97753 
L 166.953385 135.569264 
L 166.984805 135.433629 
L 167.079066 133.926764 
L 167.267588 125.058587 
L 167.676051 105.244384 
L 167.707471 105.196494 
L 167.738892 105.34194 
L 167.958834 107.537076 
L 168.021674 107.01787 
L 168.178776 101.770374 
L 168.461558 91.701772 
L 168.492978 91.78848 
L 168.587239 93.799266 
L 168.964282 104.753021 
L 168.995703 104.586231 
L 169.184224 102.624406 
L 169.247065 102.924583 
L 169.372746 106.497703 
L 169.686949 118.145049 
L 169.718369 118.027439 
L 169.84405 115.394156 
L 170.001152 112.946483 
L 170.032572 113.262692 
L 170.158253 117.67356 
L 170.503876 130.840869 
L 170.598137 129.692633 
L 170.786659 127.139669 
L 170.818079 127.335578 
L 170.94376 130.398693 
L 171.195122 136.96429 
L 171.226542 136.741608 
L 171.352223 133.209783 
L 171.635006 125.411313 
L 171.729267 126.812702 
L 171.980629 132.257973 
L 172.04347 132.036326 
L 172.200571 128.812184 
L 172.357672 126.508754 
L 172.389093 126.605959 
L 172.514774 128.757329 
L 172.703295 132.135826 
L 172.734716 132.083687 
L 172.828976 130.499286 
L 173.20602 120.606771 
L 173.23744 120.721485 
L 173.457382 122.553699 
L 173.520223 122.290295 
L 173.708744 119.195465 
L 173.834425 117.864817 
L 173.865846 117.872815 
L 173.960106 118.65445 
L 174.180048 120.839733 
L 174.211469 120.748163 
L 174.33715 119.267818 
L 174.619932 116.343764 
L 174.839874 116.279482 
L 174.996976 115.988349 
L 175.028396 116.059466 
L 175.154077 116.998346 
L 175.342599 118.365881 
L 175.374019 118.321146 
L 175.593961 117.166698 
L 175.656801 117.497894 
L 175.971004 121.937119 
L 176.033845 121.366901 
L 176.285207 117.174188 
L 176.348047 117.795321 
L 176.63083 124.817868 
L 176.69367 124.223315 
L 176.976453 116.818464 
L 177.039294 117.627565 
L 177.322076 125.71601 
L 177.384917 124.91821 
L 177.636279 118.152842 
L 177.699119 118.646512 
L 177.950482 124.404819 
L 178.013322 123.841197 
L 178.264684 118.261024 
L 178.327525 118.887659 
L 178.578887 124.65868 
L 178.641728 124.208746 
L 178.86167 120.529727 
L 178.89309 120.753293 
L 179.050191 125.117467 
L 179.175872 127.55951 
L 179.207293 127.407953 
L 179.332974 124.06906 
L 179.490075 120.065266 
L 179.521495 120.067766 
L 179.615756 121.774262 
L 179.804278 126.072297 
L 179.835698 126.063662 
L 179.929959 124.67151 
L 180.118481 121.868398 
L 180.149901 122.041601 
L 180.369843 124.622738 
L 180.432683 124.070598 
L 180.652625 120.463634 
L 180.715466 120.927948 
L 180.935408 124.404048 
L 180.966828 124.152583 
L 181.123929 119.498233 
L 181.249611 116.606409 
L 181.281031 116.615357 
L 181.375292 118.281926 
L 181.532393 121.352869 
L 181.563813 121.242632 
L 181.689494 118.272329 
L 181.815176 115.509416 
L 181.878016 115.866903 
L 182.129378 122.123327 
L 182.223639 120.941762 
L 182.412161 117.191814 
L 182.443581 117.417994 
L 182.600682 122.03938 
L 182.726364 124.510961 
L 182.757784 124.399581 
L 182.977726 120.621581 
L 183.071987 121.452446 
L 183.291929 125.86026 
L 183.354769 125.636684 
L 183.543291 123.896834 
L 183.574711 124.070063 
L 183.794653 126.998274 
L 183.857494 126.515672 
L 184.140276 120.653908 
L 184.203117 121.113983 
L 184.360218 123.059767 
L 184.423059 122.78022 
L 184.737261 117.294733 
L 184.831522 118.025532 
L 184.957203 118.918535 
L 184.988623 118.876539 
L 185.208565 117.599978 
L 185.271406 117.999927 
L 185.522768 120.613555 
L 185.554188 120.493235 
L 185.74271 118.965298 
L 185.805551 119.132422 
L 185.994072 121.930865 
L 186.151174 123.028886 
L 186.182594 122.980747 
L 186.339695 122.672562 
L 186.371116 122.715823 
L 186.528217 122.994949 
L 186.559637 122.90894 
L 186.685318 121.80941 
L 186.87384 120.151812 
L 186.90526 120.154476 
L 187.030941 120.836692 
L 187.188043 121.508111 
L 187.219463 121.485484 
L 187.407985 121.183236 
L 187.439405 121.245279 
L 187.97355 123.27192 
L 188.224912 125.393311 
L 188.256332 125.305535 
L 188.413434 123.67062 
L 188.601955 122.273581 
L 188.633376 122.307145 
L 188.790477 122.760272 
L 188.853317 122.642114 
L 189.010419 121.213839 
L 189.198941 120.030619 
L 189.293201 120.423584 
L 189.481723 121.28336 
L 189.513143 121.252236 
L 189.795926 120.427371 
L 189.890187 120.523478 
L 189.984447 120.509399 
L 190.172969 120.186131 
L 190.204389 120.248512 
L 190.33007 121.131549 
L 190.581433 122.87183 
L 190.675694 122.704754 
L 191.021317 121.546937 
L 191.36694 119.13318 
L 191.555461 119.282724 
L 191.586882 119.23998 
L 191.869664 118.682955 
L 191.932505 118.738851 
L 192.058186 119.169744 
L 192.246707 120.867396 
L 192.435229 122.244008 
L 192.466649 122.205659 
L 192.686591 120.993344 
L 192.749432 121.223817 
L 193.063635 124.888981 
L 193.157895 124.426284 
L 193.314997 123.697871 
L 193.346417 123.778282 
L 193.534939 124.625157 
L 193.566359 124.554259 
L 193.72346 123.167377 
L 193.849141 122.541047 
L 193.880562 122.603885 
L 194.069083 123.375693 
L 194.131924 123.21775 
L 194.414706 121.658742 
L 194.477547 121.760212 
L 194.79175 122.646702 
L 194.82317 122.627475 
L 194.917431 122.32043 
L 195.105953 120.550934 
L 195.325894 119.123355 
L 195.420155 119.259179 
L 195.545836 119.405602 
L 195.577257 119.376871 
L 195.734358 119.185979 
L 195.765778 119.22815 
L 195.891459 119.833735 
L 196.237082 121.581815 
L 196.425604 121.726114 
L 196.551285 121.419082 
L 196.771227 120.594994 
L 196.834068 120.669119 
L 197.08543 121.622233 
L 197.14827 121.451597 
L 197.462473 119.6217 
L 197.525314 119.715731 
L 197.650995 119.92009 
L 197.682415 119.895299 
L 197.839517 119.57937 
L 197.870937 119.619252 
L 197.965198 120.226296 
L 198.18514 122.332275 
L 198.24798 122.149161 
L 198.467922 120.238081 
L 198.530763 120.428999 
L 198.719284 123.103117 
L 198.876386 124.32709 
L 198.907806 124.281803 
L 199.096328 123.126079 
L 199.222009 122.769073 
L 199.253429 122.801107 
L 199.41053 123.406974 
L 199.630472 123.975262 
L 199.724733 123.78494 
L 199.913255 122.60601 
L 200.101776 121.523179 
L 200.133197 121.529477 
L 200.227458 121.905846 
L 200.384559 122.617148 
L 200.415979 122.57552 
L 200.54166 121.635797 
L 200.698762 120.456691 
L 200.730182 120.468462 
L 200.855863 121.271782 
L 200.981544 121.962068 
L 201.012965 121.948553 
L 201.232906 121.153283 
L 201.295747 121.430613 
L 201.547109 123.356988 
L 201.60995 123.265789 
L 201.735631 122.912696 
L 201.767051 122.933276 
L 201.892732 123.611588 
L 202.018413 124.20523 
L 202.049834 124.15037 
L 202.175515 122.990003 
L 202.521138 119.684332 
L 202.7725 118.440251 
L 203.149543 116.070021 
L 203.180964 116.089329 
L 203.400906 116.526132 
L 203.463746 116.453857 
L 203.589427 116.281651 
L 203.620847 116.32316 
L 203.715108 116.815669 
L 204.532035 123.322439 
L 204.814818 124.152727 
L 204.940499 124.055049 
L 205.06618 124.013814 
L 205.191861 124.488778 
L 205.726006 127.307538 
L 205.820267 127.10951 
L 206.103049 125.270695 
L 206.919976 120.402763 
L 207.391281 115.58112 
L 207.642643 114.855141 
L 207.768324 114.816696 
L 207.799744 114.853137 
L 207.925425 115.326854 
L 208.176788 117.824516 
L 209.056555 126.648966 
L 209.465019 127.329802 
L 209.527859 127.2101 
L 209.684961 125.815324 
L 209.936323 124.166265 
L 210.093424 124.030889 
L 210.219106 123.219664 
L 210.564729 120.469459 
L 210.596149 120.490047 
L 210.78467 120.831149 
L 210.816091 120.762838 
L 210.941772 119.818466 
L 211.161714 118.053901 
L 211.193134 118.119962 
L 211.444496 119.727226 
L 211.507337 119.459125 
L 211.790119 117.169823 
L 211.82154 117.258586 
L 212.041482 118.253867 
L 212.104322 118.172429 
L 212.230003 117.92024 
L 212.261423 117.944811 
L 212.387105 118.513853 
L 212.638467 119.420405 
L 212.764148 119.536433 
L 212.921249 120.37236 
L 213.298293 122.584581 
L 213.392553 122.571896 
L 213.549655 122.340754 
L 213.581075 122.362341 
L 213.675336 122.722186 
L 214.0838 124.908846 
L 214.209481 125.047927 
L 214.460843 125.665842 
L 214.492263 125.617332 
L 214.775046 124.8786 
L 214.837886 124.958978 
L 214.932147 125.069857 
L 214.963567 125.049849 
L 215.057828 124.691961 
L 215.874755 118.825364 
L 215.937596 118.94401 
L 216.220378 120.896814 
L 216.314639 120.7155 
L 216.471741 120.291682 
L 216.503161 120.34214 
L 216.660262 121.236172 
L 216.817364 121.874941 
L 216.848784 121.858657 
L 216.974465 121.432332 
L 217.194407 120.896829 
L 217.414349 121.048558 
L 217.445769 121.004521 
L 217.728552 120.479061 
L 217.791392 120.540992 
L 218.011334 120.735888 
L 218.199856 120.366535 
L 218.388377 120.186737 
L 218.545479 120.180651 
L 218.67116 119.821645 
L 218.953942 118.889785 
L 219.205305 119.256647 
L 219.299565 119.128998 
L 219.393826 119.085088 
L 219.488087 119.456482 
L 220.336435 125.922363 
L 220.399275 125.771511 
L 221.310463 121.02417 
L 221.404724 121.082381 
L 221.561825 121.070281 
L 222.09597 120.273929 
L 222.12739 120.302249 
L 222.284492 120.706288 
L 222.755796 122.771015 
L 223.007158 124.058008 
L 223.101419 123.892242 
L 223.635564 122.01512 
L 223.918346 120.69483 
L 224.044027 120.795579 
L 224.138288 120.854891 
L 224.169708 120.826047 
L 224.32681 120.338394 
L 224.483911 120.060191 
L 224.735273 120.46873 
L 224.798114 120.340585 
L 225.5522 117.64822 
L 225.615041 117.735286 
L 225.740722 118.495092 
L 226.557649 125.342512 
L 226.68333 125.351262 
L 226.840432 125.114779 
L 226.997533 124.409972 
L 227.343156 122.748341 
L 227.500258 122.566631 
L 227.877301 121.233026 
L 227.971562 121.336927 
L 228.065823 121.334134 
L 228.191504 120.932553 
L 228.442866 120.128368 
L 228.537127 120.355343 
L 228.819909 121.327208 
L 228.851329 121.281444 
L 229.039851 120.462198 
L 229.322634 119.601093 
L 229.448315 119.656337 
L 229.919619 120.426146 
L 230.01388 120.665128 
L 230.422343 122.591969 
L 230.485184 122.559972 
L 230.736546 122.509256 
L 230.893647 122.402866 
L 231.741995 121.123229 
L 231.804835 121.242009 
L 232.087618 121.869409 
L 232.119038 121.855931 
L 232.464661 121.527505 
L 232.496082 121.582093 
L 232.716023 122.403736 
L 232.873125 122.72461 
L 232.904545 122.714991 
L 233.093067 122.635214 
L 233.218748 122.994512 
L 233.43869 123.662425 
L 233.47011 123.632108 
L 233.595791 123.088329 
L 234.444139 117.769408 
L 234.506979 117.751084 
L 234.5384 117.790497 
L 234.821182 118.589612 
L 235.072544 119.697965 
L 235.920892 124.251056 
L 236.077993 124.325695 
L 236.486457 123.770095 
L 236.643558 123.334608 
L 237.146282 121.269943 
L 237.177703 121.285893 
L 237.334804 121.251144 
L 237.523326 120.599279 
L 237.711847 120.257487 
L 237.931789 120.224095 
L 238.245992 119.759346 
L 238.277412 119.790655 
L 239.000079 121.05404 
L 239.282861 121.694733 
L 239.597064 121.696822 
L 239.817006 122.534038 
L 240.036948 123.005104 
L 240.194049 122.72612 
L 240.822455 121.409782 
L 240.853875 121.438358 
L 241.073817 121.596118 
L 241.293759 121.397094 
L 241.325179 121.431682 
L 241.513701 121.988356 
L 241.859324 122.883979 
L 241.985005 122.842445 
L 242.142106 122.362616 
L 242.613411 120.75216 
L 242.990454 120.446894 
L 243.021874 120.500322 
L 243.461758 121.281614 
L 243.618859 121.074712 
L 244.027323 120.407733 
L 244.184424 120.522881 
L 244.530047 121.066046 
L 244.592888 121.016915 
L 244.749989 120.964435 
L 244.907091 121.345102 
L 245.252714 122.069246 
L 245.504076 122.393206 
L 245.786859 122.349984 
L 245.94396 122.434721 
L 245.97538 122.401296 
L 246.132482 121.921874 
L 246.540945 120.678371 
L 246.729467 120.588044 
L 246.886568 120.90857 
L 247.514974 122.72716 
L 247.546394 122.716823 
L 247.986278 122.515723 
L 248.143379 122.508183 
L 248.331901 122.104919 
L 248.740365 120.937324 
L 248.771785 120.953492 
L 248.991727 121.192839 
L 249.023147 121.155238 
L 249.180248 120.608434 
L 249.36877 120.192084 
L 249.525871 120.533383 
L 249.651553 120.693998 
L 249.682973 120.66697 
L 249.965755 120.068665 
L 250.028596 120.180226 
L 250.782682 122.3117 
L 250.908364 122.241843 
L 251.034045 122.203194 
L 251.285407 122.559134 
L 251.316827 122.510619 
L 251.882392 120.767368 
L 252.196595 119.720126 
L 252.322276 119.842569 
L 252.542218 120.384035 
L 252.76216 121.812999 
L 253.107783 123.828434 
L 253.390565 124.13739 
L 253.516247 124.059996 
L 253.673348 123.44407 
L 254.364594 119.875345 
L 254.458855 119.902457 
L 254.647376 120.441599 
L 254.898739 120.945664 
L 255.495724 121.174962 
L 255.935608 121.182302 
L 256.312651 121.382497 
L 256.532593 121.341869 
L 256.752535 121.807844 
L 257.003897 122.120023 
L 257.223839 122.408935 
L 257.538042 122.797492 
L 257.695143 122.571417 
L 258.700592 120.473385 
L 258.920534 120.624684 
L 259.140476 120.664875 
L 259.454679 120.648251 
L 259.768882 121.058141 
L 260.460128 122.098914 
L 260.522968 122.033899 
L 260.77433 121.845358 
L 260.931432 121.78165 
L 261.119953 121.224106 
L 261.308475 120.822971 
L 261.339895 120.845023 
L 261.465576 121.185435 
L 261.936881 122.673471 
L 262.093982 122.695947 
L 262.345344 122.608188 
L 262.816648 122.990675 
L 263.099431 122.674106 
L 263.350793 121.956581 
L 263.633576 120.365392 
L 263.916358 119.114615 
L 264.293401 118.331352 
L 264.450503 118.118913 
L 264.481923 118.149116 
L 264.639024 118.645762 
L 265.26743 120.988089 
L 265.927256 123.350709 
L 266.492821 124.510889 
L 266.555661 124.452697 
L 266.869864 123.749815 
L 267.341168 122.075652 
L 267.655371 121.033423 
L 267.686791 121.06231 
L 267.938153 121.519806 
L 268.000994 121.45351 
L 268.817921 119.632048 
L 269.163544 118.811806 
L 269.289225 118.965791 
L 269.697689 120.310184 
L 270.577457 123.278562 
L 270.703138 123.252521 
L 271.174442 122.731048 
L 271.582906 122.860102 
L 271.959949 122.545499 
L 272.305572 121.399775 
L 272.745456 120.527708 
L 273.091079 120.123563 
L 273.21676 120.187819 
L 273.405282 120.652617 
L 273.625223 121.004763 
L 273.782325 120.738081 
L 274.002267 120.463078 
L 274.285049 120.565322 
L 274.504991 120.845649 
L 275.290498 122.274566 
L 275.321918 122.257498 
L 275.51044 121.947381 
L 276.390208 120.215693 
L 276.61015 120.134804 
L 276.735831 120.372873 
L 277.615599 122.825795 
L 278.055482 123.123965 
L 278.432526 123.28244 
L 278.621047 123.062904 
L 279.312294 121.721712 
L 280.00354 119.67418 
L 280.223482 119.504383 
L 280.349163 119.801365 
L 280.694786 120.7022 
L 280.883307 121.038628 
L 282.108698 124.509081 
L 282.29722 124.592828 
L 282.485741 124.273071 
L 282.768524 123.309564 
L 283.019886 121.553143 
L 283.679712 116.449199 
L 283.836813 116.335879 
L 284.088176 116.539888 
L 284.339538 117.011316 
L 284.62232 118.110362 
L 285.030784 120.858024 
L 285.564929 124.197192 
L 285.847711 124.987658 
L 286.193334 125.305252 
L 286.319015 125.149795 
L 286.507537 124.350038 
L 286.88458 122.692561 
L 287.387305 121.891846 
L 287.98429 122.269903 
L 288.329913 122.343883 
L 288.518435 121.922223 
L 288.989739 120.166129 
L 289.366782 118.796067 
L 289.523883 118.789062 
L 289.743825 119.040471 
L 289.995188 119.690844 
L 291.157738 123.483134 
L 291.37768 123.588274 
L 291.660462 123.46861 
L 291.817564 123.036976 
L 292.100346 121.450257 
L 292.414549 119.933906 
L 292.54023 119.999148 
L 292.823012 120.610265 
L 293.200056 121.492766 
L 293.577099 121.449539 
L 294.016983 121.483517 
L 294.268345 121.574545 
L 294.456867 122.151829 
L 294.77107 122.974439 
L 295.022432 123.094804 
L 295.148113 122.773949 
L 295.430895 120.923172 
L 295.93362 118.003083 
L 296.279243 117.231747 
L 296.436344 117.198895 
L 296.562025 117.414798 
L 296.750547 118.33882 
L 297.284692 122.590247 
L 297.850257 127.755054 
L 298.101619 128.50634 
L 298.19588 128.383372 
L 298.352981 127.628947 
L 299.35843 119.979317 
L 299.986835 112.35566 
L 300.206777 111.553437 
L 300.301038 111.611804 
L 300.426719 112.044095 
L 300.615241 113.727448 
L 302.154835 132.225987 
L 302.500458 134.64908 
L 302.594718 134.733787 
L 302.626139 134.683398 
L 302.75182 134.077219 
L 303.003182 131.235059 
L 304.825558 106.763472 
L 305.07692 105.776799 
L 305.171181 105.839925 
L 305.328282 106.418611 
L 305.579645 108.506593 
L 305.988108 114.281672 
L 306.647934 126.732189 
L 307.087818 132.946637 
L 307.559122 136.74717 
L 307.621963 136.84708 
L 307.653383 136.825693 
L 307.779064 136.335221 
L 308.47031 131.587202 
L 308.910194 125.317669 
L 309.318658 120.845766 
L 310.167005 112.972543 
L 310.481208 112.564976 
L 310.70115 112.286998 
L 310.858251 112.515994 
L 311.518077 114.113998 
L 311.769439 115.70447 
L 312.96341 124.978991 
L 313.277612 126.185128 
L 313.906018 127.464773 
L 313.968859 127.385183 
L 314.1888 126.698934 
L 314.503003 125.96658 
L 314.785786 125.337184 
L 315.162829 124.652856 
L 315.477032 124.217237 
L 315.822655 123.147427 
L 316.45106 120.74895 
L 316.796683 118.961994 
L 317.55077 116.82446 
L 317.645031 116.917849 
L 317.990654 117.523187 
L 318.022074 117.506441 
L 318.210596 117.463985 
L 318.336277 117.774375 
L 318.870422 119.554473 
L 319.090364 120.129539 
L 319.373146 120.711422 
L 319.561668 121.094871 
L 320.755638 125.71965 
L 320.94416 126.164203 
L 320.97558 126.143534 
L 321.101261 125.786525 
L 321.384044 125.035908 
L 321.541145 124.96166 
L 321.666826 124.493387 
L 322.200971 121.774744 
L 322.326652 121.588217 
L 322.515174 120.68736 
L 322.892217 119.082471 
L 323.426362 118.122121 
L 323.552043 118.19584 
L 323.771985 118.895634 
L 324.33755 121.180053 
L 324.620332 122.279023 
L 324.840274 122.738888 
L 325.185897 123.858767 
L 325.217318 123.834231 
L 325.374419 123.358238 
L 325.688622 122.515377 
L 325.877143 122.282156 
L 326.379868 121.248563 
L 326.59981 121.246558 
L 326.788331 120.91797 
L 327.102534 120.427808 
L 327.479577 120.49395 
L 327.73094 120.290497 
L 327.888041 120.613585 
L 328.516447 122.277403 
L 328.767809 122.638208 
L 328.95633 122.508469 
L 329.301953 122.341051 
L 329.584736 122.157249 
L 329.930359 121.929889 
L 330.244562 122.066008 
L 330.433083 122.030844 
L 331.030069 121.53081 
L 331.250011 121.344128 
L 331.595634 121.146846 
L 331.846996 121.125765 
L 332.098358 121.254887 
L 332.255459 120.811078 
L 332.601082 119.878898 
L 332.946706 119.286496 
L 333.135227 119.156002 
L 333.260908 119.357503 
L 333.606531 120.652317 
L 334.517719 123.831027 
L 334.6434 123.90854 
L 335.114705 123.524307 
L 335.240386 123.424465 
L 335.523168 122.634148 
L 336.371516 120.522426 
L 336.654298 120.374642 
L 336.84282 120.5345 
L 337.062762 121.01275 
L 337.439805 121.884054 
L 337.754008 122.195114 
L 337.97395 122.333301 
L 338.162471 122.032176 
L 339.199341 120.28361 
L 339.513543 120.060203 
L 339.733485 120.2793 
L 340.393311 121.337498 
L 340.738934 121.880468 
L 341.838644 121.9731 
L 342.090006 121.727744 
L 342.56131 121.91712 
L 343.221136 121.260196 
L 343.566759 120.810239 
L 343.755281 120.92742 
L 344.006643 121.375215 
L 344.603628 122.716924 
L 344.980671 123.178155 
L 345.137773 123.049316 
L 345.451976 122.367652 
L 346.111801 120.856264 
L 346.677366 119.922029 
L 346.960149 119.610038 
L 347.368612 119.557842 
L 347.588554 120.111622 
L 348.059859 121.115986 
L 348.688264 122.152931 
L 349.065307 122.945368 
L 349.285249 123.136103 
L 349.505191 123.204915 
L 349.850814 123.455927 
L 350.070756 123.22531 
L 350.384959 122.507909 
L 351.264727 120.42998 
L 351.453248 120.30453 
L 351.767451 119.996798 
L 351.955973 120.168591 
L 352.333016 120.585975 
L 352.552958 120.717908 
L 353.338465 121.587078 
L 353.621247 121.848669 
L 353.87261 122.047592 
L 354.815218 121.866911 
L 355.317942 122.50084 
L 355.632145 122.787116 
L 355.820667 122.6454 
L 356.103449 122.115037 
L 356.794695 120.594197 
L 357.29742 120.110069 
L 358.051506 120.433301 
L 358.679912 121.760868 
L 358.994115 122.624314 
L 359.433999 123.203175 
L 359.465419 123.182549 
L 359.653941 122.834343 
L 360.596549 120.885596 
L 360.816491 120.761052 
L 361.319215 120.912164 
L 361.790519 121.438367 
L 361.947621 121.50592 
L 362.450345 122.011417 
L 363.707156 121.393289 
L 364.0842 121.213496 
L 364.744025 120.836271 
L 365.058228 120.850926 
L 365.435271 121.181814 
L 365.843735 121.080411 
L 366.252199 121.187478 
L 367.414749 123.220043 
L 367.603271 123.25058 
L 367.823212 122.912873 
L 368.200256 121.979483 
L 368.608719 120.910027 
L 369.048603 120.694301 
L 369.519907 120.7067 
L 370.022632 120.375888 
L 370.305414 120.388501 
L 370.493936 120.583955 
L 370.745298 121.288998 
L 371.090921 122.050497 
L 371.436544 122.271419 
L 371.625066 122.047083 
L 372.316312 121.077575 
L 372.630515 121.2137 
L 372.850457 121.666253 
L 373.19608 122.291023 
L 373.416022 122.282761 
L 373.635964 122.028841 
L 374.39005 120.727226 
L 374.578572 120.963242 
L 375.395499 122.250751 
L 375.772542 122.399348 
L 375.929644 122.36368 
L 378.097643 120.232104 
L 378.317585 120.447495 
L 378.694628 121.263445 
L 379.228773 122.175667 
L 379.480135 122.285221 
L 379.700077 122.093635 
L 380.548424 121.073239 
L 380.705526 121.185811 
L 381.14541 121.994439 
L 381.585294 122.669988 
L 381.899496 122.775151 
L 382.27654 122.57469 
L 382.527902 122.16947 
L 382.999206 120.856619 
L 383.564771 119.418442 
L 383.753293 119.421586 
L 384.256017 120.00267 
L 384.664481 120.927737 
L 385.70135 122.885096 
L 386.141234 123.296182 
L 386.329755 123.281306 
L 386.581118 122.962858 
L 387.240943 121.564084 
L 387.775088 120.573141 
L 387.99503 120.41107 
L 388.403494 120.568077 
L 389.314682 121.035247 
L 389.628884 121.237108 
L 390.445812 121.694032 
L 391.042797 121.77433 
L 391.325579 121.618047 
L 391.576941 121.578474 
L 391.922565 121.533795 
L 392.111086 121.580037 
L 392.425289 122.052422 
L 393.210796 123.05197 
L 393.462158 122.726504 
L 393.744941 121.982266 
L 394.81323 118.8572 
L 395.001752 118.74389 
L 395.158853 118.913235 
L 395.473056 119.716418 
L 396.918388 123.88236 
L 397.232591 124.179988 
L 397.421113 124.096597 
L 397.641055 123.664317 
L 398.960706 120.397949 
L 399.36917 120.18028 
L 399.683373 119.881195 
L 400.060416 119.671246 
L 400.311778 119.683592 
L 400.53172 120.053058 
L 400.908764 121.143824 
L 401.537169 123.184497 
L 401.851372 123.725667 
L 402.071314 123.756106 
L 402.259836 123.509201 
L 402.605459 122.50697 
L 403.422386 120.092328 
L 403.736588 119.799137 
L 403.92511 119.855086 
L 404.207893 120.285996 
L 405.276182 122.212965 
L 405.558965 122.281385 
L 406.815776 121.903466 
L 407.098558 121.932186 
L 407.538442 121.721122 
L 408.009746 121.251131 
L 408.355369 121.108736 
L 409.235137 121.171764 
L 409.58076 120.982145 
L 410.523368 119.971456 
L 410.74331 120.306642 
L 410.994672 121.21488 
L 411.623078 123.626123 
L 411.84302 123.907212 
L 412.000121 123.85118 
L 412.188643 123.505655 
L 413.319773 120.785849 
L 413.571135 120.793652 
L 414.042439 121.028655 
L 414.356642 121.167901 
L 414.608004 121.013783 
L 415.173569 120.673524 
L 415.393511 120.725858 
L 415.676294 121.125934 
L 416.587482 122.599105 
L 416.838844 122.561445 
L 417.090206 122.193656 
L 417.781452 121.112953 
L 418.189916 120.922737 
L 418.72406 120.901564 
L 419.132524 121.057809 
L 420.200813 122.103128 
L 420.672118 121.824013 
L 421.928929 120.963596 
L 422.588754 120.405013 
L 422.777276 120.516044 
L 423.060059 121.092935 
L 423.908406 122.879062 
L 424.128348 122.892881 
L 424.41113 122.620472 
L 425.416579 121.365166 
L 426.013565 121.30583 
L 427.584578 121.202482 
L 427.867361 120.839787 
L 428.338665 120.216394 
L 428.590027 120.182008 
L 428.778549 120.427542 
L 429.187012 121.502374 
L 429.658317 122.51183 
L 429.909679 122.649256 
L 430.946548 122.319022 
L 431.512113 122.182859 
L 432.2662 122.001205 
L 432.548982 121.710134 
L 433.617271 120.209318 
L 434.151416 119.884496 
L 434.497039 119.905565 
L 434.874083 120.173889 
L 435.188285 120.673452 
L 436.319415 122.660165 
L 436.790719 123.06933 
L 436.979241 123.021615 
L 437.356284 122.507829 
L 437.890429 121.922936 
L 438.581675 121.464695 
L 439.210081 120.848384 
L 439.430023 120.934476 
L 439.744225 121.382894 
L 440.404051 122.303664 
L 440.623993 122.255155 
L 441.032457 121.785396 
L 441.880804 120.696754 
L 442.195007 120.567936 
L 442.57205 120.691231 
L 444.017383 121.640759 
L 444.488687 122.053709 
L 444.740049 121.920443 
L 445.651237 121.239421 
L 447.06515 122.043416 
L 448.070599 121.846145 
L 448.541903 121.465991 
L 449.107468 120.83236 
L 449.39025 120.761488 
L 449.704453 121.01813 
L 450.709902 121.940225 
L 450.992684 121.877687 
L 453.066423 120.571054 
L 453.317785 120.870875 
L 453.757669 121.892079 
L 454.260393 122.794575 
L 454.480335 122.853017 
L 454.731697 122.655757 
L 455.171581 121.906558 
L 455.737146 121.120011 
L 455.988508 121.090929 
L 457.402421 121.613571 
L 457.873725 121.915726 
L 458.062247 121.796673 
L 458.40787 121.20614 
L 459.067695 120.004988 
L 459.287637 119.981402 
L 459.507579 120.2298 
L 459.853202 121.015037 
L 460.544448 122.617156 
L 460.921492 122.92375 
L 461.204274 122.916121 
L 461.455636 122.651406 
L 461.801259 121.84746 
L 462.303984 120.82583 
L 462.649607 120.62422 
L 462.900969 120.686805 
L 463.278012 121.097314 
L 464.409142 122.481389 
L 464.723345 122.555662 
L 465.100389 122.462116 
L 465.414591 122.050437 
L 466.765663 119.903169 
L 467.017025 119.936444 
L 467.394069 120.302345 
L 467.833953 121.192749 
L 468.65088 122.508112 
L 468.933662 122.568936 
L 469.373546 122.416974 
L 470.410415 121.635221 
L 470.91314 121.269258 
L 471.698647 121.011661 
L 472.13853 121.154117 
L 472.515574 121.228426 
L 472.986878 121.005439 
L 473.301081 120.936957 
L 473.866646 121.030673 
L 474.33795 120.959502 
L 474.589312 121.297563 
L 475.846123 123.407919 
L 476.003224 123.376918 
L 476.223166 123.035267 
L 477.165775 121.282634 
L 477.699919 120.575113 
L 478.391165 120.135487 
L 478.611107 120.286269 
L 479.459455 121.44864 
L 479.867918 121.947206 
L 480.433483 122.115811 
L 480.716266 121.991109 
L 481.061889 121.493299 
L 481.784555 120.462353 
L 482.004497 120.454113 
L 482.727164 120.946803 
L 483.983975 122.566036 
L 484.706641 122.965557 
L 485.303626 122.73515 
L 485.554989 122.293836 
L 486.591858 120.164351 
L 486.780379 120.285738 
L 487.157423 120.854909 
L 487.880089 122.043911 
L 488.257132 122.172503 
L 488.477074 122.030693 
L 488.885538 121.356066 
L 489.545364 120.401095 
L 489.796726 120.364034 
L 490.079508 120.600306 
L 490.519392 121.263867 
L 490.833595 121.589583 
L 491.084957 121.557362 
L 491.304899 121.235543 
L 491.964725 120.014738 
L 492.184667 119.972013 
L 492.373189 120.263818 
L 492.781652 121.479572 
L 493.69284 124.349324 
L 493.881362 124.39279 
L 494.101304 124.195743 
L 494.352666 123.615629 
L 495.389535 120.657084 
L 495.672318 120.495337 
L 495.892259 120.607119 
L 496.834868 121.345536 
L 497.903157 121.330621 
L 498.500142 121.452694 
L 498.908606 121.158892 
L 499.819794 120.180318 
L 500.291098 120.148696 
L 500.856663 120.291594 
L 501.170866 120.65655 
L 501.61075 121.651693 
L 502.082054 123.153312 
L 502.647619 124.827511 
L 502.898981 125.036426 
L 503.056083 124.930971 
L 503.307445 124.406225 
L 503.810169 122.6975 
L 505.03556 118.210318 
L 505.318342 117.940762 
L 505.475444 118.02362 
L 505.695386 118.454178 
L 506.072429 119.773445 
L 507.046458 123.543623 
L 507.454921 124.234142 
L 507.737704 124.308547 
L 507.957646 124.141324 
L 508.240428 123.61594 
L 508.711732 122.147204 
L 509.56008 119.613243 
L 509.905703 119.157343 
L 510.157065 119.123862 
L 510.439848 119.336475 
L 510.785471 119.934787 
L 512.199383 122.791949 
L 512.576426 122.97454 
L 512.922049 122.867478 
L 513.361933 122.471151 
L 514.744425 121.019647 
L 515.21573 120.917802 
L 515.812715 121.054612 
L 517.50941 121.600287 
L 518.609119 121.576071 
L 521.185582 121.493969 
L 523.636364 121.5 
L 523.636364 121.5 
" clip-path="url(#pac62a3c5df)" style="fill: none; stroke: #000000; stroke-width: 0.5; stroke-linecap: square"/>
   </g>
   <g id="patch_3">
    <path d="M 28.8 183.6 
L 547.2 183.6 
" style="fill: none; stroke: #000000; stroke-width: 0.8; stroke-linejoin: miter; stroke-linecap: square"/>
   </g>
   <g id="text_8">
    <g id="patch_4">
     <path d="M 24.8 55.066234 
L 393.296875 55.066234 
L 393.296875 3.794671 
L 24.8 3.794671 
L 24.8 55.066234 
z
" style="fill: none"/>
    </g>
    <!-- C201509162254A:  -->
    <g transform="translate(28.8 15.393109) scale(0.1 -0.1)">
     <defs>
      <path id="DejaVuSans-43" d="M 4122 4306 
L 4122 3641 
Q 3803 3938 3442 4084 
Q 3081 4231 2675 4231 
Q 1875 4231 1450 3742 
Q 1025 3253 1025 2328 
Q 1025 1406 1450 917 
Q 1875 428 2675 428 
Q 3081 428 3442 575 
Q 3803 722 4122 1019 
L 4122 359 
Q 3791 134 3420 21 
Q 3050 -91 2638 -91 
Q 1578 -91 968 557 
Q 359 1206 359 2328 
Q 359 3453 968 4101 
Q 1578 4750 2638 4750 
Q 3056 4750 3426 4639 
Q 3797 4528 4122 4306 
z
" transform="scale(0.015625)"/>
      <path id="DejaVuSans-39" d="M 703 97 
L 703 672 
Q 941 559 1184 500 
Q 1428 441 1663 441 
Q 2288 441 2617 861 
Q 2947 1281 2994 2138 
Q 2813 1869 2534 1725 
Q 2256 1581 1919 1581 
Q 1219 1581 811 2004 
Q 403 2428 403 3163 
Q 403 3881 828 4315 
Q 1253 4750 1959 4750 
Q 2769 4750 3195 4129 
Q 3622 3509 3622 2328 
Q 3622 1225 3098 567 
Q 2575 -91 1691 -91 
Q 1453 -91 1209 -44 
Q 966 3 703 97 
z
M 1959 2075 
Q 2384 2075 2632 2365 
Q 2881 2656 2881 3163 
Q 2881 3666 2632 3958 
Q 2384 4250 1959 4250 
Q 1534 4250 1286 3958 
Q 1038 3666 1038 3163 
Q 1038 2656 1286 2365 
Q 1534 2075 1959 2075 
z
" transform="scale(0.015625)"/>
      <path id="DejaVuSans-36" d="M 2113 2584 
Q 1688 2584 1439 2293 
Q 1191 2003 1191 1497 
Q 1191 994 1439 701 
Q 1688 409 2113 409 
Q 2538 409 2786 701 
Q 3034 994 3034 1497 
Q 3034 2003 2786 2293 
Q 2538 2584 2113 2584 
z
M 3366 4563 
L 3366 3988 
Q 3128 4100 2886 4159 
Q 2644 4219 2406 4219 
Q 1781 4219 1451 3797 
Q 1122 3375 1075 2522 
Q 1259 2794 1537 2939 
Q 1816 3084 2150 3084 
Q 2853 3084 3261 2657 
Q 3669 2231 3669 1497 
Q 3669 778 3244 343 
Q 2819 -91 2113 -91 
Q 1303 -91 875 529 
Q 447 1150 447 2328 
Q 447 3434 972 4092 
Q 1497 4750 2381 4750 
Q 2619 4750 2861 4703 
Q 3103 4656 3366 4563 
z
" transform="scale(0.015625)"/>
      <path id="DejaVuSans-34" d="M 2419 4116 
L 825 1625 
L 2419 1625 
L 2419 4116 
z
M 2253 4666 
L 3047 4666 
L 3047 1625 
L 3713 1625 
L 3713 1100 
L 3047 1100 
L 3047 0 
L 2419 0 
L 2419 1100 
L 313 1100 
L 313 1709 
L 2253 4666 
z
" transform="scale(0.015625)"/>
      <path id="DejaVuSans-41" d="M 2188 4044 
L 1331 1722 
L 3047 1722 
L 2188 4044 
z
M 1831 4666 
L 2547 4666 
L 4325 0 
L 3669 0 
L 3244 1197 
L 1141 1197 
L 716 0 
L 50 0 
L 1831 4666 
z
" transform="scale(0.015625)"/>
      <path id="DejaVuSans-3a" d="M 750 794 
L 1409 794 
L 1409 0 
L 750 0 
L 750 794 
z
M 750 3309 
L 1409 3309 
L 1409 2516 
L 750 2516 
L 750 3309 
z
" transform="scale(0.015625)"/>
     </defs>
     <use xlink:href="#DejaVuSans-43"/>
     <use xlink:href="#DejaVuSans-32" x="69.824219"/>
     <use xlink:href="#DejaVuSans-30" x="133.447266"/>
     <use xlink:href="#DejaVuSans-31" x="197.070312"/>
     <use xlink:href="#DejaVuSans-35" x="260.693359"/>
     <use xlink:href="#DejaVuSans-30" x="324.316406"/>
     <use xlink:href="#DejaVuSans-39" x="387.939453"/>
     <use xlink:href="#DejaVuSans-31" x="451.5625"/>
     <use xlink:href="#DejaVuSans-36" x="515.185547"/>
     <use xlink:href="#DejaVuSans-32" x="578.808594"/>
     <use xlink:href="#DejaVuSans-32" x="642.431641"/>
     <use xlink:href="#DejaVuSans-35" x="706.054688"/>
     <use xlink:href="#DejaVuSans-34" x="769.677734"/>
     <use xlink:href="#DejaVuSans-41" x="833.300781"/>
     <use xlink:href="#DejaVuSans-3a" x="899.958984"/>
     <use xlink:href="#DejaVuSans-20" x="933.650391"/>
    </g>
    <!--   2015-09-16 22:55:22  La -31.130 Lo -72.090 Dp 17.350km -->
    <g transform="translate(28.8 26.590921) scale(0.1 -0.1)">
     <defs>
      <path id="DejaVuSans-2d" d="M 313 2009 
L 1997 2009 
L 1997 1497 
L 313 1497 
L 313 2009 
z
" transform="scale(0.015625)"/>
      <path id="DejaVuSans-4c" d="M 628 4666 
L 1259 4666 
L 1259 531 
L 3531 531 
L 3531 0 
L 628 0 
L 628 4666 
z
" transform="scale(0.015625)"/>
      <path id="DejaVuSans-61" d="M 2194 1759 
Q 1497 1759 1228 1600 
Q 959 1441 959 1056 
Q 959 750 1161 570 
Q 1363 391 1709 391 
Q 2188 391 2477 730 
Q 2766 1069 2766 1631 
L 2766 1759 
L 2194 1759 
z
M 3341 1997 
L 3341 0 
L 2766 0 
L 2766 531 
Q 2569 213 2275 61 
Q 1981 -91 1556 -91 
Q 1019 -91 701 211 
Q 384 513 384 1019 
Q 384 1609 779 1909 
Q 1175 2209 1959 2209 
L 2766 2209 
L 2766 2266 
Q 2766 2663 2505 2880 
Q 2244 3097 1772 3097 
Q 1472 3097 1187 3025 
Q 903 2953 641 2809 
L 641 3341 
Q 956 3463 1253 3523 
Q 1550 3584 1831 3584 
Q 2591 3584 2966 3190 
Q 3341 2797 3341 1997 
z
" transform="scale(0.015625)"/>
      <path id="DejaVuSans-33" d="M 2597 2516 
Q 3050 2419 3304 2112 
Q 3559 1806 3559 1356 
Q 3559 666 3084 287 
Q 2609 -91 1734 -91 
Q 1441 -91 1130 -33 
Q 819 25 488 141 
L 488 750 
Q 750 597 1062 519 
Q 1375 441 1716 441 
Q 2309 441 2620 675 
Q 2931 909 2931 1356 
Q 2931 1769 2642 2001 
Q 2353 2234 1838 2234 
L 1294 2234 
L 1294 2753 
L 1863 2753 
Q 2328 2753 2575 2939 
Q 2822 3125 2822 3475 
Q 2822 3834 2567 4026 
Q 2313 4219 1838 4219 
Q 1578 4219 1281 4162 
Q 984 4106 628 3988 
L 628 4550 
Q 988 4650 1302 4700 
Q 1616 4750 1894 4750 
Q 2613 4750 3031 4423 
Q 3450 4097 3450 3541 
Q 3450 3153 3228 2886 
Q 3006 2619 2597 2516 
z
" transform="scale(0.015625)"/>
      <path id="DejaVuSans-2e" d="M 684 794 
L 1344 794 
L 1344 0 
L 684 0 
L 684 794 
z
" transform="scale(0.015625)"/>
      <path id="DejaVuSans-37" d="M 525 4666 
L 3525 4666 
L 3525 4397 
L 1831 0 
L 1172 0 
L 2766 4134 
L 525 4134 
L 525 4666 
z
" transform="scale(0.015625)"/>
      <path id="DejaVuSans-44" d="M 1259 4147 
L 1259 519 
L 2022 519 
Q 2988 519 3436 956 
Q 3884 1394 3884 2338 
Q 3884 3275 3436 3711 
Q 2988 4147 2022 4147 
L 1259 4147 
z
M 628 4666 
L 1925 4666 
Q 3281 4666 3915 4102 
Q 4550 3538 4550 2338 
Q 4550 1131 3912 565 
Q 3275 0 1925 0 
L 628 0 
L 628 4666 
z
" transform="scale(0.015625)"/>
      <path id="DejaVuSans-70" d="M 1159 525 
L 1159 -1331 
L 581 -1331 
L 581 3500 
L 1159 3500 
L 1159 2969 
Q 1341 3281 1617 3432 
Q 1894 3584 2278 3584 
Q 2916 3584 3314 3078 
Q 3713 2572 3713 1747 
Q 3713 922 3314 415 
Q 2916 -91 2278 -91 
Q 1894 -91 1617 61 
Q 1341 213 1159 525 
z
M 3116 1747 
Q 3116 2381 2855 2742 
Q 2594 3103 2138 3103 
Q 1681 3103 1420 2742 
Q 1159 2381 1159 1747 
Q 1159 1113 1420 752 
Q 1681 391 2138 391 
Q 2594 391 2855 752 
Q 3116 1113 3116 1747 
z
" transform="scale(0.015625)"/>
      <path id="DejaVuSans-6b" d="M 581 4863 
L 1159 4863 
L 1159 1991 
L 2875 3500 
L 3609 3500 
L 1753 1863 
L 3688 0 
L 2938 0 
L 1159 1709 
L 1159 0 
L 581 0 
L 581 4863 
z
" transform="scale(0.015625)"/>
     </defs>
     <use xlink:href="#DejaVuSans-20"/>
     <use xlink:href="#DejaVuSans-20" x="31.787109"/>
     <use xlink:href="#DejaVuSans-32" x="63.574219"/>
     <use xlink:href="#DejaVuSans-30" x="127.197266"/>
     <use xlink:href="#DejaVuSans-31" x="190.820312"/>
     <use xlink:href="#DejaVuSans-35" x="254.443359"/>
     <use xlink:href="#DejaVuSans-2d" x="318.066406"/>
     <use xlink:href="#DejaVuSans-30" x="354.150391"/>
     <use xlink:href="#DejaVuSans-39" x="417.773438"/>
     <use xlink:href="#DejaVuSans-2d" x="481.396484"/>
     <use xlink:href="#DejaVuSans-31" x="517.480469"/>
     <use xlink:href="#DejaVuSans-36" x="581.103516"/>
     <use xlink:href="#DejaVuSans-20" x="644.726562"/>
     <use xlink:href="#DejaVuSans-32" x="676.513672"/>
     <use xlink:href="#DejaVuSans-32" x="740.136719"/>
     <use xlink:href="#DejaVuSans-3a" x="803.759766"/>
     <use xlink:href="#DejaVuSans-35" x="837.451172"/>
     <use xlink:href="#DejaVuSans-35" x="901.074219"/>
     <use xlink:href="#DejaVuSans-3a" x="964.697266"/>
     <use xlink:href="#DejaVuSans-32" x="998.388672"/>
     <use xlink:href="#DejaVuSans-32" x="1062.011719"/>
     <use xlink:href="#DejaVuSans-20" x="1125.634766"/>
     <use xlink:href="#DejaVuSans-20" x="1157.421875"/>
     <use xlink:href="#DejaVuSans-4c" x="1189.208984"/>
     <use xlink:href="#DejaVuSans-61" x="1244.921875"/>
     <use xlink:href="#DejaVuSans-20" x="1306.201172"/>
     <use xlink:href="#DejaVuSans-2d" x="1337.988281"/>
     <use xlink:href="#DejaVuSans-33" x="1374.072266"/>
     <use xlink:href="#DejaVuSans-31" x="1437.695312"/>
     <use xlink:href="#DejaVuSans-2e" x="1501.318359"/>
     <use xlink:href="#DejaVuSans-31" x="1533.105469"/>
     <use xlink:href="#DejaVuSans-33" x="1596.728516"/>
     <use xlink:href="#DejaVuSans-30" x="1660.351562"/>
     <use xlink:href="#DejaVuSans-20" x="1723.974609"/>
     <use xlink:href="#DejaVuSans-4c" x="1755.761719"/>
     <use xlink:href="#DejaVuSans-6f" x="1809.724609"/>
     <use xlink:href="#DejaVuSans-20" x="1870.90625"/>
     <use xlink:href="#DejaVuSans-2d" x="1902.693359"/>
     <use xlink:href="#DejaVuSans-37" x="1938.777344"/>
     <use xlink:href="#DejaVuSans-32" x="2002.400391"/>
     <use xlink:href="#DejaVuSans-2e" x="2066.023438"/>
     <use xlink:href="#DejaVuSans-30" x="2097.810547"/>
     <use xlink:href="#DejaVuSans-39" x="2161.433594"/>
     <use xlink:href="#DejaVuSans-30" x="2225.056641"/>
     <use xlink:href="#DejaVuSans-20" x="2288.679688"/>
     <use xlink:href="#DejaVuSans-44" x="2320.466797"/>
     <use xlink:href="#DejaVuSans-70" x="2397.46875"/>
     <use xlink:href="#DejaVuSans-20" x="2460.945312"/>
     <use xlink:href="#DejaVuSans-31" x="2492.732422"/>
     <use xlink:href="#DejaVuSans-37" x="2556.355469"/>
     <use xlink:href="#DejaVuSans-2e" x="2619.978516"/>
     <use xlink:href="#DejaVuSans-33" x="2651.765625"/>
     <use xlink:href="#DejaVuSans-35" x="2715.388672"/>
     <use xlink:href="#DejaVuSans-30" x="2779.011719"/>
     <use xlink:href="#DejaVuSans-6b" x="2842.634766"/>
     <use xlink:href="#DejaVuSans-6d" x="2900.544922"/>
    </g>
    <!-- II.BFO.00.LHZ:  -->
    <g transform="translate(28.8 37.788734) scale(0.1 -0.1)">
     <defs>
      <path id="DejaVuSans-49" d="M 628 4666 
L 1259 4666 
L 1259 0 
L 628 0 
L 628 4666 
z
" transform="scale(0.015625)"/>
      <path id="DejaVuSans-42" d="M 1259 2228 
L 1259 519 
L 2272 519 
Q 2781 519 3026 730 
Q 3272 941 3272 1375 
Q 3272 1813 3026 2020 
Q 2781 2228 2272 2228 
L 1259 2228 
z
M 1259 4147 
L 1259 2741 
L 2194 2741 
Q 2656 2741 2882 2914 
Q 3109 3088 3109 3444 
Q 3109 3797 2882 3972 
Q 2656 4147 2194 4147 
L 1259 4147 
z
M 628 4666 
L 2241 4666 
Q 2963 4666 3353 4366 
Q 3744 4066 3744 3513 
Q 3744 3084 3544 2831 
Q 3344 2578 2956 2516 
Q 3422 2416 3680 2098 
Q 3938 1781 3938 1306 
Q 3938 681 3513 340 
Q 3088 0 2303 0 
L 628 0 
L 628 4666 
z
" transform="scale(0.015625)"/>
      <path id="DejaVuSans-46" d="M 628 4666 
L 3309 4666 
L 3309 4134 
L 1259 4134 
L 1259 2759 
L 3109 2759 
L 3109 2228 
L 1259 2228 
L 1259 0 
L 628 0 
L 628 4666 
z
" transform="scale(0.015625)"/>
      <path id="DejaVuSans-4f" d="M 2522 4238 
Q 1834 4238 1429 3725 
Q 1025 3213 1025 2328 
Q 1025 1447 1429 934 
Q 1834 422 2522 422 
Q 3209 422 3611 934 
Q 4013 1447 4013 2328 
Q 4013 3213 3611 3725 
Q 3209 4238 2522 4238 
z
M 2522 4750 
Q 3503 4750 4090 4092 
Q 4678 3434 4678 2328 
Q 4678 1225 4090 567 
Q 3503 -91 2522 -91 
Q 1538 -91 948 565 
Q 359 1222 359 2328 
Q 359 3434 948 4092 
Q 1538 4750 2522 4750 
z
" transform="scale(0.015625)"/>
      <path id="DejaVuSans-48" d="M 628 4666 
L 1259 4666 
L 1259 2753 
L 3553 2753 
L 3553 4666 
L 4184 4666 
L 4184 0 
L 3553 0 
L 3553 2222 
L 1259 2222 
L 1259 0 
L 628 0 
L 628 4666 
z
" transform="scale(0.015625)"/>
      <path id="DejaVuSans-5a" d="M 359 4666 
L 4025 4666 
L 4025 4184 
L 1075 531 
L 4097 531 
L 4097 0 
L 288 0 
L 288 481 
L 3238 4134 
L 359 4134 
L 359 4666 
z
" transform="scale(0.015625)"/>
     </defs>
     <use xlink:href="#DejaVuSans-49"/>
     <use xlink:href="#DejaVuSans-49" x="29.492188"/>
     <use xlink:href="#DejaVuSans-2e" x="58.984375"/>
     <use xlink:href="#DejaVuSans-42" x="90.771484"/>
     <use xlink:href="#DejaVuSans-46" x="159.375"/>
     <use xlink:href="#DejaVuSans-4f" x="216.894531"/>
     <use xlink:href="#DejaVuSans-2e" x="291.605469"/>
     <use xlink:href="#DejaVuSans-30" x="323.392578"/>
     <use xlink:href="#DejaVuSans-30" x="387.015625"/>
     <use xlink:href="#DejaVuSans-2e" x="450.638672"/>
     <use xlink:href="#DejaVuSans-4c" x="482.425781"/>
     <use xlink:href="#DejaVuSans-48" x="538.138672"/>
     <use xlink:href="#DejaVuSans-5a" x="613.333984"/>
     <use xlink:href="#DejaVuSans-3a" x="681.839844"/>
     <use xlink:href="#DejaVuSans-20" x="715.53125"/>
    </g>
    <!--   La 48.330 Lo: 8.330 Az: 43.4 Baz: 242.1 Dist: 106.868dg - Bp: 30-200s -->
    <g transform="translate(28.8 48.986546) scale(0.1 -0.1)">
     <defs>
      <path id="DejaVuSans-38" d="M 2034 2216 
Q 1584 2216 1326 1975 
Q 1069 1734 1069 1313 
Q 1069 891 1326 650 
Q 1584 409 2034 409 
Q 2484 409 2743 651 
Q 3003 894 3003 1313 
Q 3003 1734 2745 1975 
Q 2488 2216 2034 2216 
z
M 1403 2484 
Q 997 2584 770 2862 
Q 544 3141 544 3541 
Q 544 4100 942 4425 
Q 1341 4750 2034 4750 
Q 2731 4750 3128 4425 
Q 3525 4100 3525 3541 
Q 3525 3141 3298 2862 
Q 3072 2584 2669 2484 
Q 3125 2378 3379 2068 
Q 3634 1759 3634 1313 
Q 3634 634 3220 271 
Q 2806 -91 2034 -91 
Q 1263 -91 848 271 
Q 434 634 434 1313 
Q 434 1759 690 2068 
Q 947 2378 1403 2484 
z
M 1172 3481 
Q 1172 3119 1398 2916 
Q 1625 2713 2034 2713 
Q 2441 2713 2670 2916 
Q 2900 3119 2900 3481 
Q 2900 3844 2670 4047 
Q 2441 4250 2034 4250 
Q 1625 4250 1398 4047 
Q 1172 3844 1172 3481 
z
" transform="scale(0.015625)"/>
      <path id="DejaVuSans-7a" d="M 353 3500 
L 3084 3500 
L 3084 2975 
L 922 459 
L 3084 459 
L 3084 0 
L 275 0 
L 275 525 
L 2438 3041 
L 353 3041 
L 353 3500 
z
" transform="scale(0.015625)"/>
      <path id="DejaVuSans-74" d="M 1172 4494 
L 1172 3500 
L 2356 3500 
L 2356 3053 
L 1172 3053 
L 1172 1153 
Q 1172 725 1289 603 
Q 1406 481 1766 481 
L 2356 481 
L 2356 0 
L 1766 0 
Q 1100 0 847 248 
Q 594 497 594 1153 
L 594 3053 
L 172 3053 
L 172 3500 
L 594 3500 
L 594 4494 
L 1172 4494 
z
" transform="scale(0.015625)"/>
      <path id="DejaVuSans-64" d="M 2906 2969 
L 2906 4863 
L 3481 4863 
L 3481 0 
L 2906 0 
L 2906 525 
Q 2725 213 2448 61 
Q 2172 -91 1784 -91 
Q 1150 -91 751 415 
Q 353 922 353 1747 
Q 353 2572 751 3078 
Q 1150 3584 1784 3584 
Q 2172 3584 2448 3432 
Q 2725 3281 2906 2969 
z
M 947 1747 
Q 947 1113 1208 752 
Q 1469 391 1925 391 
Q 2381 391 2643 752 
Q 2906 1113 2906 1747 
Q 2906 2381 2643 2742 
Q 2381 3103 1925 3103 
Q 1469 3103 1208 2742 
Q 947 2381 947 1747 
z
" transform="scale(0.015625)"/>
     </defs>
     <use xlink:href="#DejaVuSans-20"/>
     <use xlink:href="#DejaVuSans-20" x="31.787109"/>
     <use xlink:href="#DejaVuSans-4c" x="63.574219"/>
     <use xlink:href="#DejaVuSans-61" x="119.287109"/>
     <use xlink:href="#DejaVuSans-20" x="180.566406"/>
     <use xlink:href="#DejaVuSans-34" x="212.353516"/>
     <use xlink:href="#DejaVuSans-38" x="275.976562"/>
     <use xlink:href="#DejaVuSans-2e" x="339.599609"/>
     <use xlink:href="#DejaVuSans-33" x="371.386719"/>
     <use xlink:href="#DejaVuSans-33" x="435.009766"/>
     <use xlink:href="#DejaVuSans-30" x="498.632812"/>
     <use xlink:href="#DejaVuSans-20" x="562.255859"/>
     <use xlink:href="#DejaVuSans-4c" x="594.042969"/>
     <use xlink:href="#DejaVuSans-6f" x="648.005859"/>
     <use xlink:href="#DejaVuSans-3a" x="709.1875"/>
     <use xlink:href="#DejaVuSans-20" x="742.878906"/>
     <use xlink:href="#DejaVuSans-38" x="774.666016"/>
     <use xlink:href="#DejaVuSans-2e" x="838.289062"/>
     <use xlink:href="#DejaVuSans-33" x="870.076172"/>
     <use xlink:href="#DejaVuSans-33" x="933.699219"/>
     <use xlink:href="#DejaVuSans-30" x="997.322266"/>
     <use xlink:href="#DejaVuSans-20" x="1060.945312"/>
     <use xlink:href="#DejaVuSans-41" x="1092.732422"/>
     <use xlink:href="#DejaVuSans-7a" x="1161.140625"/>
     <use xlink:href="#DejaVuSans-3a" x="1213.630859"/>
     <use xlink:href="#DejaVuSans-20" x="1247.322266"/>
     <use xlink:href="#DejaVuSans-34" x="1279.109375"/>
     <use xlink:href="#DejaVuSans-33" x="1342.732422"/>
     <use xlink:href="#DejaVuSans-2e" x="1406.355469"/>
     <use xlink:href="#DejaVuSans-34" x="1438.142578"/>
     <use xlink:href="#DejaVuSans-20" x="1501.765625"/>
     <use xlink:href="#DejaVuSans-42" x="1533.552734"/>
     <use xlink:href="#DejaVuSans-61" x="1602.15625"/>
     <use xlink:href="#DejaVuSans-7a" x="1663.435547"/>
     <use xlink:href="#DejaVuSans-3a" x="1715.925781"/>
     <use xlink:href="#DejaVuSans-20" x="1749.617188"/>
     <use xlink:href="#DejaVuSans-32" x="1781.404297"/>
     <use xlink:href="#DejaVuSans-34" x="1845.027344"/>
     <use xlink:href="#DejaVuSans-32" x="1908.650391"/>
     <use xlink:href="#DejaVuSans-2e" x="1972.273438"/>
     <use xlink:href="#DejaVuSans-31" x="2004.060547"/>
     <use xlink:href="#DejaVuSans-20" x="2067.683594"/>
     <use xlink:href="#DejaVuSans-44" x="2099.470703"/>
     <use xlink:href="#DejaVuSans-69" x="2176.472656"/>
     <use xlink:href="#DejaVuSans-73" x="2204.255859"/>
     <use xlink:href="#DejaVuSans-74" x="2256.355469"/>
     <use xlink:href="#DejaVuSans-3a" x="2295.564453"/>
     <use xlink:href="#DejaVuSans-20" x="2329.255859"/>
     <use xlink:href="#DejaVuSans-31" x="2361.042969"/>
     <use xlink:href="#DejaVuSans-30" x="2424.666016"/>
     <use xlink:href="#DejaVuSans-36" x="2488.289062"/>
     <use xlink:href="#DejaVuSans-2e" x="2551.912109"/>
     <use xlink:href="#DejaVuSans-38" x="2583.699219"/>
     <use xlink:href="#DejaVuSans-36" x="2647.322266"/>
     <use xlink:href="#DejaVuSans-38" x="2710.945312"/>
     <use xlink:href="#DejaVuSans-64" x="2774.568359"/>
     <use xlink:href="#DejaVuSans-67" x="2838.044922"/>
     <use xlink:href="#DejaVuSans-20" x="2901.521484"/>
     <use xlink:href="#DejaVuSans-2d" x="2933.308594"/>
     <use xlink:href="#DejaVuSans-20" x="2969.392578"/>
     <use xlink:href="#DejaVuSans-42" x="3001.179688"/>
     <use xlink:href="#DejaVuSans-70" x="3069.783203"/>
     <use xlink:href="#DejaVuSans-3a" x="3133.259766"/>
     <use xlink:href="#DejaVuSans-20" x="3166.951172"/>
     <use xlink:href="#DejaVuSans-33" x="3198.738281"/>
     <use xlink:href="#DejaVuSans-30" x="3262.361328"/>
     <use xlink:href="#DejaVuSans-2d" x="3325.984375"/>
     <use xlink:href="#DejaVuSans-32" x="3362.068359"/>
     <use xlink:href="#DejaVuSans-30" x="3425.691406"/>
     <use xlink:href="#DejaVuSans-30" x="3489.314453"/>
     <use xlink:href="#DejaVuSans-73" x="3552.9375"/>
    </g>
   </g>
   <g id="legend_1">
    <g id="line2d_8">
     <path d="M 462.085937 72.498437 
L 472.085937 72.498437 
L 482.085937 72.498437 
" style="fill: none; stroke: #000000; stroke-width: 0.5; stroke-linecap: square"/>
    </g>
    <g id="text_9">
     <!-- Observed -->
     <g transform="translate(490.085937 75.998437) scale(0.1 -0.1)">
      <defs>
       <path id="DejaVuSans-62" d="M 3116 1747 
Q 3116 2381 2855 2742 
Q 2594 3103 2138 3103 
Q 1681 3103 1420 2742 
Q 1159 2381 1159 1747 
Q 1159 1113 1420 752 
Q 1681 391 2138 391 
Q 2594 391 2855 752 
Q 3116 1113 3116 1747 
z
M 1159 2969 
Q 1341 3281 1617 3432 
Q 1894 3584 2278 3584 
Q 2916 3584 3314 3078 
Q 3713 2572 3713 1747 
Q 3713 922 3314 415 
Q 2916 -91 2278 -91 
Q 1894 -91 1617 61 
Q 1341 213 1159 525 
L 1159 0 
L 581 0 
L 581 4863 
L 1159 4863 
L 1159 2969 
z
" transform="scale(0.015625)"/>
       <path id="DejaVuSans-76" d="M 191 3500 
L 800 3500 
L 1894 563 
L 2988 3500 
L 3597 3500 
L 2284 0 
L 1503 0 
L 191 3500 
z
" transform="scale(0.015625)"/>
      </defs>
      <use xlink:href="#DejaVuSans-4f"/>
      <use xlink:href="#DejaVuSans-62" x="78.710938"/>
      <use xlink:href="#DejaVuSans-73" x="142.1875"/>
      <use xlink:href="#DejaVuSans-65" x="194.287109"/>
      <use xlink:href="#DejaVuSans-72" x="255.810547"/>
      <use xlink:href="#DejaVuSans-76" x="296.923828"/>
      <use xlink:href="#DejaVuSans-65" x="356.103516"/>
      <use xlink:href="#DejaVuSans-64" x="417.626953"/>
     </g>
    </g>
   </g>
  </g>
 </g>
 <defs>
  <clipPath id="pac62a3c5df">
   <rect x="28.8" y="59.4" width="518.4" height="124.2"/>
  </clipPath>
 </defs>
</svg>
