<?xml version="1.0" encoding="utf-8" standalone="no"?>
<!DOCTYPE svg PUBLIC "-//W3C//DTD SVG 1.1//EN"
  "http://www.w3.org/Graphics/SVG/1.1/DTD/svg11.dtd">
<svg xmlns:xlink="http://www.w3.org/1999/xlink" width="460.8pt" height="345.6pt" viewBox="0 0 460.8 345.6" xmlns="http://www.w3.org/2000/svg" version="1.1">
 <metadata>
  <rdf:RDF xmlns:dc="http://purl.org/dc/elements/1.1/" xmlns:cc="http://creativecommons.org/ns#" xmlns:rdf="http://www.w3.org/1999/02/22-rdf-syntax-ns#">
   <cc:Work>
    <dc:type rdf:resource="http://purl.org/dc/dcmitype/StillImage"/>
    <dc:date>2023-09-01T15:46:55.831521</dc:date>
    <dc:format>image/svg+xml</dc:format>
    <dc:creator>
     <cc:Agent>
      <dc:title>Matplotlib v3.7.2, https://matplotlib.org/</dc:title>
     </cc:Agent>
    </dc:creator>
   </cc:Work>
  </rdf:RDF>
 </metadata>
 <defs>
  <style type="text/css">*{stroke-linejoin: round; stroke-linecap: butt}</style>
 </defs>
 <g id="figure_1">
  <g id="patch_1">
   <path d="M 0 345.6 
L 460.8 345.6 
L 460.8 0 
L 0 0 
z
" style="fill: #ffffff"/>
  </g>
  <g id="axes_1">
   <g id="patch_2">
    <path d="M 23.04 302.4 
L 437.76 302.4 
L 437.76 69.12 
L 23.04 69.12 
z
" style="fill: #ffffff"/>
   </g>
   <g id="matplotlib.axis_1">
    <g id="xtick_1">
     <g id="line2d_1">
      <defs>
       <path id="mfbe9152941" d="M 0 0 
L 0 3.5 
" style="stroke: #000000; stroke-width: 0.8"/>
      </defs>
      <g>
       <use xlink:href="#mfbe9152941" x="41.890909" y="302.4" style="stroke: #000000; stroke-width: 0.8"/>
      </g>
     </g>
     <g id="text_1">
      <!-- 0 -->
      <g transform="translate(38.880753 317.051562) scale(0.1 -0.1)">
       <defs>
        <path id="DejaVuSansMono-30" d="M 1509 2344 
Q 1509 2516 1629 2641 
Q 1750 2766 1919 2766 
Q 2094 2766 2219 2641 
Q 2344 2516 2344 2344 
Q 2344 2169 2220 2047 
Q 2097 1925 1919 1925 
Q 1744 1925 1626 2044 
Q 1509 2163 1509 2344 
z
M 1925 4250 
Q 1484 4250 1267 3775 
Q 1050 3300 1050 2328 
Q 1050 1359 1267 884 
Q 1484 409 1925 409 
Q 2369 409 2586 884 
Q 2803 1359 2803 2328 
Q 2803 3300 2586 3775 
Q 2369 4250 1925 4250 
z
M 1925 4750 
Q 2672 4750 3055 4137 
Q 3438 3525 3438 2328 
Q 3438 1134 3055 521 
Q 2672 -91 1925 -91 
Q 1178 -91 797 521 
Q 416 1134 416 2328 
Q 416 3525 797 4137 
Q 1178 4750 1925 4750 
z
" transform="scale(0.015625)"/>
       </defs>
       <use xlink:href="#DejaVuSansMono-30"/>
      </g>
     </g>
    </g>
    <g id="xtick_2">
     <g id="line2d_2">
      <g>
       <use xlink:href="#mfbe9152941" x="94.259394" y="302.4" style="stroke: #000000; stroke-width: 0.8"/>
      </g>
     </g>
     <g id="text_2">
      <!-- 25 -->
      <g transform="translate(88.239082 317.051562) scale(0.1 -0.1)">
       <defs>
        <path id="DejaVuSansMono-32" d="M 1166 531 
L 3309 531 
L 3309 0 
L 475 0 
L 475 531 
Q 1059 1147 1496 1619 
Q 1934 2091 2100 2284 
Q 2413 2666 2522 2902 
Q 2631 3138 2631 3384 
Q 2631 3775 2401 3997 
Q 2172 4219 1772 4219 
Q 1488 4219 1175 4116 
Q 863 4013 513 3803 
L 513 4441 
Q 834 4594 1145 4672 
Q 1456 4750 1759 4750 
Q 2444 4750 2861 4386 
Q 3278 4022 3278 3431 
Q 3278 3131 3139 2831 
Q 3000 2531 2688 2169 
Q 2513 1966 2180 1606 
Q 1847 1247 1166 531 
z
" transform="scale(0.015625)"/>
        <path id="DejaVuSansMono-35" d="M 647 4666 
L 3009 4666 
L 3009 4134 
L 1222 4134 
L 1222 2988 
Q 1356 3038 1492 3061 
Q 1628 3084 1766 3084 
Q 2491 3084 2916 2656 
Q 3341 2228 3341 1497 
Q 3341 759 2895 334 
Q 2450 -91 1678 -91 
Q 1306 -91 998 -41 
Q 691 9 447 109 
L 447 750 
Q 734 594 1025 517 
Q 1316 441 1619 441 
Q 2141 441 2423 716 
Q 2706 991 2706 1497 
Q 2706 1997 2414 2275 
Q 2122 2553 1600 2553 
Q 1347 2553 1106 2495 
Q 866 2438 647 2322 
L 647 4666 
z
" transform="scale(0.015625)"/>
       </defs>
       <use xlink:href="#DejaVuSansMono-32"/>
       <use xlink:href="#DejaVuSansMono-35" x="60.205078"/>
      </g>
     </g>
    </g>
    <g id="xtick_3">
     <g id="line2d_3">
      <g>
       <use xlink:href="#mfbe9152941" x="146.62788" y="302.4" style="stroke: #000000; stroke-width: 0.8"/>
      </g>
     </g>
     <g id="text_3">
      <!-- 50 -->
      <g transform="translate(140.607567 317.051562) scale(0.1 -0.1)">
       <use xlink:href="#DejaVuSansMono-35"/>
       <use xlink:href="#DejaVuSansMono-30" x="60.205078"/>
      </g>
     </g>
    </g>
    <g id="xtick_4">
     <g id="line2d_4">
      <g>
       <use xlink:href="#mfbe9152941" x="198.996365" y="302.4" style="stroke: #000000; stroke-width: 0.8"/>
      </g>
     </g>
     <g id="text_4">
      <!-- 75 -->
      <g transform="translate(192.976052 317.051562) scale(0.1 -0.1)">
       <defs>
        <path id="DejaVuSansMono-37" d="M 434 4666 
L 3372 4666 
L 3372 4397 
L 1703 0 
L 1044 0 
L 2669 4134 
L 434 4134 
L 434 4666 
z
" transform="scale(0.015625)"/>
       </defs>
       <use xlink:href="#DejaVuSansMono-37"/>
       <use xlink:href="#DejaVuSansMono-35" x="60.205078"/>
      </g>
     </g>
    </g>
    <g id="xtick_5">
     <g id="line2d_5">
      <g>
       <use xlink:href="#mfbe9152941" x="251.36485" y="302.4" style="stroke: #000000; stroke-width: 0.8"/>
      </g>
     </g>
     <g id="text_5">
      <!-- 100 -->
      <g transform="translate(242.334382 317.051562) scale(0.1 -0.1)">
       <defs>
        <path id="DejaVuSansMono-31" d="M 844 531 
L 1825 531 
L 1825 4097 
L 769 3859 
L 769 4434 
L 1819 4666 
L 2450 4666 
L 2450 531 
L 3419 531 
L 3419 0 
L 844 0 
L 844 531 
z
" transform="scale(0.015625)"/>
       </defs>
       <use xlink:href="#DejaVuSansMono-31"/>
       <use xlink:href="#DejaVuSansMono-30" x="60.205078"/>
       <use xlink:href="#DejaVuSansMono-30" x="120.410156"/>
      </g>
     </g>
    </g>
    <g id="xtick_6">
     <g id="line2d_6">
      <g>
       <use xlink:href="#mfbe9152941" x="303.733336" y="302.4" style="stroke: #000000; stroke-width: 0.8"/>
      </g>
     </g>
     <g id="text_6">
      <!-- 125 -->
      <g transform="translate(294.702867 317.051562) scale(0.1 -0.1)">
       <use xlink:href="#DejaVuSansMono-31"/>
       <use xlink:href="#DejaVuSansMono-32" x="60.205078"/>
       <use xlink:href="#DejaVuSansMono-35" x="120.410156"/>
      </g>
     </g>
    </g>
    <g id="xtick_7">
     <g id="line2d_7">
      <g>
       <use xlink:href="#mfbe9152941" x="356.101821" y="302.4" style="stroke: #000000; stroke-width: 0.8"/>
      </g>
     </g>
     <g id="text_7">
      <!-- 150 -->
      <g transform="translate(347.071352 317.051562) scale(0.1 -0.1)">
       <use xlink:href="#DejaVuSansMono-31"/>
       <use xlink:href="#DejaVuSansMono-35" x="60.205078"/>
       <use xlink:href="#DejaVuSansMono-30" x="120.410156"/>
      </g>
     </g>
    </g>
    <g id="xtick_8">
     <g id="line2d_8">
      <g>
       <use xlink:href="#mfbe9152941" x="408.470306" y="302.4" style="stroke: #000000; stroke-width: 0.8"/>
      </g>
     </g>
     <g id="text_8">
      <!-- 175 -->
      <g transform="translate(399.439837 317.051562) scale(0.1 -0.1)">
       <use xlink:href="#DejaVuSansMono-31"/>
       <use xlink:href="#DejaVuSansMono-37" x="60.205078"/>
       <use xlink:href="#DejaVuSansMono-35" x="120.410156"/>
      </g>
     </g>
    </g>
    <g id="text_9">
     <!-- Time since origin [min] -->
     <g transform="translate(161.166406 330.729687) scale(0.1 -0.1)">
      <defs>
       <path id="DejaVuSansMono-54" d="M 147 4666 
L 3706 4666 
L 3706 4134 
L 2247 4134 
L 2247 0 
L 1613 0 
L 1613 4134 
L 147 4134 
L 147 4666 
z
" transform="scale(0.015625)"/>
       <path id="DejaVuSansMono-69" d="M 800 3500 
L 2272 3500 
L 2272 447 
L 3413 447 
L 3413 0 
L 556 0 
L 556 447 
L 1697 447 
L 1697 3053 
L 800 3053 
L 800 3500 
z
M 1697 4863 
L 2272 4863 
L 2272 4134 
L 1697 4134 
L 1697 4863 
z
" transform="scale(0.015625)"/>
       <path id="DejaVuSansMono-6d" d="M 2113 3144 
Q 2219 3369 2383 3476 
Q 2547 3584 2778 3584 
Q 3200 3584 3373 3257 
Q 3547 2931 3547 2028 
L 3547 0 
L 3022 0 
L 3022 2003 
Q 3022 2744 2939 2923 
Q 2856 3103 2638 3103 
Q 2388 3103 2295 2911 
Q 2203 2719 2203 2003 
L 2203 0 
L 1678 0 
L 1678 2003 
Q 1678 2753 1589 2928 
Q 1500 3103 1269 3103 
Q 1041 3103 952 2911 
Q 863 2719 863 2003 
L 863 0 
L 341 0 
L 341 3500 
L 863 3500 
L 863 3200 
Q 966 3388 1120 3486 
Q 1275 3584 1472 3584 
Q 1709 3584 1867 3475 
Q 2025 3366 2113 3144 
z
" transform="scale(0.015625)"/>
       <path id="DejaVuSansMono-65" d="M 3475 1894 
L 3475 1613 
L 984 1613 
L 984 1594 
Q 984 1022 1282 709 
Q 1581 397 2125 397 
Q 2400 397 2700 484 
Q 3000 572 3341 750 
L 3341 178 
Q 3013 44 2708 -23 
Q 2403 -91 2119 -91 
Q 1303 -91 843 398 
Q 384 888 384 1747 
Q 384 2584 834 3084 
Q 1284 3584 2034 3584 
Q 2703 3584 3089 3131 
Q 3475 2678 3475 1894 
z
M 2900 2063 
Q 2888 2569 2661 2833 
Q 2434 3097 2009 3097 
Q 1594 3097 1325 2822 
Q 1056 2547 1006 2059 
L 2900 2063 
z
" transform="scale(0.015625)"/>
       <path id="DejaVuSansMono-20" transform="scale(0.015625)"/>
       <path id="DejaVuSansMono-73" d="M 3041 3378 
L 3041 2816 
Q 2794 2959 2544 3031 
Q 2294 3103 2034 3103 
Q 1644 3103 1451 2976 
Q 1259 2850 1259 2591 
Q 1259 2356 1403 2240 
Q 1547 2125 2119 2016 
L 2350 1972 
Q 2778 1891 2998 1647 
Q 3219 1403 3219 1013 
Q 3219 494 2850 201 
Q 2481 -91 1825 -91 
Q 1566 -91 1281 -36 
Q 997 19 666 128 
L 666 722 
Q 988 556 1281 473 
Q 1575 391 1838 391 
Q 2219 391 2428 545 
Q 2638 700 2638 978 
Q 2638 1378 1872 1531 
L 1847 1538 
L 1631 1581 
Q 1134 1678 906 1908 
Q 678 2138 678 2534 
Q 678 3038 1018 3311 
Q 1359 3584 1991 3584 
Q 2272 3584 2531 3532 
Q 2791 3481 3041 3378 
z
" transform="scale(0.015625)"/>
       <path id="DejaVuSansMono-6e" d="M 3284 2169 
L 3284 0 
L 2706 0 
L 2706 2169 
Q 2706 2641 2540 2862 
Q 2375 3084 2022 3084 
Q 1619 3084 1401 2798 
Q 1184 2513 1184 1978 
L 1184 0 
L 609 0 
L 609 3500 
L 1184 3500 
L 1184 2975 
Q 1338 3275 1600 3429 
Q 1863 3584 2222 3584 
Q 2756 3584 3020 3232 
Q 3284 2881 3284 2169 
z
" transform="scale(0.015625)"/>
       <path id="DejaVuSansMono-63" d="M 3316 178 
Q 3084 44 2839 -23 
Q 2594 -91 2338 -91 
Q 1525 -91 1067 396 
Q 609 884 609 1747 
Q 609 2609 1067 3096 
Q 1525 3584 2338 3584 
Q 2591 3584 2831 3518 
Q 3072 3453 3316 3316 
L 3316 2713 
Q 3088 2916 2858 3006 
Q 2628 3097 2338 3097 
Q 1797 3097 1506 2747 
Q 1216 2397 1216 1747 
Q 1216 1100 1508 748 
Q 1800 397 2338 397 
Q 2638 397 2875 489 
Q 3113 581 3316 775 
L 3316 178 
z
" transform="scale(0.015625)"/>
       <path id="DejaVuSansMono-6f" d="M 1925 3097 
Q 1488 3097 1263 2756 
Q 1038 2416 1038 1747 
Q 1038 1081 1263 739 
Q 1488 397 1925 397 
Q 2366 397 2591 739 
Q 2816 1081 2816 1747 
Q 2816 2416 2591 2756 
Q 2366 3097 1925 3097 
z
M 1925 3584 
Q 2653 3584 3039 3112 
Q 3425 2641 3425 1747 
Q 3425 850 3040 379 
Q 2656 -91 1925 -91 
Q 1197 -91 812 379 
Q 428 850 428 1747 
Q 428 2641 812 3112 
Q 1197 3584 1925 3584 
z
" transform="scale(0.015625)"/>
       <path id="DejaVuSansMono-72" d="M 3609 2778 
Q 3425 2922 3234 2987 
Q 3044 3053 2816 3053 
Q 2278 3053 1993 2715 
Q 1709 2378 1709 1741 
L 1709 0 
L 1131 0 
L 1131 3500 
L 1709 3500 
L 1709 2816 
Q 1853 3188 2151 3386 
Q 2450 3584 2859 3584 
Q 3072 3584 3256 3531 
Q 3441 3478 3609 3366 
L 3609 2778 
z
" transform="scale(0.015625)"/>
       <path id="DejaVuSansMono-67" d="M 2681 1778 
Q 2681 2425 2470 2761 
Q 2259 3097 1856 3097 
Q 1434 3097 1212 2761 
Q 991 2425 991 1778 
Q 991 1131 1214 792 
Q 1438 453 1863 453 
Q 2259 453 2470 793 
Q 2681 1134 2681 1778 
z
M 3256 225 
Q 3256 -563 2884 -969 
Q 2513 -1375 1791 -1375 
Q 1553 -1375 1293 -1331 
Q 1034 -1288 775 -1203 
L 775 -634 
Q 1081 -778 1331 -847 
Q 1581 -916 1791 -916 
Q 2256 -916 2468 -662 
Q 2681 -409 2681 141 
L 2681 166 
L 2681 556 
Q 2544 263 2306 119 
Q 2069 -25 1728 -25 
Q 1116 -25 750 465 
Q 384 956 384 1778 
Q 384 2603 750 3093 
Q 1116 3584 1728 3584 
Q 2066 3584 2300 3450 
Q 2534 3316 2681 3034 
L 2681 3488 
L 3256 3488 
L 3256 225 
z
" transform="scale(0.015625)"/>
       <path id="DejaVuSansMono-5b" d="M 1447 4863 
L 2772 4863 
L 2772 4416 
L 2022 4416 
L 2022 -397 
L 2772 -397 
L 2772 -844 
L 1447 -844 
L 1447 4863 
z
" transform="scale(0.015625)"/>
       <path id="DejaVuSansMono-5d" d="M 2406 4863 
L 2406 -844 
L 1081 -844 
L 1081 -397 
L 1831 -397 
L 1831 4416 
L 1081 4416 
L 1081 4863 
L 2406 4863 
z
" transform="scale(0.015625)"/>
      </defs>
      <use xlink:href="#DejaVuSansMono-54"/>
      <use xlink:href="#DejaVuSansMono-69" x="60.205078"/>
      <use xlink:href="#DejaVuSansMono-6d" x="120.410156"/>
      <use xlink:href="#DejaVuSansMono-65" x="180.615234"/>
      <use xlink:href="#DejaVuSansMono-20" x="240.820312"/>
      <use xlink:href="#DejaVuSansMono-73" x="301.025391"/>
      <use xlink:href="#DejaVuSansMono-69" x="361.230469"/>
      <use xlink:href="#DejaVuSansMono-6e" x="421.435547"/>
      <use xlink:href="#DejaVuSansMono-63" x="481.640625"/>
      <use xlink:href="#DejaVuSansMono-65" x="541.845703"/>
      <use xlink:href="#DejaVuSansMono-20" x="602.050781"/>
      <use xlink:href="#DejaVuSansMono-6f" x="662.255859"/>
      <use xlink:href="#DejaVuSansMono-72" x="722.460938"/>
      <use xlink:href="#DejaVuSansMono-69" x="782.666016"/>
      <use xlink:href="#DejaVuSansMono-67" x="842.871094"/>
      <use xlink:href="#DejaVuSansMono-69" x="903.076172"/>
      <use xlink:href="#DejaVuSansMono-6e" x="963.28125"/>
      <use xlink:href="#DejaVuSansMono-20" x="1023.486328"/>
      <use xlink:href="#DejaVuSansMono-5b" x="1083.691406"/>
      <use xlink:href="#DejaVuSansMono-6d" x="1143.896484"/>
      <use xlink:href="#DejaVuSansMono-69" x="1204.101562"/>
      <use xlink:href="#DejaVuSansMono-6e" x="1264.306641"/>
      <use xlink:href="#DejaVuSansMono-5d" x="1324.511719"/>
     </g>
    </g>
   </g>
   <g id="matplotlib.axis_2">
    <g id="ytick_1"/>
    <g id="ytick_2"/>
    <g id="ytick_3"/>
    <g id="ytick_4"/>
    <g id="ytick_5"/>
   </g>
   <g id="line2d_9">
    <path d="M 41.890909 175.617391 
L 69.85568 175.518287 
L 70.204803 175.20387 
L 71.147436 174.141949 
L 71.321998 174.447941 
L 71.775858 175.928153 
L 72.159894 176.928582 
L 72.369368 177.036768 
L 72.613754 176.860505 
L 73.521474 175.94368 
L 74.568844 175.831356 
L 75.651126 175.452037 
L 76.139898 175.305789 
L 76.628671 175.187764 
L 77.117444 175.320769 
L 78.129901 175.608048 
L 78.793235 175.689012 
L 79.491482 176.041746 
L 79.700955 175.769065 
L 80.015166 174.874985 
L 80.643588 172.728596 
L 80.678501 172.743914 
L 80.81815 173.005938 
L 81.097448 174.218265 
L 81.795695 177.70389 
L 82.005169 177.926769 
L 82.17973 177.772504 
L 82.703415 177.218889 
L 83.401662 176.922716 
L 84.344295 175.842086 
L 84.798155 175.629623 
L 85.007629 175.196702 
L 85.32184 173.868356 
L 85.7757 172.091182 
L 85.985174 171.911186 
L 86.124823 172.141423 
L 86.404122 173.193673 
L 87.207105 176.49935 
L 87.626053 177.066176 
L 88.394124 177.606304 
L 88.673423 177.499711 
L 88.987634 177.022602 
L 89.825529 175.634514 
L 90.314302 175.4085 
L 90.907811 175.025827 
L 91.222022 174.863829 
L 91.501321 175.000783 
L 91.920269 175.482533 
L 92.443954 175.948854 
L 92.862901 176.051316 
L 93.316762 175.932579 
L 93.665885 175.733641 
L 93.910271 175.174247 
L 94.573605 173.471085 
L 94.713255 173.494325 
L 94.887816 173.818559 
L 95.236939 175.182722 
L 95.6908 176.722771 
L 95.970098 177.030673 
L 96.214485 176.95572 
L 96.738169 176.698967 
L 97.05238 176.923732 
L 97.331679 177.037119 
L 97.576065 176.832474 
L 97.890276 176.184965 
L 98.344136 174.65513 
L 98.728172 172.291304 
L 99.14712 170.130057 
L 99.286769 169.989028 
L 99.391506 170.170402 
L 99.635892 171.310595 
L 100.194489 173.877862 
L 100.299226 173.948493 
L 100.334139 173.920498 
L 100.5087 173.459292 
L 100.892736 172.389431 
L 100.997473 172.50233 
L 101.172034 173.278314 
L 101.486245 175.996682 
L 102.00993 182.756472 
L 102.359053 186.534718 
L 102.498703 186.857766 
L 102.533615 186.836954 
L 102.673264 186.440083 
L 102.987475 184.531388 
L 103.895196 178.480418 
L 104.733091 175.258532 
L 104.942565 175.412319 
L 105.152039 175.478973 
L 105.291689 175.27168 
L 105.710637 173.930265 
L 106.024847 172.615255 
L 107.142042 166.889429 
L 107.351516 166.647432 
L 107.491165 166.801459 
L 107.700639 167.586712 
L 108.084675 170.265351 
L 109.341518 179.735127 
L 109.620817 180.2704 
L 109.795378 180.250841 
L 109.96994 179.916025 
L 110.214326 178.807239 
L 110.528537 176.082719 
L 111.610819 165.245427 
L 111.645732 165.25035 
L 111.750468 165.527736 
L 111.92503 166.963457 
L 112.169416 171.23473 
L 112.623277 184.293739 
L 113.077137 195.283201 
L 113.286611 196.9053 
L 113.356435 196.88393 
L 113.461172 196.324172 
L 113.635734 193.932954 
L 113.984857 184.892974 
L 114.508542 172.35888 
L 114.892578 167.989232 
L 115.102052 167.238843 
L 115.206789 167.389785 
L 115.416262 168.524125 
L 115.97486 171.900502 
L 116.114509 171.947774 
L 116.323983 171.576515 
L 116.777843 170.790315 
L 116.88258 170.92617 
L 117.092054 171.730255 
L 117.755388 174.730044 
L 117.895037 174.718287 
L 118.698021 173.928573 
L 118.977319 173.937577 
L 119.116969 174.183457 
L 119.29153 175.023516 
L 119.570829 177.772449 
L 120.373812 186.680209 
L 120.443637 186.752608 
L 120.478549 186.723646 
L 120.583286 186.354746 
L 120.79276 184.52442 
L 122.154341 169.890442 
L 122.29399 169.764163 
L 122.328903 169.785982 
L 122.503464 170.121729 
L 122.8875 171.474743 
L 123.550834 173.998328 
L 124.24908 174.528922 
L 124.423642 174.387754 
L 124.737853 174.109545 
L 124.877502 174.263258 
L 125.191713 175.109353 
L 125.645573 176.848952 
L 126.029609 178.233455 
L 126.134346 178.17689 
L 126.308907 177.540466 
L 126.623118 175.211853 
L 127.25154 170.447969 
L 127.321365 170.401112 
L 127.356277 170.432474 
L 127.495926 170.961904 
L 127.740313 173.173482 
L 128.403647 179.705154 
L 128.578208 180.055259 
L 128.613121 180.039428 
L 128.717858 179.792691 
L 128.927332 178.432529 
L 130.079438 167.860143 
L 130.184175 168.083547 
L 130.358737 169.57361 
L 131.091896 177.141784 
L 131.475931 178.572761 
L 131.615581 178.681874 
L 131.650493 178.65634 
L 131.790142 178.327268 
L 132.348739 176.38569 
L 132.383652 176.395178 
L 132.488389 176.594693 
L 132.66295 177.513828 
L 132.977161 180.696645 
L 133.361197 183.957875 
L 133.431021 183.982935 
L 133.465934 183.911751 
L 133.605583 183.06597 
L 133.919794 179.024686 
L 134.234005 175.799079 
L 134.303829 175.679152 
L 134.338742 175.714545 
L 134.478391 176.442219 
L 135.246462 182.253968 
L 135.351199 182.131214 
L 135.595585 181.178624 
L 135.839972 180.637933 
L 135.944709 180.805607 
L 136.363657 181.998454 
L 136.398569 181.949916 
L 136.538218 181.259957 
L 136.747692 178.582003 
L 137.376114 169.30511 
L 137.655413 168.124141 
L 137.76015 168.111858 
L 137.934711 168.496164 
L 138.388571 169.591701 
L 138.528221 169.551981 
L 139.086818 169.064746 
L 139.331204 169.139845 
L 139.540678 168.85275 
L 139.785064 168.618417 
L 139.924714 168.742521 
L 140.238924 169.094428 
L 140.378574 168.85202 
L 140.657872 168.353268 
L 140.762609 168.524076 
L 141.705242 171.564015 
L 142.054365 172.860746 
L 142.333664 173.023239 
L 142.508226 173.347967 
L 142.787524 174.618426 
L 143.485771 178.351157 
L 143.799981 178.14224 
L 143.834894 178.197832 
L 143.974543 178.741432 
L 144.218929 181.013546 
L 145.091737 190.911123 
L 145.161562 190.841533 
L 145.301211 190.082605 
L 145.545598 187.096815 
L 146.03437 181.137655 
L 146.139107 180.952506 
L 146.174019 180.995788 
L 146.313669 181.695006 
L 146.662792 185.436507 
L 146.977003 187.696859 
L 147.046828 187.738782 
L 147.08174 187.678019 
L 147.221389 186.798157 
L 147.5356 182.232703 
L 147.849811 179.027679 
L 148.198934 177.285278 
L 148.373496 173.764613 
L 148.617882 162.54912 
L 149.141567 135.441137 
L 149.176479 135.413473 
L 149.246304 136.400962 
L 149.385953 143.297683 
L 149.665252 173.53417 
L 150.154024 227.369563 
L 150.293674 230.512012 
L 150.328586 230.214381 
L 150.468235 225.002261 
L 150.887183 193.006937 
L 151.236306 176.380441 
L 151.690167 159.447797 
L 152.074202 131.117143 
L 152.49315 104.736801 
L 152.702624 100.810551 
L 152.737536 100.726348 
L 152.772449 100.775317 
L 152.877186 101.660086 
L 153.08666 106.439614 
L 153.365958 119.105083 
L 153.819818 152.705716 
L 154.483152 197.343048 
L 155.530522 251.094521 
L 155.774908 253.553196 
L 155.844733 253.471215 
L 155.94947 252.604187 
L 156.124032 248.764682 
L 156.438243 235.331006 
L 157.520525 177.888382 
L 157.939473 153.438061 
L 158.428245 131.683573 
L 158.742456 120.781163 
L 158.812281 120.482792 
L 158.847193 120.574661 
L 159.021755 122.426223 
L 159.266141 124.221954 
L 159.440702 124.51737 
L 159.545439 125.53794 
L 159.720001 129.933677 
L 160.138949 141.169799 
L 160.348423 143.530258 
L 160.522984 149.267212 
L 161.116494 172.595899 
L 161.395793 180.110521 
L 161.779828 190.868339 
L 161.849653 191.020263 
L 161.884565 190.93336 
L 162.094039 190.084444 
L 162.128951 190.189032 
L 162.233688 191.29743 
L 162.757373 199.746041 
L 162.792285 199.74013 
L 162.931935 199.711111 
L 163.036672 200.23746 
L 163.385795 203.561005 
L 163.45562 203.196877 
L 163.630181 199.966527 
L 164.014217 192.696637 
L 164.328428 189.796228 
L 164.8172 183.499969 
L 164.991762 182.468052 
L 165.201236 179.269505 
L 165.690008 171.739114 
L 166.074044 168.418225 
L 166.388255 167.503504 
L 166.667553 166.143753 
L 166.77229 166.501291 
L 166.981764 167.455641 
L 167.016677 167.405743 
L 167.121414 166.716749 
L 167.3658 164.595739 
L 167.400712 164.638414 
L 167.505449 165.496219 
L 167.749835 168.268239 
L 167.784748 168.244381 
L 167.889485 167.378481 
L 168.098959 164.950516 
L 168.133871 164.956039 
L 168.203696 165.445085 
L 168.552819 170.418939 
L 168.622644 170.041348 
L 168.86703 167.905147 
L 168.901942 168.017295 
L 169.041591 169.793493 
L 169.251065 172.129355 
L 169.285978 172.079951 
L 169.530364 170.533116 
L 169.600189 170.854769 
L 169.809663 174.4194 
L 169.984224 176.148639 
L 170.019136 176.128728 
L 170.158786 175.758848 
L 170.193698 175.800261 
L 170.298435 176.683597 
L 170.612646 181.177477 
L 170.647558 181.091144 
L 170.82212 179.156067 
L 170.926857 178.429903 
L 170.961769 178.47771 
L 171.066506 179.440859 
L 171.310892 182.06567 
L 171.345805 182.017173 
L 171.520366 180.755323 
L 171.625103 180.435515 
L 171.660016 180.518136 
L 171.904402 181.80788 
L 171.974227 181.540376 
L 172.253525 179.372023 
L 172.32335 179.592198 
L 172.497911 180.47823 
L 172.532824 180.401942 
L 172.637561 179.28116 
L 172.951772 174.969159 
L 173.056509 175.58412 
L 173.196158 176.27861 
L 173.23107 176.17228 
L 173.37072 174.512759 
L 173.545281 172.899394 
L 173.580193 173.014404 
L 173.754755 175.259071 
L 173.894404 176.190634 
L 173.929317 176.06426 
L 174.173703 174.246067 
L 174.208615 174.378006 
L 174.348265 176.28392 
L 174.557739 178.514322 
L 174.627563 178.23487 
L 174.802125 177.204228 
L 174.837037 177.263655 
L 174.976686 178.632968 
L 175.18616 180.46842 
L 175.255985 180.299123 
L 175.430547 179.611387 
L 175.465459 179.650439 
L 175.674933 180.579241 
L 175.744758 180.379913 
L 175.884407 178.516743 
L 176.163705 175.222918 
L 176.338267 175.074199 
L 176.477916 173.609767 
L 176.792127 169.970654 
L 176.896864 170.104054 
L 177.001601 170.20598 
L 177.036513 170.157994 
L 177.245987 169.539303 
L 177.315812 169.664803 
L 177.490374 170.984998 
L 177.699848 171.911233 
L 177.839497 171.839823 
L 177.874409 171.900289 
L 178.014059 172.832217 
L 178.363182 175.604734 
L 178.747217 175.950925 
L 178.851954 175.641793 
L 179.166165 174.148654 
L 179.201078 174.166995 
L 179.375639 174.663515 
L 179.620025 175.037465 
L 179.759675 175.376295 
L 180.353184 178.408116 
L 180.632483 179.934805 
L 180.702307 179.817056 
L 180.911781 178.475807 
L 181.156168 177.512564 
L 181.330729 177.001796 
L 181.784589 174.612393 
L 181.854414 174.677964 
L 182.028976 174.780416 
L 182.203537 174.380001 
L 182.413011 174.129559 
L 182.831959 174.377972 
L 183.006521 175.263037 
L 183.250907 176.319155 
L 183.355644 176.271863 
L 183.60003 175.745351 
L 183.774592 174.823685 
L 184.158627 172.645528 
L 184.542663 172.251666 
L 184.6474 172.335304 
L 184.821962 172.869694 
L 185.066348 174.502338 
L 185.415471 176.638663 
L 185.590033 176.866967 
L 185.729682 177.792467 
L 186.043893 180.158746 
L 186.14863 180.041044 
L 186.288279 179.897773 
L 186.323192 179.935886 
L 186.497753 180.251606 
L 186.567578 180.161858 
L 186.742139 179.201138 
L 186.951613 178.515779 
L 187.126175 178.487512 
L 187.265824 177.976306 
L 187.545123 176.962454 
L 187.929158 176.576262 
L 188.10372 175.737819 
L 188.662317 172.338489 
L 188.976528 172.069131 
L 189.116177 172.431956 
L 189.639862 174.345231 
L 189.814424 174.452322 
L 189.988986 174.18145 
L 190.198459 173.970084 
L 190.477758 174.319287 
L 190.547583 174.216511 
L 190.896706 173.2577 
L 190.966531 173.335719 
L 191.420391 174.279296 
L 191.804426 176.49117 
L 191.839339 176.458842 
L 191.978988 176.327467 
L 192.0139 176.386253 
L 192.15355 177.249161 
L 192.537585 179.908528 
L 192.677234 179.776203 
L 192.851796 179.681338 
L 193.06127 179.997477 
L 193.235832 180.118743 
L 193.375481 179.881429 
L 193.584955 178.932472 
L 193.934078 177.307072 
L 194.178464 176.962622 
L 194.597412 174.892535 
L 194.667237 174.988144 
L 194.806886 175.114 
L 194.841798 175.071679 
L 195.086185 174.51691 
L 195.156009 174.629065 
L 195.47022 175.632622 
L 195.505133 175.599098 
L 195.749519 175.330569 
L 195.924081 175.396058 
L 196.028817 174.958126 
L 196.308116 172.055078 
L 196.796889 168.152225 
L 197.180924 165.94176 
L 197.285661 165.933888 
L 197.495135 166.49116 
L 197.739521 167.509483 
L 197.983908 170.145305 
L 198.647242 177.776134 
L 199.101102 180.816406 
L 199.52005 182.946808 
L 200.008822 185.93337 
L 200.148472 186.06651 
L 200.288121 185.687648 
L 200.741981 183.160578 
L 201.230754 179.117456 
L 202.278123 168.785507 
L 202.38286 168.748281 
L 202.417773 168.793017 
L 202.557422 169.311564 
L 202.836721 171.694176 
L 203.88409 181.156934 
L 204.128477 181.222347 
L 204.233214 181.070605 
L 204.372863 180.306252 
L 205.559882 170.994801 
L 205.804268 170.110262 
L 206.153391 168.225958 
L 206.188304 168.243783 
L 206.43269 168.696724 
L 206.467602 168.644431 
L 206.642164 167.827783 
L 206.781813 167.377337 
L 206.816725 167.391221 
L 206.956375 167.822938 
L 207.270586 168.650087 
L 207.445147 169.490451 
L 209.644624 184.41197 
L 209.854098 184.786588 
L 210.028659 184.50697 
L 210.377782 183.695258 
L 210.587256 182.030084 
L 211.320415 175.560722 
L 211.460064 175.180755 
L 211.494977 175.200647 
L 211.739363 175.511067 
L 211.774275 175.468506 
L 212.088486 174.864022 
L 212.158311 174.923812 
L 212.332873 175.068696 
L 212.367785 175.039577 
L 212.507434 174.643025 
L 213.031119 172.79918 
L 213.554804 171.524574 
L 213.79919 171.268244 
L 214.287963 170.609084 
L 214.497437 170.20467 
L 214.741823 169.763812 
L 214.84656 169.872228 
L 215.230595 170.903628 
L 215.405157 172.070751 
L 216.417614 181.102044 
L 216.557264 180.846309 
L 216.976212 179.543193 
L 217.464984 177.343076 
L 218.30288 176.505118 
L 218.477442 176.865051 
L 218.966214 178.649819 
L 219.245513 179.67121 
L 219.35025 179.586476 
L 219.594636 178.777005 
L 219.908847 177.086986 
L 220.397619 174.395649 
L 221.375164 172.11491 
L 221.863937 170.140048 
L 222.038499 169.932109 
L 222.073411 169.951551 
L 222.178148 170.213982 
L 222.352709 171.431894 
L 223.295342 179.861365 
L 223.434991 179.929983 
L 223.574641 179.712635 
L 223.784115 178.804949 
L 224.203063 177.053679 
L 224.936221 175.195311 
L 225.355169 174.48545 
L 225.390082 174.515882 
L 225.739205 174.950585 
L 225.774117 174.909102 
L 225.983591 174.330562 
L 226.332714 173.574841 
L 226.472364 173.611631 
L 226.71675 174.135417 
L 227.100785 175.182451 
L 227.554646 177.084314 
L 227.868857 177.29868 
L 228.043418 177.207102 
L 228.636928 176.328884 
L 229.020963 175.819635 
L 229.544648 176.057044 
L 229.754122 176.031854 
L 229.928684 176.304628 
L 230.347632 177.081622 
L 230.592018 177.30947 
L 230.836404 177.523267 
L 230.976053 177.137232 
L 231.255352 175.216459 
L 231.953598 170.429363 
L 232.093248 170.225409 
L 232.12816 170.242115 
L 232.302722 170.59677 
L 232.58202 171.789293 
L 233.17553 176.045136 
L 233.594478 178.372165 
L 233.838864 178.755452 
L 234.013425 178.615101 
L 234.327636 177.998305 
L 234.641847 176.645882 
L 234.990971 175.469668 
L 235.340094 174.846846 
L 235.654305 174.31094 
L 235.968516 174.102022 
L 236.17799 174.014385 
L 236.352551 174.248627 
L 237.120622 176.077993 
L 237.469746 176.869215 
L 237.749044 177.41381 
L 238.237817 178.550534 
L 238.412378 178.367404 
L 238.796414 177.577582 
L 239.110625 176.904583 
L 239.63431 176.813332 
L 239.913608 177.363685 
L 240.192907 177.681105 
L 240.332556 177.555532 
L 240.54203 176.878875 
L 241.240276 174.194599 
L 241.484663 173.898782 
L 241.659224 174.043672 
L 241.903611 174.2102 
L 242.113085 174.063502 
L 242.776419 173.289724 
L 242.985893 173.513973 
L 243.788876 174.969318 
L 244.347473 176.073914 
L 244.731509 176.139232 
L 244.871158 175.931758 
L 245.569405 174.442191 
L 245.709054 174.581907 
L 245.95344 175.270412 
L 246.477125 176.796303 
L 246.651687 176.845087 
L 247.105547 176.522357 
L 247.349933 176.030269 
L 248.04818 174.338776 
L 248.222741 174.123595 
L 248.641689 173.389258 
L 248.990812 173.458908 
L 249.235199 173.374821 
L 249.40976 173.828233 
L 250.212744 176.38753 
L 250.701516 176.946388 
L 250.736428 176.919964 
L 250.91099 176.532442 
L 251.679061 174.59147 
L 251.81871 174.739563 
L 252.028184 175.409341 
L 252.307483 177.186116 
L 252.761343 180.130259 
L 253.005729 180.561596 
L 253.145379 180.452387 
L 253.31994 179.825011 
L 254.262573 175.282573 
L 254.437135 175.508239 
L 254.82117 176.014508 
L 255.205206 176.156122 
L 255.624154 175.884884 
L 256.008189 175.723632 
L 256.357313 175.609056 
L 256.566786 175.621204 
L 257.649069 176.496697 
L 257.858542 176.078289 
L 258.975737 173.194838 
L 259.255035 173.213553 
L 259.813633 173.395056 
L 260.197668 174.017227 
L 260.930827 175.206385 
L 261.314862 174.941552 
L 261.524336 174.642153 
L 261.838547 174.195581 
L 261.978197 174.384285 
L 262.746268 176.036819 
L 263.130303 176.24207 
L 263.37469 176.36979 
L 263.619076 176.186786 
L 263.863462 175.717706 
L 264.177673 174.526665 
L 264.910832 171.407975 
L 265.225043 171.095864 
L 265.364692 171.298374 
L 265.609078 172.358424 
L 267.459431 182.070653 
L 267.668905 182.260066 
L 267.843467 182.038544 
L 268.122766 181.253479 
L 269.030486 178.156779 
L 269.205048 178.057911 
L 269.449434 177.500384 
L 269.903294 176.045489 
L 270.566628 173.482842 
L 270.706278 173.442959 
L 270.880839 173.719375 
L 271.264875 174.908181 
L 271.78856 176.650598 
L 272.137683 177.106593 
L 272.277332 176.986619 
L 273.604 174.536592 
L 273.953124 173.035115 
L 274.546633 170.737596 
L 274.895756 170.058642 
L 275.10523 170.029017 
L 275.69874 170.369188 
L 275.943126 170.293044 
L 276.187512 170.523187 
L 276.431899 171.042672 
L 276.885759 172.764951 
L 277.479268 174.89029 
L 277.793479 175.196399 
L 278.212427 175.379275 
L 278.421901 175.477085 
L 278.666287 175.953412 
L 278.945586 176.972028 
L 280.20243 183.044618 
L 280.621377 183.72629 
L 280.865764 183.819603 
L 281.040325 183.663618 
L 281.424361 182.872216 
L 281.703659 181.798053 
L 282.960503 175.923181 
L 283.798399 175.4252 
L 284.147522 175.242258 
L 284.391908 175.243347 
L 284.636295 175.219001 
L 284.915593 174.862822 
L 285.159979 174.215507 
L 285.47419 172.593811 
L 285.858226 169.397902 
L 286.661209 161.938023 
L 286.870683 161.624364 
L 287.010333 161.799703 
L 287.254719 162.631981 
L 287.56893 164.631267 
L 287.987878 168.858738 
L 289.139984 181.421212 
L 289.52402 183.199975 
L 289.733494 183.405515 
L 289.908055 183.133984 
L 290.292091 182.480445 
L 290.711039 182.211467 
L 290.990337 182.439303 
L 291.444198 182.750114 
L 291.688584 182.634126 
L 291.898058 182.203384 
L 292.212269 180.7701 
L 293.294551 175.184267 
L 293.504025 175.102588 
L 293.713499 175.332776 
L 294.167359 176.419839 
L 294.830693 177.743569 
L 295.040167 177.769176 
L 295.249641 177.514828 
L 295.52894 176.72779 
L 295.808238 175.202263 
L 296.506485 170.968425 
L 296.715959 170.832869 
L 296.89052 170.97216 
L 297.239643 171.334754 
L 297.48403 171.153264 
L 298.182276 170.651171 
L 298.39175 170.764773 
L 298.601224 171.239091 
L 299.159821 172.752235 
L 299.334383 172.777294 
L 299.474032 172.461092 
L 299.788243 170.910291 
L 300.277016 168.755325 
L 300.521402 168.51321 
L 300.661051 168.642826 
L 300.870525 169.278514 
L 301.114911 170.817 
L 301.533859 175.323349 
L 302.651054 188.078262 
L 302.790703 188.315228 
L 302.825615 188.302644 
L 302.965264 187.985285 
L 303.279475 186.290689 
L 303.872985 182.054275 
L 304.326845 175.877474 
L 304.85053 169.838054 
L 305.060004 169.175204 
L 305.164741 169.313133 
L 305.339302 170.20847 
L 305.618601 173.351207 
L 306.700883 187.291271 
L 307.189656 191.105867 
L 307.434042 191.746475 
L 307.538779 191.574447 
L 307.71334 190.481979 
L 307.957727 187.063909 
L 308.411587 176.47916 
L 309.598606 148.569939 
L 310.087378 142.064447 
L 310.296852 141.12043 
L 310.366677 141.142073 
L 310.471414 141.503293 
L 310.680888 143.426091 
L 310.995099 149.122963 
L 311.448959 162.152806 
L 313.020014 210.865255 
L 313.334225 214.095927 
L 313.438962 214.256021 
L 313.473874 214.219914 
L 313.613523 213.710245 
L 313.857909 211.846765 
L 314.137208 207.926008 
L 314.556156 198.41647 
L 316.231947 155.732827 
L 316.72072 150.04496 
L 317.034931 148.460699 
L 317.244405 148.155068 
L 317.349142 148.268366 
L 317.523703 148.906686 
L 317.76809 150.768477 
L 318.152125 155.954625 
L 318.920196 169.864186 
L 319.653355 182.973186 
L 320.281777 190.295056 
L 320.595988 191.856141 
L 320.945111 192.548536 
L 321.119673 192.576973 
L 321.329147 192.27651 
L 321.67827 191.272463 
L 322.027393 189.48159 
L 322.446341 185.91906 
L 323.074763 178.587283 
L 323.842834 169.04418 
L 324.366519 164.774099 
L 324.645817 163.961368 
L 325.029853 163.486045 
L 325.169502 163.670945 
L 325.413888 164.605128 
L 326.356521 169.516996 
L 326.810381 172.940049 
L 328.102137 183.097115 
L 328.276699 183.333047 
L 328.486173 183.172532 
L 328.765472 182.819189 
L 328.974945 181.917695 
L 330.196877 175.057432 
L 330.755474 172.807035 
L 330.99986 172.447904 
L 331.13951 172.567987 
L 331.523545 173.441629 
L 331.802844 174.59186 
L 332.256704 176.435949 
L 332.815301 177.762055 
L 332.850213 177.747254 
L 333.024775 177.412817 
L 333.897583 175.262855 
L 334.141969 175.020275 
L 334.491093 174.819558 
L 335.014777 174.3386 
L 335.713024 174.606614 
L 336.027235 175.546642 
L 336.620744 177.121426 
L 336.865131 177.307533 
L 337.144429 177.115873 
L 337.703026 176.456707 
L 338.226711 175.852658 
L 338.680571 175.388123 
L 339.623204 173.880272 
L 340.00724 173.599582 
L 340.321451 173.554799 
L 340.496012 173.490025 
L 340.705486 173.06296 
L 341.089522 172.320322 
L 341.438645 172.067352 
L 341.578294 172.170914 
L 341.752856 172.608008 
L 342.067067 174.182831 
L 343.219173 180.432159 
L 343.428647 180.699414 
L 343.91742 180.615237 
L 344.126894 180.182384 
L 344.650579 178.339197 
L 345.313913 176.043174 
L 345.628124 175.55343 
L 345.87251 175.521806 
L 346.151809 175.786684 
L 346.431107 175.932574 
L 346.850055 175.71953 
L 347.059529 175.378346 
L 347.653039 173.589244 
L 348.351285 171.681874 
L 348.665496 171.368093 
L 348.840058 171.45699 
L 349.119356 171.924594 
L 349.608129 173.250925 
L 350.271463 175.03271 
L 351.28392 176.650474 
L 351.667956 177.034277 
L 352.086904 177.584906 
L 352.470939 177.634227 
L 352.715325 177.412246 
L 353.308835 176.779318 
L 353.518309 176.91393 
L 353.797608 177.387599 
L 354.321292 178.316866 
L 354.635503 178.481392 
L 354.810065 178.334772 
L 355.054451 177.7448 
L 355.543224 175.771389 
L 356.136733 173.616793 
L 356.69533 172.201337 
L 357.009541 171.752662 
L 357.28884 171.712673 
L 357.463401 171.904393 
L 357.7427 172.693508 
L 359.488316 178.084359 
L 359.977089 178.800933 
L 360.221475 178.914989 
L 360.430949 178.717725 
L 360.710248 178.074329 
L 361.303757 175.914339 
L 361.722705 174.649493 
L 362.351127 173.820673 
L 362.560601 173.873932 
L 363.328672 174.574298 
L 364.690252 176.336419 
L 365.004463 176.313729 
L 365.528148 176.357847 
L 365.772534 176.489321 
L 366.645343 177.283447 
L 366.854817 177.03932 
L 367.169027 176.252864 
L 368.041836 173.763445 
L 368.425871 173.281809 
L 368.70517 173.279622 
L 369.263767 173.589494 
L 369.61289 174.29339 
L 369.962013 175.326097 
L 370.555523 177.262861 
L 370.869734 177.687228 
L 371.044295 177.560549 
L 371.498156 176.696934 
L 372.405876 174.894756 
L 372.754999 174.87668 
L 372.999385 175.030185 
L 373.557983 175.536342 
L 373.872194 175.833733 
L 374.11658 175.959724 
L 374.430791 175.808572 
L 375.792371 175.042327 
L 376.665179 174.872512 
L 377.11904 175.260175 
L 377.642724 175.919687 
L 378.166409 176.300807 
L 378.445708 176.680673 
L 379.667639 179.169684 
L 379.877113 179.122702 
L 380.086587 178.744388 
L 380.470623 177.453611 
L 381.273606 174.547716 
L 381.692554 173.920735 
L 382.07659 173.427787 
L 382.705011 172.565032 
L 382.949398 172.552325 
L 383.158872 172.799791 
L 383.473083 173.667539 
L 383.926943 174.779676 
L 384.206241 175.050248 
L 384.415715 174.949748 
L 385.113962 174.378109 
L 385.358348 174.640096 
L 385.637647 175.258958 
L 386.266068 176.861787 
L 386.475542 176.935146 
L 386.685016 176.746441 
L 387.488 175.652627 
L 387.697474 175.868573 
L 388.779756 177.4135 
L 389.128879 177.370782 
L 389.478002 176.903956 
L 390.001687 176.013473 
L 390.979232 174.272804 
L 391.468005 173.740799 
L 391.677479 173.789295 
L 391.921865 174.149811 
L 392.44555 175.538906 
L 392.969235 176.61085 
L 393.213621 176.716848 
L 393.458007 176.539731 
L 394.330815 175.639223 
L 394.540289 175.800254 
L 394.994149 176.598999 
L 395.448009 177.235574 
L 395.727308 177.281149 
L 396.006607 177.052257 
L 396.35573 176.43786 
L 396.774678 175.114676 
L 397.647486 172.250934 
L 397.85696 172.158473 
L 398.066434 172.369219 
L 398.450469 173.147827 
L 399.043979 175.090535 
L 400.021524 178.027705 
L 400.475384 178.77528 
L 400.71977 178.855445 
L 400.929244 178.664348 
L 401.243455 178.019502 
L 402.709773 174.502196 
L 403.058896 174.443552 
L 404.211003 174.751636 
L 404.944161 175.249535 
L 405.572583 175.646377 
L 406.13118 175.710925 
L 407.108726 175.541601 
L 407.422936 175.737041 
L 408.22592 176.309518 
L 408.470306 176.184435 
L 408.819429 175.702184 
L 409.971536 173.783159 
L 410.250835 173.737597 
L 410.495221 173.932974 
L 410.914169 174.645252 
L 411.856802 176.274603 
L 412.415399 176.790283 
L 412.799434 176.853206 
L 413.18347 176.669146 
L 414.789437 175.528941 
L 415.732069 175.448959 
L 416.814351 175.569917 
L 417.931546 175.633727 
L 418.909091 175.617391 
L 418.909091 175.617391 
" clip-path="url(#pf05283c057)" style="fill: none; stroke: #000000; stroke-width: 0.75; stroke-linecap: square"/>
   </g>
   <g id="line2d_10">
    <path d="M 41.890909 195.902609 
L 69.99533 195.795214 
L 70.274628 195.611308 
L 70.553927 195.107313 
L 71.35691 193.280486 
L 71.496559 193.580857 
L 71.740946 194.760291 
L 72.369368 197.99815 
L 72.543929 198.086039 
L 72.648666 198.018954 
L 73.696036 196.353729 
L 74.184808 196.319497 
L 74.743406 196.221607 
L 75.336915 195.808231 
L 75.895512 195.550481 
L 76.593759 195.247768 
L 77.012707 195.136389 
L 77.431654 195.295896 
L 79.805692 196.460951 
L 79.980254 196.034754 
L 80.259553 194.530381 
L 80.783238 191.383092 
L 80.957799 191.473825 
L 81.132361 192.459287 
L 82.005169 198.95207 
L 82.214643 198.961505 
L 82.982714 198.198699 
L 83.436574 197.943077 
L 84.134821 197.375277 
L 84.414119 197.544165 
L 84.72833 197.703985 
L 84.833067 197.634361 
L 85.042541 197.069978 
L 85.32184 195.422757 
L 85.950261 191.360804 
L 86.124823 191.227582 
L 86.22956 191.400754 
L 86.439034 192.20328 
L 87.521316 197.326957 
L 88.010088 198.021563 
L 88.813072 199.029 
L 88.987634 198.876425 
L 89.23202 198.310725 
L 90.27939 195.459991 
L 90.663425 195.163397 
L 91.18711 195.070887 
L 92.304304 195.025407 
L 92.653428 195.450013 
L 93.386586 196.465714 
L 93.526236 196.344439 
L 93.700797 195.847875 
L 93.980096 194.211764 
L 94.573605 190.551029 
L 94.678342 190.543788 
L 94.817992 190.826515 
L 95.09729 192.526951 
L 95.655887 196.108731 
L 95.865361 196.435709 
L 96.039923 196.30883 
L 96.528695 195.633469 
L 96.668345 195.830131 
L 96.877819 196.589596 
L 97.50624 199.210656 
L 97.680802 199.194712 
L 97.925188 198.542702 
L 99.112207 193.817092 
L 99.566068 189.575896 
L 99.915191 187.169875 
L 99.985015 187.145472 
L 100.019928 187.194351 
L 100.124665 187.512407 
L 100.334139 189.679579 
L 100.753087 197.315766 
L 101.137122 202.61917 
L 101.346596 203.429384 
L 101.521158 203.399828 
L 101.730632 203.294858 
L 101.835369 203.544572 
L 102.00993 204.647394 
L 102.324141 208.617029 
L 102.673264 212.326882 
L 102.812914 212.389348 
L 102.847826 212.348097 
L 103.022388 210.960902 
L 104.418881 195.740149 
L 104.837828 193.330955 
L 105.152039 192.619179 
L 105.570987 191.903133 
L 105.815373 190.869643 
L 106.129584 188.478403 
L 106.688182 182.01764 
L 107.176954 177.431965 
L 107.42134 176.742837 
L 107.526077 176.778509 
L 107.700639 177.402886 
L 107.979938 179.564501 
L 108.433798 185.261573 
L 109.097132 193.078426 
L 110.004852 199.514589 
L 110.388888 201.621191 
L 110.493625 201.735011 
L 110.528537 201.693772 
L 110.668186 201.168702 
L 110.87766 199.069095 
L 111.191871 193.170946 
L 111.890118 179.041806 
L 111.994855 178.878294 
L 112.064679 179.419614 
L 112.239241 183.087066 
L 112.483627 193.564049 
L 113.42626 241.73201 
L 113.496085 242.054509 
L 113.530997 241.903998 
L 113.670646 239.39828 
L 113.915033 229.037046 
L 114.718016 190.616245 
L 114.857665 189.531529 
L 114.892578 189.556995 
L 115.032227 190.36514 
L 115.625736 195.96538 
L 115.695561 195.973845 
L 115.800298 195.447104 
L 116.044684 193.090615 
L 116.638194 187.198247 
L 116.777843 186.849786 
L 116.812755 186.867902 
L 116.952405 187.27707 
L 117.161879 189.164593 
L 117.999774 198.474115 
L 118.069599 198.398689 
L 118.244161 197.547587 
L 119.116969 191.565119 
L 119.256618 191.680128 
L 119.43118 192.368877 
L 119.675566 194.405925 
L 119.954865 198.754178 
L 120.3389 209.014356 
L 120.79276 220.506523 
L 120.897497 221.062358 
L 120.93241 220.880735 
L 121.072059 218.699033 
L 121.316445 208.344544 
L 122.014692 173.015969 
L 122.119429 172.490398 
L 122.154341 172.678077 
L 122.328903 176.38324 
L 122.852587 190.570556 
L 122.922412 190.881639 
L 122.957324 190.872186 
L 123.096974 189.40798 
L 123.620658 181.71481 
L 123.655571 181.78394 
L 123.79522 183.130699 
L 124.458554 194.314874 
L 124.528379 194.217622 
L 124.633116 193.762553 
L 125.401187 186.701097 
L 125.436099 186.729235 
L 125.610661 187.413047 
L 125.994696 190.543842 
L 126.518381 194.431746 
L 126.658031 194.598996 
L 126.79768 194.076441 
L 127.007154 191.866484 
L 127.740313 182.503984 
L 127.84505 183.267746 
L 128.019611 186.301191 
L 128.368734 197.620619 
L 128.787682 209.425591 
L 128.962244 210.127769 
L 129.032069 209.641304 
L 129.276455 204.853822 
L 129.765227 194.453488 
L 129.904877 194.261842 
L 129.939789 194.290352 
L 130.114351 195.79022 
L 130.498386 199.1706 
L 130.638036 199.388896 
L 130.672948 199.368366 
L 130.917334 199.221622 
L 130.952246 199.278043 
L 131.091896 199.808476 
L 131.336282 202.293465 
L 131.999616 210.214603 
L 132.20909 210.714517 
L 132.278915 210.693573 
L 132.453476 210.045652 
L 133.081898 206.62632 
L 133.11681 206.665184 
L 133.25646 207.14088 
L 133.500846 209.595948 
L 133.954706 214.12897 
L 134.024531 214.184577 
L 134.059443 214.096031 
L 134.234005 212.141483 
L 134.652953 202.598597 
L 134.932251 198.691597 
L 135.002076 198.537889 
L 135.036988 198.599386 
L 135.176638 199.269699 
L 135.595585 202.317864 
L 135.700322 202.251018 
L 135.874884 200.57298 
L 136.503306 192.985939 
L 136.677867 192.760535 
L 136.922254 192.790647 
L 137.061903 192.343742 
L 137.271377 190.54986 
L 138.353659 178.926901 
L 138.947169 176.077443 
L 139.680327 171.97509 
L 139.819977 171.893463 
L 139.959626 172.140321 
L 140.238924 173.520892 
L 141.041908 179.395804 
L 141.391031 183.941743 
L 141.949628 195.357978 
L 142.368576 201.496452 
L 142.647875 202.823446 
L 143.241384 204.012627 
L 143.555595 206.164481 
L 144.009455 211.24785 
L 144.952088 223.006676 
L 145.021913 222.93755 
L 145.161562 222.020672 
L 145.405948 217.649794 
L 146.069283 202.421657 
L 146.104195 202.480123 
L 146.208932 203.178745 
L 146.348581 206.690125 
L 146.592967 219.377665 
L 147.151565 250.630774 
L 147.186477 250.605802 
L 147.291214 248.743935 
L 147.395951 243.247952 
L 147.640337 216.237359 
L 148.373496 122.636505 
L 148.408408 122.431473 
L 148.443321 122.812753 
L 148.58297 127.801714 
L 148.862268 158.528103 
L 149.455778 227.460262 
L 149.769989 240.168472 
L 150.014375 243.271079 
L 150.049287 243.318051 
L 150.0842 243.28364 
L 150.188937 242.962089 
L 150.328586 240.50051 
L 150.53806 231.268971 
L 150.817359 207.191958 
L 151.759991 116.13006 
L 152.144027 101.48 
L 152.318588 99.540597 
L 152.353501 99.457876 
L 152.388413 99.5258 
L 152.528062 101.747606 
L 152.772449 111.366834 
L 153.226309 140.32255 
L 153.889643 195.43789 
L 154.797363 271.993961 
L 155.251224 292.896709 
L 155.49561 297.289892 
L 155.600347 297.303221 
L 155.670171 297.196116 
L 155.809821 295.214486 
L 156.054207 287.906424 
L 156.40333 269.350537 
L 157.101577 216.007238 
L 157.939473 155.639344 
L 158.393333 138.504109 
L 158.742456 132.329317 
L 158.917018 131.57571 
L 158.986842 131.680795 
L 159.161404 133.006407 
L 159.440702 137.86229 
L 159.85965 149.944973 
L 160.767371 184.834502 
L 161.50053 209.176038 
L 161.95439 218.163187 
L 162.268601 221.102338 
L 162.478075 221.639404 
L 162.582812 221.550185 
L 162.757373 221.02709 
L 163.036672 219.40937 
L 163.525444 215.065242 
L 166.492992 185.778474 
L 166.632641 185.751169 
L 166.842115 186.34936 
L 167.610186 188.979359 
L 167.784748 189.008925 
L 167.994222 188.837657 
L 168.378257 188.534979 
L 168.552819 188.680867 
L 168.797205 189.309454 
L 169.181241 191.039268 
L 170.22861 195.978126 
L 171.031594 199.391313 
L 171.764753 202.639474 
L 171.974227 202.885525 
L 172.148788 202.773155 
L 172.428087 202.028505 
L 173.021596 200.370078 
L 173.754755 199.058704 
L 174.27844 197.692907 
L 174.453002 197.714576 
L 174.662475 198.303269 
L 175.360722 201.13048 
L 175.430547 201.052121 
L 175.570196 200.603815 
L 175.849494 198.474154 
L 176.861952 189.33305 
L 177.106338 188.729786 
L 177.211075 188.79453 
L 177.385637 189.360085 
L 177.664935 191.312655 
L 178.258445 195.43657 
L 178.398094 195.620722 
L 178.433006 195.606824 
L 178.572656 195.432509 
L 179.445464 193.256419 
L 179.585113 193.341578 
L 179.794587 193.727661 
L 180.178623 195.061801 
L 180.73722 196.916349 
L 180.911781 196.989121 
L 181.051431 196.839342 
L 181.330729 195.950867 
L 182.482836 191.344776 
L 182.622485 191.497729 
L 182.797047 192.129309 
L 183.565118 195.955211 
L 183.634943 195.918926 
L 183.774592 195.657537 
L 184.472838 193.466748 
L 184.507751 193.478021 
L 184.612488 193.657037 
L 184.891786 194.912031 
L 185.659857 198.840525 
L 186.218455 200.153579 
L 186.951613 201.561491 
L 187.091263 201.508054 
L 187.265824 201.158492 
L 187.510211 200.097411 
L 188.487756 195.182375 
L 188.69723 195.179596 
L 188.941616 195.678186 
L 189.465301 196.879549 
L 189.674775 196.801486 
L 189.919161 196.187049 
L 190.303196 194.405003 
L 190.791969 190.906735 
L 191.176005 188.741899 
L 191.245829 188.678129 
L 191.280741 188.719552 
L 191.420391 189.206197 
L 191.664777 191.696367 
L 192.502673 202.222858 
L 192.60741 202.390411 
L 192.642322 202.360785 
L 192.781971 201.987467 
L 193.096182 199.857385 
L 193.759516 195.253269 
L 194.038815 194.514542 
L 194.213377 194.476694 
L 194.318114 194.569464 
L 194.5625 195.200483 
L 195.330571 197.58407 
L 195.435308 197.48481 
L 195.60987 196.966796 
L 195.854256 195.481669 
L 196.308116 191.039593 
L 196.936538 185.230769 
L 197.146012 184.698457 
L 197.285661 184.863055 
L 197.495135 186.074229 
L 197.809346 189.46486 
L 198.891628 202.287709 
L 199.450225 205.384637 
L 200.288121 208.987673 
L 200.462683 209.157493 
L 200.602332 209.038592 
L 200.811806 208.108656 
L 201.056192 205.832054 
L 201.47514 199.490303 
L 202.033737 191.84488 
L 202.313036 190.341574 
L 202.487597 190.192549 
L 202.662159 190.54155 
L 202.906545 191.829941 
L 203.255668 195.170568 
L 203.919003 201.829813 
L 204.093564 202.158645 
L 204.198301 201.949584 
L 204.372863 200.990152 
L 204.652161 198.064147 
L 205.83918 183.773515 
L 206.013742 183.722588 
L 206.118479 183.946381 
L 206.746901 185.728895 
L 206.781813 185.716891 
L 206.921462 185.535692 
L 207.514972 184.1449 
L 207.549884 184.172262 
L 207.724446 184.841248 
L 208.003744 187.345006 
L 209.400237 202.831047 
L 210.028659 207.476233 
L 210.203221 207.812668 
L 210.307958 207.765926 
L 210.517432 206.916208 
L 210.831643 204.410405 
L 211.948837 194.75846 
L 212.228136 193.828192 
L 212.332873 193.780324 
L 212.367785 193.817277 
L 212.542347 194.276911 
L 212.856557 196.116446 
L 213.380242 199.143707 
L 213.554804 199.248835 
L 213.694453 198.854871 
L 213.938839 197.161451 
L 214.3927 191.929669 
L 214.881472 187.267124 
L 215.056034 186.780122 
L 215.090946 186.798502 
L 215.230595 187.080863 
L 215.440069 188.618832 
L 215.824105 193.605563 
L 216.312877 199.055822 
L 216.557264 199.909372 
L 216.766738 199.899803 
L 217.150773 199.616296 
L 217.360247 199.747817 
L 217.988669 200.295304 
L 218.791652 200.112922 
L 219.036039 199.909964 
L 219.35025 199.227388 
L 219.80411 198.293841 
L 219.978671 198.350692 
L 220.188145 198.781523 
L 220.676918 199.859363 
L 220.816567 199.730149 
L 220.991129 199.064184 
L 221.270427 196.938418 
L 222.422534 186.336236 
L 222.492359 186.422328 
L 222.66692 187.334223 
L 222.981131 190.900818 
L 223.574641 197.504452 
L 223.853939 198.489782 
L 224.098326 198.693035 
L 224.517273 198.729168 
L 224.726747 198.513375 
L 224.971134 197.860851 
L 225.494819 195.473948 
L 226.158153 192.838883 
L 226.472364 192.263074 
L 226.646925 192.269828 
L 226.856399 192.522735 
L 227.345172 193.190819 
L 227.62447 193.097528 
L 228.532191 192.381614 
L 228.741665 192.66496 
L 228.986051 193.41338 
L 229.335174 195.243477 
L 230.103245 199.465368 
L 230.312719 199.701374 
L 230.452368 199.587853 
L 230.696755 198.722647 
L 231.150615 195.870704 
L 231.639387 193.250877 
L 231.918686 192.686196 
L 232.12816 192.643681 
L 232.337634 192.773194 
L 232.651845 193.201746 
L 232.931143 193.969703 
L 233.315179 195.852577 
L 233.908689 198.762914 
L 234.187987 199.174013 
L 234.362549 199.090504 
L 234.606935 198.64738 
L 235.305181 197.242949 
L 235.479743 197.344412 
L 235.724129 198.027439 
L 236.4922 200.705109 
L 236.596937 200.643556 
L 236.841324 199.94955 
L 237.365009 198.302724 
L 237.53957 198.247532 
L 237.783956 198.557855 
L 238.202904 199.110438 
L 238.412378 199.047626 
L 239.005888 198.559106 
L 239.180449 198.848937 
L 239.49466 200.0214 
L 239.983433 201.768828 
L 240.123082 201.821807 
L 240.297644 201.438857 
L 240.576942 199.893257 
L 241.624312 192.974083 
L 242.462208 190.085157 
L 243.230279 186.296753 
L 243.404841 186.199053 
L 243.579402 186.522902 
L 243.858701 187.774747 
L 244.871158 192.998289 
L 245.220281 193.624987 
L 245.604317 193.889775 
L 246.023265 193.934569 
L 246.337476 193.714489 
L 247.210284 192.820114 
L 247.384845 193.047072 
L 247.699056 193.932326 
L 248.222741 195.413532 
L 248.397303 195.475383 
L 248.536952 195.365906 
L 248.886075 194.625211 
L 249.165374 194.270046 
L 249.305023 194.358276 
L 249.514497 195.045639 
L 249.828708 197.044236 
L 250.422218 200.783589 
L 250.631691 201.071345 
L 250.771341 200.922175 
L 251.015727 200.216748 
L 251.5045 198.860305 
L 251.679061 198.808432 
L 251.81871 198.928301 
L 252.098009 199.593741 
L 252.551869 201.388356 
L 253.354853 204.691318 
L 253.564327 204.794897 
L 253.738888 204.507281 
L 254.018187 203.40139 
L 255.030644 198.779424 
L 255.240118 198.646532 
L 255.41468 198.740045 
L 255.86854 199.041604 
L 256.043102 198.810611 
L 256.3224 197.899051 
L 257.265033 194.270647 
L 259.499422 189.075643 
L 260.058019 187.576117 
L 260.302405 187.484952 
L 260.476967 187.635347 
L 260.82609 188.286576 
L 262.048021 191.207745 
L 262.746268 193.116052 
L 263.060479 193.366353 
L 263.549251 193.624797 
L 263.82855 194.1525 
L 265.32978 197.743088 
L 265.713815 198.696698 
L 266.167675 200.534397 
L 267.599081 207.105904 
L 267.808555 207.098928 
L 268.052941 206.597015 
L 269.100311 203.784206 
L 269.449434 202.912987 
L 269.763645 201.449369 
L 270.252417 197.886328 
L 270.880839 193.628314 
L 271.19505 192.707884 
L 271.369612 192.60864 
L 271.544173 192.706676 
L 271.858384 193.260135 
L 272.277332 193.893504 
L 272.486806 193.862262 
L 272.69628 193.50593 
L 273.010491 192.363412 
L 273.499263 189.538226 
L 274.337159 184.700594 
L 274.686282 183.815376 
L 274.965581 183.610441 
L 275.454354 183.648552 
L 275.69874 183.82846 
L 275.908214 184.280484 
L 276.1526 185.378081 
L 276.536636 188.449682 
L 277.374531 195.54716 
L 277.758567 196.989967 
L 278.491726 199.188554 
L 278.945586 201.606055 
L 280.06278 207.957425 
L 280.551553 209.402204 
L 280.935588 209.939014 
L 281.179975 209.97557 
L 281.424361 209.729361 
L 281.738572 209.01369 
L 282.262257 207.118343 
L 282.716117 204.723351 
L 283.135065 201.099707 
L 284.810856 184.167651 
L 285.439278 180.587298 
L 285.823314 179.51622 
L 286.137525 179.227867 
L 286.381911 179.269807 
L 286.626297 179.575763 
L 286.905596 180.34971 
L 287.219807 181.940896 
L 287.638754 185.425178 
L 289.52402 203.619318 
L 290.047705 205.85953 
L 290.536477 207.068812 
L 290.850688 207.377918 
L 291.199811 207.300085 
L 291.548935 207.242643 
L 291.758409 207.43779 
L 292.52648 208.460421 
L 292.701041 208.258592 
L 292.98034 207.484613 
L 293.538937 204.991392 
L 294.795781 198.343227 
L 295.598764 192.455331 
L 296.331923 184.833429 
L 296.995257 179.062299 
L 297.414205 176.981249 
L 297.588767 176.892685 
L 297.728416 177.277332 
L 297.972802 178.913734 
L 299.29947 189.831911 
L 299.788243 191.774266 
L 299.927892 191.864805 
L 299.962805 191.829591 
L 300.137366 191.391076 
L 300.451577 189.682607 
L 300.8007 188.110458 
L 300.870525 188.055991 
L 300.905437 188.082505 
L 301.045087 188.412705 
L 301.254561 189.983109 
L 301.568772 194.428276 
L 302.127369 206.471027 
L 302.790703 219.594046 
L 303.070001 221.669716 
L 303.174738 221.793776 
L 303.209651 221.766454 
L 303.3493 221.200311 
L 303.593686 218.892798 
L 303.977722 212.63251 
L 305.094916 192.426265 
L 305.339302 191.335745 
L 305.444039 191.346871 
L 305.583689 191.649996 
L 305.828075 193.309604 
L 306.142286 197.546477 
L 307.224568 214.512387 
L 307.294393 214.610913 
L 307.329305 214.569892 
L 307.468954 214.03445 
L 307.678428 211.728782 
L 307.957727 206.009718 
L 308.376675 192.353119 
L 309.563694 150.649837 
L 309.877905 146.309693 
L 310.017554 145.818896 
L 310.052466 145.842222 
L 310.192115 146.410442 
L 310.401589 148.953353 
L 310.7158 156.188789 
L 311.134748 171.785325 
L 312.845452 243.777721 
L 313.159663 248.071155 
L 313.299312 248.669536 
L 313.334225 248.662473 
L 313.473874 248.327442 
L 313.683348 246.238146 
L 313.962646 240.808933 
L 314.416507 226.695242 
L 316.12721 168.406708 
L 316.511246 162.403784 
L 316.755632 160.947403 
L 316.895282 160.847611 
L 317.069843 161.439477 
L 317.349142 163.604989 
L 317.803002 169.255643 
L 318.361599 179.343926 
L 319.967566 210.954496 
L 320.351602 213.955779 
L 320.665812 215.017893 
L 320.980023 215.391671 
L 321.22441 215.381088 
L 321.433884 215.132154 
L 321.67827 214.425139 
L 321.957568 212.869747 
L 322.341604 209.187925 
L 323.004938 199.97135 
L 323.912659 188.452934 
L 324.610905 181.811315 
L 324.925116 180.476047 
L 325.099678 180.408904 
L 325.274239 180.767012 
L 325.658275 182.413312 
L 326.670732 187.920608 
L 327.08968 191.937267 
L 328.311611 205.042568 
L 328.486173 205.220084 
L 328.59091 205.092534 
L 328.800384 204.380503 
L 329.254244 201.734138 
L 330.441263 194.761266 
L 331.034773 192.400228 
L 331.279159 191.995156 
L 331.45372 192.051943 
L 331.663194 192.643696 
L 331.942493 194.29604 
L 333.024775 201.819926 
L 333.199337 201.937416 
L 333.373898 201.69309 
L 333.688109 200.60821 
L 334.630742 197.155145 
L 335.189339 195.841007 
L 335.433725 195.753123 
L 335.608287 195.913035 
L 336.236709 196.674801 
L 336.41127 196.420058 
L 336.655657 195.566194 
L 337.388815 192.633863 
L 337.598289 192.575299 
L 337.807763 192.918915 
L 338.191799 194.168854 
L 338.855133 196.186643 
L 339.169344 196.564893 
L 339.448643 196.482283 
L 339.693029 196.096965 
L 340.042152 195.107996 
L 340.600749 192.729656 
L 341.054609 191.092903 
L 341.264083 190.944932 
L 341.438645 191.217924 
L 341.683031 192.221987 
L 342.101979 195.144644 
L 343.184261 203.037059 
L 343.568297 204.401365 
L 343.742858 204.508632 
L 343.882508 204.325747 
L 344.126894 203.308579 
L 344.545842 200.105057 
L 345.069527 196.405894 
L 345.313913 195.76049 
L 345.523387 195.83171 
L 345.802685 196.541895 
L 346.32637 197.926362 
L 346.500932 197.937987 
L 346.675494 197.574666 
L 346.91988 196.387254 
L 347.338828 192.916487 
L 348.141811 186.25319 
L 348.42111 185.327537 
L 348.560759 185.280256 
L 348.700408 185.408743 
L 348.979707 186.258533 
L 349.887427 190.366475 
L 350.411112 193.421175 
L 351.493394 200.429053 
L 351.73778 200.757128 
L 351.842517 200.700584 
L 352.051991 200.244291 
L 352.505852 198.425766 
L 352.854975 197.417386 
L 353.064449 197.379207 
L 353.23901 197.718932 
L 353.518309 198.891775 
L 354.391117 203.077966 
L 354.565679 203.016091 
L 354.775153 202.264296 
L 355.089363 200.134916 
L 356.171646 192.11619 
L 356.625506 190.467352 
L 356.939717 189.984052 
L 357.184103 190.000038 
L 357.428489 190.348138 
L 357.7427 191.291335 
L 358.161648 193.360979 
L 359.837439 202.638773 
L 360.116738 203.08436 
L 360.361124 203.046815 
L 360.605511 202.724879 
L 360.989546 201.819099 
L 361.338669 200.363336 
L 361.722705 197.628215 
L 362.595513 190.947429 
L 362.804987 190.630799 
L 362.909724 190.686221 
L 363.119198 191.315724 
L 363.503233 193.40083 
L 364.026918 195.92971 
L 364.236392 196.24382 
L 364.410954 196.147014 
L 364.65534 195.437018 
L 365.597973 191.796087 
L 365.632885 191.814229 
L 365.807447 192.138842 
L 366.086745 193.484066 
L 366.784992 197.195844 
L 366.994466 197.3135 
L 367.20394 196.938027 
L 367.902186 195.341624 
L 368.11166 195.435906 
L 368.635345 195.904745 
L 368.809907 195.640518 
L 369.054293 194.721997 
L 369.822364 191.365966 
L 369.962013 191.459861 
L 370.101663 191.855214 
L 370.380961 193.404668 
L 371.149032 198.105778 
L 371.323594 198.276924 
L 371.428331 198.165367 
L 371.637805 197.513411 
L 372.405876 194.527389 
L 372.61535 194.575185 
L 372.894648 195.196892 
L 374.360966 199.268841 
L 374.605352 199.400098 
L 374.779914 199.280225 
L 375.059213 198.715331 
L 376.036758 196.374459 
L 376.316056 196.24787 
L 376.595355 196.331281 
L 376.909566 196.691884 
L 377.258689 197.457058 
L 378.201322 199.768364 
L 378.410796 199.739808 
L 378.655182 199.393513 
L 379.248691 198.42634 
L 379.52799 198.478382 
L 380.121499 198.798389 
L 380.330973 198.511168 
L 380.610272 197.685671 
L 381.203781 194.999669 
L 382.111502 191.318925 
L 382.949398 188.367892 
L 383.158872 188.378743 
L 383.368346 188.936365 
L 383.682556 190.605194 
L 384.276066 193.7897 
L 384.48554 193.997245 
L 384.625189 193.818552 
L 384.9394 192.887914 
L 385.253611 192.205436 
L 385.39326 192.239417 
L 385.53291 192.484496 
L 385.812208 193.522617 
L 386.370805 195.544216 
L 386.615192 195.71247 
L 386.789753 195.624488 
L 387.732386 194.867724 
L 387.94186 194.971504 
L 388.221159 195.40586 
L 388.605194 196.577663 
L 389.617651 200.022416 
L 389.931862 200.382254 
L 390.211161 200.337599 
L 390.49046 200.006767 
L 390.909407 199.09584 
L 391.642566 197.500182 
L 391.921865 197.376131 
L 392.3059 197.509781 
L 392.655024 197.542705 
L 392.934322 197.358798 
L 393.318358 196.829067 
L 393.94678 195.518587 
L 394.365727 194.849067 
L 394.540289 194.833728 
L 394.714851 195.040547 
L 394.959237 195.719378 
L 395.90187 198.804403 
L 396.076431 198.77301 
L 396.250993 198.487686 
L 396.530292 197.526098 
L 397.019064 194.836955 
L 397.542749 192.304687 
L 397.787135 191.943278 
L 397.961697 192.030327 
L 398.240995 192.76977 
L 398.729768 195.011997 
L 399.881875 200.52566 
L 400.126261 200.775173 
L 400.300822 200.672439 
L 400.580121 200.066434 
L 401.941702 195.85278 
L 403.128721 192.312373 
L 403.617493 191.648944 
L 404.106266 191.32162 
L 404.350652 191.34596 
L 404.595038 191.628342 
L 404.909249 192.445909 
L 405.747145 194.931052 
L 405.956619 195.016579 
L 406.13118 194.899949 
L 406.480304 194.314159 
L 407.003989 193.481236 
L 407.213463 193.45116 
L 407.457849 193.715061 
L 407.806972 194.539986 
L 408.365569 195.833064 
L 408.609955 195.966428 
L 408.854342 195.819156 
L 409.238377 195.21061 
L 409.866799 194.2552 
L 410.111185 194.195729 
L 410.355572 194.383742 
L 410.704695 195.072559 
L 411.68224 197.199824 
L 412.345574 197.966641 
L 412.799434 198.235391 
L 413.148558 198.203754 
L 413.532593 197.914227 
L 415.59242 195.845649 
L 416.18593 195.696933 
L 416.849264 195.79105 
L 417.826809 195.927109 
L 418.909091 195.902609 
L 418.909091 195.902609 
" clip-path="url(#pf05283c057)" style="fill: none; stroke: #ff0000; stroke-width: 0.75; stroke-linecap: square"/>
   </g>
   <g id="patch_3">
    <path d="M 23.04 302.4 
L 437.76 302.4 
" style="fill: none; stroke: #000000; stroke-width: 0.8; stroke-linejoin: miter; stroke-linecap: square"/>
   </g>
   <g id="text_10">
    <g id="patch_4">
     <path d="M 29.4096 298.571906 
L 77.525763 298.571906 
L 77.525763 282.468975 
L 29.4096 282.468975 
L 29.4096 298.571906 
z
" style="fill: none"/>
    </g>
    <!-- II.BFO.Z -->
    <g transform="translate(33.408 292.841127) scale(0.0833 -0.0833)">
     <defs>
      <path id="DejaVuSansMono-49" d="M 628 4666 
L 3219 4666 
L 3219 4134 
L 2241 4134 
L 2241 531 
L 3219 531 
L 3219 0 
L 628 0 
L 628 531 
L 1606 531 
L 1606 4134 
L 628 4134 
L 628 4666 
z
" transform="scale(0.015625)"/>
      <path id="DejaVuSansMono-2e" d="M 1528 953 
L 2316 953 
L 2316 0 
L 1528 0 
L 1528 953 
z
" transform="scale(0.015625)"/>
      <path id="DejaVuSansMono-42" d="M 1153 2228 
L 1153 519 
L 1900 519 
Q 2450 519 2684 711 
Q 2919 903 2919 1344 
Q 2919 1800 2672 2014 
Q 2425 2228 1900 2228 
L 1153 2228 
z
M 1153 4147 
L 1153 2741 
L 1888 2741 
Q 2344 2741 2548 2916 
Q 2753 3091 2753 3481 
Q 2753 3834 2551 3990 
Q 2350 4147 1888 4147 
L 1153 4147 
z
M 519 4666 
L 1900 4666 
Q 2616 4666 3003 4356 
Q 3391 4047 3391 3481 
Q 3391 3053 3186 2806 
Q 2981 2559 2572 2497 
Q 3031 2428 3292 2104 
Q 3553 1781 3553 1281 
Q 3553 647 3137 323 
Q 2722 0 1900 0 
L 519 0 
L 519 4666 
z
" transform="scale(0.015625)"/>
      <path id="DejaVuSansMono-46" d="M 728 4666 
L 3475 4666 
L 3475 4134 
L 1363 4134 
L 1363 2759 
L 3278 2759 
L 3278 2228 
L 1363 2228 
L 1363 0 
L 728 0 
L 728 4666 
z
" transform="scale(0.015625)"/>
      <path id="DejaVuSansMono-4f" d="M 2828 2328 
Q 2828 3356 2617 3797 
Q 2406 4238 1925 4238 
Q 1447 4238 1236 3797 
Q 1025 3356 1025 2328 
Q 1025 1303 1236 862 
Q 1447 422 1925 422 
Q 2406 422 2617 861 
Q 2828 1300 2828 2328 
z
M 3488 2328 
Q 3488 1109 3102 509 
Q 2716 -91 1925 -91 
Q 1134 -91 750 506 
Q 366 1103 366 2328 
Q 366 3550 752 4150 
Q 1138 4750 1925 4750 
Q 2716 4750 3102 4150 
Q 3488 3550 3488 2328 
z
" transform="scale(0.015625)"/>
      <path id="DejaVuSansMono-5a" d="M 556 4666 
L 3584 4666 
L 3584 4184 
L 1147 531 
L 3653 531 
L 3653 0 
L 488 0 
L 488 481 
L 2859 4134 
L 556 4134 
L 556 4666 
z
" transform="scale(0.015625)"/>
     </defs>
     <use xlink:href="#DejaVuSansMono-49"/>
     <use xlink:href="#DejaVuSansMono-49" x="60.205078"/>
     <use xlink:href="#DejaVuSansMono-2e" x="120.410156"/>
     <use xlink:href="#DejaVuSansMono-42" x="180.615234"/>
     <use xlink:href="#DejaVuSansMono-46" x="240.820312"/>
     <use xlink:href="#DejaVuSansMono-4f" x="301.025391"/>
     <use xlink:href="#DejaVuSansMono-2e" x="361.230469"/>
     <use xlink:href="#DejaVuSansMono-5a" x="421.435547"/>
    </g>
   </g>
   <g id="text_11">
    <g id="patch_5">
     <path d="M 29.4096 89.274894 
L 132.689886 89.274894 
L 132.689886 72.948094 
L 29.4096 72.948094 
L 29.4096 89.274894 
z
" style="fill: none"/>
    </g>
    <!-- |A|max: 0.0021235 m -->
    <g transform="translate(33.408 83.312436) scale(0.0833 -0.0833)">
     <defs>
      <path id="DejaVuSansMono-7c" d="M 2194 4891 
L 2194 -1509 
L 1656 -1509 
L 1656 4891 
L 2194 4891 
z
" transform="scale(0.015625)"/>
      <path id="DejaVuSansMono-41" d="M 1925 4109 
L 1259 1722 
L 2591 1722 
L 1925 4109 
z
M 1544 4666 
L 2309 4666 
L 3738 0 
L 3084 0 
L 2741 1216 
L 1106 1216 
L 769 0 
L 116 0 
L 1544 4666 
z
" transform="scale(0.015625)"/>
      <path id="DejaVuSansMono-61" d="M 2194 1759 
L 2003 1759 
Q 1500 1759 1245 1582 
Q 991 1406 991 1056 
Q 991 741 1181 566 
Q 1372 391 1709 391 
Q 2184 391 2456 720 
Q 2728 1050 2731 1631 
L 2731 1759 
L 2194 1759 
z
M 3309 1997 
L 3309 0 
L 2731 0 
L 2731 519 
Q 2547 206 2267 57 
Q 1988 -91 1588 -91 
Q 1053 -91 734 211 
Q 416 513 416 1019 
Q 416 1603 808 1906 
Q 1200 2209 1959 2209 
L 2731 2209 
L 2731 2300 
Q 2728 2719 2518 2908 
Q 2309 3097 1850 3097 
Q 1556 3097 1256 3012 
Q 956 2928 672 2766 
L 672 3341 
Q 991 3463 1283 3523 
Q 1575 3584 1850 3584 
Q 2284 3584 2592 3456 
Q 2900 3328 3091 3072 
Q 3209 2916 3259 2686 
Q 3309 2456 3309 1997 
z
" transform="scale(0.015625)"/>
      <path id="DejaVuSansMono-78" d="M 3494 3500 
L 2241 1825 
L 3616 0 
L 2950 0 
L 1925 1403 
L 903 0 
L 238 0 
L 1613 1825 
L 359 3500 
L 997 3500 
L 1925 2234 
L 2847 3500 
L 3494 3500 
z
" transform="scale(0.015625)"/>
      <path id="DejaVuSansMono-3a" d="M 1528 3322 
L 2316 3322 
L 2316 2375 
L 1528 2375 
L 1528 3322 
z
M 1528 953 
L 2316 953 
L 2316 0 
L 1528 0 
L 1528 953 
z
" transform="scale(0.015625)"/>
      <path id="DejaVuSansMono-33" d="M 2425 2497 
Q 2884 2375 3128 2064 
Q 3372 1753 3372 1288 
Q 3372 644 2939 276 
Q 2506 -91 1741 -91 
Q 1419 -91 1084 -31 
Q 750 28 428 141 
L 428 769 
Q 747 603 1056 522 
Q 1366 441 1672 441 
Q 2191 441 2469 675 
Q 2747 909 2747 1350 
Q 2747 1756 2469 1995 
Q 2191 2234 1716 2234 
L 1234 2234 
L 1234 2753 
L 1716 2753 
Q 2150 2753 2394 2943 
Q 2638 3134 2638 3475 
Q 2638 3834 2411 4026 
Q 2184 4219 1766 4219 
Q 1488 4219 1191 4156 
Q 894 4094 569 3969 
L 569 4550 
Q 947 4650 1242 4700 
Q 1538 4750 1766 4750 
Q 2447 4750 2855 4408 
Q 3263 4066 3263 3500 
Q 3263 3116 3048 2859 
Q 2834 2603 2425 2497 
z
" transform="scale(0.015625)"/>
     </defs>
     <use xlink:href="#DejaVuSansMono-7c"/>
     <use xlink:href="#DejaVuSansMono-41" x="60.205078"/>
     <use xlink:href="#DejaVuSansMono-7c" x="120.410156"/>
     <use xlink:href="#DejaVuSansMono-6d" x="180.615234"/>
     <use xlink:href="#DejaVuSansMono-61" x="240.820312"/>
     <use xlink:href="#DejaVuSansMono-78" x="301.025391"/>
     <use xlink:href="#DejaVuSansMono-3a" x="361.230469"/>
     <use xlink:href="#DejaVuSansMono-20" x="421.435547"/>
     <use xlink:href="#DejaVuSansMono-30" x="481.640625"/>
     <use xlink:href="#DejaVuSansMono-2e" x="541.845703"/>
     <use xlink:href="#DejaVuSansMono-30" x="602.050781"/>
     <use xlink:href="#DejaVuSansMono-30" x="662.255859"/>
     <use xlink:href="#DejaVuSansMono-32" x="722.460938"/>
     <use xlink:href="#DejaVuSansMono-31" x="782.666016"/>
     <use xlink:href="#DejaVuSansMono-32" x="842.871094"/>
     <use xlink:href="#DejaVuSansMono-33" x="903.076172"/>
     <use xlink:href="#DejaVuSansMono-35" x="963.28125"/>
     <use xlink:href="#DejaVuSansMono-20" x="1023.486328"/>
     <use xlink:href="#DejaVuSansMono-6d" x="1083.691406"/>
    </g>
   </g>
   <g id="text_12">
    <g id="patch_6">
     <path d="M 19.04 65.293506 
L 454.482188 65.293506 
L 454.482188 13.777569 
L 19.04 13.777569 
L 19.04 65.293506 
z
" style="fill: none"/>
    </g>
    <!-- C201509162254A:  -->
    <g transform="translate(23.04 25.360381) scale(0.1 -0.1)">
     <defs>
      <path id="DejaVuSansMono-43" d="M 3353 166 
Q 3113 38 2859 -26 
Q 2606 -91 2322 -91 
Q 1425 -91 929 543 
Q 434 1178 434 2328 
Q 434 3472 932 4111 
Q 1431 4750 2322 4750 
Q 2606 4750 2859 4686 
Q 3113 4622 3353 4494 
L 3353 3847 
Q 3122 4038 2856 4138 
Q 2591 4238 2322 4238 
Q 1706 4238 1400 3763 
Q 1094 3288 1094 2328 
Q 1094 1372 1400 897 
Q 1706 422 2322 422 
Q 2597 422 2861 522 
Q 3125 622 3353 813 
L 3353 166 
z
" transform="scale(0.015625)"/>
      <path id="DejaVuSansMono-39" d="M 1863 2069 
Q 2266 2069 2495 2359 
Q 2725 2650 2725 3163 
Q 2725 3675 2495 3965 
Q 2266 4256 1863 4256 
Q 1444 4256 1231 3979 
Q 1019 3703 1019 3163 
Q 1019 2619 1230 2344 
Q 1441 2069 1863 2069 
z
M 738 97 
L 738 678 
Q 934 563 1156 502 
Q 1378 441 1619 441 
Q 2219 441 2526 892 
Q 2834 1344 2834 2222 
Q 2688 1909 2422 1742 
Q 2156 1575 1813 1575 
Q 1138 1575 767 1990 
Q 397 2406 397 3169 
Q 397 3922 776 4336 
Q 1156 4750 1850 4750 
Q 2663 4750 3041 4165 
Q 3419 3581 3419 2328 
Q 3419 1150 2964 529 
Q 2509 -91 1644 -91 
Q 1416 -91 1184 -42 
Q 953 6 738 97 
z
" transform="scale(0.015625)"/>
      <path id="DejaVuSansMono-36" d="M 3097 4563 
L 3097 3981 
Q 2900 4097 2678 4158 
Q 2456 4219 2216 4219 
Q 1616 4219 1306 3767 
Q 997 3316 997 2438 
Q 1147 2750 1412 2917 
Q 1678 3084 2022 3084 
Q 2697 3084 3067 2670 
Q 3438 2256 3438 1497 
Q 3438 741 3056 325 
Q 2675 -91 1984 -91 
Q 1172 -91 794 492 
Q 416 1075 416 2328 
Q 416 3509 870 4129 
Q 1325 4750 2188 4750 
Q 2419 4750 2650 4701 
Q 2881 4653 3097 4563 
z
M 1972 2591 
Q 1569 2591 1337 2300 
Q 1106 2009 1106 1497 
Q 1106 984 1337 693 
Q 1569 403 1972 403 
Q 2391 403 2603 679 
Q 2816 956 2816 1497 
Q 2816 2041 2603 2316 
Q 2391 2591 1972 2591 
z
" transform="scale(0.015625)"/>
      <path id="DejaVuSansMono-34" d="M 2297 4091 
L 825 1625 
L 2297 1625 
L 2297 4091 
z
M 2194 4666 
L 2925 4666 
L 2925 1625 
L 3547 1625 
L 3547 1113 
L 2925 1113 
L 2925 0 
L 2297 0 
L 2297 1113 
L 319 1113 
L 319 1709 
L 2194 4666 
z
" transform="scale(0.015625)"/>
     </defs>
     <use xlink:href="#DejaVuSansMono-43"/>
     <use xlink:href="#DejaVuSansMono-32" x="60.205078"/>
     <use xlink:href="#DejaVuSansMono-30" x="120.410156"/>
     <use xlink:href="#DejaVuSansMono-31" x="180.615234"/>
     <use xlink:href="#DejaVuSansMono-35" x="240.820312"/>
     <use xlink:href="#DejaVuSansMono-30" x="301.025391"/>
     <use xlink:href="#DejaVuSansMono-39" x="361.230469"/>
     <use xlink:href="#DejaVuSansMono-31" x="421.435547"/>
     <use xlink:href="#DejaVuSansMono-36" x="481.640625"/>
     <use xlink:href="#DejaVuSansMono-32" x="541.845703"/>
     <use xlink:href="#DejaVuSansMono-32" x="602.050781"/>
     <use xlink:href="#DejaVuSansMono-35" x="662.255859"/>
     <use xlink:href="#DejaVuSansMono-34" x="722.460938"/>
     <use xlink:href="#DejaVuSansMono-41" x="782.666016"/>
     <use xlink:href="#DejaVuSansMono-3a" x="842.871094"/>
     <use xlink:href="#DejaVuSansMono-20" x="903.076172"/>
    </g>
    <!--   2015-09-16 22:55:22  La -31.130 Lo -72.090 Dp 17.350km -->
    <g transform="translate(23.04 36.621944) scale(0.1 -0.1)">
     <defs>
      <path id="DejaVuSansMono-2d" d="M 1113 2009 
L 2741 2009 
L 2741 1497 
L 1113 1497 
L 1113 2009 
z
" transform="scale(0.015625)"/>
      <path id="DejaVuSansMono-4c" d="M 672 4666 
L 1306 4666 
L 1306 531 
L 3559 531 
L 3559 0 
L 672 0 
L 672 4666 
z
" transform="scale(0.015625)"/>
      <path id="DejaVuSansMono-44" d="M 1363 519 
Q 2159 519 2475 911 
Q 2791 1303 2791 2328 
Q 2791 3363 2477 3755 
Q 2163 4147 1363 4147 
L 1063 4147 
L 1063 519 
L 1363 519 
z
M 1375 4666 
Q 2444 4666 2950 4097 
Q 3456 3528 3456 2328 
Q 3456 1134 2950 567 
Q 2444 0 1375 0 
L 428 0 
L 428 4666 
L 1375 4666 
z
" transform="scale(0.015625)"/>
      <path id="DejaVuSansMono-70" d="M 1172 441 
L 1172 -1331 
L 594 -1331 
L 594 3500 
L 1172 3500 
L 1172 3053 
Q 1316 3313 1555 3448 
Q 1794 3584 2106 3584 
Q 2741 3584 3102 3093 
Q 3463 2603 3463 1734 
Q 3463 881 3100 395 
Q 2738 -91 2106 -91 
Q 1788 -91 1548 45 
Q 1309 181 1172 441 
z
M 2859 1747 
Q 2859 2416 2648 2756 
Q 2438 3097 2022 3097 
Q 1603 3097 1387 2755 
Q 1172 2413 1172 1747 
Q 1172 1084 1387 740 
Q 1603 397 2022 397 
Q 2438 397 2648 737 
Q 2859 1078 2859 1747 
z
" transform="scale(0.015625)"/>
      <path id="DejaVuSansMono-6b" d="M 738 4863 
L 1331 4863 
L 1331 2047 
L 2841 3500 
L 3541 3500 
L 2163 2181 
L 3756 0 
L 3053 0 
L 1759 1806 
L 1331 1403 
L 1331 0 
L 738 0 
L 738 4863 
z
" transform="scale(0.015625)"/>
     </defs>
     <use xlink:href="#DejaVuSansMono-20"/>
     <use xlink:href="#DejaVuSansMono-20" x="60.205078"/>
     <use xlink:href="#DejaVuSansMono-32" x="120.410156"/>
     <use xlink:href="#DejaVuSansMono-30" x="180.615234"/>
     <use xlink:href="#DejaVuSansMono-31" x="240.820312"/>
     <use xlink:href="#DejaVuSansMono-35" x="301.025391"/>
     <use xlink:href="#DejaVuSansMono-2d" x="361.230469"/>
     <use xlink:href="#DejaVuSansMono-30" x="421.435547"/>
     <use xlink:href="#DejaVuSansMono-39" x="481.640625"/>
     <use xlink:href="#DejaVuSansMono-2d" x="541.845703"/>
     <use xlink:href="#DejaVuSansMono-31" x="602.050781"/>
     <use xlink:href="#DejaVuSansMono-36" x="662.255859"/>
     <use xlink:href="#DejaVuSansMono-20" x="722.460938"/>
     <use xlink:href="#DejaVuSansMono-32" x="782.666016"/>
     <use xlink:href="#DejaVuSansMono-32" x="842.871094"/>
     <use xlink:href="#DejaVuSansMono-3a" x="903.076172"/>
     <use xlink:href="#DejaVuSansMono-35" x="963.28125"/>
     <use xlink:href="#DejaVuSansMono-35" x="1023.486328"/>
     <use xlink:href="#DejaVuSansMono-3a" x="1083.691406"/>
     <use xlink:href="#DejaVuSansMono-32" x="1143.896484"/>
     <use xlink:href="#DejaVuSansMono-32" x="1204.101562"/>
     <use xlink:href="#DejaVuSansMono-20" x="1264.306641"/>
     <use xlink:href="#DejaVuSansMono-20" x="1324.511719"/>
     <use xlink:href="#DejaVuSansMono-4c" x="1384.716797"/>
     <use xlink:href="#DejaVuSansMono-61" x="1444.921875"/>
     <use xlink:href="#DejaVuSansMono-20" x="1505.126953"/>
     <use xlink:href="#DejaVuSansMono-2d" x="1565.332031"/>
     <use xlink:href="#DejaVuSansMono-33" x="1625.537109"/>
     <use xlink:href="#DejaVuSansMono-31" x="1685.742188"/>
     <use xlink:href="#DejaVuSansMono-2e" x="1745.947266"/>
     <use xlink:href="#DejaVuSansMono-31" x="1806.152344"/>
     <use xlink:href="#DejaVuSansMono-33" x="1866.357422"/>
     <use xlink:href="#DejaVuSansMono-30" x="1926.5625"/>
     <use xlink:href="#DejaVuSansMono-20" x="1986.767578"/>
     <use xlink:href="#DejaVuSansMono-4c" x="2046.972656"/>
     <use xlink:href="#DejaVuSansMono-6f" x="2107.177734"/>
     <use xlink:href="#DejaVuSansMono-20" x="2167.382812"/>
     <use xlink:href="#DejaVuSansMono-2d" x="2227.587891"/>
     <use xlink:href="#DejaVuSansMono-37" x="2287.792969"/>
     <use xlink:href="#DejaVuSansMono-32" x="2347.998047"/>
     <use xlink:href="#DejaVuSansMono-2e" x="2408.203125"/>
     <use xlink:href="#DejaVuSansMono-30" x="2468.408203"/>
     <use xlink:href="#DejaVuSansMono-39" x="2528.613281"/>
     <use xlink:href="#DejaVuSansMono-30" x="2588.818359"/>
     <use xlink:href="#DejaVuSansMono-20" x="2649.023438"/>
     <use xlink:href="#DejaVuSansMono-44" x="2709.228516"/>
     <use xlink:href="#DejaVuSansMono-70" x="2769.433594"/>
     <use xlink:href="#DejaVuSansMono-20" x="2829.638672"/>
     <use xlink:href="#DejaVuSansMono-31" x="2889.84375"/>
     <use xlink:href="#DejaVuSansMono-37" x="2950.048828"/>
     <use xlink:href="#DejaVuSansMono-2e" x="3010.253906"/>
     <use xlink:href="#DejaVuSansMono-33" x="3070.458984"/>
     <use xlink:href="#DejaVuSansMono-35" x="3130.664062"/>
     <use xlink:href="#DejaVuSansMono-30" x="3190.869141"/>
     <use xlink:href="#DejaVuSansMono-6b" x="3251.074219"/>
     <use xlink:href="#DejaVuSansMono-6d" x="3311.279297"/>
    </g>
    <!-- II.BFO.00.LHZ:  -->
    <g transform="translate(23.04 47.883506) scale(0.1 -0.1)">
     <defs>
      <path id="DejaVuSansMono-48" d="M 428 4666 
L 1063 4666 
L 1063 2753 
L 2791 2753 
L 2791 4666 
L 3425 4666 
L 3425 0 
L 2791 0 
L 2791 2222 
L 1063 2222 
L 1063 0 
L 428 0 
L 428 4666 
z
" transform="scale(0.015625)"/>
     </defs>
     <use xlink:href="#DejaVuSansMono-49"/>
     <use xlink:href="#DejaVuSansMono-49" x="60.205078"/>
     <use xlink:href="#DejaVuSansMono-2e" x="120.410156"/>
     <use xlink:href="#DejaVuSansMono-42" x="180.615234"/>
     <use xlink:href="#DejaVuSansMono-46" x="240.820312"/>
     <use xlink:href="#DejaVuSansMono-4f" x="301.025391"/>
     <use xlink:href="#DejaVuSansMono-2e" x="361.230469"/>
     <use xlink:href="#DejaVuSansMono-30" x="421.435547"/>
     <use xlink:href="#DejaVuSansMono-30" x="481.640625"/>
     <use xlink:href="#DejaVuSansMono-2e" x="541.845703"/>
     <use xlink:href="#DejaVuSansMono-4c" x="602.050781"/>
     <use xlink:href="#DejaVuSansMono-48" x="662.255859"/>
     <use xlink:href="#DejaVuSansMono-5a" x="722.460938"/>
     <use xlink:href="#DejaVuSansMono-3a" x="782.666016"/>
     <use xlink:href="#DejaVuSansMono-20" x="842.871094"/>
    </g>
    <!--   La 48.330 Lo: 8.330 Az: 43.4 Baz: 242.1 Dist: 106.868dg - Bp: 40-500s -->
    <g transform="translate(23.04 59.145069) scale(0.1 -0.1)">
     <defs>
      <path id="DejaVuSansMono-38" d="M 1925 2216 
Q 1503 2216 1273 1980 
Q 1044 1744 1044 1313 
Q 1044 881 1276 642 
Q 1509 403 1925 403 
Q 2350 403 2579 639 
Q 2809 875 2809 1313 
Q 2809 1741 2576 1978 
Q 2344 2216 1925 2216 
z
M 1375 2478 
Q 972 2581 745 2862 
Q 519 3144 519 3541 
Q 519 4097 897 4423 
Q 1275 4750 1925 4750 
Q 2578 4750 2956 4423 
Q 3334 4097 3334 3541 
Q 3334 3144 3107 2862 
Q 2881 2581 2478 2478 
Q 2947 2375 3195 2062 
Q 3444 1750 3444 1253 
Q 3444 622 3041 265 
Q 2638 -91 1925 -91 
Q 1213 -91 811 264 
Q 409 619 409 1247 
Q 409 1747 657 2061 
Q 906 2375 1375 2478 
z
M 1147 3481 
Q 1147 3106 1347 2909 
Q 1547 2713 1925 2713 
Q 2306 2713 2506 2909 
Q 2706 3106 2706 3481 
Q 2706 3863 2507 4063 
Q 2309 4263 1925 4263 
Q 1547 4263 1347 4061 
Q 1147 3859 1147 3481 
z
" transform="scale(0.015625)"/>
      <path id="DejaVuSansMono-7a" d="M 709 3506 
L 3250 3506 
L 3250 2981 
L 1241 469 
L 3250 469 
L 3250 0 
L 634 0 
L 634 531 
L 2644 3047 
L 709 3047 
L 709 3506 
z
" transform="scale(0.015625)"/>
      <path id="DejaVuSansMono-74" d="M 1919 4494 
L 1919 3500 
L 3225 3500 
L 3225 3053 
L 1919 3053 
L 1919 1153 
Q 1919 766 2066 612 
Q 2213 459 2578 459 
L 3225 459 
L 3225 0 
L 2522 0 
Q 1875 0 1609 259 
Q 1344 519 1344 1153 
L 1344 3053 
L 409 3053 
L 409 3500 
L 1344 3500 
L 1344 4494 
L 1919 4494 
z
" transform="scale(0.015625)"/>
      <path id="DejaVuSansMono-64" d="M 2681 3053 
L 2681 4863 
L 3256 4863 
L 3256 0 
L 2681 0 
L 2681 441 
Q 2538 181 2298 45 
Q 2059 -91 1747 -91 
Q 1113 -91 748 401 
Q 384 894 384 1759 
Q 384 2613 750 3098 
Q 1116 3584 1747 3584 
Q 2063 3584 2303 3448 
Q 2544 3313 2681 3053 
z
M 991 1747 
Q 991 1078 1203 737 
Q 1416 397 1831 397 
Q 2247 397 2464 740 
Q 2681 1084 2681 1747 
Q 2681 2413 2464 2755 
Q 2247 3097 1831 3097 
Q 1416 3097 1203 2756 
Q 991 2416 991 1747 
z
" transform="scale(0.015625)"/>
     </defs>
     <use xlink:href="#DejaVuSansMono-20"/>
     <use xlink:href="#DejaVuSansMono-20" x="60.205078"/>
     <use xlink:href="#DejaVuSansMono-4c" x="120.410156"/>
     <use xlink:href="#DejaVuSansMono-61" x="180.615234"/>
     <use xlink:href="#DejaVuSansMono-20" x="240.820312"/>
     <use xlink:href="#DejaVuSansMono-34" x="301.025391"/>
     <use xlink:href="#DejaVuSansMono-38" x="361.230469"/>
     <use xlink:href="#DejaVuSansMono-2e" x="421.435547"/>
     <use xlink:href="#DejaVuSansMono-33" x="481.640625"/>
     <use xlink:href="#DejaVuSansMono-33" x="541.845703"/>
     <use xlink:href="#DejaVuSansMono-30" x="602.050781"/>
     <use xlink:href="#DejaVuSansMono-20" x="662.255859"/>
     <use xlink:href="#DejaVuSansMono-4c" x="722.460938"/>
     <use xlink:href="#DejaVuSansMono-6f" x="782.666016"/>
     <use xlink:href="#DejaVuSansMono-3a" x="842.871094"/>
     <use xlink:href="#DejaVuSansMono-20" x="903.076172"/>
     <use xlink:href="#DejaVuSansMono-38" x="963.28125"/>
     <use xlink:href="#DejaVuSansMono-2e" x="1023.486328"/>
     <use xlink:href="#DejaVuSansMono-33" x="1083.691406"/>
     <use xlink:href="#DejaVuSansMono-33" x="1143.896484"/>
     <use xlink:href="#DejaVuSansMono-30" x="1204.101562"/>
     <use xlink:href="#DejaVuSansMono-20" x="1264.306641"/>
     <use xlink:href="#DejaVuSansMono-41" x="1324.511719"/>
     <use xlink:href="#DejaVuSansMono-7a" x="1384.716797"/>
     <use xlink:href="#DejaVuSansMono-3a" x="1444.921875"/>
     <use xlink:href="#DejaVuSansMono-20" x="1505.126953"/>
     <use xlink:href="#DejaVuSansMono-34" x="1565.332031"/>
     <use xlink:href="#DejaVuSansMono-33" x="1625.537109"/>
     <use xlink:href="#DejaVuSansMono-2e" x="1685.742188"/>
     <use xlink:href="#DejaVuSansMono-34" x="1745.947266"/>
     <use xlink:href="#DejaVuSansMono-20" x="1806.152344"/>
     <use xlink:href="#DejaVuSansMono-42" x="1866.357422"/>
     <use xlink:href="#DejaVuSansMono-61" x="1926.5625"/>
     <use xlink:href="#DejaVuSansMono-7a" x="1986.767578"/>
     <use xlink:href="#DejaVuSansMono-3a" x="2046.972656"/>
     <use xlink:href="#DejaVuSansMono-20" x="2107.177734"/>
     <use xlink:href="#DejaVuSansMono-32" x="2167.382812"/>
     <use xlink:href="#DejaVuSansMono-34" x="2227.587891"/>
     <use xlink:href="#DejaVuSansMono-32" x="2287.792969"/>
     <use xlink:href="#DejaVuSansMono-2e" x="2347.998047"/>
     <use xlink:href="#DejaVuSansMono-31" x="2408.203125"/>
     <use xlink:href="#DejaVuSansMono-20" x="2468.408203"/>
     <use xlink:href="#DejaVuSansMono-44" x="2528.613281"/>
     <use xlink:href="#DejaVuSansMono-69" x="2588.818359"/>
     <use xlink:href="#DejaVuSansMono-73" x="2649.023438"/>
     <use xlink:href="#DejaVuSansMono-74" x="2709.228516"/>
     <use xlink:href="#DejaVuSansMono-3a" x="2769.433594"/>
     <use xlink:href="#DejaVuSansMono-20" x="2829.638672"/>
     <use xlink:href="#DejaVuSansMono-31" x="2889.84375"/>
     <use xlink:href="#DejaVuSansMono-30" x="2950.048828"/>
     <use xlink:href="#DejaVuSansMono-36" x="3010.253906"/>
     <use xlink:href="#DejaVuSansMono-2e" x="3070.458984"/>
     <use xlink:href="#DejaVuSansMono-38" x="3130.664062"/>
     <use xlink:href="#DejaVuSansMono-36" x="3190.869141"/>
     <use xlink:href="#DejaVuSansMono-38" x="3251.074219"/>
     <use xlink:href="#DejaVuSansMono-64" x="3311.279297"/>
     <use xlink:href="#DejaVuSansMono-67" x="3371.484375"/>
     <use xlink:href="#DejaVuSansMono-20" x="3431.689453"/>
     <use xlink:href="#DejaVuSansMono-2d" x="3491.894531"/>
     <use xlink:href="#DejaVuSansMono-20" x="3552.099609"/>
     <use xlink:href="#DejaVuSansMono-42" x="3612.304688"/>
     <use xlink:href="#DejaVuSansMono-70" x="3672.509766"/>
     <use xlink:href="#DejaVuSansMono-3a" x="3732.714844"/>
     <use xlink:href="#DejaVuSansMono-20" x="3792.919922"/>
     <use xlink:href="#DejaVuSansMono-34" x="3853.125"/>
     <use xlink:href="#DejaVuSansMono-30" x="3913.330078"/>
     <use xlink:href="#DejaVuSansMono-2d" x="3973.535156"/>
     <use xlink:href="#DejaVuSansMono-35" x="4033.740234"/>
     <use xlink:href="#DejaVuSansMono-30" x="4093.945312"/>
     <use xlink:href="#DejaVuSansMono-30" x="4154.150391"/>
     <use xlink:href="#DejaVuSansMono-73" x="4214.355469"/>
    </g>
   </g>
   <g id="legend_1">
    <g id="line2d_11">
     <path d="M 256.435 82.271563 
L 266.435 82.271563 
L 276.435 82.271563 
" style="fill: none; stroke: #000000; stroke-width: 0.75; stroke-linecap: square"/>
    </g>
    <g id="text_13">
     <!-- Observed -->
     <g transform="translate(284.435 85.771563) scale(0.1 -0.1)">
      <defs>
       <path id="DejaVuSansMono-62" d="M 2869 1747 
Q 2869 2416 2656 2756 
Q 2444 3097 2028 3097 
Q 1609 3097 1393 2755 
Q 1178 2413 1178 1747 
Q 1178 1084 1393 740 
Q 1609 397 2028 397 
Q 2444 397 2656 737 
Q 2869 1078 2869 1747 
z
M 1178 3053 
Q 1316 3309 1558 3446 
Q 1800 3584 2119 3584 
Q 2750 3584 3112 3098 
Q 3475 2613 3475 1759 
Q 3475 894 3111 401 
Q 2747 -91 2113 -91 
Q 1800 -91 1561 45 
Q 1322 181 1178 441 
L 1178 0 
L 603 0 
L 603 4863 
L 1178 4863 
L 1178 3053 
z
" transform="scale(0.015625)"/>
       <path id="DejaVuSansMono-76" d="M 313 3500 
L 909 3500 
L 1925 563 
L 2944 3500 
L 3541 3500 
L 2297 0 
L 1556 0 
L 313 3500 
z
" transform="scale(0.015625)"/>
      </defs>
      <use xlink:href="#DejaVuSansMono-4f"/>
      <use xlink:href="#DejaVuSansMono-62" x="60.205078"/>
      <use xlink:href="#DejaVuSansMono-73" x="120.410156"/>
      <use xlink:href="#DejaVuSansMono-65" x="180.615234"/>
      <use xlink:href="#DejaVuSansMono-72" x="240.820312"/>
      <use xlink:href="#DejaVuSansMono-76" x="301.025391"/>
      <use xlink:href="#DejaVuSansMono-65" x="361.230469"/>
      <use xlink:href="#DejaVuSansMono-64" x="421.435547"/>
     </g>
    </g>
    <g id="line2d_12">
     <path d="M 352.5975 82.271563 
L 362.5975 82.271563 
L 372.5975 82.271563 
" style="fill: none; stroke: #ff0000; stroke-width: 0.75; stroke-linecap: square"/>
    </g>
    <g id="text_14">
     <!-- GLAD-M25 -->
     <g transform="translate(380.5975 85.771563) scale(0.1 -0.1)">
      <defs>
       <path id="DejaVuSansMono-47" d="M 3450 384 
Q 3197 150 2880 29 
Q 2563 -91 2194 -91 
Q 1306 -91 812 545 
Q 319 1181 319 2328 
Q 319 3472 819 4111 
Q 1319 4750 2209 4750 
Q 2503 4750 2772 4667 
Q 3041 4584 3291 4416 
L 3291 3769 
Q 3038 4009 2772 4123 
Q 2506 4238 2209 4238 
Q 1594 4238 1286 3761 
Q 978 3284 978 2328 
Q 978 1356 1276 889 
Q 1575 422 2194 422 
Q 2403 422 2561 470 
Q 2719 519 2847 622 
L 2847 1875 
L 2169 1875 
L 2169 2394 
L 3450 2394 
L 3450 384 
z
" transform="scale(0.015625)"/>
       <path id="DejaVuSansMono-4d" d="M 269 4666 
L 1113 4666 
L 1919 2291 
L 2731 4666 
L 3578 4666 
L 3578 0 
L 2994 0 
L 2994 4122 
L 2163 1663 
L 1684 1663 
L 850 4122 
L 850 0 
L 269 0 
L 269 4666 
z
" transform="scale(0.015625)"/>
      </defs>
      <use xlink:href="#DejaVuSansMono-47"/>
      <use xlink:href="#DejaVuSansMono-4c" x="60.205078"/>
      <use xlink:href="#DejaVuSansMono-41" x="120.410156"/>
      <use xlink:href="#DejaVuSansMono-44" x="180.615234"/>
      <use xlink:href="#DejaVuSansMono-2d" x="240.820312"/>
      <use xlink:href="#DejaVuSansMono-4d" x="301.025391"/>
      <use xlink:href="#DejaVuSansMono-32" x="361.230469"/>
      <use xlink:href="#DejaVuSansMono-35" x="421.435547"/>
     </g>
    </g>
   </g>
  </g>
 </g>
 <defs>
  <clipPath id="pf05283c057">
   <rect x="23.04" y="69.12" width="414.72" height="233.28"/>
  </clipPath>
 </defs>
</svg>
