<?xml version="1.0" encoding="utf-8" standalone="no"?>
<!DOCTYPE svg PUBLIC "-//W3C//DTD SVG 1.1//EN"
  "http://www.w3.org/Graphics/SVG/1.1/DTD/svg11.dtd">
<svg xmlns:xlink="http://www.w3.org/1999/xlink" width="576pt" height="360pt" viewBox="0 0 576 360" xmlns="http://www.w3.org/2000/svg" version="1.1">
 <metadata>
  <rdf:RDF xmlns:dc="http://purl.org/dc/elements/1.1/" xmlns:cc="http://creativecommons.org/ns#" xmlns:rdf="http://www.w3.org/1999/02/22-rdf-syntax-ns#">
   <cc:Work>
    <dc:type rdf:resource="http://purl.org/dc/dcmitype/StillImage"/>
    <dc:date>2023-09-01T15:44:33.232673</dc:date>
    <dc:format>image/svg+xml</dc:format>
    <dc:creator>
     <cc:Agent>
      <dc:title>Matplotlib v3.7.2, https://matplotlib.org/</dc:title>
     </cc:Agent>
    </dc:creator>
   </cc:Work>
  </rdf:RDF>
 </metadata>
 <defs>
  <style type="text/css">*{stroke-linejoin: round; stroke-linecap: butt}</style>
 </defs>
 <g id="figure_1">
  <g id="patch_1">
   <path d="M 0 360 
L 576 360 
L 576 0 
L 0 0 
z
" style="fill: #ffffff"/>
  </g>
  <g id="axes_1">
   <g id="patch_2">
    <path d="M 43.2 156 
L 532.8 156 
L 532.8 81 
L 43.2 81 
z
" style="fill: #ffffff"/>
   </g>
   <g id="patch_3">
    <path d="M 129.696 167.413043 
L 374.496 167.413043 
L 374.496 69.586957 
L 129.696 69.586957 
z
" clip-path="url(#pc2da63ab8e)" style="fill: #e6e6e6"/>
   </g>
   <g id="matplotlib.axis_1">
    <g id="xtick_1"/>
    <g id="xtick_2"/>
    <g id="xtick_3"/>
    <g id="xtick_4"/>
    <g id="xtick_5"/>
    <g id="xtick_6"/>
    <g id="xtick_7"/>
    <g id="xtick_8"/>
    <g id="xtick_9"/>
    <g id="xtick_10"/>
    <g id="text_1">
     <!-- Time since origin [s] -->
     <g transform="translate(224.786719 167.598437) scale(0.1 -0.1)">
      <defs>
       <path id="DejaVuSansMono-54" d="M 147 4666 
L 3706 4666 
L 3706 4134 
L 2247 4134 
L 2247 0 
L 1613 0 
L 1613 4134 
L 147 4134 
L 147 4666 
z
" transform="scale(0.015625)"/>
       <path id="DejaVuSansMono-69" d="M 800 3500 
L 2272 3500 
L 2272 447 
L 3413 447 
L 3413 0 
L 556 0 
L 556 447 
L 1697 447 
L 1697 3053 
L 800 3053 
L 800 3500 
z
M 1697 4863 
L 2272 4863 
L 2272 4134 
L 1697 4134 
L 1697 4863 
z
" transform="scale(0.015625)"/>
       <path id="DejaVuSansMono-6d" d="M 2113 3144 
Q 2219 3369 2383 3476 
Q 2547 3584 2778 3584 
Q 3200 3584 3373 3257 
Q 3547 2931 3547 2028 
L 3547 0 
L 3022 0 
L 3022 2003 
Q 3022 2744 2939 2923 
Q 2856 3103 2638 3103 
Q 2388 3103 2295 2911 
Q 2203 2719 2203 2003 
L 2203 0 
L 1678 0 
L 1678 2003 
Q 1678 2753 1589 2928 
Q 1500 3103 1269 3103 
Q 1041 3103 952 2911 
Q 863 2719 863 2003 
L 863 0 
L 341 0 
L 341 3500 
L 863 3500 
L 863 3200 
Q 966 3388 1120 3486 
Q 1275 3584 1472 3584 
Q 1709 3584 1867 3475 
Q 2025 3366 2113 3144 
z
" transform="scale(0.015625)"/>
       <path id="DejaVuSansMono-65" d="M 3475 1894 
L 3475 1613 
L 984 1613 
L 984 1594 
Q 984 1022 1282 709 
Q 1581 397 2125 397 
Q 2400 397 2700 484 
Q 3000 572 3341 750 
L 3341 178 
Q 3013 44 2708 -23 
Q 2403 -91 2119 -91 
Q 1303 -91 843 398 
Q 384 888 384 1747 
Q 384 2584 834 3084 
Q 1284 3584 2034 3584 
Q 2703 3584 3089 3131 
Q 3475 2678 3475 1894 
z
M 2900 2063 
Q 2888 2569 2661 2833 
Q 2434 3097 2009 3097 
Q 1594 3097 1325 2822 
Q 1056 2547 1006 2059 
L 2900 2063 
z
" transform="scale(0.015625)"/>
       <path id="DejaVuSansMono-20" transform="scale(0.015625)"/>
       <path id="DejaVuSansMono-73" d="M 3041 3378 
L 3041 2816 
Q 2794 2959 2544 3031 
Q 2294 3103 2034 3103 
Q 1644 3103 1451 2976 
Q 1259 2850 1259 2591 
Q 1259 2356 1403 2240 
Q 1547 2125 2119 2016 
L 2350 1972 
Q 2778 1891 2998 1647 
Q 3219 1403 3219 1013 
Q 3219 494 2850 201 
Q 2481 -91 1825 -91 
Q 1566 -91 1281 -36 
Q 997 19 666 128 
L 666 722 
Q 988 556 1281 473 
Q 1575 391 1838 391 
Q 2219 391 2428 545 
Q 2638 700 2638 978 
Q 2638 1378 1872 1531 
L 1847 1538 
L 1631 1581 
Q 1134 1678 906 1908 
Q 678 2138 678 2534 
Q 678 3038 1018 3311 
Q 1359 3584 1991 3584 
Q 2272 3584 2531 3532 
Q 2791 3481 3041 3378 
z
" transform="scale(0.015625)"/>
       <path id="DejaVuSansMono-6e" d="M 3284 2169 
L 3284 0 
L 2706 0 
L 2706 2169 
Q 2706 2641 2540 2862 
Q 2375 3084 2022 3084 
Q 1619 3084 1401 2798 
Q 1184 2513 1184 1978 
L 1184 0 
L 609 0 
L 609 3500 
L 1184 3500 
L 1184 2975 
Q 1338 3275 1600 3429 
Q 1863 3584 2222 3584 
Q 2756 3584 3020 3232 
Q 3284 2881 3284 2169 
z
" transform="scale(0.015625)"/>
       <path id="DejaVuSansMono-63" d="M 3316 178 
Q 3084 44 2839 -23 
Q 2594 -91 2338 -91 
Q 1525 -91 1067 396 
Q 609 884 609 1747 
Q 609 2609 1067 3096 
Q 1525 3584 2338 3584 
Q 2591 3584 2831 3518 
Q 3072 3453 3316 3316 
L 3316 2713 
Q 3088 2916 2858 3006 
Q 2628 3097 2338 3097 
Q 1797 3097 1506 2747 
Q 1216 2397 1216 1747 
Q 1216 1100 1508 748 
Q 1800 397 2338 397 
Q 2638 397 2875 489 
Q 3113 581 3316 775 
L 3316 178 
z
" transform="scale(0.015625)"/>
       <path id="DejaVuSansMono-6f" d="M 1925 3097 
Q 1488 3097 1263 2756 
Q 1038 2416 1038 1747 
Q 1038 1081 1263 739 
Q 1488 397 1925 397 
Q 2366 397 2591 739 
Q 2816 1081 2816 1747 
Q 2816 2416 2591 2756 
Q 2366 3097 1925 3097 
z
M 1925 3584 
Q 2653 3584 3039 3112 
Q 3425 2641 3425 1747 
Q 3425 850 3040 379 
Q 2656 -91 1925 -91 
Q 1197 -91 812 379 
Q 428 850 428 1747 
Q 428 2641 812 3112 
Q 1197 3584 1925 3584 
z
" transform="scale(0.015625)"/>
       <path id="DejaVuSansMono-72" d="M 3609 2778 
Q 3425 2922 3234 2987 
Q 3044 3053 2816 3053 
Q 2278 3053 1993 2715 
Q 1709 2378 1709 1741 
L 1709 0 
L 1131 0 
L 1131 3500 
L 1709 3500 
L 1709 2816 
Q 1853 3188 2151 3386 
Q 2450 3584 2859 3584 
Q 3072 3584 3256 3531 
Q 3441 3478 3609 3366 
L 3609 2778 
z
" transform="scale(0.015625)"/>
       <path id="DejaVuSansMono-67" d="M 2681 1778 
Q 2681 2425 2470 2761 
Q 2259 3097 1856 3097 
Q 1434 3097 1212 2761 
Q 991 2425 991 1778 
Q 991 1131 1214 792 
Q 1438 453 1863 453 
Q 2259 453 2470 793 
Q 2681 1134 2681 1778 
z
M 3256 225 
Q 3256 -563 2884 -969 
Q 2513 -1375 1791 -1375 
Q 1553 -1375 1293 -1331 
Q 1034 -1288 775 -1203 
L 775 -634 
Q 1081 -778 1331 -847 
Q 1581 -916 1791 -916 
Q 2256 -916 2468 -662 
Q 2681 -409 2681 141 
L 2681 166 
L 2681 556 
Q 2544 263 2306 119 
Q 2069 -25 1728 -25 
Q 1116 -25 750 465 
Q 384 956 384 1778 
Q 384 2603 750 3093 
Q 1116 3584 1728 3584 
Q 2066 3584 2300 3450 
Q 2534 3316 2681 3034 
L 2681 3488 
L 3256 3488 
L 3256 225 
z
" transform="scale(0.015625)"/>
       <path id="DejaVuSansMono-5b" d="M 1447 4863 
L 2772 4863 
L 2772 4416 
L 2022 4416 
L 2022 -397 
L 2772 -397 
L 2772 -844 
L 1447 -844 
L 1447 4863 
z
" transform="scale(0.015625)"/>
       <path id="DejaVuSansMono-5d" d="M 2406 4863 
L 2406 -844 
L 1081 -844 
L 1081 -397 
L 1831 -397 
L 1831 4416 
L 1081 4416 
L 1081 4863 
L 2406 4863 
z
" transform="scale(0.015625)"/>
      </defs>
      <use xlink:href="#DejaVuSansMono-54"/>
      <use xlink:href="#DejaVuSansMono-69" x="60.205078"/>
      <use xlink:href="#DejaVuSansMono-6d" x="120.410156"/>
      <use xlink:href="#DejaVuSansMono-65" x="180.615234"/>
      <use xlink:href="#DejaVuSansMono-20" x="240.820312"/>
      <use xlink:href="#DejaVuSansMono-73" x="301.025391"/>
      <use xlink:href="#DejaVuSansMono-69" x="361.230469"/>
      <use xlink:href="#DejaVuSansMono-6e" x="421.435547"/>
      <use xlink:href="#DejaVuSansMono-63" x="481.640625"/>
      <use xlink:href="#DejaVuSansMono-65" x="541.845703"/>
      <use xlink:href="#DejaVuSansMono-20" x="602.050781"/>
      <use xlink:href="#DejaVuSansMono-6f" x="662.255859"/>
      <use xlink:href="#DejaVuSansMono-72" x="722.460938"/>
      <use xlink:href="#DejaVuSansMono-69" x="782.666016"/>
      <use xlink:href="#DejaVuSansMono-67" x="842.871094"/>
      <use xlink:href="#DejaVuSansMono-69" x="903.076172"/>
      <use xlink:href="#DejaVuSansMono-6e" x="963.28125"/>
      <use xlink:href="#DejaVuSansMono-20" x="1023.486328"/>
      <use xlink:href="#DejaVuSansMono-5b" x="1083.691406"/>
      <use xlink:href="#DejaVuSansMono-73" x="1143.896484"/>
      <use xlink:href="#DejaVuSansMono-5d" x="1204.101562"/>
     </g>
    </g>
   </g>
   <g id="matplotlib.axis_2">
    <g id="ytick_1"/>
    <g id="ytick_2"/>
    <g id="ytick_3"/>
   </g>
   <g id="line2d_1">
    <path d="M 42.656 119.083674 
L 54.624 119.164591 
L 61.696 118.79336 
L 69.856 118.140323 
L 74.752 118.265559 
L 87.808 118.663351 
L 107.936 118.324728 
L 121.536 118.268941 
L 130.24 117.995864 
L 190.08 119.021268 
L 196.608 118.702675 
L 204.768 118.172284 
L 210.208 117.53739 
L 215.648 116.98047 
L 220 116.751981 
L 224.352 116.770298 
L 230.88 116.805139 
L 233.6 116.888656 
L 235.776 117.207096 
L 237.408 117.654351 
L 239.584 118.490062 
L 242.304 119.800056 
L 246.656 122.001127 
L 248.288 122.603227 
L 249.92 122.984567 
L 251.552 123.153037 
L 254.272 123.146559 
L 260.8 122.838835 
L 262.432 122.548447 
L 264.064 122.072953 
L 266.24 121.157383 
L 270.048 119.166126 
L 272.768 117.861949 
L 274.944 117.085978 
L 276.576 116.724324 
L 278.208 116.566235 
L 280.384 116.623456 
L 286.912 117.141396 
L 289.088 116.918744 
L 291.264 116.434552 
L 296.16 115.219544 
L 298.336 114.938882 
L 300.512 114.885962 
L 302.688 115.048843 
L 305.408 115.475268 
L 309.216 116.317135 
L 319.552 118.793787 
L 322.272 119.12841 
L 324.992 119.22469 
L 327.168 119.105163 
L 330.432 118.673486 
L 333.696 118.304808 
L 336.96 118.182328 
L 341.312 118.236762 
L 349.472 118.467282 
L 359.808 118.406502 
L 364.16 118.796736 
L 367.968 119.31867 
L 372.864 120.292218 
L 381.568 122.045709 
L 383.2 122.064436 
L 385.376 121.82583 
L 387.552 121.341239 
L 389.728 120.646876 
L 396.8 118.082751 
L 398.976 117.700845 
L 401.152 117.552431 
L 410.4 117.264376 
L 412.576 116.914356 
L 415.84 116.099053 
L 418.56 115.493228 
L 420.192 115.354277 
L 421.824 115.450363 
L 423.456 115.761597 
L 426.176 116.569285 
L 430.528 117.904642 
L 433.792 118.615702 
L 439.232 119.507202 
L 445.216 120.281507 
L 457.728 121.412116 
L 460.448 121.36046 
L 463.168 121.081535 
L 466.432 120.49492 
L 472.416 119.090114 
L 478.4 117.468458 
L 487.648 114.889012 
L 489.28 114.718685 
L 490.912 114.724249 
L 493.088 114.962628 
L 495.808 115.503825 
L 498.528 116.248917 
L 501.248 117.209034 
L 508.32 119.907925 
L 510.496 120.37125 
L 513.216 120.658375 
L 517.568 120.840243 
L 520.288 120.728169 
L 523.008 120.360773 
L 525.728 119.740707 
L 529.536 118.602106 
L 533.344 117.363556 
L 533.344 117.363556 
" clip-path="url(#pc2da63ab8e)" style="fill: none; stroke: #000000; stroke-width: 0.5; stroke-linecap: square"/>
   </g>
   <g id="line2d_2">
    <path d="M 42.656 119.559586 
L 49.728 119.585785 
L 57.344 119.610249 
L 61.696 119.392159 
L 68.768 118.739664 
L 73.12 118.475821 
L 76.928 118.473957 
L 92.16 118.845712 
L 126.976 117.986991 
L 136.768 117.644367 
L 144.928 117.616725 
L 152.544 117.806741 
L 179.744 118.789289 
L 188.992 118.968364 
L 199.328 118.881139 
L 204.768 118.668701 
L 208.576 118.315056 
L 212.384 117.738924 
L 217.28 116.74424 
L 222.72 115.658859 
L 225.44 115.312946 
L 228.16 115.217254 
L 230.88 115.409794 
L 233.6 115.915363 
L 236.32 116.679955 
L 239.584 117.83915 
L 244.48 119.848221 
L 249.376 122.088949 
L 253.728 124.082567 
L 255.904 124.840451 
L 257.536 125.208821 
L 260.256 125.182697 
L 261.344 124.912935 
L 262.976 124.287246 
L 265.152 123.052754 
L 271.136 119.105978 
L 272.768 118.362739 
L 274.4 117.872235 
L 276.576 117.620502 
L 278.752 117.665559 
L 283.104 117.785537 
L 284.736 117.643457 
L 286.912 117.194645 
L 289.632 116.352929 
L 293.984 114.996457 
L 296.16 114.573344 
L 298.336 114.38514 
L 301.6 114.467581 
L 306.496 115.041758 
L 316.288 116.247908 
L 322.816 116.79078 
L 331.52 117.252494 
L 347.296 118.042827 
L 353.824 118.666981 
L 361.44 119.379654 
L 366.88 119.627923 
L 371.232 119.866014 
L 373.952 120.210883 
L 376.672 120.793602 
L 379.392 121.611162 
L 387.552 124.341551 
L 389.728 124.738479 
L 392.448 124.850989 
L 394.624 124.630053 
L 396.8 124.13641 
L 398.976 123.407143 
L 401.696 122.224047 
L 405.504 120.252289 
L 409.856 118.004401 
L 412.032 117.09324 
L 413.664 116.571843 
L 415.296 116.204106 
L 417.472 116.005259 
L 419.648 116.104497 
L 421.28 116.334942 
L 424 116.956612 
L 432.16 119.000683 
L 435.424 119.441904 
L 438.688 119.651355 
L 444.672 119.735572 
L 457.184 119.680922 
L 462.08 119.361084 
L 469.152 118.603735 
L 474.592 118.128972 
L 484.384 117.38316 
L 488.192 116.766984 
L 493.632 115.603781 
L 497.984 114.746971 
L 501.248 114.345819 
L 503.424 114.248197 
L 506.688 114.346898 
L 509.952 114.718454 
L 522.464 116.492211 
L 525.728 116.63576 
L 528.992 116.570977 
L 533.344 116.228557 
L 533.344 116.228557 
" clip-path="url(#pc2da63ab8e)" style="fill: none; stroke: #ff0000; stroke-width: 0.5; stroke-linecap: square"/>
   </g>
   <g id="text_2">
    <g id="patch_4">
     <path d="M 20.939687 128.405469 
L 34.96 128.405469 
L 34.96 110.674219 
L 20.939687 110.674219 
L 20.939687 128.405469 
z
" style="fill: none"/>
    </g>
    <!-- Z -->
    <g transform="translate(24.939687 122.325781) scale(0.1 -0.1)">
     <defs>
      <path id="DejaVuSansMono-5a" d="M 556 4666 
L 3584 4666 
L 3584 4184 
L 1147 531 
L 3653 531 
L 3653 0 
L 488 0 
L 488 481 
L 2859 4134 
L 556 4134 
L 556 4666 
z
" transform="scale(0.015625)"/>
     </defs>
     <use xlink:href="#DejaVuSansMono-5a"/>
    </g>
   </g>
   <g id="text_3">
    <g id="patch_5">
     <path d="M 39.2 75.941558 
L 510.764063 75.941558 
L 510.764063 46.948746 
L 39.2 46.948746 
L 39.2 75.941558 
z
" style="fill: none"/>
    </g>
    <!-- C201509162254A: La -31.130 Lo -72.090 Dp 17.350km -->
    <g transform="translate(43.2 58.531558) scale(0.1 -0.1)">
     <defs>
      <path id="DejaVuSansMono-43" d="M 3353 166 
Q 3113 38 2859 -26 
Q 2606 -91 2322 -91 
Q 1425 -91 929 543 
Q 434 1178 434 2328 
Q 434 3472 932 4111 
Q 1431 4750 2322 4750 
Q 2606 4750 2859 4686 
Q 3113 4622 3353 4494 
L 3353 3847 
Q 3122 4038 2856 4138 
Q 2591 4238 2322 4238 
Q 1706 4238 1400 3763 
Q 1094 3288 1094 2328 
Q 1094 1372 1400 897 
Q 1706 422 2322 422 
Q 2597 422 2861 522 
Q 3125 622 3353 813 
L 3353 166 
z
" transform="scale(0.015625)"/>
      <path id="DejaVuSansMono-32" d="M 1166 531 
L 3309 531 
L 3309 0 
L 475 0 
L 475 531 
Q 1059 1147 1496 1619 
Q 1934 2091 2100 2284 
Q 2413 2666 2522 2902 
Q 2631 3138 2631 3384 
Q 2631 3775 2401 3997 
Q 2172 4219 1772 4219 
Q 1488 4219 1175 4116 
Q 863 4013 513 3803 
L 513 4441 
Q 834 4594 1145 4672 
Q 1456 4750 1759 4750 
Q 2444 4750 2861 4386 
Q 3278 4022 3278 3431 
Q 3278 3131 3139 2831 
Q 3000 2531 2688 2169 
Q 2513 1966 2180 1606 
Q 1847 1247 1166 531 
z
" transform="scale(0.015625)"/>
      <path id="DejaVuSansMono-30" d="M 1509 2344 
Q 1509 2516 1629 2641 
Q 1750 2766 1919 2766 
Q 2094 2766 2219 2641 
Q 2344 2516 2344 2344 
Q 2344 2169 2220 2047 
Q 2097 1925 1919 1925 
Q 1744 1925 1626 2044 
Q 1509 2163 1509 2344 
z
M 1925 4250 
Q 1484 4250 1267 3775 
Q 1050 3300 1050 2328 
Q 1050 1359 1267 884 
Q 1484 409 1925 409 
Q 2369 409 2586 884 
Q 2803 1359 2803 2328 
Q 2803 3300 2586 3775 
Q 2369 4250 1925 4250 
z
M 1925 4750 
Q 2672 4750 3055 4137 
Q 3438 3525 3438 2328 
Q 3438 1134 3055 521 
Q 2672 -91 1925 -91 
Q 1178 -91 797 521 
Q 416 1134 416 2328 
Q 416 3525 797 4137 
Q 1178 4750 1925 4750 
z
" transform="scale(0.015625)"/>
      <path id="DejaVuSansMono-31" d="M 844 531 
L 1825 531 
L 1825 4097 
L 769 3859 
L 769 4434 
L 1819 4666 
L 2450 4666 
L 2450 531 
L 3419 531 
L 3419 0 
L 844 0 
L 844 531 
z
" transform="scale(0.015625)"/>
      <path id="DejaVuSansMono-35" d="M 647 4666 
L 3009 4666 
L 3009 4134 
L 1222 4134 
L 1222 2988 
Q 1356 3038 1492 3061 
Q 1628 3084 1766 3084 
Q 2491 3084 2916 2656 
Q 3341 2228 3341 1497 
Q 3341 759 2895 334 
Q 2450 -91 1678 -91 
Q 1306 -91 998 -41 
Q 691 9 447 109 
L 447 750 
Q 734 594 1025 517 
Q 1316 441 1619 441 
Q 2141 441 2423 716 
Q 2706 991 2706 1497 
Q 2706 1997 2414 2275 
Q 2122 2553 1600 2553 
Q 1347 2553 1106 2495 
Q 866 2438 647 2322 
L 647 4666 
z
" transform="scale(0.015625)"/>
      <path id="DejaVuSansMono-39" d="M 1863 2069 
Q 2266 2069 2495 2359 
Q 2725 2650 2725 3163 
Q 2725 3675 2495 3965 
Q 2266 4256 1863 4256 
Q 1444 4256 1231 3979 
Q 1019 3703 1019 3163 
Q 1019 2619 1230 2344 
Q 1441 2069 1863 2069 
z
M 738 97 
L 738 678 
Q 934 563 1156 502 
Q 1378 441 1619 441 
Q 2219 441 2526 892 
Q 2834 1344 2834 2222 
Q 2688 1909 2422 1742 
Q 2156 1575 1813 1575 
Q 1138 1575 767 1990 
Q 397 2406 397 3169 
Q 397 3922 776 4336 
Q 1156 4750 1850 4750 
Q 2663 4750 3041 4165 
Q 3419 3581 3419 2328 
Q 3419 1150 2964 529 
Q 2509 -91 1644 -91 
Q 1416 -91 1184 -42 
Q 953 6 738 97 
z
" transform="scale(0.015625)"/>
      <path id="DejaVuSansMono-36" d="M 3097 4563 
L 3097 3981 
Q 2900 4097 2678 4158 
Q 2456 4219 2216 4219 
Q 1616 4219 1306 3767 
Q 997 3316 997 2438 
Q 1147 2750 1412 2917 
Q 1678 3084 2022 3084 
Q 2697 3084 3067 2670 
Q 3438 2256 3438 1497 
Q 3438 741 3056 325 
Q 2675 -91 1984 -91 
Q 1172 -91 794 492 
Q 416 1075 416 2328 
Q 416 3509 870 4129 
Q 1325 4750 2188 4750 
Q 2419 4750 2650 4701 
Q 2881 4653 3097 4563 
z
M 1972 2591 
Q 1569 2591 1337 2300 
Q 1106 2009 1106 1497 
Q 1106 984 1337 693 
Q 1569 403 1972 403 
Q 2391 403 2603 679 
Q 2816 956 2816 1497 
Q 2816 2041 2603 2316 
Q 2391 2591 1972 2591 
z
" transform="scale(0.015625)"/>
      <path id="DejaVuSansMono-34" d="M 2297 4091 
L 825 1625 
L 2297 1625 
L 2297 4091 
z
M 2194 4666 
L 2925 4666 
L 2925 1625 
L 3547 1625 
L 3547 1113 
L 2925 1113 
L 2925 0 
L 2297 0 
L 2297 1113 
L 319 1113 
L 319 1709 
L 2194 4666 
z
" transform="scale(0.015625)"/>
      <path id="DejaVuSansMono-41" d="M 1925 4109 
L 1259 1722 
L 2591 1722 
L 1925 4109 
z
M 1544 4666 
L 2309 4666 
L 3738 0 
L 3084 0 
L 2741 1216 
L 1106 1216 
L 769 0 
L 116 0 
L 1544 4666 
z
" transform="scale(0.015625)"/>
      <path id="DejaVuSansMono-3a" d="M 1528 3322 
L 2316 3322 
L 2316 2375 
L 1528 2375 
L 1528 3322 
z
M 1528 953 
L 2316 953 
L 2316 0 
L 1528 0 
L 1528 953 
z
" transform="scale(0.015625)"/>
      <path id="DejaVuSansMono-4c" d="M 672 4666 
L 1306 4666 
L 1306 531 
L 3559 531 
L 3559 0 
L 672 0 
L 672 4666 
z
" transform="scale(0.015625)"/>
      <path id="DejaVuSansMono-61" d="M 2194 1759 
L 2003 1759 
Q 1500 1759 1245 1582 
Q 991 1406 991 1056 
Q 991 741 1181 566 
Q 1372 391 1709 391 
Q 2184 391 2456 720 
Q 2728 1050 2731 1631 
L 2731 1759 
L 2194 1759 
z
M 3309 1997 
L 3309 0 
L 2731 0 
L 2731 519 
Q 2547 206 2267 57 
Q 1988 -91 1588 -91 
Q 1053 -91 734 211 
Q 416 513 416 1019 
Q 416 1603 808 1906 
Q 1200 2209 1959 2209 
L 2731 2209 
L 2731 2300 
Q 2728 2719 2518 2908 
Q 2309 3097 1850 3097 
Q 1556 3097 1256 3012 
Q 956 2928 672 2766 
L 672 3341 
Q 991 3463 1283 3523 
Q 1575 3584 1850 3584 
Q 2284 3584 2592 3456 
Q 2900 3328 3091 3072 
Q 3209 2916 3259 2686 
Q 3309 2456 3309 1997 
z
" transform="scale(0.015625)"/>
      <path id="DejaVuSansMono-2d" d="M 1113 2009 
L 2741 2009 
L 2741 1497 
L 1113 1497 
L 1113 2009 
z
" transform="scale(0.015625)"/>
      <path id="DejaVuSansMono-33" d="M 2425 2497 
Q 2884 2375 3128 2064 
Q 3372 1753 3372 1288 
Q 3372 644 2939 276 
Q 2506 -91 1741 -91 
Q 1419 -91 1084 -31 
Q 750 28 428 141 
L 428 769 
Q 747 603 1056 522 
Q 1366 441 1672 441 
Q 2191 441 2469 675 
Q 2747 909 2747 1350 
Q 2747 1756 2469 1995 
Q 2191 2234 1716 2234 
L 1234 2234 
L 1234 2753 
L 1716 2753 
Q 2150 2753 2394 2943 
Q 2638 3134 2638 3475 
Q 2638 3834 2411 4026 
Q 2184 4219 1766 4219 
Q 1488 4219 1191 4156 
Q 894 4094 569 3969 
L 569 4550 
Q 947 4650 1242 4700 
Q 1538 4750 1766 4750 
Q 2447 4750 2855 4408 
Q 3263 4066 3263 3500 
Q 3263 3116 3048 2859 
Q 2834 2603 2425 2497 
z
" transform="scale(0.015625)"/>
      <path id="DejaVuSansMono-2e" d="M 1528 953 
L 2316 953 
L 2316 0 
L 1528 0 
L 1528 953 
z
" transform="scale(0.015625)"/>
      <path id="DejaVuSansMono-37" d="M 434 4666 
L 3372 4666 
L 3372 4397 
L 1703 0 
L 1044 0 
L 2669 4134 
L 434 4134 
L 434 4666 
z
" transform="scale(0.015625)"/>
      <path id="DejaVuSansMono-44" d="M 1363 519 
Q 2159 519 2475 911 
Q 2791 1303 2791 2328 
Q 2791 3363 2477 3755 
Q 2163 4147 1363 4147 
L 1063 4147 
L 1063 519 
L 1363 519 
z
M 1375 4666 
Q 2444 4666 2950 4097 
Q 3456 3528 3456 2328 
Q 3456 1134 2950 567 
Q 2444 0 1375 0 
L 428 0 
L 428 4666 
L 1375 4666 
z
" transform="scale(0.015625)"/>
      <path id="DejaVuSansMono-70" d="M 1172 441 
L 1172 -1331 
L 594 -1331 
L 594 3500 
L 1172 3500 
L 1172 3053 
Q 1316 3313 1555 3448 
Q 1794 3584 2106 3584 
Q 2741 3584 3102 3093 
Q 3463 2603 3463 1734 
Q 3463 881 3100 395 
Q 2738 -91 2106 -91 
Q 1788 -91 1548 45 
Q 1309 181 1172 441 
z
M 2859 1747 
Q 2859 2416 2648 2756 
Q 2438 3097 2022 3097 
Q 1603 3097 1387 2755 
Q 1172 2413 1172 1747 
Q 1172 1084 1387 740 
Q 1603 397 2022 397 
Q 2438 397 2648 737 
Q 2859 1078 2859 1747 
z
" transform="scale(0.015625)"/>
      <path id="DejaVuSansMono-6b" d="M 738 4863 
L 1331 4863 
L 1331 2047 
L 2841 3500 
L 3541 3500 
L 2163 2181 
L 3756 0 
L 3053 0 
L 1759 1806 
L 1331 1403 
L 1331 0 
L 738 0 
L 738 4863 
z
" transform="scale(0.015625)"/>
     </defs>
     <use xlink:href="#DejaVuSansMono-43"/>
     <use xlink:href="#DejaVuSansMono-32" x="60.205078"/>
     <use xlink:href="#DejaVuSansMono-30" x="120.410156"/>
     <use xlink:href="#DejaVuSansMono-31" x="180.615234"/>
     <use xlink:href="#DejaVuSansMono-35" x="240.820312"/>
     <use xlink:href="#DejaVuSansMono-30" x="301.025391"/>
     <use xlink:href="#DejaVuSansMono-39" x="361.230469"/>
     <use xlink:href="#DejaVuSansMono-31" x="421.435547"/>
     <use xlink:href="#DejaVuSansMono-36" x="481.640625"/>
     <use xlink:href="#DejaVuSansMono-32" x="541.845703"/>
     <use xlink:href="#DejaVuSansMono-32" x="602.050781"/>
     <use xlink:href="#DejaVuSansMono-35" x="662.255859"/>
     <use xlink:href="#DejaVuSansMono-34" x="722.460938"/>
     <use xlink:href="#DejaVuSansMono-41" x="782.666016"/>
     <use xlink:href="#DejaVuSansMono-3a" x="842.871094"/>
     <use xlink:href="#DejaVuSansMono-20" x="903.076172"/>
     <use xlink:href="#DejaVuSansMono-4c" x="963.28125"/>
     <use xlink:href="#DejaVuSansMono-61" x="1023.486328"/>
     <use xlink:href="#DejaVuSansMono-20" x="1083.691406"/>
     <use xlink:href="#DejaVuSansMono-2d" x="1143.896484"/>
     <use xlink:href="#DejaVuSansMono-33" x="1204.101562"/>
     <use xlink:href="#DejaVuSansMono-31" x="1264.306641"/>
     <use xlink:href="#DejaVuSansMono-2e" x="1324.511719"/>
     <use xlink:href="#DejaVuSansMono-31" x="1384.716797"/>
     <use xlink:href="#DejaVuSansMono-33" x="1444.921875"/>
     <use xlink:href="#DejaVuSansMono-30" x="1505.126953"/>
     <use xlink:href="#DejaVuSansMono-20" x="1565.332031"/>
     <use xlink:href="#DejaVuSansMono-4c" x="1625.537109"/>
     <use xlink:href="#DejaVuSansMono-6f" x="1685.742188"/>
     <use xlink:href="#DejaVuSansMono-20" x="1745.947266"/>
     <use xlink:href="#DejaVuSansMono-2d" x="1806.152344"/>
     <use xlink:href="#DejaVuSansMono-37" x="1866.357422"/>
     <use xlink:href="#DejaVuSansMono-32" x="1926.5625"/>
     <use xlink:href="#DejaVuSansMono-2e" x="1986.767578"/>
     <use xlink:href="#DejaVuSansMono-30" x="2046.972656"/>
     <use xlink:href="#DejaVuSansMono-39" x="2107.177734"/>
     <use xlink:href="#DejaVuSansMono-30" x="2167.382812"/>
     <use xlink:href="#DejaVuSansMono-20" x="2227.587891"/>
     <use xlink:href="#DejaVuSansMono-44" x="2287.792969"/>
     <use xlink:href="#DejaVuSansMono-70" x="2347.998047"/>
     <use xlink:href="#DejaVuSansMono-20" x="2408.203125"/>
     <use xlink:href="#DejaVuSansMono-31" x="2468.408203"/>
     <use xlink:href="#DejaVuSansMono-37" x="2528.613281"/>
     <use xlink:href="#DejaVuSansMono-2e" x="2588.818359"/>
     <use xlink:href="#DejaVuSansMono-33" x="2649.023438"/>
     <use xlink:href="#DejaVuSansMono-35" x="2709.228516"/>
     <use xlink:href="#DejaVuSansMono-30" x="2769.433594"/>
     <use xlink:href="#DejaVuSansMono-6b" x="2829.638672"/>
     <use xlink:href="#DejaVuSansMono-6d" x="2889.84375"/>
    </g>
    <!-- IU.HRV: La 42.506 Lo: -71.558 Az: 0.4 Baz: 180.5 Dist: 73.381dg - Bp: 40-500s -->
    <g transform="translate(43.2 69.793121) scale(0.1 -0.1)">
     <defs>
      <path id="DejaVuSansMono-49" d="M 628 4666 
L 3219 4666 
L 3219 4134 
L 2241 4134 
L 2241 531 
L 3219 531 
L 3219 0 
L 628 0 
L 628 531 
L 1606 531 
L 1606 4134 
L 628 4134 
L 628 4666 
z
" transform="scale(0.015625)"/>
      <path id="DejaVuSansMono-55" d="M 459 1791 
L 459 4666 
L 1094 4666 
L 1094 1503 
Q 1094 1163 1112 1017 
Q 1131 872 1178 794 
Q 1278 609 1467 515 
Q 1656 422 1925 422 
Q 2197 422 2384 515 
Q 2572 609 2675 794 
Q 2722 872 2740 1015 
Q 2759 1159 2759 1497 
L 2759 4666 
L 3391 4666 
L 3391 1791 
Q 3391 1075 3302 773 
Q 3213 472 2994 275 
Q 2788 91 2522 0 
Q 2256 -91 1925 -91 
Q 1597 -91 1331 0 
Q 1066 91 856 275 
Q 641 469 550 776 
Q 459 1084 459 1791 
z
" transform="scale(0.015625)"/>
      <path id="DejaVuSansMono-48" d="M 428 4666 
L 1063 4666 
L 1063 2753 
L 2791 2753 
L 2791 4666 
L 3425 4666 
L 3425 0 
L 2791 0 
L 2791 2222 
L 1063 2222 
L 1063 0 
L 428 0 
L 428 4666 
z
" transform="scale(0.015625)"/>
      <path id="DejaVuSansMono-52" d="M 2375 2203 
Q 2619 2141 2791 1967 
Q 2963 1794 3219 1275 
L 3853 0 
L 3175 0 
L 2619 1178 
Q 2378 1681 2186 1826 
Q 1994 1972 1684 1972 
L 1081 1972 
L 1081 0 
L 447 0 
L 447 4666 
L 1747 4666 
Q 2516 4666 2925 4319 
Q 3334 3972 3334 3316 
Q 3334 2853 3082 2561 
Q 2831 2269 2375 2203 
z
M 1081 4147 
L 1081 2491 
L 1772 2491 
Q 2225 2491 2447 2694 
Q 2669 2897 2669 3316 
Q 2669 3719 2433 3933 
Q 2197 4147 1747 4147 
L 1081 4147 
z
" transform="scale(0.015625)"/>
      <path id="DejaVuSansMono-56" d="M 1925 531 
L 3022 4666 
L 3675 4666 
L 2309 0 
L 1544 0 
L 178 4666 
L 831 4666 
L 1925 531 
z
" transform="scale(0.015625)"/>
      <path id="DejaVuSansMono-38" d="M 1925 2216 
Q 1503 2216 1273 1980 
Q 1044 1744 1044 1313 
Q 1044 881 1276 642 
Q 1509 403 1925 403 
Q 2350 403 2579 639 
Q 2809 875 2809 1313 
Q 2809 1741 2576 1978 
Q 2344 2216 1925 2216 
z
M 1375 2478 
Q 972 2581 745 2862 
Q 519 3144 519 3541 
Q 519 4097 897 4423 
Q 1275 4750 1925 4750 
Q 2578 4750 2956 4423 
Q 3334 4097 3334 3541 
Q 3334 3144 3107 2862 
Q 2881 2581 2478 2478 
Q 2947 2375 3195 2062 
Q 3444 1750 3444 1253 
Q 3444 622 3041 265 
Q 2638 -91 1925 -91 
Q 1213 -91 811 264 
Q 409 619 409 1247 
Q 409 1747 657 2061 
Q 906 2375 1375 2478 
z
M 1147 3481 
Q 1147 3106 1347 2909 
Q 1547 2713 1925 2713 
Q 2306 2713 2506 2909 
Q 2706 3106 2706 3481 
Q 2706 3863 2507 4063 
Q 2309 4263 1925 4263 
Q 1547 4263 1347 4061 
Q 1147 3859 1147 3481 
z
" transform="scale(0.015625)"/>
      <path id="DejaVuSansMono-7a" d="M 709 3506 
L 3250 3506 
L 3250 2981 
L 1241 469 
L 3250 469 
L 3250 0 
L 634 0 
L 634 531 
L 2644 3047 
L 709 3047 
L 709 3506 
z
" transform="scale(0.015625)"/>
      <path id="DejaVuSansMono-42" d="M 1153 2228 
L 1153 519 
L 1900 519 
Q 2450 519 2684 711 
Q 2919 903 2919 1344 
Q 2919 1800 2672 2014 
Q 2425 2228 1900 2228 
L 1153 2228 
z
M 1153 4147 
L 1153 2741 
L 1888 2741 
Q 2344 2741 2548 2916 
Q 2753 3091 2753 3481 
Q 2753 3834 2551 3990 
Q 2350 4147 1888 4147 
L 1153 4147 
z
M 519 4666 
L 1900 4666 
Q 2616 4666 3003 4356 
Q 3391 4047 3391 3481 
Q 3391 3053 3186 2806 
Q 2981 2559 2572 2497 
Q 3031 2428 3292 2104 
Q 3553 1781 3553 1281 
Q 3553 647 3137 323 
Q 2722 0 1900 0 
L 519 0 
L 519 4666 
z
" transform="scale(0.015625)"/>
      <path id="DejaVuSansMono-74" d="M 1919 4494 
L 1919 3500 
L 3225 3500 
L 3225 3053 
L 1919 3053 
L 1919 1153 
Q 1919 766 2066 612 
Q 2213 459 2578 459 
L 3225 459 
L 3225 0 
L 2522 0 
Q 1875 0 1609 259 
Q 1344 519 1344 1153 
L 1344 3053 
L 409 3053 
L 409 3500 
L 1344 3500 
L 1344 4494 
L 1919 4494 
z
" transform="scale(0.015625)"/>
      <path id="DejaVuSansMono-64" d="M 2681 3053 
L 2681 4863 
L 3256 4863 
L 3256 0 
L 2681 0 
L 2681 441 
Q 2538 181 2298 45 
Q 2059 -91 1747 -91 
Q 1113 -91 748 401 
Q 384 894 384 1759 
Q 384 2613 750 3098 
Q 1116 3584 1747 3584 
Q 2063 3584 2303 3448 
Q 2544 3313 2681 3053 
z
M 991 1747 
Q 991 1078 1203 737 
Q 1416 397 1831 397 
Q 2247 397 2464 740 
Q 2681 1084 2681 1747 
Q 2681 2413 2464 2755 
Q 2247 3097 1831 3097 
Q 1416 3097 1203 2756 
Q 991 2416 991 1747 
z
" transform="scale(0.015625)"/>
     </defs>
     <use xlink:href="#DejaVuSansMono-49"/>
     <use xlink:href="#DejaVuSansMono-55" x="60.205078"/>
     <use xlink:href="#DejaVuSansMono-2e" x="120.410156"/>
     <use xlink:href="#DejaVuSansMono-48" x="180.615234"/>
     <use xlink:href="#DejaVuSansMono-52" x="240.820312"/>
     <use xlink:href="#DejaVuSansMono-56" x="301.025391"/>
     <use xlink:href="#DejaVuSansMono-3a" x="361.230469"/>
     <use xlink:href="#DejaVuSansMono-20" x="421.435547"/>
     <use xlink:href="#DejaVuSansMono-4c" x="481.640625"/>
     <use xlink:href="#DejaVuSansMono-61" x="541.845703"/>
     <use xlink:href="#DejaVuSansMono-20" x="602.050781"/>
     <use xlink:href="#DejaVuSansMono-34" x="662.255859"/>
     <use xlink:href="#DejaVuSansMono-32" x="722.460938"/>
     <use xlink:href="#DejaVuSansMono-2e" x="782.666016"/>
     <use xlink:href="#DejaVuSansMono-35" x="842.871094"/>
     <use xlink:href="#DejaVuSansMono-30" x="903.076172"/>
     <use xlink:href="#DejaVuSansMono-36" x="963.28125"/>
     <use xlink:href="#DejaVuSansMono-20" x="1023.486328"/>
     <use xlink:href="#DejaVuSansMono-4c" x="1083.691406"/>
     <use xlink:href="#DejaVuSansMono-6f" x="1143.896484"/>
     <use xlink:href="#DejaVuSansMono-3a" x="1204.101562"/>
     <use xlink:href="#DejaVuSansMono-20" x="1264.306641"/>
     <use xlink:href="#DejaVuSansMono-2d" x="1324.511719"/>
     <use xlink:href="#DejaVuSansMono-37" x="1384.716797"/>
     <use xlink:href="#DejaVuSansMono-31" x="1444.921875"/>
     <use xlink:href="#DejaVuSansMono-2e" x="1505.126953"/>
     <use xlink:href="#DejaVuSansMono-35" x="1565.332031"/>
     <use xlink:href="#DejaVuSansMono-35" x="1625.537109"/>
     <use xlink:href="#DejaVuSansMono-38" x="1685.742188"/>
     <use xlink:href="#DejaVuSansMono-20" x="1745.947266"/>
     <use xlink:href="#DejaVuSansMono-41" x="1806.152344"/>
     <use xlink:href="#DejaVuSansMono-7a" x="1866.357422"/>
     <use xlink:href="#DejaVuSansMono-3a" x="1926.5625"/>
     <use xlink:href="#DejaVuSansMono-20" x="1986.767578"/>
     <use xlink:href="#DejaVuSansMono-30" x="2046.972656"/>
     <use xlink:href="#DejaVuSansMono-2e" x="2107.177734"/>
     <use xlink:href="#DejaVuSansMono-34" x="2167.382812"/>
     <use xlink:href="#DejaVuSansMono-20" x="2227.587891"/>
     <use xlink:href="#DejaVuSansMono-42" x="2287.792969"/>
     <use xlink:href="#DejaVuSansMono-61" x="2347.998047"/>
     <use xlink:href="#DejaVuSansMono-7a" x="2408.203125"/>
     <use xlink:href="#DejaVuSansMono-3a" x="2468.408203"/>
     <use xlink:href="#DejaVuSansMono-20" x="2528.613281"/>
     <use xlink:href="#DejaVuSansMono-31" x="2588.818359"/>
     <use xlink:href="#DejaVuSansMono-38" x="2649.023438"/>
     <use xlink:href="#DejaVuSansMono-30" x="2709.228516"/>
     <use xlink:href="#DejaVuSansMono-2e" x="2769.433594"/>
     <use xlink:href="#DejaVuSansMono-35" x="2829.638672"/>
     <use xlink:href="#DejaVuSansMono-20" x="2889.84375"/>
     <use xlink:href="#DejaVuSansMono-44" x="2950.048828"/>
     <use xlink:href="#DejaVuSansMono-69" x="3010.253906"/>
     <use xlink:href="#DejaVuSansMono-73" x="3070.458984"/>
     <use xlink:href="#DejaVuSansMono-74" x="3130.664062"/>
     <use xlink:href="#DejaVuSansMono-3a" x="3190.869141"/>
     <use xlink:href="#DejaVuSansMono-20" x="3251.074219"/>
     <use xlink:href="#DejaVuSansMono-37" x="3311.279297"/>
     <use xlink:href="#DejaVuSansMono-33" x="3371.484375"/>
     <use xlink:href="#DejaVuSansMono-2e" x="3431.689453"/>
     <use xlink:href="#DejaVuSansMono-33" x="3491.894531"/>
     <use xlink:href="#DejaVuSansMono-38" x="3552.099609"/>
     <use xlink:href="#DejaVuSansMono-31" x="3612.304688"/>
     <use xlink:href="#DejaVuSansMono-64" x="3672.509766"/>
     <use xlink:href="#DejaVuSansMono-67" x="3732.714844"/>
     <use xlink:href="#DejaVuSansMono-20" x="3792.919922"/>
     <use xlink:href="#DejaVuSansMono-2d" x="3853.125"/>
     <use xlink:href="#DejaVuSansMono-20" x="3913.330078"/>
     <use xlink:href="#DejaVuSansMono-42" x="3973.535156"/>
     <use xlink:href="#DejaVuSansMono-70" x="4033.740234"/>
     <use xlink:href="#DejaVuSansMono-3a" x="4093.945312"/>
     <use xlink:href="#DejaVuSansMono-20" x="4154.150391"/>
     <use xlink:href="#DejaVuSansMono-34" x="4214.355469"/>
     <use xlink:href="#DejaVuSansMono-30" x="4274.560547"/>
     <use xlink:href="#DejaVuSansMono-2d" x="4334.765625"/>
     <use xlink:href="#DejaVuSansMono-35" x="4394.970703"/>
     <use xlink:href="#DejaVuSansMono-30" x="4455.175781"/>
     <use xlink:href="#DejaVuSansMono-30" x="4515.380859"/>
     <use xlink:href="#DejaVuSansMono-73" x="4575.585938"/>
    </g>
   </g>
   <g id="legend_1">
    <g id="line2d_3">
     <path d="M 351.475 94.151563 
L 361.475 94.151563 
L 371.475 94.151563 
" style="fill: none; stroke: #000000; stroke-width: 0.5; stroke-linecap: square"/>
    </g>
    <g id="text_4">
     <!-- Observed -->
     <g transform="translate(379.475 97.651563) scale(0.1 -0.1)">
      <defs>
       <path id="DejaVuSansMono-4f" d="M 2828 2328 
Q 2828 3356 2617 3797 
Q 2406 4238 1925 4238 
Q 1447 4238 1236 3797 
Q 1025 3356 1025 2328 
Q 1025 1303 1236 862 
Q 1447 422 1925 422 
Q 2406 422 2617 861 
Q 2828 1300 2828 2328 
z
M 3488 2328 
Q 3488 1109 3102 509 
Q 2716 -91 1925 -91 
Q 1134 -91 750 506 
Q 366 1103 366 2328 
Q 366 3550 752 4150 
Q 1138 4750 1925 4750 
Q 2716 4750 3102 4150 
Q 3488 3550 3488 2328 
z
" transform="scale(0.015625)"/>
       <path id="DejaVuSansMono-62" d="M 2869 1747 
Q 2869 2416 2656 2756 
Q 2444 3097 2028 3097 
Q 1609 3097 1393 2755 
Q 1178 2413 1178 1747 
Q 1178 1084 1393 740 
Q 1609 397 2028 397 
Q 2444 397 2656 737 
Q 2869 1078 2869 1747 
z
M 1178 3053 
Q 1316 3309 1558 3446 
Q 1800 3584 2119 3584 
Q 2750 3584 3112 3098 
Q 3475 2613 3475 1759 
Q 3475 894 3111 401 
Q 2747 -91 2113 -91 
Q 1800 -91 1561 45 
Q 1322 181 1178 441 
L 1178 0 
L 603 0 
L 603 4863 
L 1178 4863 
L 1178 3053 
z
" transform="scale(0.015625)"/>
       <path id="DejaVuSansMono-76" d="M 313 3500 
L 909 3500 
L 1925 563 
L 2944 3500 
L 3541 3500 
L 2297 0 
L 1556 0 
L 313 3500 
z
" transform="scale(0.015625)"/>
      </defs>
      <use xlink:href="#DejaVuSansMono-4f"/>
      <use xlink:href="#DejaVuSansMono-62" x="60.205078"/>
      <use xlink:href="#DejaVuSansMono-73" x="120.410156"/>
      <use xlink:href="#DejaVuSansMono-65" x="180.615234"/>
      <use xlink:href="#DejaVuSansMono-72" x="240.820312"/>
      <use xlink:href="#DejaVuSansMono-76" x="301.025391"/>
      <use xlink:href="#DejaVuSansMono-65" x="361.230469"/>
      <use xlink:href="#DejaVuSansMono-64" x="421.435547"/>
     </g>
    </g>
    <g id="line2d_4">
     <path d="M 447.6375 94.151563 
L 457.6375 94.151563 
L 467.6375 94.151563 
" style="fill: none; stroke: #ff0000; stroke-width: 0.5; stroke-linecap: square"/>
    </g>
    <g id="text_5">
     <!-- GLAD-M25 -->
     <g transform="translate(475.6375 97.651563) scale(0.1 -0.1)">
      <defs>
       <path id="DejaVuSansMono-47" d="M 3450 384 
Q 3197 150 2880 29 
Q 2563 -91 2194 -91 
Q 1306 -91 812 545 
Q 319 1181 319 2328 
Q 319 3472 819 4111 
Q 1319 4750 2209 4750 
Q 2503 4750 2772 4667 
Q 3041 4584 3291 4416 
L 3291 3769 
Q 3038 4009 2772 4123 
Q 2506 4238 2209 4238 
Q 1594 4238 1286 3761 
Q 978 3284 978 2328 
Q 978 1356 1276 889 
Q 1575 422 2194 422 
Q 2403 422 2561 470 
Q 2719 519 2847 622 
L 2847 1875 
L 2169 1875 
L 2169 2394 
L 3450 2394 
L 3450 384 
z
" transform="scale(0.015625)"/>
       <path id="DejaVuSansMono-4d" d="M 269 4666 
L 1113 4666 
L 1919 2291 
L 2731 4666 
L 3578 4666 
L 3578 0 
L 2994 0 
L 2994 4122 
L 2163 1663 
L 1684 1663 
L 850 4122 
L 850 0 
L 269 0 
L 269 4666 
z
" transform="scale(0.015625)"/>
      </defs>
      <use xlink:href="#DejaVuSansMono-47"/>
      <use xlink:href="#DejaVuSansMono-4c" x="60.205078"/>
      <use xlink:href="#DejaVuSansMono-41" x="120.410156"/>
      <use xlink:href="#DejaVuSansMono-44" x="180.615234"/>
      <use xlink:href="#DejaVuSansMono-2d" x="240.820312"/>
      <use xlink:href="#DejaVuSansMono-4d" x="301.025391"/>
      <use xlink:href="#DejaVuSansMono-32" x="361.230469"/>
      <use xlink:href="#DejaVuSansMono-35" x="421.435547"/>
     </g>
    </g>
   </g>
  </g>
  <g id="axes_2">
   <g id="patch_6">
    <path d="M 43.2 231 
L 532.8 231 
L 532.8 156 
L 43.2 156 
z
" style="fill: #ffffff"/>
   </g>
   <g id="patch_7">
    <path d="M 129.696 242.413043 
L 374.496 242.413043 
L 374.496 144.586957 
L 129.696 144.586957 
z
" clip-path="url(#p6ca0efd72f)" style="fill: #e6e6e6"/>
   </g>
   <g id="matplotlib.axis_3">
    <g id="xtick_11"/>
    <g id="xtick_12"/>
    <g id="xtick_13"/>
    <g id="xtick_14"/>
    <g id="xtick_15"/>
    <g id="xtick_16"/>
    <g id="xtick_17"/>
    <g id="xtick_18"/>
    <g id="xtick_19"/>
    <g id="xtick_20"/>
    <g id="text_6">
     <!-- Time since origin [s] -->
     <g transform="translate(224.786719 242.598437) scale(0.1 -0.1)">
      <use xlink:href="#DejaVuSansMono-54"/>
      <use xlink:href="#DejaVuSansMono-69" x="60.205078"/>
      <use xlink:href="#DejaVuSansMono-6d" x="120.410156"/>
      <use xlink:href="#DejaVuSansMono-65" x="180.615234"/>
      <use xlink:href="#DejaVuSansMono-20" x="240.820312"/>
      <use xlink:href="#DejaVuSansMono-73" x="301.025391"/>
      <use xlink:href="#DejaVuSansMono-69" x="361.230469"/>
      <use xlink:href="#DejaVuSansMono-6e" x="421.435547"/>
      <use xlink:href="#DejaVuSansMono-63" x="481.640625"/>
      <use xlink:href="#DejaVuSansMono-65" x="541.845703"/>
      <use xlink:href="#DejaVuSansMono-20" x="602.050781"/>
      <use xlink:href="#DejaVuSansMono-6f" x="662.255859"/>
      <use xlink:href="#DejaVuSansMono-72" x="722.460938"/>
      <use xlink:href="#DejaVuSansMono-69" x="782.666016"/>
      <use xlink:href="#DejaVuSansMono-67" x="842.871094"/>
      <use xlink:href="#DejaVuSansMono-69" x="903.076172"/>
      <use xlink:href="#DejaVuSansMono-6e" x="963.28125"/>
      <use xlink:href="#DejaVuSansMono-20" x="1023.486328"/>
      <use xlink:href="#DejaVuSansMono-5b" x="1083.691406"/>
      <use xlink:href="#DejaVuSansMono-73" x="1143.896484"/>
      <use xlink:href="#DejaVuSansMono-5d" x="1204.101562"/>
     </g>
    </g>
   </g>
   <g id="matplotlib.axis_4">
    <g id="ytick_4"/>
    <g id="ytick_5"/>
    <g id="ytick_6"/>
   </g>
   <g id="line2d_5">
    <path d="M 42.656 193.892219 
L 58.976 193.857134 
L 65.504 193.613444 
L 69.856 193.509036 
L 74.208 193.700545 
L 84.544 194.191162 
L 89.984 194.162912 
L 103.584 193.608935 
L 110.112 193.394904 
L 118.272 193.227341 
L 123.712 192.817873 
L 128.608 192.459159 
L 132.416 192.436816 
L 142.208 192.533806 
L 151.456 192.393716 
L 155.264 192.632796 
L 161.248 193.265878 
L 176.48 194.965524 
L 180.832 195.539845 
L 187.36 196.678001 
L 191.712 197.343404 
L 195.52 197.693911 
L 199.872 197.848172 
L 206.4 197.817435 
L 209.664 197.615951 
L 212.384 197.229316 
L 214.56 196.678317 
L 216.192 196.070777 
L 217.824 195.279717 
L 219.456 194.300355 
L 221.088 193.123349 
L 223.264 191.230171 
L 225.44 189.0117 
L 231.424 182.669398 
L 234.688 179.664806 
L 237.952 176.925966 
L 240.128 175.412662 
L 241.76 174.533551 
L 243.392 173.898745 
L 245.024 173.548328 
L 246.112 173.520076 
L 247.2 173.69608 
L 248.288 174.130512 
L 249.376 174.865274 
L 250.464 175.936026 
L 251.552 177.37471 
L 252.64 179.210339 
L 253.728 181.460698 
L 254.816 184.121674 
L 256.448 188.808305 
L 258.624 195.999359 
L 262.432 208.942222 
L 264.064 213.61456 
L 265.152 216.138752 
L 266.24 218.07233 
L 267.328 219.343738 
L 267.872 219.718022 
L 268.416 219.917231 
L 268.96 219.914724 
L 269.504 219.766402 
L 270.048 219.437766 
L 270.592 218.946529 
L 271.68 217.515373 
L 272.768 215.573512 
L 274.4 211.992425 
L 277.664 204.337754 
L 279.296 201.215074 
L 280.384 199.607275 
L 281.472 198.414107 
L 282.56 197.619578 
L 283.648 197.169802 
L 284.736 196.980891 
L 286.368 196.969226 
L 289.088 196.959435 
L 290.72 196.720686 
L 292.896 196.124969 
L 296.704 194.719793 
L 299.424 193.861235 
L 302.144 193.300727 
L 307.584 192.307483 
L 311.392 191.318218 
L 314.112 190.681274 
L 316.288 190.434773 
L 317.92 190.453074 
L 320.096 190.736973 
L 327.168 192.044424 
L 329.888 192.213544 
L 332.064 192.169339 
L 334.24 191.89261 
L 336.96 191.260753 
L 340.224 190.497771 
L 342.944 190.110515 
L 345.12 190.001032 
L 347.296 190.084481 
L 349.472 190.368949 
L 356.544 191.492804 
L 361.44 191.931185 
L 365.248 191.982102 
L 370.688 192.071216 
L 374.496 192.326222 
L 388.096 193.960342 
L 390.816 194.712158 
L 393.536 195.480833 
L 395.168 195.775589 
L 396.8 195.8921 
L 398.976 195.794616 
L 401.696 195.421264 
L 404.96 194.769873 
L 408.768 193.964022 
L 410.4 193.821823 
L 412.576 193.914753 
L 419.104 194.528273 
L 433.792 194.486327 
L 438.688 194.156878 
L 444.672 193.529137 
L 453.376 192.433297 
L 457.728 192.135202 
L 460.448 192.167551 
L 463.168 192.44875 
L 470.784 193.422275 
L 473.504 193.527018 
L 476.768 193.424069 
L 481.12 193.276468 
L 483.296 193.370747 
L 485.472 193.676708 
L 488.192 194.318058 
L 490.912 194.943815 
L 493.088 195.229273 
L 495.808 195.334396 
L 500.16 195.477887 
L 504.512 195.723471 
L 506.688 195.578785 
L 511.04 194.949748 
L 514.848 194.277144 
L 517.568 193.534403 
L 521.92 192.218958 
L 524.096 191.806839 
L 528.448 191.301304 
L 533.344 190.868624 
L 533.344 190.868624 
" clip-path="url(#p6ca0efd72f)" style="fill: none; stroke: #000000; stroke-width: 0.5; stroke-linecap: square"/>
   </g>
   <g id="line2d_6">
    <path d="M 42.656 194.73772 
L 66.048 194.351176 
L 71.488 194.269606 
L 75.84 194.412999 
L 88.352 195.04404 
L 93.792 194.964868 
L 101.408 194.623833 
L 127.52 193.009304 
L 142.752 191.75557 
L 149.824 191.411117 
L 155.264 191.375291 
L 161.248 191.563103 
L 169.952 192.064014 
L 175.392 192.57094 
L 180.288 193.251474 
L 198.784 196.152811 
L 205.312 196.79748 
L 208.576 196.929868 
L 211.296 196.847313 
L 214.016 196.523435 
L 216.736 195.950142 
L 219.456 195.146571 
L 222.176 194.124141 
L 224.352 193.120401 
L 226.528 191.876096 
L 228.16 190.714447 
L 229.792 189.282951 
L 231.424 187.519909 
L 233.056 185.37631 
L 234.688 182.820025 
L 236.32 179.853299 
L 238.496 175.408385 
L 242.848 166.260514 
L 244.48 163.455169 
L 246.112 161.488013 
L 246.656 161.04262 
L 247.2 160.891304 
L 248.288 160.995455 
L 249.376 161.258912 
L 249.92 161.707444 
L 251.008 163.437189 
L 252.096 165.670665 
L 253.184 168.7482 
L 254.272 172.367024 
L 255.904 178.94694 
L 258.08 189.099809 
L 261.888 207.272681 
L 263.52 213.764647 
L 264.608 217.222039 
L 265.696 220.102301 
L 266.24 221.147829 
L 267.328 222.670344 
L 267.872 223.217473 
L 268.416 223.457044 
L 269.504 223.246499 
L 270.592 222.71516 
L 271.136 222.238623 
L 272.224 220.591915 
L 273.312 218.693369 
L 276.032 213.013689 
L 277.664 209.705416 
L 279.296 206.830994 
L 280.928 204.566182 
L 282.016 203.465674 
L 283.104 202.61312 
L 284.736 201.840606 
L 285.824 201.585089 
L 287.456 201.413846 
L 292.352 201.308485 
L 294.528 200.950252 
L 296.704 200.335244 
L 300.512 198.918011 
L 304.32 197.580064 
L 307.04 196.86175 
L 310.304 196.243317 
L 323.904 193.995906 
L 335.328 191.808885 
L 350.016 189.233549 
L 353.28 189.020118 
L 357.088 189.068917 
L 361.984 189.454293 
L 368.512 189.977959 
L 372.32 190.008124 
L 381.024 189.92353 
L 383.2 190.196623 
L 385.376 190.670233 
L 388.096 191.509368 
L 396.8 194.496602 
L 399.52 195.031491 
L 402.24 195.313043 
L 405.504 195.402529 
L 411.488 195.279598 
L 417.472 194.933125 
L 428.896 194.130941 
L 444.672 193.621708 
L 459.904 193.451436 
L 466.976 193.445889 
L 478.4 193.467704 
L 482.752 193.602221 
L 486.016 193.918528 
L 489.28 194.460223 
L 499.072 196.361382 
L 501.248 196.437172 
L 503.424 196.259701 
L 505.6 195.814635 
L 507.776 195.14743 
L 511.04 193.872868 
L 517.568 191.263849 
L 520.832 190.228675 
L 524.096 189.435977 
L 526.816 188.995946 
L 528.992 188.817254 
L 531.712 188.814237 
L 533.344 188.938134 
L 533.344 188.938134 
" clip-path="url(#p6ca0efd72f)" style="fill: none; stroke: #ff0000; stroke-width: 0.5; stroke-linecap: square"/>
   </g>
   <g id="text_7">
    <g id="patch_8">
     <path d="M 20.939687 203.405469 
L 34.96 203.405469 
L 34.96 185.674219 
L 20.939687 185.674219 
L 20.939687 203.405469 
z
" style="fill: none"/>
    </g>
    <!-- R -->
    <g transform="translate(24.939687 197.325781) scale(0.1 -0.1)">
     <use xlink:href="#DejaVuSansMono-52"/>
    </g>
   </g>
  </g>
  <g id="axes_3">
   <g id="patch_9">
    <path d="M 43.2 306 
L 532.8 306 
L 532.8 231 
L 43.2 231 
z
" style="fill: #ffffff"/>
   </g>
   <g id="patch_10">
    <path d="M 129.696 317.413043 
L 374.496 317.413043 
L 374.496 219.586957 
L 129.696 219.586957 
z
" clip-path="url(#p38d07939ea)" style="fill: #e6e6e6"/>
   </g>
   <g id="matplotlib.axis_5">
    <g id="xtick_21">
     <g id="line2d_7">
      <defs>
       <path id="mb06c0acd9e" d="M 0 0 
L 0 3.5 
" style="stroke: #000000; stroke-width: 0.8"/>
      </defs>
      <g>
       <use xlink:href="#mb06c0acd9e" x="43.2" y="306" style="stroke: #000000; stroke-width: 0.8"/>
      </g>
     </g>
     <g id="text_8">
      <!-- 900 -->
      <g transform="translate(34.169531 320.651563) scale(0.1 -0.1)">
       <use xlink:href="#DejaVuSansMono-39"/>
       <use xlink:href="#DejaVuSansMono-30" x="60.205078"/>
       <use xlink:href="#DejaVuSansMono-30" x="120.410156"/>
      </g>
     </g>
    </g>
    <g id="xtick_22">
     <g id="line2d_8">
      <g>
       <use xlink:href="#mb06c0acd9e" x="97.6" y="306" style="stroke: #000000; stroke-width: 0.8"/>
      </g>
     </g>
     <g id="text_9">
      <!-- 1000 -->
      <g transform="translate(85.559375 320.651563) scale(0.1 -0.1)">
       <use xlink:href="#DejaVuSansMono-31"/>
       <use xlink:href="#DejaVuSansMono-30" x="60.205078"/>
       <use xlink:href="#DejaVuSansMono-30" x="120.410156"/>
       <use xlink:href="#DejaVuSansMono-30" x="180.615234"/>
      </g>
     </g>
    </g>
    <g id="xtick_23">
     <g id="line2d_9">
      <g>
       <use xlink:href="#mb06c0acd9e" x="152" y="306" style="stroke: #000000; stroke-width: 0.8"/>
      </g>
     </g>
     <g id="text_10">
      <!-- 1100 -->
      <g transform="translate(139.959375 320.651563) scale(0.1 -0.1)">
       <use xlink:href="#DejaVuSansMono-31"/>
       <use xlink:href="#DejaVuSansMono-31" x="60.205078"/>
       <use xlink:href="#DejaVuSansMono-30" x="120.410156"/>
       <use xlink:href="#DejaVuSansMono-30" x="180.615234"/>
      </g>
     </g>
    </g>
    <g id="xtick_24">
     <g id="line2d_10">
      <g>
       <use xlink:href="#mb06c0acd9e" x="206.4" y="306" style="stroke: #000000; stroke-width: 0.8"/>
      </g>
     </g>
     <g id="text_11">
      <!-- 1200 -->
      <g transform="translate(194.359375 320.651563) scale(0.1 -0.1)">
       <use xlink:href="#DejaVuSansMono-31"/>
       <use xlink:href="#DejaVuSansMono-32" x="60.205078"/>
       <use xlink:href="#DejaVuSansMono-30" x="120.410156"/>
       <use xlink:href="#DejaVuSansMono-30" x="180.615234"/>
      </g>
     </g>
    </g>
    <g id="xtick_25">
     <g id="line2d_11">
      <g>
       <use xlink:href="#mb06c0acd9e" x="260.8" y="306" style="stroke: #000000; stroke-width: 0.8"/>
      </g>
     </g>
     <g id="text_12">
      <!-- 1300 -->
      <g transform="translate(248.759375 320.651563) scale(0.1 -0.1)">
       <use xlink:href="#DejaVuSansMono-31"/>
       <use xlink:href="#DejaVuSansMono-33" x="60.205078"/>
       <use xlink:href="#DejaVuSansMono-30" x="120.410156"/>
       <use xlink:href="#DejaVuSansMono-30" x="180.615234"/>
      </g>
     </g>
    </g>
    <g id="xtick_26">
     <g id="line2d_12">
      <g>
       <use xlink:href="#mb06c0acd9e" x="315.2" y="306" style="stroke: #000000; stroke-width: 0.8"/>
      </g>
     </g>
     <g id="text_13">
      <!-- 1400 -->
      <g transform="translate(303.159375 320.651563) scale(0.1 -0.1)">
       <use xlink:href="#DejaVuSansMono-31"/>
       <use xlink:href="#DejaVuSansMono-34" x="60.205078"/>
       <use xlink:href="#DejaVuSansMono-30" x="120.410156"/>
       <use xlink:href="#DejaVuSansMono-30" x="180.615234"/>
      </g>
     </g>
    </g>
    <g id="xtick_27">
     <g id="line2d_13">
      <g>
       <use xlink:href="#mb06c0acd9e" x="369.6" y="306" style="stroke: #000000; stroke-width: 0.8"/>
      </g>
     </g>
     <g id="text_14">
      <!-- 1500 -->
      <g transform="translate(357.559375 320.651563) scale(0.1 -0.1)">
       <use xlink:href="#DejaVuSansMono-31"/>
       <use xlink:href="#DejaVuSansMono-35" x="60.205078"/>
       <use xlink:href="#DejaVuSansMono-30" x="120.410156"/>
       <use xlink:href="#DejaVuSansMono-30" x="180.615234"/>
      </g>
     </g>
    </g>
    <g id="xtick_28">
     <g id="line2d_14">
      <g>
       <use xlink:href="#mb06c0acd9e" x="424" y="306" style="stroke: #000000; stroke-width: 0.8"/>
      </g>
     </g>
     <g id="text_15">
      <!-- 1600 -->
      <g transform="translate(411.959375 320.651563) scale(0.1 -0.1)">
       <use xlink:href="#DejaVuSansMono-31"/>
       <use xlink:href="#DejaVuSansMono-36" x="60.205078"/>
       <use xlink:href="#DejaVuSansMono-30" x="120.410156"/>
       <use xlink:href="#DejaVuSansMono-30" x="180.615234"/>
      </g>
     </g>
    </g>
    <g id="xtick_29">
     <g id="line2d_15">
      <g>
       <use xlink:href="#mb06c0acd9e" x="478.4" y="306" style="stroke: #000000; stroke-width: 0.8"/>
      </g>
     </g>
     <g id="text_16">
      <!-- 1700 -->
      <g transform="translate(466.359375 320.651563) scale(0.1 -0.1)">
       <use xlink:href="#DejaVuSansMono-31"/>
       <use xlink:href="#DejaVuSansMono-37" x="60.205078"/>
       <use xlink:href="#DejaVuSansMono-30" x="120.410156"/>
       <use xlink:href="#DejaVuSansMono-30" x="180.615234"/>
      </g>
     </g>
    </g>
    <g id="xtick_30">
     <g id="line2d_16">
      <g>
       <use xlink:href="#mb06c0acd9e" x="532.8" y="306" style="stroke: #000000; stroke-width: 0.8"/>
      </g>
     </g>
     <g id="text_17">
      <!-- 1800 -->
      <g transform="translate(520.759375 320.651563) scale(0.1 -0.1)">
       <use xlink:href="#DejaVuSansMono-31"/>
       <use xlink:href="#DejaVuSansMono-38" x="60.205078"/>
       <use xlink:href="#DejaVuSansMono-30" x="120.410156"/>
       <use xlink:href="#DejaVuSansMono-30" x="180.615234"/>
      </g>
     </g>
    </g>
    <g id="text_18">
     <!-- Time since origin [s] -->
     <g transform="translate(224.786719 334.329687) scale(0.1 -0.1)">
      <use xlink:href="#DejaVuSansMono-54"/>
      <use xlink:href="#DejaVuSansMono-69" x="60.205078"/>
      <use xlink:href="#DejaVuSansMono-6d" x="120.410156"/>
      <use xlink:href="#DejaVuSansMono-65" x="180.615234"/>
      <use xlink:href="#DejaVuSansMono-20" x="240.820312"/>
      <use xlink:href="#DejaVuSansMono-73" x="301.025391"/>
      <use xlink:href="#DejaVuSansMono-69" x="361.230469"/>
      <use xlink:href="#DejaVuSansMono-6e" x="421.435547"/>
      <use xlink:href="#DejaVuSansMono-63" x="481.640625"/>
      <use xlink:href="#DejaVuSansMono-65" x="541.845703"/>
      <use xlink:href="#DejaVuSansMono-20" x="602.050781"/>
      <use xlink:href="#DejaVuSansMono-6f" x="662.255859"/>
      <use xlink:href="#DejaVuSansMono-72" x="722.460938"/>
      <use xlink:href="#DejaVuSansMono-69" x="782.666016"/>
      <use xlink:href="#DejaVuSansMono-67" x="842.871094"/>
      <use xlink:href="#DejaVuSansMono-69" x="903.076172"/>
      <use xlink:href="#DejaVuSansMono-6e" x="963.28125"/>
      <use xlink:href="#DejaVuSansMono-20" x="1023.486328"/>
      <use xlink:href="#DejaVuSansMono-5b" x="1083.691406"/>
      <use xlink:href="#DejaVuSansMono-73" x="1143.896484"/>
      <use xlink:href="#DejaVuSansMono-5d" x="1204.101562"/>
     </g>
    </g>
   </g>
   <g id="matplotlib.axis_6">
    <g id="ytick_7"/>
    <g id="ytick_8"/>
    <g id="ytick_9"/>
   </g>
   <g id="line2d_17">
    <path d="M 42.656 268.521892 
L 85.088 268.41905 
L 104.672 268.342787 
L 135.136 268.561564 
L 188.992 269.283611 
L 202.048 269.430844 
L 208.576 269.54548 
L 211.296 269.357214 
L 213.472 268.975208 
L 215.104 268.503158 
L 216.736 267.848944 
L 218.912 266.704508 
L 222.176 264.632931 
L 224.896 263.000252 
L 227.072 261.956889 
L 232.512 259.739138 
L 233.6 259.478192 
L 234.688 259.411457 
L 235.776 259.566831 
L 236.864 259.96913 
L 237.952 260.598715 
L 239.584 261.905385 
L 241.216 263.595243 
L 242.848 265.647125 
L 245.568 269.57043 
L 247.744 272.617531 
L 249.376 274.512347 
L 250.464 275.475855 
L 251.552 276.145896 
L 252.64 276.498769 
L 253.728 276.52748 
L 254.816 276.275117 
L 255.904 275.797417 
L 260.256 273.538923 
L 261.344 273.286182 
L 262.432 273.225607 
L 264.064 273.415362 
L 268.416 274.223384 
L 269.504 274.175286 
L 270.592 273.961017 
L 271.68 273.57955 
L 273.312 272.732628 
L 274.944 271.634859 
L 280.928 267.260329 
L 282.56 266.476777 
L 284.192 265.971571 
L 285.824 265.725659 
L 287.456 265.698373 
L 289.632 265.903532 
L 292.896 266.480492 
L 307.04 269.264377 
L 309.216 269.494013 
L 311.392 269.531146 
L 314.656 269.326295 
L 322.816 268.504897 
L 327.712 267.945802 
L 331.52 267.793244 
L 340.768 267.674138 
L 345.664 267.981123 
L 350.56 268.239949 
L 354.368 268.22736 
L 357.632 267.995828 
L 360.352 267.580996 
L 363.616 266.806436 
L 371.232 264.823085 
L 373.408 264.550403 
L 375.584 264.480079 
L 377.76 264.591234 
L 379.392 264.827053 
L 381.024 265.264345 
L 382.656 265.963876 
L 384.288 266.927007 
L 386.464 268.508379 
L 392.992 273.52171 
L 394.624 274.434647 
L 396.256 275.101287 
L 397.888 275.491928 
L 398.976 275.576665 
L 400.064 275.50653 
L 401.152 275.272154 
L 402.784 274.627642 
L 404.416 273.703846 
L 411.488 269.285379 
L 418.016 266.008487 
L 419.648 265.378046 
L 421.28 264.981083 
L 422.912 264.848356 
L 424.544 264.942315 
L 427.264 265.386773 
L 432.704 266.322441 
L 440.864 267.451617 
L 444.128 267.539156 
L 447.936 267.678102 
L 456.096 268.266789 
L 461.536 268.260248 
L 464.8 268.044312 
L 469.696 267.659296 
L 472.416 267.700202 
L 475.136 267.989334 
L 477.856 268.517681 
L 480.576 269.308716 
L 482.752 270.191142 
L 484.928 271.369241 
L 487.104 272.878174 
L 489.824 275.116326 
L 493.632 278.261683 
L 495.264 279.371977 
L 496.896 280.209693 
L 497.984 280.573551 
L 499.072 280.75761 
L 500.16 280.739187 
L 501.248 280.514377 
L 502.336 280.072759 
L 503.424 279.412253 
L 504.512 278.535182 
L 506.144 276.829454 
L 507.776 274.694128 
L 509.952 271.316874 
L 514.304 264.224039 
L 515.936 262.10457 
L 517.024 260.993178 
L 518.112 260.147542 
L 519.2 259.569383 
L 520.288 259.244962 
L 521.376 259.149943 
L 522.464 259.237751 
L 524.096 259.617485 
L 527.36 260.723606 
L 532.8 262.71558 
L 533.344 262.959018 
L 533.344 262.959018 
" clip-path="url(#p38d07939ea)" style="fill: none; stroke: #000000; stroke-width: 0.5; stroke-linecap: square"/>
   </g>
   <g id="line2d_18">
    <path d="M 42.656 268.53276 
L 70.944 268.614017 
L 88.896 268.59213 
L 104.128 268.630422 
L 174.304 268.985214 
L 197.152 268.931354 
L 204.224 268.973333 
L 212.384 269.117154 
L 214.016 268.942338 
L 215.648 268.564367 
L 217.28 267.905507 
L 218.368 267.283212 
L 220 266.037525 
L 221.632 264.378631 
L 223.264 262.328899 
L 224.896 259.986646 
L 228.704 254.313567 
L 229.792 252.946002 
L 231.424 251.406397 
L 231.968 251.125942 
L 233.056 251.112611 
L 234.144 251.200408 
L 234.688 251.335367 
L 235.232 251.766218 
L 236.32 253.119715 
L 237.408 254.827716 
L 239.04 258.263618 
L 241.216 263.873944 
L 243.936 271.175883 
L 245.024 273.761132 
L 246.656 276.99936 
L 247.744 278.540504 
L 248.832 279.715882 
L 249.92 280.179776 
L 251.008 280.406197 
L 251.552 280.420578 
L 252.096 280.2911 
L 253.728 279.441995 
L 255.36 278.235727 
L 258.08 276.326622 
L 259.168 275.747938 
L 260.256 275.407633 
L 261.888 275.164003 
L 263.52 275.287896 
L 265.696 275.692827 
L 267.872 276.010979 
L 268.96 276.019436 
L 270.592 275.780523 
L 271.68 275.427514 
L 273.312 274.603429 
L 275.488 273.086389 
L 280.928 268.843703 
L 283.104 267.573341 
L 284.736 266.892628 
L 286.368 266.454719 
L 287.456 266.28124 
L 290.176 266.244876 
L 292.352 266.534313 
L 295.616 267.255418 
L 300.512 268.36742 
L 303.776 268.84007 
L 307.584 269.131924 
L 316.832 269.533841 
L 319.552 269.459493 
L 322.272 269.177937 
L 325.536 268.577123 
L 333.152 266.996777 
L 335.872 266.731588 
L 338.592 266.723326 
L 341.312 266.890673 
L 348.928 267.488802 
L 352.192 267.438803 
L 354.912 267.176664 
L 357.632 266.709511 
L 360.352 266.026584 
L 363.072 265.121195 
L 366.88 263.554378 
L 371.232 261.744559 
L 372.864 261.236241 
L 374.496 260.924262 
L 375.584 260.897158 
L 377.216 261.049621 
L 378.304 261.351596 
L 379.936 262.142359 
L 381.568 263.333118 
L 383.2 264.891509 
L 384.832 266.744106 
L 388.096 270.945523 
L 390.272 273.672777 
L 391.904 275.4479 
L 393.536 276.837086 
L 394.624 277.478358 
L 395.712 277.976092 
L 396.8 278.100806 
L 398.976 277.996912 
L 400.064 277.579456 
L 401.696 276.733167 
L 403.872 275.255883 
L 408.768 271.697823 
L 410.944 270.401784 
L 413.12 269.384489 
L 415.296 268.644898 
L 417.472 268.15268 
L 420.192 267.826017 
L 422.912 267.744309 
L 426.72 267.870221 
L 437.056 268.429918 
L 449.024 268.547566 
L 458.816 269.069415 
L 462.624 268.912382 
L 466.976 268.465833 
L 475.136 267.543301 
L 477.856 267.475682 
L 480.032 267.669802 
L 481.664 268.06453 
L 482.752 268.469172 
L 484.384 269.343489 
L 486.016 270.595046 
L 487.104 271.648509 
L 488.736 273.545879 
L 490.912 276.608113 
L 495.808 284.088543 
L 496.896 285.386926 
L 497.984 286.51309 
L 498.528 286.893627 
L 499.616 287.213528 
L 500.704 287.365322 
L 501.248 287.315423 
L 501.792 287.036173 
L 502.88 286.085532 
L 503.424 285.516169 
L 504.512 283.851742 
L 505.6 281.826997 
L 507.232 278.022558 
L 508.864 273.648444 
L 513.76 260.135548 
L 515.392 256.406713 
L 517.024 253.389351 
L 518.112 251.791977 
L 519.2 250.49538 
L 520.288 249.530362 
L 521.376 248.804903 
L 522.464 248.387379 
L 524.096 248.100552 
L 525.184 248.158252 
L 526.816 248.518096 
L 527.904 248.982232 
L 529.536 249.942832 
L 531.168 251.257356 
L 532.8 252.931285 
L 533.344 253.555545 
L 533.344 253.555545 
" clip-path="url(#p38d07939ea)" style="fill: none; stroke: #ff0000; stroke-width: 0.5; stroke-linecap: square"/>
   </g>
   <g id="patch_11">
    <path d="M 43.2 306 
L 532.8 306 
" style="fill: none; stroke: #000000; stroke-width: 0.8; stroke-linejoin: miter; stroke-linecap: square"/>
   </g>
   <g id="text_19">
    <g id="patch_12">
     <path d="M 20.939687 278.405469 
L 34.96 278.405469 
L 34.96 260.674219 
L 20.939687 260.674219 
L 20.939687 278.405469 
z
" style="fill: none"/>
    </g>
    <!-- T -->
    <g transform="translate(24.939687 272.325781) scale(0.1 -0.1)">
     <use xlink:href="#DejaVuSansMono-54"/>
    </g>
   </g>
  </g>
 </g>
 <defs>
  <clipPath id="pc2da63ab8e">
   <rect x="43.2" y="81" width="489.6" height="75"/>
  </clipPath>
  <clipPath id="p6ca0efd72f">
   <rect x="43.2" y="156" width="489.6" height="75"/>
  </clipPath>
  <clipPath id="p38d07939ea">
   <rect x="43.2" y="231" width="489.6" height="75"/>
  </clipPath>
 </defs>
</svg>
