<?xml version="1.0" encoding="utf-8" standalone="no"?>
<!DOCTYPE svg PUBLIC "-//W3C//DTD SVG 1.1//EN"
  "http://www.w3.org/Graphics/SVG/1.1/DTD/svg11.dtd">
<svg xmlns:xlink="http://www.w3.org/1999/xlink" width="460.8pt" height="345.6pt" viewBox="0 0 460.8 345.6" xmlns="http://www.w3.org/2000/svg" version="1.1">
 <metadata>
  <rdf:RDF xmlns:dc="http://purl.org/dc/elements/1.1/" xmlns:cc="http://creativecommons.org/ns#" xmlns:rdf="http://www.w3.org/1999/02/22-rdf-syntax-ns#">
   <cc:Work>
    <dc:type rdf:resource="http://purl.org/dc/dcmitype/StillImage"/>
    <dc:date>2023-08-31T03:21:42.195988</dc:date>
    <dc:format>image/svg+xml</dc:format>
    <dc:creator>
     <cc:Agent>
      <dc:title>Matplotlib v3.7.2, https://matplotlib.org/</dc:title>
     </cc:Agent>
    </dc:creator>
   </cc:Work>
  </rdf:RDF>
 </metadata>
 <defs>
  <style type="text/css">*{stroke-linejoin: round; stroke-linecap: butt}</style>
 </defs>
 <g id="figure_1">
  <g id="patch_1">
   <path d="M 0 345.6 
L 460.8 345.6 
L 460.8 0 
L 0 0 
z
" style="fill: #ffffff"/>
  </g>
  <g id="axes_1">
   <g id="patch_2">
    <path d="M 23.04 302.4 
L 437.76 302.4 
L 437.76 69.12 
L 23.04 69.12 
z
" style="fill: #ffffff"/>
   </g>
   <g id="matplotlib.axis_1">
    <g id="xtick_1">
     <g id="line2d_1">
      <defs>
       <path id="mf6ddb04fc0" d="M 0 0 
L 0 3.5 
" style="stroke: #000000; stroke-width: 0.8"/>
      </defs>
      <g>
       <use xlink:href="#mf6ddb04fc0" x="41.890909" y="302.4" style="stroke: #000000; stroke-width: 0.8"/>
      </g>
     </g>
     <g id="text_1">
      <!-- 0 -->
      <g transform="translate(38.880753 317.051562) scale(0.1 -0.1)">
       <defs>
        <path id="DejaVuSansMono-30" d="M 1509 2344 
Q 1509 2516 1629 2641 
Q 1750 2766 1919 2766 
Q 2094 2766 2219 2641 
Q 2344 2516 2344 2344 
Q 2344 2169 2220 2047 
Q 2097 1925 1919 1925 
Q 1744 1925 1626 2044 
Q 1509 2163 1509 2344 
z
M 1925 4250 
Q 1484 4250 1267 3775 
Q 1050 3300 1050 2328 
Q 1050 1359 1267 884 
Q 1484 409 1925 409 
Q 2369 409 2586 884 
Q 2803 1359 2803 2328 
Q 2803 3300 2586 3775 
Q 2369 4250 1925 4250 
z
M 1925 4750 
Q 2672 4750 3055 4137 
Q 3438 3525 3438 2328 
Q 3438 1134 3055 521 
Q 2672 -91 1925 -91 
Q 1178 -91 797 521 
Q 416 1134 416 2328 
Q 416 3525 797 4137 
Q 1178 4750 1925 4750 
z
" transform="scale(0.015625)"/>
       </defs>
       <use xlink:href="#DejaVuSansMono-30"/>
      </g>
     </g>
    </g>
    <g id="xtick_2">
     <g id="line2d_2">
      <g>
       <use xlink:href="#mf6ddb04fc0" x="94.259394" y="302.4" style="stroke: #000000; stroke-width: 0.8"/>
      </g>
     </g>
     <g id="text_2">
      <!-- 25 -->
      <g transform="translate(88.239082 317.051562) scale(0.1 -0.1)">
       <defs>
        <path id="DejaVuSansMono-32" d="M 1166 531 
L 3309 531 
L 3309 0 
L 475 0 
L 475 531 
Q 1059 1147 1496 1619 
Q 1934 2091 2100 2284 
Q 2413 2666 2522 2902 
Q 2631 3138 2631 3384 
Q 2631 3775 2401 3997 
Q 2172 4219 1772 4219 
Q 1488 4219 1175 4116 
Q 863 4013 513 3803 
L 513 4441 
Q 834 4594 1145 4672 
Q 1456 4750 1759 4750 
Q 2444 4750 2861 4386 
Q 3278 4022 3278 3431 
Q 3278 3131 3139 2831 
Q 3000 2531 2688 2169 
Q 2513 1966 2180 1606 
Q 1847 1247 1166 531 
z
" transform="scale(0.015625)"/>
        <path id="DejaVuSansMono-35" d="M 647 4666 
L 3009 4666 
L 3009 4134 
L 1222 4134 
L 1222 2988 
Q 1356 3038 1492 3061 
Q 1628 3084 1766 3084 
Q 2491 3084 2916 2656 
Q 3341 2228 3341 1497 
Q 3341 759 2895 334 
Q 2450 -91 1678 -91 
Q 1306 -91 998 -41 
Q 691 9 447 109 
L 447 750 
Q 734 594 1025 517 
Q 1316 441 1619 441 
Q 2141 441 2423 716 
Q 2706 991 2706 1497 
Q 2706 1997 2414 2275 
Q 2122 2553 1600 2553 
Q 1347 2553 1106 2495 
Q 866 2438 647 2322 
L 647 4666 
z
" transform="scale(0.015625)"/>
       </defs>
       <use xlink:href="#DejaVuSansMono-32"/>
       <use xlink:href="#DejaVuSansMono-35" x="60.205078"/>
      </g>
     </g>
    </g>
    <g id="xtick_3">
     <g id="line2d_3">
      <g>
       <use xlink:href="#mf6ddb04fc0" x="146.62788" y="302.4" style="stroke: #000000; stroke-width: 0.8"/>
      </g>
     </g>
     <g id="text_3">
      <!-- 50 -->
      <g transform="translate(140.607567 317.051562) scale(0.1 -0.1)">
       <use xlink:href="#DejaVuSansMono-35"/>
       <use xlink:href="#DejaVuSansMono-30" x="60.205078"/>
      </g>
     </g>
    </g>
    <g id="xtick_4">
     <g id="line2d_4">
      <g>
       <use xlink:href="#mf6ddb04fc0" x="198.996365" y="302.4" style="stroke: #000000; stroke-width: 0.8"/>
      </g>
     </g>
     <g id="text_4">
      <!-- 75 -->
      <g transform="translate(192.976052 317.051562) scale(0.1 -0.1)">
       <defs>
        <path id="DejaVuSansMono-37" d="M 434 4666 
L 3372 4666 
L 3372 4397 
L 1703 0 
L 1044 0 
L 2669 4134 
L 434 4134 
L 434 4666 
z
" transform="scale(0.015625)"/>
       </defs>
       <use xlink:href="#DejaVuSansMono-37"/>
       <use xlink:href="#DejaVuSansMono-35" x="60.205078"/>
      </g>
     </g>
    </g>
    <g id="xtick_5">
     <g id="line2d_5">
      <g>
       <use xlink:href="#mf6ddb04fc0" x="251.36485" y="302.4" style="stroke: #000000; stroke-width: 0.8"/>
      </g>
     </g>
     <g id="text_5">
      <!-- 100 -->
      <g transform="translate(242.334382 317.051562) scale(0.1 -0.1)">
       <defs>
        <path id="DejaVuSansMono-31" d="M 844 531 
L 1825 531 
L 1825 4097 
L 769 3859 
L 769 4434 
L 1819 4666 
L 2450 4666 
L 2450 531 
L 3419 531 
L 3419 0 
L 844 0 
L 844 531 
z
" transform="scale(0.015625)"/>
       </defs>
       <use xlink:href="#DejaVuSansMono-31"/>
       <use xlink:href="#DejaVuSansMono-30" x="60.205078"/>
       <use xlink:href="#DejaVuSansMono-30" x="120.410156"/>
      </g>
     </g>
    </g>
    <g id="xtick_6">
     <g id="line2d_6">
      <g>
       <use xlink:href="#mf6ddb04fc0" x="303.733336" y="302.4" style="stroke: #000000; stroke-width: 0.8"/>
      </g>
     </g>
     <g id="text_6">
      <!-- 125 -->
      <g transform="translate(294.702867 317.051562) scale(0.1 -0.1)">
       <use xlink:href="#DejaVuSansMono-31"/>
       <use xlink:href="#DejaVuSansMono-32" x="60.205078"/>
       <use xlink:href="#DejaVuSansMono-35" x="120.410156"/>
      </g>
     </g>
    </g>
    <g id="xtick_7">
     <g id="line2d_7">
      <g>
       <use xlink:href="#mf6ddb04fc0" x="356.101821" y="302.4" style="stroke: #000000; stroke-width: 0.8"/>
      </g>
     </g>
     <g id="text_7">
      <!-- 150 -->
      <g transform="translate(347.071352 317.051562) scale(0.1 -0.1)">
       <use xlink:href="#DejaVuSansMono-31"/>
       <use xlink:href="#DejaVuSansMono-35" x="60.205078"/>
       <use xlink:href="#DejaVuSansMono-30" x="120.410156"/>
      </g>
     </g>
    </g>
    <g id="xtick_8">
     <g id="line2d_8">
      <g>
       <use xlink:href="#mf6ddb04fc0" x="408.470306" y="302.4" style="stroke: #000000; stroke-width: 0.8"/>
      </g>
     </g>
     <g id="text_8">
      <!-- 175 -->
      <g transform="translate(399.439837 317.051562) scale(0.1 -0.1)">
       <use xlink:href="#DejaVuSansMono-31"/>
       <use xlink:href="#DejaVuSansMono-37" x="60.205078"/>
       <use xlink:href="#DejaVuSansMono-35" x="120.410156"/>
      </g>
     </g>
    </g>
    <g id="text_9">
     <!-- Time since origin [min] -->
     <g transform="translate(161.166406 330.729687) scale(0.1 -0.1)">
      <defs>
       <path id="DejaVuSansMono-54" d="M 147 4666 
L 3706 4666 
L 3706 4134 
L 2247 4134 
L 2247 0 
L 1613 0 
L 1613 4134 
L 147 4134 
L 147 4666 
z
" transform="scale(0.015625)"/>
       <path id="DejaVuSansMono-69" d="M 800 3500 
L 2272 3500 
L 2272 447 
L 3413 447 
L 3413 0 
L 556 0 
L 556 447 
L 1697 447 
L 1697 3053 
L 800 3053 
L 800 3500 
z
M 1697 4863 
L 2272 4863 
L 2272 4134 
L 1697 4134 
L 1697 4863 
z
" transform="scale(0.015625)"/>
       <path id="DejaVuSansMono-6d" d="M 2113 3144 
Q 2219 3369 2383 3476 
Q 2547 3584 2778 3584 
Q 3200 3584 3373 3257 
Q 3547 2931 3547 2028 
L 3547 0 
L 3022 0 
L 3022 2003 
Q 3022 2744 2939 2923 
Q 2856 3103 2638 3103 
Q 2388 3103 2295 2911 
Q 2203 2719 2203 2003 
L 2203 0 
L 1678 0 
L 1678 2003 
Q 1678 2753 1589 2928 
Q 1500 3103 1269 3103 
Q 1041 3103 952 2911 
Q 863 2719 863 2003 
L 863 0 
L 341 0 
L 341 3500 
L 863 3500 
L 863 3200 
Q 966 3388 1120 3486 
Q 1275 3584 1472 3584 
Q 1709 3584 1867 3475 
Q 2025 3366 2113 3144 
z
" transform="scale(0.015625)"/>
       <path id="DejaVuSansMono-65" d="M 3475 1894 
L 3475 1613 
L 984 1613 
L 984 1594 
Q 984 1022 1282 709 
Q 1581 397 2125 397 
Q 2400 397 2700 484 
Q 3000 572 3341 750 
L 3341 178 
Q 3013 44 2708 -23 
Q 2403 -91 2119 -91 
Q 1303 -91 843 398 
Q 384 888 384 1747 
Q 384 2584 834 3084 
Q 1284 3584 2034 3584 
Q 2703 3584 3089 3131 
Q 3475 2678 3475 1894 
z
M 2900 2063 
Q 2888 2569 2661 2833 
Q 2434 3097 2009 3097 
Q 1594 3097 1325 2822 
Q 1056 2547 1006 2059 
L 2900 2063 
z
" transform="scale(0.015625)"/>
       <path id="DejaVuSansMono-20" transform="scale(0.015625)"/>
       <path id="DejaVuSansMono-73" d="M 3041 3378 
L 3041 2816 
Q 2794 2959 2544 3031 
Q 2294 3103 2034 3103 
Q 1644 3103 1451 2976 
Q 1259 2850 1259 2591 
Q 1259 2356 1403 2240 
Q 1547 2125 2119 2016 
L 2350 1972 
Q 2778 1891 2998 1647 
Q 3219 1403 3219 1013 
Q 3219 494 2850 201 
Q 2481 -91 1825 -91 
Q 1566 -91 1281 -36 
Q 997 19 666 128 
L 666 722 
Q 988 556 1281 473 
Q 1575 391 1838 391 
Q 2219 391 2428 545 
Q 2638 700 2638 978 
Q 2638 1378 1872 1531 
L 1847 1538 
L 1631 1581 
Q 1134 1678 906 1908 
Q 678 2138 678 2534 
Q 678 3038 1018 3311 
Q 1359 3584 1991 3584 
Q 2272 3584 2531 3532 
Q 2791 3481 3041 3378 
z
" transform="scale(0.015625)"/>
       <path id="DejaVuSansMono-6e" d="M 3284 2169 
L 3284 0 
L 2706 0 
L 2706 2169 
Q 2706 2641 2540 2862 
Q 2375 3084 2022 3084 
Q 1619 3084 1401 2798 
Q 1184 2513 1184 1978 
L 1184 0 
L 609 0 
L 609 3500 
L 1184 3500 
L 1184 2975 
Q 1338 3275 1600 3429 
Q 1863 3584 2222 3584 
Q 2756 3584 3020 3232 
Q 3284 2881 3284 2169 
z
" transform="scale(0.015625)"/>
       <path id="DejaVuSansMono-63" d="M 3316 178 
Q 3084 44 2839 -23 
Q 2594 -91 2338 -91 
Q 1525 -91 1067 396 
Q 609 884 609 1747 
Q 609 2609 1067 3096 
Q 1525 3584 2338 3584 
Q 2591 3584 2831 3518 
Q 3072 3453 3316 3316 
L 3316 2713 
Q 3088 2916 2858 3006 
Q 2628 3097 2338 3097 
Q 1797 3097 1506 2747 
Q 1216 2397 1216 1747 
Q 1216 1100 1508 748 
Q 1800 397 2338 397 
Q 2638 397 2875 489 
Q 3113 581 3316 775 
L 3316 178 
z
" transform="scale(0.015625)"/>
       <path id="DejaVuSansMono-6f" d="M 1925 3097 
Q 1488 3097 1263 2756 
Q 1038 2416 1038 1747 
Q 1038 1081 1263 739 
Q 1488 397 1925 397 
Q 2366 397 2591 739 
Q 2816 1081 2816 1747 
Q 2816 2416 2591 2756 
Q 2366 3097 1925 3097 
z
M 1925 3584 
Q 2653 3584 3039 3112 
Q 3425 2641 3425 1747 
Q 3425 850 3040 379 
Q 2656 -91 1925 -91 
Q 1197 -91 812 379 
Q 428 850 428 1747 
Q 428 2641 812 3112 
Q 1197 3584 1925 3584 
z
" transform="scale(0.015625)"/>
       <path id="DejaVuSansMono-72" d="M 3609 2778 
Q 3425 2922 3234 2987 
Q 3044 3053 2816 3053 
Q 2278 3053 1993 2715 
Q 1709 2378 1709 1741 
L 1709 0 
L 1131 0 
L 1131 3500 
L 1709 3500 
L 1709 2816 
Q 1853 3188 2151 3386 
Q 2450 3584 2859 3584 
Q 3072 3584 3256 3531 
Q 3441 3478 3609 3366 
L 3609 2778 
z
" transform="scale(0.015625)"/>
       <path id="DejaVuSansMono-67" d="M 2681 1778 
Q 2681 2425 2470 2761 
Q 2259 3097 1856 3097 
Q 1434 3097 1212 2761 
Q 991 2425 991 1778 
Q 991 1131 1214 792 
Q 1438 453 1863 453 
Q 2259 453 2470 793 
Q 2681 1134 2681 1778 
z
M 3256 225 
Q 3256 -563 2884 -969 
Q 2513 -1375 1791 -1375 
Q 1553 -1375 1293 -1331 
Q 1034 -1288 775 -1203 
L 775 -634 
Q 1081 -778 1331 -847 
Q 1581 -916 1791 -916 
Q 2256 -916 2468 -662 
Q 2681 -409 2681 141 
L 2681 166 
L 2681 556 
Q 2544 263 2306 119 
Q 2069 -25 1728 -25 
Q 1116 -25 750 465 
Q 384 956 384 1778 
Q 384 2603 750 3093 
Q 1116 3584 1728 3584 
Q 2066 3584 2300 3450 
Q 2534 3316 2681 3034 
L 2681 3488 
L 3256 3488 
L 3256 225 
z
" transform="scale(0.015625)"/>
       <path id="DejaVuSansMono-5b" d="M 1447 4863 
L 2772 4863 
L 2772 4416 
L 2022 4416 
L 2022 -397 
L 2772 -397 
L 2772 -844 
L 1447 -844 
L 1447 4863 
z
" transform="scale(0.015625)"/>
       <path id="DejaVuSansMono-5d" d="M 2406 4863 
L 2406 -844 
L 1081 -844 
L 1081 -397 
L 1831 -397 
L 1831 4416 
L 1081 4416 
L 1081 4863 
L 2406 4863 
z
" transform="scale(0.015625)"/>
      </defs>
      <use xlink:href="#DejaVuSansMono-54"/>
      <use xlink:href="#DejaVuSansMono-69" x="60.205078"/>
      <use xlink:href="#DejaVuSansMono-6d" x="120.410156"/>
      <use xlink:href="#DejaVuSansMono-65" x="180.615234"/>
      <use xlink:href="#DejaVuSansMono-20" x="240.820312"/>
      <use xlink:href="#DejaVuSansMono-73" x="301.025391"/>
      <use xlink:href="#DejaVuSansMono-69" x="361.230469"/>
      <use xlink:href="#DejaVuSansMono-6e" x="421.435547"/>
      <use xlink:href="#DejaVuSansMono-63" x="481.640625"/>
      <use xlink:href="#DejaVuSansMono-65" x="541.845703"/>
      <use xlink:href="#DejaVuSansMono-20" x="602.050781"/>
      <use xlink:href="#DejaVuSansMono-6f" x="662.255859"/>
      <use xlink:href="#DejaVuSansMono-72" x="722.460938"/>
      <use xlink:href="#DejaVuSansMono-69" x="782.666016"/>
      <use xlink:href="#DejaVuSansMono-67" x="842.871094"/>
      <use xlink:href="#DejaVuSansMono-69" x="903.076172"/>
      <use xlink:href="#DejaVuSansMono-6e" x="963.28125"/>
      <use xlink:href="#DejaVuSansMono-20" x="1023.486328"/>
      <use xlink:href="#DejaVuSansMono-5b" x="1083.691406"/>
      <use xlink:href="#DejaVuSansMono-6d" x="1143.896484"/>
      <use xlink:href="#DejaVuSansMono-69" x="1204.101562"/>
      <use xlink:href="#DejaVuSansMono-6e" x="1264.306641"/>
      <use xlink:href="#DejaVuSansMono-5d" x="1324.511719"/>
     </g>
    </g>
   </g>
   <g id="matplotlib.axis_2">
    <g id="ytick_1"/>
    <g id="ytick_2"/>
    <g id="ytick_3"/>
    <g id="ytick_4"/>
    <g id="ytick_5"/>
   </g>
   <g id="line2d_9">
    <path d="M 41.890909 175.617391 
L 69.820768 175.513148 
L 70.204803 175.135446 
L 71.007787 174.220798 
L 71.182349 174.335124 
L 71.426735 174.835667 
L 72.299543 176.926845 
L 72.509017 176.923483 
L 72.823228 176.62258 
L 73.416737 176.019078 
L 73.835685 175.949046 
L 74.533932 175.839238 
L 76.454109 175.219605 
L 76.942882 175.263898 
L 79.491482 175.944151 
L 79.735868 175.533461 
L 80.119903 174.32017 
L 80.573764 173.03682 
L 80.713413 173.069733 
L 80.887974 173.456111 
L 81.202185 174.863326 
L 81.760783 177.412924 
L 82.040081 177.822235 
L 82.249555 177.746354 
L 83.890434 176.264122 
L 84.344295 175.930631 
L 84.72833 175.603479 
L 85.007629 174.98768 
L 85.496401 173.080996 
L 85.845524 172.169744 
L 86.020086 172.154419 
L 86.194648 172.482318 
L 86.508859 173.668769 
L 87.242017 176.509811 
L 87.660965 177.186851 
L 88.18465 177.585487 
L 88.498861 177.55649 
L 88.77816 177.316373 
L 89.301844 176.431966 
L 89.860442 175.656664 
L 90.488863 175.28609 
L 91.326759 174.954111 
L 91.675882 175.189181 
L 92.68834 176.063865 
L 93.107288 176.075659 
L 93.491323 175.835919 
L 93.770622 175.384428 
L 94.64343 173.632801 
L 94.817992 173.818685 
L 95.09729 174.606573 
L 95.795537 176.74026 
L 96.074835 176.956275 
L 96.389046 176.873907 
L 96.773082 176.804105 
L 97.50624 176.872089 
L 97.750627 176.508124 
L 98.09975 175.48756 
L 98.518698 173.468694 
L 99.112207 170.564084 
L 99.286769 170.412876 
L 99.426418 170.639959 
L 99.740629 171.874523 
L 100.194489 173.403528 
L 100.369051 173.437268 
L 100.613437 173.0108 
L 100.857824 172.715082 
L 100.962561 172.812308 
L 101.137122 173.423915 
L 101.416421 175.520483 
L 101.905193 181.339881 
L 102.359053 186.010012 
L 102.568527 186.467962 
L 102.673264 186.293644 
L 102.882738 185.368446 
L 103.336599 182.016643 
L 103.930108 178.173223 
L 104.523618 175.691511 
L 104.768004 175.40144 
L 105.291689 175.141285 
L 105.6059 174.313126 
L 105.989935 172.745429 
L 107.211866 166.763748 
L 107.386428 166.717286 
L 107.526077 166.958632 
L 107.770464 168.00026 
L 108.189411 171.103728 
L 109.236781 179.373575 
L 109.550992 180.296919 
L 109.725554 180.397588 
L 109.865203 180.235846 
L 110.074677 179.550883 
L 110.353976 177.696973 
L 110.807836 172.738718 
L 111.47117 165.747645 
L 111.610819 165.431595 
L 111.645732 165.459263 
L 111.750468 165.827918 
L 111.92503 167.428898 
L 112.204329 172.610668 
L 113.286611 196.328555 
L 113.356435 196.293711 
L 113.461172 195.726918 
L 113.670646 192.803626 
L 114.089594 182.342639 
L 114.613279 171.020458 
L 114.92749 167.913553 
L 115.102052 167.436572 
L 115.136964 167.446155 
L 115.241701 167.654872 
L 115.486087 168.89252 
L 116.009772 171.497746 
L 116.184334 171.636255 
L 116.393808 171.483178 
L 116.742931 171.224979 
L 116.88258 171.377347 
L 117.126966 172.134107 
L 117.7903 174.475324 
L 117.964862 174.504518 
L 118.313985 174.145458 
L 118.767846 173.763547 
L 118.942407 173.8974 
L 119.116969 174.38232 
L 119.361355 175.946626 
L 119.745391 180.300455 
L 120.269075 185.809811 
L 120.443637 186.285362 
L 120.548374 186.111328 
L 120.722936 185.077571 
L 121.072059 181.122881 
L 121.944867 170.962004 
L 122.224166 169.898307 
L 122.363815 169.871632 
L 122.538376 170.188514 
L 122.8875 171.472567 
L 123.550834 173.966403 
L 123.899957 174.334186 
L 124.24908 174.410901 
L 124.807677 174.290677 
L 125.052064 174.789687 
L 125.505924 176.408502 
L 125.959784 177.878798 
L 126.099433 177.853489 
L 126.273995 177.322762 
L 126.553294 175.522431 
L 127.216628 170.95147 
L 127.321365 170.885724 
L 127.356277 170.927463 
L 127.495926 171.421855 
L 127.740313 173.35698 
L 128.438559 179.506708 
L 128.613121 179.750556 
L 128.717858 179.543736 
L 128.927332 178.355305 
L 129.416104 173.539071 
L 129.974701 168.757583 
L 130.079438 168.582746 
L 130.114351 168.607658 
L 130.219088 168.944417 
L 130.428562 170.589537 
L 131.196633 177.525868 
L 131.475931 178.388798 
L 131.615581 178.424789 
L 131.790142 178.111713 
L 132.313827 176.924046 
L 132.418564 177.063005 
L 132.593126 177.751975 
L 132.907337 180.147027 
L 133.326284 182.937035 
L 133.396109 182.99558 
L 133.431021 182.968798 
L 133.570671 182.461984 
L 133.849969 180.053753 
L 134.234005 176.98145 
L 134.338742 176.827523 
L 134.373654 176.855303 
L 134.513303 177.335364 
L 134.932251 180.256224 
L 135.246462 181.663543 
L 135.421024 181.797169 
L 135.66541 181.563864 
L 135.874884 181.495224 
L 136.25892 181.627487 
L 136.398569 181.231339 
L 136.608043 179.681933 
L 136.992078 174.327633 
L 137.411026 169.555844 
L 137.690325 168.312293 
L 137.829974 168.237033 
L 138.004536 168.481279 
L 138.493308 169.273981 
L 138.702782 169.249209 
L 139.959626 168.700555 
L 140.273837 168.746389 
L 140.692785 168.567293 
L 140.902259 168.988648 
L 141.705242 171.44484 
L 142.159102 172.850872 
L 142.543138 173.819983 
L 142.962086 175.798739 
L 143.415946 177.783303 
L 143.904718 179.033885 
L 144.149105 180.959547 
L 145.091737 190.139764 
L 145.12665 190.117669 
L 145.231387 189.795276 
L 145.440861 188.145582 
L 146.104195 182.01805 
L 146.174019 181.994189 
L 146.208932 182.039695 
L 146.348581 182.589249 
L 147.08174 186.984767 
L 147.151565 186.869389 
L 147.326126 185.918432 
L 147.814899 180.994862 
L 148.12911 176.550461 
L 148.373496 169.705655 
L 148.827356 148.242348 
L 149.106655 140.755798 
L 149.176479 141.212203 
L 149.316129 145.682371 
L 149.560515 164.301095 
L 150.223849 222.507006 
L 150.328586 223.943278 
L 150.363498 223.790733 
L 150.468235 221.589293 
L 150.712622 209.244427 
L 151.515605 165.57925 
L 152.004378 135.033916 
L 152.528062 105.409349 
L 152.737536 101.742605 
L 152.772449 101.652098 
L 152.807361 101.699627 
L 152.912098 102.643903 
L 153.08666 106.805792 
L 153.365958 119.648439 
L 153.889643 157.200695 
L 154.727539 212.729797 
L 155.425785 247.691275 
L 155.705084 252.59052 
L 155.774908 252.844762 
L 155.809821 252.82404 
L 155.914558 252.195865 
L 156.089119 249.135035 
L 156.40333 238.144098 
L 157.241226 197.847262 
L 158.218771 140.956952 
L 158.707544 123.170052 
L 158.917018 121.614444 
L 159.021755 121.908112 
L 159.370878 124.130738 
L 159.580352 126.886868 
L 159.964387 136.638931 
L 160.662634 156.591291 
L 161.186319 174.391765 
L 161.849653 189.943436 
L 162.338425 194.315294 
L 162.757373 199.40289 
L 163.31597 202.163173 
L 163.350883 202.150453 
L 163.45562 201.684819 
L 163.665094 198.922138 
L 164.223691 191.124232 
L 166.074044 168.69017 
L 166.632641 166.518417 
L 166.737378 166.487651 
L 166.77229 166.525739 
L 166.981764 166.751929 
L 167.016677 166.715756 
L 167.156326 166.262552 
L 167.3658 165.583816 
L 167.400712 165.604444 
L 167.505449 165.957661 
L 167.784748 167.152507 
L 167.81966 167.120483 
L 168.098959 166.251627 
L 168.168783 166.410252 
L 168.343345 167.787672 
L 168.587731 169.142964 
L 168.692468 168.94712 
L 168.832117 168.716613 
L 168.86703 168.766478 
L 169.006679 169.540826 
L 169.32089 171.314691 
L 169.495452 171.362555 
L 169.600189 171.845487 
L 170.647558 179.990161 
L 170.682471 179.980705 
L 170.926857 179.540544 
L 170.961769 179.608477 
L 171.136331 180.597215 
L 171.345805 181.395741 
L 171.450542 181.214662 
L 171.625103 180.94128 
L 171.764753 181.202746 
L 171.86949 181.360901 
L 171.904402 181.341729 
L 172.009139 181.015386 
L 172.358262 179.748646 
L 172.462999 179.659351 
L 172.567736 179.204206 
L 173.126333 175.710917 
L 173.23107 175.474713 
L 173.545281 173.844321 
L 173.615106 173.985946 
L 173.929317 175.294431 
L 173.964229 175.257324 
L 174.138791 175.035625 
L 174.243528 175.451187 
L 174.662475 177.894654 
L 174.767212 177.936497 
L 174.871949 178.294052 
L 175.221073 180.12286 
L 175.255985 180.111961 
L 175.535284 179.922079 
L 175.640021 179.925912 
L 175.744758 179.57156 
L 175.954231 177.511977 
L 176.303355 174.807006 
L 176.547741 172.437679 
L 176.82704 170.375355 
L 177.211075 169.787727 
L 177.315812 169.92655 
L 177.525286 170.968544 
L 178.433006 175.347653 
L 178.712305 175.606509 
L 178.817042 175.4877 
L 179.23599 174.585073 
L 179.270902 174.611582 
L 179.620025 175.149716 
L 179.829499 175.861521 
L 180.632483 179.308925 
L 180.73722 179.194851 
L 181.016518 178.1058 
L 181.540203 175.729311 
L 181.819502 174.759929 
L 182.378099 174.184191 
L 182.622485 174.410422 
L 182.866872 174.852032 
L 183.320732 175.941985 
L 183.495293 175.702382 
L 183.704767 175.030955 
L 184.333189 172.542408 
L 184.542663 172.40838 
L 184.682312 172.601786 
L 184.891786 173.364893 
L 185.799507 178.575661 
L 186.078805 179.841034 
L 186.427929 180.044549 
L 186.532665 180.004877 
L 186.707227 179.504656 
L 187.021438 178.660937 
L 187.230912 178.147623 
L 187.754597 176.682539 
L 188.033895 175.681926 
L 188.767054 172.431845 
L 188.976528 172.361277 
L 189.15109 172.722205 
L 189.744599 174.253075 
L 189.919161 174.298039 
L 190.65232 173.795725 
L 190.896706 173.482948 
L 191.071268 173.646897 
L 191.350566 174.169029 
L 191.594952 175.3678 
L 191.909163 176.515226 
L 192.118637 177.374762 
L 192.572497 179.645202 
L 192.921621 179.95149 
L 193.166007 180.020829 
L 193.340569 179.759981 
L 193.584955 178.889997 
L 194.422851 175.504976 
L 194.632325 175.051345 
L 195.156009 174.934006 
L 195.505133 175.501765 
L 195.540045 175.483095 
L 195.889168 175.059175 
L 196.06373 174.244589 
L 197.250749 166.061289 
L 197.285661 166.066305 
L 197.42531 166.300249 
L 197.669697 167.329748 
L 197.948995 169.817175 
L 198.891628 179.549418 
L 199.624787 183.938978 
L 200.008822 185.658042 
L 200.148472 185.793564 
L 200.183384 185.773406 
L 200.323033 185.475159 
L 200.602332 184.197872 
L 200.986367 181.313489 
L 201.47514 175.800687 
L 202.033737 169.899198 
L 202.278123 168.971343 
L 202.38286 168.959093 
L 202.52251 169.33446 
L 202.766896 171.004231 
L 203.988827 181.128567 
L 204.128477 181.082966 
L 204.268126 180.712985 
L 204.512512 179.087391 
L 205.629706 170.670209 
L 206.258128 168.33573 
L 206.467602 168.212475 
L 206.816725 167.651171 
L 206.851638 167.688749 
L 207.130936 168.362209 
L 207.410235 169.39604 
L 207.968832 173.149245 
L 209.260588 182.689466 
L 209.714448 184.578708 
L 209.88901 184.729687 
L 210.063572 184.490892 
L 210.307958 183.746363 
L 210.552344 182.15372 
L 211.425152 175.624528 
L 211.634626 175.36592 
L 211.8441 175.145613 
L 212.123399 174.87025 
L 212.367785 174.759581 
L 212.577259 174.237783 
L 213.415155 171.821658 
L 214.287963 170.401956 
L 214.776735 169.83278 
L 214.951297 170.134495 
L 215.230595 171.171953 
L 215.509894 173.344948 
L 216.34779 180.565251 
L 216.522351 180.741818 
L 216.696913 180.502001 
L 216.941299 179.735283 
L 217.639546 177.031858 
L 217.988669 176.50323 
L 218.198143 176.505109 
L 218.372705 176.748444 
L 218.721828 177.785136 
L 219.280425 179.331294 
L 219.420074 179.162635 
L 219.664461 178.380584 
L 220.083408 176.100648 
L 220.502356 174.303068 
L 221.933762 170.234289 
L 222.038499 170.30586 
L 222.178148 170.721557 
L 222.422534 172.451281 
L 223.26043 179.456993 
L 223.469904 179.714881 
L 223.609553 179.519312 
L 223.853939 178.602414 
L 224.587098 175.724057 
L 224.936221 175.103405 
L 225.355169 174.611888 
L 225.809029 174.548867 
L 226.402539 173.767081 
L 226.577101 173.935822 
L 226.961136 174.821265 
L 227.833944 177.240304 
L 228.043418 177.196234 
L 228.392541 176.738327 
L 229.055876 175.884915 
L 229.544648 176.018274 
L 229.789034 176.20131 
L 230.138158 176.881754 
L 230.487281 177.303231 
L 230.731667 177.370582 
L 230.871316 177.155176 
L 231.08079 176.257446 
L 232.12816 170.429289 
L 232.267809 170.581267 
L 232.477283 171.270093 
L 232.826406 173.426331 
L 233.594478 178.23775 
L 233.838864 178.685415 
L 234.013425 178.611971 
L 234.257812 178.150624 
L 234.606935 176.892763 
L 235.095708 175.31082 
L 235.724129 174.221809 
L 236.143077 174.078067 
L 236.352551 174.295567 
L 236.841324 175.28447 
L 238.202904 178.367164 
L 238.377466 178.288217 
L 238.691677 177.81995 
L 239.215362 176.974773 
L 239.564485 176.933307 
L 239.808871 177.195271 
L 240.123082 177.458103 
L 240.297644 177.342222 
L 240.507118 176.843655 
L 241.44975 174.065337 
L 241.694137 174.022742 
L 242.008348 173.971425 
L 242.322558 173.660012 
L 242.671682 173.382084 
L 242.916068 173.451086 
L 243.369928 173.996851 
L 243.719051 174.811478 
L 244.277649 175.96613 
L 244.522035 176.06405 
L 244.731509 175.969395 
L 244.975895 175.531939 
L 245.429755 174.685351 
L 245.604317 174.661991 
L 245.778879 174.885787 
L 246.162914 175.921629 
L 246.54695 176.710488 
L 246.756424 176.770422 
L 247.035722 176.583809 
L 247.315021 176.08472 
L 248.467127 173.541068 
L 248.711514 173.38132 
L 249.200286 173.487382 
L 249.40976 173.928435 
L 250.45713 176.688082 
L 250.666604 176.789863 
L 250.841165 176.568391 
L 251.679061 174.817494 
L 251.748886 174.873533 
L 251.923447 175.276114 
L 252.202746 176.611993 
L 252.86608 180.176576 
L 253.040642 180.32031 
L 253.180291 180.124905 
L 253.389765 179.309142 
L 254.192748 175.562917 
L 254.36731 175.479465 
L 254.646609 175.709775 
L 255.170294 176.083753 
L 255.484504 176.006514 
L 256.392225 175.655787 
L 256.636611 175.772811 
L 257.474507 176.468415 
L 257.649069 176.363119 
L 257.893455 175.894757 
L 259.045561 173.16953 
L 259.359772 173.142729 
L 259.708896 173.320557 
L 260.058019 173.812618 
L 260.861002 175.064427 
L 261.070476 175.024031 
L 261.489424 174.668064 
L 261.838547 174.410152 
L 262.013109 174.596627 
L 263.060479 176.259362 
L 263.37469 176.378869 
L 263.584164 176.205195 
L 263.82855 175.715295 
L 264.177673 174.409555 
L 264.910832 171.429339 
L 265.155218 171.185114 
L 265.294867 171.292603 
L 265.504341 171.892888 
L 265.923289 174.082904 
L 267.28487 181.595039 
L 267.564168 182.141897 
L 267.73873 182.108889 
L 267.948204 181.739657 
L 268.297327 180.571301 
L 268.960661 178.366239 
L 269.484346 177.328401 
L 269.903294 175.934623 
L 270.531716 173.748765 
L 270.706278 173.639849 
L 270.880839 173.831702 
L 271.19505 174.665872 
L 271.928209 176.807509 
L 272.172595 176.973039 
L 272.382069 176.783728 
L 273.219965 175.380045 
L 273.638913 174.242301 
L 274.895756 170.113633 
L 275.140143 170.034392 
L 276.117688 170.481712 
L 276.396986 171.036702 
L 276.815934 172.502205 
L 277.514181 174.848345 
L 277.863304 175.232826 
L 278.56155 175.830329 
L 278.875761 176.804675 
L 279.329621 179.213553 
L 280.06278 182.723994 
L 280.481728 183.677864 
L 280.761027 183.906776 
L 280.970501 183.82678 
L 281.214887 183.432067 
L 281.56401 182.380413 
L 282.01787 180.055101 
L 282.716117 176.603396 
L 283.030328 175.889269 
L 283.554013 175.427396 
L 284.147522 175.278638 
L 284.741032 175.111418 
L 285.02033 174.595463 
L 285.299629 173.490069 
L 285.683664 170.804413 
L 286.800859 161.691316 
L 286.940508 161.62735 
L 287.080157 161.848987 
L 287.289631 162.665089 
L 287.603842 164.871989 
L 288.092615 170.167183 
L 289.035247 180.671734 
L 289.419283 182.780884 
L 289.663669 183.272971 
L 289.803318 183.259021 
L 290.082617 182.868646 
L 290.536477 182.371438 
L 290.780864 182.360192 
L 291.618759 182.715285 
L 291.828233 182.359436 
L 292.107532 181.305773 
L 292.631217 178.161419 
L 293.119989 175.69081 
L 293.399288 175.191534 
L 293.573849 175.202082 
L 293.783323 175.48667 
L 294.307008 176.789731 
L 294.795781 177.752077 
L 295.005255 177.800562 
L 295.179816 177.612119 
L 295.424203 176.961523 
L 295.738413 175.442714 
L 296.541397 171.102375 
L 296.785783 170.855016 
L 297.030169 170.954432 
L 297.309468 171.028415 
L 297.763328 170.802901 
L 298.112451 170.694384 
L 298.356838 170.873764 
L 298.601224 171.368234 
L 299.124909 172.525627 
L 299.29947 172.532189 
L 299.474032 172.199878 
L 299.788243 170.885753 
L 300.34684 168.673481 
L 300.556314 168.516048 
L 300.695963 168.698174 
L 300.905437 169.464351 
L 301.184736 171.493487 
L 301.638596 176.799693 
L 302.511404 187.234724 
L 302.755791 188.197234 
L 302.860527 188.242192 
L 302.89544 188.211387 
L 303.070001 187.748662 
L 303.384212 186.05536 
L 303.80316 182.610121 
L 304.326845 175.836063 
L 304.85053 170.186755 
L 305.060004 169.540647 
L 305.164741 169.658261 
L 305.339302 170.48509 
L 305.618601 173.284221 
L 307.084919 190.608268 
L 307.364217 191.577925 
L 307.468954 191.486894 
L 307.608603 190.888873 
L 307.818077 188.836583 
L 308.132288 183.231022 
L 308.865447 164.497106 
L 309.563694 148.943882 
L 310.052466 142.365846 
L 310.296852 141.274085 
L 310.366677 141.314945 
L 310.506326 141.89647 
L 310.7158 144.046845 
L 311.030011 150.022799 
L 311.518784 164.551752 
L 312.915277 209.079128 
L 313.2644 213.568672 
L 313.438962 214.199244 
L 313.473874 214.19351 
L 313.578611 213.959444 
L 313.788085 212.602404 
L 314.067383 209.040724 
L 314.486331 200.208546 
L 316.476334 152.439691 
L 316.860369 149.119159 
L 317.139668 148.198328 
L 317.279317 148.191606 
L 317.418966 148.522189 
L 317.62844 149.668216 
L 317.942651 152.868409 
L 318.466336 161.086438 
L 320.107215 188.606449 
L 320.491251 191.393394 
L 320.805462 192.375049 
L 321.049848 192.603111 
L 321.22441 192.484399 
L 321.468796 191.987442 
L 321.783007 190.839842 
L 322.167042 188.450439 
L 322.655815 183.781378 
L 323.354061 174.828685 
L 324.052308 167.093873 
L 324.471256 164.435417 
L 324.785467 163.681916 
L 324.994941 163.570365 
L 325.13459 163.723131 
L 325.378976 164.443094 
L 325.972486 167.18637 
L 326.670732 171.77679 
L 328.171962 183.083907 
L 328.381436 183.269001 
L 328.59091 183.093722 
L 328.800384 182.61002 
L 329.114595 181.112153 
L 330.580912 173.381199 
L 330.930036 172.589084 
L 331.104597 172.601856 
L 331.314071 172.947031 
L 331.663194 174.023449 
L 332.570915 177.332271 
L 332.815301 177.601013 
L 332.95495 177.489461 
L 333.304074 176.751709 
L 334.176882 175.0035 
L 335.084602 174.320631 
L 335.50355 174.448582 
L 335.747936 174.809511 
L 336.376358 176.503497 
L 336.760394 177.1764 
L 337.00478 177.205065 
L 337.353903 176.927081 
L 338.715484 175.241222 
L 339.623204 173.934007 
L 340.146889 173.575205 
L 340.530925 173.288654 
L 341.403733 172.133274 
L 341.578294 172.299099 
L 341.787768 172.868476 
L 342.136891 174.610866 
L 343.184261 180.265962 
L 343.46356 180.746634 
L 343.707946 180.776372 
L 343.91742 180.604391 
L 344.196719 179.953816 
L 344.755316 177.903477 
L 345.313913 176.080861 
L 345.628124 175.617201 
L 345.87251 175.573984 
L 346.221633 175.807133 
L 346.500932 175.885356 
L 346.815143 175.719161 
L 347.059529 175.33157 
L 347.513389 174.035687 
L 348.351285 171.680299 
L 348.630584 171.406103 
L 348.840058 171.48121 
L 349.119356 171.919723 
L 349.573216 173.130539 
L 350.341287 175.153027 
L 351.144271 176.469803 
L 352.051991 177.531451 
L 352.366202 177.591942 
L 352.645501 177.426159 
L 353.308835 176.879054 
L 353.553221 177.040242 
L 353.902344 177.629824 
L 354.391117 178.367948 
L 354.635503 178.42899 
L 354.844977 178.206503 
L 355.124276 177.484852 
L 355.752698 174.985285 
L 356.450944 172.706001 
L 356.904804 171.847396 
L 357.184103 171.73225 
L 357.393577 171.880361 
L 357.637963 172.379746 
L 358.33621 174.590109 
L 359.523229 178.129202 
L 359.977089 178.799477 
L 360.221475 178.860009 
L 360.430949 178.654278 
L 360.710248 178.029468 
L 361.303757 175.948206 
L 361.79253 174.539218 
L 362.24639 173.909116 
L 362.490776 173.861605 
L 362.839899 174.08527 
L 363.398496 174.68992 
L 364.65534 176.255052 
L 365.039376 176.310854 
L 365.597973 176.432881 
L 365.947096 176.747825 
L 366.505693 177.228557 
L 366.715167 177.146233 
L 366.959553 176.763683 
L 367.378501 175.567987 
L 368.006923 173.849772 
L 368.390959 173.312917 
L 368.70517 173.230016 
L 369.089205 173.412243 
L 369.368504 173.792021 
L 369.822364 174.922568 
L 370.730084 177.506501 
L 370.939558 177.586196 
L 371.149032 177.377292 
L 371.56798 176.525569 
L 372.301139 174.993134 
L 372.580438 174.851779 
L 372.894648 174.938676 
L 373.52307 175.53262 
L 374.151492 175.906283 
L 374.535528 175.742001 
L 375.932021 174.958822 
L 376.560442 174.868543 
L 376.97939 175.138022 
L 378.375883 176.63467 
L 378.794831 177.606717 
L 379.458165 179.019821 
L 379.737464 179.148935 
L 379.912026 179.015504 
L 380.156412 178.496233 
L 380.610272 176.852413 
L 381.238694 174.67891 
L 381.727466 173.824949 
L 382.809748 172.595958 
L 383.019222 172.716311 
L 383.298521 173.214338 
L 384.066592 174.858647 
L 384.310978 174.929341 
L 384.625189 174.701127 
L 385.044137 174.450518 
L 385.253611 174.589952 
L 385.53291 175.068226 
L 386.370805 176.818368 
L 386.580279 176.783336 
L 386.859578 176.43393 
L 387.383263 175.777614 
L 387.592737 175.815863 
L 387.872035 176.157799 
L 388.779756 177.410516 
L 389.093967 177.385337 
L 389.408178 177.045896 
L 390.001687 176.040411 
L 391.118881 174.052114 
L 391.468005 173.783671 
L 391.677479 173.860159 
L 391.956777 174.281153 
L 393.178708 176.656312 
L 393.423095 176.536353 
L 394.40064 175.724169 
L 394.645026 175.969232 
L 395.657483 177.279506 
L 395.90187 177.178348 
L 396.181168 176.796666 
L 396.530292 175.915668 
L 397.787135 172.214038 
L 397.961697 172.254782 
L 398.206083 172.583716 
L 398.590119 173.547826 
L 400.26591 178.520599 
L 400.580121 178.823103 
L 400.789595 178.781463 
L 401.033981 178.470724 
L 401.418017 177.555843 
L 402.535211 174.698738 
L 402.849422 174.473314 
L 403.198545 174.474911 
L 404.490301 174.945259 
L 405.886794 175.705842 
L 406.375567 175.617945 
L 407.038901 175.546714 
L 407.388024 175.726422 
L 408.22592 176.267747 
L 408.470306 176.150837 
L 408.819429 175.687646 
L 410.006448 173.773279 
L 410.285747 173.778506 
L 410.565046 174.045352 
L 411.053818 174.906642 
L 411.891714 176.326492 
L 412.380486 176.774442 
L 412.764522 176.849992 
L 413.148558 176.681906 
L 413.986453 175.931813 
L 414.579963 175.588641 
L 415.313122 175.462206 
L 416.360491 175.499655 
L 417.966458 175.632733 
L 418.909091 175.617391 
L 418.909091 175.617391 
" clip-path="url(#p249bc34d68)" style="fill: none; stroke: #000000; stroke-width: 0.75; stroke-linecap: square"/>
   </g>
   <g id="line2d_10">
    <path d="M 41.890909 195.902609 
L 69.99533 195.803138 
L 70.274628 195.51608 
L 70.623751 194.760397 
L 71.182349 193.511236 
L 71.35691 193.572352 
L 71.531472 193.988834 
L 71.880595 195.649495 
L 72.369368 197.733269 
L 72.578841 197.942714 
L 72.753403 197.824806 
L 73.207263 196.981365 
L 73.626211 196.428906 
L 74.010247 196.290606 
L 74.917967 196.117547 
L 76.698496 195.211113 
L 77.152356 195.184027 
L 78.094989 195.537131 
L 78.688498 195.887431 
L 79.596219 196.526087 
L 79.805692 196.227492 
L 80.050079 195.37427 
L 80.81815 191.863944 
L 80.853062 191.881697 
L 80.992711 192.128067 
L 81.237098 193.550881 
L 81.970257 198.578676 
L 82.214643 198.921236 
L 82.424117 198.843014 
L 84.030084 197.51086 
L 84.344295 197.624114 
L 84.658505 197.670975 
L 84.867979 197.362436 
L 85.112366 196.459281 
L 85.566226 193.557783 
L 85.950261 191.668255 
L 86.124823 191.493674 
L 86.22956 191.612187 
L 86.404122 192.11901 
L 86.788157 194.102542 
L 87.381667 196.907409 
L 87.800615 197.853152 
L 88.568686 198.898888 
L 88.813072 198.931768 
L 89.022546 198.71172 
L 89.336757 197.953524 
L 90.209565 195.59228 
L 90.5936 195.195398 
L 91.047461 195.055982 
L 92.164655 194.957341 
L 92.478866 195.268354 
L 93.351674 196.337054 
L 93.491323 196.164604 
L 93.700797 195.5106 
L 94.084833 193.263819 
L 94.503781 191.079604 
L 94.64343 190.904665 
L 94.678342 190.923126 
L 94.817992 191.150529 
L 95.09729 192.530224 
L 95.725712 195.866834 
L 95.935186 196.142847 
L 96.109748 196.094565 
L 96.528695 195.92862 
L 96.703257 196.198868 
L 97.017468 197.288244 
L 97.50624 198.863416 
L 97.680802 198.931193 
L 97.855364 198.718515 
L 98.204487 197.759943 
L 98.797996 195.467395 
L 99.182032 192.85299 
L 99.880278 187.841242 
L 99.950103 187.773377 
L 99.985015 187.808169 
L 100.124665 188.339284 
L 100.369051 190.810579 
L 101.346596 203.075341 
L 102.044843 206.013098 
L 102.743089 211.606774 
L 102.847826 211.598143 
L 103.022388 210.594541 
L 103.406423 206.170295 
L 104.139582 197.930632 
L 104.663267 194.227455 
L 105.01239 193.021904 
L 105.710637 191.305177 
L 106.024847 189.27395 
L 106.478708 184.503506 
L 107.142042 177.7051 
L 107.386428 176.815825 
L 107.491165 176.766619 
L 107.526077 176.812429 
L 107.700639 177.418316 
L 107.979938 179.55939 
L 108.503622 185.998716 
L 109.166957 193.389736 
L 110.179414 200.969622 
L 110.4238 201.649171 
L 110.528537 201.593619 
L 110.703099 200.577358 
L 110.947485 197.40764 
L 111.401345 187.286256 
L 111.820293 179.714468 
L 111.855205 179.584642 
L 111.92503 179.636928 
L 112.029767 180.03107 
L 112.204329 183.504733 
L 112.483627 194.998908 
L 113.391348 239.497441 
L 113.496085 240.082921 
L 113.530997 239.946206 
L 113.670646 237.675401 
L 113.915033 228.34423 
L 114.752928 191.864718 
L 114.92749 190.501596 
L 114.997315 190.433121 
L 115.032227 190.485603 
L 115.241701 192.072039 
L 115.625736 194.696024 
L 115.695561 194.774432 
L 115.730473 194.73554 
L 115.870123 194.263383 
L 116.184334 191.56542 
L 116.638194 187.792074 
L 116.777843 187.488364 
L 116.812755 187.506597 
L 116.952405 187.903754 
L 117.196791 189.981007 
L 117.964862 197.840845 
L 118.034687 197.904231 
L 118.069599 197.872926 
L 118.209248 197.516752 
L 118.523459 195.217403 
L 119.047144 191.540056 
L 119.221706 191.371424 
L 119.29153 191.437908 
L 119.466092 192.31772 
L 119.710478 195.043151 
L 120.059601 202.312913 
L 120.79276 218.894479 
L 120.897497 218.944373 
L 121.002234 217.509727 
L 121.176796 212.589228 
L 121.560831 193.53148 
L 121.979779 176.944592 
L 122.119429 175.593599 
L 122.154341 175.660854 
L 122.29399 176.819586 
L 122.957324 187.993794 
L 123.027149 187.939686 
L 123.096974 187.808639 
L 123.34136 185.703101 
L 123.585746 184.367772 
L 123.620658 184.337264 
L 123.655571 184.38113 
L 123.79522 185.218347 
L 124.144343 189.852018 
L 124.458554 192.608563 
L 124.598204 192.639799 
L 124.737853 191.89868 
L 125.401187 187.434366 
L 125.436099 187.445529 
L 125.575749 187.692481 
L 125.820135 189.151383 
L 126.518381 193.926434 
L 126.658031 193.880113 
L 126.79768 193.133321 
L 127.076979 189.960936 
L 127.600663 183.770166 
L 127.740313 183.827567 
L 127.84505 184.744255 
L 128.054524 188.499561 
L 128.927332 208.207462 
L 128.962244 208.24877 
L 128.997156 208.167672 
L 129.171718 206.449841 
L 129.939789 195.512001 
L 130.079438 195.64712 
L 130.323825 196.974672 
L 130.777685 199.006872 
L 131.056983 200.39355 
L 131.371194 203.44555 
L 131.999616 209.735492 
L 132.20909 210.234988 
L 132.313827 210.164214 
L 132.558213 209.27939 
L 132.977161 207.668013 
L 133.081898 207.638136 
L 133.11681 207.698256 
L 133.291372 208.476638 
L 133.884882 212.884511 
L 134.024531 212.748132 
L 134.129268 212.078096 
L 134.373654 208.776895 
L 134.967164 200.186448 
L 135.141725 199.908058 
L 135.316287 200.39284 
L 135.560673 200.980736 
L 135.700322 200.777694 
L 135.909796 199.349845 
L 136.677867 193.108561 
L 137.061903 191.490798 
L 137.376114 188.610466 
L 138.248922 179.424153 
L 139.331204 173.364225 
L 139.680327 172.087716 
L 139.819977 172.002853 
L 139.959626 172.164159 
L 140.204012 173.072019 
L 140.62296 175.707551 
L 141.07682 179.877524 
L 141.495768 186.259086 
L 142.403489 201.356564 
L 142.717699 202.972429 
L 143.346121 204.859663 
L 143.660332 207.379346 
L 144.114192 213.38238 
L 144.777527 222.206661 
L 144.882264 222.419413 
L 144.917176 222.407505 
L 144.987 222.35516 
L 145.12665 221.206479 
L 145.371036 216.896422 
L 145.999458 204.823488 
L 146.069283 204.759196 
L 146.139107 205.381482 
L 146.348581 210.927588 
L 146.662792 227.331309 
L 147.046828 245.146814 
L 147.151565 245.984857 
L 147.186477 245.858853 
L 147.326126 241.154527 
L 147.5356 223.830874 
L 148.408408 129.775976 
L 148.478233 130.326104 
L 148.58297 133.009811 
L 148.827356 153.620972 
L 149.665252 236.833993 
L 149.94455 244.74829 
L 150.049287 245.352845 
L 150.0842 245.201038 
L 150.223849 243.368534 
L 150.433323 235.513204 
L 150.712622 215.452634 
L 152.03929 103.64571 
L 152.283676 99.850377 
L 152.353501 99.778374 
L 152.388413 99.862006 
L 152.528062 102.289956 
L 152.772449 111.435776 
L 153.191397 137.344964 
L 153.889643 196.094868 
L 154.797363 272.042981 
L 155.216311 291.897125 
L 155.49561 297.289684 
L 155.600347 297.302623 
L 155.670171 297.193171 
L 155.809821 295.171484 
L 156.054207 287.763899 
L 156.40333 269.34477 
L 157.066664 218.877915 
L 157.939473 156.129262 
L 158.393333 138.481854 
L 158.742456 132.390858 
L 158.917018 131.722161 
L 158.986842 131.832643 
L 159.161404 133.160238 
L 159.440702 137.935321 
L 159.85965 149.895948 
L 160.732458 183.329444 
L 161.50053 208.939762 
L 161.95439 217.903251 
L 162.303513 221.05829 
L 162.512987 221.499277 
L 162.652636 221.335641 
L 162.86211 220.482191 
L 163.211233 217.992221 
L 164.014217 210.063272 
L 165.829658 190.817668 
L 166.283518 186.791005 
L 166.527904 186.033315 
L 166.667553 186.040977 
L 166.877027 186.531504 
L 167.680011 188.855913 
L 167.924397 188.84728 
L 168.41317 188.638697 
L 168.622644 188.891916 
L 168.86703 189.570967 
L 169.32089 191.656022 
L 170.298435 196.184877 
L 171.171243 200.142774 
L 171.72984 202.414096 
L 171.974227 202.726619 
L 172.148788 202.662682 
L 172.428087 202.080996 
L 173.37072 199.798347 
L 174.313352 197.92427 
L 174.348265 197.941123 
L 174.487914 198.117231 
L 174.767212 199.042833 
L 175.290897 200.817956 
L 175.395634 200.820026 
L 175.570196 200.323545 
L 175.849494 198.39472 
L 176.966689 189.037592 
L 177.14125 188.898788 
L 177.245987 189.078261 
L 177.420549 189.764534 
L 177.804585 192.474544 
L 178.258445 195.10988 
L 178.433006 195.355877 
L 178.572656 195.299071 
L 178.886867 194.485103 
L 179.340727 193.410173 
L 179.550201 193.374811 
L 179.724762 193.602677 
L 180.004061 194.398354 
L 180.807044 196.891668 
L 180.981606 196.854951 
L 181.156168 196.51451 
L 181.470379 195.289332 
L 182.308274 191.687622 
L 182.517748 191.625768 
L 182.69231 192.009218 
L 183.006521 193.4699 
L 183.495293 195.512625 
L 183.634943 195.573317 
L 183.774592 195.426776 
L 184.542663 193.868517 
L 184.717225 194.268171 
L 185.066348 195.890374 
L 185.764594 199.111995 
L 186.393016 200.753548 
L 186.846876 201.500597 
L 187.091263 201.405112 
L 187.300737 200.893859 
L 187.64986 199.196858 
L 188.348106 195.622976 
L 188.592493 195.289194 
L 188.732142 195.353333 
L 188.941616 195.725017 
L 189.500213 196.826574 
L 189.674775 196.779729 
L 189.884249 196.329 
L 190.198459 194.907327 
L 190.757057 190.949585 
L 191.10618 189.158984 
L 191.245829 189.077138 
L 191.385478 189.546501 
L 191.594952 191.277298 
L 192.118637 198.417589 
L 192.46776 201.601011 
L 192.60741 201.981282 
L 192.642322 201.971311 
L 192.781971 201.785681 
L 193.026358 200.458683 
L 193.934078 194.639661 
L 194.143552 194.387412 
L 194.318114 194.510741 
L 194.597412 195.298448 
L 195.260746 197.403135 
L 195.400396 197.388631 
L 195.574957 196.962293 
L 195.819344 195.617196 
L 196.238291 191.699943 
L 196.901626 185.516234 
L 197.1111 184.854772 
L 197.250749 184.966697 
L 197.390398 185.518169 
L 197.634784 187.47933 
L 198.123557 193.696272 
L 198.786891 201.381403 
L 199.310576 204.815187 
L 200.148472 208.717313 
L 200.392858 209.193356 
L 200.532507 209.110075 
L 200.672157 208.708999 
L 200.88163 207.398251 
L 201.230754 203.33923 
L 202.173386 191.033481 
L 202.417773 190.19308 
L 202.52251 190.218128 
L 202.662159 190.535488 
L 202.906545 191.94584 
L 203.325493 196.1737 
L 203.88409 201.463558 
L 204.093564 201.944579 
L 204.198301 201.751073 
L 204.372863 200.836478 
L 204.652161 197.962815 
L 205.804268 184.199602 
L 205.97883 183.921917 
L 206.083567 183.976374 
L 206.362865 184.645536 
L 206.677076 185.295447 
L 206.88655 185.256042 
L 207.445147 184.473708 
L 207.514972 184.533589 
L 207.654621 184.934005 
L 207.864095 186.233429 
L 208.248131 190.404479 
L 209.225676 201.517669 
L 209.923922 206.947502 
L 210.168309 207.619023 
L 210.307958 207.589051 
L 210.517432 206.819574 
L 210.831643 204.495397 
L 212.018662 194.443187 
L 212.263048 193.95654 
L 212.367785 194.003392 
L 212.577259 194.644422 
L 212.926382 196.700828 
L 213.380242 198.969739 
L 213.554804 199.025052 
L 213.694453 198.617597 
L 213.938839 196.963235 
L 214.3927 191.888106 
L 214.84656 187.607471 
L 215.056034 187.011619 
L 215.195683 187.224513 
L 215.370245 188.227899 
L 215.719368 192.042497 
L 216.34779 198.826034 
L 216.627088 199.845911 
L 216.836562 199.962867 
L 217.499896 199.916104 
L 218.198143 200.199549 
L 218.686915 200.086653 
L 219.001126 199.776586 
L 219.454987 198.897191 
L 219.769197 198.509538 
L 219.943759 198.561974 
L 220.153233 198.895287 
L 220.642006 199.744683 
L 220.746743 199.670843 
L 220.921304 199.201321 
L 221.16569 197.70654 
L 221.584638 193.359719 
L 222.21306 187.204665 
L 222.387622 186.777177 
L 222.457446 186.773883 
L 222.597096 187.26759 
L 222.841482 189.285832 
L 223.784115 198.293206 
L 224.063413 198.913512 
L 224.3078 198.987101 
L 224.517273 198.849394 
L 224.796572 198.326883 
L 225.145695 197.091245 
L 226.297802 192.607837 
L 226.542188 192.382141 
L 226.786575 192.511096 
L 227.484821 193.12715 
L 227.694295 193.013318 
L 228.462366 192.384535 
L 228.636928 192.535095 
L 228.881314 193.111164 
L 229.230437 194.700302 
L 230.17307 199.502467 
L 230.347632 199.560694 
L 230.452368 199.447238 
L 230.696755 198.621401 
L 231.150615 195.922015 
L 231.6743 193.208251 
L 231.988511 192.562137 
L 232.232897 192.533267 
L 232.477283 192.793407 
L 232.791494 193.541051 
L 233.17553 195.164437 
L 233.978513 198.781651 
L 234.222899 199.035267 
L 234.432373 198.880634 
L 234.781497 198.150899 
L 235.200444 197.403302 
L 235.375006 197.40118 
L 235.58448 197.741751 
L 235.933603 198.978281 
L 236.387463 200.368484 
L 236.596937 200.388951 
L 236.841324 199.908116 
L 237.434833 198.513942 
L 237.644307 198.482945 
L 237.958518 198.74657 
L 238.272729 198.902286 
L 238.517115 198.819369 
L 238.866238 198.700353 
L 239.0408 198.850318 
L 239.285186 199.423073 
L 240.053257 201.629415 
L 240.157994 201.571788 
L 240.367468 200.969617 
L 240.681679 199.099625 
L 241.554487 193.383113 
L 243.369928 186.38649 
L 243.404841 186.39591 
L 243.579402 186.675491 
L 243.858701 187.806284 
L 244.975895 193.235486 
L 245.325018 193.783627 
L 245.674142 193.958793 
L 246.023265 193.88599 
L 246.4073 193.520289 
L 247.035722 192.874372 
L 247.210284 192.940351 
L 247.419758 193.256492 
L 247.873618 194.502935 
L 248.257653 195.246213 
L 248.467127 195.23993 
L 248.746426 194.854042 
L 249.095549 194.429961 
L 249.235199 194.502496 
L 249.374848 194.782447 
L 249.619234 195.816745 
L 250.596779 200.848424 
L 250.771341 200.792635 
L 250.980815 200.353217 
L 251.574324 198.934958 
L 251.783798 198.93745 
L 252.028184 199.371943 
L 252.377308 200.621537 
L 253.389765 204.670232 
L 253.564327 204.707781 
L 253.738888 204.420162 
L 254.018187 203.366132 
L 255.030644 198.927837 
L 255.275031 198.745116 
L 255.589241 198.876529 
L 255.833628 198.898773 
L 256.008189 198.708981 
L 256.287488 197.963323 
L 257.614156 193.49925 
L 259.010649 190.404813 
L 260.23258 187.49835 
L 260.476967 187.602181 
L 260.791178 188.095903 
L 261.629073 190.022517 
L 262.955742 193.221461 
L 263.6889 193.937164 
L 264.107848 194.986031 
L 264.910832 197.049663 
L 265.678903 198.681106 
L 266.097851 200.287281 
L 266.83101 204.230669 
L 267.389607 206.691609 
L 267.633993 207.086766 
L 267.808555 207.067272 
L 268.052941 206.639194 
L 269.554171 202.456675 
L 269.938206 200.265728 
L 271.090313 192.976003 
L 271.334699 192.637456 
L 271.544173 192.7028 
L 271.823472 193.131308 
L 272.277332 193.775319 
L 272.486806 193.742097 
L 272.69628 193.392911 
L 273.010491 192.257184 
L 273.499263 189.427771 
L 274.337159 184.673679 
L 274.721195 183.687092 
L 275.035406 183.411984 
L 275.349617 183.40668 
L 275.628915 183.64057 
L 275.873301 184.20666 
L 276.1526 185.511859 
L 276.571548 188.832048 
L 277.409444 195.633338 
L 277.828392 197.250873 
L 278.56155 199.668955 
L 279.085235 202.612799 
L 280.027868 207.967523 
L 280.51664 209.501286 
L 280.865764 210.023146 
L 281.145062 210.083873 
L 281.354536 209.912653 
L 281.668747 209.310863 
L 282.087695 207.971938 
L 282.541555 205.817788 
L 282.960503 202.69639 
L 283.5191 196.527121 
L 284.391908 187.15139 
L 285.090155 182.198351 
L 285.578927 179.984223 
L 285.928051 179.199786 
L 286.207349 178.999472 
L 286.451735 179.112791 
L 286.696122 179.533178 
L 286.97542 180.493583 
L 287.324544 182.578634 
L 287.813316 187.169223 
L 289.279634 202.097027 
L 289.803318 205.022655 
L 290.292091 206.645768 
L 290.676127 207.294542 
L 290.990337 207.445493 
L 291.583847 207.529327 
L 291.93297 207.961701 
L 292.38683 208.506061 
L 292.596304 208.452212 
L 292.840691 208.014334 
L 293.189814 206.787643 
L 294.02771 202.691454 
L 294.93543 197.469804 
L 295.598764 192.353905 
L 296.506485 183.006165 
L 297.099994 178.159152 
L 297.414205 176.947473 
L 297.588767 176.953944 
L 297.728416 177.369791 
L 297.972802 178.89618 
L 298.531399 184.335445 
L 299.124909 189.000911 
L 299.613681 191.280967 
L 299.858068 191.601753 
L 299.962805 191.537019 
L 300.172279 190.931251 
L 300.870525 188.274063 
L 300.905437 188.30632 
L 301.045087 188.66444 
L 301.254561 190.188264 
L 301.533859 193.959005 
L 302.022632 204.144167 
L 302.755791 219.148939 
L 303.070001 221.731992 
L 303.174738 221.900162 
L 303.209651 221.877341 
L 303.3493 221.376811 
L 303.593686 219.097703 
L 303.94281 213.436199 
L 305.129829 192.312223 
L 305.374215 191.295773 
L 305.513864 191.391899 
L 305.653513 191.992366 
L 305.8979 194.201971 
L 306.247023 199.628222 
L 307.084919 213.5396 
L 307.294393 214.373733 
L 307.39913 214.153455 
L 307.503867 213.552249 
L 307.748253 210.351377 
L 308.097376 201.752985 
L 308.655973 181.113055 
L 309.458957 152.995078 
L 309.842992 146.543971 
L 310.017554 145.777605 
L 310.052466 145.799931 
L 310.192115 146.354781 
L 310.401589 148.922013 
L 310.7158 156.272065 
L 311.16966 173.478744 
L 312.81054 243.029366 
L 313.159663 248.097597 
L 313.299312 248.689088 
L 313.334225 248.680558 
L 313.473874 248.312379 
L 313.683348 246.163286 
L 313.997559 239.847509 
L 314.486331 224.264893 
L 316.057386 170.057146 
L 316.476334 162.955267 
L 316.755632 161.080003 
L 316.895282 160.932583 
L 317.034931 161.264348 
L 317.279317 162.845254 
L 317.663353 167.172378 
L 318.187038 175.849787 
L 319.094758 195.675304 
L 319.793004 208.613852 
L 320.211952 213.008345 
L 320.561076 214.780021 
L 320.875286 215.41933 
L 321.119673 215.523727 
L 321.329147 215.362192 
L 321.573533 214.808421 
L 321.852831 213.519148 
L 322.201955 210.688484 
L 322.690727 204.653323 
L 324.08722 186.495478 
L 324.645817 181.746257 
L 324.960028 180.650694 
L 325.13459 180.614271 
L 325.344064 181.04734 
L 325.693187 182.453826 
L 326.531083 186.940418 
L 326.950031 190.51434 
L 327.578453 198.289321 
L 328.102137 203.778938 
L 328.381436 204.978227 
L 328.521085 205.075277 
L 328.555998 205.043106 
L 328.730559 204.647415 
L 329.04477 203.134329 
L 330.895123 192.8005 
L 331.209334 192.089185 
L 331.418808 192.12281 
L 331.628282 192.680217 
L 331.907581 194.202673 
L 333.0946 201.814235 
L 333.234249 201.83387 
L 333.373898 201.670554 
L 333.688109 200.685831 
L 334.875128 196.383334 
L 335.224251 195.86296 
L 335.433725 195.85229 
L 335.678112 196.084931 
L 336.097059 196.505465 
L 336.271621 196.430738 
L 336.481095 196.009832 
L 336.865131 194.504834 
L 337.353903 192.782559 
L 337.563377 192.611715 
L 337.737939 192.754168 
L 338.05215 193.558302 
L 339.029695 196.405394 
L 339.274081 196.546849 
L 339.448643 196.467063 
L 339.693029 196.082737 
L 340.042152 195.056717 
L 341.229171 191.036392 
L 341.36882 191.171407 
L 341.578294 191.796355 
L 341.927418 193.804647 
L 343.498472 204.33652 
L 343.707946 204.519488 
L 343.847595 204.338883 
L 344.057069 203.575053 
L 344.406192 201.25918 
L 345.104439 196.461397 
L 345.348825 195.92259 
L 345.523387 195.952377 
L 345.802685 196.582571 
L 346.32637 197.869944 
L 346.500932 197.86905 
L 346.675494 197.501431 
L 346.91988 196.336406 
L 347.338828 192.936852 
L 348.141811 186.346821 
L 348.456022 185.373093 
L 348.665496 185.391606 
L 348.909882 185.96601 
L 349.363742 187.839455 
L 350.236551 192.368708 
L 351.633043 200.61718 
L 351.807605 200.650264 
L 352.017079 200.269814 
L 352.366202 199.015154 
L 352.820062 197.565783 
L 353.029536 197.460861 
L 353.204098 197.732336 
L 353.483397 198.799867 
L 354.391117 202.930631 
L 354.565679 202.869605 
L 354.775153 202.16901 
L 355.089363 200.159442 
L 356.276382 191.599905 
L 356.69533 190.269622 
L 356.974629 189.942069 
L 357.219015 190.013375 
L 357.428489 190.342252 
L 357.7427 191.299137 
L 358.19656 193.548652 
L 359.837439 202.550358 
L 360.15165 203.048953 
L 360.361124 203.05703 
L 360.570598 202.852807 
L 360.884809 202.18112 
L 361.233932 200.830603 
L 361.617968 198.340224 
L 362.665338 190.903383 
L 362.839899 190.772291 
L 362.944636 190.890925 
L 363.15411 191.542212 
L 363.642883 194.199531 
L 364.061831 195.952241 
L 364.271305 196.162099 
L 364.410954 196.063134 
L 364.65534 195.359465 
L 365.597973 191.997104 
L 365.737622 192.160174 
L 365.947096 192.866429 
L 366.959553 197.124259 
L 367.134115 197.008276 
L 367.483238 196.244033 
L 367.867274 195.602213 
L 368.11166 195.590861 
L 368.56552 195.743562 
L 368.740082 195.537454 
L 368.984468 194.800325 
L 369.857276 191.589212 
L 369.996926 191.733415 
L 370.2064 192.490992 
L 370.590435 194.9107 
L 371.079208 197.672112 
L 371.288682 198.044444 
L 371.393419 198.018997 
L 371.602893 197.540077 
L 372.056753 195.628208 
L 372.405876 194.666278 
L 372.61535 194.624172 
L 372.824824 194.947833 
L 373.173947 195.975206 
L 374.11658 198.866151 
L 374.465703 199.330174 
L 374.745002 199.242873 
L 374.989388 198.835386 
L 376.246232 196.227504 
L 376.560442 196.283336 
L 376.839741 196.603043 
L 377.223777 197.43931 
L 378.131497 199.647428 
L 378.340971 199.700336 
L 378.585357 199.478691 
L 379.388341 198.541218 
L 379.667639 198.639646 
L 380.051675 198.735046 
L 380.261149 198.545548 
L 380.540447 197.889605 
L 380.994308 196.071717 
L 382.565362 189.375678 
L 382.914485 188.510755 
L 383.089047 188.499098 
L 383.193784 188.632429 
L 383.43817 189.422324 
L 384.48554 193.758525 
L 384.660102 193.603813 
L 385.358348 192.475031 
L 385.53291 192.693479 
L 385.812208 193.543553 
L 386.44063 195.506499 
L 386.685016 195.669799 
L 386.929403 195.532267 
L 387.732386 194.897505 
L 387.94186 195.004226 
L 388.221159 195.455373 
L 388.605194 196.614191 
L 389.652564 200.085359 
L 389.966775 200.397622 
L 390.246073 200.315323 
L 390.560284 199.861155 
L 391.153794 198.437785 
L 391.642566 197.533995 
L 391.921865 197.381137 
L 392.3059 197.450768 
L 392.689936 197.468839 
L 393.004147 197.243156 
L 393.388182 196.645114 
L 394.435552 194.806236 
L 394.610114 194.901239 
L 394.819588 195.304456 
L 395.203623 196.658951 
L 395.76222 198.532018 
L 395.971694 198.732257 
L 396.146256 198.617098 
L 396.390642 198.005799 
L 396.739765 196.40787 
L 397.612574 192.206858 
L 397.822047 191.999871 
L 397.961697 192.063203 
L 398.206083 192.62933 
L 398.590119 194.276012 
L 399.916787 200.571861 
L 400.161173 200.750253 
L 400.300822 200.676907 
L 400.580121 200.136303 
L 401.243455 198.081887 
L 403.163633 192.334702 
L 403.687318 191.589528 
L 404.106266 191.337455 
L 404.350652 191.411086 
L 404.629951 191.808958 
L 405.013986 192.891992 
L 405.67732 194.776959 
L 405.921707 194.9504 
L 406.096268 194.879876 
L 406.375567 194.486568 
L 407.038901 193.490084 
L 407.283287 193.539198 
L 407.527673 193.881083 
L 408.609955 195.899767 
L 408.854342 195.779474 
L 409.203465 195.256115 
L 409.866799 194.260065 
L 410.111185 194.217711 
L 410.355572 194.412608 
L 410.704695 195.070235 
L 411.821889 197.391375 
L 412.415399 198.033112 
L 412.834347 198.230737 
L 413.18347 198.169085 
L 413.63733 197.787525 
L 415.417859 195.93306 
L 416.011368 195.712057 
L 416.604878 195.739919 
L 418.071195 195.919624 
L 418.909091 195.902609 
L 418.909091 195.902609 
" clip-path="url(#p249bc34d68)" style="fill: none; stroke: #ff0000; stroke-width: 0.75; stroke-linecap: square"/>
   </g>
   <g id="patch_3">
    <path d="M 23.04 302.4 
L 437.76 302.4 
" style="fill: none; stroke: #000000; stroke-width: 0.8; stroke-linejoin: miter; stroke-linecap: square"/>
   </g>
   <g id="text_10">
    <g id="patch_4">
     <path d="M 29.4096 298.571906 
L 77.525763 298.571906 
L 77.525763 282.468975 
L 29.4096 282.468975 
L 29.4096 298.571906 
z
" style="fill: none"/>
    </g>
    <!-- II.BFO.Z -->
    <g transform="translate(33.408 292.841127) scale(0.0833 -0.0833)">
     <defs>
      <path id="DejaVuSansMono-49" d="M 628 4666 
L 3219 4666 
L 3219 4134 
L 2241 4134 
L 2241 531 
L 3219 531 
L 3219 0 
L 628 0 
L 628 531 
L 1606 531 
L 1606 4134 
L 628 4134 
L 628 4666 
z
" transform="scale(0.015625)"/>
      <path id="DejaVuSansMono-2e" d="M 1528 953 
L 2316 953 
L 2316 0 
L 1528 0 
L 1528 953 
z
" transform="scale(0.015625)"/>
      <path id="DejaVuSansMono-42" d="M 1153 2228 
L 1153 519 
L 1900 519 
Q 2450 519 2684 711 
Q 2919 903 2919 1344 
Q 2919 1800 2672 2014 
Q 2425 2228 1900 2228 
L 1153 2228 
z
M 1153 4147 
L 1153 2741 
L 1888 2741 
Q 2344 2741 2548 2916 
Q 2753 3091 2753 3481 
Q 2753 3834 2551 3990 
Q 2350 4147 1888 4147 
L 1153 4147 
z
M 519 4666 
L 1900 4666 
Q 2616 4666 3003 4356 
Q 3391 4047 3391 3481 
Q 3391 3053 3186 2806 
Q 2981 2559 2572 2497 
Q 3031 2428 3292 2104 
Q 3553 1781 3553 1281 
Q 3553 647 3137 323 
Q 2722 0 1900 0 
L 519 0 
L 519 4666 
z
" transform="scale(0.015625)"/>
      <path id="DejaVuSansMono-46" d="M 728 4666 
L 3475 4666 
L 3475 4134 
L 1363 4134 
L 1363 2759 
L 3278 2759 
L 3278 2228 
L 1363 2228 
L 1363 0 
L 728 0 
L 728 4666 
z
" transform="scale(0.015625)"/>
      <path id="DejaVuSansMono-4f" d="M 2828 2328 
Q 2828 3356 2617 3797 
Q 2406 4238 1925 4238 
Q 1447 4238 1236 3797 
Q 1025 3356 1025 2328 
Q 1025 1303 1236 862 
Q 1447 422 1925 422 
Q 2406 422 2617 861 
Q 2828 1300 2828 2328 
z
M 3488 2328 
Q 3488 1109 3102 509 
Q 2716 -91 1925 -91 
Q 1134 -91 750 506 
Q 366 1103 366 2328 
Q 366 3550 752 4150 
Q 1138 4750 1925 4750 
Q 2716 4750 3102 4150 
Q 3488 3550 3488 2328 
z
" transform="scale(0.015625)"/>
      <path id="DejaVuSansMono-5a" d="M 556 4666 
L 3584 4666 
L 3584 4184 
L 1147 531 
L 3653 531 
L 3653 0 
L 488 0 
L 488 481 
L 2859 4134 
L 556 4134 
L 556 4666 
z
" transform="scale(0.015625)"/>
     </defs>
     <use xlink:href="#DejaVuSansMono-49"/>
     <use xlink:href="#DejaVuSansMono-49" x="60.205078"/>
     <use xlink:href="#DejaVuSansMono-2e" x="120.410156"/>
     <use xlink:href="#DejaVuSansMono-42" x="180.615234"/>
     <use xlink:href="#DejaVuSansMono-46" x="240.820312"/>
     <use xlink:href="#DejaVuSansMono-4f" x="301.025391"/>
     <use xlink:href="#DejaVuSansMono-2e" x="361.230469"/>
     <use xlink:href="#DejaVuSansMono-5a" x="421.435547"/>
    </g>
   </g>
   <g id="text_11">
    <g id="patch_5">
     <path d="M 29.4096 89.274894 
L 132.689886 89.274894 
L 132.689886 72.948094 
L 29.4096 72.948094 
L 29.4096 89.274894 
z
" style="fill: none"/>
    </g>
    <!-- |A|max: 0.0021328 m -->
    <g transform="translate(33.408 83.312436) scale(0.0833 -0.0833)">
     <defs>
      <path id="DejaVuSansMono-7c" d="M 2194 4891 
L 2194 -1509 
L 1656 -1509 
L 1656 4891 
L 2194 4891 
z
" transform="scale(0.015625)"/>
      <path id="DejaVuSansMono-41" d="M 1925 4109 
L 1259 1722 
L 2591 1722 
L 1925 4109 
z
M 1544 4666 
L 2309 4666 
L 3738 0 
L 3084 0 
L 2741 1216 
L 1106 1216 
L 769 0 
L 116 0 
L 1544 4666 
z
" transform="scale(0.015625)"/>
      <path id="DejaVuSansMono-61" d="M 2194 1759 
L 2003 1759 
Q 1500 1759 1245 1582 
Q 991 1406 991 1056 
Q 991 741 1181 566 
Q 1372 391 1709 391 
Q 2184 391 2456 720 
Q 2728 1050 2731 1631 
L 2731 1759 
L 2194 1759 
z
M 3309 1997 
L 3309 0 
L 2731 0 
L 2731 519 
Q 2547 206 2267 57 
Q 1988 -91 1588 -91 
Q 1053 -91 734 211 
Q 416 513 416 1019 
Q 416 1603 808 1906 
Q 1200 2209 1959 2209 
L 2731 2209 
L 2731 2300 
Q 2728 2719 2518 2908 
Q 2309 3097 1850 3097 
Q 1556 3097 1256 3012 
Q 956 2928 672 2766 
L 672 3341 
Q 991 3463 1283 3523 
Q 1575 3584 1850 3584 
Q 2284 3584 2592 3456 
Q 2900 3328 3091 3072 
Q 3209 2916 3259 2686 
Q 3309 2456 3309 1997 
z
" transform="scale(0.015625)"/>
      <path id="DejaVuSansMono-78" d="M 3494 3500 
L 2241 1825 
L 3616 0 
L 2950 0 
L 1925 1403 
L 903 0 
L 238 0 
L 1613 1825 
L 359 3500 
L 997 3500 
L 1925 2234 
L 2847 3500 
L 3494 3500 
z
" transform="scale(0.015625)"/>
      <path id="DejaVuSansMono-3a" d="M 1528 3322 
L 2316 3322 
L 2316 2375 
L 1528 2375 
L 1528 3322 
z
M 1528 953 
L 2316 953 
L 2316 0 
L 1528 0 
L 1528 953 
z
" transform="scale(0.015625)"/>
      <path id="DejaVuSansMono-33" d="M 2425 2497 
Q 2884 2375 3128 2064 
Q 3372 1753 3372 1288 
Q 3372 644 2939 276 
Q 2506 -91 1741 -91 
Q 1419 -91 1084 -31 
Q 750 28 428 141 
L 428 769 
Q 747 603 1056 522 
Q 1366 441 1672 441 
Q 2191 441 2469 675 
Q 2747 909 2747 1350 
Q 2747 1756 2469 1995 
Q 2191 2234 1716 2234 
L 1234 2234 
L 1234 2753 
L 1716 2753 
Q 2150 2753 2394 2943 
Q 2638 3134 2638 3475 
Q 2638 3834 2411 4026 
Q 2184 4219 1766 4219 
Q 1488 4219 1191 4156 
Q 894 4094 569 3969 
L 569 4550 
Q 947 4650 1242 4700 
Q 1538 4750 1766 4750 
Q 2447 4750 2855 4408 
Q 3263 4066 3263 3500 
Q 3263 3116 3048 2859 
Q 2834 2603 2425 2497 
z
" transform="scale(0.015625)"/>
      <path id="DejaVuSansMono-38" d="M 1925 2216 
Q 1503 2216 1273 1980 
Q 1044 1744 1044 1313 
Q 1044 881 1276 642 
Q 1509 403 1925 403 
Q 2350 403 2579 639 
Q 2809 875 2809 1313 
Q 2809 1741 2576 1978 
Q 2344 2216 1925 2216 
z
M 1375 2478 
Q 972 2581 745 2862 
Q 519 3144 519 3541 
Q 519 4097 897 4423 
Q 1275 4750 1925 4750 
Q 2578 4750 2956 4423 
Q 3334 4097 3334 3541 
Q 3334 3144 3107 2862 
Q 2881 2581 2478 2478 
Q 2947 2375 3195 2062 
Q 3444 1750 3444 1253 
Q 3444 622 3041 265 
Q 2638 -91 1925 -91 
Q 1213 -91 811 264 
Q 409 619 409 1247 
Q 409 1747 657 2061 
Q 906 2375 1375 2478 
z
M 1147 3481 
Q 1147 3106 1347 2909 
Q 1547 2713 1925 2713 
Q 2306 2713 2506 2909 
Q 2706 3106 2706 3481 
Q 2706 3863 2507 4063 
Q 2309 4263 1925 4263 
Q 1547 4263 1347 4061 
Q 1147 3859 1147 3481 
z
" transform="scale(0.015625)"/>
     </defs>
     <use xlink:href="#DejaVuSansMono-7c"/>
     <use xlink:href="#DejaVuSansMono-41" x="60.205078"/>
     <use xlink:href="#DejaVuSansMono-7c" x="120.410156"/>
     <use xlink:href="#DejaVuSansMono-6d" x="180.615234"/>
     <use xlink:href="#DejaVuSansMono-61" x="240.820312"/>
     <use xlink:href="#DejaVuSansMono-78" x="301.025391"/>
     <use xlink:href="#DejaVuSansMono-3a" x="361.230469"/>
     <use xlink:href="#DejaVuSansMono-20" x="421.435547"/>
     <use xlink:href="#DejaVuSansMono-30" x="481.640625"/>
     <use xlink:href="#DejaVuSansMono-2e" x="541.845703"/>
     <use xlink:href="#DejaVuSansMono-30" x="602.050781"/>
     <use xlink:href="#DejaVuSansMono-30" x="662.255859"/>
     <use xlink:href="#DejaVuSansMono-32" x="722.460938"/>
     <use xlink:href="#DejaVuSansMono-31" x="782.666016"/>
     <use xlink:href="#DejaVuSansMono-33" x="842.871094"/>
     <use xlink:href="#DejaVuSansMono-32" x="903.076172"/>
     <use xlink:href="#DejaVuSansMono-38" x="963.28125"/>
     <use xlink:href="#DejaVuSansMono-20" x="1023.486328"/>
     <use xlink:href="#DejaVuSansMono-6d" x="1083.691406"/>
    </g>
   </g>
   <g id="text_12">
    <g id="patch_6">
     <path d="M 19.04 65.293506 
L 454.482188 65.293506 
L 454.482188 13.777569 
L 19.04 13.777569 
L 19.04 65.293506 
z
" style="fill: none"/>
    </g>
    <!-- C201509162254A:  -->
    <g transform="translate(23.04 25.360381) scale(0.1 -0.1)">
     <defs>
      <path id="DejaVuSansMono-43" d="M 3353 166 
Q 3113 38 2859 -26 
Q 2606 -91 2322 -91 
Q 1425 -91 929 543 
Q 434 1178 434 2328 
Q 434 3472 932 4111 
Q 1431 4750 2322 4750 
Q 2606 4750 2859 4686 
Q 3113 4622 3353 4494 
L 3353 3847 
Q 3122 4038 2856 4138 
Q 2591 4238 2322 4238 
Q 1706 4238 1400 3763 
Q 1094 3288 1094 2328 
Q 1094 1372 1400 897 
Q 1706 422 2322 422 
Q 2597 422 2861 522 
Q 3125 622 3353 813 
L 3353 166 
z
" transform="scale(0.015625)"/>
      <path id="DejaVuSansMono-39" d="M 1863 2069 
Q 2266 2069 2495 2359 
Q 2725 2650 2725 3163 
Q 2725 3675 2495 3965 
Q 2266 4256 1863 4256 
Q 1444 4256 1231 3979 
Q 1019 3703 1019 3163 
Q 1019 2619 1230 2344 
Q 1441 2069 1863 2069 
z
M 738 97 
L 738 678 
Q 934 563 1156 502 
Q 1378 441 1619 441 
Q 2219 441 2526 892 
Q 2834 1344 2834 2222 
Q 2688 1909 2422 1742 
Q 2156 1575 1813 1575 
Q 1138 1575 767 1990 
Q 397 2406 397 3169 
Q 397 3922 776 4336 
Q 1156 4750 1850 4750 
Q 2663 4750 3041 4165 
Q 3419 3581 3419 2328 
Q 3419 1150 2964 529 
Q 2509 -91 1644 -91 
Q 1416 -91 1184 -42 
Q 953 6 738 97 
z
" transform="scale(0.015625)"/>
      <path id="DejaVuSansMono-36" d="M 3097 4563 
L 3097 3981 
Q 2900 4097 2678 4158 
Q 2456 4219 2216 4219 
Q 1616 4219 1306 3767 
Q 997 3316 997 2438 
Q 1147 2750 1412 2917 
Q 1678 3084 2022 3084 
Q 2697 3084 3067 2670 
Q 3438 2256 3438 1497 
Q 3438 741 3056 325 
Q 2675 -91 1984 -91 
Q 1172 -91 794 492 
Q 416 1075 416 2328 
Q 416 3509 870 4129 
Q 1325 4750 2188 4750 
Q 2419 4750 2650 4701 
Q 2881 4653 3097 4563 
z
M 1972 2591 
Q 1569 2591 1337 2300 
Q 1106 2009 1106 1497 
Q 1106 984 1337 693 
Q 1569 403 1972 403 
Q 2391 403 2603 679 
Q 2816 956 2816 1497 
Q 2816 2041 2603 2316 
Q 2391 2591 1972 2591 
z
" transform="scale(0.015625)"/>
      <path id="DejaVuSansMono-34" d="M 2297 4091 
L 825 1625 
L 2297 1625 
L 2297 4091 
z
M 2194 4666 
L 2925 4666 
L 2925 1625 
L 3547 1625 
L 3547 1113 
L 2925 1113 
L 2925 0 
L 2297 0 
L 2297 1113 
L 319 1113 
L 319 1709 
L 2194 4666 
z
" transform="scale(0.015625)"/>
     </defs>
     <use xlink:href="#DejaVuSansMono-43"/>
     <use xlink:href="#DejaVuSansMono-32" x="60.205078"/>
     <use xlink:href="#DejaVuSansMono-30" x="120.410156"/>
     <use xlink:href="#DejaVuSansMono-31" x="180.615234"/>
     <use xlink:href="#DejaVuSansMono-35" x="240.820312"/>
     <use xlink:href="#DejaVuSansMono-30" x="301.025391"/>
     <use xlink:href="#DejaVuSansMono-39" x="361.230469"/>
     <use xlink:href="#DejaVuSansMono-31" x="421.435547"/>
     <use xlink:href="#DejaVuSansMono-36" x="481.640625"/>
     <use xlink:href="#DejaVuSansMono-32" x="541.845703"/>
     <use xlink:href="#DejaVuSansMono-32" x="602.050781"/>
     <use xlink:href="#DejaVuSansMono-35" x="662.255859"/>
     <use xlink:href="#DejaVuSansMono-34" x="722.460938"/>
     <use xlink:href="#DejaVuSansMono-41" x="782.666016"/>
     <use xlink:href="#DejaVuSansMono-3a" x="842.871094"/>
     <use xlink:href="#DejaVuSansMono-20" x="903.076172"/>
    </g>
    <!--   2015-09-16 22:55:22  La -31.130 Lo -72.090 Dp 17.350km -->
    <g transform="translate(23.04 36.621944) scale(0.1 -0.1)">
     <defs>
      <path id="DejaVuSansMono-2d" d="M 1113 2009 
L 2741 2009 
L 2741 1497 
L 1113 1497 
L 1113 2009 
z
" transform="scale(0.015625)"/>
      <path id="DejaVuSansMono-4c" d="M 672 4666 
L 1306 4666 
L 1306 531 
L 3559 531 
L 3559 0 
L 672 0 
L 672 4666 
z
" transform="scale(0.015625)"/>
      <path id="DejaVuSansMono-44" d="M 1363 519 
Q 2159 519 2475 911 
Q 2791 1303 2791 2328 
Q 2791 3363 2477 3755 
Q 2163 4147 1363 4147 
L 1063 4147 
L 1063 519 
L 1363 519 
z
M 1375 4666 
Q 2444 4666 2950 4097 
Q 3456 3528 3456 2328 
Q 3456 1134 2950 567 
Q 2444 0 1375 0 
L 428 0 
L 428 4666 
L 1375 4666 
z
" transform="scale(0.015625)"/>
      <path id="DejaVuSansMono-70" d="M 1172 441 
L 1172 -1331 
L 594 -1331 
L 594 3500 
L 1172 3500 
L 1172 3053 
Q 1316 3313 1555 3448 
Q 1794 3584 2106 3584 
Q 2741 3584 3102 3093 
Q 3463 2603 3463 1734 
Q 3463 881 3100 395 
Q 2738 -91 2106 -91 
Q 1788 -91 1548 45 
Q 1309 181 1172 441 
z
M 2859 1747 
Q 2859 2416 2648 2756 
Q 2438 3097 2022 3097 
Q 1603 3097 1387 2755 
Q 1172 2413 1172 1747 
Q 1172 1084 1387 740 
Q 1603 397 2022 397 
Q 2438 397 2648 737 
Q 2859 1078 2859 1747 
z
" transform="scale(0.015625)"/>
      <path id="DejaVuSansMono-6b" d="M 738 4863 
L 1331 4863 
L 1331 2047 
L 2841 3500 
L 3541 3500 
L 2163 2181 
L 3756 0 
L 3053 0 
L 1759 1806 
L 1331 1403 
L 1331 0 
L 738 0 
L 738 4863 
z
" transform="scale(0.015625)"/>
     </defs>
     <use xlink:href="#DejaVuSansMono-20"/>
     <use xlink:href="#DejaVuSansMono-20" x="60.205078"/>
     <use xlink:href="#DejaVuSansMono-32" x="120.410156"/>
     <use xlink:href="#DejaVuSansMono-30" x="180.615234"/>
     <use xlink:href="#DejaVuSansMono-31" x="240.820312"/>
     <use xlink:href="#DejaVuSansMono-35" x="301.025391"/>
     <use xlink:href="#DejaVuSansMono-2d" x="361.230469"/>
     <use xlink:href="#DejaVuSansMono-30" x="421.435547"/>
     <use xlink:href="#DejaVuSansMono-39" x="481.640625"/>
     <use xlink:href="#DejaVuSansMono-2d" x="541.845703"/>
     <use xlink:href="#DejaVuSansMono-31" x="602.050781"/>
     <use xlink:href="#DejaVuSansMono-36" x="662.255859"/>
     <use xlink:href="#DejaVuSansMono-20" x="722.460938"/>
     <use xlink:href="#DejaVuSansMono-32" x="782.666016"/>
     <use xlink:href="#DejaVuSansMono-32" x="842.871094"/>
     <use xlink:href="#DejaVuSansMono-3a" x="903.076172"/>
     <use xlink:href="#DejaVuSansMono-35" x="963.28125"/>
     <use xlink:href="#DejaVuSansMono-35" x="1023.486328"/>
     <use xlink:href="#DejaVuSansMono-3a" x="1083.691406"/>
     <use xlink:href="#DejaVuSansMono-32" x="1143.896484"/>
     <use xlink:href="#DejaVuSansMono-32" x="1204.101562"/>
     <use xlink:href="#DejaVuSansMono-20" x="1264.306641"/>
     <use xlink:href="#DejaVuSansMono-20" x="1324.511719"/>
     <use xlink:href="#DejaVuSansMono-4c" x="1384.716797"/>
     <use xlink:href="#DejaVuSansMono-61" x="1444.921875"/>
     <use xlink:href="#DejaVuSansMono-20" x="1505.126953"/>
     <use xlink:href="#DejaVuSansMono-2d" x="1565.332031"/>
     <use xlink:href="#DejaVuSansMono-33" x="1625.537109"/>
     <use xlink:href="#DejaVuSansMono-31" x="1685.742188"/>
     <use xlink:href="#DejaVuSansMono-2e" x="1745.947266"/>
     <use xlink:href="#DejaVuSansMono-31" x="1806.152344"/>
     <use xlink:href="#DejaVuSansMono-33" x="1866.357422"/>
     <use xlink:href="#DejaVuSansMono-30" x="1926.5625"/>
     <use xlink:href="#DejaVuSansMono-20" x="1986.767578"/>
     <use xlink:href="#DejaVuSansMono-4c" x="2046.972656"/>
     <use xlink:href="#DejaVuSansMono-6f" x="2107.177734"/>
     <use xlink:href="#DejaVuSansMono-20" x="2167.382812"/>
     <use xlink:href="#DejaVuSansMono-2d" x="2227.587891"/>
     <use xlink:href="#DejaVuSansMono-37" x="2287.792969"/>
     <use xlink:href="#DejaVuSansMono-32" x="2347.998047"/>
     <use xlink:href="#DejaVuSansMono-2e" x="2408.203125"/>
     <use xlink:href="#DejaVuSansMono-30" x="2468.408203"/>
     <use xlink:href="#DejaVuSansMono-39" x="2528.613281"/>
     <use xlink:href="#DejaVuSansMono-30" x="2588.818359"/>
     <use xlink:href="#DejaVuSansMono-20" x="2649.023438"/>
     <use xlink:href="#DejaVuSansMono-44" x="2709.228516"/>
     <use xlink:href="#DejaVuSansMono-70" x="2769.433594"/>
     <use xlink:href="#DejaVuSansMono-20" x="2829.638672"/>
     <use xlink:href="#DejaVuSansMono-31" x="2889.84375"/>
     <use xlink:href="#DejaVuSansMono-37" x="2950.048828"/>
     <use xlink:href="#DejaVuSansMono-2e" x="3010.253906"/>
     <use xlink:href="#DejaVuSansMono-33" x="3070.458984"/>
     <use xlink:href="#DejaVuSansMono-35" x="3130.664062"/>
     <use xlink:href="#DejaVuSansMono-30" x="3190.869141"/>
     <use xlink:href="#DejaVuSansMono-6b" x="3251.074219"/>
     <use xlink:href="#DejaVuSansMono-6d" x="3311.279297"/>
    </g>
    <!-- II.BFO.00.LHZ:  -->
    <g transform="translate(23.04 47.883506) scale(0.1 -0.1)">
     <defs>
      <path id="DejaVuSansMono-48" d="M 428 4666 
L 1063 4666 
L 1063 2753 
L 2791 2753 
L 2791 4666 
L 3425 4666 
L 3425 0 
L 2791 0 
L 2791 2222 
L 1063 2222 
L 1063 0 
L 428 0 
L 428 4666 
z
" transform="scale(0.015625)"/>
     </defs>
     <use xlink:href="#DejaVuSansMono-49"/>
     <use xlink:href="#DejaVuSansMono-49" x="60.205078"/>
     <use xlink:href="#DejaVuSansMono-2e" x="120.410156"/>
     <use xlink:href="#DejaVuSansMono-42" x="180.615234"/>
     <use xlink:href="#DejaVuSansMono-46" x="240.820312"/>
     <use xlink:href="#DejaVuSansMono-4f" x="301.025391"/>
     <use xlink:href="#DejaVuSansMono-2e" x="361.230469"/>
     <use xlink:href="#DejaVuSansMono-30" x="421.435547"/>
     <use xlink:href="#DejaVuSansMono-30" x="481.640625"/>
     <use xlink:href="#DejaVuSansMono-2e" x="541.845703"/>
     <use xlink:href="#DejaVuSansMono-4c" x="602.050781"/>
     <use xlink:href="#DejaVuSansMono-48" x="662.255859"/>
     <use xlink:href="#DejaVuSansMono-5a" x="722.460938"/>
     <use xlink:href="#DejaVuSansMono-3a" x="782.666016"/>
     <use xlink:href="#DejaVuSansMono-20" x="842.871094"/>
    </g>
    <!--   La 48.330 Lo: 8.330 Az: 43.4 Baz: 242.1 Dist: 106.868dg - Bp: 50-500s -->
    <g transform="translate(23.04 59.145069) scale(0.1 -0.1)">
     <defs>
      <path id="DejaVuSansMono-7a" d="M 709 3506 
L 3250 3506 
L 3250 2981 
L 1241 469 
L 3250 469 
L 3250 0 
L 634 0 
L 634 531 
L 2644 3047 
L 709 3047 
L 709 3506 
z
" transform="scale(0.015625)"/>
      <path id="DejaVuSansMono-74" d="M 1919 4494 
L 1919 3500 
L 3225 3500 
L 3225 3053 
L 1919 3053 
L 1919 1153 
Q 1919 766 2066 612 
Q 2213 459 2578 459 
L 3225 459 
L 3225 0 
L 2522 0 
Q 1875 0 1609 259 
Q 1344 519 1344 1153 
L 1344 3053 
L 409 3053 
L 409 3500 
L 1344 3500 
L 1344 4494 
L 1919 4494 
z
" transform="scale(0.015625)"/>
      <path id="DejaVuSansMono-64" d="M 2681 3053 
L 2681 4863 
L 3256 4863 
L 3256 0 
L 2681 0 
L 2681 441 
Q 2538 181 2298 45 
Q 2059 -91 1747 -91 
Q 1113 -91 748 401 
Q 384 894 384 1759 
Q 384 2613 750 3098 
Q 1116 3584 1747 3584 
Q 2063 3584 2303 3448 
Q 2544 3313 2681 3053 
z
M 991 1747 
Q 991 1078 1203 737 
Q 1416 397 1831 397 
Q 2247 397 2464 740 
Q 2681 1084 2681 1747 
Q 2681 2413 2464 2755 
Q 2247 3097 1831 3097 
Q 1416 3097 1203 2756 
Q 991 2416 991 1747 
z
" transform="scale(0.015625)"/>
     </defs>
     <use xlink:href="#DejaVuSansMono-20"/>
     <use xlink:href="#DejaVuSansMono-20" x="60.205078"/>
     <use xlink:href="#DejaVuSansMono-4c" x="120.410156"/>
     <use xlink:href="#DejaVuSansMono-61" x="180.615234"/>
     <use xlink:href="#DejaVuSansMono-20" x="240.820312"/>
     <use xlink:href="#DejaVuSansMono-34" x="301.025391"/>
     <use xlink:href="#DejaVuSansMono-38" x="361.230469"/>
     <use xlink:href="#DejaVuSansMono-2e" x="421.435547"/>
     <use xlink:href="#DejaVuSansMono-33" x="481.640625"/>
     <use xlink:href="#DejaVuSansMono-33" x="541.845703"/>
     <use xlink:href="#DejaVuSansMono-30" x="602.050781"/>
     <use xlink:href="#DejaVuSansMono-20" x="662.255859"/>
     <use xlink:href="#DejaVuSansMono-4c" x="722.460938"/>
     <use xlink:href="#DejaVuSansMono-6f" x="782.666016"/>
     <use xlink:href="#DejaVuSansMono-3a" x="842.871094"/>
     <use xlink:href="#DejaVuSansMono-20" x="903.076172"/>
     <use xlink:href="#DejaVuSansMono-38" x="963.28125"/>
     <use xlink:href="#DejaVuSansMono-2e" x="1023.486328"/>
     <use xlink:href="#DejaVuSansMono-33" x="1083.691406"/>
     <use xlink:href="#DejaVuSansMono-33" x="1143.896484"/>
     <use xlink:href="#DejaVuSansMono-30" x="1204.101562"/>
     <use xlink:href="#DejaVuSansMono-20" x="1264.306641"/>
     <use xlink:href="#DejaVuSansMono-41" x="1324.511719"/>
     <use xlink:href="#DejaVuSansMono-7a" x="1384.716797"/>
     <use xlink:href="#DejaVuSansMono-3a" x="1444.921875"/>
     <use xlink:href="#DejaVuSansMono-20" x="1505.126953"/>
     <use xlink:href="#DejaVuSansMono-34" x="1565.332031"/>
     <use xlink:href="#DejaVuSansMono-33" x="1625.537109"/>
     <use xlink:href="#DejaVuSansMono-2e" x="1685.742188"/>
     <use xlink:href="#DejaVuSansMono-34" x="1745.947266"/>
     <use xlink:href="#DejaVuSansMono-20" x="1806.152344"/>
     <use xlink:href="#DejaVuSansMono-42" x="1866.357422"/>
     <use xlink:href="#DejaVuSansMono-61" x="1926.5625"/>
     <use xlink:href="#DejaVuSansMono-7a" x="1986.767578"/>
     <use xlink:href="#DejaVuSansMono-3a" x="2046.972656"/>
     <use xlink:href="#DejaVuSansMono-20" x="2107.177734"/>
     <use xlink:href="#DejaVuSansMono-32" x="2167.382812"/>
     <use xlink:href="#DejaVuSansMono-34" x="2227.587891"/>
     <use xlink:href="#DejaVuSansMono-32" x="2287.792969"/>
     <use xlink:href="#DejaVuSansMono-2e" x="2347.998047"/>
     <use xlink:href="#DejaVuSansMono-31" x="2408.203125"/>
     <use xlink:href="#DejaVuSansMono-20" x="2468.408203"/>
     <use xlink:href="#DejaVuSansMono-44" x="2528.613281"/>
     <use xlink:href="#DejaVuSansMono-69" x="2588.818359"/>
     <use xlink:href="#DejaVuSansMono-73" x="2649.023438"/>
     <use xlink:href="#DejaVuSansMono-74" x="2709.228516"/>
     <use xlink:href="#DejaVuSansMono-3a" x="2769.433594"/>
     <use xlink:href="#DejaVuSansMono-20" x="2829.638672"/>
     <use xlink:href="#DejaVuSansMono-31" x="2889.84375"/>
     <use xlink:href="#DejaVuSansMono-30" x="2950.048828"/>
     <use xlink:href="#DejaVuSansMono-36" x="3010.253906"/>
     <use xlink:href="#DejaVuSansMono-2e" x="3070.458984"/>
     <use xlink:href="#DejaVuSansMono-38" x="3130.664062"/>
     <use xlink:href="#DejaVuSansMono-36" x="3190.869141"/>
     <use xlink:href="#DejaVuSansMono-38" x="3251.074219"/>
     <use xlink:href="#DejaVuSansMono-64" x="3311.279297"/>
     <use xlink:href="#DejaVuSansMono-67" x="3371.484375"/>
     <use xlink:href="#DejaVuSansMono-20" x="3431.689453"/>
     <use xlink:href="#DejaVuSansMono-2d" x="3491.894531"/>
     <use xlink:href="#DejaVuSansMono-20" x="3552.099609"/>
     <use xlink:href="#DejaVuSansMono-42" x="3612.304688"/>
     <use xlink:href="#DejaVuSansMono-70" x="3672.509766"/>
     <use xlink:href="#DejaVuSansMono-3a" x="3732.714844"/>
     <use xlink:href="#DejaVuSansMono-20" x="3792.919922"/>
     <use xlink:href="#DejaVuSansMono-35" x="3853.125"/>
     <use xlink:href="#DejaVuSansMono-30" x="3913.330078"/>
     <use xlink:href="#DejaVuSansMono-2d" x="3973.535156"/>
     <use xlink:href="#DejaVuSansMono-35" x="4033.740234"/>
     <use xlink:href="#DejaVuSansMono-30" x="4093.945312"/>
     <use xlink:href="#DejaVuSansMono-30" x="4154.150391"/>
     <use xlink:href="#DejaVuSansMono-73" x="4214.355469"/>
    </g>
   </g>
   <g id="legend_1">
    <g id="line2d_11">
     <path d="M 256.435 82.271563 
L 266.435 82.271563 
L 276.435 82.271563 
" style="fill: none; stroke: #000000; stroke-width: 0.75; stroke-linecap: square"/>
    </g>
    <g id="text_13">
     <!-- Observed -->
     <g transform="translate(284.435 85.771563) scale(0.1 -0.1)">
      <defs>
       <path id="DejaVuSansMono-62" d="M 2869 1747 
Q 2869 2416 2656 2756 
Q 2444 3097 2028 3097 
Q 1609 3097 1393 2755 
Q 1178 2413 1178 1747 
Q 1178 1084 1393 740 
Q 1609 397 2028 397 
Q 2444 397 2656 737 
Q 2869 1078 2869 1747 
z
M 1178 3053 
Q 1316 3309 1558 3446 
Q 1800 3584 2119 3584 
Q 2750 3584 3112 3098 
Q 3475 2613 3475 1759 
Q 3475 894 3111 401 
Q 2747 -91 2113 -91 
Q 1800 -91 1561 45 
Q 1322 181 1178 441 
L 1178 0 
L 603 0 
L 603 4863 
L 1178 4863 
L 1178 3053 
z
" transform="scale(0.015625)"/>
       <path id="DejaVuSansMono-76" d="M 313 3500 
L 909 3500 
L 1925 563 
L 2944 3500 
L 3541 3500 
L 2297 0 
L 1556 0 
L 313 3500 
z
" transform="scale(0.015625)"/>
      </defs>
      <use xlink:href="#DejaVuSansMono-4f"/>
      <use xlink:href="#DejaVuSansMono-62" x="60.205078"/>
      <use xlink:href="#DejaVuSansMono-73" x="120.410156"/>
      <use xlink:href="#DejaVuSansMono-65" x="180.615234"/>
      <use xlink:href="#DejaVuSansMono-72" x="240.820312"/>
      <use xlink:href="#DejaVuSansMono-76" x="301.025391"/>
      <use xlink:href="#DejaVuSansMono-65" x="361.230469"/>
      <use xlink:href="#DejaVuSansMono-64" x="421.435547"/>
     </g>
    </g>
    <g id="line2d_12">
     <path d="M 352.5975 82.271563 
L 362.5975 82.271563 
L 372.5975 82.271563 
" style="fill: none; stroke: #ff0000; stroke-width: 0.75; stroke-linecap: square"/>
    </g>
    <g id="text_14">
     <!-- GLAD-M25 -->
     <g transform="translate(380.5975 85.771563) scale(0.1 -0.1)">
      <defs>
       <path id="DejaVuSansMono-47" d="M 3450 384 
Q 3197 150 2880 29 
Q 2563 -91 2194 -91 
Q 1306 -91 812 545 
Q 319 1181 319 2328 
Q 319 3472 819 4111 
Q 1319 4750 2209 4750 
Q 2503 4750 2772 4667 
Q 3041 4584 3291 4416 
L 3291 3769 
Q 3038 4009 2772 4123 
Q 2506 4238 2209 4238 
Q 1594 4238 1286 3761 
Q 978 3284 978 2328 
Q 978 1356 1276 889 
Q 1575 422 2194 422 
Q 2403 422 2561 470 
Q 2719 519 2847 622 
L 2847 1875 
L 2169 1875 
L 2169 2394 
L 3450 2394 
L 3450 384 
z
" transform="scale(0.015625)"/>
       <path id="DejaVuSansMono-4d" d="M 269 4666 
L 1113 4666 
L 1919 2291 
L 2731 4666 
L 3578 4666 
L 3578 0 
L 2994 0 
L 2994 4122 
L 2163 1663 
L 1684 1663 
L 850 4122 
L 850 0 
L 269 0 
L 269 4666 
z
" transform="scale(0.015625)"/>
      </defs>
      <use xlink:href="#DejaVuSansMono-47"/>
      <use xlink:href="#DejaVuSansMono-4c" x="60.205078"/>
      <use xlink:href="#DejaVuSansMono-41" x="120.410156"/>
      <use xlink:href="#DejaVuSansMono-44" x="180.615234"/>
      <use xlink:href="#DejaVuSansMono-2d" x="240.820312"/>
      <use xlink:href="#DejaVuSansMono-4d" x="301.025391"/>
      <use xlink:href="#DejaVuSansMono-32" x="361.230469"/>
      <use xlink:href="#DejaVuSansMono-35" x="421.435547"/>
     </g>
    </g>
   </g>
  </g>
 </g>
 <defs>
  <clipPath id="p249bc34d68">
   <rect x="23.04" y="69.12" width="414.72" height="233.28"/>
  </clipPath>
 </defs>
</svg>
