<?xml version="1.0" encoding="utf-8" standalone="no"?>
<!DOCTYPE svg PUBLIC "-//W3C//DTD SVG 1.1//EN"
  "http://www.w3.org/Graphics/SVG/1.1/DTD/svg11.dtd">
<svg xmlns:xlink="http://www.w3.org/1999/xlink" width="460.8pt" height="345.6pt" viewBox="0 0 460.8 345.6" xmlns="http://www.w3.org/2000/svg" version="1.1">
 <metadata>
  <rdf:RDF xmlns:dc="http://purl.org/dc/elements/1.1/" xmlns:cc="http://creativecommons.org/ns#" xmlns:rdf="http://www.w3.org/1999/02/22-rdf-syntax-ns#">
   <cc:Work>
    <dc:type rdf:resource="http://purl.org/dc/dcmitype/StillImage"/>
    <dc:date>2023-08-31T20:52:41.750248</dc:date>
    <dc:format>image/svg+xml</dc:format>
    <dc:creator>
     <cc:Agent>
      <dc:title>Matplotlib v3.7.2, https://matplotlib.org/</dc:title>
     </cc:Agent>
    </dc:creator>
   </cc:Work>
  </rdf:RDF>
 </metadata>
 <defs>
  <style type="text/css">*{stroke-linejoin: round; stroke-linecap: butt}</style>
 </defs>
 <g id="figure_1">
  <g id="patch_1">
   <path d="M 0 345.6 
L 460.8 345.6 
L 460.8 0 
L 0 0 
z
" style="fill: #ffffff"/>
  </g>
  <g id="axes_1">
   <g id="patch_2">
    <path d="M 57.6 276.48 
L 414.72 276.48 
L 414.72 41.472 
L 57.6 41.472 
z
" style="fill: #ffffff"/>
   </g>
   <g id="matplotlib.axis_1">
    <g id="xtick_1">
     <g id="line2d_1">
      <defs>
       <path id="m7453558b6c" d="M 0 0 
L 0 3.5 
" style="stroke: #000000; stroke-width: 0.8"/>
      </defs>
      <g>
       <use xlink:href="#m7453558b6c" x="87.402687" y="276.48" style="stroke: #000000; stroke-width: 0.8"/>
      </g>
     </g>
     <g id="text_1">
      <!-- 23:00 -->
      <g transform="translate(61.405074 304.469815) rotate(-30) scale(0.1 -0.1)">
       <defs>
        <path id="DejaVuSans-32" d="M 1228 531 
L 3431 531 
L 3431 0 
L 469 0 
L 469 531 
Q 828 903 1448 1529 
Q 2069 2156 2228 2338 
Q 2531 2678 2651 2914 
Q 2772 3150 2772 3378 
Q 2772 3750 2511 3984 
Q 2250 4219 1831 4219 
Q 1534 4219 1204 4116 
Q 875 4013 500 3803 
L 500 4441 
Q 881 4594 1212 4672 
Q 1544 4750 1819 4750 
Q 2544 4750 2975 4387 
Q 3406 4025 3406 3419 
Q 3406 3131 3298 2873 
Q 3191 2616 2906 2266 
Q 2828 2175 2409 1742 
Q 1991 1309 1228 531 
z
" transform="scale(0.015625)"/>
        <path id="DejaVuSans-33" d="M 2597 2516 
Q 3050 2419 3304 2112 
Q 3559 1806 3559 1356 
Q 3559 666 3084 287 
Q 2609 -91 1734 -91 
Q 1441 -91 1130 -33 
Q 819 25 488 141 
L 488 750 
Q 750 597 1062 519 
Q 1375 441 1716 441 
Q 2309 441 2620 675 
Q 2931 909 2931 1356 
Q 2931 1769 2642 2001 
Q 2353 2234 1838 2234 
L 1294 2234 
L 1294 2753 
L 1863 2753 
Q 2328 2753 2575 2939 
Q 2822 3125 2822 3475 
Q 2822 3834 2567 4026 
Q 2313 4219 1838 4219 
Q 1578 4219 1281 4162 
Q 984 4106 628 3988 
L 628 4550 
Q 988 4650 1302 4700 
Q 1616 4750 1894 4750 
Q 2613 4750 3031 4423 
Q 3450 4097 3450 3541 
Q 3450 3153 3228 2886 
Q 3006 2619 2597 2516 
z
" transform="scale(0.015625)"/>
        <path id="DejaVuSans-3a" d="M 750 794 
L 1409 794 
L 1409 0 
L 750 0 
L 750 794 
z
M 750 3309 
L 1409 3309 
L 1409 2516 
L 750 2516 
L 750 3309 
z
" transform="scale(0.015625)"/>
        <path id="DejaVuSans-30" d="M 2034 4250 
Q 1547 4250 1301 3770 
Q 1056 3291 1056 2328 
Q 1056 1369 1301 889 
Q 1547 409 2034 409 
Q 2525 409 2770 889 
Q 3016 1369 3016 2328 
Q 3016 3291 2770 3770 
Q 2525 4250 2034 4250 
z
M 2034 4750 
Q 2819 4750 3233 4129 
Q 3647 3509 3647 2328 
Q 3647 1150 3233 529 
Q 2819 -91 2034 -91 
Q 1250 -91 836 529 
Q 422 1150 422 2328 
Q 422 3509 836 4129 
Q 1250 4750 2034 4750 
z
" transform="scale(0.015625)"/>
       </defs>
       <use xlink:href="#DejaVuSans-32"/>
       <use xlink:href="#DejaVuSans-33" x="63.623047"/>
       <use xlink:href="#DejaVuSans-3a" x="127.246094"/>
       <use xlink:href="#DejaVuSans-30" x="160.9375"/>
       <use xlink:href="#DejaVuSans-30" x="224.560547"/>
      </g>
     </g>
    </g>
    <g id="xtick_2">
     <g id="line2d_2">
      <g>
       <use xlink:href="#m7453558b6c" x="126.36383" y="276.48" style="stroke: #000000; stroke-width: 0.8"/>
      </g>
     </g>
     <g id="text_2">
      <!-- 23:30 -->
      <g transform="translate(100.366216 304.469815) rotate(-30) scale(0.1 -0.1)">
       <use xlink:href="#DejaVuSans-32"/>
       <use xlink:href="#DejaVuSans-33" x="63.623047"/>
       <use xlink:href="#DejaVuSans-3a" x="127.246094"/>
       <use xlink:href="#DejaVuSans-33" x="160.9375"/>
       <use xlink:href="#DejaVuSans-30" x="224.560547"/>
      </g>
     </g>
    </g>
    <g id="xtick_3">
     <g id="line2d_3">
      <g>
       <use xlink:href="#m7453558b6c" x="165.324973" y="276.48" style="stroke: #000000; stroke-width: 0.8"/>
      </g>
     </g>
     <g id="text_3">
      <!-- 00:00 -->
      <g transform="translate(139.327359 304.469815) rotate(-30) scale(0.1 -0.1)">
       <use xlink:href="#DejaVuSans-30"/>
       <use xlink:href="#DejaVuSans-30" x="63.623047"/>
       <use xlink:href="#DejaVuSans-3a" x="127.246094"/>
       <use xlink:href="#DejaVuSans-30" x="160.9375"/>
       <use xlink:href="#DejaVuSans-30" x="224.560547"/>
      </g>
     </g>
    </g>
    <g id="xtick_4">
     <g id="line2d_4">
      <g>
       <use xlink:href="#m7453558b6c" x="204.286115" y="276.48" style="stroke: #000000; stroke-width: 0.8"/>
      </g>
     </g>
     <g id="text_4">
      <!-- 00:30 -->
      <g transform="translate(178.288502 304.469815) rotate(-30) scale(0.1 -0.1)">
       <use xlink:href="#DejaVuSans-30"/>
       <use xlink:href="#DejaVuSans-30" x="63.623047"/>
       <use xlink:href="#DejaVuSans-3a" x="127.246094"/>
       <use xlink:href="#DejaVuSans-33" x="160.9375"/>
       <use xlink:href="#DejaVuSans-30" x="224.560547"/>
      </g>
     </g>
    </g>
    <g id="xtick_5">
     <g id="line2d_5">
      <g>
       <use xlink:href="#m7453558b6c" x="243.247258" y="276.48" style="stroke: #000000; stroke-width: 0.8"/>
      </g>
     </g>
     <g id="text_5">
      <!-- 01:00 -->
      <g transform="translate(217.249645 304.469815) rotate(-30) scale(0.1 -0.1)">
       <defs>
        <path id="DejaVuSans-31" d="M 794 531 
L 1825 531 
L 1825 4091 
L 703 3866 
L 703 4441 
L 1819 4666 
L 2450 4666 
L 2450 531 
L 3481 531 
L 3481 0 
L 794 0 
L 794 531 
z
" transform="scale(0.015625)"/>
       </defs>
       <use xlink:href="#DejaVuSans-30"/>
       <use xlink:href="#DejaVuSans-31" x="63.623047"/>
       <use xlink:href="#DejaVuSans-3a" x="127.246094"/>
       <use xlink:href="#DejaVuSans-30" x="160.9375"/>
       <use xlink:href="#DejaVuSans-30" x="224.560547"/>
      </g>
     </g>
    </g>
    <g id="xtick_6">
     <g id="line2d_6">
      <g>
       <use xlink:href="#m7453558b6c" x="282.208401" y="276.48" style="stroke: #000000; stroke-width: 0.8"/>
      </g>
     </g>
     <g id="text_6">
      <!-- 01:30 -->
      <g transform="translate(256.210788 304.469815) rotate(-30) scale(0.1 -0.1)">
       <use xlink:href="#DejaVuSans-30"/>
       <use xlink:href="#DejaVuSans-31" x="63.623047"/>
       <use xlink:href="#DejaVuSans-3a" x="127.246094"/>
       <use xlink:href="#DejaVuSans-33" x="160.9375"/>
       <use xlink:href="#DejaVuSans-30" x="224.560547"/>
      </g>
     </g>
    </g>
    <g id="xtick_7">
     <g id="line2d_7">
      <g>
       <use xlink:href="#m7453558b6c" x="321.169544" y="276.48" style="stroke: #000000; stroke-width: 0.8"/>
      </g>
     </g>
     <g id="text_7">
      <!-- 02:00 -->
      <g transform="translate(295.171931 304.469815) rotate(-30) scale(0.1 -0.1)">
       <use xlink:href="#DejaVuSans-30"/>
       <use xlink:href="#DejaVuSans-32" x="63.623047"/>
       <use xlink:href="#DejaVuSans-3a" x="127.246094"/>
       <use xlink:href="#DejaVuSans-30" x="160.9375"/>
       <use xlink:href="#DejaVuSans-30" x="224.560547"/>
      </g>
     </g>
    </g>
    <g id="xtick_8">
     <g id="line2d_8">
      <g>
       <use xlink:href="#m7453558b6c" x="360.130687" y="276.48" style="stroke: #000000; stroke-width: 0.8"/>
      </g>
     </g>
     <g id="text_8">
      <!-- 02:30 -->
      <g transform="translate(334.133074 304.469815) rotate(-30) scale(0.1 -0.1)">
       <use xlink:href="#DejaVuSans-30"/>
       <use xlink:href="#DejaVuSans-32" x="63.623047"/>
       <use xlink:href="#DejaVuSans-3a" x="127.246094"/>
       <use xlink:href="#DejaVuSans-33" x="160.9375"/>
       <use xlink:href="#DejaVuSans-30" x="224.560547"/>
      </g>
     </g>
    </g>
    <g id="xtick_9">
     <g id="line2d_9">
      <g>
       <use xlink:href="#m7453558b6c" x="399.09183" y="276.48" style="stroke: #000000; stroke-width: 0.8"/>
      </g>
     </g>
     <g id="text_9">
      <!-- 03:00 -->
      <g transform="translate(373.094216 304.469815) rotate(-30) scale(0.1 -0.1)">
       <use xlink:href="#DejaVuSans-30"/>
       <use xlink:href="#DejaVuSans-33" x="63.623047"/>
       <use xlink:href="#DejaVuSans-3a" x="127.246094"/>
       <use xlink:href="#DejaVuSans-30" x="160.9375"/>
       <use xlink:href="#DejaVuSans-30" x="224.560547"/>
      </g>
     </g>
    </g>
    <g id="text_10">
     <!-- Time -->
     <g transform="translate(223.926406 317.869315) scale(0.1 -0.1)">
      <defs>
       <path id="DejaVuSans-54" d="M -19 4666 
L 3928 4666 
L 3928 4134 
L 2272 4134 
L 2272 0 
L 1638 0 
L 1638 4134 
L -19 4134 
L -19 4666 
z
" transform="scale(0.015625)"/>
       <path id="DejaVuSans-69" d="M 603 3500 
L 1178 3500 
L 1178 0 
L 603 0 
L 603 3500 
z
M 603 4863 
L 1178 4863 
L 1178 4134 
L 603 4134 
L 603 4863 
z
" transform="scale(0.015625)"/>
       <path id="DejaVuSans-6d" d="M 3328 2828 
Q 3544 3216 3844 3400 
Q 4144 3584 4550 3584 
Q 5097 3584 5394 3201 
Q 5691 2819 5691 2113 
L 5691 0 
L 5113 0 
L 5113 2094 
Q 5113 2597 4934 2840 
Q 4756 3084 4391 3084 
Q 3944 3084 3684 2787 
Q 3425 2491 3425 1978 
L 3425 0 
L 2847 0 
L 2847 2094 
Q 2847 2600 2669 2842 
Q 2491 3084 2119 3084 
Q 1678 3084 1418 2786 
Q 1159 2488 1159 1978 
L 1159 0 
L 581 0 
L 581 3500 
L 1159 3500 
L 1159 2956 
Q 1356 3278 1631 3431 
Q 1906 3584 2284 3584 
Q 2666 3584 2933 3390 
Q 3200 3197 3328 2828 
z
" transform="scale(0.015625)"/>
       <path id="DejaVuSans-65" d="M 3597 1894 
L 3597 1613 
L 953 1613 
Q 991 1019 1311 708 
Q 1631 397 2203 397 
Q 2534 397 2845 478 
Q 3156 559 3463 722 
L 3463 178 
Q 3153 47 2828 -22 
Q 2503 -91 2169 -91 
Q 1331 -91 842 396 
Q 353 884 353 1716 
Q 353 2575 817 3079 
Q 1281 3584 2069 3584 
Q 2775 3584 3186 3129 
Q 3597 2675 3597 1894 
z
M 3022 2063 
Q 3016 2534 2758 2815 
Q 2500 3097 2075 3097 
Q 1594 3097 1305 2825 
Q 1016 2553 972 2059 
L 3022 2063 
z
" transform="scale(0.015625)"/>
      </defs>
      <use xlink:href="#DejaVuSans-54"/>
      <use xlink:href="#DejaVuSans-69" x="57.958984"/>
      <use xlink:href="#DejaVuSans-6d" x="85.742188"/>
      <use xlink:href="#DejaVuSans-65" x="183.154297"/>
     </g>
    </g>
    <g id="text_11">
     <!-- 2015-Sep-17 -->
     <g transform="translate(350.479375 316.869315) scale(0.1 -0.1)">
      <defs>
       <path id="DejaVuSans-35" d="M 691 4666 
L 3169 4666 
L 3169 4134 
L 1269 4134 
L 1269 2991 
Q 1406 3038 1543 3061 
Q 1681 3084 1819 3084 
Q 2600 3084 3056 2656 
Q 3513 2228 3513 1497 
Q 3513 744 3044 326 
Q 2575 -91 1722 -91 
Q 1428 -91 1123 -41 
Q 819 9 494 109 
L 494 744 
Q 775 591 1075 516 
Q 1375 441 1709 441 
Q 2250 441 2565 725 
Q 2881 1009 2881 1497 
Q 2881 1984 2565 2268 
Q 2250 2553 1709 2553 
Q 1456 2553 1204 2497 
Q 953 2441 691 2322 
L 691 4666 
z
" transform="scale(0.015625)"/>
       <path id="DejaVuSans-2d" d="M 313 2009 
L 1997 2009 
L 1997 1497 
L 313 1497 
L 313 2009 
z
" transform="scale(0.015625)"/>
       <path id="DejaVuSans-53" d="M 3425 4513 
L 3425 3897 
Q 3066 4069 2747 4153 
Q 2428 4238 2131 4238 
Q 1616 4238 1336 4038 
Q 1056 3838 1056 3469 
Q 1056 3159 1242 3001 
Q 1428 2844 1947 2747 
L 2328 2669 
Q 3034 2534 3370 2195 
Q 3706 1856 3706 1288 
Q 3706 609 3251 259 
Q 2797 -91 1919 -91 
Q 1588 -91 1214 -16 
Q 841 59 441 206 
L 441 856 
Q 825 641 1194 531 
Q 1563 422 1919 422 
Q 2459 422 2753 634 
Q 3047 847 3047 1241 
Q 3047 1584 2836 1778 
Q 2625 1972 2144 2069 
L 1759 2144 
Q 1053 2284 737 2584 
Q 422 2884 422 3419 
Q 422 4038 858 4394 
Q 1294 4750 2059 4750 
Q 2388 4750 2728 4690 
Q 3069 4631 3425 4513 
z
" transform="scale(0.015625)"/>
       <path id="DejaVuSans-70" d="M 1159 525 
L 1159 -1331 
L 581 -1331 
L 581 3500 
L 1159 3500 
L 1159 2969 
Q 1341 3281 1617 3432 
Q 1894 3584 2278 3584 
Q 2916 3584 3314 3078 
Q 3713 2572 3713 1747 
Q 3713 922 3314 415 
Q 2916 -91 2278 -91 
Q 1894 -91 1617 61 
Q 1341 213 1159 525 
z
M 3116 1747 
Q 3116 2381 2855 2742 
Q 2594 3103 2138 3103 
Q 1681 3103 1420 2742 
Q 1159 2381 1159 1747 
Q 1159 1113 1420 752 
Q 1681 391 2138 391 
Q 2594 391 2855 752 
Q 3116 1113 3116 1747 
z
" transform="scale(0.015625)"/>
       <path id="DejaVuSans-37" d="M 525 4666 
L 3525 4666 
L 3525 4397 
L 1831 0 
L 1172 0 
L 2766 4134 
L 525 4134 
L 525 4666 
z
" transform="scale(0.015625)"/>
      </defs>
      <use xlink:href="#DejaVuSans-32"/>
      <use xlink:href="#DejaVuSans-30" x="63.623047"/>
      <use xlink:href="#DejaVuSans-31" x="127.246094"/>
      <use xlink:href="#DejaVuSans-35" x="190.869141"/>
      <use xlink:href="#DejaVuSans-2d" x="254.492188"/>
      <use xlink:href="#DejaVuSans-53" x="290.576172"/>
      <use xlink:href="#DejaVuSans-65" x="354.052734"/>
      <use xlink:href="#DejaVuSans-70" x="415.576172"/>
      <use xlink:href="#DejaVuSans-2d" x="479.052734"/>
      <use xlink:href="#DejaVuSans-31" x="515.136719"/>
      <use xlink:href="#DejaVuSans-37" x="578.759766"/>
     </g>
    </g>
   </g>
   <g id="matplotlib.axis_2">
    <g id="ytick_1"/>
    <g id="ytick_2"/>
    <g id="ytick_3"/>
    <g id="ytick_4"/>
    <g id="ytick_5"/>
    <g id="ytick_6"/>
    <g id="ytick_7"/>
   </g>
   <g id="line2d_10">
    <path d="M 73.832727 158.976 
L 97.252703 159.087096 
L 98.573053 159.289503 
L 98.789504 159.150169 
L 99.005955 158.615441 
L 99.525436 156.668846 
L 99.612017 156.90018 
L 99.893403 159.059354 
L 100.218079 160.915607 
L 100.304659 160.84252 
L 100.52111 160.157221 
L 100.932367 158.928235 
L 101.062237 158.942344 
L 101.365268 159.077451 
L 101.581719 158.979067 
L 102.101201 158.581147 
L 102.317652 158.700534 
L 102.534103 158.73767 
L 102.923714 158.534656 
L 103.140165 158.763974 
L 103.876097 159.599214 
L 104.049258 159.505239 
L 104.200774 159.504978 
L 104.503805 159.985244 
L 104.676965 160.227741 
L 104.69861 160.21103 
L 104.828481 159.84684 
L 105.066577 158.28804 
L 105.434543 154.220109 
L 105.521123 154.54509 
L 105.737574 156.805381 
L 106.148831 161.546533 
L 106.235411 161.776798 
L 106.278701 161.718605 
L 106.495152 160.610964 
L 106.689958 160.24524 
L 106.819828 160.410317 
L 106.992989 160.668039 
L 107.036279 160.632925 
L 107.274375 160.0443 
L 107.599051 159.255933 
L 107.663986 159.297856 
L 108.031953 159.738256 
L 108.096888 159.599515 
L 108.226758 158.669364 
L 108.724595 154.160894 
L 108.78953 154.335288 
L 108.984336 156.025922 
L 109.503818 160.563923 
L 109.763559 160.816259 
L 109.893429 160.949671 
L 110.088235 161.306767 
L 110.131525 161.280366 
L 110.456202 160.836549 
L 111.170489 158.08866 
L 111.235424 158.12226 
L 111.43023 158.124986 
L 111.754906 157.986413 
L 111.949712 157.677312 
L 111.971357 157.694839 
L 112.144518 158.103793 
L 112.945386 160.098829 
L 113.118546 159.982651 
L 113.313352 159.697484 
L 113.356642 159.73351 
L 113.464868 159.777784 
L 113.486513 159.742215 
L 113.594738 159.245854 
L 114.135865 155.417587 
L 114.2008 155.540429 
L 114.330671 156.454836 
L 114.850153 160.699458 
L 115.001668 160.844823 
L 115.023313 160.829542 
L 115.326344 160.500888 
L 115.39128 160.611918 
L 115.56444 161.399495 
L 115.824181 162.365611 
L 115.932407 162.265372 
L 116.127212 161.591856 
L 116.495179 159.608564 
L 116.993016 152.981664 
L 117.057951 153.271221 
L 117.577433 158.419873 
L 117.664013 157.796564 
L 118.031979 152.207716 
L 118.11856 152.62987 
L 118.378301 156.57351 
L 118.638042 162.639451 
L 118.919428 170.142242 
L 118.941073 170.140921 
L 119.027653 169.393045 
L 119.871811 158.607071 
L 119.958391 158.308862 
L 120.218132 155.799583 
L 120.326358 156.297354 
L 120.694324 160.253884 
L 120.780904 159.981913 
L 120.910775 159.526549 
L 120.954065 159.570919 
L 121.06229 159.73188 
L 121.105581 159.633837 
L 121.235451 158.598093 
L 121.863158 152.597436 
L 122.014674 152.045408 
L 122.036319 152.0569 
L 122.122899 152.402035 
L 122.29606 154.546782 
L 123.248443 167.981217 
L 123.356669 168.020045 
L 123.378314 167.995378 
L 123.486539 167.627677 
L 123.681345 165.850228 
L 123.897796 161.136652 
L 124.677019 139.582683 
L 124.720309 139.725976 
L 124.828534 141.227071 
L 125.001695 147.990313 
L 125.715983 184.941935 
L 125.737628 184.864213 
L 125.824208 183.521964 
L 125.975723 176.47532 
L 126.47356 150.325953 
L 126.776591 146.156908 
L 126.841527 146.586861 
L 127.014687 150.54627 
L 127.382654 158.04875 
L 127.447589 157.957043 
L 127.772265 156.300156 
L 127.8372 156.116025 
L 127.88049 156.190905 
L 128.010361 157.358114 
L 128.378327 161.394348 
L 128.421617 161.318542 
L 128.529843 160.332105 
L 128.854519 157.3229 
L 129.15755 155.47401 
L 129.309066 154.685199 
L 129.352356 154.812073 
L 129.460581 156.166825 
L 129.698677 162.79525 
L 130.088289 172.396566 
L 130.109934 172.421344 
L 130.131579 172.365818 
L 130.218159 171.331924 
L 130.52119 162.839653 
L 131.105607 150.363171 
L 131.170543 150.179296 
L 131.213833 150.275614 
L 131.365348 151.641247 
L 132.036346 159.21941 
L 132.144571 159.124395 
L 132.231151 159.257466 
L 132.469247 160.33388 
L 132.534183 160.152485 
L 132.772278 158.67791 
L 132.837214 158.798917 
L 133.313405 161.52755 
L 133.594791 164.290458 
L 133.638082 164.136082 
L 133.767952 162.545142 
L 134.200854 153.234022 
L 134.374014 151.367238 
L 134.395659 151.424539 
L 134.48224 152.366902 
L 134.677045 157.754033 
L 135.045012 166.821481 
L 135.174882 167.445593 
L 135.196527 167.393198 
L 135.283108 166.528058 
L 135.824235 155.143228 
L 136.105621 147.497866 
L 136.148911 147.857189 
L 136.278781 151.769865 
L 136.603457 160.469427 
L 136.993069 162.568639 
L 137.014714 162.600369 
L 137.058004 162.514154 
L 137.16623 161.339378 
L 137.577486 155.815624 
L 137.599131 155.860705 
L 137.707356 156.787031 
L 137.880517 160.890254 
L 138.140258 166.705028 
L 138.161903 166.654652 
L 138.248483 165.315066 
L 138.464934 156.449323 
L 138.681385 149.853304 
L 138.70303 149.896362 
L 138.78961 151.463985 
L 139.287447 163.737389 
L 139.352383 163.417233 
L 139.612123 160.287561 
L 139.677059 160.691059 
L 139.828574 164.137592 
L 140.045025 168.214658 
L 140.06667 168.149998 
L 140.15325 166.562051 
L 140.694377 152.013848 
L 140.759313 152.156378 
L 140.867538 153.153501 
L 141.30044 158.601033 
L 141.34373 158.561932 
L 141.495245 158.136125 
L 141.560181 158.283221 
L 141.819922 160.287868 
L 141.906502 159.908972 
L 142.079663 158.841256 
L 142.122953 158.920354 
L 142.252823 160.077857 
L 142.361049 160.70925 
L 142.382694 160.633116 
L 142.490919 159.146327 
L 142.642435 157.08808 
L 142.685725 157.179197 
L 142.902176 159.096243 
L 142.967111 158.765047 
L 143.140271 157.406778 
L 143.183562 157.545365 
L 143.421657 159.655514 
L 143.508238 159.282409 
L 143.854559 155.705151 
L 143.941139 155.833675 
L 144.049365 156.655455 
L 144.287461 159.6658 
L 144.330751 159.461154 
L 144.482266 156.650115 
L 144.655427 154.268196 
L 144.677072 154.284105 
L 144.763652 155.124417 
L 144.980103 160.804121 
L 145.39136 170.468926 
L 145.43465 170.330855 
L 145.542875 168.529087 
L 145.780971 159.079559 
L 146.019067 153.787547 
L 146.084002 154.391151 
L 146.257163 159.613901 
L 146.625129 169.724508 
L 146.668419 169.398415 
L 146.776645 165.785595 
L 147.101321 152.587092 
L 147.122966 152.660796 
L 147.231191 154.598855 
L 147.361062 156.804575 
L 147.382707 156.620093 
L 147.469287 152.915101 
L 147.620803 133.394884 
L 147.923834 88.472452 
L 147.967124 89.499324 
L 148.07535 105.746606 
L 148.33509 199.728299 
L 148.594831 261.153391 
L 148.616476 261.099019 
L 148.703057 252.869531 
L 149.179249 183.834247 
L 149.200894 183.947935 
L 149.287474 184.420102 
L 149.309119 184.267076 
L 149.395699 181.291262 
L 149.547215 163.654119 
L 150.109987 80.280094 
L 150.131632 80.260269 
L 150.153277 80.342999 
L 150.283148 81.989055 
L 150.434663 86.930198 
L 150.607824 102.405746 
L 151.257176 173.182385 
L 151.538562 198.765732 
L 151.841593 222.550509 
L 152.014754 223.479453 
L 152.058044 223.604181 
L 152.101334 223.453475 
L 152.187915 221.205866 
L 152.33943 208.066828 
L 152.642461 184.477831 
L 152.750687 185.604254 
L 152.793977 185.34085 
L 152.880557 180.714259 
L 153.075363 149.584583 
L 153.291814 128.126931 
L 153.378394 130.534826 
L 153.464974 132.555719 
L 153.508264 131.573292 
L 153.638135 118.763534 
L 153.811296 102.59257 
L 153.854586 103.507184 
L 154.006101 118.768132 
L 154.157617 127.287803 
L 154.179262 126.972208 
L 154.309132 123.260094 
L 154.352423 123.82808 
L 154.460648 133.297329 
L 154.655454 152.627849 
L 154.698744 151.658978 
L 154.871904 142.791259 
L 154.915195 144.626269 
L 155.088355 168.115146 
L 155.218226 176.650549 
L 155.239871 176.26531 
L 155.413031 169.647235 
L 155.456322 170.858184 
L 155.694417 188.237127 
L 155.759353 185.327429 
L 155.997449 166.376884 
L 156.040739 167.761494 
L 156.235544 179.331956 
L 156.30048 178.132725 
L 156.495285 168.453433 
L 156.560221 170.12634 
L 156.733381 179.100832 
L 156.798316 177.430246 
L 157.079703 157.285856 
L 157.166283 159.247499 
L 157.252863 160.969783 
L 157.296153 160.471375 
L 157.512604 152.097601 
L 157.599184 153.591725 
L 157.7507 157.72666 
L 157.79399 157.133525 
L 158.075376 149.216259 
L 158.161956 149.306484 
L 158.291827 148.533414 
L 158.356762 148.949924 
L 158.551568 153.045703 
L 158.616503 152.342765 
L 158.724729 150.776639 
L 158.768019 151.40332 
L 158.98447 159.803104 
L 159.049405 157.69772 
L 159.20092 150.790811 
L 159.24421 151.966103 
L 159.439016 165.253984 
L 159.503951 162.731323 
L 159.677112 150.117721 
L 159.720402 151.64868 
L 159.915208 166.953424 
L 159.980143 163.859685 
L 160.131659 152.642594 
L 160.174949 153.576705 
L 160.34811 164.472423 
L 160.413045 162.118124 
L 160.56456 152.847293 
L 160.60785 154.032997 
L 160.781011 164.952771 
L 160.845946 163.033892 
L 160.975817 157.140074 
L 161.019107 158.535811 
L 161.192268 170.441647 
L 161.257203 167.793608 
L 161.408718 156.261233 
L 161.473654 157.982749 
L 161.625169 167.62758 
L 161.690104 166.186069 
L 161.84162 159.673073 
L 161.88491 160.669813 
L 162.014781 164.884763 
L 162.058071 163.840018 
L 162.209586 157.015015 
L 162.252876 157.893577 
L 162.404392 164.470964 
L 162.447682 162.956897 
L 162.620843 149.716475 
L 162.685778 151.439152 
L 162.815649 158.697603 
L 162.858939 157.694935 
L 163.010454 147.640774 
L 163.07539 149.558986 
L 163.226905 160.155443 
L 163.29184 157.919717 
L 163.421711 150.824162 
L 163.465001 152.292063 
L 163.638162 164.673262 
L 163.703097 162.623914 
L 163.811322 157.313879 
L 163.854612 157.888832 
L 164.027773 167.22637 
L 164.114353 165.345647 
L 164.200934 163.511227 
L 164.244224 164.503992 
L 164.374094 169.37969 
L 164.417384 168.466525 
L 164.61219 157.375047 
L 164.677125 159.093233 
L 164.763706 161.927351 
L 164.806996 161.398399 
L 165.023447 151.018904 
L 165.110027 153.029685 
L 165.174962 154.09142 
L 165.218252 153.722939 
L 165.348123 151.596479 
L 165.391413 152.353254 
L 165.564574 157.298692 
L 165.607864 156.634871 
L 165.716089 154.179902 
L 165.759379 154.49613 
L 165.997475 161.868918 
L 166.127346 161.194691 
L 166.235571 161.827453 
L 166.278861 161.64196 
L 166.408732 158.115761 
L 166.495312 156.424993 
L 166.560247 156.902066 
L 166.711763 158.991348 
L 166.755053 158.833138 
L 166.841633 158.348724 
L 166.884923 158.494023 
L 167.274535 162.98798 
L 167.42605 166.342822 
L 167.469341 165.812755 
L 167.685791 160.439751 
L 167.750727 160.882792 
L 167.815662 161.360653 
L 167.858952 161.137078 
L 168.010468 157.194676 
L 168.097048 156.195676 
L 168.140338 156.591367 
L 168.291854 158.56608 
L 168.335144 158.350977 
L 168.508304 156.946399 
L 168.551595 157.062711 
L 168.61653 157.160398 
L 168.638175 157.10161 
L 168.7464 156.483165 
L 168.78969 156.607966 
L 168.897916 158.901364 
L 169.049431 161.571742 
L 169.092722 161.409705 
L 169.352463 159.064813 
L 169.590558 154.497564 
L 169.633849 154.643646 
L 169.698784 154.811166 
L 169.742074 154.699649 
L 169.93688 153.64566 
L 169.98017 153.751426 
L 170.088395 154.932018 
L 170.326491 160.383793 
L 170.413071 159.285023 
L 170.499652 158.01732 
L 170.542942 158.453413 
L 170.759393 165.388541 
L 170.845973 164.055637 
L 170.932553 163.134754 
L 170.975843 163.568821 
L 171.084069 164.88934 
L 171.127359 164.43746 
L 171.30052 160.945842 
L 171.365455 161.630595 
L 171.452035 162.525138 
L 171.495325 162.226283 
L 171.690131 159.276367 
L 171.755066 159.658197 
L 171.949872 161.145759 
L 171.993162 161.00073 
L 172.101388 159.133006 
L 172.317838 154.478974 
L 172.361129 154.608294 
L 172.469354 155.013035 
L 172.512644 154.86598 
L 172.599224 154.59747 
L 172.62087 154.677264 
L 172.729095 156.252422 
L 172.988836 159.307605 
L 173.053771 159.426726 
L 173.097061 159.335955 
L 173.205287 158.274697 
L 173.313512 157.263572 
L 173.356802 157.403829 
L 173.529963 159.207286 
L 173.573253 158.884413 
L 173.789704 155.421931 
L 173.876284 155.873036 
L 173.919574 155.986535 
L 173.962864 155.828068 
L 174.049445 155.341835 
L 174.092735 155.642024 
L 174.287541 160.550809 
L 174.374121 159.110009 
L 174.482346 156.58823 
L 174.525636 156.94948 
L 174.763732 164.325346 
L 174.850313 163.270941 
L 175.001828 161.377307 
L 175.045118 161.576909 
L 175.283214 163.659627 
L 175.326504 163.479566 
L 175.456375 161.544883 
L 175.60789 159.019858 
L 175.651181 159.169184 
L 175.802696 161.089838 
L 175.845986 160.765657 
L 176.019147 157.001878 
L 176.084082 157.58349 
L 176.213953 159.850312 
L 176.278888 159.382052 
L 176.365468 158.313537 
L 176.408758 158.498369 
L 176.603564 162.489744 
L 176.71179 161.729726 
L 176.733435 161.649067 
L 176.776725 161.858232 
L 176.92824 164.094765 
L 176.97153 163.690407 
L 177.707463 148.701535 
L 177.729108 148.738069 
L 177.880624 149.564576 
L 177.945559 149.310078 
L 178.010494 149.101977 
L 178.032139 149.180518 
L 178.11872 150.653491 
L 178.594911 161.52026 
L 178.854652 163.995422 
L 178.876297 163.98944 
L 179.006168 163.684882 
L 179.049458 163.847576 
L 179.179329 165.905426 
L 179.460715 169.937114 
L 179.48236 169.964872 
L 179.504005 169.918808 
L 179.590585 168.969054 
L 180.153357 160.736482 
L 180.304873 156.899837 
L 180.672839 147.232103 
L 180.867645 146.304346 
L 180.93258 146.521386 
L 181.040805 148.18667 
L 181.993189 169.574597 
L 182.058124 170.007 
L 182.101414 169.780501 
L 182.231285 166.466495 
L 182.42609 164.003243 
L 182.469381 163.910692 
L 182.555961 162.755118 
L 182.815702 157.026038 
L 182.880637 157.333931 
L 182.945572 157.722674 
L 182.988863 157.581161 
L 183.097088 155.118721 
L 183.226958 152.45538 
L 183.270249 152.880607 
L 183.421764 155.621603 
L 183.465054 155.114309 
L 183.638215 150.776132 
L 183.70315 151.240837 
L 183.833021 152.833752 
L 183.876311 152.679657 
L 183.962891 152.202472 
L 184.006181 152.396524 
L 184.720469 161.074888 
L 184.828694 160.682417 
L 184.871984 160.566853 
L 184.915275 160.737454 
L 185.045145 163.230817 
L 185.239951 165.42613 
L 185.304886 165.562814 
L 185.478047 166.873401 
L 185.542982 166.607282 
L 185.694497 165.358857 
L 185.759433 165.520988 
L 185.824368 165.730791 
L 185.867658 165.566937 
L 185.975883 163.525301 
L 186.322205 156.937265 
L 186.47372 153.915123 
L 186.51701 154.139622 
L 186.711816 157.834668 
L 186.798396 157.250258 
L 186.884977 156.689652 
L 186.928267 156.988876 
L 187.123073 159.685454 
L 187.188008 159.349329 
L 187.361169 157.824995 
L 187.426104 157.959016 
L 187.512684 158.160314 
L 187.555974 158.038467 
L 187.729135 157.039135 
L 187.79407 157.16139 
L 187.923941 157.55924 
L 187.967231 157.465237 
L 188.183682 156.482713 
L 188.270262 156.545275 
L 188.335197 156.383141 
L 188.486713 154.655225 
L 188.573293 154.029614 
L 188.616583 154.103685 
L 188.746454 154.741733 
L 188.811389 154.5874 
L 188.876324 154.371769 
L 188.919614 154.53405 
L 189.02784 156.657811 
L 189.504031 167.062049 
L 189.547322 167.343881 
L 189.590612 167.058442 
L 190.218319 158.075646 
L 190.304899 158.233254 
L 190.34819 158.260854 
L 190.369835 158.227998 
L 190.499705 157.547625 
L 190.737801 156.636596 
L 190.802736 156.799767 
L 191.062477 158.959643 
L 191.213993 161.380981 
L 191.387153 163.816197 
L 191.408798 163.767433 
L 191.690184 161.844873 
L 191.88499 158.754761 
L 192.036506 157.4487 
L 192.058151 157.490641 
L 192.166376 157.755342 
L 192.188021 157.700764 
L 192.382827 156.237902 
L 192.469407 156.591587 
L 192.555988 157.039707 
L 192.599278 156.938608 
L 192.729148 155.302177 
L 193.032179 152.288534 
L 193.140405 151.687763 
L 193.183695 151.852507 
L 193.29192 153.860554 
L 193.811402 166.144853 
L 193.876337 166.314818 
L 193.919628 166.263257 
L 194.027853 165.815791 
L 194.157723 164.085182 
L 194.395819 161.304992 
L 194.4824 160.994251 
L 194.720496 158.45359 
L 194.828721 158.71134 
L 194.872011 158.662152 
L 194.980236 157.618108 
L 195.131752 156.380634 
L 195.153397 156.455607 
L 195.304913 158.217623 
L 195.369848 158.655965 
L 195.434783 158.403183 
L 195.759459 155.350263 
L 195.824395 155.48747 
L 196.300586 158.890916 
L 196.495392 161.042195 
L 196.517037 161.019851 
L 196.711843 160.885688 
L 196.798423 160.756739 
L 197.25297 158.898083 
L 197.38284 158.222138 
L 197.42613 158.353971 
L 197.642581 159.674987 
L 197.707516 159.507226 
L 197.859032 158.948947 
L 197.902322 159.028044 
L 198.032193 160.185775 
L 198.183708 161.293174 
L 198.226998 161.22782 
L 198.313579 161.077171 
L 198.335224 161.124023 
L 198.443449 162.059137 
L 198.57332 163.067683 
L 198.61661 162.868657 
L 198.74648 160.631922 
L 199.222672 152.236053 
L 199.287607 151.866086 
L 199.330897 151.956974 
L 199.568993 153.852532 
L 199.807089 157.391181 
L 200.326571 164.331042 
L 200.369861 164.355295 
L 200.413151 164.263983 
L 200.759473 162.688901 
L 201.105794 158.530812 
L 201.235664 158.589552 
L 201.34389 157.748649 
L 201.51705 156.62495 
L 201.538696 156.642434 
L 201.625276 156.686969 
L 201.646921 156.640131 
L 201.863372 155.658123 
L 201.949952 155.947227 
L 202.274628 157.271635 
L 202.404499 158.132165 
L 202.599304 159.34447 
L 202.62095 159.323717 
L 202.75082 159.11877 
L 202.772465 159.157498 
L 202.88069 159.908866 
L 203.097141 161.835115 
L 203.140431 161.769008 
L 203.465108 160.010116 
L 203.638268 158.788616 
L 203.681558 158.859363 
L 203.811429 159.196098 
L 203.854719 159.091195 
L 203.962944 158.760664 
L 204.006235 158.846731 
L 204.15775 160.110277 
L 204.417491 161.631479 
L 204.482426 161.400128 
L 204.655587 159.509818 
L 204.915328 157.505319 
L 205.110134 156.904595 
L 205.175069 157.084436 
L 205.456455 158.582976 
L 205.499745 158.52415 
L 205.629616 157.885037 
L 205.867711 156.909241 
L 205.954292 157.051316 
L 206.192388 158.164849 
L 206.300613 157.949269 
L 206.343903 157.921091 
L 206.365548 157.962617 
L 206.495419 158.867303 
L 206.820095 160.589782 
L 206.88503 160.666101 
L 206.92832 160.600356 
L 207.014901 160.477329 
L 207.058191 160.530129 
L 207.166416 160.765025 
L 207.209706 160.681408 
L 207.339577 159.526196 
L 207.642608 157.26617 
L 207.707543 157.211774 
L 207.729188 157.25042 
L 207.837414 157.856912 
L 208.270315 161.298001 
L 208.313605 161.236537 
L 208.508411 160.763017 
L 208.551701 160.815394 
L 208.659927 160.954292 
L 208.703217 160.883658 
L 208.833087 160.120612 
L 209.114473 157.91132 
L 209.157763 158.009307 
L 209.265989 158.409548 
L 209.309279 158.323651 
L 209.52573 156.491108 
L 209.633955 156.988608 
L 209.742181 157.450905 
L 209.785471 157.296888 
L 209.936986 156.264132 
L 210.001922 156.478758 
L 210.543049 160.529146 
L 210.672919 160.270248 
L 210.716209 160.3848 
L 210.84608 161.007528 
L 210.88937 160.888267 
L 211.300626 157.296577 
L 211.495432 155.608168 
L 211.517077 155.628838 
L 211.646948 156.168841 
L 211.798463 157.78243 
L 212.231365 163.785251 
L 212.33959 163.977625 
L 212.38288 163.911526 
L 212.491106 162.977417 
L 213.010588 155.87127 
L 213.053878 155.953171 
L 213.227038 157.347937 
L 213.421844 158.017922 
L 213.70323 158.408533 
L 213.768165 158.360971 
L 214.027906 158.304176 
L 214.179422 158.693294 
L 214.266002 158.829057 
L 214.309292 158.792564 
L 214.439163 158.600413 
L 214.482453 158.676789 
L 215.15345 161.447642 
L 215.240031 161.234376 
L 215.456482 159.671496 
L 215.824448 157.383376 
L 215.975963 157.033466 
L 215.997609 157.047272 
L 216.25735 157.415342 
L 216.322285 157.343261 
L 216.452155 157.293376 
L 216.4738 157.32283 
L 216.646961 157.876367 
L 217.166443 160.138234 
L 217.253023 159.906767 
L 217.404539 159.629477 
L 217.426184 159.636569 
L 217.491119 159.580736 
L 217.599344 158.88799 
L 217.772505 157.694944 
L 217.815795 157.831806 
L 217.988956 159.658081 
L 218.227052 161.244805 
L 218.291987 161.267874 
L 218.313632 161.23894 
L 218.443503 161.016434 
L 218.486793 161.072884 
L 218.724889 161.912811 
L 218.811469 161.796616 
L 219.006275 161.197614 
L 219.20108 159.593214 
L 219.850433 152.82761 
L 219.915368 152.572362 
L 219.958658 152.635545 
L 220.066883 153.575285 
L 220.824461 161.649637 
L 221.322298 164.680574 
L 221.387233 164.563016 
L 221.625329 163.063793 
L 222.144811 158.093155 
L 222.231391 158.551789 
L 222.339617 159.013476 
L 222.382907 158.888033 
L 222.988969 155.052447 
L 223.183775 153.88947 
L 223.20542 153.907719 
L 223.292 154.333982 
L 223.681612 158.372962 
L 223.962998 160.946667 
L 224.201094 162.387744 
L 224.244384 162.292075 
L 224.52577 161.273182 
L 224.590705 161.340869 
L 224.785511 161.625647 
L 224.828801 161.58079 
L 225.088542 161.076542 
L 225.283348 159.360452 
L 225.586379 157.463294 
L 225.911055 156.36802 
L 225.97599 156.493125 
L 226.149151 157.711545 
L 226.235731 158.052746 
L 226.279021 157.986624 
L 226.538762 157.016165 
L 226.603697 157.073044 
L 226.798503 157.436633 
L 227.16647 159.425721 
L 227.38292 160.450157 
L 227.404565 160.441613 
L 227.491146 160.184244 
L 228.292014 156.36277 
L 228.335304 156.454524 
L 228.465174 157.467676 
L 228.898076 160.899535 
L 229.114527 161.694356 
L 229.547428 162.366297 
L 229.612363 162.266076 
L 230.02362 160.758164 
L 230.348296 157.542154 
L 230.608037 155.685354 
L 230.781198 155.16185 
L 230.824488 155.281259 
L 231.322325 158.70461 
L 231.950032 163.977623 
L 232.188128 164.866558 
L 232.231418 164.828168 
L 232.361289 164.223132 
L 232.577739 162.094214 
L 232.815835 156.766337 
L 233.183802 149.419006 
L 233.270382 149.194876 
L 233.313672 149.229691 
L 233.508478 149.746999 
L 233.703283 151.0289 
L 233.963024 154.682964 
L 234.634022 165.38214 
L 234.893763 166.179413 
L 234.958698 166.092121 
L 235.066923 165.287209 
L 235.586405 160.024403 
L 235.716276 159.702562 
L 235.737921 159.717442 
L 235.976017 160.168347 
L 236.322338 160.673252 
L 236.343983 160.662426 
L 236.430563 160.385734 
L 236.690304 158.205198 
L 237.166496 153.804781 
L 237.231431 153.883914 
L 237.382947 154.432643 
L 237.599398 156.230688 
L 238.24875 162.382148 
L 238.465201 162.927527 
L 238.638362 162.831133 
L 238.746587 162.300468 
L 238.941393 159.678579 
L 239.222779 155.989463 
L 239.244424 156.008517 
L 239.374294 156.548481 
L 239.590745 158.340852 
L 239.720616 158.967296 
L 239.763906 158.938492 
L 239.915421 158.792433 
L 239.958711 158.831691 
L 240.175162 158.924582 
L 240.456548 159.039376 
L 240.564774 159.745458 
L 240.867805 161.874513 
L 240.97603 162.029365 
L 240.997675 161.993646 
L 241.084256 161.386534 
L 241.322351 157.015909 
L 241.690318 151.841292 
L 241.928414 150.802373 
L 241.993349 150.891821 
L 242.101574 151.675719 
L 242.361315 156.344151 
L 242.664346 164.404315 
L 242.989023 171.38204 
L 243.118893 172.233213 
L 243.162183 172.132571 
L 243.270409 170.949561 
L 243.941406 157.757784 
L 244.504178 140.47366 
L 244.590758 140.147185 
L 244.634049 140.265814 
L 244.742274 141.434687 
L 244.915435 146.696151 
L 245.651367 171.675479 
L 246.170849 183.981493 
L 246.192494 184.035989 
L 246.235784 183.921283 
L 246.34401 182.302839 
L 246.603751 173.122821 
L 247.815875 130.021341 
L 247.945746 129.2168 
L 247.967391 129.257126 
L 248.075616 130.135362 
L 248.270422 134.390213 
L 248.638388 149.253717 
L 249.525837 186.073428 
L 249.677352 188.015344 
L 249.720642 187.847808 
L 249.893803 185.194661 
L 250.261769 178.06274 
L 251.473894 142.746642 
L 251.603764 142.318098 
L 251.776925 141.537477 
L 251.820215 141.582095 
L 252.015021 142.552006 
L 252.274762 144.09299 
L 252.491212 147.072896 
L 253.595111 167.964108 
L 253.984723 170.282847 
L 254.071303 169.985624 
L 254.893816 164.883277 
L 255.088622 164.117486 
L 255.608104 160.069048 
L 255.8462 155.963329 
L 256.149231 152.910581 
L 256.517197 150.129065 
L 256.582132 150.305773 
L 256.798583 151.46335 
L 256.863518 151.376984 
L 256.928454 151.282714 
L 256.971744 151.339157 
L 257.079969 152.169879 
L 257.447936 155.394769 
L 257.945772 158.650206 
L 258.854866 167.801483 
L 258.919801 167.511712 
L 259.222832 165.643979 
L 259.287767 165.396125 
L 259.417638 163.382241 
L 259.699024 159.530943 
L 259.785604 159.284923 
L 259.915475 157.793638 
L 260.240151 154.147745 
L 260.586472 152.567435 
L 260.608117 152.58337 
L 260.694697 153.005785 
L 261.170889 157.982633 
L 261.408985 160.533277 
L 261.560501 161.546652 
L 261.776951 163.439198 
L 261.820242 163.29155 
L 262.556174 158.465661 
L 262.599464 158.500237 
L 262.70769 158.564786 
L 262.729335 158.53961 
L 262.83756 158.141857 
L 263.075656 156.942947 
L 263.118946 156.973617 
L 263.270462 157.257071 
L 263.313752 157.203441 
L 263.508558 156.658182 
L 263.551848 156.749645 
L 263.703363 157.902731 
L 264.092975 160.591541 
L 264.24449 161.129687 
L 264.266136 161.118429 
L 264.807263 160.21963 
L 265.067003 159.794875 
L 265.240164 160.017152 
L 265.326744 160.079582 
L 265.370035 160.030002 
L 265.52155 159.448564 
L 265.716356 159.042419 
L 265.846226 158.975752 
L 266.322418 158.201715 
L 266.452289 158.514911 
L 266.495579 158.578721 
L 266.538869 158.512203 
L 266.647094 157.672439 
L 266.92848 155.759641 
L 267.231511 154.520325 
L 267.296447 154.671513 
L 267.447962 155.942115 
L 268.227185 163.489011 
L 268.270475 163.562771 
L 268.313765 163.465091 
L 268.508571 162.684106 
L 268.573506 162.761106 
L 268.638442 162.801104 
L 268.660087 162.769367 
L 268.768312 162.195865 
L 269.52589 157.007273 
L 269.65576 156.836262 
L 269.69905 156.869253 
L 269.828921 157.237396 
L 270.023727 158.61524 
L 270.261823 159.774888 
L 270.413338 160.200513 
L 270.564854 160.583888 
L 270.586499 160.55275 
L 270.738014 159.869213 
L 271.560527 156.294822 
L 271.647108 156.251654 
L 271.668753 156.279646 
L 271.863558 156.902772 
L 272.25317 158.668518 
L 272.512911 159.706264 
L 273.010748 159.900444 
L 273.140618 160.14345 
L 273.183908 160.091916 
L 273.400359 159.395146 
L 273.486939 159.568995 
L 273.638455 159.947142 
L 273.681745 159.905896 
L 274.136292 158.851161 
L 274.439323 157.670852 
L 274.482613 157.696431 
L 274.634129 158.126439 
L 274.828934 159.449461 
L 275.15361 161.278632 
L 275.413351 162.151361 
L 275.434997 162.13763 
L 275.543222 161.812546 
L 275.824608 159.914422 
L 276.170929 157.877462 
L 276.712056 155.49083 
L 276.993442 155.160591 
L 277.080023 155.400413 
L 278.357082 162.069579 
L 278.508598 162.147779 
L 278.746694 162.696447 
L 278.789984 162.644338 
L 278.941499 162.14137 
L 279.24453 160.081143 
L 279.764012 156.945462 
L 279.850593 156.789087 
L 280.088689 156.131681 
L 280.131979 156.184651 
L 280.305139 156.842092 
L 280.52159 157.272365 
L 280.629816 157.496146 
L 281.192588 159.173553 
L 281.365748 159.635742 
L 281.538909 160.012139 
L 281.560554 159.994243 
L 281.84194 159.609833 
L 281.906875 159.65722 
L 282.036746 159.621009 
L 282.144971 159.594993 
L 282.166616 159.625388 
L 282.361422 160.278306 
L 282.751033 161.411447 
L 282.794323 161.36878 
L 282.945839 160.882685 
L 283.183935 159.287552 
L 283.508611 157.405286 
L 283.876577 156.338473 
L 283.919868 156.36291 
L 284.43935 157.06544 
L 284.915541 160.142523 
L 285.196927 161.710539 
L 285.348443 162.210901 
L 285.391733 162.159675 
L 285.543249 161.360605 
L 286.235891 157.638737 
L 286.365762 157.59889 
L 286.668793 157.863712 
L 287.015114 158.85757 
L 287.101694 158.987202 
L 287.38308 160.008422 
L 287.469661 159.908359 
L 288.227238 158.804065 
L 288.465334 158.621511 
L 288.70343 158.083356 
L 288.919881 157.720623 
L 289.071397 157.679774 
L 289.179622 157.622483 
L 289.201267 157.647562 
L 289.352783 158.167632 
L 289.482653 158.393453 
L 289.504298 158.373937 
L 289.764039 158.170857 
L 289.915555 158.136097 
L 290.002135 158.165284 
L 290.11036 158.63052 
L 290.694777 161.799487 
L 290.954518 162.339888 
L 290.997809 162.288403 
L 291.149324 161.649401 
L 291.452355 159.465737 
L 291.733741 157.773984 
L 292.015127 157.464474 
L 292.036772 157.488273 
L 292.209933 157.678779 
L 292.253223 157.624042 
L 292.772705 156.81459 
L 292.902576 156.944029 
L 293.032446 157.494477 
L 293.551928 160.406425 
L 293.616863 160.453249 
L 293.660153 160.400127 
L 293.833314 159.696188 
L 294.222925 158.169638 
L 294.24457 158.176698 
L 294.439376 158.371542 
L 294.590892 159.136634 
L 294.893923 160.51356 
L 295.002148 160.457119 
L 295.132019 160.081422 
L 295.651501 157.499095 
L 295.738081 157.673047 
L 296.582239 160.59474 
L 296.668819 160.705993 
L 296.71211 160.659581 
L 297.274882 159.11073 
L 297.945879 157.140115 
L 298.20562 156.563479 
L 298.24891 156.603171 
L 298.400426 157.081226 
L 299.158004 160.473164 
L 299.179649 160.461775 
L 299.309519 160.175519 
L 299.915581 158.168495 
L 299.958871 158.206791 
L 300.088742 158.659181 
L 300.759739 161.383114 
L 300.88961 161.354015 
L 301.127706 160.946066 
L 301.322511 159.970579 
L 302.058444 154.96786 
L 302.145024 155.094812 
L 302.534636 156.488372 
L 303.443729 161.515602 
L 303.79005 162.396786 
L 303.898276 162.34654 
L 304.071437 161.743981 
L 305.045465 156.915556 
L 305.132045 156.978397 
L 305.435077 157.455094 
L 305.738108 157.98479 
L 306.106074 158.332456 
L 306.538976 159.055732 
L 306.820362 159.402856 
L 307.209973 159.442966 
L 307.534649 159.135176 
L 307.686165 159.100237 
L 307.83768 159.048627 
L 307.859325 159.081048 
L 308.010841 159.630148 
L 308.595258 161.970368 
L 308.616903 161.949064 
L 308.768419 161.491965 
L 308.98487 160.080363 
L 309.785737 153.831405 
L 309.850673 153.749841 
L 309.893963 153.790897 
L 310.023833 154.313121 
L 310.370155 157.111634 
L 311.214313 163.571776 
L 311.452409 164.049125 
L 311.560634 163.812688 
L 311.75544 162.57445 
L 312.556308 157.002647 
L 312.859339 156.506983 
L 313.032499 156.108536 
L 313.313885 155.565404 
L 313.487046 155.462915 
L 313.508691 155.492966 
L 313.638562 155.989596 
L 313.941593 158.302054 
L 314.461075 162.71717 
L 314.677525 163.285914 
L 314.764106 163.204919 
L 314.893976 162.648208 
L 315.218652 159.837388 
L 315.694844 156.222696 
L 315.93294 155.746208 
L 316.041165 155.922142 
L 316.257616 156.923121 
L 316.928614 160.285587 
L 317.123419 160.469889 
L 317.145064 160.454517 
L 317.945932 159.660846 
L 317.989223 159.710637 
L 318.184028 159.808273 
L 318.465414 159.535995 
L 319.006541 158.233474 
L 319.158057 158.296502 
L 319.526023 158.470939 
L 319.872344 158.11882 
L 320.11044 157.187219 
L 320.500052 156.004737 
L 320.586632 156.136444 
L 320.738148 156.86776 
L 320.976244 159.533385 
L 321.3875 163.336969 
L 321.51737 163.533866 
L 321.539016 163.51309 
L 321.647241 163.168496 
L 321.928627 161.019966 
L 322.426464 157.759065 
L 322.577979 157.585625 
L 322.599624 157.594691 
L 322.902656 157.890524 
L 323.205687 158.347611 
L 323.227332 158.336138 
L 323.378847 158.055992 
L 323.768459 157.412163 
L 323.876684 157.434097 
L 324.0282 157.866688 
L 324.396166 159.923839 
L 324.655907 160.971081 
L 324.850713 161.07646 
L 324.872358 161.057119 
L 325.002228 160.700622 
L 325.738161 157.970262 
L 326.084482 157.778341 
L 326.452449 158.027216 
L 326.733835 158.978241 
L 327.145091 160.142516 
L 327.274962 160.069434 
L 328.140765 158.610525 
L 328.508731 157.676374 
L 328.811762 156.935271 
L 328.941633 156.950327 
L 329.071503 157.404109 
L 329.56934 160.77473 
L 329.829081 161.6385 
L 329.937306 161.611573 
L 330.110467 161.17586 
L 330.88969 158.675594 
L 331.236011 158.608597 
L 331.409172 158.49754 
L 331.603977 158.439534 
L 332.16675 158.653336 
L 332.404845 158.176007 
L 332.967617 156.434029 
L 332.989263 156.451572 
L 333.097488 156.740186 
L 333.335584 158.293794 
L 333.79013 161.018555 
L 333.920001 161.150593 
L 333.941646 161.138078 
L 335.11048 160.242537 
L 335.456802 160.044453 
L 335.673252 159.622136 
L 336.214379 157.342315 
L 336.560701 156.331364 
L 336.885377 155.892417 
L 337.058537 155.93698 
L 337.274988 156.295592 
L 337.491439 157.071746 
L 338.487113 161.60258 
L 338.725209 161.956793 
L 338.746854 161.935481 
L 338.898369 161.494385 
L 339.439496 159.745744 
L 339.829108 159.121137 
L 340.370235 157.748087 
L 340.500105 157.964209 
L 340.781491 159.169876 
L 341.149457 160.496673 
L 341.257683 160.480486 
L 341.430844 160.037538 
L 341.820455 158.429782 
L 342.231711 157.326398 
L 342.426517 157.220948 
L 342.621323 157.412558 
L 343.595351 159.09758 
L 343.963318 160.023714 
L 343.984963 160.016805 
L 344.136478 159.771551 
L 344.69925 158.414535 
L 344.764186 158.48294 
L 345.716569 160.009476 
L 346.06289 159.821501 
L 346.647308 159.263064 
L 347.29666 157.550863 
L 347.361595 157.605023 
L 347.578046 158.127112 
L 348.249044 159.808982 
L 348.400559 159.756374 
L 349.266362 158.377396 
L 349.807489 157.152737 
L 349.915715 157.308184 
L 350.11052 158.134176 
L 350.781518 161.545897 
L 350.889743 161.486477 
L 351.062904 161.002684 
L 351.842127 158.178396 
L 352.101868 158.41153 
L 352.404899 158.559802 
L 352.599704 158.613054 
L 352.816155 159.07822 
L 353.184122 159.762626 
L 353.292347 159.601908 
L 353.530443 158.543492 
L 354.07157 156.068315 
L 354.179795 156.13923 
L 354.352956 156.783204 
L 354.699277 159.218994 
L 355.088889 161.293379 
L 355.34863 161.718433 
L 355.4785 161.655547 
L 355.630016 161.248291 
L 355.889757 159.633454 
L 356.279368 157.585074 
L 356.517464 157.308352 
L 356.647334 157.437294 
L 356.907075 158.214049 
L 357.707943 160.871989 
L 357.902749 160.973497 
L 358.1192 160.875623 
L 358.29236 160.394252 
L 358.703617 158.283096 
L 359.201454 156.140502 
L 359.396259 155.925975 
L 359.52613 156.099667 
L 359.785871 156.90403 
L 360.694964 160.986889 
L 360.88977 160.965788 
L 361.106221 160.711074 
L 361.798863 159.294846 
L 362.16683 158.539396 
L 362.664666 158.054096 
L 362.837827 158.122343 
L 363.314019 158.430867 
L 363.595405 158.040205 
L 363.79021 157.895742 
L 364.223112 158.064282 
L 364.482853 157.892904 
L 364.612724 158.203803 
L 364.959045 160.054309 
L 365.413591 162.184587 
L 365.608397 162.608661 
L 365.630042 162.597275 
L 365.738268 162.314329 
L 366.019654 160.619713 
L 366.365975 159.015562 
L 367.101908 156.650474 
L 367.318358 156.394103 
L 367.448229 156.61502 
L 367.967711 158.488245 
L 368.400612 159.900849 
L 368.768579 160.127512 
L 368.920094 159.905264 
L 369.15819 158.96332 
L 369.699317 156.959593 
L 369.807543 156.996999 
L 370.283734 157.850355 
L 371.344343 161.304197 
L 371.669019 161.749088 
L 372.036986 161.420484 
L 372.188501 160.858109 
L 372.664693 157.618695 
L 372.946079 156.450532 
L 373.032659 156.519146 
L 373.227465 157.146177 
L 374.071623 160.250136 
L 374.179849 160.187848 
L 374.331364 159.737979 
L 375.110587 156.791798 
L 375.218812 156.888914 
L 375.456908 157.565431 
L 375.97639 159.180513 
L 376.084616 159.034052 
L 376.257776 158.207854 
L 376.669033 156.165626 
L 376.777258 156.035064 
L 376.820548 156.084783 
L 376.950419 156.636929 
L 377.29674 159.597791 
L 377.837867 164.299497 
L 377.946092 164.474596 
L 377.989383 164.449661 
L 378.119253 164.158193 
L 378.292414 163.159526 
L 379.114927 157.173792 
L 379.244797 157.081525 
L 379.266442 157.096939 
L 379.417958 157.399777 
L 379.98073 158.687066 
L 380.197181 158.577594 
L 380.478567 158.440787 
L 380.889823 158.827565 
L 381.106274 158.948846 
L 381.322725 158.657041 
L 381.539176 158.011048 
L 382.015367 156.558127 
L 382.253463 156.401839 
L 382.643075 156.476264 
L 382.816235 156.737219 
L 383.032686 157.485386 
L 383.422297 160.074952 
L 384.20152 165.667532 
L 384.288101 165.536595 
L 384.461261 164.634778 
L 384.850873 161.00327 
L 385.695031 152.653659 
L 385.889837 152.243205 
L 385.976417 152.398084 
L 386.149577 153.373389 
L 386.474254 156.767049 
L 387.080316 162.983665 
L 387.383347 164.230759 
L 387.534863 164.290259 
L 387.664733 164.044065 
L 387.881184 162.979726 
L 388.29244 159.386026 
L 388.855212 155.078848 
L 389.093308 154.470853 
L 389.223179 154.500124 
L 389.396339 154.882235 
L 389.65608 156.144573 
L 390.630109 161.470848 
L 390.88985 161.766686 
L 391.063011 161.629002 
L 391.322751 161.076539 
L 392.513231 157.922219 
L 392.772972 157.894749 
L 393.097648 158.133248 
L 394.201547 159.14873 
L 394.677739 159.179493 
L 397.275148 158.972009 
L 398.487273 158.976 
L 398.487273 158.976 
" clip-path="url(#pf52cc001c6)" style="fill: none; stroke: #000000; stroke-width: 0.5; stroke-linecap: square"/>
   </g>
   <g id="patch_3">
    <path d="M 57.6 276.48 
L 414.72 276.48 
" style="fill: none; stroke: #000000; stroke-width: 0.8; stroke-linejoin: miter; stroke-linecap: square"/>
   </g>
   <g id="text_12">
    <g id="patch_4">
     <path d="M 62.5296 272.593932 
L 103.172191 272.593932 
L 103.172191 256.535254 
L 62.5296 256.535254 
L 62.5296 272.593932 
z
" style="fill: none"/>
    </g>
    <!-- II.BFO.Z -->
    <g transform="translate(66.528 266.863153) scale(0.0833 -0.0833)">
     <defs>
      <path id="DejaVuSans-49" d="M 628 4666 
L 1259 4666 
L 1259 0 
L 628 0 
L 628 4666 
z
" transform="scale(0.015625)"/>
      <path id="DejaVuSans-2e" d="M 684 794 
L 1344 794 
L 1344 0 
L 684 0 
L 684 794 
z
" transform="scale(0.015625)"/>
      <path id="DejaVuSans-42" d="M 1259 2228 
L 1259 519 
L 2272 519 
Q 2781 519 3026 730 
Q 3272 941 3272 1375 
Q 3272 1813 3026 2020 
Q 2781 2228 2272 2228 
L 1259 2228 
z
M 1259 4147 
L 1259 2741 
L 2194 2741 
Q 2656 2741 2882 2914 
Q 3109 3088 3109 3444 
Q 3109 3797 2882 3972 
Q 2656 4147 2194 4147 
L 1259 4147 
z
M 628 4666 
L 2241 4666 
Q 2963 4666 3353 4366 
Q 3744 4066 3744 3513 
Q 3744 3084 3544 2831 
Q 3344 2578 2956 2516 
Q 3422 2416 3680 2098 
Q 3938 1781 3938 1306 
Q 3938 681 3513 340 
Q 3088 0 2303 0 
L 628 0 
L 628 4666 
z
" transform="scale(0.015625)"/>
      <path id="DejaVuSans-46" d="M 628 4666 
L 3309 4666 
L 3309 4134 
L 1259 4134 
L 1259 2759 
L 3109 2759 
L 3109 2228 
L 1259 2228 
L 1259 0 
L 628 0 
L 628 4666 
z
" transform="scale(0.015625)"/>
      <path id="DejaVuSans-4f" d="M 2522 4238 
Q 1834 4238 1429 3725 
Q 1025 3213 1025 2328 
Q 1025 1447 1429 934 
Q 1834 422 2522 422 
Q 3209 422 3611 934 
Q 4013 1447 4013 2328 
Q 4013 3213 3611 3725 
Q 3209 4238 2522 4238 
z
M 2522 4750 
Q 3503 4750 4090 4092 
Q 4678 3434 4678 2328 
Q 4678 1225 4090 567 
Q 3503 -91 2522 -91 
Q 1538 -91 948 565 
Q 359 1222 359 2328 
Q 359 3434 948 4092 
Q 1538 4750 2522 4750 
z
" transform="scale(0.015625)"/>
      <path id="DejaVuSans-5a" d="M 359 4666 
L 4025 4666 
L 4025 4184 
L 1075 531 
L 4097 531 
L 4097 0 
L 288 0 
L 288 481 
L 3238 4134 
L 359 4134 
L 359 4666 
z
" transform="scale(0.015625)"/>
     </defs>
     <use xlink:href="#DejaVuSans-49"/>
     <use xlink:href="#DejaVuSans-49" x="29.492188"/>
     <use xlink:href="#DejaVuSans-2e" x="58.984375"/>
     <use xlink:href="#DejaVuSans-42" x="90.771484"/>
     <use xlink:href="#DejaVuSans-46" x="159.375"/>
     <use xlink:href="#DejaVuSans-4f" x="216.894531"/>
     <use xlink:href="#DejaVuSans-2e" x="291.605469"/>
     <use xlink:href="#DejaVuSans-5a" x="323.392578"/>
    </g>
   </g>
   <g id="text_13">
    <g id="patch_5">
     <path d="M 62.5296 61.684868 
L 161.247909 61.684868 
L 161.247909 45.358068 
L 62.5296 45.358068 
L 62.5296 61.684868 
z
" style="fill: none"/>
    </g>
    <!-- |A|max: 0.0014211 m -->
    <g transform="translate(66.528 55.72241) scale(0.0833 -0.0833)">
     <defs>
      <path id="DejaVuSans-7c" d="M 1344 4891 
L 1344 -1509 
L 813 -1509 
L 813 4891 
L 1344 4891 
z
" transform="scale(0.015625)"/>
      <path id="DejaVuSans-41" d="M 2188 4044 
L 1331 1722 
L 3047 1722 
L 2188 4044 
z
M 1831 4666 
L 2547 4666 
L 4325 0 
L 3669 0 
L 3244 1197 
L 1141 1197 
L 716 0 
L 50 0 
L 1831 4666 
z
" transform="scale(0.015625)"/>
      <path id="DejaVuSans-61" d="M 2194 1759 
Q 1497 1759 1228 1600 
Q 959 1441 959 1056 
Q 959 750 1161 570 
Q 1363 391 1709 391 
Q 2188 391 2477 730 
Q 2766 1069 2766 1631 
L 2766 1759 
L 2194 1759 
z
M 3341 1997 
L 3341 0 
L 2766 0 
L 2766 531 
Q 2569 213 2275 61 
Q 1981 -91 1556 -91 
Q 1019 -91 701 211 
Q 384 513 384 1019 
Q 384 1609 779 1909 
Q 1175 2209 1959 2209 
L 2766 2209 
L 2766 2266 
Q 2766 2663 2505 2880 
Q 2244 3097 1772 3097 
Q 1472 3097 1187 3025 
Q 903 2953 641 2809 
L 641 3341 
Q 956 3463 1253 3523 
Q 1550 3584 1831 3584 
Q 2591 3584 2966 3190 
Q 3341 2797 3341 1997 
z
" transform="scale(0.015625)"/>
      <path id="DejaVuSans-78" d="M 3513 3500 
L 2247 1797 
L 3578 0 
L 2900 0 
L 1881 1375 
L 863 0 
L 184 0 
L 1544 1831 
L 300 3500 
L 978 3500 
L 1906 2253 
L 2834 3500 
L 3513 3500 
z
" transform="scale(0.015625)"/>
      <path id="DejaVuSans-20" transform="scale(0.015625)"/>
      <path id="DejaVuSans-34" d="M 2419 4116 
L 825 1625 
L 2419 1625 
L 2419 4116 
z
M 2253 4666 
L 3047 4666 
L 3047 1625 
L 3713 1625 
L 3713 1100 
L 3047 1100 
L 3047 0 
L 2419 0 
L 2419 1100 
L 313 1100 
L 313 1709 
L 2253 4666 
z
" transform="scale(0.015625)"/>
     </defs>
     <use xlink:href="#DejaVuSans-7c"/>
     <use xlink:href="#DejaVuSans-41" x="33.691406"/>
     <use xlink:href="#DejaVuSans-7c" x="102.099609"/>
     <use xlink:href="#DejaVuSans-6d" x="135.791016"/>
     <use xlink:href="#DejaVuSans-61" x="233.203125"/>
     <use xlink:href="#DejaVuSans-78" x="294.482422"/>
     <use xlink:href="#DejaVuSans-3a" x="353.662109"/>
     <use xlink:href="#DejaVuSans-20" x="387.353516"/>
     <use xlink:href="#DejaVuSans-30" x="419.140625"/>
     <use xlink:href="#DejaVuSans-2e" x="482.763672"/>
     <use xlink:href="#DejaVuSans-30" x="514.550781"/>
     <use xlink:href="#DejaVuSans-30" x="578.173828"/>
     <use xlink:href="#DejaVuSans-31" x="641.796875"/>
     <use xlink:href="#DejaVuSans-34" x="705.419922"/>
     <use xlink:href="#DejaVuSans-32" x="769.042969"/>
     <use xlink:href="#DejaVuSans-31" x="832.666016"/>
     <use xlink:href="#DejaVuSans-31" x="896.289062"/>
     <use xlink:href="#DejaVuSans-20" x="959.912109"/>
     <use xlink:href="#DejaVuSans-6d" x="991.699219"/>
    </g>
   </g>
   <g id="legend_1">
    <g id="line2d_11">
     <path d="M 329.605938 54.570437 
L 339.605938 54.570437 
L 349.605938 54.570437 
" style="fill: none; stroke: #000000; stroke-width: 0.5; stroke-linecap: square"/>
    </g>
    <g id="text_14">
     <!-- Observed -->
     <g transform="translate(357.605938 58.070437) scale(0.1 -0.1)">
      <defs>
       <path id="DejaVuSans-62" d="M 3116 1747 
Q 3116 2381 2855 2742 
Q 2594 3103 2138 3103 
Q 1681 3103 1420 2742 
Q 1159 2381 1159 1747 
Q 1159 1113 1420 752 
Q 1681 391 2138 391 
Q 2594 391 2855 752 
Q 3116 1113 3116 1747 
z
M 1159 2969 
Q 1341 3281 1617 3432 
Q 1894 3584 2278 3584 
Q 2916 3584 3314 3078 
Q 3713 2572 3713 1747 
Q 3713 922 3314 415 
Q 2916 -91 2278 -91 
Q 1894 -91 1617 61 
Q 1341 213 1159 525 
L 1159 0 
L 581 0 
L 581 4863 
L 1159 4863 
L 1159 2969 
z
" transform="scale(0.015625)"/>
       <path id="DejaVuSans-73" d="M 2834 3397 
L 2834 2853 
Q 2591 2978 2328 3040 
Q 2066 3103 1784 3103 
Q 1356 3103 1142 2972 
Q 928 2841 928 2578 
Q 928 2378 1081 2264 
Q 1234 2150 1697 2047 
L 1894 2003 
Q 2506 1872 2764 1633 
Q 3022 1394 3022 966 
Q 3022 478 2636 193 
Q 2250 -91 1575 -91 
Q 1294 -91 989 -36 
Q 684 19 347 128 
L 347 722 
Q 666 556 975 473 
Q 1284 391 1588 391 
Q 1994 391 2212 530 
Q 2431 669 2431 922 
Q 2431 1156 2273 1281 
Q 2116 1406 1581 1522 
L 1381 1569 
Q 847 1681 609 1914 
Q 372 2147 372 2553 
Q 372 3047 722 3315 
Q 1072 3584 1716 3584 
Q 2034 3584 2315 3537 
Q 2597 3491 2834 3397 
z
" transform="scale(0.015625)"/>
       <path id="DejaVuSans-72" d="M 2631 2963 
Q 2534 3019 2420 3045 
Q 2306 3072 2169 3072 
Q 1681 3072 1420 2755 
Q 1159 2438 1159 1844 
L 1159 0 
L 581 0 
L 581 3500 
L 1159 3500 
L 1159 2956 
Q 1341 3275 1631 3429 
Q 1922 3584 2338 3584 
Q 2397 3584 2469 3576 
Q 2541 3569 2628 3553 
L 2631 2963 
z
" transform="scale(0.015625)"/>
       <path id="DejaVuSans-76" d="M 191 3500 
L 800 3500 
L 1894 563 
L 2988 3500 
L 3597 3500 
L 2284 0 
L 1503 0 
L 191 3500 
z
" transform="scale(0.015625)"/>
       <path id="DejaVuSans-64" d="M 2906 2969 
L 2906 4863 
L 3481 4863 
L 3481 0 
L 2906 0 
L 2906 525 
Q 2725 213 2448 61 
Q 2172 -91 1784 -91 
Q 1150 -91 751 415 
Q 353 922 353 1747 
Q 353 2572 751 3078 
Q 1150 3584 1784 3584 
Q 2172 3584 2448 3432 
Q 2725 3281 2906 2969 
z
M 947 1747 
Q 947 1113 1208 752 
Q 1469 391 1925 391 
Q 2381 391 2643 752 
Q 2906 1113 2906 1747 
Q 2906 2381 2643 2742 
Q 2381 3103 1925 3103 
Q 1469 3103 1208 2742 
Q 947 2381 947 1747 
z
" transform="scale(0.015625)"/>
      </defs>
      <use xlink:href="#DejaVuSans-4f"/>
      <use xlink:href="#DejaVuSans-62" x="78.710938"/>
      <use xlink:href="#DejaVuSans-73" x="142.1875"/>
      <use xlink:href="#DejaVuSans-65" x="194.287109"/>
      <use xlink:href="#DejaVuSans-72" x="255.810547"/>
      <use xlink:href="#DejaVuSans-76" x="296.923828"/>
      <use xlink:href="#DejaVuSans-65" x="356.103516"/>
      <use xlink:href="#DejaVuSans-64" x="417.626953"/>
     </g>
    </g>
   </g>
  </g>
 </g>
 <defs>
  <clipPath id="pf52cc001c6">
   <rect x="57.6" y="41.472" width="357.12" height="235.008"/>
  </clipPath>
 </defs>
</svg>
