<?xml version="1.0" encoding="utf-8" standalone="no"?>
<!DOCTYPE svg PUBLIC "-//W3C//DTD SVG 1.1//EN"
  "http://www.w3.org/Graphics/SVG/1.1/DTD/svg11.dtd">
<svg xmlns:xlink="http://www.w3.org/1999/xlink" width="576pt" height="432pt" viewBox="0 0 576 432" xmlns="http://www.w3.org/2000/svg" version="1.1">
 <metadata>
  <rdf:RDF xmlns:dc="http://purl.org/dc/elements/1.1/" xmlns:cc="http://creativecommons.org/ns#" xmlns:rdf="http://www.w3.org/1999/02/22-rdf-syntax-ns#">
   <cc:Work>
    <dc:type rdf:resource="http://purl.org/dc/dcmitype/StillImage"/>
    <dc:date>2023-09-01T15:44:14.053968</dc:date>
    <dc:format>image/svg+xml</dc:format>
    <dc:creator>
     <cc:Agent>
      <dc:title>Matplotlib v3.7.2, https://matplotlib.org/</dc:title>
     </cc:Agent>
    </dc:creator>
   </cc:Work>
  </rdf:RDF>
 </metadata>
 <defs>
  <style type="text/css">*{stroke-linejoin: round; stroke-linecap: butt}</style>
 </defs>
 <g id="figure_1">
  <g id="patch_1">
   <path d="M 0 432 
L 576 432 
L 576 0 
L 0 0 
z
" style="fill: #ffffff"/>
  </g>
  <g id="axes_1">
   <g id="patch_2">
    <path d="M 86.4 388.8 
L 489.6 388.8 
L 489.6 21.6 
L 86.4 21.6 
z
" style="fill: #ffffff"/>
   </g>
   <g id="axes_2">
    <g id="patch_3">
     <path d="M 489.6 388.8 
L 489.6 388.8 
L 489.6 21.6 
L 489.6 21.6 
z
" style="fill: #ffffff"/>
    </g>
    <g id="matplotlib.axis_1"/>
    <g id="matplotlib.axis_2">
     <g id="ytick_1">
      <g id="text_1">
       <!-- O: 0.0001654 -->
       <g transform="translate(496.6 337.120686) scale(0.0833 -0.0833)">
        <defs>
         <path id="DejaVuSansMono-4f" d="M 2828 2328 
Q 2828 3356 2617 3797 
Q 2406 4238 1925 4238 
Q 1447 4238 1236 3797 
Q 1025 3356 1025 2328 
Q 1025 1303 1236 862 
Q 1447 422 1925 422 
Q 2406 422 2617 861 
Q 2828 1300 2828 2328 
z
M 3488 2328 
Q 3488 1109 3102 509 
Q 2716 -91 1925 -91 
Q 1134 -91 750 506 
Q 366 1103 366 2328 
Q 366 3550 752 4150 
Q 1138 4750 1925 4750 
Q 2716 4750 3102 4150 
Q 3488 3550 3488 2328 
z
" transform="scale(0.015625)"/>
         <path id="DejaVuSansMono-3a" d="M 1528 3322 
L 2316 3322 
L 2316 2375 
L 1528 2375 
L 1528 3322 
z
M 1528 953 
L 2316 953 
L 2316 0 
L 1528 0 
L 1528 953 
z
" transform="scale(0.015625)"/>
         <path id="DejaVuSansMono-20" transform="scale(0.015625)"/>
         <path id="DejaVuSansMono-30" d="M 1509 2344 
Q 1509 2516 1629 2641 
Q 1750 2766 1919 2766 
Q 2094 2766 2219 2641 
Q 2344 2516 2344 2344 
Q 2344 2169 2220 2047 
Q 2097 1925 1919 1925 
Q 1744 1925 1626 2044 
Q 1509 2163 1509 2344 
z
M 1925 4250 
Q 1484 4250 1267 3775 
Q 1050 3300 1050 2328 
Q 1050 1359 1267 884 
Q 1484 409 1925 409 
Q 2369 409 2586 884 
Q 2803 1359 2803 2328 
Q 2803 3300 2586 3775 
Q 2369 4250 1925 4250 
z
M 1925 4750 
Q 2672 4750 3055 4137 
Q 3438 3525 3438 2328 
Q 3438 1134 3055 521 
Q 2672 -91 1925 -91 
Q 1178 -91 797 521 
Q 416 1134 416 2328 
Q 416 3525 797 4137 
Q 1178 4750 1925 4750 
z
" transform="scale(0.015625)"/>
         <path id="DejaVuSansMono-2e" d="M 1528 953 
L 2316 953 
L 2316 0 
L 1528 0 
L 1528 953 
z
" transform="scale(0.015625)"/>
         <path id="DejaVuSansMono-31" d="M 844 531 
L 1825 531 
L 1825 4097 
L 769 3859 
L 769 4434 
L 1819 4666 
L 2450 4666 
L 2450 531 
L 3419 531 
L 3419 0 
L 844 0 
L 844 531 
z
" transform="scale(0.015625)"/>
         <path id="DejaVuSansMono-36" d="M 3097 4563 
L 3097 3981 
Q 2900 4097 2678 4158 
Q 2456 4219 2216 4219 
Q 1616 4219 1306 3767 
Q 997 3316 997 2438 
Q 1147 2750 1412 2917 
Q 1678 3084 2022 3084 
Q 2697 3084 3067 2670 
Q 3438 2256 3438 1497 
Q 3438 741 3056 325 
Q 2675 -91 1984 -91 
Q 1172 -91 794 492 
Q 416 1075 416 2328 
Q 416 3509 870 4129 
Q 1325 4750 2188 4750 
Q 2419 4750 2650 4701 
Q 2881 4653 3097 4563 
z
M 1972 2591 
Q 1569 2591 1337 2300 
Q 1106 2009 1106 1497 
Q 1106 984 1337 693 
Q 1569 403 1972 403 
Q 2391 403 2603 679 
Q 2816 956 2816 1497 
Q 2816 2041 2603 2316 
Q 2391 2591 1972 2591 
z
" transform="scale(0.015625)"/>
         <path id="DejaVuSansMono-35" d="M 647 4666 
L 3009 4666 
L 3009 4134 
L 1222 4134 
L 1222 2988 
Q 1356 3038 1492 3061 
Q 1628 3084 1766 3084 
Q 2491 3084 2916 2656 
Q 3341 2228 3341 1497 
Q 3341 759 2895 334 
Q 2450 -91 1678 -91 
Q 1306 -91 998 -41 
Q 691 9 447 109 
L 447 750 
Q 734 594 1025 517 
Q 1316 441 1619 441 
Q 2141 441 2423 716 
Q 2706 991 2706 1497 
Q 2706 1997 2414 2275 
Q 2122 2553 1600 2553 
Q 1347 2553 1106 2495 
Q 866 2438 647 2322 
L 647 4666 
z
" transform="scale(0.015625)"/>
         <path id="DejaVuSansMono-34" d="M 2297 4091 
L 825 1625 
L 2297 1625 
L 2297 4091 
z
M 2194 4666 
L 2925 4666 
L 2925 1625 
L 3547 1625 
L 3547 1113 
L 2925 1113 
L 2925 0 
L 2297 0 
L 2297 1113 
L 319 1113 
L 319 1709 
L 2194 4666 
z
" transform="scale(0.015625)"/>
        </defs>
        <use xlink:href="#DejaVuSansMono-4f"/>
        <use xlink:href="#DejaVuSansMono-3a" x="60.205078"/>
        <use xlink:href="#DejaVuSansMono-20" x="120.410156"/>
        <use xlink:href="#DejaVuSansMono-30" x="180.615234"/>
        <use xlink:href="#DejaVuSansMono-2e" x="240.820312"/>
        <use xlink:href="#DejaVuSansMono-30" x="301.025391"/>
        <use xlink:href="#DejaVuSansMono-30" x="361.230469"/>
        <use xlink:href="#DejaVuSansMono-30" x="421.435547"/>
        <use xlink:href="#DejaVuSansMono-31" x="481.640625"/>
        <use xlink:href="#DejaVuSansMono-36" x="541.845703"/>
        <use xlink:href="#DejaVuSansMono-35" x="602.050781"/>
        <use xlink:href="#DejaVuSansMono-34" x="662.255859"/>
       </g>
      </g>
     </g>
     <g id="ytick_2">
      <g id="text_2">
       <!-- O:  5.52e-05 -->
       <g transform="translate(496.6 293.920686) scale(0.0833 -0.0833)">
        <defs>
         <path id="DejaVuSansMono-32" d="M 1166 531 
L 3309 531 
L 3309 0 
L 475 0 
L 475 531 
Q 1059 1147 1496 1619 
Q 1934 2091 2100 2284 
Q 2413 2666 2522 2902 
Q 2631 3138 2631 3384 
Q 2631 3775 2401 3997 
Q 2172 4219 1772 4219 
Q 1488 4219 1175 4116 
Q 863 4013 513 3803 
L 513 4441 
Q 834 4594 1145 4672 
Q 1456 4750 1759 4750 
Q 2444 4750 2861 4386 
Q 3278 4022 3278 3431 
Q 3278 3131 3139 2831 
Q 3000 2531 2688 2169 
Q 2513 1966 2180 1606 
Q 1847 1247 1166 531 
z
" transform="scale(0.015625)"/>
         <path id="DejaVuSansMono-65" d="M 3475 1894 
L 3475 1613 
L 984 1613 
L 984 1594 
Q 984 1022 1282 709 
Q 1581 397 2125 397 
Q 2400 397 2700 484 
Q 3000 572 3341 750 
L 3341 178 
Q 3013 44 2708 -23 
Q 2403 -91 2119 -91 
Q 1303 -91 843 398 
Q 384 888 384 1747 
Q 384 2584 834 3084 
Q 1284 3584 2034 3584 
Q 2703 3584 3089 3131 
Q 3475 2678 3475 1894 
z
M 2900 2063 
Q 2888 2569 2661 2833 
Q 2434 3097 2009 3097 
Q 1594 3097 1325 2822 
Q 1056 2547 1006 2059 
L 2900 2063 
z
" transform="scale(0.015625)"/>
         <path id="DejaVuSansMono-2d" d="M 1113 2009 
L 2741 2009 
L 2741 1497 
L 1113 1497 
L 1113 2009 
z
" transform="scale(0.015625)"/>
        </defs>
        <use xlink:href="#DejaVuSansMono-4f"/>
        <use xlink:href="#DejaVuSansMono-3a" x="60.205078"/>
        <use xlink:href="#DejaVuSansMono-20" x="120.410156"/>
        <use xlink:href="#DejaVuSansMono-20" x="180.615234"/>
        <use xlink:href="#DejaVuSansMono-35" x="240.820312"/>
        <use xlink:href="#DejaVuSansMono-2e" x="301.025391"/>
        <use xlink:href="#DejaVuSansMono-35" x="361.230469"/>
        <use xlink:href="#DejaVuSansMono-32" x="421.435547"/>
        <use xlink:href="#DejaVuSansMono-65" x="481.640625"/>
        <use xlink:href="#DejaVuSansMono-2d" x="541.845703"/>
        <use xlink:href="#DejaVuSansMono-30" x="602.050781"/>
        <use xlink:href="#DejaVuSansMono-35" x="662.255859"/>
       </g>
      </g>
     </g>
     <g id="ytick_3">
      <g id="text_3">
       <!-- O: 9.945e-05 -->
       <g transform="translate(496.6 250.720686) scale(0.0833 -0.0833)">
        <defs>
         <path id="DejaVuSansMono-39" d="M 1863 2069 
Q 2266 2069 2495 2359 
Q 2725 2650 2725 3163 
Q 2725 3675 2495 3965 
Q 2266 4256 1863 4256 
Q 1444 4256 1231 3979 
Q 1019 3703 1019 3163 
Q 1019 2619 1230 2344 
Q 1441 2069 1863 2069 
z
M 738 97 
L 738 678 
Q 934 563 1156 502 
Q 1378 441 1619 441 
Q 2219 441 2526 892 
Q 2834 1344 2834 2222 
Q 2688 1909 2422 1742 
Q 2156 1575 1813 1575 
Q 1138 1575 767 1990 
Q 397 2406 397 3169 
Q 397 3922 776 4336 
Q 1156 4750 1850 4750 
Q 2663 4750 3041 4165 
Q 3419 3581 3419 2328 
Q 3419 1150 2964 529 
Q 2509 -91 1644 -91 
Q 1416 -91 1184 -42 
Q 953 6 738 97 
z
" transform="scale(0.015625)"/>
        </defs>
        <use xlink:href="#DejaVuSansMono-4f"/>
        <use xlink:href="#DejaVuSansMono-3a" x="60.205078"/>
        <use xlink:href="#DejaVuSansMono-20" x="120.410156"/>
        <use xlink:href="#DejaVuSansMono-39" x="180.615234"/>
        <use xlink:href="#DejaVuSansMono-2e" x="240.820312"/>
        <use xlink:href="#DejaVuSansMono-39" x="301.025391"/>
        <use xlink:href="#DejaVuSansMono-34" x="361.230469"/>
        <use xlink:href="#DejaVuSansMono-35" x="421.435547"/>
        <use xlink:href="#DejaVuSansMono-65" x="481.640625"/>
        <use xlink:href="#DejaVuSansMono-2d" x="541.845703"/>
        <use xlink:href="#DejaVuSansMono-30" x="602.050781"/>
        <use xlink:href="#DejaVuSansMono-35" x="662.255859"/>
       </g>
      </g>
     </g>
     <g id="ytick_4">
      <g id="text_4">
       <!-- O: 8.869e-05 -->
       <g transform="translate(496.6 207.520686) scale(0.0833 -0.0833)">
        <defs>
         <path id="DejaVuSansMono-38" d="M 1925 2216 
Q 1503 2216 1273 1980 
Q 1044 1744 1044 1313 
Q 1044 881 1276 642 
Q 1509 403 1925 403 
Q 2350 403 2579 639 
Q 2809 875 2809 1313 
Q 2809 1741 2576 1978 
Q 2344 2216 1925 2216 
z
M 1375 2478 
Q 972 2581 745 2862 
Q 519 3144 519 3541 
Q 519 4097 897 4423 
Q 1275 4750 1925 4750 
Q 2578 4750 2956 4423 
Q 3334 4097 3334 3541 
Q 3334 3144 3107 2862 
Q 2881 2581 2478 2478 
Q 2947 2375 3195 2062 
Q 3444 1750 3444 1253 
Q 3444 622 3041 265 
Q 2638 -91 1925 -91 
Q 1213 -91 811 264 
Q 409 619 409 1247 
Q 409 1747 657 2061 
Q 906 2375 1375 2478 
z
M 1147 3481 
Q 1147 3106 1347 2909 
Q 1547 2713 1925 2713 
Q 2306 2713 2506 2909 
Q 2706 3106 2706 3481 
Q 2706 3863 2507 4063 
Q 2309 4263 1925 4263 
Q 1547 4263 1347 4061 
Q 1147 3859 1147 3481 
z
" transform="scale(0.015625)"/>
        </defs>
        <use xlink:href="#DejaVuSansMono-4f"/>
        <use xlink:href="#DejaVuSansMono-3a" x="60.205078"/>
        <use xlink:href="#DejaVuSansMono-20" x="120.410156"/>
        <use xlink:href="#DejaVuSansMono-38" x="180.615234"/>
        <use xlink:href="#DejaVuSansMono-2e" x="240.820312"/>
        <use xlink:href="#DejaVuSansMono-38" x="301.025391"/>
        <use xlink:href="#DejaVuSansMono-36" x="361.230469"/>
        <use xlink:href="#DejaVuSansMono-39" x="421.435547"/>
        <use xlink:href="#DejaVuSansMono-65" x="481.640625"/>
        <use xlink:href="#DejaVuSansMono-2d" x="541.845703"/>
        <use xlink:href="#DejaVuSansMono-30" x="602.050781"/>
        <use xlink:href="#DejaVuSansMono-35" x="662.255859"/>
       </g>
      </g>
     </g>
     <g id="ytick_5">
      <g id="text_5">
       <!-- O: 0.0001287 -->
       <g transform="translate(496.6 164.320686) scale(0.0833 -0.0833)">
        <defs>
         <path id="DejaVuSansMono-37" d="M 434 4666 
L 3372 4666 
L 3372 4397 
L 1703 0 
L 1044 0 
L 2669 4134 
L 434 4134 
L 434 4666 
z
" transform="scale(0.015625)"/>
        </defs>
        <use xlink:href="#DejaVuSansMono-4f"/>
        <use xlink:href="#DejaVuSansMono-3a" x="60.205078"/>
        <use xlink:href="#DejaVuSansMono-20" x="120.410156"/>
        <use xlink:href="#DejaVuSansMono-30" x="180.615234"/>
        <use xlink:href="#DejaVuSansMono-2e" x="240.820312"/>
        <use xlink:href="#DejaVuSansMono-30" x="301.025391"/>
        <use xlink:href="#DejaVuSansMono-30" x="361.230469"/>
        <use xlink:href="#DejaVuSansMono-30" x="421.435547"/>
        <use xlink:href="#DejaVuSansMono-31" x="481.640625"/>
        <use xlink:href="#DejaVuSansMono-32" x="541.845703"/>
        <use xlink:href="#DejaVuSansMono-38" x="602.050781"/>
        <use xlink:href="#DejaVuSansMono-37" x="662.255859"/>
       </g>
      </g>
     </g>
     <g id="ytick_6">
      <g id="text_6">
       <!-- O:  6.84e-05 -->
       <g transform="translate(496.6 121.120686) scale(0.0833 -0.0833)">
        <use xlink:href="#DejaVuSansMono-4f"/>
        <use xlink:href="#DejaVuSansMono-3a" x="60.205078"/>
        <use xlink:href="#DejaVuSansMono-20" x="120.410156"/>
        <use xlink:href="#DejaVuSansMono-20" x="180.615234"/>
        <use xlink:href="#DejaVuSansMono-36" x="240.820312"/>
        <use xlink:href="#DejaVuSansMono-2e" x="301.025391"/>
        <use xlink:href="#DejaVuSansMono-38" x="361.230469"/>
        <use xlink:href="#DejaVuSansMono-34" x="421.435547"/>
        <use xlink:href="#DejaVuSansMono-65" x="481.640625"/>
        <use xlink:href="#DejaVuSansMono-2d" x="541.845703"/>
        <use xlink:href="#DejaVuSansMono-30" x="602.050781"/>
        <use xlink:href="#DejaVuSansMono-35" x="662.255859"/>
       </g>
      </g>
     </g>
     <g id="ytick_7">
      <g id="text_7">
       <!-- O: 8.119e-05 -->
       <g transform="translate(496.6 77.920686) scale(0.0833 -0.0833)">
        <use xlink:href="#DejaVuSansMono-4f"/>
        <use xlink:href="#DejaVuSansMono-3a" x="60.205078"/>
        <use xlink:href="#DejaVuSansMono-20" x="120.410156"/>
        <use xlink:href="#DejaVuSansMono-38" x="180.615234"/>
        <use xlink:href="#DejaVuSansMono-2e" x="240.820312"/>
        <use xlink:href="#DejaVuSansMono-31" x="301.025391"/>
        <use xlink:href="#DejaVuSansMono-31" x="361.230469"/>
        <use xlink:href="#DejaVuSansMono-39" x="421.435547"/>
        <use xlink:href="#DejaVuSansMono-65" x="481.640625"/>
        <use xlink:href="#DejaVuSansMono-2d" x="541.845703"/>
        <use xlink:href="#DejaVuSansMono-30" x="602.050781"/>
        <use xlink:href="#DejaVuSansMono-35" x="662.255859"/>
       </g>
      </g>
     </g>
    </g>
   </g>
   <g id="matplotlib.axis_3">
    <g id="xtick_1">
     <g id="line2d_1">
      <defs>
       <path id="m70768d7cb3" d="M 0 0 
L 0 3.5 
" style="stroke: #000000; stroke-width: 0.8"/>
      </defs>
      <g>
       <use xlink:href="#m70768d7cb3" x="86.4" y="388.8" style="stroke: #000000; stroke-width: 0.8"/>
      </g>
     </g>
     <g id="text_8">
      <!-- −100 -->
      <g transform="translate(74.359375 403.451563) scale(0.1 -0.1)">
       <defs>
        <path id="DejaVuSansMono-2212" d="M 275 2272 
L 3578 2272 
L 3578 1741 
L 275 1741 
L 275 2272 
z
" transform="scale(0.015625)"/>
       </defs>
       <use xlink:href="#DejaVuSansMono-2212"/>
       <use xlink:href="#DejaVuSansMono-31" x="60.205078"/>
       <use xlink:href="#DejaVuSansMono-30" x="120.410156"/>
       <use xlink:href="#DejaVuSansMono-30" x="180.615234"/>
      </g>
     </g>
    </g>
    <g id="xtick_2">
     <g id="line2d_2">
      <g>
       <use xlink:href="#m70768d7cb3" x="167.04" y="388.8" style="stroke: #000000; stroke-width: 0.8"/>
      </g>
     </g>
     <g id="text_9">
      <!-- −50 -->
      <g transform="translate(158.009531 403.451563) scale(0.1 -0.1)">
       <use xlink:href="#DejaVuSansMono-2212"/>
       <use xlink:href="#DejaVuSansMono-35" x="60.205078"/>
       <use xlink:href="#DejaVuSansMono-30" x="120.410156"/>
      </g>
     </g>
    </g>
    <g id="xtick_3">
     <g id="line2d_3">
      <g>
       <use xlink:href="#m70768d7cb3" x="247.68" y="388.8" style="stroke: #000000; stroke-width: 0.8"/>
      </g>
     </g>
     <g id="text_10">
      <!-- 0 -->
      <g transform="translate(244.669844 403.451563) scale(0.1 -0.1)">
       <use xlink:href="#DejaVuSansMono-30"/>
      </g>
     </g>
    </g>
    <g id="xtick_4">
     <g id="line2d_4">
      <g>
       <use xlink:href="#m70768d7cb3" x="328.32" y="388.8" style="stroke: #000000; stroke-width: 0.8"/>
      </g>
     </g>
     <g id="text_11">
      <!-- 50 -->
      <g transform="translate(322.299688 403.451563) scale(0.1 -0.1)">
       <use xlink:href="#DejaVuSansMono-35"/>
       <use xlink:href="#DejaVuSansMono-30" x="60.205078"/>
      </g>
     </g>
    </g>
    <g id="xtick_5">
     <g id="line2d_5">
      <g>
       <use xlink:href="#m70768d7cb3" x="408.96" y="388.8" style="stroke: #000000; stroke-width: 0.8"/>
      </g>
     </g>
     <g id="text_12">
      <!-- 100 -->
      <g transform="translate(399.929531 403.451563) scale(0.1 -0.1)">
       <use xlink:href="#DejaVuSansMono-31"/>
       <use xlink:href="#DejaVuSansMono-30" x="60.205078"/>
       <use xlink:href="#DejaVuSansMono-30" x="120.410156"/>
      </g>
     </g>
    </g>
    <g id="xtick_6">
     <g id="line2d_6">
      <g>
       <use xlink:href="#m70768d7cb3" x="489.6" y="388.8" style="stroke: #000000; stroke-width: 0.8"/>
      </g>
     </g>
     <g id="text_13">
      <!-- 150 -->
      <g transform="translate(480.569531 403.451563) scale(0.1 -0.1)">
       <use xlink:href="#DejaVuSansMono-31"/>
       <use xlink:href="#DejaVuSansMono-35" x="60.205078"/>
       <use xlink:href="#DejaVuSansMono-30" x="120.410156"/>
      </g>
     </g>
    </g>
    <g id="text_14">
     <!-- Time since origin (s) -->
     <g transform="translate(224.786719 417.129687) scale(0.1 -0.1)">
      <defs>
       <path id="DejaVuSansMono-54" d="M 147 4666 
L 3706 4666 
L 3706 4134 
L 2247 4134 
L 2247 0 
L 1613 0 
L 1613 4134 
L 147 4134 
L 147 4666 
z
" transform="scale(0.015625)"/>
       <path id="DejaVuSansMono-69" d="M 800 3500 
L 2272 3500 
L 2272 447 
L 3413 447 
L 3413 0 
L 556 0 
L 556 447 
L 1697 447 
L 1697 3053 
L 800 3053 
L 800 3500 
z
M 1697 4863 
L 2272 4863 
L 2272 4134 
L 1697 4134 
L 1697 4863 
z
" transform="scale(0.015625)"/>
       <path id="DejaVuSansMono-6d" d="M 2113 3144 
Q 2219 3369 2383 3476 
Q 2547 3584 2778 3584 
Q 3200 3584 3373 3257 
Q 3547 2931 3547 2028 
L 3547 0 
L 3022 0 
L 3022 2003 
Q 3022 2744 2939 2923 
Q 2856 3103 2638 3103 
Q 2388 3103 2295 2911 
Q 2203 2719 2203 2003 
L 2203 0 
L 1678 0 
L 1678 2003 
Q 1678 2753 1589 2928 
Q 1500 3103 1269 3103 
Q 1041 3103 952 2911 
Q 863 2719 863 2003 
L 863 0 
L 341 0 
L 341 3500 
L 863 3500 
L 863 3200 
Q 966 3388 1120 3486 
Q 1275 3584 1472 3584 
Q 1709 3584 1867 3475 
Q 2025 3366 2113 3144 
z
" transform="scale(0.015625)"/>
       <path id="DejaVuSansMono-73" d="M 3041 3378 
L 3041 2816 
Q 2794 2959 2544 3031 
Q 2294 3103 2034 3103 
Q 1644 3103 1451 2976 
Q 1259 2850 1259 2591 
Q 1259 2356 1403 2240 
Q 1547 2125 2119 2016 
L 2350 1972 
Q 2778 1891 2998 1647 
Q 3219 1403 3219 1013 
Q 3219 494 2850 201 
Q 2481 -91 1825 -91 
Q 1566 -91 1281 -36 
Q 997 19 666 128 
L 666 722 
Q 988 556 1281 473 
Q 1575 391 1838 391 
Q 2219 391 2428 545 
Q 2638 700 2638 978 
Q 2638 1378 1872 1531 
L 1847 1538 
L 1631 1581 
Q 1134 1678 906 1908 
Q 678 2138 678 2534 
Q 678 3038 1018 3311 
Q 1359 3584 1991 3584 
Q 2272 3584 2531 3532 
Q 2791 3481 3041 3378 
z
" transform="scale(0.015625)"/>
       <path id="DejaVuSansMono-6e" d="M 3284 2169 
L 3284 0 
L 2706 0 
L 2706 2169 
Q 2706 2641 2540 2862 
Q 2375 3084 2022 3084 
Q 1619 3084 1401 2798 
Q 1184 2513 1184 1978 
L 1184 0 
L 609 0 
L 609 3500 
L 1184 3500 
L 1184 2975 
Q 1338 3275 1600 3429 
Q 1863 3584 2222 3584 
Q 2756 3584 3020 3232 
Q 3284 2881 3284 2169 
z
" transform="scale(0.015625)"/>
       <path id="DejaVuSansMono-63" d="M 3316 178 
Q 3084 44 2839 -23 
Q 2594 -91 2338 -91 
Q 1525 -91 1067 396 
Q 609 884 609 1747 
Q 609 2609 1067 3096 
Q 1525 3584 2338 3584 
Q 2591 3584 2831 3518 
Q 3072 3453 3316 3316 
L 3316 2713 
Q 3088 2916 2858 3006 
Q 2628 3097 2338 3097 
Q 1797 3097 1506 2747 
Q 1216 2397 1216 1747 
Q 1216 1100 1508 748 
Q 1800 397 2338 397 
Q 2638 397 2875 489 
Q 3113 581 3316 775 
L 3316 178 
z
" transform="scale(0.015625)"/>
       <path id="DejaVuSansMono-6f" d="M 1925 3097 
Q 1488 3097 1263 2756 
Q 1038 2416 1038 1747 
Q 1038 1081 1263 739 
Q 1488 397 1925 397 
Q 2366 397 2591 739 
Q 2816 1081 2816 1747 
Q 2816 2416 2591 2756 
Q 2366 3097 1925 3097 
z
M 1925 3584 
Q 2653 3584 3039 3112 
Q 3425 2641 3425 1747 
Q 3425 850 3040 379 
Q 2656 -91 1925 -91 
Q 1197 -91 812 379 
Q 428 850 428 1747 
Q 428 2641 812 3112 
Q 1197 3584 1925 3584 
z
" transform="scale(0.015625)"/>
       <path id="DejaVuSansMono-72" d="M 3609 2778 
Q 3425 2922 3234 2987 
Q 3044 3053 2816 3053 
Q 2278 3053 1993 2715 
Q 1709 2378 1709 1741 
L 1709 0 
L 1131 0 
L 1131 3500 
L 1709 3500 
L 1709 2816 
Q 1853 3188 2151 3386 
Q 2450 3584 2859 3584 
Q 3072 3584 3256 3531 
Q 3441 3478 3609 3366 
L 3609 2778 
z
" transform="scale(0.015625)"/>
       <path id="DejaVuSansMono-67" d="M 2681 1778 
Q 2681 2425 2470 2761 
Q 2259 3097 1856 3097 
Q 1434 3097 1212 2761 
Q 991 2425 991 1778 
Q 991 1131 1214 792 
Q 1438 453 1863 453 
Q 2259 453 2470 793 
Q 2681 1134 2681 1778 
z
M 3256 225 
Q 3256 -563 2884 -969 
Q 2513 -1375 1791 -1375 
Q 1553 -1375 1293 -1331 
Q 1034 -1288 775 -1203 
L 775 -634 
Q 1081 -778 1331 -847 
Q 1581 -916 1791 -916 
Q 2256 -916 2468 -662 
Q 2681 -409 2681 141 
L 2681 166 
L 2681 556 
Q 2544 263 2306 119 
Q 2069 -25 1728 -25 
Q 1116 -25 750 465 
Q 384 956 384 1778 
Q 384 2603 750 3093 
Q 1116 3584 1728 3584 
Q 2066 3584 2300 3450 
Q 2534 3316 2681 3034 
L 2681 3488 
L 3256 3488 
L 3256 225 
z
" transform="scale(0.015625)"/>
       <path id="DejaVuSansMono-28" d="M 2766 4856 
Q 2350 4144 2145 3436 
Q 1941 2728 1941 2009 
Q 1941 1294 2145 584 
Q 2350 -125 2766 -844 
L 2266 -844 
Q 1794 -100 1562 604 
Q 1331 1309 1331 2009 
Q 1331 2706 1562 3412 
Q 1794 4119 2266 4856 
L 2766 4856 
z
" transform="scale(0.015625)"/>
       <path id="DejaVuSansMono-29" d="M 1088 4856 
L 1588 4856 
Q 2059 4119 2290 3412 
Q 2522 2706 2522 2009 
Q 2522 1306 2290 600 
Q 2059 -106 1588 -844 
L 1088 -844 
Q 1503 -119 1708 590 
Q 1913 1300 1913 2009 
Q 1913 2722 1708 3431 
Q 1503 4141 1088 4856 
z
" transform="scale(0.015625)"/>
      </defs>
      <use xlink:href="#DejaVuSansMono-54"/>
      <use xlink:href="#DejaVuSansMono-69" x="60.205078"/>
      <use xlink:href="#DejaVuSansMono-6d" x="120.410156"/>
      <use xlink:href="#DejaVuSansMono-65" x="180.615234"/>
      <use xlink:href="#DejaVuSansMono-20" x="240.820312"/>
      <use xlink:href="#DejaVuSansMono-73" x="301.025391"/>
      <use xlink:href="#DejaVuSansMono-69" x="361.230469"/>
      <use xlink:href="#DejaVuSansMono-6e" x="421.435547"/>
      <use xlink:href="#DejaVuSansMono-63" x="481.640625"/>
      <use xlink:href="#DejaVuSansMono-65" x="541.845703"/>
      <use xlink:href="#DejaVuSansMono-20" x="602.050781"/>
      <use xlink:href="#DejaVuSansMono-6f" x="662.255859"/>
      <use xlink:href="#DejaVuSansMono-72" x="722.460938"/>
      <use xlink:href="#DejaVuSansMono-69" x="782.666016"/>
      <use xlink:href="#DejaVuSansMono-67" x="842.871094"/>
      <use xlink:href="#DejaVuSansMono-69" x="903.076172"/>
      <use xlink:href="#DejaVuSansMono-6e" x="963.28125"/>
      <use xlink:href="#DejaVuSansMono-20" x="1023.486328"/>
      <use xlink:href="#DejaVuSansMono-28" x="1083.691406"/>
      <use xlink:href="#DejaVuSansMono-73" x="1143.896484"/>
      <use xlink:href="#DejaVuSansMono-29" x="1204.101562"/>
     </g>
    </g>
   </g>
   <g id="matplotlib.axis_4">
    <g id="ytick_8">
     <g id="text_15">
      <!-- II.HOPE -->
      <g transform="translate(44.295558 327.739804) scale(0.0833 -0.0833)">
       <defs>
        <path id="DejaVuSansMono-49" d="M 628 4666 
L 3219 4666 
L 3219 4134 
L 2241 4134 
L 2241 531 
L 3219 531 
L 3219 0 
L 628 0 
L 628 531 
L 1606 531 
L 1606 4134 
L 628 4134 
L 628 4666 
z
" transform="scale(0.015625)"/>
        <path id="DejaVuSansMono-48" d="M 428 4666 
L 1063 4666 
L 1063 2753 
L 2791 2753 
L 2791 4666 
L 3425 4666 
L 3425 0 
L 2791 0 
L 2791 2222 
L 1063 2222 
L 1063 0 
L 428 0 
L 428 4666 
z
" transform="scale(0.015625)"/>
        <path id="DejaVuSansMono-50" d="M 1247 4147 
L 1247 2394 
L 1978 2394 
Q 2416 2394 2661 2625 
Q 2906 2856 2906 3272 
Q 2906 3688 2662 3917 
Q 2419 4147 1978 4147 
L 1247 4147 
z
M 616 4666 
L 1978 4666 
Q 2759 4666 3162 4311 
Q 3566 3956 3566 3272 
Q 3566 2581 3164 2228 
Q 2763 1875 1978 1875 
L 1247 1875 
L 1247 0 
L 616 0 
L 616 4666 
z
" transform="scale(0.015625)"/>
        <path id="DejaVuSansMono-45" d="M 616 4666 
L 3384 4666 
L 3384 4134 
L 1247 4134 
L 1247 2753 
L 3291 2753 
L 3291 2222 
L 1247 2222 
L 1247 531 
L 3444 531 
L 3444 0 
L 616 0 
L 616 4666 
z
" transform="scale(0.015625)"/>
       </defs>
       <use xlink:href="#DejaVuSansMono-49"/>
       <use xlink:href="#DejaVuSansMono-49" x="60.205078"/>
       <use xlink:href="#DejaVuSansMono-2e" x="120.410156"/>
       <use xlink:href="#DejaVuSansMono-48" x="180.615234"/>
       <use xlink:href="#DejaVuSansMono-4f" x="240.820312"/>
       <use xlink:href="#DejaVuSansMono-50" x="301.025391"/>
       <use xlink:href="#DejaVuSansMono-45" x="361.230469"/>
      </g>
      <!-- D: 34.37 -->
      <g transform="translate(39.280637 337.120686) scale(0.0833 -0.0833)">
       <defs>
        <path id="DejaVuSansMono-44" d="M 1363 519 
Q 2159 519 2475 911 
Q 2791 1303 2791 2328 
Q 2791 3363 2477 3755 
Q 2163 4147 1363 4147 
L 1063 4147 
L 1063 519 
L 1363 519 
z
M 1375 4666 
Q 2444 4666 2950 4097 
Q 3456 3528 3456 2328 
Q 3456 1134 2950 567 
Q 2444 0 1375 0 
L 428 0 
L 428 4666 
L 1375 4666 
z
" transform="scale(0.015625)"/>
        <path id="DejaVuSansMono-33" d="M 2425 2497 
Q 2884 2375 3128 2064 
Q 3372 1753 3372 1288 
Q 3372 644 2939 276 
Q 2506 -91 1741 -91 
Q 1419 -91 1084 -31 
Q 750 28 428 141 
L 428 769 
Q 747 603 1056 522 
Q 1366 441 1672 441 
Q 2191 441 2469 675 
Q 2747 909 2747 1350 
Q 2747 1756 2469 1995 
Q 2191 2234 1716 2234 
L 1234 2234 
L 1234 2753 
L 1716 2753 
Q 2150 2753 2394 2943 
Q 2638 3134 2638 3475 
Q 2638 3834 2411 4026 
Q 2184 4219 1766 4219 
Q 1488 4219 1191 4156 
Q 894 4094 569 3969 
L 569 4550 
Q 947 4650 1242 4700 
Q 1538 4750 1766 4750 
Q 2447 4750 2855 4408 
Q 3263 4066 3263 3500 
Q 3263 3116 3048 2859 
Q 2834 2603 2425 2497 
z
" transform="scale(0.015625)"/>
       </defs>
       <use xlink:href="#DejaVuSansMono-44"/>
       <use xlink:href="#DejaVuSansMono-3a" x="60.205078"/>
       <use xlink:href="#DejaVuSansMono-20" x="120.410156"/>
       <use xlink:href="#DejaVuSansMono-33" x="180.615234"/>
       <use xlink:href="#DejaVuSansMono-34" x="240.820312"/>
       <use xlink:href="#DejaVuSansMono-2e" x="301.025391"/>
       <use xlink:href="#DejaVuSansMono-33" x="361.230469"/>
       <use xlink:href="#DejaVuSansMono-37" x="421.435547"/>
      </g>
      <!-- Az: 142.8 -->
      <g transform="translate(34.265717 346.501568) scale(0.0833 -0.0833)">
       <defs>
        <path id="DejaVuSansMono-41" d="M 1925 4109 
L 1259 1722 
L 2591 1722 
L 1925 4109 
z
M 1544 4666 
L 2309 4666 
L 3738 0 
L 3084 0 
L 2741 1216 
L 1106 1216 
L 769 0 
L 116 0 
L 1544 4666 
z
" transform="scale(0.015625)"/>
        <path id="DejaVuSansMono-7a" d="M 709 3506 
L 3250 3506 
L 3250 2981 
L 1241 469 
L 3250 469 
L 3250 0 
L 634 0 
L 634 531 
L 2644 3047 
L 709 3047 
L 709 3506 
z
" transform="scale(0.015625)"/>
       </defs>
       <use xlink:href="#DejaVuSansMono-41"/>
       <use xlink:href="#DejaVuSansMono-7a" x="60.205078"/>
       <use xlink:href="#DejaVuSansMono-3a" x="120.410156"/>
       <use xlink:href="#DejaVuSansMono-20" x="180.615234"/>
       <use xlink:href="#DejaVuSansMono-31" x="240.820312"/>
       <use xlink:href="#DejaVuSansMono-34" x="301.025391"/>
       <use xlink:href="#DejaVuSansMono-32" x="361.230469"/>
       <use xlink:href="#DejaVuSansMono-2e" x="421.435547"/>
       <use xlink:href="#DejaVuSansMono-38" x="481.640625"/>
      </g>
     </g>
    </g>
    <g id="ytick_9">
     <g id="text_16">
      <!-- IU.SBA -->
      <g transform="translate(49.310478 284.539804) scale(0.0833 -0.0833)">
       <defs>
        <path id="DejaVuSansMono-55" d="M 459 1791 
L 459 4666 
L 1094 4666 
L 1094 1503 
Q 1094 1163 1112 1017 
Q 1131 872 1178 794 
Q 1278 609 1467 515 
Q 1656 422 1925 422 
Q 2197 422 2384 515 
Q 2572 609 2675 794 
Q 2722 872 2740 1015 
Q 2759 1159 2759 1497 
L 2759 4666 
L 3391 4666 
L 3391 1791 
Q 3391 1075 3302 773 
Q 3213 472 2994 275 
Q 2788 91 2522 0 
Q 2256 -91 1925 -91 
Q 1597 -91 1331 0 
Q 1066 91 856 275 
Q 641 469 550 776 
Q 459 1084 459 1791 
z
" transform="scale(0.015625)"/>
        <path id="DejaVuSansMono-53" d="M 3163 4506 
L 3163 3866 
Q 2875 4050 2586 4144 
Q 2297 4238 2003 4238 
Q 1556 4238 1297 4030 
Q 1038 3822 1038 3469 
Q 1038 3159 1208 2996 
Q 1378 2834 1844 2725 
L 2175 2650 
Q 2831 2497 3131 2169 
Q 3431 1841 3431 1275 
Q 3431 609 3018 259 
Q 2606 -91 1819 -91 
Q 1491 -91 1159 -20 
Q 828 50 494 191 
L 494 863 
Q 853 634 1173 528 
Q 1494 422 1819 422 
Q 2297 422 2562 636 
Q 2828 850 2828 1234 
Q 2828 1584 2645 1768 
Q 2463 1953 2009 2053 
L 1672 2131 
Q 1022 2278 728 2575 
Q 434 2872 434 3372 
Q 434 3997 854 4373 
Q 1275 4750 1972 4750 
Q 2241 4750 2537 4689 
Q 2834 4628 3163 4506 
z
" transform="scale(0.015625)"/>
        <path id="DejaVuSansMono-42" d="M 1153 2228 
L 1153 519 
L 1900 519 
Q 2450 519 2684 711 
Q 2919 903 2919 1344 
Q 2919 1800 2672 2014 
Q 2425 2228 1900 2228 
L 1153 2228 
z
M 1153 4147 
L 1153 2741 
L 1888 2741 
Q 2344 2741 2548 2916 
Q 2753 3091 2753 3481 
Q 2753 3834 2551 3990 
Q 2350 4147 1888 4147 
L 1153 4147 
z
M 519 4666 
L 1900 4666 
Q 2616 4666 3003 4356 
Q 3391 4047 3391 3481 
Q 3391 3053 3186 2806 
Q 2981 2559 2572 2497 
Q 3031 2428 3292 2104 
Q 3553 1781 3553 1281 
Q 3553 647 3137 323 
Q 2722 0 1900 0 
L 519 0 
L 519 4666 
z
" transform="scale(0.015625)"/>
       </defs>
       <use xlink:href="#DejaVuSansMono-49"/>
       <use xlink:href="#DejaVuSansMono-55" x="60.205078"/>
       <use xlink:href="#DejaVuSansMono-2e" x="120.410156"/>
       <use xlink:href="#DejaVuSansMono-53" x="180.615234"/>
       <use xlink:href="#DejaVuSansMono-42" x="240.820312"/>
       <use xlink:href="#DejaVuSansMono-41" x="301.025391"/>
      </g>
      <!-- D: 65.83 -->
      <g transform="translate(39.280637 293.920686) scale(0.0833 -0.0833)">
       <use xlink:href="#DejaVuSansMono-44"/>
       <use xlink:href="#DejaVuSansMono-3a" x="60.205078"/>
       <use xlink:href="#DejaVuSansMono-20" x="120.410156"/>
       <use xlink:href="#DejaVuSansMono-36" x="180.615234"/>
       <use xlink:href="#DejaVuSansMono-35" x="240.820312"/>
       <use xlink:href="#DejaVuSansMono-2e" x="301.025391"/>
       <use xlink:href="#DejaVuSansMono-38" x="361.230469"/>
       <use xlink:href="#DejaVuSansMono-33" x="421.435547"/>
      </g>
      <!-- Az: 191.4 -->
      <g transform="translate(34.265717 303.301568) scale(0.0833 -0.0833)">
       <use xlink:href="#DejaVuSansMono-41"/>
       <use xlink:href="#DejaVuSansMono-7a" x="60.205078"/>
       <use xlink:href="#DejaVuSansMono-3a" x="120.410156"/>
       <use xlink:href="#DejaVuSansMono-20" x="180.615234"/>
       <use xlink:href="#DejaVuSansMono-31" x="240.820312"/>
       <use xlink:href="#DejaVuSansMono-39" x="301.025391"/>
       <use xlink:href="#DejaVuSansMono-31" x="361.230469"/>
       <use xlink:href="#DejaVuSansMono-2e" x="421.435547"/>
       <use xlink:href="#DejaVuSansMono-34" x="481.640625"/>
      </g>
     </g>
    </g>
    <g id="ytick_10">
     <g id="text_17">
      <!-- IU.ANMO -->
      <g transform="translate(44.295558 241.339804) scale(0.0833 -0.0833)">
       <defs>
        <path id="DejaVuSansMono-4e" d="M 434 4666 
L 1234 4666 
L 2809 825 
L 2809 4666 
L 3419 4666 
L 3419 0 
L 2619 0 
L 1044 3841 
L 1044 0 
L 434 0 
L 434 4666 
z
" transform="scale(0.015625)"/>
        <path id="DejaVuSansMono-4d" d="M 269 4666 
L 1113 4666 
L 1919 2291 
L 2731 4666 
L 3578 4666 
L 3578 0 
L 2994 0 
L 2994 4122 
L 2163 1663 
L 1684 1663 
L 850 4122 
L 850 0 
L 269 0 
L 269 4666 
z
" transform="scale(0.015625)"/>
       </defs>
       <use xlink:href="#DejaVuSansMono-49"/>
       <use xlink:href="#DejaVuSansMono-55" x="60.205078"/>
       <use xlink:href="#DejaVuSansMono-2e" x="120.410156"/>
       <use xlink:href="#DejaVuSansMono-41" x="180.615234"/>
       <use xlink:href="#DejaVuSansMono-4e" x="240.820312"/>
       <use xlink:href="#DejaVuSansMono-4d" x="301.025391"/>
       <use xlink:href="#DejaVuSansMono-4f" x="361.230469"/>
      </g>
      <!-- D: 73.37 -->
      <g transform="translate(39.280637 250.720686) scale(0.0833 -0.0833)">
       <use xlink:href="#DejaVuSansMono-44"/>
       <use xlink:href="#DejaVuSansMono-3a" x="60.205078"/>
       <use xlink:href="#DejaVuSansMono-20" x="120.410156"/>
       <use xlink:href="#DejaVuSansMono-37" x="180.615234"/>
       <use xlink:href="#DejaVuSansMono-33" x="240.820312"/>
       <use xlink:href="#DejaVuSansMono-2e" x="301.025391"/>
       <use xlink:href="#DejaVuSansMono-33" x="361.230469"/>
       <use xlink:href="#DejaVuSansMono-37" x="421.435547"/>
      </g>
      <!-- Az: 331.0 -->
      <g transform="translate(34.265717 260.101568) scale(0.0833 -0.0833)">
       <use xlink:href="#DejaVuSansMono-41"/>
       <use xlink:href="#DejaVuSansMono-7a" x="60.205078"/>
       <use xlink:href="#DejaVuSansMono-3a" x="120.410156"/>
       <use xlink:href="#DejaVuSansMono-20" x="180.615234"/>
       <use xlink:href="#DejaVuSansMono-33" x="240.820312"/>
       <use xlink:href="#DejaVuSansMono-33" x="301.025391"/>
       <use xlink:href="#DejaVuSansMono-31" x="361.230469"/>
       <use xlink:href="#DejaVuSansMono-2e" x="421.435547"/>
       <use xlink:href="#DejaVuSansMono-30" x="481.640625"/>
      </g>
     </g>
    </g>
    <g id="ytick_11">
     <g id="text_18">
      <!-- IU.HRV -->
      <g transform="translate(49.310478 198.139804) scale(0.0833 -0.0833)">
       <defs>
        <path id="DejaVuSansMono-52" d="M 2375 2203 
Q 2619 2141 2791 1967 
Q 2963 1794 3219 1275 
L 3853 0 
L 3175 0 
L 2619 1178 
Q 2378 1681 2186 1826 
Q 1994 1972 1684 1972 
L 1081 1972 
L 1081 0 
L 447 0 
L 447 4666 
L 1747 4666 
Q 2516 4666 2925 4319 
Q 3334 3972 3334 3316 
Q 3334 2853 3082 2561 
Q 2831 2269 2375 2203 
z
M 1081 4147 
L 1081 2491 
L 1772 2491 
Q 2225 2491 2447 2694 
Q 2669 2897 2669 3316 
Q 2669 3719 2433 3933 
Q 2197 4147 1747 4147 
L 1081 4147 
z
" transform="scale(0.015625)"/>
        <path id="DejaVuSansMono-56" d="M 1925 531 
L 3022 4666 
L 3675 4666 
L 2309 0 
L 1544 0 
L 178 4666 
L 831 4666 
L 1925 531 
z
" transform="scale(0.015625)"/>
       </defs>
       <use xlink:href="#DejaVuSansMono-49"/>
       <use xlink:href="#DejaVuSansMono-55" x="60.205078"/>
       <use xlink:href="#DejaVuSansMono-2e" x="120.410156"/>
       <use xlink:href="#DejaVuSansMono-48" x="180.615234"/>
       <use xlink:href="#DejaVuSansMono-52" x="240.820312"/>
       <use xlink:href="#DejaVuSansMono-56" x="301.025391"/>
      </g>
      <!-- D: 73.38 -->
      <g transform="translate(39.280637 207.520686) scale(0.0833 -0.0833)">
       <use xlink:href="#DejaVuSansMono-44"/>
       <use xlink:href="#DejaVuSansMono-3a" x="60.205078"/>
       <use xlink:href="#DejaVuSansMono-20" x="120.410156"/>
       <use xlink:href="#DejaVuSansMono-37" x="180.615234"/>
       <use xlink:href="#DejaVuSansMono-33" x="240.820312"/>
       <use xlink:href="#DejaVuSansMono-2e" x="301.025391"/>
       <use xlink:href="#DejaVuSansMono-33" x="361.230469"/>
       <use xlink:href="#DejaVuSansMono-38" x="421.435547"/>
      </g>
      <!-- Az:   0.4 -->
      <g transform="translate(34.265717 216.901568) scale(0.0833 -0.0833)">
       <use xlink:href="#DejaVuSansMono-41"/>
       <use xlink:href="#DejaVuSansMono-7a" x="60.205078"/>
       <use xlink:href="#DejaVuSansMono-3a" x="120.410156"/>
       <use xlink:href="#DejaVuSansMono-20" x="180.615234"/>
       <use xlink:href="#DejaVuSansMono-20" x="240.820312"/>
       <use xlink:href="#DejaVuSansMono-20" x="301.025391"/>
       <use xlink:href="#DejaVuSansMono-30" x="361.230469"/>
       <use xlink:href="#DejaVuSansMono-2e" x="421.435547"/>
       <use xlink:href="#DejaVuSansMono-34" x="481.640625"/>
      </g>
     </g>
    </g>
    <g id="ytick_12">
     <g id="text_19">
      <!-- IU.KOWA -->
      <g transform="translate(44.295558 154.939804) scale(0.0833 -0.0833)">
       <defs>
        <path id="DejaVuSansMono-4b" d="M 428 4666 
L 1063 4666 
L 1063 2591 
L 3034 4666 
L 3775 4666 
L 1959 2759 
L 3828 0 
L 3066 0 
L 1544 2338 
L 1063 1825 
L 1063 0 
L 428 0 
L 428 4666 
z
" transform="scale(0.015625)"/>
        <path id="DejaVuSansMono-57" d="M 0 4666 
L 616 4666 
L 1063 878 
L 1594 3384 
L 2253 3384 
L 2791 872 
L 3238 4666 
L 3853 4666 
L 3156 0 
L 2559 0 
L 1925 2772 
L 1294 0 
L 697 0 
L 0 4666 
z
" transform="scale(0.015625)"/>
       </defs>
       <use xlink:href="#DejaVuSansMono-49"/>
       <use xlink:href="#DejaVuSansMono-55" x="60.205078"/>
       <use xlink:href="#DejaVuSansMono-2e" x="120.410156"/>
       <use xlink:href="#DejaVuSansMono-4b" x="180.615234"/>
       <use xlink:href="#DejaVuSansMono-4f" x="240.820312"/>
       <use xlink:href="#DejaVuSansMono-57" x="301.025391"/>
       <use xlink:href="#DejaVuSansMono-41" x="361.230469"/>
      </g>
      <!-- D: 79.63 -->
      <g transform="translate(39.280637 164.320686) scale(0.0833 -0.0833)">
       <use xlink:href="#DejaVuSansMono-44"/>
       <use xlink:href="#DejaVuSansMono-3a" x="60.205078"/>
       <use xlink:href="#DejaVuSansMono-20" x="120.410156"/>
       <use xlink:href="#DejaVuSansMono-37" x="180.615234"/>
       <use xlink:href="#DejaVuSansMono-39" x="240.820312"/>
       <use xlink:href="#DejaVuSansMono-2e" x="301.025391"/>
       <use xlink:href="#DejaVuSansMono-36" x="361.230469"/>
       <use xlink:href="#DejaVuSansMono-33" x="421.435547"/>
      </g>
      <!-- Az:  66.1 -->
      <g transform="translate(34.265717 173.701568) scale(0.0833 -0.0833)">
       <use xlink:href="#DejaVuSansMono-41"/>
       <use xlink:href="#DejaVuSansMono-7a" x="60.205078"/>
       <use xlink:href="#DejaVuSansMono-3a" x="120.410156"/>
       <use xlink:href="#DejaVuSansMono-20" x="180.615234"/>
       <use xlink:href="#DejaVuSansMono-20" x="240.820312"/>
       <use xlink:href="#DejaVuSansMono-36" x="301.025391"/>
       <use xlink:href="#DejaVuSansMono-36" x="361.230469"/>
       <use xlink:href="#DejaVuSansMono-2e" x="421.435547"/>
       <use xlink:href="#DejaVuSansMono-31" x="481.640625"/>
      </g>
     </g>
    </g>
    <g id="ytick_13">
     <g id="text_20">
      <!-- IU.SNZO -->
      <g transform="translate(44.295558 111.739804) scale(0.0833 -0.0833)">
       <defs>
        <path id="DejaVuSansMono-5a" d="M 556 4666 
L 3584 4666 
L 3584 4184 
L 1147 531 
L 3653 531 
L 3653 0 
L 488 0 
L 488 481 
L 2859 4134 
L 556 4134 
L 556 4666 
z
" transform="scale(0.015625)"/>
       </defs>
       <use xlink:href="#DejaVuSansMono-49"/>
       <use xlink:href="#DejaVuSansMono-55" x="60.205078"/>
       <use xlink:href="#DejaVuSansMono-2e" x="120.410156"/>
       <use xlink:href="#DejaVuSansMono-53" x="180.615234"/>
       <use xlink:href="#DejaVuSansMono-4e" x="240.820312"/>
       <use xlink:href="#DejaVuSansMono-5a" x="301.025391"/>
       <use xlink:href="#DejaVuSansMono-4f" x="361.230469"/>
      </g>
      <!-- D: 85.20 -->
      <g transform="translate(39.280637 121.120686) scale(0.0833 -0.0833)">
       <use xlink:href="#DejaVuSansMono-44"/>
       <use xlink:href="#DejaVuSansMono-3a" x="60.205078"/>
       <use xlink:href="#DejaVuSansMono-20" x="120.410156"/>
       <use xlink:href="#DejaVuSansMono-38" x="180.615234"/>
       <use xlink:href="#DejaVuSansMono-35" x="240.820312"/>
       <use xlink:href="#DejaVuSansMono-2e" x="301.025391"/>
       <use xlink:href="#DejaVuSansMono-32" x="361.230469"/>
       <use xlink:href="#DejaVuSansMono-30" x="421.435547"/>
      </g>
      <!-- Az: 223.9 -->
      <g transform="translate(34.265717 130.501568) scale(0.0833 -0.0833)">
       <use xlink:href="#DejaVuSansMono-41"/>
       <use xlink:href="#DejaVuSansMono-7a" x="60.205078"/>
       <use xlink:href="#DejaVuSansMono-3a" x="120.410156"/>
       <use xlink:href="#DejaVuSansMono-20" x="180.615234"/>
       <use xlink:href="#DejaVuSansMono-32" x="240.820312"/>
       <use xlink:href="#DejaVuSansMono-32" x="301.025391"/>
       <use xlink:href="#DejaVuSansMono-33" x="361.230469"/>
       <use xlink:href="#DejaVuSansMono-2e" x="421.435547"/>
       <use xlink:href="#DejaVuSansMono-39" x="481.640625"/>
      </g>
     </g>
    </g>
    <g id="ytick_14">
     <g id="text_21">
      <!-- IU.XMAS -->
      <g transform="translate(44.295558 68.539804) scale(0.0833 -0.0833)">
       <defs>
        <path id="DejaVuSansMono-58" d="M 269 4666 
L 947 4666 
L 1972 2906 
L 3016 4666 
L 3694 4666 
L 2297 2472 
L 3794 0 
L 3116 0 
L 1972 2009 
L 738 0 
L 56 0 
L 1619 2472 
L 269 4666 
z
" transform="scale(0.015625)"/>
       </defs>
       <use xlink:href="#DejaVuSansMono-49"/>
       <use xlink:href="#DejaVuSansMono-55" x="60.205078"/>
       <use xlink:href="#DejaVuSansMono-2e" x="120.410156"/>
       <use xlink:href="#DejaVuSansMono-58" x="180.615234"/>
       <use xlink:href="#DejaVuSansMono-4d" x="240.820312"/>
       <use xlink:href="#DejaVuSansMono-41" x="301.025391"/>
       <use xlink:href="#DejaVuSansMono-53" x="361.230469"/>
      </g>
      <!-- D: 87.20 -->
      <g transform="translate(39.280637 77.920686) scale(0.0833 -0.0833)">
       <use xlink:href="#DejaVuSansMono-44"/>
       <use xlink:href="#DejaVuSansMono-3a" x="60.205078"/>
       <use xlink:href="#DejaVuSansMono-20" x="120.410156"/>
       <use xlink:href="#DejaVuSansMono-38" x="180.615234"/>
       <use xlink:href="#DejaVuSansMono-37" x="240.820312"/>
       <use xlink:href="#DejaVuSansMono-2e" x="301.025391"/>
       <use xlink:href="#DejaVuSansMono-32" x="361.230469"/>
       <use xlink:href="#DejaVuSansMono-30" x="421.435547"/>
      </g>
      <!-- Az: 274.0 -->
      <g transform="translate(34.265717 87.301568) scale(0.0833 -0.0833)">
       <use xlink:href="#DejaVuSansMono-41"/>
       <use xlink:href="#DejaVuSansMono-7a" x="60.205078"/>
       <use xlink:href="#DejaVuSansMono-3a" x="120.410156"/>
       <use xlink:href="#DejaVuSansMono-20" x="180.615234"/>
       <use xlink:href="#DejaVuSansMono-32" x="240.820312"/>
       <use xlink:href="#DejaVuSansMono-37" x="301.025391"/>
       <use xlink:href="#DejaVuSansMono-34" x="361.230469"/>
       <use xlink:href="#DejaVuSansMono-2e" x="421.435547"/>
       <use xlink:href="#DejaVuSansMono-30" x="481.640625"/>
      </g>
     </g>
    </g>
   </g>
   <g id="line2d_7">
    <path d="M 85.265003 338.445893 
L 93.329003 337.994337 
L 101.393003 337.349938 
L 111.069803 336.343156 
L 122.359403 334.92236 
L 130.423403 333.734065 
L 136.874603 332.558087 
L 141.713003 331.421818 
L 144.938603 330.484097 
L 148.164203 329.366075 
L 151.389803 328.045726 
L 154.615403 326.517456 
L 159.453803 323.89296 
L 169.130603 318.429324 
L 172.356203 316.885927 
L 175.581803 315.595157 
L 178.807403 314.567035 
L 183.645803 313.358936 
L 188.484203 312.128385 
L 191.709803 311.06901 
L 194.935403 309.708738 
L 198.161003 307.950546 
L 201.386603 305.717324 
L 207.837803 300.547305 
L 209.450603 299.514012 
L 211.063403 298.789704 
L 212.676203 298.480811 
L 214.289003 298.679767 
L 215.901803 299.457369 
L 217.514603 300.858574 
L 219.127403 302.901201 
L 220.740203 305.575873 
L 222.353003 308.845535 
L 223.965803 312.64411 
L 227.191403 321.416162 
L 232.029803 335.41403 
L 233.642603 339.732539 
L 235.255403 343.703615 
L 236.868203 347.282357 
L 238.481003 350.466465 
L 240.093803 353.290605 
L 241.706603 355.817349 
L 244.932203 360.305287 
L 251.383403 368.954576 
L 254.609003 373.188117 
L 256.221803 375.0116 
L 257.834603 376.485215 
L 259.447403 377.506473 
L 261.060203 378 
L 262.673003 377.925148 
L 264.285803 377.278744 
L 265.898603 376.093866 
L 267.511403 374.434982 
L 269.124203 372.389576 
L 272.349803 367.536934 
L 278.801003 357.13439 
L 282.026603 352.407097 
L 285.252203 348.262701 
L 286.865003 346.444498 
L 288.477803 344.80957 
L 290.090603 343.364768 
L 291.703403 342.113293 
L 293.316203 341.054777 
L 294.929003 340.186251 
L 296.541803 339.503278 
L 298.154603 338.999879 
L 299.767403 338.666328 
L 301.380203 338.48526 
L 304.605803 338.453616 
L 309.444203 338.516866 
L 311.057003 338.377591 
L 312.669803 338.108373 
L 314.282603 337.702315 
L 317.508203 336.528208 
L 323.959403 333.748696 
L 325.572203 333.250165 
L 327.185003 332.921844 
L 328.797803 332.793099 
L 330.410603 332.879141 
L 332.023403 333.179478 
L 333.636203 333.677434 
L 335.249003 334.341207 
L 338.474603 335.983766 
L 343.313003 338.490173 
L 346.538603 339.761625 
L 349.764203 340.614289 
L 356.215403 341.891883 
L 357.828203 342.383047 
L 359.441003 343.014836 
L 361.053803 343.7918 
L 364.279403 345.678866 
L 367.505003 347.642941 
L 369.117803 348.479162 
L 370.730603 349.130173 
L 372.343403 349.548005 
L 373.956203 349.705752 
L 375.569003 349.598865 
L 377.181803 349.242523 
L 378.794603 348.665931 
L 380.407403 347.905114 
L 383.633003 345.969271 
L 386.858603 343.64675 
L 390.084203 341.044515 
L 399.761003 332.827557 
L 402.986603 330.654881 
L 404.599403 329.77279 
L 406.212203 329.031713 
L 409.437803 327.911923 
L 414.276203 326.566052 
L 417.501803 325.343985 
L 420.727403 323.645907 
L 427.178603 319.767499 
L 428.791403 319.015672 
L 430.404203 318.451036 
L 432.017003 318.103888 
L 433.629803 317.991528 
L 435.242603 318.11948 
L 436.855403 318.48213 
L 438.468203 319.062011 
L 440.081003 319.828323 
L 443.306603 321.728323 
L 446.532203 323.7012 
L 448.145003 324.551814 
L 449.757803 325.238544 
L 451.370603 325.723103 
L 452.983403 325.983734 
L 454.596203 326.016646 
L 456.209003 325.836627 
L 457.821803 325.476317 
L 461.047403 324.414444 
L 464.273003 323.278962 
L 467.498603 322.438311 
L 469.111403 322.187056 
L 472.337003 322.031292 
L 475.562603 322.247264 
L 488.465003 323.794969 
L 490.077803 324.115086 
L 490.077803 324.115086 
" clip-path="url(#p3280983d0e)" style="fill: none; stroke: #000000; stroke-width: 0.5; stroke-linecap: square"/>
   </g>
   <g id="line2d_8">
    <path d="M 86.163355 291.597304 
L 116.806555 291.012002 
L 136.160155 290.498587 
L 147.449755 289.969211 
L 163.577755 289.09836 
L 168.416155 289.082253 
L 173.254555 289.284552 
L 181.318555 289.707632 
L 184.544155 289.635455 
L 187.769755 289.26301 
L 190.995355 288.529619 
L 194.220955 287.431014 
L 197.446555 286.014211 
L 203.897755 282.893062 
L 205.510555 282.268131 
L 207.123355 281.790966 
L 208.736155 281.5004 
L 210.348955 281.430424 
L 211.961755 281.60903 
L 213.574555 282.056034 
L 215.187355 282.779961 
L 216.800155 283.77528 
L 218.412955 285.021773 
L 220.025755 286.486966 
L 223.251355 289.91019 
L 231.315355 299.174811 
L 232.928155 300.706649 
L 234.540955 302.000218 
L 236.153755 303.024593 
L 237.766555 303.773364 
L 239.379355 304.265513 
L 240.992155 304.542538 
L 244.217755 304.69478 
L 247.443355 304.756212 
L 250.668955 305.090818 
L 255.507355 305.888827 
L 257.120155 306.018283 
L 258.732955 305.98504 
L 260.345755 305.753111 
L 261.958555 305.304304 
L 263.571355 304.636797 
L 265.184155 303.764031 
L 268.409755 301.534696 
L 273.248155 297.819263 
L 274.860955 296.723493 
L 276.473755 295.765011 
L 278.086555 294.951585 
L 281.312155 293.699593 
L 286.150555 292.330803 
L 292.601755 290.706064 
L 295.827355 290.079946 
L 299.052955 289.767961 
L 302.278555 289.854803 
L 305.504155 290.269808 
L 310.342555 290.992036 
L 313.568155 291.206756 
L 316.793755 291.073743 
L 320.019355 290.54549 
L 323.244955 289.651482 
L 328.083355 288.087599 
L 329.696155 287.67724 
L 331.308955 287.391564 
L 332.921755 287.256903 
L 334.534555 287.282408 
L 336.147355 287.45736 
L 339.372955 288.119578 
L 342.598555 288.866168 
L 345.824155 289.346961 
L 349.049755 289.463103 
L 355.500955 289.396635 
L 358.726555 289.645102 
L 365.177755 290.310689 
L 368.403355 290.249181 
L 371.628955 289.842846 
L 381.305755 288.149476 
L 384.531355 287.864596 
L 392.595355 287.533195 
L 405.497755 287.110373 
L 408.723355 287.226322 
L 411.948955 287.614221 
L 415.174555 288.292083 
L 420.012955 289.657354 
L 423.238555 290.56059 
L 426.464155 291.219456 
L 428.076955 291.397716 
L 429.689755 291.455206 
L 431.302555 291.388478 
L 434.528155 290.914091 
L 437.753755 290.09489 
L 444.204955 288.019781 
L 449.043355 286.59029 
L 452.268955 285.888799 
L 455.494555 285.48365 
L 458.720155 285.433569 
L 461.945755 285.720793 
L 466.784155 286.532977 
L 473.235355 287.854357 
L 476.460955 288.641 
L 479.686555 289.608633 
L 482.912155 290.79534 
L 487.750555 292.852304 
L 490.976155 294.285044 
L 490.976155 294.285044 
" clip-path="url(#p3280983d0e)" style="fill: none; stroke: #000000; stroke-width: 0.5; stroke-linecap: square"/>
   </g>
   <g id="line2d_9">
    <path d="M 85.417342 248.810015 
L 104.770942 248.447392 
L 125.737342 247.811538 
L 146.703742 246.964144 
L 157.993342 246.287869 
L 169.282942 245.346423 
L 180.572542 244.437141 
L 187.023742 243.919071 
L 190.249342 243.485052 
L 193.474942 242.801546 
L 196.700542 241.782426 
L 199.926142 240.379993 
L 203.151742 238.609992 
L 209.602942 234.758147 
L 211.215742 234.030358 
L 212.828542 233.53154 
L 214.441342 233.329825 
L 216.054142 233.486105 
L 217.666942 234.048936 
L 219.279742 235.049213 
L 220.892542 236.495428 
L 222.505342 238.370909 
L 224.118142 240.63415 
L 225.730942 243.222321 
L 228.956542 249.049232 
L 233.794942 258.055124 
L 235.407742 260.786179 
L 237.020542 263.275772 
L 238.633342 265.492086 
L 240.246142 267.426535 
L 241.858942 269.089207 
L 243.471742 270.500785 
L 245.084542 271.683504 
L 246.697342 272.653725 
L 248.310142 273.417631 
L 249.922942 273.970285 
L 251.535742 274.297307 
L 253.148542 274.378289 
L 254.761342 274.191238 
L 256.374142 273.717673 
L 257.986942 272.948029 
L 259.599742 271.886653 
L 261.212542 270.555143 
L 262.825342 268.992553 
L 266.050942 265.390299 
L 275.727742 253.925196 
L 280.566142 248.640867 
L 283.791742 245.438448 
L 287.017342 242.623359 
L 288.630142 241.409819 
L 290.242942 240.356117 
L 291.855742 239.484939 
L 293.468542 238.815601 
L 295.081342 238.361114 
L 296.694142 238.125745 
L 298.306942 238.103682 
L 299.919742 238.279185 
L 301.532542 238.628024 
L 304.758142 239.719134 
L 314.434942 243.688244 
L 317.660542 244.697801 
L 324.111742 246.419272 
L 328.950142 247.607542 
L 332.175742 248.228371 
L 335.401342 248.568579 
L 338.626942 248.58277 
L 343.465342 248.221792 
L 346.690942 248.02075 
L 349.916542 248.056398 
L 353.142142 248.36336 
L 359.593342 249.180245 
L 362.818942 249.270118 
L 366.044542 249.044881 
L 375.721342 247.921147 
L 382.172542 247.337653 
L 387.010942 246.570486 
L 391.849342 245.774788 
L 395.074942 245.525868 
L 398.300542 245.62049 
L 401.526142 246.01472 
L 406.364542 246.924992 
L 414.428542 248.55845 
L 417.654142 249.020462 
L 420.879742 249.291834 
L 425.718142 249.436045 
L 435.394942 249.487737 
L 438.620542 249.21218 
L 441.846142 248.615236 
L 445.071742 247.743098 
L 449.910142 246.354411 
L 453.135742 245.716378 
L 456.361342 245.437987 
L 459.586942 245.445487 
L 466.038142 245.650532 
L 469.263742 245.53119 
L 472.489342 245.068841 
L 474.102142 244.667164 
L 475.714942 244.137274 
L 477.327742 243.477273 
L 480.553342 241.805739 
L 485.391742 238.792262 
L 488.617342 236.851803 
L 490.230142 236.008673 
L 490.230142 236.008673 
" clip-path="url(#p3280983d0e)" style="fill: none; stroke: #000000; stroke-width: 0.5; stroke-linecap: square"/>
   </g>
   <g id="line2d_10">
    <path d="M 85.264526 206.11516 
L 109.456526 206.259645 
L 156.227726 206.129168 
L 161.066126 205.790676 
L 165.904526 205.169044 
L 170.742926 204.221006 
L 175.581326 202.976812 
L 180.419726 201.4999 
L 185.258126 199.830992 
L 190.096526 197.947303 
L 194.934926 195.773384 
L 198.160526 194.132934 
L 201.386126 192.316981 
L 209.450126 187.541393 
L 211.062926 186.833387 
L 212.675726 186.341186 
L 214.288526 186.127921 
L 215.901326 186.251703 
L 217.514126 186.760281 
L 219.126926 187.685312 
L 220.739726 189.037241 
L 222.352526 190.802168 
L 223.965326 192.941611 
L 225.578126 195.39507 
L 228.803726 200.919242 
L 232.029326 206.637976 
L 235.254926 211.833779 
L 236.867726 214.082754 
L 238.480526 216.073346 
L 240.093326 217.82281 
L 241.706126 219.369232 
L 244.931726 222.037004 
L 248.157326 224.356099 
L 251.382926 226.351727 
L 252.995726 227.165998 
L 254.608526 227.803376 
L 256.221326 228.217742 
L 257.834126 228.366499 
L 259.446926 228.218641 
L 261.059726 227.762341 
L 262.672526 227.009198 
L 264.285326 225.99289 
L 265.898126 224.762152 
L 269.123726 221.86707 
L 273.962126 217.025899 
L 280.413326 210.592604 
L 283.638926 207.676048 
L 286.864526 205.021083 
L 290.090126 202.615021 
L 293.315726 200.497539 
L 294.928526 199.588182 
L 296.541326 198.812298 
L 298.154126 198.198146 
L 299.766926 197.77108 
L 301.379726 197.548521 
L 302.992526 197.53532 
L 304.605326 197.720598 
L 306.218126 198.077042 
L 309.443726 199.128963 
L 314.282126 200.819696 
L 317.507726 201.646803 
L 320.733326 202.21832 
L 328.797326 203.497091 
L 336.861326 205.143384 
L 340.086926 205.468914 
L 343.312526 205.431844 
L 352.989326 204.720651 
L 356.214926 204.911591 
L 364.278926 205.775672 
L 367.504526 205.770509 
L 372.342926 205.405146 
L 377.181326 205.091305 
L 383.632526 204.748945 
L 386.858126 204.3423 
L 396.534926 202.643808 
L 399.760526 202.446016 
L 402.986126 202.520718 
L 406.211726 202.800334 
L 411.050126 203.488408 
L 415.888526 204.415397 
L 427.178126 206.784797 
L 432.016526 207.424828 
L 441.693326 208.330864 
L 444.918926 208.464883 
L 448.144526 208.351977 
L 451.370126 207.927573 
L 454.595726 207.194658 
L 457.821326 206.198942 
L 461.046926 204.997643 
L 465.885326 202.942815 
L 482.013326 195.789459 
L 485.238926 194.652623 
L 486.851726 194.231919 
L 488.464526 193.930646 
L 490.077326 193.752921 
L 490.077326 193.752921 
" clip-path="url(#p3280983d0e)" style="fill: none; stroke: #000000; stroke-width: 0.5; stroke-linecap: square"/>
   </g>
   <g id="line2d_11">
    <path d="M 86.214541 164.414451 
L 99.116941 164.331577 
L 112.019341 164.002185 
L 142.662541 162.86541 
L 147.500941 162.484366 
L 150.726541 162.078978 
L 153.952141 161.500378 
L 157.177741 160.705195 
L 160.403341 159.660622 
L 163.628941 158.357146 
L 166.854541 156.817019 
L 171.692941 154.16823 
L 184.595341 146.720903 
L 187.820941 145.152488 
L 191.046541 143.786727 
L 194.272141 142.632307 
L 202.336141 140.049541 
L 210.400141 136.918233 
L 212.012941 136.606427 
L 213.625741 136.597636 
L 215.238541 136.982977 
L 216.851341 137.83859 
L 218.464141 139.215623 
L 220.076941 141.132334 
L 221.689741 143.569316 
L 223.302541 146.468546 
L 226.528141 153.252423 
L 231.366541 163.910323 
L 232.979341 167.088365 
L 234.592141 169.945581 
L 236.204941 172.465704 
L 237.817741 174.677829 
L 241.043341 178.465379 
L 245.881741 183.823377 
L 252.332941 191.410036 
L 253.945741 193.009567 
L 255.558541 194.294692 
L 257.171341 195.182213 
L 258.784141 195.61924 
L 260.396941 195.589919 
L 262.009741 195.114342 
L 263.622541 194.240412 
L 265.235341 193.031747 
L 266.848141 191.555695 
L 270.073741 188.042837 
L 274.912141 182.072587 
L 279.750541 176.151557 
L 282.976141 172.607821 
L 286.201741 169.488007 
L 289.427341 166.743624 
L 292.652941 164.271389 
L 297.491341 160.896489 
L 300.716941 158.919451 
L 302.329741 158.0796 
L 303.942541 157.377955 
L 305.555341 156.835795 
L 307.168141 156.460442 
L 308.780941 156.242494 
L 312.006541 156.168252 
L 320.070541 156.579563 
L 323.296141 156.865677 
L 324.908941 157.138829 
L 326.521741 157.536727 
L 328.134541 158.070613 
L 331.360141 159.498748 
L 336.198541 161.945136 
L 337.811341 162.623475 
L 339.424141 163.148056 
L 341.036941 163.487304 
L 342.649741 163.629818 
L 344.262541 163.585722 
L 345.875341 163.384612 
L 349.100941 162.696401 
L 352.326541 161.97551 
L 355.552141 161.555024 
L 358.777741 161.544769 
L 366.841741 162.110933 
L 370.067341 161.992968 
L 378.131341 161.33938 
L 381.356941 161.470422 
L 387.808141 162.07488 
L 391.033741 162.008101 
L 394.259341 161.60106 
L 397.484941 161.125914 
L 400.710541 160.936213 
L 402.323341 161.016499 
L 405.548941 161.512251 
L 413.612941 163.269613 
L 416.838541 163.554527 
L 420.064141 163.476857 
L 423.289741 163.104023 
L 434.579341 161.385493 
L 437.804941 161.305156 
L 445.868941 161.439168 
L 449.094541 161.170819 
L 458.771341 159.869894 
L 463.609741 159.751872 
L 466.835341 159.647177 
L 470.060941 159.271122 
L 473.286541 158.564762 
L 481.350541 156.419794 
L 484.576141 155.92054 
L 489.414541 155.564302 
L 491.027341 155.439722 
L 491.027341 155.439722 
" clip-path="url(#p3280983d0e)" style="fill: none; stroke: #000000; stroke-width: 0.5; stroke-linecap: square"/>
   </g>
   <g id="line2d_12">
    <path d="M 86.07296 118.929051 
L 105.42656 118.3247 
L 124.78016 117.501671 
L 136.06976 116.829699 
L 147.35936 115.917818 
L 158.64896 115.009118 
L 163.48736 114.816851 
L 168.32576 114.872849 
L 173.16416 115.235984 
L 184.45376 116.517024 
L 187.67936 116.499157 
L 189.29216 116.341028 
L 190.90496 116.069098 
L 192.51776 115.679766 
L 195.74336 114.565019 
L 198.96896 113.089556 
L 203.80736 110.685166 
L 205.42016 110.010537 
L 207.03296 109.490941 
L 208.64576 109.181659 
L 210.25856 109.132482 
L 211.87136 109.38473 
L 213.48416 109.969008 
L 215.09696 110.903001 
L 216.70976 112.188841 
L 218.32256 113.810471 
L 219.93536 115.732145 
L 223.16096 120.242274 
L 227.99936 127.515861 
L 229.61216 129.747399 
L 231.22496 131.753615 
L 232.83776 133.468176 
L 234.45056 134.838181 
L 236.06336 135.829932 
L 237.67616 136.433716 
L 239.28896 136.665816 
L 240.90176 136.567094 
L 242.51456 136.198745 
L 245.74016 134.962508 
L 248.96576 133.594543 
L 252.19136 132.54411 
L 258.64256 130.968229 
L 260.25536 130.354287 
L 261.86816 129.555308 
L 263.48096 128.555199 
L 265.09376 127.357415 
L 268.31936 124.468031 
L 274.77056 118.141944 
L 276.38336 116.794836 
L 277.99616 115.629399 
L 279.60896 114.661631 
L 281.22176 113.892481 
L 282.83456 113.311412 
L 284.44736 112.900116 
L 286.06016 112.636084 
L 289.28576 112.46039 
L 292.51136 112.652039 
L 295.73696 113.176481 
L 298.96256 114.033813 
L 302.18816 115.15304 
L 308.63936 117.526446 
L 311.86496 118.433505 
L 315.09056 118.956541 
L 316.70336 119.045449 
L 319.92896 118.880005 
L 323.15456 118.355793 
L 327.99296 117.38999 
L 331.21856 117.00301 
L 334.44416 116.987992 
L 337.66976 117.264427 
L 342.50816 117.743828 
L 345.73376 117.875561 
L 353.79776 117.993419 
L 358.63616 118.468409 
L 361.86176 118.796927 
L 365.08736 118.860668 
L 368.31296 118.524105 
L 371.53856 117.854129 
L 376.37696 116.75928 
L 379.60256 116.355646 
L 382.82816 116.362769 
L 386.05376 116.729837 
L 390.89216 117.649079 
L 395.73056 118.565132 
L 398.95616 118.971246 
L 402.18176 119.152262 
L 407.02016 119.120639 
L 411.85856 119.125917 
L 415.08416 119.36254 
L 418.30976 119.81088 
L 427.98656 121.417763 
L 434.43776 122.149598 
L 437.66336 122.358708 
L 440.88896 122.345632 
L 444.11456 122.049642 
L 448.95296 121.210688 
L 455.40416 120.048954 
L 468.30656 118.083191 
L 474.75776 116.717247 
L 479.59616 115.708399 
L 482.82176 115.218809 
L 487.66016 114.799755 
L 490.88576 114.603615 
L 490.88576 114.603615 
" clip-path="url(#p3280983d0e)" style="fill: none; stroke: #000000; stroke-width: 0.5; stroke-linecap: square"/>
   </g>
   <g id="line2d_13">
    <path d="M 86.372331 76.087533 
L 100.887531 75.454952 
L 115.402731 74.592861 
L 128.305131 73.615939 
L 137.981931 72.693504 
L 147.658731 71.564272 
L 162.173931 69.828857 
L 167.012331 69.488933 
L 171.850731 69.413637 
L 176.689131 69.645669 
L 187.978731 70.602948 
L 191.204331 70.543976 
L 194.429931 70.150263 
L 197.655531 69.401328 
L 200.881131 68.361425 
L 205.719531 66.663992 
L 207.332331 66.21665 
L 208.945131 65.908176 
L 210.557931 65.7862 
L 212.170731 65.893696 
L 213.783531 66.266716 
L 215.396331 66.932389 
L 217.009131 67.906565 
L 218.621931 69.191054 
L 220.234731 70.771247 
L 221.847531 72.615381 
L 225.073131 76.895231 
L 231.524331 86.034802 
L 233.137131 88.068388 
L 234.749931 89.895574 
L 236.362731 91.484308 
L 237.975531 92.820401 
L 239.588331 93.908131 
L 241.201131 94.767431 
L 242.813931 95.428565 
L 244.426731 95.925989 
L 247.652331 96.554723 
L 250.877931 96.807999 
L 252.490731 96.778858 
L 254.103531 96.60489 
L 255.716331 96.243539 
L 257.329131 95.655449 
L 258.941931 94.815622 
L 260.554731 93.720822 
L 262.167531 92.391199 
L 265.393131 89.199234 
L 273.457131 80.512724 
L 276.682731 77.451101 
L 279.908331 74.731647 
L 283.133931 72.353947 
L 286.359531 70.333738 
L 289.585131 68.73018 
L 291.197931 68.116812 
L 292.810731 67.648985 
L 294.423531 67.340059 
L 296.036331 67.199923 
L 297.649131 67.233438 
L 299.261931 67.438902 
L 300.874731 67.806431 
L 304.100331 68.939182 
L 310.551531 71.705631 
L 313.777131 72.690103 
L 317.002731 73.230496 
L 320.228331 73.45813 
L 325.066731 73.730721 
L 328.292331 74.132958 
L 337.969131 75.761673 
L 341.194731 75.811206 
L 350.871531 75.332316 
L 354.097131 75.622509 
L 358.935531 76.144114 
L 362.161131 76.137624 
L 365.386731 75.759632 
L 370.225131 74.991036 
L 373.450731 74.737112 
L 376.676331 74.767698 
L 381.514731 74.936946 
L 384.740331 74.871105 
L 391.191531 74.593478 
L 394.417131 74.698752 
L 410.545131 76.046487 
L 415.383531 76.744272 
L 425.060331 78.264432 
L 436.349931 79.881912 
L 439.575531 80.005736 
L 442.801131 79.867868 
L 449.252331 79.196415 
L 455.703531 78.620291 
L 460.541931 78.175763 
L 463.767531 77.722394 
L 466.993131 77.094442 
L 473.444331 75.491322 
L 478.282731 74.357864 
L 489.572331 71.890579 
L 491.185131 71.482046 
L 491.185131 71.482046 
" clip-path="url(#p3280983d0e)" style="fill: none; stroke: #000000; stroke-width: 0.5; stroke-linecap: square"/>
   </g>
   <g id="line2d_14">
    <path d="M 247.68 399.6 
L 247.68 -1 
" clip-path="url(#p3280983d0e)" style="fill: none; stroke-dasharray: 1.85,0.8; stroke-dashoffset: 0; stroke: #000000; stroke-width: 0.5"/>
   </g>
   <g id="patch_4">
    <path d="M 86.4 388.8 
L 489.6 388.8 
" style="fill: none; stroke: #000000; stroke-width: 0.8; stroke-linejoin: miter; stroke-linecap: square"/>
   </g>
   <g id="text_22">
    <g id="patch_5">
     <path d="M 385.303194 392.7984 
L 493.5984 392.7984 
L 493.5984 376.4716 
L 385.303194 376.4716 
L 385.303194 392.7984 
z
" style="fill: none"/>
    </g>
    <!-- max|u|: 0.00016538 m -->
    <g transform="translate(389.301594 386.835942) scale(0.0833 -0.0833)">
     <defs>
      <path id="DejaVuSansMono-61" d="M 2194 1759 
L 2003 1759 
Q 1500 1759 1245 1582 
Q 991 1406 991 1056 
Q 991 741 1181 566 
Q 1372 391 1709 391 
Q 2184 391 2456 720 
Q 2728 1050 2731 1631 
L 2731 1759 
L 2194 1759 
z
M 3309 1997 
L 3309 0 
L 2731 0 
L 2731 519 
Q 2547 206 2267 57 
Q 1988 -91 1588 -91 
Q 1053 -91 734 211 
Q 416 513 416 1019 
Q 416 1603 808 1906 
Q 1200 2209 1959 2209 
L 2731 2209 
L 2731 2300 
Q 2728 2719 2518 2908 
Q 2309 3097 1850 3097 
Q 1556 3097 1256 3012 
Q 956 2928 672 2766 
L 672 3341 
Q 991 3463 1283 3523 
Q 1575 3584 1850 3584 
Q 2284 3584 2592 3456 
Q 2900 3328 3091 3072 
Q 3209 2916 3259 2686 
Q 3309 2456 3309 1997 
z
" transform="scale(0.015625)"/>
      <path id="DejaVuSansMono-78" d="M 3494 3500 
L 2241 1825 
L 3616 0 
L 2950 0 
L 1925 1403 
L 903 0 
L 238 0 
L 1613 1825 
L 359 3500 
L 997 3500 
L 1925 2234 
L 2847 3500 
L 3494 3500 
z
" transform="scale(0.015625)"/>
      <path id="DejaVuSansMono-7c" d="M 2194 4891 
L 2194 -1509 
L 1656 -1509 
L 1656 4891 
L 2194 4891 
z
" transform="scale(0.015625)"/>
      <path id="DejaVuSansMono-75" d="M 609 1325 
L 609 3494 
L 1184 3494 
L 1184 1325 
Q 1184 853 1351 631 
Q 1519 409 1869 409 
Q 2275 409 2490 695 
Q 2706 981 2706 1516 
L 2706 3494 
L 3284 3494 
L 3284 0 
L 2706 0 
L 2706 525 
Q 2553 222 2289 65 
Q 2025 -91 1672 -91 
Q 1134 -91 871 261 
Q 609 613 609 1325 
z
" transform="scale(0.015625)"/>
     </defs>
     <use xlink:href="#DejaVuSansMono-6d"/>
     <use xlink:href="#DejaVuSansMono-61" x="60.205078"/>
     <use xlink:href="#DejaVuSansMono-78" x="120.410156"/>
     <use xlink:href="#DejaVuSansMono-7c" x="180.615234"/>
     <use xlink:href="#DejaVuSansMono-75" x="240.820312"/>
     <use xlink:href="#DejaVuSansMono-7c" x="301.025391"/>
     <use xlink:href="#DejaVuSansMono-3a" x="361.230469"/>
     <use xlink:href="#DejaVuSansMono-20" x="421.435547"/>
     <use xlink:href="#DejaVuSansMono-30" x="481.640625"/>
     <use xlink:href="#DejaVuSansMono-2e" x="541.845703"/>
     <use xlink:href="#DejaVuSansMono-30" x="602.050781"/>
     <use xlink:href="#DejaVuSansMono-30" x="662.255859"/>
     <use xlink:href="#DejaVuSansMono-30" x="722.460938"/>
     <use xlink:href="#DejaVuSansMono-31" x="782.666016"/>
     <use xlink:href="#DejaVuSansMono-36" x="842.871094"/>
     <use xlink:href="#DejaVuSansMono-35" x="903.076172"/>
     <use xlink:href="#DejaVuSansMono-33" x="963.28125"/>
     <use xlink:href="#DejaVuSansMono-38" x="1023.486328"/>
     <use xlink:href="#DejaVuSansMono-20" x="1083.691406"/>
     <use xlink:href="#DejaVuSansMono-6d" x="1143.896484"/>
    </g>
   </g>
   <g id="text_23">
    <g id="patch_6">
     <path d="M 82.4 35.278125 
L 96.420312 35.278125 
L 96.420312 17.6 
L 82.4 17.6 
L 82.4 35.278125 
z
" style="fill: none"/>
    </g>
    <!-- Z -->
    <g transform="translate(86.4 29.198438) scale(0.1 -0.1)">
     <defs>
      <path id="DejaVuSansMono-Bold-5a" d="M 428 4666 
L 3584 4666 
L 3584 3903 
L 1422 813 
L 3628 813 
L 3628 0 
L 359 0 
L 359 763 
L 2456 3853 
L 428 3853 
L 428 4666 
z
" transform="scale(0.015625)"/>
     </defs>
     <use xlink:href="#DejaVuSansMono-Bold-5a"/>
    </g>
   </g>
  </g>
 </g>
 <defs>
  <clipPath id="p3280983d0e">
   <rect x="86.4" y="21.6" width="403.2" height="367.2"/>
  </clipPath>
 </defs>
</svg>
