<?xml version="1.0" encoding="utf-8" standalone="no"?>
<!DOCTYPE svg PUBLIC "-//W3C//DTD SVG 1.1//EN"
  "http://www.w3.org/Graphics/SVG/1.1/DTD/svg11.dtd">
<svg xmlns:xlink="http://www.w3.org/1999/xlink" width="576pt" height="306pt" viewBox="0 0 576 306" xmlns="http://www.w3.org/2000/svg" version="1.1">
 <metadata>
  <rdf:RDF xmlns:dc="http://purl.org/dc/elements/1.1/" xmlns:cc="http://creativecommons.org/ns#" xmlns:rdf="http://www.w3.org/1999/02/22-rdf-syntax-ns#">
   <cc:Work>
    <dc:type rdf:resource="http://purl.org/dc/dcmitype/StillImage"/>
    <dc:date>2023-09-22T15:14:56.792574</dc:date>
    <dc:format>image/svg+xml</dc:format>
    <dc:creator>
     <cc:Agent>
      <dc:title>Matplotlib v3.8.0, https://matplotlib.org/</dc:title>
     </cc:Agent>
    </dc:creator>
   </cc:Work>
  </rdf:RDF>
 </metadata>
 <defs>
  <style type="text/css">*{stroke-linejoin: round; stroke-linecap: butt}</style>
 </defs>
 <g id="figure_1">
  <g id="patch_1">
   <path d="M 0 306 
L 576 306 
L 576 0 
L 0 0 
z
" style="fill: #ffffff"/>
  </g>
  <g id="axes_1">
   <g id="patch_2">
    <path d="M 72 272.34 
L 518.4 272.34 
L 518.4 36.72 
L 72 36.72 
z
" style="fill: #ffffff"/>
   </g>
   <g id="patch_3">
    <path d="M 162.740945 308.195217 
L 235.788218 308.195217 
L 235.788218 0.864783 
L 162.740945 0.864783 
z
" clip-path="url(#p7f1258ee30)" style="fill: #e6e6e6"/>
   </g>
   <g id="matplotlib.axis_1">
    <g id="xtick_1">
     <g id="line2d_1">
      <defs>
       <path id="mb1411491d5" d="M 0 0 
L 0 3.5 
" style="stroke: #000000; stroke-width: 0.8"/>
      </defs>
      <g>
       <use xlink:href="#mb1411491d5" x="88.232727" y="272.34" style="stroke: #000000; stroke-width: 0.8"/>
      </g>
     </g>
     <g id="text_1">
      <!-- 10 -->
      <g transform="translate(82.212415 286.991562) scale(0.1 -0.1)">
       <defs>
        <path id="DejaVuSansMono-31" d="M 844 531 
L 1825 531 
L 1825 4097 
L 769 3859 
L 769 4434 
L 1819 4666 
L 2450 4666 
L 2450 531 
L 3419 531 
L 3419 0 
L 844 0 
L 844 531 
z
" transform="scale(0.015625)"/>
        <path id="DejaVuSansMono-30" d="M 1509 2344 
Q 1509 2516 1629 2641 
Q 1750 2766 1919 2766 
Q 2094 2766 2219 2641 
Q 2344 2516 2344 2344 
Q 2344 2169 2220 2047 
Q 2097 1925 1919 1925 
Q 1744 1925 1626 2044 
Q 1509 2163 1509 2344 
z
M 1925 4250 
Q 1484 4250 1267 3775 
Q 1050 3300 1050 2328 
Q 1050 1359 1267 884 
Q 1484 409 1925 409 
Q 2369 409 2586 884 
Q 2803 1359 2803 2328 
Q 2803 3300 2586 3775 
Q 2369 4250 1925 4250 
z
M 1925 4750 
Q 2672 4750 3055 4137 
Q 3438 3525 3438 2328 
Q 3438 1134 3055 521 
Q 2672 -91 1925 -91 
Q 1178 -91 797 521 
Q 416 1134 416 2328 
Q 416 3525 797 4137 
Q 1178 4750 1925 4750 
z
" transform="scale(0.015625)"/>
       </defs>
       <use xlink:href="#DejaVuSansMono-31"/>
       <use xlink:href="#DejaVuSansMono-30" x="60.205078"/>
      </g>
     </g>
    </g>
    <g id="xtick_2">
     <g id="line2d_2">
      <g>
       <use xlink:href="#mb1411491d5" x="185.629091" y="272.34" style="stroke: #000000; stroke-width: 0.8"/>
      </g>
     </g>
     <g id="text_2">
      <!-- 20 -->
      <g transform="translate(179.608778 286.991562) scale(0.1 -0.1)">
       <defs>
        <path id="DejaVuSansMono-32" d="M 1166 531 
L 3309 531 
L 3309 0 
L 475 0 
L 475 531 
Q 1059 1147 1496 1619 
Q 1934 2091 2100 2284 
Q 2413 2666 2522 2902 
Q 2631 3138 2631 3384 
Q 2631 3775 2401 3997 
Q 2172 4219 1772 4219 
Q 1488 4219 1175 4116 
Q 863 4013 513 3803 
L 513 4441 
Q 834 4594 1145 4672 
Q 1456 4750 1759 4750 
Q 2444 4750 2861 4386 
Q 3278 4022 3278 3431 
Q 3278 3131 3139 2831 
Q 3000 2531 2688 2169 
Q 2513 1966 2180 1606 
Q 1847 1247 1166 531 
z
" transform="scale(0.015625)"/>
       </defs>
       <use xlink:href="#DejaVuSansMono-32"/>
       <use xlink:href="#DejaVuSansMono-30" x="60.205078"/>
      </g>
     </g>
    </g>
    <g id="xtick_3">
     <g id="line2d_3">
      <g>
       <use xlink:href="#mb1411491d5" x="283.025455" y="272.34" style="stroke: #000000; stroke-width: 0.8"/>
      </g>
     </g>
     <g id="text_3">
      <!-- 30 -->
      <g transform="translate(277.005142 286.991562) scale(0.1 -0.1)">
       <defs>
        <path id="DejaVuSansMono-33" d="M 2425 2497 
Q 2884 2375 3128 2064 
Q 3372 1753 3372 1288 
Q 3372 644 2939 276 
Q 2506 -91 1741 -91 
Q 1419 -91 1084 -31 
Q 750 28 428 141 
L 428 769 
Q 747 603 1056 522 
Q 1366 441 1672 441 
Q 2191 441 2469 675 
Q 2747 909 2747 1350 
Q 2747 1756 2469 1995 
Q 2191 2234 1716 2234 
L 1234 2234 
L 1234 2753 
L 1716 2753 
Q 2150 2753 2394 2943 
Q 2638 3134 2638 3475 
Q 2638 3834 2411 4026 
Q 2184 4219 1766 4219 
Q 1488 4219 1191 4156 
Q 894 4094 569 3969 
L 569 4550 
Q 947 4650 1242 4700 
Q 1538 4750 1766 4750 
Q 2447 4750 2855 4408 
Q 3263 4066 3263 3500 
Q 3263 3116 3048 2859 
Q 2834 2603 2425 2497 
z
" transform="scale(0.015625)"/>
       </defs>
       <use xlink:href="#DejaVuSansMono-33"/>
       <use xlink:href="#DejaVuSansMono-30" x="60.205078"/>
      </g>
     </g>
    </g>
    <g id="xtick_4">
     <g id="line2d_4">
      <g>
       <use xlink:href="#mb1411491d5" x="380.421818" y="272.34" style="stroke: #000000; stroke-width: 0.8"/>
      </g>
     </g>
     <g id="text_4">
      <!-- 40 -->
      <g transform="translate(374.401506 286.991562) scale(0.1 -0.1)">
       <defs>
        <path id="DejaVuSansMono-34" d="M 2297 4091 
L 825 1625 
L 2297 1625 
L 2297 4091 
z
M 2194 4666 
L 2925 4666 
L 2925 1625 
L 3547 1625 
L 3547 1113 
L 2925 1113 
L 2925 0 
L 2297 0 
L 2297 1113 
L 319 1113 
L 319 1709 
L 2194 4666 
z
" transform="scale(0.015625)"/>
       </defs>
       <use xlink:href="#DejaVuSansMono-34"/>
       <use xlink:href="#DejaVuSansMono-30" x="60.205078"/>
      </g>
     </g>
    </g>
    <g id="xtick_5">
     <g id="line2d_5">
      <g>
       <use xlink:href="#mb1411491d5" x="477.818182" y="272.34" style="stroke: #000000; stroke-width: 0.8"/>
      </g>
     </g>
     <g id="text_5">
      <!-- 50 -->
      <g transform="translate(471.797869 286.991562) scale(0.1 -0.1)">
       <defs>
        <path id="DejaVuSansMono-35" d="M 647 4666 
L 3009 4666 
L 3009 4134 
L 1222 4134 
L 1222 2988 
Q 1356 3038 1492 3061 
Q 1628 3084 1766 3084 
Q 2491 3084 2916 2656 
Q 3341 2228 3341 1497 
Q 3341 759 2895 334 
Q 2450 -91 1678 -91 
Q 1306 -91 998 -41 
Q 691 9 447 109 
L 447 750 
Q 734 594 1025 517 
Q 1316 441 1619 441 
Q 2141 441 2423 716 
Q 2706 991 2706 1497 
Q 2706 1997 2414 2275 
Q 2122 2553 1600 2553 
Q 1347 2553 1106 2495 
Q 866 2438 647 2322 
L 647 4666 
z
" transform="scale(0.015625)"/>
       </defs>
       <use xlink:href="#DejaVuSansMono-35"/>
       <use xlink:href="#DejaVuSansMono-30" x="60.205078"/>
      </g>
     </g>
    </g>
    <g id="text_6">
     <!-- Time since origin [min] -->
     <g transform="translate(225.966406 300.669688) scale(0.1 -0.1)">
      <defs>
       <path id="DejaVuSansMono-54" d="M 147 4666 
L 3706 4666 
L 3706 4134 
L 2247 4134 
L 2247 0 
L 1613 0 
L 1613 4134 
L 147 4134 
L 147 4666 
z
" transform="scale(0.015625)"/>
       <path id="DejaVuSansMono-69" d="M 800 3500 
L 2272 3500 
L 2272 447 
L 3413 447 
L 3413 0 
L 556 0 
L 556 447 
L 1697 447 
L 1697 3053 
L 800 3053 
L 800 3500 
z
M 1697 4863 
L 2272 4863 
L 2272 4134 
L 1697 4134 
L 1697 4863 
z
" transform="scale(0.015625)"/>
       <path id="DejaVuSansMono-6d" d="M 2113 3144 
Q 2219 3369 2383 3476 
Q 2547 3584 2778 3584 
Q 3200 3584 3373 3257 
Q 3547 2931 3547 2028 
L 3547 0 
L 3022 0 
L 3022 2003 
Q 3022 2744 2939 2923 
Q 2856 3103 2638 3103 
Q 2388 3103 2295 2911 
Q 2203 2719 2203 2003 
L 2203 0 
L 1678 0 
L 1678 2003 
Q 1678 2753 1589 2928 
Q 1500 3103 1269 3103 
Q 1041 3103 952 2911 
Q 863 2719 863 2003 
L 863 0 
L 341 0 
L 341 3500 
L 863 3500 
L 863 3200 
Q 966 3388 1120 3486 
Q 1275 3584 1472 3584 
Q 1709 3584 1867 3475 
Q 2025 3366 2113 3144 
z
" transform="scale(0.015625)"/>
       <path id="DejaVuSansMono-65" d="M 3475 1894 
L 3475 1613 
L 984 1613 
L 984 1594 
Q 984 1022 1282 709 
Q 1581 397 2125 397 
Q 2400 397 2700 484 
Q 3000 572 3341 750 
L 3341 178 
Q 3013 44 2708 -23 
Q 2403 -91 2119 -91 
Q 1303 -91 843 398 
Q 384 888 384 1747 
Q 384 2584 834 3084 
Q 1284 3584 2034 3584 
Q 2703 3584 3089 3131 
Q 3475 2678 3475 1894 
z
M 2900 2063 
Q 2888 2569 2661 2833 
Q 2434 3097 2009 3097 
Q 1594 3097 1325 2822 
Q 1056 2547 1006 2059 
L 2900 2063 
z
" transform="scale(0.015625)"/>
       <path id="DejaVuSansMono-20" transform="scale(0.015625)"/>
       <path id="DejaVuSansMono-73" d="M 3041 3378 
L 3041 2816 
Q 2794 2959 2544 3031 
Q 2294 3103 2034 3103 
Q 1644 3103 1451 2976 
Q 1259 2850 1259 2591 
Q 1259 2356 1403 2240 
Q 1547 2125 2119 2016 
L 2350 1972 
Q 2778 1891 2998 1647 
Q 3219 1403 3219 1013 
Q 3219 494 2850 201 
Q 2481 -91 1825 -91 
Q 1566 -91 1281 -36 
Q 997 19 666 128 
L 666 722 
Q 988 556 1281 473 
Q 1575 391 1838 391 
Q 2219 391 2428 545 
Q 2638 700 2638 978 
Q 2638 1378 1872 1531 
L 1847 1538 
L 1631 1581 
Q 1134 1678 906 1908 
Q 678 2138 678 2534 
Q 678 3038 1018 3311 
Q 1359 3584 1991 3584 
Q 2272 3584 2531 3532 
Q 2791 3481 3041 3378 
z
" transform="scale(0.015625)"/>
       <path id="DejaVuSansMono-6e" d="M 3284 2169 
L 3284 0 
L 2706 0 
L 2706 2169 
Q 2706 2641 2540 2862 
Q 2375 3084 2022 3084 
Q 1619 3084 1401 2798 
Q 1184 2513 1184 1978 
L 1184 0 
L 609 0 
L 609 3500 
L 1184 3500 
L 1184 2975 
Q 1338 3275 1600 3429 
Q 1863 3584 2222 3584 
Q 2756 3584 3020 3232 
Q 3284 2881 3284 2169 
z
" transform="scale(0.015625)"/>
       <path id="DejaVuSansMono-63" d="M 3316 178 
Q 3084 44 2839 -23 
Q 2594 -91 2338 -91 
Q 1525 -91 1067 396 
Q 609 884 609 1747 
Q 609 2609 1067 3096 
Q 1525 3584 2338 3584 
Q 2591 3584 2831 3518 
Q 3072 3453 3316 3316 
L 3316 2713 
Q 3088 2916 2858 3006 
Q 2628 3097 2338 3097 
Q 1797 3097 1506 2747 
Q 1216 2397 1216 1747 
Q 1216 1100 1508 748 
Q 1800 397 2338 397 
Q 2638 397 2875 489 
Q 3113 581 3316 775 
L 3316 178 
z
" transform="scale(0.015625)"/>
       <path id="DejaVuSansMono-6f" d="M 1925 3097 
Q 1488 3097 1263 2756 
Q 1038 2416 1038 1747 
Q 1038 1081 1263 739 
Q 1488 397 1925 397 
Q 2366 397 2591 739 
Q 2816 1081 2816 1747 
Q 2816 2416 2591 2756 
Q 2366 3097 1925 3097 
z
M 1925 3584 
Q 2653 3584 3039 3112 
Q 3425 2641 3425 1747 
Q 3425 850 3040 379 
Q 2656 -91 1925 -91 
Q 1197 -91 812 379 
Q 428 850 428 1747 
Q 428 2641 812 3112 
Q 1197 3584 1925 3584 
z
" transform="scale(0.015625)"/>
       <path id="DejaVuSansMono-72" d="M 3609 2778 
Q 3425 2922 3234 2987 
Q 3044 3053 2816 3053 
Q 2278 3053 1993 2715 
Q 1709 2378 1709 1741 
L 1709 0 
L 1131 0 
L 1131 3500 
L 1709 3500 
L 1709 2816 
Q 1853 3188 2151 3386 
Q 2450 3584 2859 3584 
Q 3072 3584 3256 3531 
Q 3441 3478 3609 3366 
L 3609 2778 
z
" transform="scale(0.015625)"/>
       <path id="DejaVuSansMono-67" d="M 2681 1778 
Q 2681 2425 2470 2761 
Q 2259 3097 1856 3097 
Q 1434 3097 1212 2761 
Q 991 2425 991 1778 
Q 991 1131 1214 792 
Q 1438 453 1863 453 
Q 2259 453 2470 793 
Q 2681 1134 2681 1778 
z
M 3256 225 
Q 3256 -563 2884 -969 
Q 2513 -1375 1791 -1375 
Q 1553 -1375 1293 -1331 
Q 1034 -1288 775 -1203 
L 775 -634 
Q 1081 -778 1331 -847 
Q 1581 -916 1791 -916 
Q 2256 -916 2468 -662 
Q 2681 -409 2681 141 
L 2681 166 
L 2681 556 
Q 2544 263 2306 119 
Q 2069 -25 1728 -25 
Q 1116 -25 750 465 
Q 384 956 384 1778 
Q 384 2603 750 3093 
Q 1116 3584 1728 3584 
Q 2066 3584 2300 3450 
Q 2534 3316 2681 3034 
L 2681 3488 
L 3256 3488 
L 3256 225 
z
" transform="scale(0.015625)"/>
       <path id="DejaVuSansMono-5b" d="M 1447 4863 
L 2772 4863 
L 2772 4416 
L 2022 4416 
L 2022 -397 
L 2772 -397 
L 2772 -844 
L 1447 -844 
L 1447 4863 
z
" transform="scale(0.015625)"/>
       <path id="DejaVuSansMono-5d" d="M 2406 4863 
L 2406 -844 
L 1081 -844 
L 1081 -397 
L 1831 -397 
L 1831 4416 
L 1081 4416 
L 1081 4863 
L 2406 4863 
z
" transform="scale(0.015625)"/>
      </defs>
      <use xlink:href="#DejaVuSansMono-54"/>
      <use xlink:href="#DejaVuSansMono-69" x="60.205078"/>
      <use xlink:href="#DejaVuSansMono-6d" x="120.410156"/>
      <use xlink:href="#DejaVuSansMono-65" x="180.615234"/>
      <use xlink:href="#DejaVuSansMono-20" x="240.820312"/>
      <use xlink:href="#DejaVuSansMono-73" x="301.025391"/>
      <use xlink:href="#DejaVuSansMono-69" x="361.230469"/>
      <use xlink:href="#DejaVuSansMono-6e" x="421.435547"/>
      <use xlink:href="#DejaVuSansMono-63" x="481.640625"/>
      <use xlink:href="#DejaVuSansMono-65" x="541.845703"/>
      <use xlink:href="#DejaVuSansMono-20" x="602.050781"/>
      <use xlink:href="#DejaVuSansMono-6f" x="662.255859"/>
      <use xlink:href="#DejaVuSansMono-72" x="722.460938"/>
      <use xlink:href="#DejaVuSansMono-69" x="782.666016"/>
      <use xlink:href="#DejaVuSansMono-67" x="842.871094"/>
      <use xlink:href="#DejaVuSansMono-69" x="903.076172"/>
      <use xlink:href="#DejaVuSansMono-6e" x="963.28125"/>
      <use xlink:href="#DejaVuSansMono-20" x="1023.486328"/>
      <use xlink:href="#DejaVuSansMono-5b" x="1083.691406"/>
      <use xlink:href="#DejaVuSansMono-6d" x="1143.896484"/>
      <use xlink:href="#DejaVuSansMono-69" x="1204.101562"/>
      <use xlink:href="#DejaVuSansMono-6e" x="1264.306641"/>
      <use xlink:href="#DejaVuSansMono-5d" x="1324.511719"/>
     </g>
    </g>
   </g>
   <g id="matplotlib.axis_2">
    <g id="ytick_1"/>
    <g id="ytick_2"/>
    <g id="ytick_3"/>
    <g id="ytick_4"/>
    <g id="ytick_5"/>
    <g id="ytick_6"/>
    <g id="ytick_7"/>
   </g>
   <g id="line2d_6">
    <path d="M 71.837673 154.600773 
L 94.076509 154.611217 
L 94.888145 154.284866 
L 95.699782 153.701946 
L 96.836073 152.548272 
L 98.459345 150.847953 
L 99.108655 150.481249 
L 99.433309 150.496757 
L 99.757964 150.713271 
L 100.082618 151.178001 
L 100.5696 152.358738 
L 101.543564 155.750081 
L 102.3552 158.238282 
L 103.004509 159.64944 
L 103.491491 160.37258 
L 103.816145 160.63836 
L 104.1408 160.679078 
L 104.465455 160.488836 
L 104.952436 159.817043 
L 105.764073 158.114742 
L 107.387345 154.585212 
L 108.036655 153.634455 
L 108.523636 153.260252 
L 109.010618 153.199537 
L 109.822255 153.454603 
L 112.744145 154.440762 
L 115.179055 154.203009 
L 118.4256 153.18638 
L 119.237236 153.299987 
L 120.2112 153.670075 
L 121.672145 154.250679 
L 122.646109 154.389513 
L 123.295418 154.271159 
L 123.944727 153.911171 
L 124.918691 153.040165 
L 126.541964 151.528091 
L 127.191273 151.22473 
L 127.678255 151.249937 
L 128.165236 151.481072 
L 128.814545 152.070767 
L 129.626182 153.204517 
L 131.411782 155.870245 
L 132.223418 156.597482 
L 132.872727 156.87497 
L 133.522036 156.882771 
L 134.496 156.615503 
L 135.632291 156.294155 
L 136.443927 156.315944 
L 140.015127 156.730098 
L 141.313745 156.206395 
L 142.125382 155.726671 
L 142.937018 154.949678 
L 144.235636 153.613591 
L 144.722618 153.414129 
L 145.371927 153.46753 
L 146.670545 153.924951 
L 147.806836 154.554295 
L 148.618473 154.948133 
L 149.430109 155.092032 
L 150.241745 155.043183 
L 151.215709 154.707478 
L 152.027345 154.517842 
L 153.488291 154.36568 
L 154.786909 154.044404 
L 156.734836 154.014887 
L 158.682764 154.214238 
L 159.656727 154.028546 
L 160.630691 153.650663 
L 162.091636 152.969916 
L 162.740945 152.925505 
L 163.552582 153.131952 
L 165.175855 153.670989 
L 167.123782 153.938464 
L 169.234036 154.132628 
L 173.292218 155.115512 
L 174.428509 155.490128 
L 176.376436 155.81798 
L 178.811345 156.269716 
L 179.785309 156.331543 
L 180.759273 156.167616 
L 181.733236 155.716767 
L 184.655127 153.945172 
L 185.629091 152.971356 
L 188.550982 149.624318 
L 189.362618 149.136752 
L 190.011927 148.992869 
L 190.823564 149.061131 
L 192.122182 149.258444 
L 193.4208 149.275996 
L 193.745455 149.467803 
L 194.070109 149.848535 
L 194.557091 150.874477 
L 195.044073 152.458272 
L 195.855709 156.055305 
L 198.290618 167.900139 
L 198.7776 168.862326 
L 199.102255 169.147982 
L 199.589236 169.210304 
L 200.887855 168.830398 
L 201.537164 168.507668 
L 202.024145 167.915214 
L 202.511127 166.818611 
L 202.998109 165.122763 
L 203.647418 162.037484 
L 205.757673 151.188329 
L 206.406982 149.258293 
L 206.893964 148.552753 
L 207.218618 148.423362 
L 207.543273 148.517939 
L 208.030255 148.968359 
L 209.166545 150.213179 
L 209.4912 150.294082 
L 209.815855 150.172759 
L 210.140509 149.822783 
L 210.627491 148.884592 
L 211.601455 146.170083 
L 212.413091 144.224119 
L 212.900073 143.49838 
L 213.387055 143.165707 
L 213.711709 143.176137 
L 214.198691 143.504782 
L 214.685673 144.146406 
L 215.334982 145.362944 
L 216.308945 147.672313 
L 219.393164 155.45296 
L 220.042473 156.349349 
L 220.529455 156.723656 
L 221.016436 156.806686 
L 221.503418 156.577524 
L 221.9904 156.047793 
L 223.613673 153.916783 
L 224.262982 153.596599 
L 225.074618 153.516881 
L 225.886255 153.703012 
L 227.834182 154.478163 
L 228.970473 154.312647 
L 230.9184 154.028488 
L 231.405382 154.236268 
L 232.054691 154.768157 
L 233.028655 155.861467 
L 233.840291 157.101932 
L 234.814255 159.100799 
L 236.762182 163.60546 
L 237.573818 165.311054 
L 237.898473 165.6692 
L 238.223127 165.768781 
L 238.547782 165.623335 
L 238.872436 165.244865 
L 239.359418 164.305189 
L 240.008727 162.440884 
L 240.820364 159.307855 
L 242.118982 154.14652 
L 242.768291 152.512107 
L 243.255273 151.84552 
L 243.742255 151.553116 
L 244.391564 151.47314 
L 245.365527 151.389936 
L 246.014836 151.107402 
L 246.501818 150.648163 
L 246.9888 149.88027 
L 247.638109 148.352557 
L 248.936727 145.083925 
L 249.261382 144.7128 
L 249.586036 144.668171 
L 249.910691 144.949261 
L 250.397673 145.927034 
L 251.046982 147.908751 
L 252.670255 153.087615 
L 253.481891 154.893489 
L 254.780509 157.179088 
L 256.241455 159.356525 
L 257.215418 160.453295 
L 259.001018 162.311137 
L 259.974982 163.329873 
L 260.624291 163.678705 
L 261.111273 163.668253 
L 261.598255 163.396412 
L 262.085236 162.868677 
L 262.734545 161.811104 
L 263.708509 159.661208 
L 265.494109 155.056796 
L 267.279709 149.777271 
L 269.227636 143.825788 
L 269.714618 142.94722 
L 270.039273 142.650621 
L 270.363927 142.606012 
L 270.688582 142.786549 
L 271.175564 143.416992 
L 271.824873 144.72591 
L 272.636509 146.935294 
L 273.448145 149.822313 
L 275.883055 159.393716 
L 276.370036 160.408719 
L 276.857018 161.034432 
L 277.506327 161.526374 
L 278.317964 161.867998 
L 278.804945 161.832749 
L 279.291927 161.530017 
L 279.778909 160.936584 
L 280.428218 159.684358 
L 281.239855 157.473926 
L 282.7008 152.636214 
L 284.161745 147.945643 
L 284.811055 146.579895 
L 285.298036 146.002308 
L 285.785018 145.740284 
L 286.272 145.741588 
L 286.596655 145.91314 
L 287.083636 146.506877 
L 287.570618 147.5411 
L 288.382255 149.976073 
L 289.518545 153.379972 
L 290.005527 154.313105 
L 290.330182 154.639575 
L 290.654836 154.670092 
L 290.979491 154.37889 
L 291.304145 153.735024 
L 291.791127 152.140092 
L 292.602764 148.36358 
L 293.576727 143.904156 
L 294.226036 141.987122 
L 294.713018 141.297246 
L 295.037673 141.179647 
L 295.362327 141.291815 
L 295.849309 141.833522 
L 296.336291 142.774544 
L 296.823273 144.138239 
L 297.472582 146.766717 
L 298.121891 150.508037 
L 298.933527 156.67834 
L 300.719127 171.373437 
L 301.206109 173.704501 
L 301.530764 174.528744 
L 301.855418 174.80714 
L 302.180073 174.649474 
L 302.504727 174.171402 
L 302.991709 173.046901 
L 303.641018 170.955958 
L 304.452655 167.489474 
L 305.588945 162.664866 
L 306.238255 160.775509 
L 308.186182 155.982538 
L 308.835491 152.949218 
L 309.647127 147.619734 
L 310.783418 139.880747 
L 311.2704 137.81505 
L 311.595055 137.101344 
L 311.757382 136.952869 
L 311.919709 136.961189 
L 312.082036 137.089952 
L 312.406691 137.786619 
L 312.731345 139.05947 
L 313.218327 142.071841 
L 313.867636 148.073046 
L 314.679273 158.034988 
L 316.464873 181.194181 
L 317.114182 186.635087 
L 317.601164 188.797984 
L 317.925818 189.315373 
L 318.088145 189.300566 
L 318.250473 189.147767 
L 318.575127 188.384564 
L 319.062109 186.216991 
L 319.549091 182.834254 
L 320.1984 176.308865 
L 320.847709 167.480204 
L 321.821673 150.598857 
L 323.607273 117.899768 
L 324.094255 112.296527 
L 324.418909 110.049479 
L 324.743564 109.153619 
L 324.905891 109.247929 
L 325.068218 109.675375 
L 325.392873 111.613824 
L 325.879855 117.029183 
L 326.529164 128.052996 
L 327.990109 159.462254 
L 328.964073 177.657853 
L 329.613382 186.213986 
L 330.262691 191.682136 
L 330.912 194.964046 
L 332.048291 200.00988 
L 332.859927 205.259242 
L 333.509236 209.324097 
L 333.833891 210.585235 
L 333.996218 210.878142 
L 334.158545 210.85113 
L 334.320873 210.535905 
L 334.645527 208.721602 
L 334.970182 205.13366 
L 335.457164 196.019442 
L 335.944145 182.294354 
L 336.593455 157.615083 
L 338.866036 62.815698 
L 339.353018 54.012534 
L 339.677673 52.086522 
L 339.84 52.303899 
L 340.002327 53.204578 
L 340.326982 57.004149 
L 340.813964 66.462315 
L 342.274909 98.688455 
L 342.761891 103.659581 
L 342.924218 104.321899 
L 343.086545 104.422863 
L 343.248873 104.125185 
L 343.573527 102.243574 
L 344.060509 97.298442 
L 344.709818 90.442684 
L 345.034473 88.624457 
L 345.1968 88.491695 
L 345.359127 88.849409 
L 345.683782 91.487945 
L 346.008436 96.781314 
L 346.495418 109.428767 
L 347.307055 138.796339 
L 348.281018 173.224449 
L 348.930327 188.13269 
L 349.417309 193.949593 
L 349.741964 195.560271 
L 349.904291 195.8098 
L 350.066618 195.760367 
L 350.391273 195.099705 
L 351.040582 193.408381 
L 351.202909 193.356158 
L 351.365236 193.527208 
L 351.689891 194.82758 
L 352.014545 197.522089 
L 352.501527 204.025178 
L 353.962473 227.065618 
L 354.287127 229.189841 
L 354.449455 229.49177 
L 354.611782 229.299144 
L 354.774109 228.616425 
L 355.098764 225.788678 
L 355.585745 218.572182 
L 357.046691 193.965271 
L 357.371345 191.67804 
L 357.533673 191.199998 
L 357.696 191.209269 
L 357.858327 191.552448 
L 358.182982 193.282026 
L 359.319273 201.72375 
L 359.4816 202.162362 
L 359.643927 202.157185 
L 359.806255 201.801086 
L 360.130909 199.725933 
L 360.455564 195.950258 
L 361.104873 184.477763 
L 362.403491 159.172634 
L 362.890473 152.909419 
L 363.377455 148.999944 
L 363.864436 146.905567 
L 364.513745 145.447144 
L 365.000727 144.306853 
L 365.487709 142.546864 
L 365.974691 139.974864 
L 366.786327 134.142157 
L 367.922618 125.758983 
L 368.4096 123.730559 
L 368.734255 123.278967 
L 368.896582 123.336517 
L 369.221236 123.943668 
L 369.708218 125.757999 
L 370.357527 128.36282 
L 370.682182 129.095297 
L 370.844509 129.226414 
L 371.006836 129.187209 
L 371.331491 128.662071 
L 371.818473 127.047676 
L 372.467782 124.880302 
L 372.792436 124.412529 
L 372.954764 124.425256 
L 373.117091 124.576751 
L 373.441745 125.348577 
L 373.928727 127.336541 
L 374.740364 130.800129 
L 375.227345 131.855764 
L 375.552 132.07462 
L 376.201309 132.162543 
L 376.525964 132.535562 
L 376.850618 133.408554 
L 377.3376 135.806008 
L 378.149236 141.728306 
L 378.798545 146.04043 
L 379.285527 147.969144 
L 379.610182 148.566365 
L 379.934836 148.754988 
L 380.584145 148.82396 
L 380.9088 149.206809 
L 381.233455 150.067696 
L 381.720436 152.302543 
L 383.019055 159.146226 
L 383.343709 159.730083 
L 383.506036 159.741897 
L 383.668364 159.627623 
L 383.993018 158.98113 
L 385.129309 156.046033 
L 385.291636 156.040498 
L 385.453964 156.179147 
L 385.778618 157.036306 
L 386.2656 159.563317 
L 387.401891 166.479295 
L 387.726545 167.197435 
L 387.888873 167.179827 
L 388.0512 166.96106 
L 388.375855 165.88046 
L 389.512145 160.681705 
L 389.674473 160.543058 
L 389.8368 160.664678 
L 390.161455 161.741148 
L 390.648436 165.05998 
L 391.460073 171.157067 
L 391.784727 172.323542 
L 391.947055 172.466324 
L 392.109382 172.345117 
L 392.434036 171.36426 
L 393.083345 167.793928 
L 393.570327 165.502404 
L 393.894982 164.750562 
L 394.057309 164.637374 
L 394.381964 164.822951 
L 395.1936 165.911479 
L 395.355927 165.899804 
L 395.518255 165.7705 
L 395.842909 165.089424 
L 396.492218 162.715416 
L 396.9792 161.263999 
L 397.303855 160.932731 
L 397.628509 161.123491 
L 398.440145 162.085041 
L 398.602473 161.97871 
L 398.927127 161.136486 
L 399.251782 159.413033 
L 400.063418 152.892025 
L 400.5504 149.810483 
L 400.875055 148.968083 
L 401.037382 148.994234 
L 401.199709 149.250841 
L 401.524364 150.447014 
L 402.498327 155.227393 
L 402.822982 155.794848 
L 402.985309 155.752418 
L 403.309964 155.121614 
L 403.796945 153.229091 
L 404.446255 150.875553 
L 404.770909 150.460544 
L 404.933236 150.503288 
L 405.257891 151.010431 
L 405.9072 152.977274 
L 406.394182 154.170283 
L 406.718836 154.429553 
L 407.043491 154.206593 
L 407.368145 153.572063 
L 408.829091 150.018261 
L 409.153745 149.743488 
L 409.4784 149.688619 
L 409.965382 149.878657 
L 411.750982 150.95821 
L 413.0496 151.047442 
L 413.374255 151.412508 
L 413.698909 152.08094 
L 414.185891 153.631427 
L 414.997527 156.448278 
L 415.322182 156.976722 
L 415.484509 156.981142 
L 415.646836 156.845244 
L 415.971491 156.047089 
L 416.458473 153.906456 
L 417.107782 150.894464 
L 417.432436 150.014131 
L 417.757091 149.761148 
L 418.081745 150.03676 
L 419.218036 151.899284 
L 419.542691 151.900421 
L 420.029673 151.510109 
L 420.516655 151.148379 
L 420.841309 151.183594 
L 421.165964 151.496968 
L 421.652945 152.370742 
L 422.464582 153.905349 
L 423.113891 154.634386 
L 423.7632 155.345863 
L 424.412509 156.461513 
L 425.061818 157.542121 
L 425.386473 157.778597 
L 425.711127 157.695976 
L 426.035782 157.3046 
L 426.685091 155.953443 
L 427.172073 155.028659 
L 427.496727 154.697637 
L 427.821382 154.653448 
L 428.146036 154.842626 
L 429.12 155.740104 
L 429.444655 155.757935 
L 429.769309 155.548396 
L 430.256291 154.885312 
L 431.392582 153.153032 
L 432.6912 151.848944 
L 433.015855 151.657111 
L 433.340509 151.711724 
L 433.665164 152.109892 
L 434.152145 153.381289 
L 434.963782 155.850756 
L 435.288436 156.210467 
L 435.450764 156.169306 
L 435.775418 155.698649 
L 436.911709 153.175418 
L 437.074036 153.179875 
L 437.398691 153.545031 
L 437.885673 154.759391 
L 438.372655 155.95702 
L 438.697309 156.362066 
L 439.021964 156.359584 
L 439.508945 155.859249 
L 439.995927 155.341764 
L 440.320582 155.243491 
L 440.645236 155.349268 
L 441.294545 155.692026 
L 441.6192 155.609944 
L 441.943855 155.255632 
L 443.080145 153.42823 
L 443.4048 153.413607 
L 443.729455 153.727504 
L 444.865745 155.432356 
L 445.1904 155.49615 
L 445.515055 155.33698 
L 446.651345 154.449626 
L 447.300655 154.314441 
L 448.112291 154.3147 
L 448.599273 154.516012 
L 449.248582 155.142504 
L 450.060218 155.95444 
L 451.521164 156.949577 
L 452.3328 157.819677 
L 452.657455 157.828353 
L 452.982109 157.524277 
L 454.1184 155.688407 
L 454.443055 155.744034 
L 454.767709 156.166005 
L 455.579345 157.459336 
L 455.904 157.382634 
L 456.228655 156.807504 
L 457.527273 153.488424 
L 457.851927 153.529826 
L 458.338909 154.182222 
L 458.825891 154.788939 
L 459.150545 154.801116 
L 459.4752 154.467956 
L 460.286836 153.238036 
L 460.611491 153.1379 
L 460.936145 153.345217 
L 461.910109 154.395219 
L 462.234764 154.404729 
L 463.371055 154.07675 
L 464.345018 154.426823 
L 464.669673 154.151029 
L 465.156655 153.222086 
L 465.805964 151.983742 
L 466.130618 151.867413 
L 466.455273 152.174454 
L 467.591564 154.074904 
L 467.916218 153.927624 
L 468.240873 153.395386 
L 469.052509 151.844305 
L 469.377164 151.769201 
L 469.701818 152.123069 
L 470.838109 154.124206 
L 471.162764 153.995393 
L 471.487418 153.484412 
L 472.136727 152.228009 
L 472.461382 152.039584 
L 472.623709 152.118819 
L 472.948364 152.636556 
L 473.922327 154.853347 
L 474.246982 154.963753 
L 474.571636 154.686753 
L 475.383273 153.6796 
L 475.707927 153.670857 
L 476.681891 154.053029 
L 477.006545 153.696136 
L 478.142836 151.712477 
L 478.467491 151.85856 
L 478.792145 152.443885 
L 479.928436 155.122583 
L 480.415418 155.521003 
L 481.227055 155.938989 
L 482.363345 156.855591 
L 482.688 156.737305 
L 483.174982 156.155816 
L 483.824291 155.331403 
L 484.148945 155.235132 
L 484.4736 155.404685 
L 485.609891 156.475775 
L 485.934545 156.318357 
L 486.421527 155.64513 
L 486.908509 154.944532 
L 487.233164 154.742946 
L 487.557818 154.832717 
L 488.0448 155.344718 
L 488.531782 155.860745 
L 488.856436 155.997486 
L 489.343418 155.872846 
L 489.992727 155.666884 
L 490.317382 155.784387 
L 491.616 156.706198 
L 491.940655 156.532411 
L 492.914618 155.777104 
L 493.239273 155.880649 
L 494.213236 156.66781 
L 494.537891 156.548367 
L 494.862545 156.114279 
L 496.161164 153.811284 
L 496.485818 153.771806 
L 496.810473 153.960777 
L 497.784436 154.723858 
L 498.109091 154.719863 
L 498.596073 154.407756 
L 499.245382 153.598153 
L 500.057018 152.58209 
L 500.381673 152.426483 
L 500.706327 152.506715 
L 501.193309 152.987961 
L 501.842618 153.61361 
L 502.167273 153.600287 
L 502.491927 153.33819 
L 503.303564 152.423006 
L 503.628218 152.326357 
L 504.1152 152.511254 
L 504.764509 152.80538 
L 506.063127 152.943803 
L 506.712436 153.637237 
L 507.199418 154.070279 
L 507.524073 154.153558 
L 508.822691 154.07027 
L 509.958982 154.659742 
L 510.445964 154.509589 
L 511.2576 154.163273 
L 511.744582 154.301187 
L 512.556218 154.734475 
L 513.0432 154.679181 
L 514.017164 154.340762 
L 514.341818 154.504363 
L 514.8288 155.057538 
L 515.478109 155.80073 
L 515.802764 155.936351 
L 516.289745 155.808482 
L 516.939055 155.516646 
L 517.263709 155.562694 
L 517.750691 155.960398 
L 518.562327 156.873933 
L 518.562327 156.873933 
" clip-path="url(#p7f1258ee30)" style="fill: none; stroke: #000000; stroke-width: 0.75; stroke-linecap: square"/>
   </g>
   <g id="line2d_7">
    <path d="M 71.837673 154.581516 
L 95.2128 154.494706 
L 95.862109 154.126204 
L 96.511418 153.488843 
L 97.160727 152.554116 
L 98.134691 150.715783 
L 99.108655 148.874504 
L 99.757964 148.116057 
L 100.407273 148.141589 
L 100.5696 148.221121 
L 100.894255 148.740714 
L 101.381236 149.896274 
L 102.030545 152.209912 
L 104.1408 160.816942 
L 104.790109 162.036657 
L 105.277091 162.044557 
L 105.601745 161.966137 
L 105.9264 161.487649 
L 106.738036 159.620782 
L 108.523636 155.161549 
L 109.172945 154.197513 
L 109.822255 153.665992 
L 110.471564 153.485104 
L 111.2832 153.54325 
L 114.8544 154.138056 
L 116.153018 154.025547 
L 119.074909 153.661094 
L 120.373527 153.835712 
L 123.457745 154.528408 
L 124.269382 154.344662 
L 125.081018 153.841835 
L 125.892655 153.044591 
L 127.840582 150.945639 
L 128.327564 150.712368 
L 128.814545 150.763637 
L 129.301527 151.002535 
L 129.950836 151.781081 
L 130.762473 153.229121 
L 132.548073 156.602451 
L 133.197382 157.407524 
L 133.846691 157.892712 
L 134.496 158.092595 
L 135.307636 158.086244 
L 138.391855 157.869425 
L 140.664436 158.10558 
L 141.476073 157.912476 
L 142.287709 157.453531 
L 143.261673 156.595593 
L 145.047273 154.880946 
L 145.696582 154.513334 
L 146.345891 154.378076 
L 147.157527 154.499531 
L 148.456145 155.12795 
L 149.592436 155.601136 
L 150.404073 155.719458 
L 151.378036 155.64706 
L 152.838982 155.259704 
L 155.9232 154.391534 
L 157.871127 154.127283 
L 159.656727 153.836741 
L 160.955345 153.376865 
L 164.526545 151.908147 
L 165.825164 151.72036 
L 167.286109 151.755103 
L 168.584727 152.009588 
L 169.883345 152.491315 
L 174.590836 154.530966 
L 180.272291 155.993137 
L 181.733236 155.962143 
L 183.681164 155.690885 
L 184.655127 155.347259 
L 185.466764 154.808567 
L 186.2784 153.948979 
L 187.090036 152.728626 
L 188.064 150.82522 
L 190.823564 145.104629 
L 191.310545 144.517551 
L 191.959855 144.220105 
L 192.284509 144.269337 
L 192.771491 144.622521 
L 193.258473 145.35906 
L 193.745455 146.410104 
L 194.557091 148.812147 
L 195.531055 152.453875 
L 197.154327 159.511838 
L 200.5632 174.928901 
L 200.887855 175.606431 
L 201.374836 175.622807 
L 201.699491 175.52436 
L 202.024145 174.676875 
L 202.511127 172.711213 
L 203.160436 168.832933 
L 205.108364 155.553998 
L 205.595345 153.516043 
L 206.082327 152.272918 
L 206.569309 151.766969 
L 206.893964 151.769106 
L 207.543273 152.099318 
L 207.867927 152.316538 
L 208.517236 152.285442 
L 208.841891 152.083065 
L 209.328873 151.250367 
L 209.978182 149.467233 
L 212.088436 142.767098 
L 212.575418 141.987093 
L 212.900073 141.655779 
L 213.224727 141.606588 
L 213.874036 141.728463 
L 214.523345 142.363943 
L 215.821964 144.126446 
L 217.769891 146.722179 
L 219.068509 148.104709 
L 220.367127 149.160316 
L 221.828073 150.050536 
L 223.776 150.967688 
L 226.373236 152.179488 
L 227.509527 152.961684 
L 228.645818 153.999626 
L 232.054691 157.402869 
L 233.028655 157.888649 
L 234.327273 158.450441 
L 234.976582 158.988783 
L 235.625891 159.904911 
L 236.2752 161.302808 
L 237.086836 163.743483 
L 238.385455 168.612523 
L 239.521745 172.457052 
L 240.171055 173.895894 
L 240.495709 174.262843 
L 240.982691 174.492859 
L 241.307345 174.380847 
L 241.794327 173.788174 
L 242.281309 172.682232 
L 242.768291 171.166937 
L 243.579927 167.808948 
L 244.553891 162.773541 
L 246.664145 151.445183 
L 247.475782 148.472501 
L 247.962764 147.317219 
L 248.449745 146.778041 
L 248.7744 146.689673 
L 249.261382 147.004288 
L 249.586036 147.417582 
L 250.235345 148.812672 
L 251.533964 152.50626 
L 252.507927 155.082135 
L 253.319564 156.655905 
L 253.968873 157.489085 
L 254.618182 157.990448 
L 255.267491 158.248136 
L 256.241455 158.385826 
L 259.488 158.484096 
L 260.299636 158.303562 
L 261.111273 157.893224 
L 262.085236 157.078472 
L 263.383855 155.612246 
L 264.8448 154.019797 
L 265.818764 153.252673 
L 267.929018 151.780914 
L 268.740655 150.790307 
L 269.552291 149.404077 
L 270.688582 146.943766 
L 272.474182 143.031163 
L 273.285818 141.793604 
L 273.935127 141.233642 
L 274.259782 141.172536 
L 274.909091 141.244506 
L 275.396073 141.631677 
L 276.045382 142.415981 
L 277.019345 143.994353 
L 278.804945 146.946268 
L 279.616582 147.934585 
L 280.265891 148.45988 
L 280.752873 148.640129 
L 281.239855 148.687786 
L 281.889164 148.469782 
L 282.7008 147.850029 
L 284.161745 146.595326 
L 284.811055 146.393048 
L 285.298036 146.451469 
L 285.947345 146.81524 
L 286.921309 147.807489 
L 288.219927 149.143981 
L 289.031564 149.627094 
L 289.680873 149.789795 
L 291.953455 150.142879 
L 292.602764 150.597351 
L 293.252073 151.312455 
L 294.063709 152.534145 
L 297.472582 158.233326 
L 300.069818 161.834674 
L 302.017745 165.262898 
L 303.154036 167.018111 
L 303.965673 167.93096 
L 304.777309 168.526847 
L 305.588945 168.868347 
L 306.562909 169.056002 
L 307.861527 169.025915 
L 308.673164 168.786696 
L 309.4848 168.303004 
L 310.621091 167.281869 
L 311.757382 166.269314 
L 312.244364 165.991225 
L 313.056 165.969472 
L 313.542982 166.273235 
L 314.029964 166.780085 
L 314.679273 167.765549 
L 317.114182 171.860434 
L 317.438836 172.002435 
L 317.925818 171.795123 
L 318.250473 171.439733 
L 318.737455 170.234941 
L 319.224436 168.301043 
L 319.711418 165.6109 
L 320.360727 160.775066 
L 321.172364 152.931596 
L 323.7696 125.716556 
L 324.256582 123.195776 
L 324.418909 122.9384 
L 324.743564 123.136854 
L 325.068218 123.637854 
L 325.230545 124.320414 
L 325.717527 128.51971 
L 326.204509 135.032562 
L 326.853818 146.980466 
L 327.827782 169.623903 
L 328.964073 195.688248 
L 329.613382 206.145597 
L 329.938036 209.790834 
L 330.100364 210.642311 
L 330.425018 210.629051 
L 330.749673 210.436644 
L 330.912 209.89913 
L 331.236655 206.333291 
L 331.723636 198.758135 
L 332.535273 180.373581 
L 334.645527 128.116913 
L 335.457164 114.811237 
L 336.2688 105.588145 
L 338.703709 81.368071 
L 339.677673 70.907874 
L 340.326982 66.272687 
L 340.813964 65.098222 
L 340.976291 65.01103 
L 341.138618 65.301212 
L 341.463273 66.84601 
L 341.787927 69.074116 
L 342.437236 76.619915 
L 343.4112 92.339523 
L 347.956364 173.706908 
L 349.092655 193.173962 
L 349.904291 203.55709 
L 350.5536 209.463827 
L 351.202909 213.646894 
L 352.014545 217.366185 
L 352.826182 220.108988 
L 353.475491 221.586669 
L 353.800145 221.765113 
L 354.449455 221.635564 
L 354.774109 220.875916 
L 355.261091 219.176727 
L 355.9104 215.789506 
L 357.046691 208.079892 
L 359.968582 185.995423 
L 364.351418 151.585017 
L 365.812364 141.897432 
L 366.948655 135.769958 
L 368.084945 130.850598 
L 368.896582 128.166703 
L 369.545891 126.657529 
L 370.1952 125.78224 
L 370.844509 125.505376 
L 371.331491 125.611183 
L 371.818473 125.861647 
L 372.954764 126.856605 
L 373.928727 127.972103 
L 374.740364 129.206784 
L 375.552 130.833335 
L 376.525964 133.316417 
L 377.986909 137.77626 
L 379.772509 143.122591 
L 381.071127 146.22762 
L 383.019055 150.78239 
L 385.129309 156.729001 
L 386.427927 160.002985 
L 387.564218 162.276635 
L 388.538182 163.759647 
L 389.512145 164.806853 
L 390.323782 165.384174 
L 391.297745 165.79754 
L 392.434036 166.0064 
L 393.732655 165.91509 
L 394.706618 165.589845 
L 395.680582 165.012137 
L 396.816873 164.042119 
L 398.115491 162.640876 
L 399.414109 160.958231 
L 400.5504 159.1487 
L 402.173673 156.068928 
L 403.309964 154.074878 
L 404.1216 153.097095 
L 404.608582 152.75977 
L 405.257891 152.61759 
L 405.9072 152.786498 
L 406.718836 153.27004 
L 407.6928 153.829696 
L 408.504436 153.89487 
L 408.991418 153.665539 
L 409.4784 153.261974 
L 410.290036 152.266632 
L 411.913309 150.181336 
L 412.562618 149.697483 
L 413.0496 149.560025 
L 413.698909 149.558374 
L 414.510545 149.901477 
L 418.4064 152.140238 
L 421.165964 153.045716 
L 426.360436 154.533595 
L 427.3344 154.546528 
L 428.146036 154.388001 
L 429.444655 153.878672 
L 430.743273 153.40153 
L 431.554909 153.323875 
L 432.366545 153.475799 
L 433.340509 153.972319 
L 435.775418 155.481517 
L 436.587055 155.667549 
L 437.561018 155.656036 
L 442.106182 155.283353 
L 444.378764 155.34525 
L 445.839709 155.636603 
L 448.274618 156.171704 
L 449.735564 156.191529 
L 452.819782 155.960237 
L 453.793745 155.683001 
L 454.767709 155.155554 
L 457.851927 153.1845 
L 458.663564 153.075755 
L 459.637527 153.188731 
L 463.533382 154.225423 
L 465.481309 154.660173 
L 466.6176 154.647891 
L 467.753891 154.36008 
L 470.513455 153.478782 
L 471.812073 153.373898 
L 474.084655 153.448348 
L 476.194909 153.71825 
L 478.142836 154.206842 
L 479.603782 154.793173 
L 482.525673 156.111722 
L 483.174982 156.155281 
L 483.986618 156.056999 
L 485.122909 155.648848 
L 486.583855 155.148373 
L 487.557818 155.069837 
L 489.343418 155.250119 
L 490.479709 155.247377 
L 491.940655 155.008274 
L 493.076945 154.888316 
L 494.213236 154.995663 
L 497.135127 155.445534 
L 498.109091 155.236831 
L 499.083055 154.811343 
L 501.680291 153.527614 
L 502.654255 153.331058 
L 503.952873 153.345241 
L 507.6864 153.635329 
L 511.095273 153.648601 
L 512.880873 154.00448 
L 515.315782 154.505319 
L 516.6144 154.464683 
L 517.750691 154.1754 
L 518.562327 153.891159 
L 518.562327 153.891159 
" clip-path="url(#p7f1258ee30)" style="fill: none; stroke: #ff0000; stroke-width: 0.75; stroke-linecap: square"/>
   </g>
   <g id="patch_4">
    <path d="M 72 272.34 
L 518.4 272.34 
" style="fill: none; stroke: #000000; stroke-width: 0.8; stroke-linejoin: miter; stroke-linecap: square"/>
   </g>
   <g id="text_7">
    <g id="patch_5">
     <path d="M 158.740945 276.34 
L 227.040945 276.34 
L 227.040945 202.300937 
L 158.740945 202.300937 
L 158.740945 276.34 
z
" style="fill: none"/>
    </g>
    <!--        $\bf{   M25}$ -->
    <g transform="translate(162.740945 213.9525) scale(0.1 -0.1)">
     <defs>
      <path id="DejaVuSansMono-Bold-4d" d="M 269 4666 
L 1369 4666 
L 1925 2619 
L 2478 4666 
L 3584 4666 
L 3584 0 
L 2791 0 
L 2791 3738 
L 2297 1697 
L 1563 1697 
L 1063 3738 
L 1063 0 
L 269 0 
L 269 4666 
z
" transform="scale(0.015625)"/>
      <path id="DejaVuSansMono-Bold-32" d="M 1356 813 
L 3322 813 
L 3322 0 
L 359 0 
L 359 788 
L 859 1319 
Q 1750 2266 1941 2484 
Q 2175 2753 2278 2961 
Q 2381 3169 2381 3372 
Q 2381 3684 2192 3854 
Q 2003 4025 1656 4025 
Q 1409 4025 1101 3926 
Q 794 3828 459 3641 
L 459 4500 
Q 794 4622 1114 4686 
Q 1434 4750 1728 4750 
Q 2469 4750 2892 4404 
Q 3316 4059 3316 3463 
Q 3316 3188 3223 2947 
Q 3131 2706 2906 2413 
Q 2741 2200 1997 1456 
Q 1594 1053 1356 813 
z
" transform="scale(0.015625)"/>
      <path id="DejaVuSansMono-Bold-35" d="M 603 4666 
L 3138 4666 
L 3138 3853 
L 1350 3853 
L 1350 2988 
Q 1463 3031 1591 3051 
Q 1719 3072 1863 3072 
Q 2556 3072 2987 2634 
Q 3419 2197 3419 1497 
Q 3419 763 2951 336 
Q 2484 -91 1678 -91 
Q 1378 -91 1072 -41 
Q 766 9 447 109 
L 447 941 
Q 706 813 979 748 
Q 1253 684 1528 684 
Q 2016 684 2269 892 
Q 2522 1100 2522 1497 
Q 2522 1863 2270 2083 
Q 2019 2303 1600 2303 
Q 1353 2303 1104 2242 
Q 856 2181 603 2059 
L 603 4666 
z
" transform="scale(0.015625)"/>
     </defs>
     <use xlink:href="#DejaVuSansMono-20" transform="translate(0 0.78125)"/>
     <use xlink:href="#DejaVuSansMono-20" transform="translate(60.205078 0.78125)"/>
     <use xlink:href="#DejaVuSansMono-20" transform="translate(120.410156 0.78125)"/>
     <use xlink:href="#DejaVuSansMono-20" transform="translate(180.615234 0.78125)"/>
     <use xlink:href="#DejaVuSansMono-20" transform="translate(240.820312 0.78125)"/>
     <use xlink:href="#DejaVuSansMono-20" transform="translate(301.025391 0.78125)"/>
     <use xlink:href="#DejaVuSansMono-20" transform="translate(361.230469 0.78125)"/>
     <use xlink:href="#DejaVuSansMono-Bold-4d" transform="translate(421.435547 0.78125)"/>
     <use xlink:href="#DejaVuSansMono-Bold-32" transform="translate(481.640625 0.78125)"/>
     <use xlink:href="#DejaVuSansMono-Bold-35" transform="translate(541.845703 0.78125)"/>
    </g>
    <!-- L2:   0.24 -->
    <g transform="translate(162.740945 225.214063) scale(0.1 -0.1)">
     <defs>
      <path id="DejaVuSansMono-4c" d="M 672 4666 
L 1306 4666 
L 1306 531 
L 3559 531 
L 3559 0 
L 672 0 
L 672 4666 
z
" transform="scale(0.015625)"/>
      <path id="DejaVuSansMono-3a" d="M 1528 3322 
L 2316 3322 
L 2316 2375 
L 1528 2375 
L 1528 3322 
z
M 1528 953 
L 2316 953 
L 2316 0 
L 1528 0 
L 1528 953 
z
" transform="scale(0.015625)"/>
      <path id="DejaVuSansMono-2e" d="M 1528 953 
L 2316 953 
L 2316 0 
L 1528 0 
L 1528 953 
z
" transform="scale(0.015625)"/>
     </defs>
     <use xlink:href="#DejaVuSansMono-4c"/>
     <use xlink:href="#DejaVuSansMono-32" x="60.205078"/>
     <use xlink:href="#DejaVuSansMono-3a" x="120.410156"/>
     <use xlink:href="#DejaVuSansMono-20" x="180.615234"/>
     <use xlink:href="#DejaVuSansMono-20" x="240.820312"/>
     <use xlink:href="#DejaVuSansMono-20" x="301.025391"/>
     <use xlink:href="#DejaVuSansMono-30" x="361.230469"/>
     <use xlink:href="#DejaVuSansMono-2e" x="421.435547"/>
     <use xlink:href="#DejaVuSansMono-32" x="481.640625"/>
     <use xlink:href="#DejaVuSansMono-34" x="541.845703"/>
    </g>
    <!-- Xmx:  0.97 -->
    <g transform="translate(162.740945 236.475625) scale(0.1 -0.1)">
     <defs>
      <path id="DejaVuSansMono-58" d="M 269 4666 
L 947 4666 
L 1972 2906 
L 3016 4666 
L 3694 4666 
L 2297 2472 
L 3794 0 
L 3116 0 
L 1972 2009 
L 738 0 
L 56 0 
L 1619 2472 
L 269 4666 
z
" transform="scale(0.015625)"/>
      <path id="DejaVuSansMono-78" d="M 3494 3500 
L 2241 1825 
L 3616 0 
L 2950 0 
L 1925 1403 
L 903 0 
L 238 0 
L 1613 1825 
L 359 3500 
L 997 3500 
L 1925 2234 
L 2847 3500 
L 3494 3500 
z
" transform="scale(0.015625)"/>
      <path id="DejaVuSansMono-39" d="M 1863 2069 
Q 2266 2069 2495 2359 
Q 2725 2650 2725 3163 
Q 2725 3675 2495 3965 
Q 2266 4256 1863 4256 
Q 1444 4256 1231 3979 
Q 1019 3703 1019 3163 
Q 1019 2619 1230 2344 
Q 1441 2069 1863 2069 
z
M 738 97 
L 738 678 
Q 934 563 1156 502 
Q 1378 441 1619 441 
Q 2219 441 2526 892 
Q 2834 1344 2834 2222 
Q 2688 1909 2422 1742 
Q 2156 1575 1813 1575 
Q 1138 1575 767 1990 
Q 397 2406 397 3169 
Q 397 3922 776 4336 
Q 1156 4750 1850 4750 
Q 2663 4750 3041 4165 
Q 3419 3581 3419 2328 
Q 3419 1150 2964 529 
Q 2509 -91 1644 -91 
Q 1416 -91 1184 -42 
Q 953 6 738 97 
z
" transform="scale(0.015625)"/>
      <path id="DejaVuSansMono-37" d="M 434 4666 
L 3372 4666 
L 3372 4397 
L 1703 0 
L 1044 0 
L 2669 4134 
L 434 4134 
L 434 4666 
z
" transform="scale(0.015625)"/>
     </defs>
     <use xlink:href="#DejaVuSansMono-58"/>
     <use xlink:href="#DejaVuSansMono-6d" x="60.205078"/>
     <use xlink:href="#DejaVuSansMono-78" x="120.410156"/>
     <use xlink:href="#DejaVuSansMono-3a" x="180.615234"/>
     <use xlink:href="#DejaVuSansMono-20" x="240.820312"/>
     <use xlink:href="#DejaVuSansMono-20" x="301.025391"/>
     <use xlink:href="#DejaVuSansMono-30" x="361.230469"/>
     <use xlink:href="#DejaVuSansMono-2e" x="421.435547"/>
     <use xlink:href="#DejaVuSansMono-39" x="481.640625"/>
     <use xlink:href="#DejaVuSansMono-37" x="541.845703"/>
    </g>
    <!-- DT:   2.00 -->
    <g transform="translate(162.740945 247.737188) scale(0.1 -0.1)">
     <defs>
      <path id="DejaVuSansMono-44" d="M 1363 519 
Q 2159 519 2475 911 
Q 2791 1303 2791 2328 
Q 2791 3363 2477 3755 
Q 2163 4147 1363 4147 
L 1063 4147 
L 1063 519 
L 1363 519 
z
M 1375 4666 
Q 2444 4666 2950 4097 
Q 3456 3528 3456 2328 
Q 3456 1134 2950 567 
Q 2444 0 1375 0 
L 428 0 
L 428 4666 
L 1375 4666 
z
" transform="scale(0.015625)"/>
     </defs>
     <use xlink:href="#DejaVuSansMono-44"/>
     <use xlink:href="#DejaVuSansMono-54" x="60.205078"/>
     <use xlink:href="#DejaVuSansMono-3a" x="120.410156"/>
     <use xlink:href="#DejaVuSansMono-20" x="180.615234"/>
     <use xlink:href="#DejaVuSansMono-20" x="240.820312"/>
     <use xlink:href="#DejaVuSansMono-20" x="301.025391"/>
     <use xlink:href="#DejaVuSansMono-32" x="361.230469"/>
     <use xlink:href="#DejaVuSansMono-2e" x="421.435547"/>
     <use xlink:href="#DejaVuSansMono-30" x="481.640625"/>
     <use xlink:href="#DejaVuSansMono-30" x="541.845703"/>
    </g>
    <!-- XR:   0.69 -->
    <g transform="translate(162.740945 258.99875) scale(0.1 -0.1)">
     <defs>
      <path id="DejaVuSansMono-52" d="M 2375 2203 
Q 2619 2141 2791 1967 
Q 2963 1794 3219 1275 
L 3853 0 
L 3175 0 
L 2619 1178 
Q 2378 1681 2186 1826 
Q 1994 1972 1684 1972 
L 1081 1972 
L 1081 0 
L 447 0 
L 447 4666 
L 1747 4666 
Q 2516 4666 2925 4319 
Q 3334 3972 3334 3316 
Q 3334 2853 3082 2561 
Q 2831 2269 2375 2203 
z
M 1081 4147 
L 1081 2491 
L 1772 2491 
Q 2225 2491 2447 2694 
Q 2669 2897 2669 3316 
Q 2669 3719 2433 3933 
Q 2197 4147 1747 4147 
L 1081 4147 
z
" transform="scale(0.015625)"/>
      <path id="DejaVuSansMono-36" d="M 3097 4563 
L 3097 3981 
Q 2900 4097 2678 4158 
Q 2456 4219 2216 4219 
Q 1616 4219 1306 3767 
Q 997 3316 997 2438 
Q 1147 2750 1412 2917 
Q 1678 3084 2022 3084 
Q 2697 3084 3067 2670 
Q 3438 2256 3438 1497 
Q 3438 741 3056 325 
Q 2675 -91 1984 -91 
Q 1172 -91 794 492 
Q 416 1075 416 2328 
Q 416 3509 870 4129 
Q 1325 4750 2188 4750 
Q 2419 4750 2650 4701 
Q 2881 4653 3097 4563 
z
M 1972 2591 
Q 1569 2591 1337 2300 
Q 1106 2009 1106 1497 
Q 1106 984 1337 693 
Q 1569 403 1972 403 
Q 2391 403 2603 679 
Q 2816 956 2816 1497 
Q 2816 2041 2603 2316 
Q 2391 2591 1972 2591 
z
" transform="scale(0.015625)"/>
     </defs>
     <use xlink:href="#DejaVuSansMono-58"/>
     <use xlink:href="#DejaVuSansMono-52" x="60.205078"/>
     <use xlink:href="#DejaVuSansMono-3a" x="120.410156"/>
     <use xlink:href="#DejaVuSansMono-20" x="180.615234"/>
     <use xlink:href="#DejaVuSansMono-20" x="240.820312"/>
     <use xlink:href="#DejaVuSansMono-20" x="301.025391"/>
     <use xlink:href="#DejaVuSansMono-30" x="361.230469"/>
     <use xlink:href="#DejaVuSansMono-2e" x="421.435547"/>
     <use xlink:href="#DejaVuSansMono-36" x="481.640625"/>
     <use xlink:href="#DejaVuSansMono-39" x="541.845703"/>
    </g>
    <!--  -->
    <g transform="translate(162.740945 270.260312) scale(0.1 -0.1)"/>
   </g>
   <g id="text_8">
    <g id="patch_6">
     <path d="M 79.1616 265.1784 
L 127.277762 265.1784 
L 127.277762 249.075469 
L 79.1616 249.075469 
L 79.1616 265.1784 
z
" style="fill: none"/>
    </g>
    <!-- IU.HRV.Z -->
    <g transform="translate(83.16 259.44762) scale(0.0833 -0.0833)">
     <defs>
      <path id="DejaVuSansMono-49" d="M 628 4666 
L 3219 4666 
L 3219 4134 
L 2241 4134 
L 2241 531 
L 3219 531 
L 3219 0 
L 628 0 
L 628 531 
L 1606 531 
L 1606 4134 
L 628 4134 
L 628 4666 
z
" transform="scale(0.015625)"/>
      <path id="DejaVuSansMono-55" d="M 459 1791 
L 459 4666 
L 1094 4666 
L 1094 1503 
Q 1094 1163 1112 1017 
Q 1131 872 1178 794 
Q 1278 609 1467 515 
Q 1656 422 1925 422 
Q 2197 422 2384 515 
Q 2572 609 2675 794 
Q 2722 872 2740 1015 
Q 2759 1159 2759 1497 
L 2759 4666 
L 3391 4666 
L 3391 1791 
Q 3391 1075 3302 773 
Q 3213 472 2994 275 
Q 2788 91 2522 0 
Q 2256 -91 1925 -91 
Q 1597 -91 1331 0 
Q 1066 91 856 275 
Q 641 469 550 776 
Q 459 1084 459 1791 
z
" transform="scale(0.015625)"/>
      <path id="DejaVuSansMono-48" d="M 428 4666 
L 1063 4666 
L 1063 2753 
L 2791 2753 
L 2791 4666 
L 3425 4666 
L 3425 0 
L 2791 0 
L 2791 2222 
L 1063 2222 
L 1063 0 
L 428 0 
L 428 4666 
z
" transform="scale(0.015625)"/>
      <path id="DejaVuSansMono-56" d="M 1925 531 
L 3022 4666 
L 3675 4666 
L 2309 0 
L 1544 0 
L 178 4666 
L 831 4666 
L 1925 531 
z
" transform="scale(0.015625)"/>
      <path id="DejaVuSansMono-5a" d="M 556 4666 
L 3584 4666 
L 3584 4184 
L 1147 531 
L 3653 531 
L 3653 0 
L 488 0 
L 488 481 
L 2859 4134 
L 556 4134 
L 556 4666 
z
" transform="scale(0.015625)"/>
     </defs>
     <use xlink:href="#DejaVuSansMono-49"/>
     <use xlink:href="#DejaVuSansMono-55" x="60.205078"/>
     <use xlink:href="#DejaVuSansMono-2e" x="120.410156"/>
     <use xlink:href="#DejaVuSansMono-48" x="180.615234"/>
     <use xlink:href="#DejaVuSansMono-52" x="240.820312"/>
     <use xlink:href="#DejaVuSansMono-56" x="301.025391"/>
     <use xlink:href="#DejaVuSansMono-2e" x="361.230469"/>
     <use xlink:href="#DejaVuSansMono-5a" x="421.435547"/>
    </g>
   </g>
   <g id="text_9">
    <g id="patch_7">
     <path d="M 79.1616 60.2084 
L 182.441886 60.2084 
L 182.441886 43.8816 
L 79.1616 43.8816 
L 79.1616 60.2084 
z
" style="fill: none"/>
    </g>
    <!-- |A|max: 0.0014257 m -->
    <g transform="translate(83.16 54.245942) scale(0.0833 -0.0833)">
     <defs>
      <path id="DejaVuSansMono-7c" d="M 2194 4891 
L 2194 -1509 
L 1656 -1509 
L 1656 4891 
L 2194 4891 
z
" transform="scale(0.015625)"/>
      <path id="DejaVuSansMono-41" d="M 1925 4109 
L 1259 1722 
L 2591 1722 
L 1925 4109 
z
M 1544 4666 
L 2309 4666 
L 3738 0 
L 3084 0 
L 2741 1216 
L 1106 1216 
L 769 0 
L 116 0 
L 1544 4666 
z
" transform="scale(0.015625)"/>
      <path id="DejaVuSansMono-61" d="M 2194 1759 
L 2003 1759 
Q 1500 1759 1245 1582 
Q 991 1406 991 1056 
Q 991 741 1181 566 
Q 1372 391 1709 391 
Q 2184 391 2456 720 
Q 2728 1050 2731 1631 
L 2731 1759 
L 2194 1759 
z
M 3309 1997 
L 3309 0 
L 2731 0 
L 2731 519 
Q 2547 206 2267 57 
Q 1988 -91 1588 -91 
Q 1053 -91 734 211 
Q 416 513 416 1019 
Q 416 1603 808 1906 
Q 1200 2209 1959 2209 
L 2731 2209 
L 2731 2300 
Q 2728 2719 2518 2908 
Q 2309 3097 1850 3097 
Q 1556 3097 1256 3012 
Q 956 2928 672 2766 
L 672 3341 
Q 991 3463 1283 3523 
Q 1575 3584 1850 3584 
Q 2284 3584 2592 3456 
Q 2900 3328 3091 3072 
Q 3209 2916 3259 2686 
Q 3309 2456 3309 1997 
z
" transform="scale(0.015625)"/>
     </defs>
     <use xlink:href="#DejaVuSansMono-7c"/>
     <use xlink:href="#DejaVuSansMono-41" x="60.205078"/>
     <use xlink:href="#DejaVuSansMono-7c" x="120.410156"/>
     <use xlink:href="#DejaVuSansMono-6d" x="180.615234"/>
     <use xlink:href="#DejaVuSansMono-61" x="240.820312"/>
     <use xlink:href="#DejaVuSansMono-78" x="301.025391"/>
     <use xlink:href="#DejaVuSansMono-3a" x="361.230469"/>
     <use xlink:href="#DejaVuSansMono-20" x="421.435547"/>
     <use xlink:href="#DejaVuSansMono-30" x="481.640625"/>
     <use xlink:href="#DejaVuSansMono-2e" x="541.845703"/>
     <use xlink:href="#DejaVuSansMono-30" x="602.050781"/>
     <use xlink:href="#DejaVuSansMono-30" x="662.255859"/>
     <use xlink:href="#DejaVuSansMono-31" x="722.460938"/>
     <use xlink:href="#DejaVuSansMono-34" x="782.666016"/>
     <use xlink:href="#DejaVuSansMono-32" x="842.871094"/>
     <use xlink:href="#DejaVuSansMono-35" x="903.076172"/>
     <use xlink:href="#DejaVuSansMono-37" x="963.28125"/>
     <use xlink:href="#DejaVuSansMono-20" x="1023.486328"/>
     <use xlink:href="#DejaVuSansMono-6d" x="1083.691406"/>
    </g>
   </g>
   <g id="text_10">
    <g id="patch_8">
     <path d="M 68 29.56 
L 539.564063 29.56 
L 539.564063 0.567187 
L 68 0.567187 
L 68 29.56 
z
" style="fill: none"/>
    </g>
    <!-- C201509162254A: La -31.130 Lo -72.090 Dp 17.350km -->
    <g transform="translate(72 12.15) scale(0.1 -0.1)">
     <defs>
      <path id="DejaVuSansMono-43" d="M 3353 166 
Q 3113 38 2859 -26 
Q 2606 -91 2322 -91 
Q 1425 -91 929 543 
Q 434 1178 434 2328 
Q 434 3472 932 4111 
Q 1431 4750 2322 4750 
Q 2606 4750 2859 4686 
Q 3113 4622 3353 4494 
L 3353 3847 
Q 3122 4038 2856 4138 
Q 2591 4238 2322 4238 
Q 1706 4238 1400 3763 
Q 1094 3288 1094 2328 
Q 1094 1372 1400 897 
Q 1706 422 2322 422 
Q 2597 422 2861 522 
Q 3125 622 3353 813 
L 3353 166 
z
" transform="scale(0.015625)"/>
      <path id="DejaVuSansMono-2d" d="M 1113 2009 
L 2741 2009 
L 2741 1497 
L 1113 1497 
L 1113 2009 
z
" transform="scale(0.015625)"/>
      <path id="DejaVuSansMono-70" d="M 1172 441 
L 1172 -1331 
L 594 -1331 
L 594 3500 
L 1172 3500 
L 1172 3053 
Q 1316 3313 1555 3448 
Q 1794 3584 2106 3584 
Q 2741 3584 3102 3093 
Q 3463 2603 3463 1734 
Q 3463 881 3100 395 
Q 2738 -91 2106 -91 
Q 1788 -91 1548 45 
Q 1309 181 1172 441 
z
M 2859 1747 
Q 2859 2416 2648 2756 
Q 2438 3097 2022 3097 
Q 1603 3097 1387 2755 
Q 1172 2413 1172 1747 
Q 1172 1084 1387 740 
Q 1603 397 2022 397 
Q 2438 397 2648 737 
Q 2859 1078 2859 1747 
z
" transform="scale(0.015625)"/>
      <path id="DejaVuSansMono-6b" d="M 738 4863 
L 1331 4863 
L 1331 2047 
L 2841 3500 
L 3541 3500 
L 2163 2181 
L 3756 0 
L 3053 0 
L 1759 1806 
L 1331 1403 
L 1331 0 
L 738 0 
L 738 4863 
z
" transform="scale(0.015625)"/>
     </defs>
     <use xlink:href="#DejaVuSansMono-43"/>
     <use xlink:href="#DejaVuSansMono-32" x="60.205078"/>
     <use xlink:href="#DejaVuSansMono-30" x="120.410156"/>
     <use xlink:href="#DejaVuSansMono-31" x="180.615234"/>
     <use xlink:href="#DejaVuSansMono-35" x="240.820312"/>
     <use xlink:href="#DejaVuSansMono-30" x="301.025391"/>
     <use xlink:href="#DejaVuSansMono-39" x="361.230469"/>
     <use xlink:href="#DejaVuSansMono-31" x="421.435547"/>
     <use xlink:href="#DejaVuSansMono-36" x="481.640625"/>
     <use xlink:href="#DejaVuSansMono-32" x="541.845703"/>
     <use xlink:href="#DejaVuSansMono-32" x="602.050781"/>
     <use xlink:href="#DejaVuSansMono-35" x="662.255859"/>
     <use xlink:href="#DejaVuSansMono-34" x="722.460938"/>
     <use xlink:href="#DejaVuSansMono-41" x="782.666016"/>
     <use xlink:href="#DejaVuSansMono-3a" x="842.871094"/>
     <use xlink:href="#DejaVuSansMono-20" x="903.076172"/>
     <use xlink:href="#DejaVuSansMono-4c" x="963.28125"/>
     <use xlink:href="#DejaVuSansMono-61" x="1023.486328"/>
     <use xlink:href="#DejaVuSansMono-20" x="1083.691406"/>
     <use xlink:href="#DejaVuSansMono-2d" x="1143.896484"/>
     <use xlink:href="#DejaVuSansMono-33" x="1204.101562"/>
     <use xlink:href="#DejaVuSansMono-31" x="1264.306641"/>
     <use xlink:href="#DejaVuSansMono-2e" x="1324.511719"/>
     <use xlink:href="#DejaVuSansMono-31" x="1384.716797"/>
     <use xlink:href="#DejaVuSansMono-33" x="1444.921875"/>
     <use xlink:href="#DejaVuSansMono-30" x="1505.126953"/>
     <use xlink:href="#DejaVuSansMono-20" x="1565.332031"/>
     <use xlink:href="#DejaVuSansMono-4c" x="1625.537109"/>
     <use xlink:href="#DejaVuSansMono-6f" x="1685.742188"/>
     <use xlink:href="#DejaVuSansMono-20" x="1745.947266"/>
     <use xlink:href="#DejaVuSansMono-2d" x="1806.152344"/>
     <use xlink:href="#DejaVuSansMono-37" x="1866.357422"/>
     <use xlink:href="#DejaVuSansMono-32" x="1926.5625"/>
     <use xlink:href="#DejaVuSansMono-2e" x="1986.767578"/>
     <use xlink:href="#DejaVuSansMono-30" x="2046.972656"/>
     <use xlink:href="#DejaVuSansMono-39" x="2107.177734"/>
     <use xlink:href="#DejaVuSansMono-30" x="2167.382812"/>
     <use xlink:href="#DejaVuSansMono-20" x="2227.587891"/>
     <use xlink:href="#DejaVuSansMono-44" x="2287.792969"/>
     <use xlink:href="#DejaVuSansMono-70" x="2347.998047"/>
     <use xlink:href="#DejaVuSansMono-20" x="2408.203125"/>
     <use xlink:href="#DejaVuSansMono-31" x="2468.408203"/>
     <use xlink:href="#DejaVuSansMono-37" x="2528.613281"/>
     <use xlink:href="#DejaVuSansMono-2e" x="2588.818359"/>
     <use xlink:href="#DejaVuSansMono-33" x="2649.023438"/>
     <use xlink:href="#DejaVuSansMono-35" x="2709.228516"/>
     <use xlink:href="#DejaVuSansMono-30" x="2769.433594"/>
     <use xlink:href="#DejaVuSansMono-6b" x="2829.638672"/>
     <use xlink:href="#DejaVuSansMono-6d" x="2889.84375"/>
    </g>
    <!-- IU.HRV: La 42.506 Lo: -71.558 Az: 0.4 Baz: 180.5 Dist: 73.381dg - Bp: 40-500s -->
    <g transform="translate(72 23.411562) scale(0.1 -0.1)">
     <defs>
      <path id="DejaVuSansMono-38" d="M 1925 2216 
Q 1503 2216 1273 1980 
Q 1044 1744 1044 1313 
Q 1044 881 1276 642 
Q 1509 403 1925 403 
Q 2350 403 2579 639 
Q 2809 875 2809 1313 
Q 2809 1741 2576 1978 
Q 2344 2216 1925 2216 
z
M 1375 2478 
Q 972 2581 745 2862 
Q 519 3144 519 3541 
Q 519 4097 897 4423 
Q 1275 4750 1925 4750 
Q 2578 4750 2956 4423 
Q 3334 4097 3334 3541 
Q 3334 3144 3107 2862 
Q 2881 2581 2478 2478 
Q 2947 2375 3195 2062 
Q 3444 1750 3444 1253 
Q 3444 622 3041 265 
Q 2638 -91 1925 -91 
Q 1213 -91 811 264 
Q 409 619 409 1247 
Q 409 1747 657 2061 
Q 906 2375 1375 2478 
z
M 1147 3481 
Q 1147 3106 1347 2909 
Q 1547 2713 1925 2713 
Q 2306 2713 2506 2909 
Q 2706 3106 2706 3481 
Q 2706 3863 2507 4063 
Q 2309 4263 1925 4263 
Q 1547 4263 1347 4061 
Q 1147 3859 1147 3481 
z
" transform="scale(0.015625)"/>
      <path id="DejaVuSansMono-7a" d="M 709 3506 
L 3250 3506 
L 3250 2981 
L 1241 469 
L 3250 469 
L 3250 0 
L 634 0 
L 634 531 
L 2644 3047 
L 709 3047 
L 709 3506 
z
" transform="scale(0.015625)"/>
      <path id="DejaVuSansMono-42" d="M 1153 2228 
L 1153 519 
L 1900 519 
Q 2450 519 2684 711 
Q 2919 903 2919 1344 
Q 2919 1800 2672 2014 
Q 2425 2228 1900 2228 
L 1153 2228 
z
M 1153 4147 
L 1153 2741 
L 1888 2741 
Q 2344 2741 2548 2916 
Q 2753 3091 2753 3481 
Q 2753 3834 2551 3990 
Q 2350 4147 1888 4147 
L 1153 4147 
z
M 519 4666 
L 1900 4666 
Q 2616 4666 3003 4356 
Q 3391 4047 3391 3481 
Q 3391 3053 3186 2806 
Q 2981 2559 2572 2497 
Q 3031 2428 3292 2104 
Q 3553 1781 3553 1281 
Q 3553 647 3137 323 
Q 2722 0 1900 0 
L 519 0 
L 519 4666 
z
" transform="scale(0.015625)"/>
      <path id="DejaVuSansMono-74" d="M 1919 4494 
L 1919 3500 
L 3225 3500 
L 3225 3053 
L 1919 3053 
L 1919 1153 
Q 1919 766 2066 612 
Q 2213 459 2578 459 
L 3225 459 
L 3225 0 
L 2522 0 
Q 1875 0 1609 259 
Q 1344 519 1344 1153 
L 1344 3053 
L 409 3053 
L 409 3500 
L 1344 3500 
L 1344 4494 
L 1919 4494 
z
" transform="scale(0.015625)"/>
      <path id="DejaVuSansMono-64" d="M 2681 3053 
L 2681 4863 
L 3256 4863 
L 3256 0 
L 2681 0 
L 2681 441 
Q 2538 181 2298 45 
Q 2059 -91 1747 -91 
Q 1113 -91 748 401 
Q 384 894 384 1759 
Q 384 2613 750 3098 
Q 1116 3584 1747 3584 
Q 2063 3584 2303 3448 
Q 2544 3313 2681 3053 
z
M 991 1747 
Q 991 1078 1203 737 
Q 1416 397 1831 397 
Q 2247 397 2464 740 
Q 2681 1084 2681 1747 
Q 2681 2413 2464 2755 
Q 2247 3097 1831 3097 
Q 1416 3097 1203 2756 
Q 991 2416 991 1747 
z
" transform="scale(0.015625)"/>
     </defs>
     <use xlink:href="#DejaVuSansMono-49"/>
     <use xlink:href="#DejaVuSansMono-55" x="60.205078"/>
     <use xlink:href="#DejaVuSansMono-2e" x="120.410156"/>
     <use xlink:href="#DejaVuSansMono-48" x="180.615234"/>
     <use xlink:href="#DejaVuSansMono-52" x="240.820312"/>
     <use xlink:href="#DejaVuSansMono-56" x="301.025391"/>
     <use xlink:href="#DejaVuSansMono-3a" x="361.230469"/>
     <use xlink:href="#DejaVuSansMono-20" x="421.435547"/>
     <use xlink:href="#DejaVuSansMono-4c" x="481.640625"/>
     <use xlink:href="#DejaVuSansMono-61" x="541.845703"/>
     <use xlink:href="#DejaVuSansMono-20" x="602.050781"/>
     <use xlink:href="#DejaVuSansMono-34" x="662.255859"/>
     <use xlink:href="#DejaVuSansMono-32" x="722.460938"/>
     <use xlink:href="#DejaVuSansMono-2e" x="782.666016"/>
     <use xlink:href="#DejaVuSansMono-35" x="842.871094"/>
     <use xlink:href="#DejaVuSansMono-30" x="903.076172"/>
     <use xlink:href="#DejaVuSansMono-36" x="963.28125"/>
     <use xlink:href="#DejaVuSansMono-20" x="1023.486328"/>
     <use xlink:href="#DejaVuSansMono-4c" x="1083.691406"/>
     <use xlink:href="#DejaVuSansMono-6f" x="1143.896484"/>
     <use xlink:href="#DejaVuSansMono-3a" x="1204.101562"/>
     <use xlink:href="#DejaVuSansMono-20" x="1264.306641"/>
     <use xlink:href="#DejaVuSansMono-2d" x="1324.511719"/>
     <use xlink:href="#DejaVuSansMono-37" x="1384.716797"/>
     <use xlink:href="#DejaVuSansMono-31" x="1444.921875"/>
     <use xlink:href="#DejaVuSansMono-2e" x="1505.126953"/>
     <use xlink:href="#DejaVuSansMono-35" x="1565.332031"/>
     <use xlink:href="#DejaVuSansMono-35" x="1625.537109"/>
     <use xlink:href="#DejaVuSansMono-38" x="1685.742188"/>
     <use xlink:href="#DejaVuSansMono-20" x="1745.947266"/>
     <use xlink:href="#DejaVuSansMono-41" x="1806.152344"/>
     <use xlink:href="#DejaVuSansMono-7a" x="1866.357422"/>
     <use xlink:href="#DejaVuSansMono-3a" x="1926.5625"/>
     <use xlink:href="#DejaVuSansMono-20" x="1986.767578"/>
     <use xlink:href="#DejaVuSansMono-30" x="2046.972656"/>
     <use xlink:href="#DejaVuSansMono-2e" x="2107.177734"/>
     <use xlink:href="#DejaVuSansMono-34" x="2167.382812"/>
     <use xlink:href="#DejaVuSansMono-20" x="2227.587891"/>
     <use xlink:href="#DejaVuSansMono-42" x="2287.792969"/>
     <use xlink:href="#DejaVuSansMono-61" x="2347.998047"/>
     <use xlink:href="#DejaVuSansMono-7a" x="2408.203125"/>
     <use xlink:href="#DejaVuSansMono-3a" x="2468.408203"/>
     <use xlink:href="#DejaVuSansMono-20" x="2528.613281"/>
     <use xlink:href="#DejaVuSansMono-31" x="2588.818359"/>
     <use xlink:href="#DejaVuSansMono-38" x="2649.023438"/>
     <use xlink:href="#DejaVuSansMono-30" x="2709.228516"/>
     <use xlink:href="#DejaVuSansMono-2e" x="2769.433594"/>
     <use xlink:href="#DejaVuSansMono-35" x="2829.638672"/>
     <use xlink:href="#DejaVuSansMono-20" x="2889.84375"/>
     <use xlink:href="#DejaVuSansMono-44" x="2950.048828"/>
     <use xlink:href="#DejaVuSansMono-69" x="3010.253906"/>
     <use xlink:href="#DejaVuSansMono-73" x="3070.458984"/>
     <use xlink:href="#DejaVuSansMono-74" x="3130.664062"/>
     <use xlink:href="#DejaVuSansMono-3a" x="3190.869141"/>
     <use xlink:href="#DejaVuSansMono-20" x="3251.074219"/>
     <use xlink:href="#DejaVuSansMono-37" x="3311.279297"/>
     <use xlink:href="#DejaVuSansMono-33" x="3371.484375"/>
     <use xlink:href="#DejaVuSansMono-2e" x="3431.689453"/>
     <use xlink:href="#DejaVuSansMono-33" x="3491.894531"/>
     <use xlink:href="#DejaVuSansMono-38" x="3552.099609"/>
     <use xlink:href="#DejaVuSansMono-31" x="3612.304688"/>
     <use xlink:href="#DejaVuSansMono-64" x="3672.509766"/>
     <use xlink:href="#DejaVuSansMono-67" x="3732.714844"/>
     <use xlink:href="#DejaVuSansMono-20" x="3792.919922"/>
     <use xlink:href="#DejaVuSansMono-2d" x="3853.125"/>
     <use xlink:href="#DejaVuSansMono-20" x="3913.330078"/>
     <use xlink:href="#DejaVuSansMono-42" x="3973.535156"/>
     <use xlink:href="#DejaVuSansMono-70" x="4033.740234"/>
     <use xlink:href="#DejaVuSansMono-3a" x="4093.945312"/>
     <use xlink:href="#DejaVuSansMono-20" x="4154.150391"/>
     <use xlink:href="#DejaVuSansMono-34" x="4214.355469"/>
     <use xlink:href="#DejaVuSansMono-30" x="4274.560547"/>
     <use xlink:href="#DejaVuSansMono-2d" x="4334.765625"/>
     <use xlink:href="#DejaVuSansMono-35" x="4394.970703"/>
     <use xlink:href="#DejaVuSansMono-30" x="4455.175781"/>
     <use xlink:href="#DejaVuSansMono-30" x="4515.380859"/>
     <use xlink:href="#DejaVuSansMono-73" x="4575.585938"/>
    </g>
   </g>
   <g id="legend_1">
    <g id="line2d_8">
     <path d="M 337.075 49.871562 
L 347.075 49.871562 
L 357.075 49.871562 
" style="fill: none; stroke: #000000; stroke-width: 0.75; stroke-linecap: square"/>
    </g>
    <g id="text_11">
     <!-- Observed -->
     <g transform="translate(365.075 53.371562) scale(0.1 -0.1)">
      <defs>
       <path id="DejaVuSansMono-4f" d="M 2828 2328 
Q 2828 3356 2617 3797 
Q 2406 4238 1925 4238 
Q 1447 4238 1236 3797 
Q 1025 3356 1025 2328 
Q 1025 1303 1236 862 
Q 1447 422 1925 422 
Q 2406 422 2617 861 
Q 2828 1300 2828 2328 
z
M 3488 2328 
Q 3488 1109 3102 509 
Q 2716 -91 1925 -91 
Q 1134 -91 750 506 
Q 366 1103 366 2328 
Q 366 3550 752 4150 
Q 1138 4750 1925 4750 
Q 2716 4750 3102 4150 
Q 3488 3550 3488 2328 
z
" transform="scale(0.015625)"/>
       <path id="DejaVuSansMono-62" d="M 2869 1747 
Q 2869 2416 2656 2756 
Q 2444 3097 2028 3097 
Q 1609 3097 1393 2755 
Q 1178 2413 1178 1747 
Q 1178 1084 1393 740 
Q 1609 397 2028 397 
Q 2444 397 2656 737 
Q 2869 1078 2869 1747 
z
M 1178 3053 
Q 1316 3309 1558 3446 
Q 1800 3584 2119 3584 
Q 2750 3584 3112 3098 
Q 3475 2613 3475 1759 
Q 3475 894 3111 401 
Q 2747 -91 2113 -91 
Q 1800 -91 1561 45 
Q 1322 181 1178 441 
L 1178 0 
L 603 0 
L 603 4863 
L 1178 4863 
L 1178 3053 
z
" transform="scale(0.015625)"/>
       <path id="DejaVuSansMono-76" d="M 313 3500 
L 909 3500 
L 1925 563 
L 2944 3500 
L 3541 3500 
L 2297 0 
L 1556 0 
L 313 3500 
z
" transform="scale(0.015625)"/>
      </defs>
      <use xlink:href="#DejaVuSansMono-4f"/>
      <use xlink:href="#DejaVuSansMono-62" x="60.205078"/>
      <use xlink:href="#DejaVuSansMono-73" x="120.410156"/>
      <use xlink:href="#DejaVuSansMono-65" x="180.615234"/>
      <use xlink:href="#DejaVuSansMono-72" x="240.820312"/>
      <use xlink:href="#DejaVuSansMono-76" x="301.025391"/>
      <use xlink:href="#DejaVuSansMono-65" x="361.230469"/>
      <use xlink:href="#DejaVuSansMono-64" x="421.435547"/>
     </g>
    </g>
    <g id="line2d_9">
     <path d="M 433.2375 49.871562 
L 443.2375 49.871562 
L 453.2375 49.871562 
" style="fill: none; stroke: #ff0000; stroke-width: 0.75; stroke-linecap: square"/>
    </g>
    <g id="text_12">
     <!-- GLAD-M25 -->
     <g transform="translate(461.2375 53.371562) scale(0.1 -0.1)">
      <defs>
       <path id="DejaVuSansMono-47" d="M 3450 384 
Q 3197 150 2880 29 
Q 2563 -91 2194 -91 
Q 1306 -91 812 545 
Q 319 1181 319 2328 
Q 319 3472 819 4111 
Q 1319 4750 2209 4750 
Q 2503 4750 2772 4667 
Q 3041 4584 3291 4416 
L 3291 3769 
Q 3038 4009 2772 4123 
Q 2506 4238 2209 4238 
Q 1594 4238 1286 3761 
Q 978 3284 978 2328 
Q 978 1356 1276 889 
Q 1575 422 2194 422 
Q 2403 422 2561 470 
Q 2719 519 2847 622 
L 2847 1875 
L 2169 1875 
L 2169 2394 
L 3450 2394 
L 3450 384 
z
" transform="scale(0.015625)"/>
       <path id="DejaVuSansMono-4d" d="M 269 4666 
L 1113 4666 
L 1919 2291 
L 2731 4666 
L 3578 4666 
L 3578 0 
L 2994 0 
L 2994 4122 
L 2163 1663 
L 1684 1663 
L 850 4122 
L 850 0 
L 269 0 
L 269 4666 
z
" transform="scale(0.015625)"/>
      </defs>
      <use xlink:href="#DejaVuSansMono-47"/>
      <use xlink:href="#DejaVuSansMono-4c" x="60.205078"/>
      <use xlink:href="#DejaVuSansMono-41" x="120.410156"/>
      <use xlink:href="#DejaVuSansMono-44" x="180.615234"/>
      <use xlink:href="#DejaVuSansMono-2d" x="240.820312"/>
      <use xlink:href="#DejaVuSansMono-4d" x="301.025391"/>
      <use xlink:href="#DejaVuSansMono-32" x="361.230469"/>
      <use xlink:href="#DejaVuSansMono-35" x="421.435547"/>
     </g>
    </g>
   </g>
  </g>
 </g>
 <defs>
  <clipPath id="p7f1258ee30">
   <rect x="72" y="36.72" width="446.4" height="235.62"/>
  </clipPath>
 </defs>
</svg>
