<?xml version="1.0" encoding="utf-8" standalone="no"?>
<!DOCTYPE svg PUBLIC "-//W3C//DTD SVG 1.1//EN"
  "http://www.w3.org/Graphics/SVG/1.1/DTD/svg11.dtd">
<svg xmlns:xlink="http://www.w3.org/1999/xlink" width="144pt" height="36pt" viewBox="0 0 144 36" xmlns="http://www.w3.org/2000/svg" version="1.1">
 <metadata>
  <rdf:RDF xmlns:dc="http://purl.org/dc/elements/1.1/" xmlns:cc="http://creativecommons.org/ns#" xmlns:rdf="http://www.w3.org/1999/02/22-rdf-syntax-ns#">
   <cc:Work>
    <dc:type rdf:resource="http://purl.org/dc/dcmitype/StillImage"/>
    <dc:date>2023-08-30T23:11:54.244710</dc:date>
    <dc:format>image/svg+xml</dc:format>
    <dc:creator>
     <cc:Agent>
      <dc:title>Matplotlib v3.5.2, https://matplotlib.org/</dc:title>
     </cc:Agent>
    </dc:creator>
   </cc:Work>
  </rdf:RDF>
 </metadata>
 <defs>
  <style type="text/css">*{stroke-linejoin: round; stroke-linecap: butt}</style>
 </defs>
 <g id="figure_1">
  <g id="patch_1">
   <path d="M 0 36 
L 144 36 
L 144 0 
L 0 0 
L 0 36 
z
" style="fill: none"/>
  </g>
  <g id="axes_1">
   <g id="patch_2">
    <path d="M 50.4 34.2 
L 144 34.2 
L 144 1.8 
L 50.4 1.8 
L 50.4 34.2 
z
" style="fill: none"/>
   </g>
   <g id="matplotlib.axis_1">
    <g id="xtick_1"/>
    <g id="xtick_2"/>
   </g>
   <g id="matplotlib.axis_2">
    <g id="ytick_1"/>
    <g id="ytick_2"/>
    <g id="ytick_3"/>
   </g>
   <g id="text_1">
    <g id="patch_3">
     <path d="M -1 30.535875 
L 92.808 30.535875 
L 92.808 8.458875 
L -1 8.458875 
" style="fill: none"/>
    </g>
    <!-- Obsplotlib -->
    <g style="fill: #418cd8" transform="translate(2.0835 23.509125)scale(0.144 -0.144)">
     <defs>
      <path id="DejaVuSansMono-4f" d="M 2828 2328 
Q 2828 3356 2617 3797 
Q 2406 4238 1925 4238 
Q 1447 4238 1236 3797 
Q 1025 3356 1025 2328 
Q 1025 1303 1236 862 
Q 1447 422 1925 422 
Q 2406 422 2617 861 
Q 2828 1300 2828 2328 
z
M 3488 2328 
Q 3488 1109 3102 509 
Q 2716 -91 1925 -91 
Q 1134 -91 750 506 
Q 366 1103 366 2328 
Q 366 3550 752 4150 
Q 1138 4750 1925 4750 
Q 2716 4750 3102 4150 
Q 3488 3550 3488 2328 
z
" transform="scale(0.015625)"/>
      <path id="DejaVuSansMono-62" d="M 2869 1747 
Q 2869 2416 2656 2756 
Q 2444 3097 2028 3097 
Q 1609 3097 1393 2755 
Q 1178 2413 1178 1747 
Q 1178 1084 1393 740 
Q 1609 397 2028 397 
Q 2444 397 2656 737 
Q 2869 1078 2869 1747 
z
M 1178 3053 
Q 1316 3309 1558 3446 
Q 1800 3584 2119 3584 
Q 2750 3584 3112 3098 
Q 3475 2613 3475 1759 
Q 3475 894 3111 401 
Q 2747 -91 2113 -91 
Q 1800 -91 1561 45 
Q 1322 181 1178 441 
L 1178 0 
L 603 0 
L 603 4863 
L 1178 4863 
L 1178 3053 
z
" transform="scale(0.015625)"/>
      <path id="DejaVuSansMono-73" d="M 3041 3378 
L 3041 2816 
Q 2794 2959 2544 3031 
Q 2294 3103 2034 3103 
Q 1644 3103 1451 2976 
Q 1259 2850 1259 2591 
Q 1259 2356 1403 2240 
Q 1547 2125 2119 2016 
L 2350 1972 
Q 2778 1891 2998 1647 
Q 3219 1403 3219 1013 
Q 3219 494 2850 201 
Q 2481 -91 1825 -91 
Q 1566 -91 1281 -36 
Q 997 19 666 128 
L 666 722 
Q 988 556 1281 473 
Q 1575 391 1838 391 
Q 2219 391 2428 545 
Q 2638 700 2638 978 
Q 2638 1378 1872 1531 
L 1847 1538 
L 1631 1581 
Q 1134 1678 906 1908 
Q 678 2138 678 2534 
Q 678 3038 1018 3311 
Q 1359 3584 1991 3584 
Q 2272 3584 2531 3532 
Q 2791 3481 3041 3378 
z
" transform="scale(0.015625)"/>
      <path id="DejaVuSansMono-70" d="M 1172 441 
L 1172 -1331 
L 594 -1331 
L 594 3500 
L 1172 3500 
L 1172 3053 
Q 1316 3313 1555 3448 
Q 1794 3584 2106 3584 
Q 2741 3584 3102 3093 
Q 3463 2603 3463 1734 
Q 3463 881 3100 395 
Q 2738 -91 2106 -91 
Q 1788 -91 1548 45 
Q 1309 181 1172 441 
z
M 2859 1747 
Q 2859 2416 2648 2756 
Q 2438 3097 2022 3097 
Q 1603 3097 1387 2755 
Q 1172 2413 1172 1747 
Q 1172 1084 1387 740 
Q 1603 397 2022 397 
Q 2438 397 2648 737 
Q 2859 1078 2859 1747 
z
" transform="scale(0.015625)"/>
      <path id="DejaVuSansMono-6c" d="M 1997 1269 
Q 1997 881 2139 684 
Q 2281 488 2559 488 
L 3231 488 
L 3231 0 
L 2503 0 
Q 1988 0 1705 331 
Q 1422 663 1422 1269 
L 1422 4447 
L 500 4447 
L 500 4897 
L 1997 4897 
L 1997 1269 
z
" transform="scale(0.015625)"/>
      <path id="DejaVuSansMono-6f" d="M 1925 3097 
Q 1488 3097 1263 2756 
Q 1038 2416 1038 1747 
Q 1038 1081 1263 739 
Q 1488 397 1925 397 
Q 2366 397 2591 739 
Q 2816 1081 2816 1747 
Q 2816 2416 2591 2756 
Q 2366 3097 1925 3097 
z
M 1925 3584 
Q 2653 3584 3039 3112 
Q 3425 2641 3425 1747 
Q 3425 850 3040 379 
Q 2656 -91 1925 -91 
Q 1197 -91 812 379 
Q 428 850 428 1747 
Q 428 2641 812 3112 
Q 1197 3584 1925 3584 
z
" transform="scale(0.015625)"/>
      <path id="DejaVuSansMono-74" d="M 1919 4494 
L 1919 3500 
L 3225 3500 
L 3225 3053 
L 1919 3053 
L 1919 1153 
Q 1919 766 2066 612 
Q 2213 459 2578 459 
L 3225 459 
L 3225 0 
L 2522 0 
Q 1875 0 1609 259 
Q 1344 519 1344 1153 
L 1344 3053 
L 409 3053 
L 409 3500 
L 1344 3500 
L 1344 4494 
L 1919 4494 
z
" transform="scale(0.015625)"/>
      <path id="DejaVuSansMono-69" d="M 800 3500 
L 2272 3500 
L 2272 447 
L 3413 447 
L 3413 0 
L 556 0 
L 556 447 
L 1697 447 
L 1697 3053 
L 800 3053 
L 800 3500 
z
M 1697 4863 
L 2272 4863 
L 2272 4134 
L 1697 4134 
L 1697 4863 
z
" transform="scale(0.015625)"/>
     </defs>
     <use xlink:href="#DejaVuSansMono-4f"/>
     <use xlink:href="#DejaVuSansMono-62" x="60.205078"/>
     <use xlink:href="#DejaVuSansMono-73" x="120.410156"/>
     <use xlink:href="#DejaVuSansMono-70" x="180.615234"/>
     <use xlink:href="#DejaVuSansMono-6c" x="240.820312"/>
     <use xlink:href="#DejaVuSansMono-6f" x="301.025391"/>
     <use xlink:href="#DejaVuSansMono-74" x="361.230469"/>
     <use xlink:href="#DejaVuSansMono-6c" x="421.435547"/>
     <use xlink:href="#DejaVuSansMono-69" x="481.640625"/>
     <use xlink:href="#DejaVuSansMono-62" x="541.845703"/>
    </g>
   </g>
   <g id="line2d_1">
    <path d="M 54.654545 16.250004 
L 88.319153 16.139949 
L 89.248544 15.841136 
L 90.177935 15.302302 
L 91.210591 14.70799 
L 91.72692 14.698868 
L 92.139982 14.97669 
L 92.553045 15.587305 
L 93.069373 16.846473 
L 94.721624 21.716503 
L 95.031421 21.952746 
L 95.237952 21.823833 
L 95.547749 21.07591 
L 95.857546 19.794124 
L 96.373875 16.544662 
L 97.92286 5.512109 
L 98.232657 4.726976 
L 98.439188 4.658934 
L 98.645719 4.778212 
L 98.852251 5.365253 
L 99.265313 7.829735 
L 99.781642 12.643694 
L 101.433892 29.703633 
L 101.743689 31.248221 
L 102.156752 32.045698 
L 102.260018 32.086957 
L 102.466549 31.810691 
L 102.879612 30.473683 
L 103.499206 26.994964 
L 104.325331 22.302733 
L 104.841659 20.490001 
L 105.254722 19.842273 
L 105.564519 19.842813 
L 105.977582 20.049778 
L 106.597176 20.550699 
L 107.010238 20.595063 
L 107.320035 20.248785 
L 107.629832 19.670146 
L 108.249426 17.681214 
L 109.488614 13.249831 
L 109.901677 12.396657 
L 110.211474 12.320763 
L 110.624537 12.370306 
L 110.934334 12.946069 
L 111.347396 14.03919 
L 112.380053 17.818832 
L 112.999647 19.728102 
L 113.41271 20.278322 
L 113.619241 20.371981 
L 113.825772 20.213062 
L 114.238835 19.384177 
L 114.651898 17.738992 
L 115.271492 14.390144 
L 116.200883 9.459739 
L 116.613945 8.123571 
L 116.820477 8.051063 
L 117.233539 8.131439 
L 117.440071 8.533852 
L 117.956399 10.636794 
L 119.298853 17.119401 
L 119.711915 18.183098 
L 120.021712 18.402879 
L 120.331509 18.402099 
L 120.641306 18.030023 
L 121.2609 16.777621 
L 122.190291 14.883158 
L 122.70662 14.317776 
L 123.119682 14.175285 
L 123.532745 14.274495 
L 124.152339 14.678932 
L 125.907855 16.081251 
L 126.733981 16.389836 
L 127.560106 16.463398 
L 129.418888 16.310946 
L 131.690733 16.245659 
L 139.745455 16.250004 
L 139.745455 16.250004 
" clip-path="url(#p8216a66204)" style="fill: none; stroke: #e8983b; stroke-width: 1.4; stroke-linecap: round"/>
   </g>
  </g>
 </g>
 <defs>
  <clipPath id="p8216a66204">
   <rect x="50.4" y="1.8" width="93.6" height="32.4"/>
  </clipPath>
 </defs>
</svg>
